<?xml version="1.0" encoding="UTF-8" standalone="no"?>
<!DOCTYPE svg PUBLIC "-//W3C//DTD SVG 1.1//EN"
 "http://www.w3.org/Graphics/SVG/1.1/DTD/svg11.dtd">
<!-- Generated by graphviz version 12.1.1 (20240910.0053)
 -->
<!-- Title: main Pages: 1 -->
<svg width="757pt" height="232pt"
 viewBox="0.00 0.00 756.50 231.50" xmlns="http://www.w3.org/2000/svg" xmlns:xlink="http://www.w3.org/1999/xlink">
<g id="graph0" class="graph" transform="scale(1 1) rotate(0) translate(4 227.5)">
<title>main</title>
<!-- Node1 -->
<g id="Node000001" class="node">
<title>Node1</title>
<g id="a_Node000001"><a xlink:title=" ">
<polygon fill="#999999" stroke="#666666" points="37,-119.88 0,-119.88 0,-100.62 37,-100.62 37,-119.88"/>
<text text-anchor="middle" x="18.5" y="-106.38" font-family="Helvetica,sans-Serif" font-size="10.00">main</text>
</a>
</g>
</g>
<!-- Node2 -->
<g id="Node000002" class="node">
<title>Node2</title>
<g id="a_Node000002"><a xlink:href="hill__cipher_8cpp.html#a3147ad576f8a94a2a6b66948672b452b" target="_top" xlink:title="Self test 1 &#45; using 3x3 randomly generated key.">
<polygon fill="white" stroke="#666666" points="110.75,-119.88 73,-119.88 73,-100.62 110.75,-100.62 110.75,-119.88"/>
<text text-anchor="middle" x="91.88" y="-106.38" font-family="Helvetica,sans-Serif" font-size="10.00">test1</text>
</a>
</g>
</g>
<!-- Node1&#45;&gt;Node2 -->
<g id="edge1_Node000001_Node000002" class="edge">
<title>Node1&#45;&gt;Node2</title>
<g id="a_edge1_Node000001_Node000002"><a xlink:title=" ">
<path fill="none" stroke="#63b8ff" d="M37.14,-110.25C44.55,-110.25 53.37,-110.25 61.69,-110.25"/>
<polygon fill="#63b8ff" stroke="#63b8ff" points="61.43,-113.75 71.43,-110.25 61.43,-106.75 61.43,-113.75"/>
</a>
</g>
</g>
<!-- Node10 -->
<g id="Node000010" class="node">
<title>Node10</title>
<g id="a_Node000010"><a xlink:href="hill__cipher_8cpp.html#a04391124480d2a49f2dec900237b0712" target="_top" xlink:title="Self test 2 &#45; using 8x8 randomly generated key.">
<polygon fill="white" stroke="#666666" points="110.75,-174.88 73,-174.88 73,-155.62 110.75,-155.62 110.75,-174.88"/>
<text text-anchor="middle" x="91.88" y="-161.38" font-family="Helvetica,sans-Serif" font-size="10.00">test2</text>
</a>
</g>
</g>
<!-- Node1&#45;&gt;Node10 -->
<g id="edge11_Node000001_Node000010" class="edge">
<title>Node1&#45;&gt;Node10</title>
<g id="a_edge11_Node000001_Node000010"><a xlink:title=" ">
<path fill="none" stroke="#63b8ff" d="M32.59,-120.34C42.75,-128.17 57.07,-139.2 68.97,-148.37"/>
<polygon fill="#63b8ff" stroke="#63b8ff" points="66.61,-150.97 76.67,-154.3 70.88,-145.43 66.61,-150.97"/>
</a>
</g>
</g>
<!-- Node11 -->
<g id="Node000011" class="node">
<title>Node11</title>
<g id="a_Node000011"><a xlink:href="adaline__learning_8cpp.html#a992bdf1fdb0b9d414bcf7981d2d87aa9" target="_top" xlink:title=" ">
<polygon fill="white" stroke="#666666" points="110.75,-62.88 73,-62.88 73,-43.62 110.75,-43.62 110.75,-62.88"/>
<text text-anchor="middle" x="91.88" y="-49.38" font-family="Helvetica,sans-Serif" font-size="10.00">test3</text>
</a>
</g>
</g>
<!-- Node1&#45;&gt;Node11 -->
<g id="edge16_Node000001_Node000011" class="edge">
<title>Node1&#45;&gt;Node11</title>
<g id="a_edge16_Node000001_Node000011"><a xlink:title=" ">
<path fill="none" stroke="#63b8ff" d="M31.93,-100.32C42.37,-91.98 57.51,-79.89 69.84,-70.05"/>
<polygon fill="#63b8ff" stroke="#63b8ff" points="71.77,-72.98 77.4,-64.01 67.4,-67.51 71.77,-72.98"/>
</a>
</g>
</g>
<!-- Node2&#45;&gt;Node2 -->
<g id="edge10_Node000002_Node000002" class="edge">
<title>Node2&#45;&gt;Node2</title>
<g id="a_edge10_Node000002_Node000002"><a xlink:title=" ">
<path fill="none" stroke="#63b8ff" d="M80.39,-120.16C75.15,-128.77 78.98,-137.88 91.88,-137.88 98.93,-137.88 103.27,-135.15 104.9,-131.28"/>
<polygon fill="#63b8ff" stroke="#63b8ff" points="108.41,-131.09 103.57,-121.66 101.47,-132.05 108.41,-131.09"/>
</a>
</g>
</g>
<!-- Node3 -->
<g id="Node000003" class="node">
<title>Node3</title>
<g id="a_Node000003"><a xlink:href="classciphers_1_1_hill_cipher.html#a427acfac1dbff3f48a2b071d449d965b" target="_top" xlink:title="Decrypt a given text using a given key.">
<polygon fill="white" stroke="#666666" points="266.25,-223.5 170,-223.5 170,-193 266.25,-193 266.25,-223.5"/>
<text text-anchor="start" x="178" y="-210" font-family="Helvetica,sans-Serif" font-size="10.00">ciphers::HillCipher</text>
<text text-anchor="middle" x="218.12" y="-198.75" font-family="Helvetica,sans-Serif" font-size="10.00">::decrypt_text</text>
</a>
</g>
</g>
<!-- Node2&#45;&gt;Node3 -->
<g id="edge2_Node000002_Node000003" class="edge">
<title>Node2&#45;&gt;Node3</title>
<g id="a_edge2_Node000002_Node000003"><a xlink:title=" ">
<path fill="none" stroke="#63b8ff" d="M97.74,-120.23C105.82,-135.83 123.47,-165.98 146.75,-183.25 150.72,-186.2 155.08,-188.82 159.61,-191.15"/>
<polygon fill="#63b8ff" stroke="#63b8ff" points="157.81,-194.18 168.35,-195.17 160.73,-187.82 157.81,-194.18"/>
</a>
</g>
</g>
<!-- Node4 -->
<g id="Node000004" class="node">
<title>Node4</title>
<g id="a_Node000004"><a xlink:href="classciphers_1_1_hill_cipher.html#aa8bbb6e4a5749f6008b06602d5103917" target="_top" xlink:title="Encrypt a given text using a given key.">
<polygon fill="white" stroke="#666666" points="266.25,-174.5 170,-174.5 170,-144 266.25,-144 266.25,-174.5"/>
<text text-anchor="start" x="178" y="-161" font-family="Helvetica,sans-Serif" font-size="10.00">ciphers::HillCipher</text>
<text text-anchor="middle" x="218.12" y="-149.75" font-family="Helvetica,sans-Serif" font-size="10.00">::encrypt_text</text>
</a>
</g>
</g>
<!-- Node2&#45;&gt;Node4 -->
<g id="edge3_Node000002_Node000004" class="edge">
<title>Node2&#45;&gt;Node4</title>
<g id="a_edge3_Node000002_Node000004"><a xlink:title=" ">
<path fill="none" stroke="#63b8ff" d="M111.18,-118.83C121.53,-123.57 134.77,-129.46 146.75,-134.25 151.34,-136.09 156.13,-137.93 160.95,-139.74"/>
<polygon fill="#63b8ff" stroke="#63b8ff" points="159.49,-142.93 170.08,-143.1 161.91,-136.36 159.49,-142.93"/>
</a>
</g>
</g>
<!-- Node5 -->
<g id="Node000005" class="node">
<title>Node5</title>
<g id="a_Node000005"><a xlink:href="classciphers_1_1_hill_cipher.html#a405b0a28d66a61239d3565d5256f9cb5" target="_top" xlink:title="Generate encryption and decryption key pair.">
<polygon fill="white" stroke="#666666" points="266.25,-125.5 170,-125.5 170,-95 266.25,-95 266.25,-125.5"/>
<text text-anchor="start" x="178" y="-112" font-family="Helvetica,sans-Serif" font-size="10.00">ciphers::HillCipher</text>
<text text-anchor="middle" x="218.12" y="-100.75" font-family="Helvetica,sans-Serif" font-size="10.00">::generate_keys</text>
</a>
</g>
</g>
<!-- Node2&#45;&gt;Node5 -->
<g id="edge4_Node000002_Node000005" class="edge">
<title>Node2&#45;&gt;Node5</title>
<g id="a_edge4_Node000002_Node000005"><a xlink:title=" ">
<path fill="none" stroke="#63b8ff" d="M111.21,-110.25C123.83,-110.25 141.37,-110.25 158.54,-110.25"/>
<polygon fill="#63b8ff" stroke="#63b8ff" points="158.21,-113.75 168.21,-110.25 158.21,-106.75 158.21,-113.75"/>
</a>
</g>
</g>
<!-- Node6 -->
<g id="Node000006" class="node">
<title>Node6</title>
<g id="a_Node000006"><a xlink:href="lu__decomposition_8h.html#a3108d43bd32c6fb3b3c158476c51ba7f" target="_top" xlink:title=" ">
<polygon fill="white" stroke="#666666" points="596.38,-143.88 516.62,-143.88 516.62,-124.62 596.38,-124.62 596.38,-143.88"/>
<text text-anchor="middle" x="556.5" y="-130.38" font-family="Helvetica,sans-Serif" font-size="10.00">determinant_lu</text>
</a>
</g>
</g>
<!-- Node5&#45;&gt;Node6 -->
<g id="edge5_Node000005_Node000006" class="edge">
<title>Node5&#45;&gt;Node6</title>
<g id="a_edge5_Node000005_Node000006"><a xlink:title=" ">
<path fill="none" stroke="#63b8ff" d="M266.56,-124.98C284.8,-129.92 305.93,-134.81 325.5,-137.25 386.87,-144.92 458.17,-142.21 504.91,-138.87"/>
<polygon fill="#63b8ff" stroke="#63b8ff" points="505.03,-142.37 514.74,-138.13 504.51,-135.39 505.03,-142.37"/>
</a>
</g>
</g>
<!-- Node8 -->
<g id="Node000008" class="node">
<title>Node8</title>
<g id="a_Node000008"><a xlink:href="classciphers_1_1_hill_cipher.html#ab02c7563889bf1e363deb8e21967b706" target="_top" xlink:title="Generate decryption matrix from an encryption matrix key.">
<polygon fill="white" stroke="#666666" points="456.25,-128.5 325.5,-128.5 325.5,-98 456.25,-98 456.25,-128.5"/>
<text text-anchor="start" x="333.5" y="-115" font-family="Helvetica,sans-Serif" font-size="10.00">ciphers::HillCipher</text>
<text text-anchor="middle" x="390.88" y="-103.75" font-family="Helvetica,sans-Serif" font-size="10.00">::generate_decryption_key</text>
</a>
</g>
</g>
<!-- Node5&#45;&gt;Node8 -->
<g id="edge7_Node000005_Node000008" class="edge">
<title>Node5&#45;&gt;Node8</title>
<g id="a_edge7_Node000005_Node000008"><a xlink:title=" ">
<path fill="none" stroke="#63b8ff" d="M266.69,-111.09C281.22,-111.34 297.58,-111.63 313.52,-111.91"/>
<polygon fill="#63b8ff" stroke="#63b8ff" points="313.45,-115.41 323.51,-112.08 313.57,-108.41 313.45,-115.41"/>
</a>
</g>
</g>
<!-- Node9 -->
<g id="Node000009" class="node">
<title>Node9</title>
<g id="a_Node000009"><a xlink:href="classciphers_1_1_hill_cipher.html#a642f70fb54cb50b00fb6df7c3f2b120e" target="_top" xlink:title="Generate encryption matrix of a given size. Larger size matrices are difficult to generate but provid...">
<polygon fill="white" stroke="#666666" points="456.25,-79.5 325.5,-79.5 325.5,-49 456.25,-49 456.25,-79.5"/>
<text text-anchor="start" x="333.5" y="-66" font-family="Helvetica,sans-Serif" font-size="10.00">ciphers::HillCipher</text>
<text text-anchor="middle" x="390.88" y="-54.75" font-family="Helvetica,sans-Serif" font-size="10.00">::generate_encryption_key</text>
</a>
</g>
</g>
<!-- Node5&#45;&gt;Node9 -->
<g id="edge9_Node000005_Node000009" class="edge">
<title>Node5&#45;&gt;Node9</title>
<g id="a_edge9_Node000005_Node000009"><a xlink:title=" ">
<path fill="none" stroke="#63b8ff" d="M266.69,-97.44C283.36,-92.95 302.44,-87.81 320.53,-82.93"/>
<polygon fill="#63b8ff" stroke="#63b8ff" points="321.42,-86.32 330.17,-80.34 319.6,-79.56 321.42,-86.32"/>
</a>
</g>
</g>
<!-- Node7 -->
<g id="Node000007" class="node">
<title>Node7</title>
<g id="a_Node000007"><a xlink:href="lu__decomposition_8h.html#a75b8a228c6419ecda6077255d6d60509" target="_top" xlink:title=" ">
<polygon fill="white" stroke="#666666" points="748.5,-143.88 656.75,-143.88 656.75,-124.62 748.5,-124.62 748.5,-143.88"/>
<text text-anchor="middle" x="702.62" y="-130.38" font-family="Helvetica,sans-Serif" font-size="10.00">lu_decomposition</text>
</a>
</g>
</g>
<!-- Node6&#45;&gt;Node7 -->
<g id="edge6_Node000006_Node000007" class="edge">
<title>Node6&#45;&gt;Node7</title>
<g id="a_edge6_Node000006_Node000007"><a xlink:title=" ">
<path fill="none" stroke="#63b8ff" d="M596.5,-134.25C611.54,-134.25 629.03,-134.25 645.38,-134.25"/>
<polygon fill="#63b8ff" stroke="#63b8ff" points="644.95,-137.75 654.95,-134.25 644.95,-130.75 644.95,-137.75"/>
</a>
</g>
</g>
<!-- Node8&#45;&gt;Node6 -->
<g id="edge8_Node000008_Node000006" class="edge">
<title>Node8&#45;&gt;Node6</title>
<g id="a_edge8_Node000008_Node000006"><a xlink:title=" ">
<path fill="none" stroke="#63b8ff" d="M456.54,-121.55C472.63,-123.61 489.64,-125.8 504.94,-127.76"/>
<polygon fill="#63b8ff" stroke="#63b8ff" points="504.4,-131.22 514.76,-129.02 505.29,-124.28 504.4,-131.22"/>
</a>
</g>
</g>
<!-- Node10&#45;&gt;Node3 -->
<g id="edge12_Node000010_Node000003" class="edge">
<title>Node10&#45;&gt;Node3</title>
<g id="a_edge12_Node000010_Node000003"><a xlink:title=" ">
<path fill="none" stroke="#63b8ff" d="M111.21,-171.59C124.46,-176.18 143.13,-182.64 161.11,-188.86"/>
<polygon fill="#63b8ff" stroke="#63b8ff" points="159.84,-192.13 170.43,-192.09 162.13,-185.51 159.84,-192.13"/>
</a>
</g>
</g>
<!-- Node10&#45;&gt;Node4 -->
<g id="edge13_Node000010_Node000004" class="edge">
<title>Node10&#45;&gt;Node4</title>
<g id="a_edge13_Node000010_Node000004"><a xlink:title=" ">
<path fill="none" stroke="#63b8ff" d="M111.21,-164.36C123.83,-163.76 141.37,-162.91 158.54,-162.08"/>
<polygon fill="#63b8ff" stroke="#63b8ff" points="158.39,-165.59 168.21,-161.61 158.05,-158.6 158.39,-165.59"/>
</a>
</g>
</g>
<!-- Node10&#45;&gt;Node5 -->
<g id="edge14_Node000010_Node000005" class="edge">
<title>Node10&#45;&gt;Node5</title>
<g id="a_edge14_Node000010_Node000005"><a xlink:title=" ">
<path fill="none" stroke="#63b8ff" d="M109.01,-155.33C119.53,-149.1 133.68,-141.16 146.75,-135.25 150.76,-133.44 154.93,-131.67 159.17,-129.96"/>
<polygon fill="#63b8ff" stroke="#63b8ff" points="160.29,-133.28 168.34,-126.4 157.75,-126.76 160.29,-133.28"/>
</a>
</g>
</g>
<!-- Node10&#45;&gt;Node10 -->
<g id="edge15_Node000010_Node000010" class="edge">
<title>Node10&#45;&gt;Node10</title>
<g id="a_edge15_Node000010_Node000010"><a xlink:title=" ">
<path fill="none" stroke="#63b8ff" d="M80.39,-175.16C75.15,-183.77 78.98,-192.88 91.88,-192.88 98.93,-192.88 103.27,-190.15 104.9,-186.28"/>
<polygon fill="#63b8ff" stroke="#63b8ff" points="108.41,-186.09 103.57,-176.66 101.47,-187.05 108.41,-186.09"/>
</a>
</g>
</g>
<!-- Node11&#45;&gt;Node11 -->
<g id="edge21_Node000011_Node000011" class="edge">
<title>Node11&#45;&gt;Node11</title>
<g id="a_edge21_Node000011_Node000011"><a xlink:title=" ">
<path fill="none" stroke="#63b8ff" d="M80.39,-63.16C75.15,-71.77 78.98,-80.88 91.88,-80.88 98.93,-80.88 103.27,-78.15 104.9,-74.28"/>
<polygon fill="#63b8ff" stroke="#63b8ff" points="108.41,-74.09 103.57,-64.66 101.47,-75.05 108.41,-74.09"/>
</a>
</g>
</g>
<!-- Node12 -->
<g id="Node000012" class="node">
<title>Node12</title>
<g id="a_Node000012"><a xlink:href="classmachine__learning_1_1adaline.html#a74e3c6c037b67895014414c5d75465e5" target="_top" xlink:title=" ">
<polygon fill="white" stroke="#666666" points="289.5,-24.88 146.75,-24.88 146.75,-5.63 289.5,-5.63 289.5,-24.88"/>
<text text-anchor="middle" x="218.12" y="-11.38" font-family="Helvetica,sans-Serif" font-size="10.00">machine_learning::adaline::fit</text>
</a>
</g>
</g>
<!-- Node11&#45;&gt;Node12 -->
<g id="edge17_Node000011_Node000012" class="edge">
<title>Node11&#45;&gt;Node12</title>
<g id="a_edge17_Node000011_Node000012"><a xlink:title=" ">
<path fill="none" stroke="#63b8ff" d="M111.21,-47.64C127.53,-42.65 152.07,-35.15 173.41,-28.62"/>
<polygon fill="#63b8ff" stroke="#63b8ff" points="174.24,-32.03 182.78,-25.75 172.19,-25.33 174.24,-32.03"/>
</a>
</g>
</g>
<!-- Node13 -->
<g id="Node000013" class="node">
<title>Node13</title>
<g id="a_Node000013"><a xlink:href="classmachine__learning_1_1adaline.html#ab11242d9ad5b03a75911e29b04f78fd3" target="_top" xlink:title=" ">
<polygon fill="white" stroke="#666666" points="455.12,-30.5 326.62,-30.5 326.62,0 455.12,0 455.12,-30.5"/>
<text text-anchor="start" x="334.62" y="-17" font-family="Helvetica,sans-Serif" font-size="10.00">machine_learning::adaline</text>
<text text-anchor="middle" x="390.88" y="-5.75" font-family="Helvetica,sans-Serif" font-size="10.00">::predict</text>
</a>
</g>
</g>
<!-- Node11&#45;&gt;Node13 -->
<g id="edge20_Node000011_Node000013" class="edge">
<title>Node11&#45;&gt;Node13</title>
<g id="a_edge20_Node000011_Node000013"><a xlink:title=" ">
<path fill="none" stroke="#63b8ff" d="M111.1,-52.04C145.9,-49.62 224.14,-43.57 289.5,-34.25 297.8,-33.07 306.46,-31.67 315.06,-30.18"/>
<polygon fill="#63b8ff" stroke="#63b8ff" points="315.58,-33.65 324.81,-28.45 314.35,-26.75 315.58,-33.65"/>
</a>
</g>
</g>
<!-- Node12&#45;&gt;Node13 -->
<g id="edge18_Node000012_Node000013" class="edge">
<title>Node12&#45;&gt;Node13</title>
<g id="a_edge18_Node000012_Node000013"><a xlink:title=" ">
<path fill="none" stroke="#63b8ff" d="M289.56,-15.25C297.9,-15.25 306.43,-15.25 314.83,-15.25"/>
<polygon fill="#63b8ff" stroke="#63b8ff" points="314.65,-18.75 324.65,-15.25 314.65,-11.75 314.65,-18.75"/>
</a>
</g>
</g>
<!-- Node14 -->
<g id="Node000014" class="node">
<title>Node14</title>
<g id="a_Node000014"><a xlink:href="classmachine__learning_1_1adaline.html#a082f758fb55fe19f22b3df66f89b2325" target="_top" xlink:title=" ">
<polygon fill="white" stroke="#666666" points="620.75,-30.5 492.25,-30.5 492.25,0 620.75,0 620.75,-30.5"/>
<text text-anchor="start" x="500.25" y="-17" font-family="Helvetica,sans-Serif" font-size="10.00">machine_learning::adaline</text>
<text text-anchor="middle" x="556.5" y="-5.75" font-family="Helvetica,sans-Serif" font-size="10.00">::activation</text>
</a>
</g>
</g>
<!-- Node13&#45;&gt;Node14 -->
<g id="edge19_Node000013_Node000014" class="edge">
<title>Node13&#45;&gt;Node14</title>
<g id="a_edge19_Node000013_Node000014"><a xlink:title=" ">
<path fill="none" stroke="#63b8ff" d="M455.61,-15.25C463.81,-15.25 472.27,-15.25 480.63,-15.25"/>
<polygon fill="#63b8ff" stroke="#63b8ff" points="480.43,-18.75 490.43,-15.25 480.43,-11.75 480.43,-18.75"/>
</a>
</g>
</g>
</g>
</svg>
