<?xml version="1.0" encoding="UTF-8" standalone="no"?>
<!DOCTYPE svg PUBLIC "-//W3C//DTD SVG 1.1//EN"
 "http://www.w3.org/Graphics/SVG/1.1/DTD/svg11.dtd">
<!-- Generated by graphviz version 12.1.1 (20240910.0053)
 -->
<!-- Title: test1 Pages: 1 -->
<svg width="799pt" height="235pt"
 viewBox="0.00 0.00 799.25 234.50" xmlns="http://www.w3.org/2000/svg" xmlns:xlink="http://www.w3.org/1999/xlink">
<g id="graph0" class="graph" transform="scale(1 1) rotate(0) translate(4 230.5)">
<title>test1</title>
<!-- Node1 -->
<g id="Node000001" class="node">
<title>Node1</title>
<g id="a_Node000001"><a xlink:title=" ">
<polygon fill="#999999" stroke="#666666" points="37.75,-182.88 0,-182.88 0,-163.62 37.75,-163.62 37.75,-182.88"/>
<text text-anchor="middle" x="18.88" y="-169.38" font-family="Helvetica,sans-Serif" font-size="10.00">test1</text>
</a>
</g>
</g>
<!-- Node2 -->
<g id="Node000002" class="node">
<title>Node2</title>
<g id="a_Node000002"><a xlink:href="classmachine__learning_1_1adaline.html#a74e3c6c037b67895014414c5d75465e5" target="_top" xlink:title=" ">
<polygon fill="white" stroke="#666666" points="216.5,-220.88 73.75,-220.88 73.75,-201.62 216.5,-201.62 216.5,-220.88"/>
<text text-anchor="middle" x="145.12" y="-207.38" font-family="Helvetica,sans-Serif" font-size="10.00">machine_learning::adaline::fit</text>
</a>
</g>
</g>
<!-- Node1&#45;&gt;Node2 -->
<g id="edge1_Node000001_Node000002" class="edge">
<title>Node1&#45;&gt;Node2</title>
<g id="a_edge1_Node000001_Node000002"><a xlink:title=" ">
<path fill="none" stroke="#63b8ff" d="M38.21,-178.86C54.53,-183.85 79.07,-191.35 100.41,-197.88"/>
<polygon fill="#63b8ff" stroke="#63b8ff" points="99.19,-201.17 109.78,-200.75 101.24,-194.47 99.19,-201.17"/>
</a>
</g>
</g>
<!-- Node3 -->
<g id="Node000003" class="node">
<title>Node3</title>
<g id="a_Node000003"><a xlink:href="classmachine__learning_1_1adaline.html#ab11242d9ad5b03a75911e29b04f78fd3" target="_top" xlink:title=" ">
<polygon fill="white" stroke="#666666" points="381,-226.5 252.5,-226.5 252.5,-196 381,-196 381,-226.5"/>
<text text-anchor="start" x="260.5" y="-213" font-family="Helvetica,sans-Serif" font-size="10.00">machine_learning::adaline</text>
<text text-anchor="middle" x="316.75" y="-201.75" font-family="Helvetica,sans-Serif" font-size="10.00">::predict</text>
</a>
</g>
</g>
<!-- Node1&#45;&gt;Node3 -->
<g id="edge4_Node000001_Node000003" class="edge">
<title>Node1&#45;&gt;Node3</title>
<g id="a_edge4_Node000001_Node000003"><a xlink:title=" ">
<path fill="none" stroke="#63b8ff" d="M38.1,-174.44C72.9,-176.85 151.15,-182.86 216.5,-192.25 224.44,-193.39 232.71,-194.73 240.94,-196.16"/>
<polygon fill="#63b8ff" stroke="#63b8ff" points="240.15,-199.58 250.61,-197.89 241.38,-192.68 240.15,-199.58"/>
</a>
</g>
</g>
<!-- Node5 -->
<g id="Node000005" class="node">
<title>Node5</title>
<g id="a_Node000005"><a xlink:href="hill__cipher_8cpp.html#a3147ad576f8a94a2a6b66948672b452b" target="_top" xlink:title="Self test 1 &#45; using 3x3 randomly generated key.">
<polygon fill="white" stroke="#666666" points="164,-124.88 126.25,-124.88 126.25,-105.62 164,-105.62 164,-124.88"/>
<text text-anchor="middle" x="145.12" y="-111.38" font-family="Helvetica,sans-Serif" font-size="10.00">test1</text>
</a>
</g>
</g>
<!-- Node1&#45;&gt;Node5 -->
<g id="edge5_Node000001_Node000005" class="edge">
<title>Node1&#45;&gt;Node5</title>
<g id="a_edge5_Node000001_Node000005"><a xlink:title=" ">
<path fill="none" stroke="#63b8ff" d="M38.21,-164.69C58.7,-155.13 92.12,-139.53 115.93,-128.41"/>
<polygon fill="#63b8ff" stroke="#63b8ff" points="117.17,-131.7 124.75,-124.29 114.21,-125.35 117.17,-131.7"/>
</a>
</g>
</g>
<!-- Node2&#45;&gt;Node3 -->
<g id="edge2_Node000002_Node000003" class="edge">
<title>Node2&#45;&gt;Node3</title>
<g id="a_edge2_Node000002_Node000003"><a xlink:title=" ">
<path fill="none" stroke="#63b8ff" d="M216.59,-211.25C224.57,-211.25 232.72,-211.25 240.76,-211.25"/>
<polygon fill="#63b8ff" stroke="#63b8ff" points="240.5,-214.75 250.5,-211.25 240.5,-207.75 240.5,-214.75"/>
</a>
</g>
</g>
<!-- Node4 -->
<g id="Node000004" class="node">
<title>Node4</title>
<g id="a_Node000004"><a xlink:href="classmachine__learning_1_1adaline.html#a082f758fb55fe19f22b3df66f89b2325" target="_top" xlink:title=" ">
<polygon fill="white" stroke="#666666" points="546.62,-226.5 418.12,-226.5 418.12,-196 546.62,-196 546.62,-226.5"/>
<text text-anchor="start" x="426.12" y="-213" font-family="Helvetica,sans-Serif" font-size="10.00">machine_learning::adaline</text>
<text text-anchor="middle" x="482.38" y="-201.75" font-family="Helvetica,sans-Serif" font-size="10.00">::activation</text>
</a>
</g>
</g>
<!-- Node3&#45;&gt;Node4 -->
<g id="edge3_Node000003_Node000004" class="edge">
<title>Node3&#45;&gt;Node4</title>
<g id="a_edge3_Node000003_Node000004"><a xlink:title=" ">
<path fill="none" stroke="#63b8ff" d="M381.48,-211.25C389.69,-211.25 398.15,-211.25 406.51,-211.25"/>
<polygon fill="#63b8ff" stroke="#63b8ff" points="406.31,-214.75 416.31,-211.25 406.31,-207.75 406.31,-214.75"/>
</a>
</g>
</g>
<!-- Node5&#45;&gt;Node5 -->
<g id="edge14_Node000005_Node000005" class="edge">
<title>Node5&#45;&gt;Node5</title>
<g id="a_edge14_Node000005_Node000005"><a xlink:title=" ">
<path fill="none" stroke="#63b8ff" d="M125.98,-124.59C116.06,-133.36 122.44,-142.88 145.12,-142.88 158.24,-142.88 165.91,-139.7 168.12,-135.32"/>
<polygon fill="#63b8ff" stroke="#63b8ff" points="171.45,-134.24 164.78,-126.01 164.87,-136.61 171.45,-134.24"/>
</a>
</g>
</g>
<!-- Node6 -->
<g id="Node000006" class="node">
<title>Node6</title>
<g id="a_Node000006"><a xlink:href="classciphers_1_1_hill_cipher.html#a427acfac1dbff3f48a2b071d449d965b" target="_top" xlink:title="Decrypt a given text using a given key.">
<polygon fill="white" stroke="#666666" points="364.88,-177.5 268.62,-177.5 268.62,-147 364.88,-147 364.88,-177.5"/>
<text text-anchor="start" x="276.62" y="-164" font-family="Helvetica,sans-Serif" font-size="10.00">ciphers::HillCipher</text>
<text text-anchor="middle" x="316.75" y="-152.75" font-family="Helvetica,sans-Serif" font-size="10.00">::decrypt_text</text>
</a>
</g>
</g>
<!-- Node5&#45;&gt;Node6 -->
<g id="edge6_Node000005_Node000006" class="edge">
<title>Node5&#45;&gt;Node6</title>
<g id="a_edge6_Node000005_Node000006"><a xlink:title=" ">
<path fill="none" stroke="#63b8ff" d="M164.28,-120.28C186.39,-126.41 224.84,-137.06 257.47,-146.1"/>
<polygon fill="#63b8ff" stroke="#63b8ff" points="256.24,-149.39 266.82,-148.69 258.11,-142.65 256.24,-149.39"/>
</a>
</g>
</g>
<!-- Node7 -->
<g id="Node000007" class="node">
<title>Node7</title>
<g id="a_Node000007"><a xlink:href="classciphers_1_1_hill_cipher.html#aa8bbb6e4a5749f6008b06602d5103917" target="_top" xlink:title="Encrypt a given text using a given key.">
<polygon fill="white" stroke="#666666" points="364.88,-128.5 268.62,-128.5 268.62,-98 364.88,-98 364.88,-128.5"/>
<text text-anchor="start" x="276.62" y="-115" font-family="Helvetica,sans-Serif" font-size="10.00">ciphers::HillCipher</text>
<text text-anchor="middle" x="316.75" y="-103.75" font-family="Helvetica,sans-Serif" font-size="10.00">::encrypt_text</text>
</a>
</g>
</g>
<!-- Node5&#45;&gt;Node7 -->
<g id="edge7_Node000005_Node000007" class="edge">
<title>Node5&#45;&gt;Node7</title>
<g id="a_edge7_Node000005_Node000007"><a xlink:title=" ">
<path fill="none" stroke="#63b8ff" d="M164.28,-115.04C186.3,-114.78 224.51,-114.33 257.04,-113.94"/>
<polygon fill="#63b8ff" stroke="#63b8ff" points="256.8,-117.45 266.76,-113.83 256.72,-110.45 256.8,-117.45"/>
</a>
</g>
</g>
<!-- Node8 -->
<g id="Node000008" class="node">
<title>Node8</title>
<g id="a_Node000008"><a xlink:href="classciphers_1_1_hill_cipher.html#a405b0a28d66a61239d3565d5256f9cb5" target="_top" xlink:title="Generate encryption and decryption key pair.">
<polygon fill="white" stroke="#666666" points="364.88,-79.5 268.62,-79.5 268.62,-49 364.88,-49 364.88,-79.5"/>
<text text-anchor="start" x="276.62" y="-66" font-family="Helvetica,sans-Serif" font-size="10.00">ciphers::HillCipher</text>
<text text-anchor="middle" x="316.75" y="-54.75" font-family="Helvetica,sans-Serif" font-size="10.00">::generate_keys</text>
</a>
</g>
</g>
<!-- Node5&#45;&gt;Node8 -->
<g id="edge8_Node000005_Node000008" class="edge">
<title>Node5&#45;&gt;Node8</title>
<g id="a_edge8_Node000005_Node000008"><a xlink:title=" ">
<path fill="none" stroke="#63b8ff" d="M164.28,-109.79C186.39,-103.14 224.84,-91.58 257.47,-81.77"/>
<polygon fill="#63b8ff" stroke="#63b8ff" points="258.26,-85.19 266.82,-78.96 256.24,-78.49 258.26,-85.19"/>
</a>
</g>
</g>
<!-- Node9 -->
<g id="Node000009" class="node">
<title>Node9</title>
<g id="a_Node000009"><a xlink:href="lu__decomposition_8h.html#a3108d43bd32c6fb3b3c158476c51ba7f" target="_top" xlink:title=" ">
<polygon fill="white" stroke="#666666" points="663.5,-94.88 583.75,-94.88 583.75,-75.62 663.5,-75.62 663.5,-94.88"/>
<text text-anchor="middle" x="623.62" y="-81.38" font-family="Helvetica,sans-Serif" font-size="10.00">determinant_lu</text>
</a>
</g>
</g>
<!-- Node8&#45;&gt;Node9 -->
<g id="edge9_Node000008_Node000009" class="edge">
<title>Node8&#45;&gt;Node9</title>
<g id="a_edge9_Node000008_Node000009"><a xlink:title=" ">
<path fill="none" stroke="#63b8ff" d="M365.29,-78.17C381.54,-82.28 399.93,-86.21 417,-88.25 474.7,-95.13 489.65,-89.41 547.75,-88.25 555.62,-88.09 563.95,-87.84 572.08,-87.55"/>
<polygon fill="#63b8ff" stroke="#63b8ff" points="572.01,-91.06 581.87,-87.18 571.75,-84.06 572.01,-91.06"/>
</a>
</g>
</g>
<!-- Node11 -->
<g id="Node000011" class="node">
<title>Node11</title>
<g id="a_Node000011"><a xlink:href="classciphers_1_1_hill_cipher.html#ab02c7563889bf1e363deb8e21967b706" target="_top" xlink:title="Generate decryption matrix from an encryption matrix key.">
<polygon fill="white" stroke="#666666" points="547.75,-79.5 417,-79.5 417,-49 547.75,-49 547.75,-79.5"/>
<text text-anchor="start" x="425" y="-66" font-family="Helvetica,sans-Serif" font-size="10.00">ciphers::HillCipher</text>
<text text-anchor="middle" x="482.38" y="-54.75" font-family="Helvetica,sans-Serif" font-size="10.00">::generate_decryption_key</text>
</a>
</g>
</g>
<!-- Node8&#45;&gt;Node11 -->
<g id="edge11_Node000008_Node000011" class="edge">
<title>Node8&#45;&gt;Node11</title>
<g id="a_edge11_Node000008_Node000011"><a xlink:title=" ">
<path fill="none" stroke="#63b8ff" d="M365.08,-64.25C377.61,-64.25 391.47,-64.25 405.12,-64.25"/>
<polygon fill="#63b8ff" stroke="#63b8ff" points="404.99,-67.75 414.99,-64.25 404.99,-60.75 404.99,-67.75"/>
</a>
</g>
</g>
<!-- Node12 -->
<g id="Node000012" class="node">
<title>Node12</title>
<g id="a_Node000012"><a xlink:href="classciphers_1_1_hill_cipher.html#a642f70fb54cb50b00fb6df7c3f2b120e" target="_top" xlink:title="Generate encryption matrix of a given size. Larger size matrices are difficult to generate but provid...">
<polygon fill="white" stroke="#666666" points="547.75,-30.5 417,-30.5 417,0 547.75,0 547.75,-30.5"/>
<text text-anchor="start" x="425" y="-17" font-family="Helvetica,sans-Serif" font-size="10.00">ciphers::HillCipher</text>
<text text-anchor="middle" x="482.38" y="-5.75" font-family="Helvetica,sans-Serif" font-size="10.00">::generate_encryption_key</text>
</a>
</g>
</g>
<!-- Node8&#45;&gt;Node12 -->
<g id="edge13_Node000008_Node000012" class="edge">
<title>Node8&#45;&gt;Node12</title>
<g id="a_edge13_Node000008_Node000012"><a xlink:title=" ">
<path fill="none" stroke="#63b8ff" d="M365.08,-50.08C381.65,-45.11 400.53,-39.46 418.19,-34.17"/>
<polygon fill="#63b8ff" stroke="#63b8ff" points="418.97,-37.59 427.54,-31.37 416.96,-30.89 418.97,-37.59"/>
</a>
</g>
</g>
<!-- Node10 -->
<g id="Node000010" class="node">
<title>Node10</title>
<g id="a_Node000010"><a xlink:href="lu__decomposition_8h.html#a75b8a228c6419ecda6077255d6d60509" target="_top" xlink:title=" ">
<polygon fill="white" stroke="#666666" points="791.25,-94.88 699.5,-94.88 699.5,-75.62 791.25,-75.62 791.25,-94.88"/>
<text text-anchor="middle" x="745.38" y="-81.38" font-family="Helvetica,sans-Serif" font-size="10.00">lu_decomposition</text>
</a>
</g>
</g>
<!-- Node9&#45;&gt;Node10 -->
<g id="edge10_Node000009_Node000010" class="edge">
<title>Node9&#45;&gt;Node10</title>
<g id="a_edge10_Node000009_Node000010"><a xlink:title=" ">
<path fill="none" stroke="#63b8ff" d="M663.84,-85.25C671.53,-85.25 679.75,-85.25 687.88,-85.25"/>
<polygon fill="#63b8ff" stroke="#63b8ff" points="687.74,-88.75 697.74,-85.25 687.74,-81.75 687.74,-88.75"/>
</a>
</g>
</g>
<!-- Node11&#45;&gt;Node9 -->
<g id="edge12_Node000011_Node000009" class="edge">
<title>Node11&#45;&gt;Node9</title>
<g id="a_edge12_Node000011_Node000009"><a xlink:title=" ">
<path fill="none" stroke="#63b8ff" d="M548.11,-74.01C556.22,-75.24 564.42,-76.47 572.27,-77.66"/>
<polygon fill="#63b8ff" stroke="#63b8ff" points="571.55,-81.09 581.96,-79.12 572.6,-74.17 571.55,-81.09"/>
</a>
</g>
</g>
</g>
</svg>
