<?xml version="1.0" encoding="UTF-8" standalone="no"?>
<!DOCTYPE svg PUBLIC "-//W3C//DTD SVG 1.1//EN"
 "http://www.w3.org/Graphics/SVG/1.1/DTD/svg11.dtd">
<!-- Generated by graphviz version 12.1.1 (20240910.0053)
 -->
<!-- Title: test3 Pages: 1 -->
<svg width="559pt" height="52pt"
 viewBox="0.00 0.00 558.60 51.88" xmlns="http://www.w3.org/2000/svg" xmlns:xlink="http://www.w3.org/1999/xlink">
<g id="graph0" class="graph" transform="scale(1 1) rotate(0) translate(4 47.88)">
<title>test3</title>
<!-- Node1 -->
<g id="Node000001" class="node">
<title>Node1</title>
<g id="a_Node000001"><a xlink:title=" ">
<polygon fill="#999999" stroke="#666666" points="42.85,-24.88 5.1,-24.88 5.1,-5.63 42.85,-5.63 42.85,-24.88"/>
<text text-anchor="middle" x="23.97" y="-11.38" font-family="Helvetica,sans-Serif" font-size="10.00">test3</text>
</a>
</g>
</g>
<!-- Node1&#45;&gt;Node1 -->
<g id="edge5_Node000001_Node000001" class="edge">
<title>Node1&#45;&gt;Node1</title>
<g id="a_edge5_Node000001_Node000001"><a xlink:title=" ">
<path fill="none" stroke="#63b8ff" d="M4.83,-24.59C-5.1,-33.36 1.28,-42.88 23.97,-42.88 37.09,-42.88 44.75,-39.7 46.97,-35.32"/>
<polygon fill="#63b8ff" stroke="#63b8ff" points="50.3,-34.24 43.62,-26.01 43.71,-36.61 50.3,-34.24"/>
</a>
</g>
</g>
<!-- Node2 -->
<g id="Node000002" class="node">
<title>Node2</title>
<g id="a_Node000002"><a xlink:href="classmachine__learning_1_1adaline.html#a74e3c6c037b67895014414c5d75465e5" target="_top" xlink:title=" ">
<polygon fill="white" stroke="#666666" points="221.6,-43.88 78.85,-43.88 78.85,-24.62 221.6,-24.62 221.6,-43.88"/>
<text text-anchor="middle" x="150.22" y="-30.38" font-family="Helvetica,sans-Serif" font-size="10.00">machine_learning::adaline::fit</text>
</a>
</g>
</g>
<!-- Node1&#45;&gt;Node2 -->
<g id="edge1_Node000001_Node000002" class="edge">
<title>Node1&#45;&gt;Node2</title>
<g id="a_edge1_Node000001_Node000002"><a xlink:title=" ">
<path fill="none" stroke="#63b8ff" d="M43.3,-18.05C51.32,-19.28 61.32,-20.81 71.94,-22.43"/>
<polygon fill="#63b8ff" stroke="#63b8ff" points="71.27,-25.87 81.69,-23.92 72.33,-18.95 71.27,-25.87"/>
</a>
</g>
</g>
<!-- Node3 -->
<g id="Node000003" class="node">
<title>Node3</title>
<g id="a_Node000003"><a xlink:href="classmachine__learning_1_1adaline.html#ab11242d9ad5b03a75911e29b04f78fd3" target="_top" xlink:title=" ">
<polygon fill="white" stroke="#666666" points="386.1,-30.5 257.6,-30.5 257.6,0 386.1,0 386.1,-30.5"/>
<text text-anchor="start" x="265.6" y="-17" font-family="Helvetica,sans-Serif" font-size="10.00">machine_learning::adaline</text>
<text text-anchor="middle" x="321.85" y="-5.75" font-family="Helvetica,sans-Serif" font-size="10.00">::predict</text>
</a>
</g>
</g>
<!-- Node1&#45;&gt;Node3 -->
<g id="edge4_Node000001_Node000003" class="edge">
<title>Node1&#45;&gt;Node3</title>
<g id="a_edge4_Node000001_Node000003"><a xlink:title=" ">
<path fill="none" stroke="#63b8ff" d="M43.03,-15.25C82.35,-15.25 177.61,-15.25 245.6,-15.25"/>
<polygon fill="#63b8ff" stroke="#63b8ff" points="245.6,-18.75 255.6,-15.25 245.6,-11.75 245.6,-18.75"/>
</a>
</g>
</g>
<!-- Node2&#45;&gt;Node3 -->
<g id="edge2_Node000002_Node000003" class="edge">
<title>Node2&#45;&gt;Node3</title>
<g id="a_edge2_Node000002_Node000003"><a xlink:title=" ">
<path fill="none" stroke="#63b8ff" d="M221.68,-26.36C229.66,-25.46 237.82,-24.55 245.86,-23.65"/>
<polygon fill="#63b8ff" stroke="#63b8ff" points="246.06,-27.15 255.6,-22.56 245.28,-20.19 246.06,-27.15"/>
</a>
</g>
</g>
<!-- Node4 -->
<g id="Node000004" class="node">
<title>Node4</title>
<g id="a_Node000004"><a xlink:href="classmachine__learning_1_1adaline.html#a082f758fb55fe19f22b3df66f89b2325" target="_top" xlink:title=" ">
<polygon fill="white" stroke="#666666" points="550.6,-30.5 422.1,-30.5 422.1,0 550.6,0 550.6,-30.5"/>
<text text-anchor="start" x="430.1" y="-17" font-family="Helvetica,sans-Serif" font-size="10.00">machine_learning::adaline</text>
<text text-anchor="middle" x="486.35" y="-5.75" font-family="Helvetica,sans-Serif" font-size="10.00">::activation</text>
</a>
</g>
</g>
<!-- Node3&#45;&gt;Node4 -->
<g id="edge3_Node000003_Node000004" class="edge">
<title>Node3&#45;&gt;Node4</title>
<g id="a_edge3_Node000003_Node000004"><a xlink:title=" ">
<path fill="none" stroke="#63b8ff" d="M386.14,-15.25C394.07,-15.25 402.25,-15.25 410.34,-15.25"/>
<polygon fill="#63b8ff" stroke="#63b8ff" points="410.18,-18.75 420.18,-15.25 410.18,-11.75 410.18,-18.75"/>
</a>
</g>
</g>
</g>
</svg>
