<?xml version="1.0" encoding="UTF-8" standalone="no"?>
<!DOCTYPE svg PUBLIC "-//W3C//DTD SVG 1.1//EN"
 "http://www.w3.org/Graphics/SVG/1.1/DTD/svg11.dtd">
<!-- Generated by graphviz version 12.1.1 (20240910.0053)
 -->
<!-- Title: main Pages: 1 -->
<svg width="210pt" height="64pt"
 viewBox="0.00 0.00 209.50 64.25" xmlns="http://www.w3.org/2000/svg" xmlns:xlink="http://www.w3.org/1999/xlink">
<g id="graph0" class="graph" transform="scale(1 1) rotate(0) translate(4 60.25)">
<title>main</title>
<!-- Node1 -->
<g id="Node000001" class="node">
<title>Node1</title>
<g id="a_Node000001"><a xlink:title=" ">
<polygon fill="#999999" stroke="#666666" points="37,-37.25 0,-37.25 0,-18 37,-18 37,-37.25"/>
<text text-anchor="middle" x="18.5" y="-23.75" font-family="Helvetica,sans-Serif" font-size="10.00">main</text>
</a>
</g>
</g>
<!-- Node2 -->
<g id="Node000002" class="node">
<title>Node2</title>
<g id="a_Node000002"><a xlink:href="addition__rule_8cpp.html#a565ffcbbdbe496ced37250bc8dc36bc0" target="_top" xlink:title=" ">
<polygon fill="white" stroke="#666666" points="197.75,-56.25 76.75,-56.25 76.75,-37 197.75,-37 197.75,-56.25"/>
<text text-anchor="middle" x="137.25" y="-42.75" font-family="Helvetica,sans-Serif" font-size="10.00">addition_rule_dependent</text>
</a>
</g>
</g>
<!-- Node1&#45;&gt;Node2 -->
<g id="edge1_Node000001_Node000002" class="edge">
<title>Node1&#45;&gt;Node2</title>
<g id="a_edge1_Node000001_Node000002"><a xlink:title=" ">
<path fill="none" stroke="#63b8ff" d="M37.49,-30.55C45.28,-31.82 54.97,-33.4 65.2,-35.06"/>
<polygon fill="#63b8ff" stroke="#63b8ff" points="64.52,-38.5 74.95,-36.65 65.65,-31.59 64.52,-38.5"/>
</a>
</g>
</g>
<!-- Node3 -->
<g id="Node000003" class="node">
<title>Node3</title>
<g id="a_Node000003"><a xlink:href="addition__rule_8cpp.html#a4adfd055c758546456d440ee9133555d" target="_top" xlink:title=" ">
<polygon fill="white" stroke="#666666" points="201.5,-19.25 73,-19.25 73,0 201.5,0 201.5,-19.25"/>
<text text-anchor="middle" x="137.25" y="-5.75" font-family="Helvetica,sans-Serif" font-size="10.00">addition_rule_independent</text>
</a>
</g>
</g>
<!-- Node1&#45;&gt;Node3 -->
<g id="edge2_Node000001_Node000003" class="edge">
<title>Node1&#45;&gt;Node3</title>
<g id="a_edge2_Node000001_Node000003"><a xlink:title=" ">
<path fill="none" stroke="#63b8ff" d="M37.49,-24.85C44.28,-23.8 52.5,-22.54 61.27,-21.19"/>
<polygon fill="#63b8ff" stroke="#63b8ff" points="61.75,-24.65 71.1,-19.67 60.68,-17.73 61.75,-24.65"/>
</a>
</g>
</g>
</g>
</svg>
