<?xml version="1.0" encoding="UTF-8" standalone="no"?>
<!DOCTYPE svg PUBLIC "-//W3C//DTD SVG 1.1//EN"
 "http://www.w3.org/Graphics/SVG/1.1/DTD/svg11.dtd">
<!-- Generated by graphviz version 12.1.1 (20240910.0053)
 -->
<!-- Title: main Pages: 1 -->
<svg width="165pt" height="64pt"
 viewBox="0.00 0.00 165.25 64.25" xmlns="http://www.w3.org/2000/svg" xmlns:xlink="http://www.w3.org/1999/xlink">
<g id="graph0" class="graph" transform="scale(1 1) rotate(0) translate(4 60.25)">
<title>main</title>
<!-- Node1 -->
<g id="Node000001" class="node">
<title>Node1</title>
<g id="a_Node000001"><a xlink:title=" ">
<polygon fill="#999999" stroke="#666666" points="37,-37.25 0,-37.25 0,-18 37,-18 37,-37.25"/>
<text text-anchor="middle" x="18.5" y="-23.75" font-family="Helvetica,sans-Serif" font-size="10.00">main</text>
</a>
</g>
</g>
<!-- Node2 -->
<g id="Node000002" class="node">
<title>Node2</title>
<g id="a_Node000002"><a xlink:href="bayes__theorem_8cpp.html#a655bfe51252468d232dc639a340656ba" target="_top" xlink:title=" ">
<polygon fill="white" stroke="#666666" points="157.25,-56.25 73,-56.25 73,-37 157.25,-37 157.25,-56.25"/>
<text text-anchor="middle" x="115.12" y="-42.75" font-family="Helvetica,sans-Serif" font-size="10.00">bayes_AgivenB</text>
</a>
</g>
</g>
<!-- Node1&#45;&gt;Node2 -->
<g id="edge1_Node000001_Node000002" class="edge">
<title>Node1&#45;&gt;Node2</title>
<g id="a_edge1_Node000001_Node000002"><a xlink:title=" ">
<path fill="none" stroke="#63b8ff" d="M37.3,-31.2C44.38,-32.62 52.92,-34.34 61.7,-36.1"/>
<polygon fill="#63b8ff" stroke="#63b8ff" points="60.88,-39.5 71.37,-38.04 62.26,-32.64 60.88,-39.5"/>
</a>
</g>
</g>
<!-- Node3 -->
<g id="Node000003" class="node">
<title>Node3</title>
<g id="a_Node000003"><a xlink:href="bayes__theorem_8cpp.html#abb4f22dc05887c2259fdfc55c687598f" target="_top" xlink:title=" ">
<polygon fill="white" stroke="#666666" points="157.25,-19.25 73,-19.25 73,0 157.25,0 157.25,-19.25"/>
<text text-anchor="middle" x="115.12" y="-5.75" font-family="Helvetica,sans-Serif" font-size="10.00">bayes_BgivenA</text>
</a>
</g>
</g>
<!-- Node1&#45;&gt;Node3 -->
<g id="edge2_Node000001_Node000003" class="edge">
<title>Node1&#45;&gt;Node3</title>
<g id="a_edge2_Node000001_Node000003"><a xlink:title=" ">
<path fill="none" stroke="#63b8ff" d="M37.3,-24.24C44.38,-22.89 52.92,-21.27 61.7,-19.6"/>
<polygon fill="#63b8ff" stroke="#63b8ff" points="62.2,-23.07 71.37,-17.76 60.89,-16.19 62.2,-23.07"/>
</a>
</g>
</g>
</g>
</svg>
