<?xml version="1.0" encoding="UTF-8" standalone="no"?>
<!DOCTYPE svg PUBLIC "-//W3C//DTD SVG 1.1//EN"
 "http://www.w3.org/Graphics/SVG/1.1/DTD/svg11.dtd">
<!-- Generated by graphviz version 12.1.1 (20240910.0053)
 -->
<!-- Title: main Pages: 1 -->
<svg width="350pt" height="163pt"
 viewBox="0.00 0.00 350.00 163.03" xmlns="http://www.w3.org/2000/svg" xmlns:xlink="http://www.w3.org/1999/xlink">

<svg id="main" version="1.1" xmlns="http://www.w3.org/2000/svg" xmlns:xlink="http://www.w3.org/1999/xlink" xml:space="preserve">

<style type="text/css"><![CDATA[
.node, .edge {opacity: 0.7;}
.node.selected, .edge.selected {opacity: 1;}
.edge:hover path { stroke: red; }
.edge:hover polygon { stroke: red; fill: red; }
]]></style>
<script type="application/ecmascript" xlink:href="svg.min.js"/>
<svg id="graph" class="graph">
<g id="graph0" class="graph" transform="scale(1 1) rotate(0) translate(4 159.03)">
<title>main</title>
<!-- Node1 -->
<g id="Node000001" class="node">
<title>Node1</title>
<g id="a_Node000001"><a xlink:title=" ">
<polygon fill="#999999" stroke="#666666" points="37,-81.03 0,-81.03 0,-61.78 37,-61.78 37,-81.03"/>
<text text-anchor="middle" x="18.5" y="-67.53" font-family="Helvetica,sans-Serif" font-size="10.00">main</text>
</a>
</g>
</g>
<!-- Node2 -->
<g id="Node000002" class="node">
<title>Node2</title>
<g id="a_Node000002"><a xlink:href="binomial__dist_8cpp.html#a4416a7bc7fa87201883c54cdc4c82813" target="_top" xlink:title=" ">
<polygon fill="white" stroke="#666666" points="191,-155.03 94,-155.03 94,-135.78 191,-135.78 191,-155.03"/>
<text text-anchor="middle" x="142.5" y="-141.53" font-family="Helvetica,sans-Serif" font-size="10.00">binomial_expected</text>
</a>
</g>
</g>
<!-- Node1&#45;&gt;Node2 -->
<g id="edge1_Node000001_Node000002" class="edge">
<title>Node1&#45;&gt;Node2</title>
<g id="a_edge1_Node000001_Node000002"><a xlink:title=" ">
<path fill="none" stroke="#63b8ff" d="M26.25,-81.31C35.37,-93.93 52.84,-115.53 73,-127.41 76.18,-129.28 79.55,-130.96 83.03,-132.47"/>
<polygon fill="#63b8ff" stroke="#63b8ff" points="81.69,-135.71 92.29,-135.96 84.17,-129.16 81.69,-135.71"/>
</a>
</g>
</g>
<!-- Node3 -->
<g id="Node000003" class="node">
<title>Node3</title>
<g id="a_Node000003"><a xlink:href="binomial__dist_8cpp.html#a76ed6ce71415fb400b65f0656cef3d25" target="_top" xlink:title=" ">
<polygon fill="white" stroke="#666666" points="209.38,-118.03 75.62,-118.03 75.62,-98.78 209.38,-98.78 209.38,-118.03"/>
<text text-anchor="middle" x="142.5" y="-104.53" font-family="Helvetica,sans-Serif" font-size="10.00">binomial_range_successes</text>
</a>
</g>
</g>
<!-- Node1&#45;&gt;Node3 -->
<g id="edge2_Node000001_Node000003" class="edge">
<title>Node1&#45;&gt;Node3</title>
<g id="a_edge2_Node000001_Node000003"><a xlink:title=" ">
<path fill="none" stroke="#63b8ff" d="M37.21,-78.12C47.57,-81.94 60.94,-86.69 73,-90.41 78.44,-92.08 84.16,-93.74 89.87,-95.34"/>
<polygon fill="#63b8ff" stroke="#63b8ff" points="88.74,-98.66 99.31,-97.91 90.58,-91.9 88.74,-98.66"/>
</a>
</g>
</g>
<!-- Node5 -->
<g id="Node000005" class="node">
<title>Node5</title>
<g id="a_Node000005"><a xlink:href="binomial__dist_8cpp.html#af09e51f513cee647d41192ab0a872cdc" target="_top" xlink:title=" ">
<polygon fill="white" stroke="#666666" points="212,-44.03 73,-44.03 73,-24.78 212,-24.78 212,-44.03"/>
<text text-anchor="middle" x="142.5" y="-30.53" font-family="Helvetica,sans-Serif" font-size="10.00">binomial_standard_deviation</text>
</a>
</g>
</g>
<!-- Node1&#45;&gt;Node5 -->
<g id="edge4_Node000001_Node000005" class="edge">
<title>Node1&#45;&gt;Node5</title>
<g id="a_edge4_Node000001_Node000005"><a xlink:title=" ">
<path fill="none" stroke="#63b8ff" d="M37.21,-64.69C47.57,-60.87 60.94,-56.12 73,-52.41 78.44,-50.73 84.16,-49.07 89.87,-47.47"/>
<polygon fill="#63b8ff" stroke="#63b8ff" points="90.58,-50.91 99.31,-44.9 88.74,-44.15 90.58,-50.91"/>
</a>
</g>
</g>
<!-- Node6 -->
<g id="Node000006" class="node">
<title>Node6</title>
<g id="a_Node000006"><a xlink:href="binomial__dist_8cpp.html#acd4dd4558031e4c5d045c801f73d8861" target="_top" xlink:title=" ">
<polygon fill="white" stroke="#666666" points="342,-34.03 248,-34.03 248,-14.78 342,-14.78 342,-34.03"/>
<text text-anchor="middle" x="295" y="-20.53" font-family="Helvetica,sans-Serif" font-size="10.00">binomial_variance</text>
</a>
</g>
</g>
<!-- Node1&#45;&gt;Node6 -->
<g id="edge6_Node000001_Node000006" class="edge">
<title>Node1&#45;&gt;Node6</title>
<g id="a_edge6_Node000001_Node000006"><a xlink:title=" ">
<path fill="none" stroke="#63b8ff" d="M25.24,-61.6C33.73,-48.21 50.99,-24.82 73,-15.41 129.96,8.95 202.9,-0.96 249.05,-11.63"/>
<polygon fill="#63b8ff" stroke="#63b8ff" points="248.17,-15.02 258.71,-13.98 249.82,-8.22 248.17,-15.02"/>
</a>
</g>
</g>
<!-- Node7 -->
<g id="Node000007" class="node">
<title>Node7</title>
<g id="a_Node000007"><a xlink:href="binomial__dist_8cpp.html#a19ae0a6a2bd200fd1eb0e31b2bf4cc76" target="_top" xlink:title=" ">
<polygon fill="white" stroke="#666666" points="200,-81.03 85,-81.03 85,-61.78 200,-61.78 200,-81.03"/>
<text text-anchor="middle" x="142.5" y="-67.53" font-family="Helvetica,sans-Serif" font-size="10.00">binomial_x_successes</text>
</a>
</g>
</g>
<!-- Node1&#45;&gt;Node7 -->
<g id="edge7_Node000001_Node000007" class="edge">
<title>Node1&#45;&gt;Node7</title>
<g id="a_edge7_Node000001_Node000007"><a xlink:title=" ">
<path fill="none" stroke="#63b8ff" d="M37.24,-71.41C47.05,-71.41 59.93,-71.41 73.29,-71.41"/>
<polygon fill="#63b8ff" stroke="#63b8ff" points="73.04,-74.91 83.04,-71.41 73.04,-67.91 73.04,-74.91"/>
</a>
</g>
</g>
<!-- Node4 -->
<g id="Node000004" class="node">
<title>Node4</title>
<g id="a_Node000004"><a xlink:href="binomial__dist_8cpp.html#a78d36635232e54b5d71fcbf1eac9a49a" target="_top" xlink:title=" ">
<polygon fill="white" stroke="#666666" points="310.88,-90.03 279.12,-90.03 279.12,-70.78 310.88,-70.78 310.88,-90.03"/>
<text text-anchor="middle" x="295" y="-76.53" font-family="Helvetica,sans-Serif" font-size="10.00">nCr</text>
</a>
</g>
</g>
<!-- Node3&#45;&gt;Node4 -->
<g id="edge3_Node000003_Node000004" class="edge">
<title>Node3&#45;&gt;Node4</title>
<g id="a_edge3_Node000003_Node000004"><a xlink:title=" ">
<path fill="none" stroke="#63b8ff" d="M197.83,-98.3C221.57,-93.88 248.32,-88.91 267.57,-85.32"/>
<polygon fill="#63b8ff" stroke="#63b8ff" points="268.08,-88.79 277.27,-83.52 266.8,-81.91 268.08,-88.79"/>
</a>
</g>
</g>
<!-- Node5&#45;&gt;Node6 -->
<g id="edge5_Node000005_Node000006" class="edge">
<title>Node5&#45;&gt;Node6</title>
<g id="a_edge5_Node000005_Node000006"><a xlink:title=" ">
<path fill="none" stroke="#63b8ff" d="M212.14,-29.85C220.27,-29.31 228.5,-28.76 236.45,-28.23"/>
<polygon fill="#63b8ff" stroke="#63b8ff" points="236.59,-31.73 246.34,-27.57 236.13,-24.74 236.59,-31.73"/>
</a>
</g>
</g>
<!-- Node7&#45;&gt;Node4 -->
<g id="edge8_Node000007_Node000004" class="edge">
<title>Node7&#45;&gt;Node4</title>
<g id="a_edge8_Node000007_Node000004"><a xlink:title=" ">
<path fill="none" stroke="#63b8ff" d="M200.4,-74.81C223.37,-76.18 248.77,-77.7 267.3,-78.81"/>
<polygon fill="#63b8ff" stroke="#63b8ff" points="266.96,-82.3 277.15,-79.4 267.38,-75.31 266.96,-82.3"/>
</a>
</g>
</g>
</g>
</svg>
</svg>

<style type='text/css'>
<![CDATA[
[data-mouse-over-selected='false'] { opacity: 0.7; }
[data-mouse-over-selected='true']  { opacity: 1.0; }
]]>
</style>
<script type="application/ecmascript"><![CDATA[
document.addEventListener('DOMContentLoaded', (event) => {
  highlightEdges();
  highlightAdjacentNodes();
});
]]></script>
</svg>
