<?xml version="1.0" encoding="UTF-8" standalone="no"?>
<!DOCTYPE svg PUBLIC "-//W3C//DTD SVG 1.1//EN"
 "http://www.w3.org/Graphics/SVG/1.1/DTD/svg11.dtd">
<!-- Generated by graphviz version 12.1.1 (20240910.0053)
 -->
<!-- Title: main Pages: 1 -->
<svg width="251pt" height="84pt"
 viewBox="0.00 0.00 251.00 83.88" xmlns="http://www.w3.org/2000/svg" xmlns:xlink="http://www.w3.org/1999/xlink">
<g id="graph0" class="graph" transform="scale(1 1) rotate(0) translate(4 79.88)">
<title>main</title>
<!-- Node1 -->
<g id="Node000001" class="node">
<title>Node1</title>
<g id="a_Node000001"><a xlink:title=" ">
<polygon fill="#999999" stroke="#666666" points="37,-41.25 0,-41.25 0,-22 37,-22 37,-41.25"/>
<text text-anchor="middle" x="18.5" y="-27.75" font-family="Helvetica,sans-Serif" font-size="10.00">main</text>
</a>
</g>
</g>
<!-- Node2 -->
<g id="Node000002" class="node">
<title>Node2</title>
<g id="a_Node000002"><a xlink:href="namespacesorting.html#affc6ee160142cd017f8c4b213437d0fd" target="_top" xlink:title=" ">
<polygon fill="white" stroke="#666666" points="243,-75.88 141.5,-75.88 141.5,-45.38 243,-45.38 243,-75.88"/>
<text text-anchor="start" x="149.5" y="-62.38" font-family="Helvetica,sans-Serif" font-size="10.00">sorting::randomized</text>
<text text-anchor="middle" x="192.25" y="-51.12" font-family="Helvetica,sans-Serif" font-size="10.00">_bogosort</text>
</a>
</g>
</g>
<!-- Node1&#45;&gt;Node2 -->
<g id="edge1_Node000001_Node000002" class="edge">
<title>Node1&#45;&gt;Node2</title>
<g id="a_edge1_Node000001_Node000002"><a xlink:title=" ">
<path fill="none" stroke="#63b8ff" d="M37.49,-39.32C47.71,-43.36 60.86,-48 73,-50.62 91.17,-54.55 111.23,-56.95 129.59,-58.42"/>
<polygon fill="#63b8ff" stroke="#63b8ff" points="129.33,-61.91 139.55,-59.12 129.82,-54.92 129.33,-61.91"/>
</a>
</g>
</g>
<!-- Node3 -->
<g id="Node000003" class="node">
<title>Node3</title>
<g id="a_Node000003"><a xlink:href="bogo__sort_8cpp.html#ae8adaeff66471f9ed84f2e673b38a859" target="_top" xlink:title=" ">
<polygon fill="white" stroke="#666666" points="225.38,-19.25 159.12,-19.25 159.12,0 225.38,0 225.38,-19.25"/>
<text text-anchor="middle" x="192.25" y="-5.75" font-family="Helvetica,sans-Serif" font-size="10.00">show_array</text>
</a>
</g>
</g>
<!-- Node1&#45;&gt;Node3 -->
<g id="edge2_Node000001_Node000003" class="edge">
<title>Node1&#45;&gt;Node3</title>
<g id="a_edge2_Node000001_Node000003"><a xlink:title=" ">
<path fill="none" stroke="#63b8ff" d="M37.43,-23.65C47.64,-19.53 60.79,-14.89 73,-12.62 97.42,-8.1 125.15,-7.18 147.62,-7.47"/>
<polygon fill="#63b8ff" stroke="#63b8ff" points="147.26,-10.96 157.33,-7.68 147.41,-3.96 147.26,-10.96"/>
</a>
</g>
</g>
<!-- Node4 -->
<g id="Node000004" class="node">
<title>Node4</title>
<g id="a_Node000004"><a xlink:href="bogo__sort_8cpp.html#ae1a3968e7947464bee7714f6d43b7002" target="_top" xlink:title=" ">
<polygon fill="white" stroke="#666666" points="105.5,-41.25 73,-41.25 73,-22 105.5,-22 105.5,-41.25"/>
<text text-anchor="middle" x="89.25" y="-27.75" font-family="Helvetica,sans-Serif" font-size="10.00">test</text>
</a>
</g>
</g>
<!-- Node1&#45;&gt;Node4 -->
<g id="edge3_Node000001_Node000004" class="edge">
<title>Node1&#45;&gt;Node4</title>
<g id="a_edge3_Node000001_Node000004"><a xlink:title=" ">
<path fill="none" stroke="#63b8ff" d="M37.2,-31.62C44.58,-31.62 53.31,-31.62 61.45,-31.62"/>
<polygon fill="#63b8ff" stroke="#63b8ff" points="61.2,-35.13 71.2,-31.63 61.2,-28.13 61.2,-35.13"/>
</a>
</g>
</g>
<!-- Node4&#45;&gt;Node2 -->
<g id="edge4_Node000004_Node000002" class="edge">
<title>Node4&#45;&gt;Node2</title>
<g id="a_edge4_Node000004_Node000002"><a xlink:title=" ">
<path fill="none" stroke="#63b8ff" d="M105.59,-36.03C112.49,-38.01 121.13,-40.49 130.25,-43.11"/>
<polygon fill="#63b8ff" stroke="#63b8ff" points="129.07,-46.41 139.64,-45.81 131,-39.68 129.07,-46.41"/>
</a>
</g>
</g>
<!-- Node4&#45;&gt;Node3 -->
<g id="edge5_Node000004_Node000003" class="edge">
<title>Node4&#45;&gt;Node3</title>
<g id="a_edge5_Node000004_Node000003"><a xlink:title=" ">
<path fill="none" stroke="#63b8ff" d="M105.59,-28.28C116.85,-25.83 132.73,-22.37 147.77,-19.1"/>
<polygon fill="#63b8ff" stroke="#63b8ff" points="148.51,-22.52 157.54,-16.97 147.02,-15.68 148.51,-22.52"/>
</a>
</g>
</g>
</g>
</svg>
