<?xml version="1.0" encoding="UTF-8" standalone="no"?>
<!DOCTYPE svg PUBLIC "-//W3C//DTD SVG 1.1//EN"
 "http://www.w3.org/Graphics/SVG/1.1/DTD/svg11.dtd">
<!-- Generated by graphviz version 12.1.1 (20240910.0053)
 -->
<!-- Title: greedy_algorithms::boruvkas_minimum_spanning_tree::boruvkas Pages: 1 -->
<svg width="334pt" height="68pt"
 viewBox="0.00 0.00 334.00 67.75" xmlns="http://www.w3.org/2000/svg" xmlns:xlink="http://www.w3.org/1999/xlink">
<g id="graph0" class="graph" transform="scale(1 1) rotate(0) translate(4 63.75)">
<title>greedy_algorithms::boruvkas_minimum_spanning_tree::boruvkas</title>
<!-- Node1 -->
<g id="Node000001" class="node">
<title>Node1</title>
<g id="a_Node000001"><a xlink:title="the implementation of boruvka&#39;s algorithm">
<polygon fill="#999999" stroke="#666666" points="145,-41.75 0,-41.75 0,0 145,0 145,-41.75"/>
<text text-anchor="start" x="8" y="-28.25" font-family="Helvetica,sans-Serif" font-size="10.00">greedy_algorithms::</text>
<text text-anchor="start" x="8" y="-17" font-family="Helvetica,sans-Serif" font-size="10.00">boruvkas_minimum_spanning</text>
<text text-anchor="middle" x="72.5" y="-5.75" font-family="Helvetica,sans-Serif" font-size="10.00">_tree::boruvkas</text>
</a>
</g>
</g>
<!-- Node1&#45;&gt;Node1 -->
<g id="edge1_Node000001_Node000001" class="edge">
<title>Node1&#45;&gt;Node1</title>
<g id="a_edge1_Node000001_Node000001"><a xlink:title=" ">
<path fill="none" stroke="#63b8ff" d="M39.09,-42.07C35.91,-51.55 47.05,-59.75 72.5,-59.75 87.22,-59.75 97.14,-57.01 102.29,-52.86"/>
<polygon fill="#63b8ff" stroke="#63b8ff" points="105.57,-54.1 105.43,-43.5 98.93,-51.87 105.57,-54.1"/>
</a>
</g>
</g>
<!-- Node2 -->
<g id="Node000002" class="node">
<title>Node2</title>
<g id="a_Node000002"><a xlink:href="boruvkas__minimum__spanning__tree_8cpp.html#a95de0f5e70e83164dbd1b4c515565e84" target="_top" xlink:title="Recursively returns the vertex&#39;s parent at the root of the tree.">
<polygon fill="white" stroke="#666666" points="326,-41.75 181,-41.75 181,0 326,0 326,-41.75"/>
<text text-anchor="start" x="189" y="-28.25" font-family="Helvetica,sans-Serif" font-size="10.00">greedy_algorithms::</text>
<text text-anchor="start" x="189" y="-17" font-family="Helvetica,sans-Serif" font-size="10.00">boruvkas_minimum_spanning</text>
<text text-anchor="middle" x="253.5" y="-5.75" font-family="Helvetica,sans-Serif" font-size="10.00">_tree::findParent</text>
</a>
</g>
</g>
<!-- Node1&#45;&gt;Node2 -->
<g id="edge2_Node000001_Node000002" class="edge">
<title>Node1&#45;&gt;Node2</title>
<g id="a_edge2_Node000001_Node000002"><a xlink:title=" ">
<path fill="none" stroke="#63b8ff" d="M145.27,-20.88C153.21,-20.88 161.33,-20.88 169.39,-20.88"/>
<polygon fill="#63b8ff" stroke="#63b8ff" points="169.2,-24.38 179.2,-20.88 169.2,-17.38 169.2,-24.38"/>
</a>
</g>
</g>
<!-- Node2&#45;&gt;Node2 -->
<g id="edge3_Node000002_Node000002" class="edge">
<title>Node2&#45;&gt;Node2</title>
<g id="a_edge3_Node000002_Node000002"><a xlink:title=" ">
<path fill="none" stroke="#63b8ff" d="M220.09,-42.07C216.91,-51.55 228.05,-59.75 253.5,-59.75 268.22,-59.75 278.14,-57.01 283.29,-52.86"/>
<polygon fill="#63b8ff" stroke="#63b8ff" points="286.57,-54.1 286.43,-43.5 279.93,-51.87 286.57,-54.1"/>
</a>
</g>
</g>
</g>
</svg>
