<?xml version="1.0" encoding="UTF-8" standalone="no"?>
<!DOCTYPE svg PUBLIC "-//W3C//DTD SVG 1.1//EN"
 "http://www.w3.org/Graphics/SVG/1.1/DTD/svg11.dtd">
<!-- Generated by graphviz version 12.1.1 (20240910.0053)
 -->
<!-- Title: pat_test Pages: 1 -->
<svg width="346pt" height="161pt"
 viewBox="0.00 0.00 346.25 160.50" xmlns="http://www.w3.org/2000/svg" xmlns:xlink="http://www.w3.org/1999/xlink">
<g id="graph0" class="graph" transform="scale(1 1) rotate(0) translate(4 156.5)">
<title>pat_test</title>
<!-- Node1 -->
<g id="Node000001" class="node">
<title>Node1</title>
<g id="a_Node000001"><a xlink:title="A test case in which we search for every appearance of the word &#39;pat&#39;.">
<polygon fill="#999999" stroke="#666666" points="51.25,-73.88 0,-73.88 0,-54.62 51.25,-54.62 51.25,-73.88"/>
<text text-anchor="middle" x="25.62" y="-60.38" font-family="Helvetica,sans-Serif" font-size="10.00">pat_test</text>
</a>
</g>
</g>
<!-- Node2 -->
<g id="Node000002" class="node">
<title>Node2</title>
<g id="a_Node000002"><a xlink:href="namespacestrings_1_1boyer__moore.html#a0b165af1dc341289fd705be4c67728f8" target="_top" xlink:title="A function that initializes pattern.">
<polygon fill="white" stroke="#666666" points="194.75,-128.5 87.25,-128.5 87.25,-98 194.75,-98 194.75,-128.5"/>
<text text-anchor="start" x="95.25" y="-115" font-family="Helvetica,sans-Serif" font-size="10.00">strings::boyer_moore</text>
<text text-anchor="middle" x="141" y="-103.75" font-family="Helvetica,sans-Serif" font-size="10.00">::init_pattern</text>
</a>
</g>
</g>
<!-- Node1&#45;&gt;Node2 -->
<g id="edge1_Node000001_Node000002" class="edge">
<title>Node1&#45;&gt;Node2</title>
<g id="a_edge1_Node000001_Node000002"><a xlink:title=" ">
<path fill="none" stroke="#63b8ff" d="M49.84,-74.28C62.47,-79.74 78.56,-86.7 93.64,-93.21"/>
<polygon fill="#63b8ff" stroke="#63b8ff" points="91.91,-96.28 102.48,-97.03 94.68,-89.85 91.91,-96.28"/>
</a>
</g>
</g>
<!-- Node5 -->
<g id="Node000005" class="node">
<title>Node5</title>
<g id="a_Node000005"><a xlink:href="namespacestrings_1_1boyer__moore.html#a056122c8fe8fb0f5fca6428d3f7b5c3a" target="_top" xlink:title="Check if pat is prefix of str.">
<polygon fill="white" stroke="#666666" points="194.75,-79.5 87.25,-79.5 87.25,-49 194.75,-49 194.75,-79.5"/>
<text text-anchor="start" x="95.25" y="-66" font-family="Helvetica,sans-Serif" font-size="10.00">strings::boyer_moore</text>
<text text-anchor="middle" x="141" y="-54.75" font-family="Helvetica,sans-Serif" font-size="10.00">::is_prefix</text>
</a>
</g>
</g>
<!-- Node1&#45;&gt;Node5 -->
<g id="edge4_Node000001_Node000005" class="edge">
<title>Node1&#45;&gt;Node5</title>
<g id="a_edge4_Node000001_Node000005"><a xlink:title=" ">
<path fill="none" stroke="#63b8ff" d="M51.51,-64.25C58.76,-64.25 67.04,-64.25 75.55,-64.25"/>
<polygon fill="#63b8ff" stroke="#63b8ff" points="75.31,-67.75 85.31,-64.25 75.31,-60.75 75.31,-67.75"/>
</a>
</g>
</g>
<!-- Node6 -->
<g id="Node000006" class="node">
<title>Node6</title>
<g id="a_Node000006"><a xlink:href="namespacestrings_1_1boyer__moore.html#a15703b553faed0d28202c10808cf9738" target="_top" xlink:title="A function that implements Boyer&#45;Moore&#39;s algorithm.">
<polygon fill="white" stroke="#666666" points="194.75,-30.5 87.25,-30.5 87.25,0 194.75,0 194.75,-30.5"/>
<text text-anchor="start" x="95.25" y="-17" font-family="Helvetica,sans-Serif" font-size="10.00">strings::boyer_moore</text>
<text text-anchor="middle" x="141" y="-5.75" font-family="Helvetica,sans-Serif" font-size="10.00">::search</text>
</a>
</g>
</g>
<!-- Node1&#45;&gt;Node6 -->
<g id="edge5_Node000001_Node000006" class="edge">
<title>Node1&#45;&gt;Node6</title>
<g id="a_edge5_Node000001_Node000006"><a xlink:title=" ">
<path fill="none" stroke="#63b8ff" d="M49.84,-54.22C62.47,-48.76 78.56,-41.8 93.64,-35.29"/>
<polygon fill="#63b8ff" stroke="#63b8ff" points="94.68,-38.65 102.48,-31.47 91.91,-32.22 94.68,-38.65"/>
</a>
</g>
</g>
<!-- Node3 -->
<g id="Node000003" class="node">
<title>Node3</title>
<g id="a_Node000003"><a xlink:href="namespacestrings_1_1boyer__moore.html#a2f6688c9bb3e692297a3aa09cebc1c00" target="_top" xlink:title="A function that preprocess the bad char table.">
<polygon fill="white" stroke="#666666" points="338.25,-152.5 230.75,-152.5 230.75,-122 338.25,-122 338.25,-152.5"/>
<text text-anchor="start" x="238.75" y="-139" font-family="Helvetica,sans-Serif" font-size="10.00">strings::boyer_moore</text>
<text text-anchor="middle" x="284.5" y="-127.75" font-family="Helvetica,sans-Serif" font-size="10.00">::init_bad_char</text>
</a>
</g>
</g>
<!-- Node2&#45;&gt;Node3 -->
<g id="edge2_Node000002_Node000003" class="edge">
<title>Node2&#45;&gt;Node3</title>
<g id="a_edge2_Node000002_Node000003"><a xlink:title=" ">
<path fill="none" stroke="#63b8ff" d="M195.09,-122.25C202.98,-123.59 211.18,-124.98 219.27,-126.36"/>
<polygon fill="#63b8ff" stroke="#63b8ff" points="218.64,-129.8 229.09,-128.02 219.81,-122.9 218.64,-129.8"/>
</a>
</g>
</g>
<!-- Node4 -->
<g id="Node000004" class="node">
<title>Node4</title>
<g id="a_Node000004"><a xlink:href="namespacestrings_1_1boyer__moore.html#aa709cf7fca02b7d3e1888423d5f739a1" target="_top" xlink:title="A function that preprocess the good suffix thable.">
<polygon fill="white" stroke="#666666" points="338.25,-103.5 230.75,-103.5 230.75,-73 338.25,-73 338.25,-103.5"/>
<text text-anchor="start" x="238.75" y="-90" font-family="Helvetica,sans-Serif" font-size="10.00">strings::boyer_moore</text>
<text text-anchor="middle" x="284.5" y="-78.75" font-family="Helvetica,sans-Serif" font-size="10.00">::init_good_suffix</text>
</a>
</g>
</g>
<!-- Node2&#45;&gt;Node4 -->
<g id="edge3_Node000002_Node000004" class="edge">
<title>Node2&#45;&gt;Node4</title>
<g id="a_edge3_Node000002_Node000004"><a xlink:title=" ">
<path fill="none" stroke="#63b8ff" d="M195.09,-103.87C202.98,-102.48 211.18,-101.03 219.27,-99.6"/>
<polygon fill="#63b8ff" stroke="#63b8ff" points="219.85,-103.05 229.09,-97.86 218.63,-96.16 219.85,-103.05"/>
</a>
</g>
</g>
</g>
</svg>
