<?xml version="1.0" encoding="UTF-8" standalone="no"?>
<!DOCTYPE svg PUBLIC "-//W3C//DTD SVG 1.1//EN"
 "http://www.w3.org/Graphics/SVG/1.1/DTD/svg11.dtd">
<!-- Generated by graphviz version 12.1.1 (20240910.0053)
 -->
<!-- Title: and_test Pages: 1 -->
<svg width="349pt" height="161pt"
 viewBox="0.00 0.00 348.50 160.50" xmlns="http://www.w3.org/2000/svg" xmlns:xlink="http://www.w3.org/1999/xlink">
<g id="graph0" class="graph" transform="scale(1 1) rotate(0) translate(4 156.5)">
<title>and_test</title>
<!-- Node1 -->
<g id="Node000001" class="node">
<title>Node1</title>
<g id="a_Node000001"><a xlink:title="A test case in which we search for every appearance of the word &#39;and&#39;.">
<polygon fill="#999999" stroke="#666666" points="53.5,-73.88 0,-73.88 0,-54.62 53.5,-54.62 53.5,-73.88"/>
<text text-anchor="middle" x="26.75" y="-60.38" font-family="Helvetica,sans-Serif" font-size="10.00">and_test</text>
</a>
</g>
</g>
<!-- Node2 -->
<g id="Node000002" class="node">
<title>Node2</title>
<g id="a_Node000002"><a xlink:href="namespacestrings_1_1boyer__moore.html#a0b165af1dc341289fd705be4c67728f8" target="_top" xlink:title="A function that initializes pattern.">
<polygon fill="white" stroke="#666666" points="197,-128.5 89.5,-128.5 89.5,-98 197,-98 197,-128.5"/>
<text text-anchor="start" x="97.5" y="-115" font-family="Helvetica,sans-Serif" font-size="10.00">strings::boyer_moore</text>
<text text-anchor="middle" x="143.25" y="-103.75" font-family="Helvetica,sans-Serif" font-size="10.00">::init_pattern</text>
</a>
</g>
</g>
<!-- Node1&#45;&gt;Node2 -->
<g id="edge1_Node000001_Node000002" class="edge">
<title>Node1&#45;&gt;Node2</title>
<g id="a_edge1_Node000001_Node000002"><a xlink:title=" ">
<path fill="none" stroke="#63b8ff" d="M51.2,-74.28C63.96,-79.74 80.2,-86.7 95.43,-93.21"/>
<polygon fill="#63b8ff" stroke="#63b8ff" points="93.79,-96.32 104.36,-97.04 96.55,-89.88 93.79,-96.32"/>
</a>
</g>
</g>
<!-- Node5 -->
<g id="Node000005" class="node">
<title>Node5</title>
<g id="a_Node000005"><a xlink:href="namespacestrings_1_1boyer__moore.html#a056122c8fe8fb0f5fca6428d3f7b5c3a" target="_top" xlink:title="Check if pat is prefix of str.">
<polygon fill="white" stroke="#666666" points="197,-79.5 89.5,-79.5 89.5,-49 197,-49 197,-79.5"/>
<text text-anchor="start" x="97.5" y="-66" font-family="Helvetica,sans-Serif" font-size="10.00">strings::boyer_moore</text>
<text text-anchor="middle" x="143.25" y="-54.75" font-family="Helvetica,sans-Serif" font-size="10.00">::is_prefix</text>
</a>
</g>
</g>
<!-- Node1&#45;&gt;Node5 -->
<g id="edge4_Node000001_Node000005" class="edge">
<title>Node1&#45;&gt;Node5</title>
<g id="a_edge4_Node000001_Node000005"><a xlink:title=" ">
<path fill="none" stroke="#63b8ff" d="M53.73,-64.25C61.07,-64.25 69.4,-64.25 77.94,-64.25"/>
<polygon fill="#63b8ff" stroke="#63b8ff" points="77.72,-67.75 87.72,-64.25 77.72,-60.75 77.72,-67.75"/>
</a>
</g>
</g>
<!-- Node6 -->
<g id="Node000006" class="node">
<title>Node6</title>
<g id="a_Node000006"><a xlink:href="namespacestrings_1_1boyer__moore.html#a15703b553faed0d28202c10808cf9738" target="_top" xlink:title="A function that implements Boyer&#45;Moore&#39;s algorithm.">
<polygon fill="white" stroke="#666666" points="197,-30.5 89.5,-30.5 89.5,0 197,0 197,-30.5"/>
<text text-anchor="start" x="97.5" y="-17" font-family="Helvetica,sans-Serif" font-size="10.00">strings::boyer_moore</text>
<text text-anchor="middle" x="143.25" y="-5.75" font-family="Helvetica,sans-Serif" font-size="10.00">::search</text>
</a>
</g>
</g>
<!-- Node1&#45;&gt;Node6 -->
<g id="edge5_Node000001_Node000006" class="edge">
<title>Node1&#45;&gt;Node6</title>
<g id="a_edge5_Node000001_Node000006"><a xlink:title=" ">
<path fill="none" stroke="#63b8ff" d="M51.2,-54.22C63.96,-48.76 80.2,-41.8 95.43,-35.29"/>
<polygon fill="#63b8ff" stroke="#63b8ff" points="96.55,-38.62 104.36,-31.46 93.79,-32.18 96.55,-38.62"/>
</a>
</g>
</g>
<!-- Node3 -->
<g id="Node000003" class="node">
<title>Node3</title>
<g id="a_Node000003"><a xlink:href="namespacestrings_1_1boyer__moore.html#a2f6688c9bb3e692297a3aa09cebc1c00" target="_top" xlink:title="A function that preprocess the bad char table.">
<polygon fill="white" stroke="#666666" points="340.5,-152.5 233,-152.5 233,-122 340.5,-122 340.5,-152.5"/>
<text text-anchor="start" x="241" y="-139" font-family="Helvetica,sans-Serif" font-size="10.00">strings::boyer_moore</text>
<text text-anchor="middle" x="286.75" y="-127.75" font-family="Helvetica,sans-Serif" font-size="10.00">::init_bad_char</text>
</a>
</g>
</g>
<!-- Node2&#45;&gt;Node3 -->
<g id="edge2_Node000002_Node000003" class="edge">
<title>Node2&#45;&gt;Node3</title>
<g id="a_edge2_Node000002_Node000003"><a xlink:title=" ">
<path fill="none" stroke="#63b8ff" d="M197.34,-122.25C205.23,-123.59 213.43,-124.98 221.52,-126.36"/>
<polygon fill="#63b8ff" stroke="#63b8ff" points="220.89,-129.8 231.34,-128.02 222.06,-122.9 220.89,-129.8"/>
</a>
</g>
</g>
<!-- Node4 -->
<g id="Node000004" class="node">
<title>Node4</title>
<g id="a_Node000004"><a xlink:href="namespacestrings_1_1boyer__moore.html#aa709cf7fca02b7d3e1888423d5f739a1" target="_top" xlink:title="A function that preprocess the good suffix thable.">
<polygon fill="white" stroke="#666666" points="340.5,-103.5 233,-103.5 233,-73 340.5,-73 340.5,-103.5"/>
<text text-anchor="start" x="241" y="-90" font-family="Helvetica,sans-Serif" font-size="10.00">strings::boyer_moore</text>
<text text-anchor="middle" x="286.75" y="-78.75" font-family="Helvetica,sans-Serif" font-size="10.00">::init_good_suffix</text>
</a>
</g>
</g>
<!-- Node2&#45;&gt;Node4 -->
<g id="edge3_Node000002_Node000004" class="edge">
<title>Node2&#45;&gt;Node4</title>
<g id="a_edge3_Node000002_Node000004"><a xlink:title=" ">
<path fill="none" stroke="#63b8ff" d="M197.34,-103.87C205.23,-102.48 213.43,-101.03 221.52,-99.6"/>
<polygon fill="#63b8ff" stroke="#63b8ff" points="222.1,-103.05 231.34,-97.86 220.88,-96.16 222.1,-103.05"/>
</a>
</g>
</g>
</g>
</svg>
