<?xml version="1.0" encoding="UTF-8" standalone="no"?>
<!DOCTYPE svg PUBLIC "-//W3C//DTD SVG 1.1//EN"
 "http://www.w3.org/Graphics/SVG/1.1/DTD/svg11.dtd">
<!-- Generated by graphviz version 12.1.1 (20240910.0053)
 -->
<!-- Title: main Pages: 1 -->
<svg width="221pt" height="101pt"
 viewBox="0.00 0.00 221.00 101.25" xmlns="http://www.w3.org/2000/svg" xmlns:xlink="http://www.w3.org/1999/xlink">

<svg id="main" version="1.1" xmlns="http://www.w3.org/2000/svg" xmlns:xlink="http://www.w3.org/1999/xlink" xml:space="preserve">

<style type="text/css"><![CDATA[
.node, .edge {opacity: 0.7;}
.node.selected, .edge.selected {opacity: 1;}
.edge:hover path { stroke: red; }
.edge:hover polygon { stroke: red; fill: red; }
]]></style>
<script type="application/ecmascript" xlink:href="svg.min.js"/>
<svg id="graph" class="graph">
<g id="graph0" class="graph" transform="scale(1 1) rotate(0) translate(4 97.25)">
<title>main</title>
<!-- Node1 -->
<g id="Node000001" class="node">
<title>Node1</title>
<g id="a_Node000001"><a xlink:title=" ">
<polygon fill="#999999" stroke="#666666" points="37,-56.25 0,-56.25 0,-37 37,-37 37,-56.25"/>
<text text-anchor="middle" x="18.5" y="-42.75" font-family="Helvetica,sans-Serif" font-size="10.00">main</text>
</a>
</g>
</g>
<!-- Node2 -->
<g id="Node000002" class="node">
<title>Node2</title>
<g id="a_Node000002"><a xlink:href="brent__method__extrema_8cpp.html#a1440a7779ac56f47a3f355ce4a8c7da0" target="_top" xlink:title="Test function to find root for the function &#160;in the interval &#160;&#160;&#160;Expected result = 2.">
<polygon fill="white" stroke="#666666" points="110.75,-93.25 73,-93.25 73,-74 110.75,-74 110.75,-93.25"/>
<text text-anchor="middle" x="91.88" y="-79.75" font-family="Helvetica,sans-Serif" font-size="10.00">test1</text>
</a>
</g>
</g>
<!-- Node1&#45;&gt;Node2 -->
<g id="edge1_Node000001_Node000002" class="edge">
<title>Node1&#45;&gt;Node2</title>
<g id="a_edge1_Node000001_Node000002"><a xlink:title=" ">
<path fill="none" stroke="#63b8ff" d="M37.14,-55.77C44.89,-59.79 54.18,-64.6 62.84,-69.09"/>
<polygon fill="#63b8ff" stroke="#63b8ff" points="61.11,-72.14 71.6,-73.63 64.33,-65.92 61.11,-72.14"/>
</a>
</g>
</g>
<!-- Node4 -->
<g id="Node000004" class="node">
<title>Node4</title>
<g id="a_Node000004"><a xlink:href="brent__method__extrema_8cpp.html#a0283886819c7c140a023582b7269e2d0" target="_top" xlink:title="Test function to find root for the function &#160;in the interval &#160;&#160;&#160;Expected result: .">
<polygon fill="white" stroke="#666666" points="110.75,-56.25 73,-56.25 73,-37 110.75,-37 110.75,-56.25"/>
<text text-anchor="middle" x="91.88" y="-42.75" font-family="Helvetica,sans-Serif" font-size="10.00">test2</text>
</a>
</g>
</g>
<!-- Node1&#45;&gt;Node4 -->
<g id="edge3_Node000001_Node000004" class="edge">
<title>Node1&#45;&gt;Node4</title>
<g id="a_edge3_Node000001_Node000004"><a xlink:title=" ">
<path fill="none" stroke="#63b8ff" d="M37.14,-46.62C44.55,-46.62 53.37,-46.62 61.69,-46.62"/>
<polygon fill="#63b8ff" stroke="#63b8ff" points="61.43,-50.13 71.43,-46.63 61.43,-43.13 61.43,-50.13"/>
</a>
</g>
</g>
<!-- Node5 -->
<g id="Node000005" class="node">
<title>Node5</title>
<g id="a_Node000005"><a xlink:href="brent__method__extrema_8cpp.html#a6d0455dd5c30adda100e95f0423c786e" target="_top" xlink:title="Test function to find maxima for the function &#160;in the interval &#160;&#160;&#160;Expected result: .">
<polygon fill="white" stroke="#666666" points="110.75,-19.25 73,-19.25 73,0 110.75,0 110.75,-19.25"/>
<text text-anchor="middle" x="91.88" y="-5.75" font-family="Helvetica,sans-Serif" font-size="10.00">test3</text>
</a>
</g>
</g>
<!-- Node1&#45;&gt;Node5 -->
<g id="edge5_Node000001_Node000005" class="edge">
<title>Node1&#45;&gt;Node5</title>
<g id="a_edge5_Node000001_Node000005"><a xlink:title=" ">
<path fill="none" stroke="#63b8ff" d="M37.14,-37.48C44.89,-33.46 54.18,-28.65 62.84,-24.16"/>
<polygon fill="#63b8ff" stroke="#63b8ff" points="64.33,-27.33 71.6,-19.62 61.11,-21.11 64.33,-27.33"/>
</a>
</g>
</g>
<!-- Node3 -->
<g id="Node000003" class="node">
<title>Node3</title>
<g id="a_Node000003"><a xlink:href="brent__method__extrema_8cpp.html#a1aa76a6d5fd4d333f9072beff1dc486b" target="_top" xlink:title="Get the real root of a function in the given interval.">
<polygon fill="white" stroke="#666666" points="213,-56.25 146.75,-56.25 146.75,-37 213,-37 213,-56.25"/>
<text text-anchor="middle" x="179.88" y="-42.75" font-family="Helvetica,sans-Serif" font-size="10.00">get_minima</text>
</a>
</g>
</g>
<!-- Node2&#45;&gt;Node3 -->
<g id="edge2_Node000002_Node000003" class="edge">
<title>Node2&#45;&gt;Node3</title>
<g id="a_edge2_Node000002_Node000003"><a xlink:title=" ">
<path fill="none" stroke="#63b8ff" d="M111.11,-75.78C121,-71.52 133.55,-66.13 145.14,-61.14"/>
<polygon fill="#63b8ff" stroke="#63b8ff" points="146.23,-64.48 154.03,-57.31 143.47,-58.05 146.23,-64.48"/>
</a>
</g>
</g>
<!-- Node4&#45;&gt;Node3 -->
<g id="edge4_Node000004_Node000003" class="edge">
<title>Node4&#45;&gt;Node3</title>
<g id="a_edge4_Node000004_Node000003"><a xlink:title=" ">
<path fill="none" stroke="#63b8ff" d="M111.11,-46.62C118.16,-46.62 126.56,-46.62 135.01,-46.62"/>
<polygon fill="#63b8ff" stroke="#63b8ff" points="134.91,-50.13 144.91,-46.63 134.91,-43.13 134.91,-50.13"/>
</a>
</g>
</g>
<!-- Node5&#45;&gt;Node3 -->
<g id="edge6_Node000005_Node000003" class="edge">
<title>Node5&#45;&gt;Node3</title>
<g id="a_edge6_Node000005_Node000003"><a xlink:title=" ">
<path fill="none" stroke="#63b8ff" d="M111.11,-17.47C121,-21.73 133.55,-27.12 145.14,-32.11"/>
<polygon fill="#63b8ff" stroke="#63b8ff" points="143.47,-35.2 154.03,-35.94 146.23,-28.77 143.47,-35.2"/>
</a>
</g>
</g>
</g>
</svg>
</svg>

<style type='text/css'>
<![CDATA[
[data-mouse-over-selected='false'] { opacity: 0.7; }
[data-mouse-over-selected='true']  { opacity: 1.0; }
]]>
</style>
<script type="application/ecmascript"><![CDATA[
document.addEventListener('DOMContentLoaded', (event) => {
  highlightEdges();
  highlightAdjacentNodes();
});
]]></script>
</svg>
