<?xml version="1.0" encoding="UTF-8" standalone="no"?>
<!DOCTYPE svg PUBLIC "-//W3C//DTD SVG 1.1//EN"
 "http://www.w3.org/Graphics/SVG/1.1/DTD/svg11.dtd">
<!-- Generated by graphviz version 12.1.1 (20240910.0053)
 -->
<!-- Title: main Pages: 1 -->
<svg width="248pt" height="177pt"
 viewBox="0.00 0.00 248.05 177.25" xmlns="http://www.w3.org/2000/svg" xmlns:xlink="http://www.w3.org/1999/xlink">
<g id="graph0" class="graph" transform="scale(1 1) rotate(0) translate(4 173.25)">
<title>main</title>
<!-- Node1 -->
<g id="Node000001" class="node">
<title>Node1</title>
<g id="a_Node000001"><a xlink:title=" ">
<polygon fill="#999999" stroke="#666666" points="37,-93.25 0,-93.25 0,-74 37,-74 37,-93.25"/>
<text text-anchor="middle" x="18.5" y="-79.75" font-family="Helvetica,sans-Serif" font-size="10.00">main</text>
</a>
</g>
</g>
<!-- Node2 -->
<g id="Node000002" class="node">
<title>Node2</title>
<g id="a_Node000002"><a xlink:href="classhash__chain.html#a6b4b4de1a8c96f98a63a77f650a9dcff" target="_top" xlink:title="create and add a new node with a give value and at a given height">
<polygon fill="white" stroke="#666666" points="167.75,-169.25 80.5,-169.25 80.5,-150 167.75,-150 167.75,-169.25"/>
<text text-anchor="middle" x="124.12" y="-155.75" font-family="Helvetica,sans-Serif" font-size="10.00">hash_chain::add</text>
</a>
</g>
</g>
<!-- Node1&#45;&gt;Node2 -->
<g id="edge1_Node000001_Node000002" class="edge">
<title>Node1&#45;&gt;Node2</title>
<g id="a_edge1_Node000001_Node000002"><a xlink:title=" ">
<path fill="none" stroke="#63b8ff" d="M27.79,-93.42C37.69,-104.67 55.15,-123.18 73,-135.62 77.68,-138.89 82.87,-141.92 88.08,-144.66"/>
<polygon fill="#63b8ff" stroke="#63b8ff" points="86.14,-147.61 96.66,-148.88 89.23,-141.32 86.14,-147.61"/>
</a>
</g>
</g>
<!-- Node3 -->
<g id="Node000003" class="node">
<title>Node3</title>
<g id="a_Node000003"><a xlink:href="hash__search_8cpp.html#a566eaf0ffafd50bc61e644561fd27001" target="_top" xlink:title=" ">
<polygon fill="white" stroke="#666666" points="240.05,-131.25 211.25,-131.25 211.25,-112 240.05,-112 240.05,-131.25"/>
<text text-anchor="middle" x="225.65" y="-117.75" font-family="Helvetica,sans-Serif" font-size="10.00">h</text>
</a>
</g>
</g>
<!-- Node1&#45;&gt;Node3 -->
<g id="edge6_Node000001_Node000003" class="edge">
<title>Node1&#45;&gt;Node3</title>
<g id="a_edge6_Node000001_Node000003"><a xlink:title=" ">
<path fill="none" stroke="#63b8ff" d="M37.04,-90.94C47.35,-94.96 60.72,-99.71 73,-102.62 117.02,-113.07 169.68,-118.03 199.94,-120.18"/>
<polygon fill="#63b8ff" stroke="#63b8ff" points="199.37,-123.65 209.58,-120.81 199.83,-116.66 199.37,-123.65"/>
</a>
</g>
</g>
<!-- Node4 -->
<g id="Node000004" class="node">
<title>Node4</title>
<g id="a_Node000004"><a xlink:href="classhash__chain.html#a706964ad13587fc9a8b3fe8381d410ed" target="_top" xlink:title="Display the chain.">
<polygon fill="white" stroke="#666666" points="175.25,-93.25 73,-93.25 73,-74 175.25,-74 175.25,-93.25"/>
<text text-anchor="middle" x="124.12" y="-79.75" font-family="Helvetica,sans-Serif" font-size="10.00">hash_chain::display</text>
</a>
</g>
</g>
<!-- Node1&#45;&gt;Node4 -->
<g id="edge3_Node000001_Node000004" class="edge">
<title>Node1&#45;&gt;Node4</title>
<g id="a_edge3_Node000001_Node000004"><a xlink:title=" ">
<path fill="none" stroke="#63b8ff" d="M37.08,-83.62C44.06,-83.62 52.55,-83.62 61.43,-83.62"/>
<polygon fill="#63b8ff" stroke="#63b8ff" points="61.31,-87.13 71.31,-83.63 61.31,-80.13 61.31,-87.13"/>
</a>
</g>
</g>
<!-- Node5 -->
<g id="Node000005" class="node">
<title>Node5</title>
<g id="a_Node000005"><a xlink:href="classhash__chain.html#a55aa5c6753cb8853152d469c375d946a" target="_top" xlink:title="Find if a value and corresponding hash exist.">
<polygon fill="white" stroke="#666666" points="167.75,-56.25 80.5,-56.25 80.5,-37 167.75,-37 167.75,-56.25"/>
<text text-anchor="middle" x="124.12" y="-42.75" font-family="Helvetica,sans-Serif" font-size="10.00">hash_chain::find</text>
</a>
</g>
</g>
<!-- Node1&#45;&gt;Node5 -->
<g id="edge4_Node000001_Node000005" class="edge">
<title>Node1&#45;&gt;Node5</title>
<g id="a_edge4_Node000001_Node000005"><a xlink:title=" ">
<path fill="none" stroke="#63b8ff" d="M37.08,-77.35C49.93,-72.76 67.88,-66.35 84.06,-60.58"/>
<polygon fill="#63b8ff" stroke="#63b8ff" points="85.22,-63.87 93.46,-57.22 82.87,-57.28 85.22,-63.87"/>
</a>
</g>
</g>
<!-- Node6 -->
<g id="Node000006" class="node">
<title>Node6</title>
<g id="a_Node000006"><a xlink:href="classhash__chain.html#a846a2f921f8fb7ea572e03901b671d64" target="_top" xlink:title="Compute the hash of a value for current chain.">
<polygon fill="white" stroke="#666666" points="170.38,-19.25 77.88,-19.25 77.88,0 170.38,0 170.38,-19.25"/>
<text text-anchor="middle" x="124.12" y="-5.75" font-family="Helvetica,sans-Serif" font-size="10.00">hash_chain::hash</text>
</a>
</g>
</g>
<!-- Node1&#45;&gt;Node6 -->
<g id="edge7_Node000001_Node000006" class="edge">
<title>Node1&#45;&gt;Node6</title>
<g id="a_edge7_Node000001_Node000006"><a xlink:title=" ">
<path fill="none" stroke="#63b8ff" d="M26.74,-73.57C36.13,-61.18 53.61,-40.23 73,-27.62 74.63,-26.57 76.32,-25.56 78.06,-24.61"/>
<polygon fill="#63b8ff" stroke="#63b8ff" points="79.51,-27.8 87.05,-20.34 76.51,-21.47 79.51,-27.8"/>
</a>
</g>
</g>
<!-- Node2&#45;&gt;Node3 -->
<g id="edge2_Node000002_Node000003" class="edge">
<title>Node2&#45;&gt;Node3</title>
<g id="a_edge2_Node000002_Node000003"><a xlink:title=" ">
<path fill="none" stroke="#63b8ff" d="M151.53,-149.54C166.77,-143.72 185.78,-136.47 200.6,-130.81"/>
<polygon fill="#63b8ff" stroke="#63b8ff" points="201.48,-134.22 209.57,-127.38 198.98,-127.68 201.48,-134.22"/>
</a>
</g>
</g>
<!-- Node5&#45;&gt;Node3 -->
<g id="edge5_Node000005_Node000003" class="edge">
<title>Node5&#45;&gt;Node3</title>
<g id="a_edge5_Node000005_Node000003"><a xlink:title=" ">
<path fill="none" stroke="#63b8ff" d="M160.5,-56.72C165.66,-58.92 170.75,-61.54 175.25,-64.62 189.93,-74.69 202.95,-90.14 211.93,-102.41"/>
<polygon fill="#63b8ff" stroke="#63b8ff" points="209.02,-104.35 217.61,-110.55 214.76,-100.35 209.02,-104.35"/>
</a>
</g>
</g>
</g>
</svg>
