<?xml version="1.0" encoding="UTF-8" standalone="no"?>
<!DOCTYPE svg PUBLIC "-//W3C//DTD SVG 1.1//EN"
 "http://www.w3.org/Graphics/SVG/1.1/DTD/svg11.dtd">
<!-- Generated by graphviz version 12.1.1 (20240910.0053)
 -->
<!-- Title: machine_learning::neural_network::NeuralNetwork::evaluate_from_csv Pages: 1 -->
<svg width="621pt" height="358pt"
 viewBox="0.00 0.00 621.00 357.50" xmlns="http://www.w3.org/2000/svg" xmlns:xlink="http://www.w3.org/1999/xlink">
<g id="graph0" class="graph" transform="scale(1 1) rotate(0) translate(4 353.5)">
<title>machine_learning::neural_network::NeuralNetwork::evaluate_from_csv</title>
<!-- Node1 -->
<g id="Node000001" class="node">
<title>Node1</title>
<g id="a_Node000001"><a xlink:title=" ">
<polygon fill="#999999" stroke="#666666" points="127,-192.12 0,-192.12 0,-150.38 127,-150.38 127,-192.12"/>
<text text-anchor="start" x="8" y="-178.62" font-family="Helvetica,sans-Serif" font-size="10.00">machine_learning::neural</text>
<text text-anchor="start" x="8" y="-167.38" font-family="Helvetica,sans-Serif" font-size="10.00">_network::NeuralNetwork</text>
<text text-anchor="middle" x="63.5" y="-156.12" font-family="Helvetica,sans-Serif" font-size="10.00">::evaluate_from_csv</text>
</a>
</g>
</g>
<!-- Node2 -->
<g id="Node000002" class="node">
<title>Node2</title>
<g id="a_Node000002"><a xlink:href="classmachine__learning_1_1neural__network_1_1_neural_network.html#aec648ea4f40bd71123b5f907a681dd8e" target="_top" xlink:title=" ">
<polygon fill="white" stroke="#666666" points="290,-263.12 163,-263.12 163,-221.38 290,-221.38 290,-263.12"/>
<text text-anchor="start" x="171" y="-249.62" font-family="Helvetica,sans-Serif" font-size="10.00">machine_learning::neural</text>
<text text-anchor="start" x="171" y="-238.38" font-family="Helvetica,sans-Serif" font-size="10.00">_network::NeuralNetwork</text>
<text text-anchor="middle" x="226.5" y="-227.12" font-family="Helvetica,sans-Serif" font-size="10.00">::evaluate</text>
</a>
</g>
</g>
<!-- Node1&#45;&gt;Node2 -->
<g id="edge1_Node000001_Node000002" class="edge">
<title>Node1&#45;&gt;Node2</title>
<g id="a_edge1_Node000001_Node000002"><a xlink:title=" ">
<path fill="none" stroke="#63b8ff" d="M112.81,-192.55C129.84,-200.06 149.18,-208.59 166.96,-216.44"/>
<polygon fill="#63b8ff" stroke="#63b8ff" points="165.28,-219.52 175.84,-220.35 168.11,-213.11 165.28,-219.52"/>
</a>
</g>
</g>
<!-- Node8 -->
<g id="Node000008" class="node">
<title>Node8</title>
<g id="a_Node000008"><a xlink:href="classmachine__learning_1_1neural__network_1_1_neural_network.html#a650c677fd6512665741ddd9b7983275d" target="_top" xlink:title=" ">
<polygon fill="white" stroke="#666666" points="290,-122.12 163,-122.12 163,-80.38 290,-80.38 290,-122.12"/>
<text text-anchor="start" x="171" y="-108.62" font-family="Helvetica,sans-Serif" font-size="10.00">machine_learning::neural</text>
<text text-anchor="start" x="171" y="-97.38" font-family="Helvetica,sans-Serif" font-size="10.00">_network::NeuralNetwork</text>
<text text-anchor="middle" x="226.5" y="-86.12" font-family="Helvetica,sans-Serif" font-size="10.00">::get_XY_from_csv</text>
</a>
</g>
</g>
<!-- Node1&#45;&gt;Node8 -->
<g id="edge7_Node000001_Node000008" class="edge">
<title>Node1&#45;&gt;Node8</title>
<g id="a_edge7_Node000001_Node000008"><a xlink:title=" ">
<path fill="none" stroke="#63b8ff" d="M113.24,-150.06C129.95,-142.79 148.84,-134.58 166.29,-126.99"/>
<polygon fill="#63b8ff" stroke="#63b8ff" points="167.2,-130.41 174.98,-123.22 164.41,-123.99 167.2,-130.41"/>
</a>
</g>
</g>
<!-- Node3 -->
<g id="Node000003" class="node">
<title>Node3</title>
<g id="a_Node000003"><a xlink:href="namespacemachine__learning.html#ad0bdc88e5f1be47c46c0f0c8ebf754bb" target="_top" xlink:title=" ">
<polygon fill="white" stroke="#666666" points="456.38,-349.5 335.38,-349.5 335.38,-319 456.38,-319 456.38,-349.5"/>
<text text-anchor="start" x="343.38" y="-336" font-family="Helvetica,sans-Serif" font-size="10.00">machine_learning::apply</text>
<text text-anchor="middle" x="395.88" y="-324.75" font-family="Helvetica,sans-Serif" font-size="10.00">_function</text>
</a>
</g>
</g>
<!-- Node2&#45;&gt;Node3 -->
<g id="edge2_Node000002_Node000003" class="edge">
<title>Node2&#45;&gt;Node3</title>
<g id="a_edge2_Node000002_Node000003"><a xlink:title=" ">
<path fill="none" stroke="#63b8ff" d="M253.87,-263.37C273.03,-277.98 300.06,-297.08 326,-310.25 328.71,-311.63 331.52,-312.96 334.38,-314.24"/>
<polygon fill="#63b8ff" stroke="#63b8ff" points="332.95,-317.43 343.53,-318.06 335.65,-310.97 332.95,-317.43"/>
</a>
</g>
</g>
<!-- Node4 -->
<g id="Node000004" class="node">
<title>Node4</title>
<g id="a_Node000004"><a xlink:href="namespacemachine__learning.html#a50480fccfb39de20ca47f1bf51ecb6ec" target="_top" xlink:title=" ">
<polygon fill="white" stroke="#666666" points="460.88,-300.88 330.88,-300.88 330.88,-281.62 460.88,-281.62 460.88,-300.88"/>
<text text-anchor="middle" x="395.88" y="-287.38" font-family="Helvetica,sans-Serif" font-size="10.00">machine_learning::argmax</text>
</a>
</g>
</g>
<!-- Node2&#45;&gt;Node4 -->
<g id="edge3_Node000002_Node000004" class="edge">
<title>Node2&#45;&gt;Node4</title>
<g id="a_edge3_Node000002_Node000004"><a xlink:title=" ">
<path fill="none" stroke="#63b8ff" d="M290.48,-261.7C302.27,-265.27 314.5,-268.91 326,-272.25 332.72,-274.2 339.83,-276.21 346.82,-278.17"/>
<polygon fill="#63b8ff" stroke="#63b8ff" points="345.62,-281.47 356.19,-280.77 347.49,-274.72 345.62,-281.47"/>
</a>
</g>
</g>
<!-- Node6 -->
<g id="Node000006" class="node">
<title>Node6</title>
<g id="a_Node000006"><a xlink:href="classmachine__learning_1_1neural__network_1_1_neural_network.html#a3b9eac1824d365dce715fb17c33cb96f" target="_top" xlink:title=" ">
<polygon fill="white" stroke="#666666" points="459.38,-263.12 332.38,-263.12 332.38,-221.38 459.38,-221.38 459.38,-263.12"/>
<text text-anchor="start" x="340.38" y="-249.62" font-family="Helvetica,sans-Serif" font-size="10.00">machine_learning::neural</text>
<text text-anchor="start" x="340.38" y="-238.38" font-family="Helvetica,sans-Serif" font-size="10.00">_network::NeuralNetwork</text>
<text text-anchor="middle" x="395.88" y="-227.12" font-family="Helvetica,sans-Serif" font-size="10.00">::single_predict</text>
</a>
</g>
</g>
<!-- Node2&#45;&gt;Node6 -->
<g id="edge5_Node000002_Node000006" class="edge">
<title>Node2&#45;&gt;Node6</title>
<g id="a_edge5_Node000002_Node000006"><a xlink:title=" ">
<path fill="none" stroke="#63b8ff" d="M290.3,-242.25C300.21,-242.25 310.53,-242.25 320.67,-242.25"/>
<polygon fill="#63b8ff" stroke="#63b8ff" points="320.49,-245.75 330.49,-242.25 320.49,-238.75 320.49,-245.75"/>
</a>
</g>
</g>
<!-- Node7 -->
<g id="Node000007" class="node">
<title>Node7</title>
<g id="a_Node000007"><a xlink:href="namespacemachine__learning.html#a6f1c98c016ad34ff3d9f39372161bd35" target="_top" xlink:title=" ">
<polygon fill="white" stroke="#666666" points="454.12,-202.88 337.62,-202.88 337.62,-183.62 454.12,-183.62 454.12,-202.88"/>
<text text-anchor="middle" x="395.88" y="-189.38" font-family="Helvetica,sans-Serif" font-size="10.00">machine_learning::sum</text>
</a>
</g>
</g>
<!-- Node2&#45;&gt;Node7 -->
<g id="edge6_Node000002_Node000007" class="edge">
<title>Node2&#45;&gt;Node7</title>
<g id="a_edge6_Node000002_Node000007"><a xlink:title=" ">
<path fill="none" stroke="#63b8ff" d="M290.48,-222.8C302.27,-219.23 314.5,-215.59 326,-212.25 332.72,-210.3 339.83,-208.29 346.82,-206.33"/>
<polygon fill="#63b8ff" stroke="#63b8ff" points="347.49,-209.78 356.19,-203.73 345.62,-203.03 347.49,-209.78"/>
</a>
</g>
</g>
<!-- Node5 -->
<g id="Node000005" class="node">
<title>Node5</title>
<g id="a_Node000005"><a xlink:href="namespacemachine__learning.html#aa4bbf61e65f8cd297255fa94b983d078" target="_top" xlink:title=" ">
<polygon fill="white" stroke="#666666" points="613,-211.5 501.75,-211.5 501.75,-181 613,-181 613,-211.5"/>
<text text-anchor="start" x="509.75" y="-198" font-family="Helvetica,sans-Serif" font-size="10.00">machine_learning::get</text>
<text text-anchor="middle" x="557.38" y="-186.75" font-family="Helvetica,sans-Serif" font-size="10.00">_shape</text>
</a>
</g>
</g>
<!-- Node4&#45;&gt;Node5 -->
<g id="edge4_Node000004_Node000005" class="edge">
<title>Node4&#45;&gt;Node5</title>
<g id="a_edge4_Node000004_Node000005"><a xlink:title=" ">
<path fill="none" stroke="#63b8ff" d="M443.86,-281.21C451.39,-278.78 458.94,-275.83 465.75,-272.25 491.68,-258.63 516.86,-236.59 534.06,-219.74"/>
<polygon fill="#63b8ff" stroke="#63b8ff" points="536.18,-222.57 540.77,-213.02 531.23,-217.63 536.18,-222.57"/>
</a>
</g>
</g>
<!-- Node9 -->
<g id="Node000009" class="node">
<title>Node9</title>
<g id="a_Node000009"><a xlink:href="namespacemachine__learning.html#a496302e3371aa7b478cb7d5917904bdd" target="_top" xlink:title=" ">
<polygon fill="white" stroke="#666666" points="456.75,-165.5 335,-165.5 335,-135 456.75,-135 456.75,-165.5"/>
<text text-anchor="start" x="343" y="-152" font-family="Helvetica,sans-Serif" font-size="10.00">machine_learning::insert</text>
<text text-anchor="middle" x="395.88" y="-140.75" font-family="Helvetica,sans-Serif" font-size="10.00">_element</text>
</a>
</g>
</g>
<!-- Node8&#45;&gt;Node9 -->
<g id="edge8_Node000008_Node000009" class="edge">
<title>Node8&#45;&gt;Node9</title>
<g id="a_edge8_Node000008_Node000009"><a xlink:title=" ">
<path fill="none" stroke="#63b8ff" d="M290.3,-119.64C303.42,-123.48 317.27,-127.53 330.44,-131.39"/>
<polygon fill="#63b8ff" stroke="#63b8ff" points="329.29,-134.7 339.87,-134.15 331.25,-127.98 329.29,-134.7"/>
</a>
</g>
</g>
<!-- Node10 -->
<g id="Node000010" class="node">
<title>Node10</title>
<g id="a_Node000010"><a xlink:href="namespacemachine__learning.html#ac332d152078e96311e43ac5e7183ea26" target="_top" xlink:title=" ">
<polygon fill="white" stroke="#666666" points="462,-116.5 329.75,-116.5 329.75,-86 462,-86 462,-116.5"/>
<text text-anchor="start" x="337.75" y="-103" font-family="Helvetica,sans-Serif" font-size="10.00">machine_learning::minmax</text>
<text text-anchor="middle" x="395.88" y="-91.75" font-family="Helvetica,sans-Serif" font-size="10.00">_scaler</text>
</a>
</g>
</g>
<!-- Node8&#45;&gt;Node10 -->
<g id="edge9_Node000008_Node000010" class="edge">
<title>Node8&#45;&gt;Node10</title>
<g id="a_edge9_Node000008_Node000010"><a xlink:title=" ">
<path fill="none" stroke="#63b8ff" d="M290.3,-101.25C299.4,-101.25 308.85,-101.25 318.19,-101.25"/>
<polygon fill="#63b8ff" stroke="#63b8ff" points="317.97,-104.75 327.97,-101.25 317.97,-97.75 317.97,-104.75"/>
</a>
</g>
</g>
<!-- Node11 -->
<g id="Node000011" class="node">
<title>Node11</title>
<g id="a_Node000011"><a xlink:href="namespacemachine__learning.html#ae10178b082f0205c326550877d998e5d" target="_top" xlink:title=" ">
<polygon fill="white" stroke="#666666" points="465.75,-67.88 326,-67.88 326,-48.62 465.75,-48.62 465.75,-67.88"/>
<text text-anchor="middle" x="395.88" y="-54.38" font-family="Helvetica,sans-Serif" font-size="10.00">machine_learning::pop_back</text>
</a>
</g>
</g>
<!-- Node8&#45;&gt;Node11 -->
<g id="edge11_Node000008_Node000011" class="edge">
<title>Node8&#45;&gt;Node11</title>
<g id="a_edge11_Node000008_Node000011"><a xlink:title=" ">
<path fill="none" stroke="#63b8ff" d="M290.3,-85.12C308.26,-80.5 327.59,-75.54 344.68,-71.14"/>
<polygon fill="#63b8ff" stroke="#63b8ff" points="345.28,-74.61 354.09,-68.73 343.53,-67.83 345.28,-74.61"/>
</a>
</g>
</g>
<!-- Node12 -->
<g id="Node000012" class="node">
<title>Node12</title>
<g id="a_Node000012"><a xlink:href="namespacemachine__learning.html#a912cf68863063a38d6e63545be5eb093" target="_top" xlink:title=" ">
<polygon fill="white" stroke="#666666" points="452.62,-30.5 339.12,-30.5 339.12,0 452.62,0 452.62,-30.5"/>
<text text-anchor="start" x="347.12" y="-17" font-family="Helvetica,sans-Serif" font-size="10.00">machine_learning::pop</text>
<text text-anchor="middle" x="395.88" y="-5.75" font-family="Helvetica,sans-Serif" font-size="10.00">_front</text>
</a>
</g>
</g>
<!-- Node8&#45;&gt;Node12 -->
<g id="edge12_Node000008_Node000012" class="edge">
<title>Node8&#45;&gt;Node12</title>
<g id="a_edge12_Node000008_Node000012"><a xlink:title=" ">
<path fill="none" stroke="#63b8ff" d="M257.09,-80.14C276.14,-67.18 301.78,-50.9 326,-39.25 328.89,-37.86 331.88,-36.51 334.92,-35.21"/>
<polygon fill="#63b8ff" stroke="#63b8ff" points="336.05,-38.53 344.01,-31.53 333.42,-32.04 336.05,-38.53"/>
</a>
</g>
</g>
<!-- Node10&#45;&gt;Node5 -->
<g id="edge10_Node000010_Node000005" class="edge">
<title>Node10&#45;&gt;Node5</title>
<g id="a_edge10_Node000010_Node000005"><a xlink:title=" ">
<path fill="none" stroke="#63b8ff" d="M445.88,-116.9C452.7,-119.69 459.51,-122.82 465.75,-126.25 489.48,-139.31 513.62,-158.29 531.02,-173.2"/>
<polygon fill="#63b8ff" stroke="#63b8ff" points="528.48,-175.63 538.32,-179.57 533.09,-170.36 528.48,-175.63"/>
</a>
</g>
</g>
</g>
</svg>
