<?xml version="1.0" encoding="UTF-8" standalone="no"?>
<!DOCTYPE svg PUBLIC "-//W3C//DTD SVG 1.1//EN"
 "http://www.w3.org/Graphics/SVG/1.1/DTD/svg11.dtd">
<!-- Generated by graphviz version 12.1.1 (20240910.0053)
 -->
<!-- Title: ciphers::HillCipher::generate_keys Pages: 1 -->
<svg width="515pt" height="103pt"
 viewBox="0.00 0.00 514.50 102.88" xmlns="http://www.w3.org/2000/svg" xmlns:xlink="http://www.w3.org/1999/xlink">
<g id="graph0" class="graph" transform="scale(1 1) rotate(0) translate(4 98.88)">
<title>ciphers::HillCipher::generate_keys</title>
<!-- Node1 -->
<g id="Node000001" class="node">
<title>Node1</title>
<g id="a_Node000001"><a xlink:title="Generate encryption and decryption key pair.">
<polygon fill="#999999" stroke="#666666" points="96.25,-79.5 0,-79.5 0,-49 96.25,-49 96.25,-79.5"/>
<text text-anchor="start" x="8" y="-66" font-family="Helvetica,sans-Serif" font-size="10.00">ciphers::HillCipher</text>
<text text-anchor="middle" x="48.12" y="-54.75" font-family="Helvetica,sans-Serif" font-size="10.00">::generate_keys</text>
</a>
</g>
</g>
<!-- Node2 -->
<g id="Node000002" class="node">
<title>Node2</title>
<g id="a_Node000002"><a xlink:href="lu__decomposition_8h.html#a3108d43bd32c6fb3b3c158476c51ba7f" target="_top" xlink:title=" ">
<polygon fill="white" stroke="#666666" points="378.75,-94.88 299,-94.88 299,-75.62 378.75,-75.62 378.75,-94.88"/>
<text text-anchor="middle" x="338.88" y="-81.38" font-family="Helvetica,sans-Serif" font-size="10.00">determinant_lu</text>
</a>
</g>
</g>
<!-- Node1&#45;&gt;Node2 -->
<g id="edge1_Node000001_Node000002" class="edge">
<title>Node1&#45;&gt;Node2</title>
<g id="a_edge1_Node000001_Node000002"><a xlink:title=" ">
<path fill="none" stroke="#63b8ff" d="M94.79,-79.92C106.83,-83.37 119.91,-86.5 132.25,-88.25 184.76,-95.68 245.56,-93.48 287.35,-90.32"/>
<polygon fill="#63b8ff" stroke="#63b8ff" points="287.42,-93.83 297.1,-89.53 286.85,-86.85 287.42,-93.83"/>
</a>
</g>
</g>
<!-- Node4 -->
<g id="Node000004" class="node">
<title>Node4</title>
<g id="a_Node000004"><a xlink:href="classciphers_1_1_hill_cipher.html#ab02c7563889bf1e363deb8e21967b706" target="_top" xlink:title="Generate decryption matrix from an encryption matrix key.">
<polygon fill="white" stroke="#666666" points="263,-79.5 132.25,-79.5 132.25,-49 263,-49 263,-79.5"/>
<text text-anchor="start" x="140.25" y="-66" font-family="Helvetica,sans-Serif" font-size="10.00">ciphers::HillCipher</text>
<text text-anchor="middle" x="197.62" y="-54.75" font-family="Helvetica,sans-Serif" font-size="10.00">::generate_decryption_key</text>
</a>
</g>
</g>
<!-- Node1&#45;&gt;Node4 -->
<g id="edge3_Node000001_Node000004" class="edge">
<title>Node1&#45;&gt;Node4</title>
<g id="a_edge3_Node000001_Node000004"><a xlink:title=" ">
<path fill="none" stroke="#63b8ff" d="M96.61,-64.25C104.22,-64.25 112.26,-64.25 120.35,-64.25"/>
<polygon fill="#63b8ff" stroke="#63b8ff" points="120.25,-67.75 130.25,-64.25 120.25,-60.75 120.25,-67.75"/>
</a>
</g>
</g>
<!-- Node5 -->
<g id="Node000005" class="node">
<title>Node5</title>
<g id="a_Node000005"><a xlink:href="classciphers_1_1_hill_cipher.html#a642f70fb54cb50b00fb6df7c3f2b120e" target="_top" xlink:title="Generate encryption matrix of a given size. Larger size matrices are difficult to generate but provid...">
<polygon fill="white" stroke="#666666" points="263,-30.5 132.25,-30.5 132.25,0 263,0 263,-30.5"/>
<text text-anchor="start" x="140.25" y="-17" font-family="Helvetica,sans-Serif" font-size="10.00">ciphers::HillCipher</text>
<text text-anchor="middle" x="197.62" y="-5.75" font-family="Helvetica,sans-Serif" font-size="10.00">::generate_encryption_key</text>
</a>
</g>
</g>
<!-- Node1&#45;&gt;Node5 -->
<g id="edge5_Node000001_Node000005" class="edge">
<title>Node1&#45;&gt;Node5</title>
<g id="a_edge5_Node000001_Node000005"><a xlink:title=" ">
<path fill="none" stroke="#63b8ff" d="M96.2,-48.61C109.7,-44.13 124.59,-39.18 138.67,-34.5"/>
<polygon fill="#63b8ff" stroke="#63b8ff" points="139.41,-37.94 147.8,-31.47 137.21,-31.3 139.41,-37.94"/>
</a>
</g>
</g>
<!-- Node3 -->
<g id="Node000003" class="node">
<title>Node3</title>
<g id="a_Node000003"><a xlink:href="lu__decomposition_8h.html#a75b8a228c6419ecda6077255d6d60509" target="_top" xlink:title=" ">
<polygon fill="white" stroke="#666666" points="506.5,-94.88 414.75,-94.88 414.75,-75.62 506.5,-75.62 506.5,-94.88"/>
<text text-anchor="middle" x="460.62" y="-81.38" font-family="Helvetica,sans-Serif" font-size="10.00">lu_decomposition</text>
</a>
</g>
</g>
<!-- Node2&#45;&gt;Node3 -->
<g id="edge2_Node000002_Node000003" class="edge">
<title>Node2&#45;&gt;Node3</title>
<g id="a_edge2_Node000002_Node000003"><a xlink:title=" ">
<path fill="none" stroke="#63b8ff" d="M379.09,-85.25C386.78,-85.25 395,-85.25 403.13,-85.25"/>
<polygon fill="#63b8ff" stroke="#63b8ff" points="402.99,-88.75 412.99,-85.25 402.99,-81.75 402.99,-88.75"/>
</a>
</g>
</g>
<!-- Node4&#45;&gt;Node2 -->
<g id="edge4_Node000004_Node000002" class="edge">
<title>Node4&#45;&gt;Node2</title>
<g id="a_edge4_Node000004_Node000002"><a xlink:title=" ">
<path fill="none" stroke="#63b8ff" d="M263.36,-74.01C271.47,-75.24 279.67,-76.47 287.52,-77.66"/>
<polygon fill="#63b8ff" stroke="#63b8ff" points="286.8,-81.09 297.21,-79.12 287.85,-74.17 286.8,-81.09"/>
</a>
</g>
</g>
</g>
</svg>
