<?xml version="1.0" encoding="UTF-8" standalone="no"?>
<!DOCTYPE svg PUBLIC "-//W3C//DTD SVG 1.1//EN"
 "http://www.w3.org/Graphics/SVG/1.1/DTD/svg11.dtd">
<!-- Generated by graphviz version 12.1.1 (20240910.0053)
 -->
<!-- Title: MinHeap::deleteKey Pages: 1 -->
<svg width="529pt" height="82pt"
 viewBox="0.00 0.00 528.75 82.25" xmlns="http://www.w3.org/2000/svg" xmlns:xlink="http://www.w3.org/1999/xlink">
<g id="graph0" class="graph" transform="scale(1 1) rotate(0) translate(4 78.25)">
<title>MinHeap::deleteKey</title>
<!-- Node1 -->
<g id="Node000001" class="node">
<title>Node1</title>
<g id="a_Node000001"><a xlink:title=" ">
<polygon fill="#999999" stroke="#666666" points="104.5,-55.25 0,-55.25 0,-36 104.5,-36 104.5,-55.25"/>
<text text-anchor="middle" x="52.25" y="-41.75" font-family="Helvetica,sans-Serif" font-size="10.00">MinHeap::deleteKey</text>
</a>
</g>
</g>
<!-- Node2 -->
<g id="Node000002" class="node">
<title>Node2</title>
<g id="a_Node000002"><a xlink:href="class_min_heap.html#aa7f726cc6327955d22871592227432f5" target="_top" xlink:title=" ">
<polygon fill="white" stroke="#666666" points="258.5,-74.25 140.5,-74.25 140.5,-55 258.5,-55 258.5,-74.25"/>
<text text-anchor="middle" x="199.5" y="-60.75" font-family="Helvetica,sans-Serif" font-size="10.00">MinHeap::decreaseKey</text>
</a>
</g>
</g>
<!-- Node1&#45;&gt;Node2 -->
<g id="edge1_Node000001_Node000002" class="edge">
<title>Node1&#45;&gt;Node2</title>
<g id="a_edge1_Node000001_Node000002"><a xlink:title=" ">
<path fill="none" stroke="#63b8ff" d="M104.87,-52.38C112.63,-53.39 120.74,-54.45 128.8,-55.51"/>
<polygon fill="#63b8ff" stroke="#63b8ff" points="128.25,-58.97 138.62,-56.79 129.16,-52.02 128.25,-58.97"/>
</a>
</g>
</g>
<!-- Node3 -->
<g id="Node000003" class="node">
<title>Node3</title>
<g id="a_Node000003"><a xlink:href="class_min_heap.html#a4014f1edaed0bd7db0c0d2ca53228980" target="_top" xlink:title=" ">
<polygon fill="white" stroke="#666666" points="252.88,-37.25 146.12,-37.25 146.12,-18 252.88,-18 252.88,-37.25"/>
<text text-anchor="middle" x="199.5" y="-23.75" font-family="Helvetica,sans-Serif" font-size="10.00">MinHeap::extractMin</text>
</a>
</g>
</g>
<!-- Node1&#45;&gt;Node3 -->
<g id="edge2_Node000001_Node000003" class="edge">
<title>Node1&#45;&gt;Node3</title>
<g id="a_edge2_Node000001_Node000003"><a xlink:title=" ">
<path fill="none" stroke="#63b8ff" d="M104.87,-39.23C114.58,-38.02 124.85,-36.75 134.88,-35.51"/>
<polygon fill="#63b8ff" stroke="#63b8ff" points="135.07,-39.01 144.57,-34.31 134.21,-32.07 135.07,-39.01"/>
</a>
</g>
</g>
<!-- Node4 -->
<g id="Node000004" class="node">
<title>Node4</title>
<g id="a_Node000004"><a xlink:href="class_min_heap.html#aaef438c1056492cb62c4a4d9035b5cad" target="_top" xlink:title=" ">
<polygon fill="white" stroke="#666666" points="405,-37.25 294.5,-37.25 294.5,-18 405,-18 405,-37.25"/>
<text text-anchor="middle" x="349.75" y="-23.75" font-family="Helvetica,sans-Serif" font-size="10.00">MinHeap::MinHeapify</text>
</a>
</g>
</g>
<!-- Node3&#45;&gt;Node4 -->
<g id="edge3_Node000003_Node000004" class="edge">
<title>Node3&#45;&gt;Node4</title>
<g id="a_edge3_Node000003_Node000004"><a xlink:title=" ">
<path fill="none" stroke="#63b8ff" d="M253.18,-27.62C262.76,-27.62 272.85,-27.62 282.75,-27.62"/>
<polygon fill="#63b8ff" stroke="#63b8ff" points="282.72,-31.13 292.72,-27.63 282.72,-24.13 282.72,-31.13"/>
</a>
</g>
</g>
<!-- Node4&#45;&gt;Node4 -->
<g id="edge5_Node000004_Node000004" class="edge">
<title>Node4&#45;&gt;Node4</title>
<g id="a_edge5_Node000004_Node000004"><a xlink:title=" ">
<path fill="none" stroke="#63b8ff" d="M329.22,-37.54C319.86,-46.15 326.7,-55.25 349.75,-55.25 362.36,-55.25 370.11,-52.53 373.02,-48.65"/>
<polygon fill="#63b8ff" stroke="#63b8ff" points="376.44,-47.88 370.64,-39.01 369.64,-49.56 376.44,-47.88"/>
</a>
</g>
</g>
<!-- Node5 -->
<g id="Node000005" class="node">
<title>Node5</title>
<g id="a_Node000005"><a xlink:href="class_min_heap.html#aa8c6c141e3de664819686aa637e1afca" target="_top" xlink:title=" ">
<polygon fill="white" stroke="#666666" points="518.12,-56.25 443.62,-56.25 443.62,-37 518.12,-37 518.12,-56.25"/>
<text text-anchor="middle" x="480.88" y="-42.75" font-family="Helvetica,sans-Serif" font-size="10.00">MinHeap::left</text>
</a>
</g>
</g>
<!-- Node4&#45;&gt;Node5 -->
<g id="edge4_Node000004_Node000005" class="edge">
<title>Node4&#45;&gt;Node5</title>
<g id="a_edge4_Node000004_Node000005"><a xlink:title=" ">
<path fill="none" stroke="#63b8ff" d="M405.14,-35.63C414.05,-36.94 423.23,-38.29 431.97,-39.58"/>
<polygon fill="#63b8ff" stroke="#63b8ff" points="431.25,-43.01 441.65,-41 432.27,-36.08 431.25,-43.01"/>
</a>
</g>
</g>
<!-- Node6 -->
<g id="Node000006" class="node">
<title>Node6</title>
<g id="a_Node000006"><a xlink:href="class_min_heap.html#ac760b85cf90265b8d674b942a43fb70e" target="_top" xlink:title=" ">
<polygon fill="white" stroke="#666666" points="520.75,-19.25 441,-19.25 441,0 520.75,0 520.75,-19.25"/>
<text text-anchor="middle" x="480.88" y="-5.75" font-family="Helvetica,sans-Serif" font-size="10.00">MinHeap::right</text>
</a>
</g>
</g>
<!-- Node4&#45;&gt;Node6 -->
<g id="edge6_Node000004_Node000006" class="edge">
<title>Node4&#45;&gt;Node6</title>
<g id="a_edge6_Node000004_Node000006"><a xlink:title=" ">
<path fill="none" stroke="#63b8ff" d="M405.14,-20.04C413.29,-18.91 421.66,-17.74 429.72,-16.62"/>
<polygon fill="#63b8ff" stroke="#63b8ff" points="429.92,-20.12 439.35,-15.27 428.96,-13.19 429.92,-20.12"/>
</a>
</g>
</g>
</g>
</svg>
