<?xml version="1.0" encoding="UTF-8" standalone="no"?>
<!DOCTYPE svg PUBLIC "-//W3C//DTD SVG 1.1//EN"
 "http://www.w3.org/Graphics/SVG/1.1/DTD/svg11.dtd">
<!-- Generated by graphviz version 12.1.1 (20240910.0053)
 -->
<!-- Title: machine_learning::neural_network::NeuralNetwork::fit Pages: 1 -->
<svg width="473pt" height="372pt"
 viewBox="0.00 0.00 473.00 371.50" xmlns="http://www.w3.org/2000/svg" xmlns:xlink="http://www.w3.org/1999/xlink">
<g id="graph0" class="graph" transform="scale(1 1) rotate(0) translate(4 367.5)">
<title>machine_learning::neural_network::NeuralNetwork::fit</title>
<!-- Node1 -->
<g id="Node000001" class="node">
<title>Node1</title>
<g id="a_Node000001"><a xlink:title=" ">
<polygon fill="#999999" stroke="#666666" points="141.25,-190.5 0,-190.5 0,-160 141.25,-160 141.25,-190.5"/>
<text text-anchor="start" x="8" y="-177" font-family="Helvetica,sans-Serif" font-size="10.00">machine_learning::neural</text>
<text text-anchor="middle" x="70.62" y="-165.75" font-family="Helvetica,sans-Serif" font-size="10.00">_network::NeuralNetwork::fit</text>
</a>
</g>
</g>
<!-- Node2 -->
<g id="Node000002" class="node">
<title>Node2</title>
<g id="a_Node000002"><a xlink:href="namespacemachine__learning.html#ad0bdc88e5f1be47c46c0f0c8ebf754bb" target="_top" xlink:title=" ">
<polygon fill="white" stroke="#666666" points="308,-363.5 187,-363.5 187,-333 308,-333 308,-363.5"/>
<text text-anchor="start" x="195" y="-350" font-family="Helvetica,sans-Serif" font-size="10.00">machine_learning::apply</text>
<text text-anchor="middle" x="247.5" y="-338.75" font-family="Helvetica,sans-Serif" font-size="10.00">_function</text>
</a>
</g>
</g>
<!-- Node1&#45;&gt;Node2 -->
<g id="edge1_Node000001_Node000002" class="edge">
<title>Node1&#45;&gt;Node2</title>
<g id="a_edge1_Node000001_Node000002"><a xlink:title=" ">
<path fill="none" stroke="#63b8ff" d="M78.55,-190.74C92.76,-220.8 128.05,-287.32 177.25,-324.25 178.42,-325.13 179.63,-325.98 180.87,-326.8"/>
<polygon fill="#63b8ff" stroke="#63b8ff" points="179.11,-329.83 189.53,-331.77 182.6,-323.76 179.11,-329.83"/>
</a>
</g>
</g>
<!-- Node3 -->
<g id="Node000003" class="node">
<title>Node3</title>
<g id="a_Node000003"><a xlink:href="namespacemachine__learning.html#a50480fccfb39de20ca47f1bf51ecb6ec" target="_top" xlink:title=" ">
<polygon fill="white" stroke="#666666" points="312.5,-314.88 182.5,-314.88 182.5,-295.62 312.5,-295.62 312.5,-314.88"/>
<text text-anchor="middle" x="247.5" y="-301.38" font-family="Helvetica,sans-Serif" font-size="10.00">machine_learning::argmax</text>
</a>
</g>
</g>
<!-- Node1&#45;&gt;Node3 -->
<g id="edge2_Node000001_Node000003" class="edge">
<title>Node1&#45;&gt;Node3</title>
<g id="a_edge2_Node000001_Node000003"><a xlink:title=" ">
<path fill="none" stroke="#63b8ff" d="M83.25,-190.78C101.11,-213.62 137.42,-256.26 177.25,-281.25 183.26,-285.02 189.94,-288.29 196.71,-291.09"/>
<polygon fill="#63b8ff" stroke="#63b8ff" points="195.34,-294.32 205.93,-294.59 197.82,-287.77 195.34,-294.32"/>
</a>
</g>
</g>
<!-- Node4 -->
<g id="Node000004" class="node">
<title>Node4</title>
<g id="a_Node000004"><a xlink:href="namespacemachine__learning.html#aa4bbf61e65f8cd297255fa94b983d078" target="_top" xlink:title=" ">
<polygon fill="white" stroke="#666666" points="465,-190.5 353.75,-190.5 353.75,-160 465,-160 465,-190.5"/>
<text text-anchor="start" x="361.75" y="-177" font-family="Helvetica,sans-Serif" font-size="10.00">machine_learning::get</text>
<text text-anchor="middle" x="409.38" y="-165.75" font-family="Helvetica,sans-Serif" font-size="10.00">_shape</text>
</a>
</g>
</g>
<!-- Node1&#45;&gt;Node4 -->
<g id="edge5_Node000001_Node000004" class="edge">
<title>Node1&#45;&gt;Node4</title>
<g id="a_edge5_Node000001_Node000004"><a xlink:title=" ">
<path fill="none" stroke="#63b8ff" d="M87.47,-190.93C106.77,-208.81 141.29,-237.03 177.25,-248.25 236.86,-266.85 258.86,-269.02 317.75,-248.25 345.42,-238.49 370.86,-216.31 387.7,-198.94"/>
<polygon fill="#63b8ff" stroke="#63b8ff" points="389.93,-201.68 394.21,-191.98 384.82,-196.89 389.93,-201.68"/>
</a>
</g>
</g>
<!-- Node5 -->
<g id="Node000005" class="node">
<title>Node5</title>
<g id="a_Node000005"><a xlink:href="namespacemachine__learning.html#af801bf30591ca6b2c38ff4fed0ded23f" target="_top" xlink:title=" ">
<polygon fill="white" stroke="#666666" points="308,-239.5 187,-239.5 187,-209 308,-209 308,-239.5"/>
<text text-anchor="start" x="195" y="-226" font-family="Helvetica,sans-Serif" font-size="10.00">machine_learning::equal</text>
<text text-anchor="middle" x="247.5" y="-214.75" font-family="Helvetica,sans-Serif" font-size="10.00">_shuffle</text>
</a>
</g>
</g>
<!-- Node1&#45;&gt;Node5 -->
<g id="edge4_Node000001_Node000005" class="edge">
<title>Node1&#45;&gt;Node5</title>
<g id="a_edge4_Node000001_Node000005"><a xlink:title=" ">
<path fill="none" stroke="#63b8ff" d="M127.44,-190.89C143.92,-195.51 162.13,-200.61 179.25,-205.41"/>
<polygon fill="#63b8ff" stroke="#63b8ff" points="178.29,-208.77 188.86,-208.1 180.18,-202.03 178.29,-208.77"/>
</a>
</g>
</g>
<!-- Node6 -->
<g id="Node000006" class="node">
<title>Node6</title>
<g id="a_Node000006"><a xlink:href="namespacemachine__learning.html#acafa3e62b686aebdbad81c4f89913f43" target="_top" xlink:title=" ">
<polygon fill="white" stroke="#666666" points="317.75,-190.5 177.25,-190.5 177.25,-160 317.75,-160 317.75,-190.5"/>
<text text-anchor="start" x="185.25" y="-177" font-family="Helvetica,sans-Serif" font-size="10.00">machine_learning::hadamard</text>
<text text-anchor="middle" x="247.5" y="-165.75" font-family="Helvetica,sans-Serif" font-size="10.00">_product</text>
</a>
</g>
</g>
<!-- Node1&#45;&gt;Node6 -->
<g id="edge6_Node000001_Node000006" class="edge">
<title>Node1&#45;&gt;Node6</title>
<g id="a_edge6_Node000001_Node000006"><a xlink:title=" ">
<path fill="none" stroke="#63b8ff" d="M141.75,-175.25C149.53,-175.25 157.51,-175.25 165.42,-175.25"/>
<polygon fill="#63b8ff" stroke="#63b8ff" points="165.42,-178.75 175.42,-175.25 165.42,-171.75 165.42,-178.75"/>
</a>
</g>
</g>
<!-- Node7 -->
<g id="Node000007" class="node">
<title>Node7</title>
<g id="a_Node000007"><a xlink:href="namespacemachine__learning.html#a5342906d42b80fc6b6b3ad17bf00fcb9" target="_top" xlink:title=" ">
<polygon fill="white" stroke="#666666" points="313.25,-141.88 181.75,-141.88 181.75,-122.62 313.25,-122.62 313.25,-141.88"/>
<text text-anchor="middle" x="247.5" y="-128.38" font-family="Helvetica,sans-Serif" font-size="10.00">machine_learning::multiply</text>
</a>
</g>
</g>
<!-- Node1&#45;&gt;Node7 -->
<g id="edge8_Node000001_Node000007" class="edge">
<title>Node1&#45;&gt;Node7</title>
<g id="a_edge8_Node000001_Node000007"><a xlink:title=" ">
<path fill="none" stroke="#63b8ff" d="M135.25,-159.6C154.75,-154.81 175.97,-149.59 194.59,-145.01"/>
<polygon fill="#63b8ff" stroke="#63b8ff" points="195.17,-148.48 204.04,-142.69 193.5,-141.68 195.17,-148.48"/>
</a>
</g>
</g>
<!-- Node8 -->
<g id="Node000008" class="node">
<title>Node8</title>
<g id="a_Node000008"><a xlink:href="namespacemachine__learning.html#a6f1c98c016ad34ff3d9f39372161bd35" target="_top" xlink:title=" ">
<polygon fill="white" stroke="#666666" points="305.75,-104.88 189.25,-104.88 189.25,-85.62 305.75,-85.62 305.75,-104.88"/>
<text text-anchor="middle" x="247.5" y="-91.38" font-family="Helvetica,sans-Serif" font-size="10.00">machine_learning::sum</text>
</a>
</g>
</g>
<!-- Node1&#45;&gt;Node8 -->
<g id="edge10_Node000001_Node000008" class="edge">
<title>Node1&#45;&gt;Node8</title>
<g id="a_edge10_Node000001_Node000008"><a xlink:title=" ">
<path fill="none" stroke="#63b8ff" d="M94.16,-159.53C114.92,-145.67 147,-125.78 177.25,-113.25 181.27,-111.59 185.48,-110.04 189.76,-108.61"/>
<polygon fill="#63b8ff" stroke="#63b8ff" points="190.5,-112.05 199.02,-105.75 188.43,-105.36 190.5,-112.05"/>
</a>
</g>
</g>
<!-- Node9 -->
<g id="Node000009" class="node">
<title>Node9</title>
<g id="a_Node000009"><a xlink:href="namespacemachine__learning.html#a89fde571b38f9483576594f66572958a" target="_top" xlink:title=" ">
<polygon fill="white" stroke="#666666" points="317.75,-67.88 177.25,-67.88 177.25,-48.62 317.75,-48.62 317.75,-67.88"/>
<text text-anchor="middle" x="247.5" y="-54.38" font-family="Helvetica,sans-Serif" font-size="10.00">machine_learning::transpose</text>
</a>
</g>
</g>
<!-- Node1&#45;&gt;Node9 -->
<g id="edge11_Node000001_Node000009" class="edge">
<title>Node1&#45;&gt;Node9</title>
<g id="a_edge11_Node000001_Node000009"><a xlink:title=" ">
<path fill="none" stroke="#63b8ff" d="M83.85,-159.66C101.91,-137.71 137.85,-97.96 177.25,-76.25 179.77,-74.86 182.41,-73.57 185.11,-72.38"/>
<polygon fill="#63b8ff" stroke="#63b8ff" points="186.32,-75.67 194.39,-68.81 183.8,-69.14 186.32,-75.67"/>
</a>
</g>
</g>
<!-- Node10 -->
<g id="Node000010" class="node">
<title>Node10</title>
<g id="a_Node000010"><a xlink:href="namespacemachine__learning.html#ac1bdaa2a724b4ce6a6bb371a5dbe2e7e" target="_top" xlink:title=" ">
<polygon fill="white" stroke="#666666" points="311,-30.5 184,-30.5 184,0 311,0 311,-30.5"/>
<text text-anchor="start" x="192" y="-17" font-family="Helvetica,sans-Serif" font-size="10.00">machine_learning::zeroes</text>
<text text-anchor="middle" x="247.5" y="-5.75" font-family="Helvetica,sans-Serif" font-size="10.00">_initialization</text>
</a>
</g>
</g>
<!-- Node1&#45;&gt;Node10 -->
<g id="edge13_Node000001_Node000010" class="edge">
<title>Node1&#45;&gt;Node10</title>
<g id="a_edge13_Node000001_Node000010"><a xlink:title=" ">
<path fill="none" stroke="#63b8ff" d="M79.62,-159.83C94.89,-131.85 130.84,-72.52 177.25,-39.25 178.61,-38.28 180.01,-37.34 181.44,-36.44"/>
<polygon fill="#63b8ff" stroke="#63b8ff" points="182.94,-39.61 190.01,-31.73 179.56,-33.48 182.94,-39.61"/>
</a>
</g>
</g>
<!-- Node3&#45;&gt;Node4 -->
<g id="edge3_Node000003_Node000004" class="edge">
<title>Node3&#45;&gt;Node4</title>
<g id="a_edge3_Node000003_Node000004"><a xlink:title=" ">
<path fill="none" stroke="#63b8ff" d="M289.04,-295.21C298.93,-291.7 309.13,-287.13 317.75,-281.25 349.43,-259.65 376.6,-224.2 392.71,-200.31"/>
<polygon fill="#63b8ff" stroke="#63b8ff" points="395.53,-202.4 398.09,-192.12 389.67,-198.56 395.53,-202.4"/>
</a>
</g>
</g>
<!-- Node6&#45;&gt;Node4 -->
<g id="edge7_Node000006_Node000004" class="edge">
<title>Node6&#45;&gt;Node4</title>
<g id="a_edge7_Node000006_Node000004"><a xlink:title=" ">
<path fill="none" stroke="#63b8ff" d="M318.16,-175.25C326.07,-175.25 334.13,-175.25 342,-175.25"/>
<polygon fill="#63b8ff" stroke="#63b8ff" points="341.85,-178.75 351.85,-175.25 341.85,-171.75 341.85,-178.75"/>
</a>
</g>
</g>
<!-- Node7&#45;&gt;Node4 -->
<g id="edge9_Node000007_Node000004" class="edge">
<title>Node7&#45;&gt;Node4</title>
<g id="a_edge9_Node000007_Node000004"><a xlink:title=" ">
<path fill="none" stroke="#63b8ff" d="M285.98,-142.33C302.88,-146.88 323.34,-152.38 342.66,-157.58"/>
<polygon fill="#63b8ff" stroke="#63b8ff" points="341.53,-160.9 352.09,-160.11 343.35,-154.14 341.53,-160.9"/>
</a>
</g>
</g>
<!-- Node9&#45;&gt;Node4 -->
<g id="edge12_Node000009_Node000004" class="edge">
<title>Node9&#45;&gt;Node4</title>
<g id="a_edge12_Node000009_Node000004"><a xlink:title=" ">
<path fill="none" stroke="#63b8ff" d="M300.88,-68.37C306.78,-70.51 312.54,-73.11 317.75,-76.25 348.88,-94.99 375.71,-127.63 391.93,-150.28"/>
<polygon fill="#63b8ff" stroke="#63b8ff" points="388.96,-152.15 397.54,-158.36 394.71,-148.16 388.96,-152.15"/>
</a>
</g>
</g>
</g>
</svg>
