<?xml version="1.0" encoding="UTF-8" standalone="no"?>
<!DOCTYPE svg PUBLIC "-//W3C//DTD SVG 1.1//EN"
 "http://www.w3.org/Graphics/SVG/1.1/DTD/svg11.dtd">
<!-- Generated by graphviz version 12.1.1 (20240910.0053)
 -->
<!-- Title: divide_and_conquer::strassens_multiplication::Matrix::strassens_multiplication Pages: 1 -->
<!--zoomable 268 -->

<svg id="main" version="1.1" xmlns="http://www.w3.org/2000/svg" xmlns:xlink="http://www.w3.org/1999/xlink" xml:space="preserve" onload="init(evt)">

<style type="text/css"><![CDATA[
.node, .edge {opacity: 0.7;}
.node.selected, .edge.selected {opacity: 1;}
.edge:hover path { stroke: red; }
.edge:hover polygon { stroke: red; fill: red; }
]]></style>

<defs>
  <circle id="rim" cx="0" cy="0" r="7"/>
  <circle id="rim2" cx="0" cy="0" r="3.5"/>
  <g id="zoomPlus">
    <use xlink:href="#rim" fill="#404040"><set attributeName="fill" to="#808080" begin="zoomplus.mouseover" end="zoomplus.mouseout"/></use>
    <path d="M-4,0h8M0,-4v8" fill="none" stroke="white" stroke-width="1.5" pointer-events="none"/>
  </g>
  <g id="zoomMin">
    <use xlink:href="#rim" fill="#404040"><set attributeName="fill" to="#808080" begin="zoomminus.mouseover" end="zoomminus.mouseout"/></use>
    <path d="M-4,0h8" fill="none" stroke="white" stroke-width="1.5" pointer-events="none"/>
  </g>
  <g id="arrowUp" transform="translate(30 24)">
    <use xlink:href="#rim"/>
    <path pointer-events="none" fill="none" stroke="white" stroke-width="1.5" d="M0,-3.0v7 M-2.5,-0.5L0,-3.0L2.5,-0.5"/>
  </g>
  <g id="arrowRight" transform="rotate(90) translate(36 -43)">
    <use xlink:href="#rim"/>
    <path pointer-events="none" fill="none" stroke="white" stroke-width="1.5" d="M0,-3.0v7 M-2.5,-0.5L0,-3.0L2.5,-0.5"/>
  </g>
  <g id="arrowDown" transform="rotate(180) translate(-30 -48)">
    <use xlink:href="#rim"/>
    <path pointer-events="none" fill="none" stroke="white" stroke-width="1.5" d="M0,-3.0v7 M-2.5,-0.5L0,-3.0L2.5,-0.5"/>
  </g>
  <g id="arrowLeft" transform="rotate(270) translate(-36 17)">
    <use xlink:href="#rim"/>
    <path pointer-events="none" fill="none" stroke="white" stroke-width="1.5" d="M0,-3.0v7 M-2.5,-0.5L0,-3.0L2.5,-0.5"/>
  </g>
  <g id="resetDef">
    <use xlink:href="#rim2" fill="#404040"><set attributeName="fill" to="#808080" begin="reset.mouseover" end="reset.mouseout"/></use>
  </g>
</defs>
<script type="application/ecmascript">
var viewWidth = 671;
var viewHeight = 268;
var sectionId = 'dynsection-9';
</script>
<script type="application/ecmascript" xlink:href="svg.min.js"/>
<svg id="graph" class="graph">
<g id="viewport">
<title>divide_and_conquer::strassens_multiplication::Matrix::strassens_multiplication</title>
<!-- Node1 -->
<g id="Node000001" class="node">
<title>Node1</title>
<g id="a_Node000001"><a xlink:title="Strassens method of multiplying two matrices References: https://en.wikipedia.org/wiki/Strassen_algor...">
<polygon fill="#999999" stroke="#666666" points="160,-139.75 0,-139.75 0,-98 160,-98 160,-139.75"/>
<text text-anchor="start" x="8" y="-126.25" font-family="Helvetica,sans-Serif" font-size="10.00">divide_and_conquer</text>
<text text-anchor="start" x="8" y="-115" font-family="Helvetica,sans-Serif" font-size="10.00">::strassens_multiplication</text>
<text text-anchor="middle" x="80" y="-103.75" font-family="Helvetica,sans-Serif" font-size="10.00">::Matrix::strassens_multiplication</text>
</a>
</g>
</g>
<!-- Node1&#45;&gt;Node1 -->
<g id="edge8_Node000001_Node000001" class="edge">
<title>Node1&#45;&gt;Node1</title>
<g id="a_edge8_Node000001_Node000001"><a xlink:title=" ">
<path fill="none" stroke="#63b8ff" d="M45.62,-140.07C42.35,-149.55 53.81,-157.75 80,-157.75 95.14,-157.75 105.36,-155.01 110.65,-150.86"/>
<polygon fill="#63b8ff" stroke="#63b8ff" points="113.93,-152.09 113.88,-141.5 107.31,-149.81 113.93,-152.09"/>
</a>
</g>
</g>
<!-- Node2 -->
<g id="Node000002" class="node">
<title>Node2</title>
<g id="a_Node000002"><a xlink:href="classdivide__and__conquer_1_1strassens__multiplication_1_1_matrix.html#ab6534125643a02c114bd4cddba9bc17f" target="_top" xlink:title="Horizontally stack the matrix (one after the other)">
<polygon fill="white" stroke="#666666" points="329.75,-259.75 202.75,-259.75 202.75,-218 329.75,-218 329.75,-259.75"/>
<text text-anchor="start" x="210.75" y="-246.25" font-family="Helvetica,sans-Serif" font-size="10.00">divide_and_conquer</text>
<text text-anchor="start" x="210.75" y="-235" font-family="Helvetica,sans-Serif" font-size="10.00">::strassens_multiplication</text>
<text text-anchor="middle" x="266.25" y="-223.75" font-family="Helvetica,sans-Serif" font-size="10.00">::Matrix::h_stack</text>
</a>
</g>
</g>
<!-- Node1&#45;&gt;Node2 -->
<g id="edge1_Node000001_Node000002" class="edge">
<title>Node1&#45;&gt;Node2</title>
<g id="a_edge1_Node000001_Node000002"><a xlink:title=" ">
<path fill="none" stroke="#63b8ff" d="M104.37,-140.09C126.74,-159.66 162.01,-188.66 196,-208.88 198.02,-210.08 200.1,-211.26 202.22,-212.42"/>
<polygon fill="#63b8ff" stroke="#63b8ff" points="200.53,-215.48 211.02,-216.96 203.74,-209.26 200.53,-215.48"/>
</a>
</g>
</g>
<!-- Node3 -->
<g id="Node000003" class="node">
<title>Node3</title>
<g id="a_Node000003"><a xlink:href="classdivide__and__conquer_1_1strassens__multiplication_1_1_matrix.html#a5d8eb669b37a27224376b08515b4ee50" target="_top" xlink:title="Naive multiplication performed on this.">
<polygon fill="white" stroke="#666666" points="336.5,-199.75 196,-199.75 196,-158 336.5,-158 336.5,-199.75"/>
<text text-anchor="start" x="204" y="-186.25" font-family="Helvetica,sans-Serif" font-size="10.00">divide_and_conquer</text>
<text text-anchor="start" x="204" y="-175" font-family="Helvetica,sans-Serif" font-size="10.00">::strassens_multiplication</text>
<text text-anchor="middle" x="266.25" y="-163.75" font-family="Helvetica,sans-Serif" font-size="10.00">::Matrix::naive_multiplication</text>
</a>
</g>
</g>
<!-- Node1&#45;&gt;Node3 -->
<g id="edge2_Node000001_Node000003" class="edge">
<title>Node1&#45;&gt;Node3</title>
<g id="a_edge2_Node000001_Node000003"><a xlink:title=" ">
<path fill="none" stroke="#63b8ff" d="M146.48,-140.2C160.24,-144.68 174.88,-149.45 189,-154.04"/>
<polygon fill="#63b8ff" stroke="#63b8ff" points="187.64,-157.28 198.23,-157.05 189.81,-150.63 187.64,-157.28"/>
</a>
</g>
</g>
<!-- Node5 -->
<g id="Node000005" class="node">
<title>Node5</title>
<g id="a_Node000005"><a xlink:href="classdivide__and__conquer_1_1strassens__multiplication_1_1_matrix.html#ae4e183ec8eab778cb243e4ae0b22a0f1" target="_top" xlink:title="Get the matrix shape.">
<polygon fill="white" stroke="#666666" points="662.5,-90.75 535.5,-90.75 535.5,-49 662.5,-49 662.5,-90.75"/>
<text text-anchor="start" x="543.5" y="-77.25" font-family="Helvetica,sans-Serif" font-size="10.00">divide_and_conquer</text>
<text text-anchor="start" x="543.5" y="-66" font-family="Helvetica,sans-Serif" font-size="10.00">::strassens_multiplication</text>
<text text-anchor="middle" x="599" y="-54.75" font-family="Helvetica,sans-Serif" font-size="10.00">::Matrix::size</text>
</a>
</g>
</g>
<!-- Node1&#45;&gt;Node5 -->
<g id="edge5_Node000001_Node000005" class="edge">
<title>Node1&#45;&gt;Node5</title>
<g id="a_edge5_Node000001_Node000005"><a xlink:title=" ">
<path fill="none" stroke="#63b8ff" d="M153.53,-97.52C167.51,-94.1 182.13,-90.99 196,-88.88 309.63,-71.56 443.23,-68.65 524.21,-68.79"/>
<polygon fill="#63b8ff" stroke="#63b8ff" points="523.75,-72.28 533.76,-68.82 523.78,-65.28 523.75,-72.28"/>
</a>
</g>
</g>
<!-- Node6 -->
<g id="Node000006" class="node">
<title>Node6</title>
<g id="a_Node000006"><a xlink:href="classdivide__and__conquer_1_1strassens__multiplication_1_1_matrix.html#a1fcb7db9bdeabd874712ec4f00483d17" target="_top" xlink:title="Creates a new matrix and returns a part of it.">
<polygon fill="white" stroke="#666666" points="329.75,-139.75 202.75,-139.75 202.75,-98 329.75,-98 329.75,-139.75"/>
<text text-anchor="start" x="210.75" y="-126.25" font-family="Helvetica,sans-Serif" font-size="10.00">divide_and_conquer</text>
<text text-anchor="start" x="210.75" y="-115" font-family="Helvetica,sans-Serif" font-size="10.00">::strassens_multiplication</text>
<text text-anchor="middle" x="266.25" y="-103.75" font-family="Helvetica,sans-Serif" font-size="10.00">::Matrix::slice</text>
</a>
</g>
</g>
<!-- Node1&#45;&gt;Node6 -->
<g id="edge6_Node000001_Node000006" class="edge">
<title>Node1&#45;&gt;Node6</title>
<g id="a_edge6_Node000001_Node000006"><a xlink:title=" ">
<path fill="none" stroke="#63b8ff" d="M160.48,-118.88C170.67,-118.88 181.07,-118.88 191.17,-118.88"/>
<polygon fill="#63b8ff" stroke="#63b8ff" points="190.9,-122.38 200.9,-118.88 190.9,-115.38 190.9,-122.38"/>
</a>
</g>
</g>
<!-- Node7 -->
<g id="Node000007" class="node">
<title>Node7</title>
<g id="a_Node000007"><a xlink:href="classdivide__and__conquer_1_1strassens__multiplication_1_1_matrix.html#af12ceffdc07cc87eca8a4a8ac87d60fe" target="_top" xlink:title="Horizontally stack the matrix (current matrix above the other)">
<polygon fill="white" stroke="#666666" points="499.5,-41.75 372.5,-41.75 372.5,0 499.5,0 499.5,-41.75"/>
<text text-anchor="start" x="380.5" y="-28.25" font-family="Helvetica,sans-Serif" font-size="10.00">divide_and_conquer</text>
<text text-anchor="start" x="380.5" y="-17" font-family="Helvetica,sans-Serif" font-size="10.00">::strassens_multiplication</text>
<text text-anchor="middle" x="436" y="-5.75" font-family="Helvetica,sans-Serif" font-size="10.00">::Matrix::v_stack</text>
</a>
</g>
</g>
<!-- Node1&#45;&gt;Node7 -->
<g id="edge9_Node000001_Node000007" class="edge">
<title>Node1&#45;&gt;Node7</title>
<g id="a_edge9_Node000001_Node000007"><a xlink:title=" ">
<path fill="none" stroke="#63b8ff" d="M112.3,-97.72C134.67,-83.64 166,-65.93 196,-55.88 249.56,-37.93 312.93,-29.18 360.95,-24.92"/>
<polygon fill="#63b8ff" stroke="#63b8ff" points="361.01,-28.42 370.68,-24.1 360.43,-21.45 361.01,-28.42"/>
</a>
</g>
</g>
<!-- Node4 -->
<g id="Node000004" class="node">
<title>Node4</title>
<g id="a_Node000004"><a xlink:href="classdivide__and__conquer_1_1strassens__multiplication_1_1_matrix.html#a01f3a05cf5abdc5d63999ef1bf9f9256" target="_top" xlink:title="Constructor.">
<polygon fill="white" stroke="#666666" points="499.5,-139.75 372.5,-139.75 372.5,-98 499.5,-98 499.5,-139.75"/>
<text text-anchor="start" x="380.5" y="-126.25" font-family="Helvetica,sans-Serif" font-size="10.00">divide_and_conquer</text>
<text text-anchor="start" x="380.5" y="-115" font-family="Helvetica,sans-Serif" font-size="10.00">::strassens_multiplication</text>
<text text-anchor="middle" x="436" y="-103.75" font-family="Helvetica,sans-Serif" font-size="10.00">::Matrix::Matrix</text>
</a>
</g>
</g>
<!-- Node3&#45;&gt;Node4 -->
<g id="edge3_Node000003_Node000004" class="edge">
<title>Node3&#45;&gt;Node4</title>
<g id="a_edge3_Node000003_Node000004"><a xlink:title=" ">
<path fill="none" stroke="#63b8ff" d="M326.86,-157.55C339.15,-153.16 352.2,-148.49 364.82,-143.98"/>
<polygon fill="#63b8ff" stroke="#63b8ff" points="365.63,-147.4 373.87,-140.74 363.28,-140.81 365.63,-147.4"/>
</a>
</g>
</g>
<!-- Node4&#45;&gt;Node5 -->
<g id="edge4_Node000004_Node000005" class="edge">
<title>Node4&#45;&gt;Node5</title>
<g id="a_edge4_Node000004_Node000005"><a xlink:title=" ">
<path fill="none" stroke="#63b8ff" d="M499.71,-99.79C507.81,-97.32 516.17,-94.78 524.43,-92.27"/>
<polygon fill="#63b8ff" stroke="#63b8ff" points="525.2,-95.69 533.75,-89.43 523.16,-88.99 525.2,-95.69"/>
</a>
</g>
</g>
<!-- Node6&#45;&gt;Node4 -->
<g id="edge7_Node000006_Node000004" class="edge">
<title>Node6&#45;&gt;Node4</title>
<g id="a_edge7_Node000006_Node000004"><a xlink:title=" ">
<path fill="none" stroke="#63b8ff" d="M330.19,-118.88C340.19,-118.88 350.61,-118.88 360.83,-118.88"/>
<polygon fill="#63b8ff" stroke="#63b8ff" points="360.75,-122.38 370.75,-118.88 360.75,-115.38 360.75,-122.38"/>
</a>
</g>
</g>
<!-- Node7&#45;&gt;Node5 -->
<g id="edge10_Node000007_Node000005" class="edge">
<title>Node7&#45;&gt;Node5</title>
<g id="a_edge10_Node000007_Node000005"><a xlink:title=" ">
<path fill="none" stroke="#63b8ff" d="M499.71,-39.96C507.81,-42.43 516.17,-44.97 524.43,-47.48"/>
<polygon fill="#63b8ff" stroke="#63b8ff" points="523.16,-50.76 533.75,-50.32 525.2,-44.06 523.16,-50.76"/>
</a>
</g>
</g>
</g>
</svg>

<g id="navigator" transform="translate(0 0)" fill="#404254">
  <rect fill="#f2f5e9" fill-opacity="0.5" stroke="#606060" stroke-width=".5" x="0" y="0" width="60" height="60"/>
  <use id="zoomplus" xlink:href="#zoomPlus" x="17" y="9" onmousedown="handleZoom(evt,'in')"/>
  <use id="zoomminus" xlink:href="#zoomMin" x="42" y="9" onmousedown="handleZoom(evt,'out')"/>
  <use id="reset" xlink:href="#resetDef" x="30" y="36" onmousedown="handleReset()"/>
   <use id="arrowup" xlink:href="#arrowUp" x="0" y="0" onmousedown="handlePan(0,-1)"/>
  <use id="arrowright" xlink:href="#arrowRight" x="0" y="0" onmousedown="handlePan(1,0)"/>
  <use id="arrowdown" xlink:href="#arrowDown" x="0" y="0" onmousedown="handlePan(0,1)"/>
  <use id="arrowleft" xlink:href="#arrowLeft" x="0" y="0" onmousedown="handlePan(-1,0)"/>
</g>
<svg viewBox="0 0 15 15" width="100%" height="30px" preserveAspectRatio="xMaxYMin meet">
 <g id="arrow_out" transform="scale(0.3 0.3)">
  <a xlink:href="classdivide__and__conquer_1_1strassens__multiplication_1_1_matrix_a87c2ed8f19bda2ad21ee4cbed32c394a_cgraph_org.svg" target="_base">
   <rect id="button" ry="5" rx="5" y="6" x="6" height="38" width="38"
        fill="#f2f5e9" fill-opacity="0.5" stroke="#606060" stroke-width="1.0"/>
   <path id="arrow"
     d="M 11.500037,31.436501 C 11.940474,20.09759 22.043105,11.32322 32.158766,21.979434 L 37.068811,17.246167 C 37.068811,17.246167 37.088388,32 37.088388,32 L 22.160133,31.978069 C 22.160133,31.978069 26.997745,27.140456 26.997745,27.140456 C 18.528582,18.264221 13.291696,25.230495 11.500037,31.436501 z"
     style="fill:#404040;"/>
  </a>
 </g>
</svg>

<style type='text/css'>
<![CDATA[
[data-mouse-over-selected='false'] { opacity: 0.7; }
[data-mouse-over-selected='true']  { opacity: 1.0; }
]]>
</style>
<script type="application/ecmascript"><![CDATA[
document.addEventListener('DOMContentLoaded', (event) => {
  highlightEdges();
  highlightAdjacentNodes();
});
]]></script>
</svg>
