<?xml version="1.0" encoding="UTF-8" standalone="no"?>
<!DOCTYPE svg PUBLIC "-//W3C//DTD SVG 1.1//EN"
 "http://www.w3.org/Graphics/SVG/1.1/DTD/svg11.dtd">
<!-- Generated by graphviz version 12.1.1 (20240910.0053)
 -->
<!-- Title: MinHeap::MinHeapify Pages: 1 -->
<svg width="234pt" height="64pt"
 viewBox="0.00 0.00 234.25 64.25" xmlns="http://www.w3.org/2000/svg" xmlns:xlink="http://www.w3.org/1999/xlink">
<g id="graph0" class="graph" transform="scale(1 1) rotate(0) translate(4 60.25)">
<title>MinHeap::MinHeapify</title>
<!-- Node1 -->
<g id="Node000001" class="node">
<title>Node1</title>
<g id="a_Node000001"><a xlink:title=" ">
<polygon fill="#999999" stroke="#666666" points="110.5,-37.25 0,-37.25 0,-18 110.5,-18 110.5,-37.25"/>
<text text-anchor="middle" x="55.25" y="-23.75" font-family="Helvetica,sans-Serif" font-size="10.00">MinHeap::MinHeapify</text>
</a>
</g>
</g>
<!-- Node1&#45;&gt;Node1 -->
<g id="edge2_Node000001_Node000001" class="edge">
<title>Node1&#45;&gt;Node1</title>
<g id="a_edge2_Node000001_Node000001"><a xlink:title=" ">
<path fill="none" stroke="#63b8ff" d="M34.72,-37.54C25.36,-46.15 32.2,-55.25 55.25,-55.25 67.86,-55.25 75.61,-52.53 78.52,-48.65"/>
<polygon fill="#63b8ff" stroke="#63b8ff" points="81.94,-47.88 76.14,-39.01 75.14,-49.56 81.94,-47.88"/>
</a>
</g>
</g>
<!-- Node2 -->
<g id="Node000002" class="node">
<title>Node2</title>
<g id="a_Node000002"><a xlink:href="class_min_heap.html#aa8c6c141e3de664819686aa637e1afca" target="_top" xlink:title=" ">
<polygon fill="white" stroke="#666666" points="223.62,-56.25 149.12,-56.25 149.12,-37 223.62,-37 223.62,-56.25"/>
<text text-anchor="middle" x="186.38" y="-42.75" font-family="Helvetica,sans-Serif" font-size="10.00">MinHeap::left</text>
</a>
</g>
</g>
<!-- Node1&#45;&gt;Node2 -->
<g id="edge1_Node000001_Node000002" class="edge">
<title>Node1&#45;&gt;Node2</title>
<g id="a_edge1_Node000001_Node000002"><a xlink:title=" ">
<path fill="none" stroke="#63b8ff" d="M110.64,-35.63C119.55,-36.94 128.73,-38.29 137.47,-39.58"/>
<polygon fill="#63b8ff" stroke="#63b8ff" points="136.75,-43.01 147.15,-41 137.77,-36.08 136.75,-43.01"/>
</a>
</g>
</g>
<!-- Node3 -->
<g id="Node000003" class="node">
<title>Node3</title>
<g id="a_Node000003"><a xlink:href="class_min_heap.html#ac760b85cf90265b8d674b942a43fb70e" target="_top" xlink:title=" ">
<polygon fill="white" stroke="#666666" points="226.25,-19.25 146.5,-19.25 146.5,0 226.25,0 226.25,-19.25"/>
<text text-anchor="middle" x="186.38" y="-5.75" font-family="Helvetica,sans-Serif" font-size="10.00">MinHeap::right</text>
</a>
</g>
</g>
<!-- Node1&#45;&gt;Node3 -->
<g id="edge3_Node000001_Node000003" class="edge">
<title>Node1&#45;&gt;Node3</title>
<g id="a_edge3_Node000001_Node000003"><a xlink:title=" ">
<path fill="none" stroke="#63b8ff" d="M110.64,-20.04C118.79,-18.91 127.16,-17.74 135.22,-16.62"/>
<polygon fill="#63b8ff" stroke="#63b8ff" points="135.42,-20.12 144.85,-15.27 134.46,-13.19 135.42,-20.12"/>
</a>
</g>
</g>
</g>
</svg>
