<?xml version="1.0" encoding="UTF-8" standalone="no"?>
<!DOCTYPE svg PUBLIC "-//W3C//DTD SVG 1.1//EN"
 "http://www.w3.org/Graphics/SVG/1.1/DTD/svg11.dtd">
<!-- Generated by graphviz version 12.1.1 (20240910.0053)
 -->
<!-- Title: machine_learning::neural_network::NeuralNetwork::get_XY_from_csv Pages: 1 -->
<svg width="458pt" height="174pt"
 viewBox="0.00 0.00 458.00 173.50" xmlns="http://www.w3.org/2000/svg" xmlns:xlink="http://www.w3.org/1999/xlink">

<svg id="main" version="1.1" xmlns="http://www.w3.org/2000/svg" xmlns:xlink="http://www.w3.org/1999/xlink" xml:space="preserve">

<style type="text/css"><![CDATA[
.node, .edge {opacity: 0.7;}
.node.selected, .edge.selected {opacity: 1;}
.edge:hover path { stroke: red; }
.edge:hover polygon { stroke: red; fill: red; }
]]></style>
<script type="application/ecmascript" xlink:href="svg.min.js"/>
<svg id="graph" class="graph">
<g id="graph0" class="graph" transform="scale(1 1) rotate(0) translate(4 169.5)">
<title>machine_learning::neural_network::NeuralNetwork::get_XY_from_csv</title>
<!-- Node1 -->
<g id="Node000001" class="node">
<title>Node1</title>
<g id="a_Node000001"><a xlink:title=" ">
<polygon fill="#999999" stroke="#666666" points="127,-100.12 0,-100.12 0,-58.38 127,-58.38 127,-100.12"/>
<text text-anchor="start" x="8" y="-86.62" font-family="Helvetica,sans-Serif" font-size="10.00">machine_learning::neural</text>
<text text-anchor="start" x="8" y="-75.38" font-family="Helvetica,sans-Serif" font-size="10.00">_network::NeuralNetwork</text>
<text text-anchor="middle" x="63.5" y="-64.12" font-family="Helvetica,sans-Serif" font-size="10.00">::get_XY_from_csv</text>
</a>
</g>
</g>
<!-- Node2 -->
<g id="Node000002" class="node">
<title>Node2</title>
<g id="a_Node000002"><a xlink:href="namespacemachine__learning.html#a496302e3371aa7b478cb7d5917904bdd" target="_top" xlink:title=" ">
<polygon fill="white" stroke="#666666" points="293.75,-165.5 172,-165.5 172,-135 293.75,-135 293.75,-165.5"/>
<text text-anchor="start" x="180" y="-152" font-family="Helvetica,sans-Serif" font-size="10.00">machine_learning::insert</text>
<text text-anchor="middle" x="232.88" y="-140.75" font-family="Helvetica,sans-Serif" font-size="10.00">_element</text>
</a>
</g>
</g>
<!-- Node1&#45;&gt;Node2 -->
<g id="edge1_Node000001_Node000002" class="edge">
<title>Node1&#45;&gt;Node2</title>
<g id="a_edge1_Node000001_Node000002"><a xlink:title=" ">
<path fill="none" stroke="#63b8ff" d="M107.77,-100.47C124.83,-108.57 144.69,-117.67 163,-125.25 167.3,-127.03 171.77,-128.81 176.29,-130.56"/>
<polygon fill="#63b8ff" stroke="#63b8ff" points="174.82,-133.74 185.41,-134.01 177.3,-127.2 174.82,-133.74"/>
</a>
</g>
</g>
<!-- Node3 -->
<g id="Node000003" class="node">
<title>Node3</title>
<g id="a_Node000003"><a xlink:href="namespacemachine__learning.html#ac332d152078e96311e43ac5e7183ea26" target="_top" xlink:title=" ">
<polygon fill="white" stroke="#666666" points="299,-116.5 166.75,-116.5 166.75,-86 299,-86 299,-116.5"/>
<text text-anchor="start" x="174.75" y="-103" font-family="Helvetica,sans-Serif" font-size="10.00">machine_learning::minmax</text>
<text text-anchor="middle" x="232.88" y="-91.75" font-family="Helvetica,sans-Serif" font-size="10.00">_scaler</text>
</a>
</g>
</g>
<!-- Node1&#45;&gt;Node3 -->
<g id="edge2_Node000001_Node000003" class="edge">
<title>Node1&#45;&gt;Node3</title>
<g id="a_edge2_Node000001_Node000003"><a xlink:title=" ">
<path fill="none" stroke="#63b8ff" d="M127.3,-87.5C136.4,-88.7 145.85,-89.94 155.19,-91.17"/>
<polygon fill="#63b8ff" stroke="#63b8ff" points="154.62,-94.62 164.99,-92.46 155.53,-87.68 154.62,-94.62"/>
</a>
</g>
</g>
<!-- Node5 -->
<g id="Node000005" class="node">
<title>Node5</title>
<g id="a_Node000005"><a xlink:href="namespacemachine__learning.html#ae10178b082f0205c326550877d998e5d" target="_top" xlink:title=" ">
<polygon fill="white" stroke="#666666" points="302.75,-67.88 163,-67.88 163,-48.62 302.75,-48.62 302.75,-67.88"/>
<text text-anchor="middle" x="232.88" y="-54.38" font-family="Helvetica,sans-Serif" font-size="10.00">machine_learning::pop_back</text>
</a>
</g>
</g>
<!-- Node1&#45;&gt;Node5 -->
<g id="edge4_Node000001_Node000005" class="edge">
<title>Node1&#45;&gt;Node5</title>
<g id="a_edge4_Node000001_Node000005"><a xlink:title=" ">
<path fill="none" stroke="#63b8ff" d="M127.3,-71.37C135.12,-70.39 143.2,-69.38 151.24,-68.37"/>
<polygon fill="#63b8ff" stroke="#63b8ff" points="151.56,-71.85 161.05,-67.14 150.69,-64.91 151.56,-71.85"/>
</a>
</g>
</g>
<!-- Node6 -->
<g id="Node000006" class="node">
<title>Node6</title>
<g id="a_Node000006"><a xlink:href="namespacemachine__learning.html#a912cf68863063a38d6e63545be5eb093" target="_top" xlink:title=" ">
<polygon fill="white" stroke="#666666" points="289.62,-30.5 176.12,-30.5 176.12,0 289.62,0 289.62,-30.5"/>
<text text-anchor="start" x="184.12" y="-17" font-family="Helvetica,sans-Serif" font-size="10.00">machine_learning::pop</text>
<text text-anchor="middle" x="232.88" y="-5.75" font-family="Helvetica,sans-Serif" font-size="10.00">_front</text>
</a>
</g>
</g>
<!-- Node1&#45;&gt;Node6 -->
<g id="edge5_Node000001_Node000006" class="edge">
<title>Node1&#45;&gt;Node6</title>
<g id="a_edge5_Node000001_Node000006"><a xlink:title=" ">
<path fill="none" stroke="#63b8ff" d="M115.68,-57.89C130.85,-51.72 147.54,-45.08 163,-39.25 166.9,-37.78 170.94,-36.29 175.02,-34.81"/>
<polygon fill="#63b8ff" stroke="#63b8ff" points="176.16,-38.12 184.39,-31.45 173.8,-31.53 176.16,-38.12"/>
</a>
</g>
</g>
<!-- Node4 -->
<g id="Node000004" class="node">
<title>Node4</title>
<g id="a_Node000004"><a xlink:href="namespacemachine__learning.html#aa4bbf61e65f8cd297255fa94b983d078" target="_top" xlink:title=" ">
<polygon fill="white" stroke="#666666" points="450,-116.5 338.75,-116.5 338.75,-86 450,-86 450,-116.5"/>
<text text-anchor="start" x="346.75" y="-103" font-family="Helvetica,sans-Serif" font-size="10.00">machine_learning::get</text>
<text text-anchor="middle" x="394.38" y="-91.75" font-family="Helvetica,sans-Serif" font-size="10.00">_shape</text>
</a>
</g>
</g>
<!-- Node3&#45;&gt;Node4 -->
<g id="edge3_Node000003_Node000004" class="edge">
<title>Node3&#45;&gt;Node4</title>
<g id="a_edge3_Node000003_Node000004"><a xlink:title=" ">
<path fill="none" stroke="#63b8ff" d="M299.21,-101.25C308.34,-101.25 317.74,-101.25 326.89,-101.25"/>
<polygon fill="#63b8ff" stroke="#63b8ff" points="326.81,-104.75 336.81,-101.25 326.81,-97.75 326.81,-104.75"/>
</a>
</g>
</g>
</g>
</svg>
</svg>

<style type='text/css'>
<![CDATA[
[data-mouse-over-selected='false'] { opacity: 0.7; }
[data-mouse-over-selected='true']  { opacity: 1.0; }
]]>
</style>
<script type="application/ecmascript"><![CDATA[
document.addEventListener('DOMContentLoaded', (event) => {
  highlightEdges();
  highlightAdjacentNodes();
});
]]></script>
</svg>
