<?xml version="1.0" encoding="UTF-8" standalone="no"?>
<!DOCTYPE svg PUBLIC "-//W3C//DTD SVG 1.1//EN"
 "http://www.w3.org/Graphics/SVG/1.1/DTD/svg11.dtd">
<!-- Generated by graphviz version 12.1.1 (20240910.0053)
 -->
<!-- Title: machine_learning::neural_network::layers::DenseLayer::DenseLayer Pages: 1 -->
<svg width="321pt" height="88pt"
 viewBox="0.00 0.00 320.50 87.50" xmlns="http://www.w3.org/2000/svg" xmlns:xlink="http://www.w3.org/1999/xlink">
<g id="graph0" class="graph" transform="scale(1 1) rotate(0) translate(4 83.5)">
<title>machine_learning::neural_network::layers::DenseLayer::DenseLayer</title>
<!-- Node1 -->
<g id="Node000001" class="node">
<title>Node1</title>
<g id="a_Node000001"><a xlink:title=" ">
<polygon fill="#999999" stroke="#666666" points="146.5,-60.12 0,-60.12 0,-18.38 146.5,-18.38 146.5,-60.12"/>
<text text-anchor="start" x="8" y="-46.62" font-family="Helvetica,sans-Serif" font-size="10.00">machine_learning::neural</text>
<text text-anchor="start" x="8" y="-35.38" font-family="Helvetica,sans-Serif" font-size="10.00">_network::layers::DenseLayer</text>
<text text-anchor="middle" x="73.25" y="-24.12" font-family="Helvetica,sans-Serif" font-size="10.00">::DenseLayer</text>
</a>
</g>
</g>
<!-- Node2 -->
<g id="Node000002" class="node">
<title>Node2</title>
<g id="a_Node000002"><a xlink:href="namespacemachine__learning.html#abee7b35403af3612222d3b7a53074905" target="_top" xlink:title=" ">
<polygon fill="white" stroke="#666666" points="312.5,-79.5 182.5,-79.5 182.5,-49 312.5,-49 312.5,-79.5"/>
<text text-anchor="start" x="190.5" y="-66" font-family="Helvetica,sans-Serif" font-size="10.00">machine_learning::uniform</text>
<text text-anchor="middle" x="247.5" y="-54.75" font-family="Helvetica,sans-Serif" font-size="10.00">_random_initialization</text>
</a>
</g>
</g>
<!-- Node1&#45;&gt;Node2 -->
<g id="edge1_Node000001_Node000002" class="edge">
<title>Node1&#45;&gt;Node2</title>
<g id="a_edge1_Node000001_Node000002"><a xlink:title=" ">
<path fill="none" stroke="#63b8ff" d="M146.8,-49.78C154.8,-50.94 162.96,-52.12 170.99,-53.29"/>
<polygon fill="#63b8ff" stroke="#63b8ff" points="170.34,-56.73 180.74,-54.71 171.35,-49.81 170.34,-56.73"/>
</a>
</g>
</g>
<!-- Node3 -->
<g id="Node000003" class="node">
<title>Node3</title>
<g id="a_Node000003"><a xlink:href="namespacemachine__learning.html#a8dd3f1ffbc2f26a3c88da1b1f8b7e9c4" target="_top" xlink:title=" ">
<polygon fill="white" stroke="#666666" points="304.25,-30.5 190.75,-30.5 190.75,0 304.25,0 304.25,-30.5"/>
<text text-anchor="start" x="198.75" y="-17" font-family="Helvetica,sans-Serif" font-size="10.00">machine_learning::unit</text>
<text text-anchor="middle" x="247.5" y="-5.75" font-family="Helvetica,sans-Serif" font-size="10.00">_matrix_initialization</text>
</a>
</g>
</g>
<!-- Node1&#45;&gt;Node3 -->
<g id="edge2_Node000001_Node000003" class="edge">
<title>Node1&#45;&gt;Node3</title>
<g id="a_edge2_Node000001_Node000003"><a xlink:title=" ">
<path fill="none" stroke="#63b8ff" d="M146.8,-29.14C157.47,-27.65 168.42,-26.13 178.98,-24.66"/>
<polygon fill="#63b8ff" stroke="#63b8ff" points="179.34,-28.14 188.76,-23.3 178.37,-21.21 179.34,-28.14"/>
</a>
</g>
</g>
</g>
</svg>
