<?xml version="1.0" encoding="UTF-8" standalone="no"?>
<!DOCTYPE svg PUBLIC "-//W3C//DTD SVG 1.1//EN"
 "http://www.w3.org/Graphics/SVG/1.1/DTD/svg11.dtd">
<!-- Generated by graphviz version 12.1.1 (20240910.0053)
 -->
<!-- Title: dsu::UnionSet Pages: 1 -->
<svg width="298pt" height="64pt"
 viewBox="0.00 0.00 297.50 64.25" xmlns="http://www.w3.org/2000/svg" xmlns:xlink="http://www.w3.org/1999/xlink">
<g id="graph0" class="graph" transform="scale(1 1) rotate(0) translate(4 60.25)">
<title>dsu::UnionSet</title>
<!-- Node1 -->
<g id="Node000001" class="node">
<title>Node1</title>
<g id="a_Node000001"><a xlink:title="Method that combines two disjoint sets to which i and j belongs to and make a single set having a com...">
<polygon fill="#999999" stroke="#666666" points="78.25,-38.25 0,-38.25 0,-19 78.25,-19 78.25,-38.25"/>
<text text-anchor="middle" x="39.12" y="-24.75" font-family="Helvetica,sans-Serif" font-size="10.00">dsu::UnionSet</text>
</a>
</g>
</g>
<!-- Node2 -->
<g id="Node000002" class="node">
<title>Node2</title>
<g id="a_Node000002"><a xlink:href="classdsu.html#a16851f78fe390fc1430905c83d6a2f1c" target="_top" xlink:title="Method to find the representative of the set to which i belongs to, T(n) = O(1)">
<polygon fill="white" stroke="#666666" points="289.5,-38.25 221,-38.25 221,-19 289.5,-19 289.5,-38.25"/>
<text text-anchor="middle" x="255.25" y="-24.75" font-family="Helvetica,sans-Serif" font-size="10.00">dsu::findSet</text>
</a>
</g>
</g>
<!-- Node1&#45;&gt;Node2 -->
<g id="edge1_Node000001_Node000002" class="edge">
<title>Node1&#45;&gt;Node2</title>
<g id="a_edge1_Node000001_Node000002"><a xlink:title=" ">
<path fill="none" stroke="#63b8ff" d="M78.41,-28.62C115.04,-28.62 170.29,-28.62 209.06,-28.62"/>
<polygon fill="#63b8ff" stroke="#63b8ff" points="209.01,-32.13 219.01,-28.63 209.01,-25.13 209.01,-32.13"/>
</a>
</g>
</g>
<!-- Node3 -->
<g id="Node000003" class="node">
<title>Node3</title>
<g id="a_Node000003"><a xlink:href="classdsu.html#a64d25c5986742f7c234ed449b2ff7303" target="_top" xlink:title="A utility function which check whether i and j belongs to same set or not.">
<polygon fill="white" stroke="#666666" points="185,-19.25 114.25,-19.25 114.25,0 185,0 185,-19.25"/>
<text text-anchor="middle" x="149.62" y="-5.75" font-family="Helvetica,sans-Serif" font-size="10.00">dsu::isSame</text>
</a>
</g>
</g>
<!-- Node1&#45;&gt;Node3 -->
<g id="edge3_Node000001_Node000003" class="edge">
<title>Node1&#45;&gt;Node3</title>
<g id="a_edge3_Node000001_Node000003"><a xlink:title=" ">
<path fill="none" stroke="#63b8ff" d="M78.68,-21.87C86.47,-20.51 94.72,-19.06 102.73,-17.66"/>
<polygon fill="#63b8ff" stroke="#63b8ff" points="103.07,-21.16 112.31,-15.98 101.86,-14.26 103.07,-21.16"/>
</a>
</g>
</g>
<!-- Node2&#45;&gt;Node2 -->
<g id="edge2_Node000002_Node000002" class="edge">
<title>Node2&#45;&gt;Node2</title>
<g id="a_edge2_Node000002_Node000002"><a xlink:title=" ">
<path fill="none" stroke="#63b8ff" d="M238.71,-38.54C231.17,-47.15 236.68,-56.25 255.25,-56.25 265.4,-56.25 271.65,-53.53 274,-49.65"/>
<polygon fill="#63b8ff" stroke="#63b8ff" points="277.47,-49.15 272.08,-40.02 270.6,-50.51 277.47,-49.15"/>
</a>
</g>
</g>
<!-- Node3&#45;&gt;Node2 -->
<g id="edge4_Node000003_Node000002" class="edge">
<title>Node3&#45;&gt;Node2</title>
<g id="a_edge4_Node000003_Node000002"><a xlink:title=" ">
<path fill="none" stroke="#63b8ff" d="M185.42,-16C193.17,-17.43 201.5,-18.95 209.58,-20.44"/>
<polygon fill="#63b8ff" stroke="#63b8ff" points="208.82,-23.85 219.29,-22.21 210.08,-16.97 208.82,-23.85"/>
</a>
</g>
</g>
</g>
</svg>
