<?xml version="1.0" encoding="UTF-8" standalone="no"?>
<!DOCTYPE svg PUBLIC "-//W3C//DTD SVG 1.1//EN"
 "http://www.w3.org/Graphics/SVG/1.1/DTD/svg11.dtd">
<!-- Generated by graphviz version 12.1.1 (20240910.0053)
 -->
<!-- Title: divide_and_conquer::strassens_multiplication::Matrix::operator+ Pages: 1 -->
<svg width="461pt" height="75pt"
 viewBox="0.00 0.00 461.00 74.75" xmlns="http://www.w3.org/2000/svg" xmlns:xlink="http://www.w3.org/1999/xlink">
<g id="graph0" class="graph" transform="scale(1 1) rotate(0) translate(4 70.75)">
<title>divide_and_conquer::strassens_multiplication::Matrix::operator+</title>
<!-- Node1 -->
<g id="Node000001" class="node">
<title>Node1</title>
<g id="a_Node000001"><a xlink:title="Add two matrices and returns a new matrix.">
<polygon fill="#999999" stroke="#666666" points="127,-41.75 0,-41.75 0,0 127,0 127,-41.75"/>
<text text-anchor="start" x="8" y="-28.25" font-family="Helvetica,sans-Serif" font-size="10.00">divide_and_conquer</text>
<text text-anchor="start" x="8" y="-17" font-family="Helvetica,sans-Serif" font-size="10.00">::strassens_multiplication</text>
<text text-anchor="middle" x="63.5" y="-5.75" font-family="Helvetica,sans-Serif" font-size="10.00">::Matrix::operator+</text>
</a>
</g>
</g>
<!-- Node2 -->
<g id="Node000002" class="node">
<title>Node2</title>
<g id="a_Node000002"><a xlink:href="classdivide__and__conquer_1_1strassens__multiplication_1_1_matrix.html#a01f3a05cf5abdc5d63999ef1bf9f9256" target="_top" xlink:title="Constructor.">
<polygon fill="white" stroke="#666666" points="290,-66.75 163,-66.75 163,-25 290,-25 290,-66.75"/>
<text text-anchor="start" x="171" y="-53.25" font-family="Helvetica,sans-Serif" font-size="10.00">divide_and_conquer</text>
<text text-anchor="start" x="171" y="-42" font-family="Helvetica,sans-Serif" font-size="10.00">::strassens_multiplication</text>
<text text-anchor="middle" x="226.5" y="-30.75" font-family="Helvetica,sans-Serif" font-size="10.00">::Matrix::Matrix</text>
</a>
</g>
</g>
<!-- Node1&#45;&gt;Node2 -->
<g id="edge1_Node000001_Node000002" class="edge">
<title>Node1&#45;&gt;Node2</title>
<g id="a_edge1_Node000001_Node000002"><a xlink:title=" ">
<path fill="none" stroke="#63b8ff" d="M127.21,-30.61C135.13,-31.84 143.29,-33.11 151.37,-34.36"/>
<polygon fill="#63b8ff" stroke="#63b8ff" points="150.78,-37.82 161.2,-35.89 151.86,-30.9 150.78,-37.82"/>
</a>
</g>
</g>
<!-- Node3 -->
<g id="Node000003" class="node">
<title>Node3</title>
<g id="a_Node000003"><a xlink:href="classdivide__and__conquer_1_1strassens__multiplication_1_1_matrix.html#ae4e183ec8eab778cb243e4ae0b22a0f1" target="_top" xlink:title="Get the matrix shape.">
<polygon fill="white" stroke="#666666" points="453,-41.75 326,-41.75 326,0 453,0 453,-41.75"/>
<text text-anchor="start" x="334" y="-28.25" font-family="Helvetica,sans-Serif" font-size="10.00">divide_and_conquer</text>
<text text-anchor="start" x="334" y="-17" font-family="Helvetica,sans-Serif" font-size="10.00">::strassens_multiplication</text>
<text text-anchor="middle" x="389.5" y="-5.75" font-family="Helvetica,sans-Serif" font-size="10.00">::Matrix::size</text>
</a>
</g>
</g>
<!-- Node1&#45;&gt;Node3 -->
<g id="edge3_Node000001_Node000003" class="edge">
<title>Node1&#45;&gt;Node3</title>
<g id="a_edge3_Node000001_Node000003"><a xlink:title=" ">
<path fill="none" stroke="#63b8ff" d="M127.27,-17.21C139.14,-16.65 151.45,-16.17 163,-15.88 219.43,-14.44 233.57,-14.44 290,-15.88 297.85,-16.07 306.06,-16.36 314.23,-16.7"/>
<polygon fill="#63b8ff" stroke="#63b8ff" points="314.07,-20.2 324.21,-17.14 314.38,-13.2 314.07,-20.2"/>
</a>
</g>
</g>
<!-- Node2&#45;&gt;Node3 -->
<g id="edge2_Node000002_Node000003" class="edge">
<title>Node2&#45;&gt;Node3</title>
<g id="a_edge2_Node000002_Node000003"><a xlink:title=" ">
<path fill="none" stroke="#63b8ff" d="M290.21,-36.14C298.13,-34.91 306.29,-33.64 314.37,-32.39"/>
<polygon fill="#63b8ff" stroke="#63b8ff" points="314.86,-35.85 324.2,-30.86 313.78,-28.93 314.86,-35.85"/>
</a>
</g>
</g>
</g>
</svg>
