<?xml version="1.0" encoding="UTF-8" standalone="no"?>
<!DOCTYPE svg PUBLIC "-//W3C//DTD SVG 1.1//EN"
 "http://www.w3.org/Graphics/SVG/1.1/DTD/svg11.dtd">
<!-- Generated by graphviz version 12.1.1 (20240910.0053)
 -->
<!-- Title: machine_learning::neural_network::NeuralNetwork::evaluate Pages: 1 -->
<svg width="448pt" height="174pt"
 viewBox="0.00 0.00 448.25 173.88" xmlns="http://www.w3.org/2000/svg" xmlns:xlink="http://www.w3.org/1999/xlink">
<g id="graph0" class="graph" transform="scale(1 1) rotate(0) translate(4 169.88)">
<title>machine_learning::neural_network::NeuralNetwork::evaluate</title>
<!-- Node1 -->
<g id="Node000001" class="node">
<title>Node1</title>
<g id="a_Node000001"><a xlink:title=" ">
<polygon fill="#999999" stroke="#666666" points="127,-103.5 0,-103.5 0,-61.75 127,-61.75 127,-103.5"/>
<text text-anchor="start" x="8" y="-90" font-family="Helvetica,sans-Serif" font-size="10.00">machine_learning::neural</text>
<text text-anchor="start" x="8" y="-78.75" font-family="Helvetica,sans-Serif" font-size="10.00">_network::NeuralNetwork</text>
<text text-anchor="middle" x="63.5" y="-67.5" font-family="Helvetica,sans-Serif" font-size="10.00">::evaluate</text>
</a>
</g>
</g>
<!-- Node2 -->
<g id="Node000002" class="node">
<title>Node2</title>
<g id="a_Node000002"><a xlink:href="namespacemachine__learning.html#ad0bdc88e5f1be47c46c0f0c8ebf754bb" target="_top" xlink:title=" ">
<polygon fill="white" stroke="#666666" points="288.5,-165.88 167.5,-165.88 167.5,-135.38 288.5,-135.38 288.5,-165.88"/>
<text text-anchor="start" x="175.5" y="-152.38" font-family="Helvetica,sans-Serif" font-size="10.00">machine_learning::apply</text>
<text text-anchor="middle" x="228" y="-141.12" font-family="Helvetica,sans-Serif" font-size="10.00">_function</text>
</a>
</g>
</g>
<!-- Node1&#45;&gt;Node2 -->
<g id="edge1_Node000001_Node000002" class="edge">
<title>Node1&#45;&gt;Node2</title>
<g id="a_edge1_Node000001_Node000002"><a xlink:title=" ">
<path fill="none" stroke="#63b8ff" d="M110.35,-103.81C126.85,-111.24 145.67,-119.51 163,-126.62 166.4,-128.02 169.92,-129.43 173.47,-130.83"/>
<polygon fill="#63b8ff" stroke="#63b8ff" points="172.17,-134.08 182.76,-134.43 174.7,-127.55 172.17,-134.08"/>
</a>
</g>
</g>
<!-- Node3 -->
<g id="Node000003" class="node">
<title>Node3</title>
<g id="a_Node000003"><a xlink:href="namespacemachine__learning.html#a50480fccfb39de20ca47f1bf51ecb6ec" target="_top" xlink:title=" ">
<polygon fill="white" stroke="#666666" points="293,-117.25 163,-117.25 163,-98 293,-98 293,-117.25"/>
<text text-anchor="middle" x="228" y="-103.75" font-family="Helvetica,sans-Serif" font-size="10.00">machine_learning::argmax</text>
</a>
</g>
</g>
<!-- Node1&#45;&gt;Node3 -->
<g id="edge2_Node000001_Node000003" class="edge">
<title>Node1&#45;&gt;Node3</title>
<g id="a_edge2_Node000001_Node000003"><a xlink:title=" ">
<path fill="none" stroke="#63b8ff" d="M127.33,-92.29C135.22,-93.5 143.35,-94.76 151.42,-96"/>
<polygon fill="#63b8ff" stroke="#63b8ff" points="150.82,-99.45 161.23,-97.51 151.88,-92.53 150.82,-99.45"/>
</a>
</g>
</g>
<!-- Node5 -->
<g id="Node000005" class="node">
<title>Node5</title>
<g id="a_Node000005"><a xlink:href="classmachine__learning_1_1neural__network_1_1_neural_network.html#a3b9eac1824d365dce715fb17c33cb96f" target="_top" xlink:title=" ">
<polygon fill="white" stroke="#666666" points="291.5,-79.5 164.5,-79.5 164.5,-37.75 291.5,-37.75 291.5,-79.5"/>
<text text-anchor="start" x="172.5" y="-66" font-family="Helvetica,sans-Serif" font-size="10.00">machine_learning::neural</text>
<text text-anchor="start" x="172.5" y="-54.75" font-family="Helvetica,sans-Serif" font-size="10.00">_network::NeuralNetwork</text>
<text text-anchor="middle" x="228" y="-43.5" font-family="Helvetica,sans-Serif" font-size="10.00">::single_predict</text>
</a>
</g>
</g>
<!-- Node1&#45;&gt;Node5 -->
<g id="edge4_Node000001_Node000005" class="edge">
<title>Node1&#45;&gt;Node5</title>
<g id="a_edge4_Node000001_Node000005"><a xlink:title=" ">
<path fill="none" stroke="#63b8ff" d="M127.33,-73.35C135.71,-72.11 144.37,-70.83 152.92,-69.57"/>
<polygon fill="#63b8ff" stroke="#63b8ff" points="153.19,-73.06 162.58,-68.14 152.17,-66.14 153.19,-73.06"/>
</a>
</g>
</g>
<!-- Node6 -->
<g id="Node000006" class="node">
<title>Node6</title>
<g id="a_Node000006"><a xlink:href="namespacemachine__learning.html#a6f1c98c016ad34ff3d9f39372161bd35" target="_top" xlink:title=" ">
<polygon fill="white" stroke="#666666" points="286.25,-19.25 169.75,-19.25 169.75,0 286.25,0 286.25,-19.25"/>
<text text-anchor="middle" x="228" y="-5.75" font-family="Helvetica,sans-Serif" font-size="10.00">machine_learning::sum</text>
</a>
</g>
</g>
<!-- Node1&#45;&gt;Node6 -->
<g id="edge5_Node000001_Node000006" class="edge">
<title>Node1&#45;&gt;Node6</title>
<g id="a_edge5_Node000001_Node000006"><a xlink:title=" ">
<path fill="none" stroke="#63b8ff" d="M99.16,-61.25C117.64,-50.47 141.04,-37.78 163,-28.62 167.64,-26.69 172.54,-24.87 177.49,-23.17"/>
<polygon fill="#63b8ff" stroke="#63b8ff" points="178.42,-26.55 186.85,-20.14 176.26,-19.89 178.42,-26.55"/>
</a>
</g>
</g>
<!-- Node4 -->
<g id="Node000004" class="node">
<title>Node4</title>
<g id="a_Node000004"><a xlink:href="namespacemachine__learning.html#aa4bbf61e65f8cd297255fa94b983d078" target="_top" xlink:title=" ">
<polygon fill="white" stroke="#666666" points="440.25,-122.88 329,-122.88 329,-92.38 440.25,-92.38 440.25,-122.88"/>
<text text-anchor="start" x="337" y="-109.38" font-family="Helvetica,sans-Serif" font-size="10.00">machine_learning::get</text>
<text text-anchor="middle" x="384.62" y="-98.12" font-family="Helvetica,sans-Serif" font-size="10.00">_shape</text>
</a>
</g>
</g>
<!-- Node3&#45;&gt;Node4 -->
<g id="edge3_Node000003_Node000004" class="edge">
<title>Node3&#45;&gt;Node4</title>
<g id="a_edge3_Node000003_Node000004"><a xlink:title=" ">
<path fill="none" stroke="#63b8ff" d="M293.23,-107.62C301.15,-107.62 309.25,-107.62 317.2,-107.62"/>
<polygon fill="#63b8ff" stroke="#63b8ff" points="317.18,-111.13 327.18,-107.63 317.18,-104.13 317.18,-111.13"/>
</a>
</g>
</g>
</g>
</svg>
