<?xml version="1.0" encoding="UTF-8" standalone="no"?>
<!DOCTYPE svg PUBLIC "-//W3C//DTD SVG 1.1//EN"
 "http://www.w3.org/Graphics/SVG/1.1/DTD/svg11.dtd">
<!-- Generated by graphviz version 12.1.1 (20240910.0053)
 -->
<!-- Title: machine_learning::neural_network::NeuralNetwork::fit_from_csv Pages: 1 -->
<!--zoomable 556 -->

<svg id="main" version="1.1" xmlns="http://www.w3.org/2000/svg" xmlns:xlink="http://www.w3.org/1999/xlink" xml:space="preserve" onload="init(evt)">

<style type="text/css"><![CDATA[
.node, .edge {opacity: 0.7;}
.node.selected, .edge.selected {opacity: 1;}
.edge:hover path { stroke: red; }
.edge:hover polygon { stroke: red; fill: red; }
]]></style>

<defs>
  <circle id="rim" cx="0" cy="0" r="7"/>
  <circle id="rim2" cx="0" cy="0" r="3.5"/>
  <g id="zoomPlus">
    <use xlink:href="#rim" fill="#404040"><set attributeName="fill" to="#808080" begin="zoomplus.mouseover" end="zoomplus.mouseout"/></use>
    <path d="M-4,0h8M0,-4v8" fill="none" stroke="white" stroke-width="1.5" pointer-events="none"/>
  </g>
  <g id="zoomMin">
    <use xlink:href="#rim" fill="#404040"><set attributeName="fill" to="#808080" begin="zoomminus.mouseover" end="zoomminus.mouseout"/></use>
    <path d="M-4,0h8" fill="none" stroke="white" stroke-width="1.5" pointer-events="none"/>
  </g>
  <g id="arrowUp" transform="translate(30 24)">
    <use xlink:href="#rim"/>
    <path pointer-events="none" fill="none" stroke="white" stroke-width="1.5" d="M0,-3.0v7 M-2.5,-0.5L0,-3.0L2.5,-0.5"/>
  </g>
  <g id="arrowRight" transform="rotate(90) translate(36 -43)">
    <use xlink:href="#rim"/>
    <path pointer-events="none" fill="none" stroke="white" stroke-width="1.5" d="M0,-3.0v7 M-2.5,-0.5L0,-3.0L2.5,-0.5"/>
  </g>
  <g id="arrowDown" transform="rotate(180) translate(-30 -48)">
    <use xlink:href="#rim"/>
    <path pointer-events="none" fill="none" stroke="white" stroke-width="1.5" d="M0,-3.0v7 M-2.5,-0.5L0,-3.0L2.5,-0.5"/>
  </g>
  <g id="arrowLeft" transform="rotate(270) translate(-36 17)">
    <use xlink:href="#rim"/>
    <path pointer-events="none" fill="none" stroke="white" stroke-width="1.5" d="M0,-3.0v7 M-2.5,-0.5L0,-3.0L2.5,-0.5"/>
  </g>
  <g id="resetDef">
    <use xlink:href="#rim2" fill="#404040"><set attributeName="fill" to="#808080" begin="reset.mouseover" end="reset.mouseout"/></use>
  </g>
</defs>
<script type="application/ecmascript">
var viewWidth = 636;
var viewHeight = 556;
var sectionId = 'dynsection-4';
</script>
<script type="application/ecmascript" xlink:href="svg.min.js"/>
<svg id="graph" class="graph">
<g id="viewport">
<title>machine_learning::neural_network::NeuralNetwork::fit_from_csv</title>
<!-- Node1 -->
<g id="Node000001" class="node">
<title>Node1</title>
<g id="a_Node000001"><a xlink:title=" ">
<polygon fill="#999999" stroke="#666666" points="127,-229.12 0,-229.12 0,-187.38 127,-187.38 127,-229.12"/>
<text text-anchor="start" x="8" y="-215.62" font-family="Helvetica,sans-Serif" font-size="10.00">machine_learning::neural</text>
<text text-anchor="start" x="8" y="-204.38" font-family="Helvetica,sans-Serif" font-size="10.00">_network::NeuralNetwork</text>
<text text-anchor="middle" x="63.5" y="-193.12" font-family="Helvetica,sans-Serif" font-size="10.00">::fit_from_csv</text>
</a>
</g>
</g>
<!-- Node2 -->
<g id="Node000002" class="node">
<title>Node2</title>
<g id="a_Node000002"><a xlink:href="classmachine__learning_1_1neural__network_1_1_neural_network.html#a2be1b52bb9f57486f9a436f35c9089c0" target="_top" xlink:title=" ">
<polygon fill="white" stroke="#666666" points="304.25,-352.5 163,-352.5 163,-322 304.25,-322 304.25,-352.5"/>
<text text-anchor="start" x="171" y="-339" font-family="Helvetica,sans-Serif" font-size="10.00">machine_learning::neural</text>
<text text-anchor="middle" x="233.62" y="-327.75" font-family="Helvetica,sans-Serif" font-size="10.00">_network::NeuralNetwork::fit</text>
</a>
</g>
</g>
<!-- Node1&#45;&gt;Node2 -->
<g id="edge1_Node000001_Node000002" class="edge">
<title>Node1&#45;&gt;Node2</title>
<g id="a_edge1_Node000001_Node000002"><a xlink:title=" ">
<path fill="none" stroke="#63b8ff" d="M92.26,-229.55C122.86,-253.03 171.87,-290.64 203.14,-314.63"/>
<polygon fill="#63b8ff" stroke="#63b8ff" points="200.97,-317.37 211.03,-320.68 205.23,-311.82 200.97,-317.37"/>
</a>
</g>
</g>
<!-- Node12 -->
<g id="Node000012" class="node">
<title>Node12</title>
<g id="a_Node000012"><a xlink:href="classmachine__learning_1_1neural__network_1_1_neural_network.html#a650c677fd6512665741ddd9b7983275d" target="_top" xlink:title=" ">
<polygon fill="white" stroke="#666666" points="297.12,-122.12 170.12,-122.12 170.12,-80.38 297.12,-80.38 297.12,-122.12"/>
<text text-anchor="start" x="178.12" y="-108.62" font-family="Helvetica,sans-Serif" font-size="10.00">machine_learning::neural</text>
<text text-anchor="start" x="178.12" y="-97.38" font-family="Helvetica,sans-Serif" font-size="10.00">_network::NeuralNetwork</text>
<text text-anchor="middle" x="233.62" y="-86.12" font-family="Helvetica,sans-Serif" font-size="10.00">::get_XY_from_csv</text>
</a>
</g>
</g>
<!-- Node1&#45;&gt;Node12 -->
<g id="edge15_Node000001_Node000012" class="edge">
<title>Node1&#45;&gt;Node12</title>
<g id="a_edge15_Node000001_Node000012"><a xlink:title=" ">
<path fill="none" stroke="#63b8ff" d="M97.72,-187.11C124.11,-170.31 161.22,-146.69 189.84,-128.48"/>
<polygon fill="#63b8ff" stroke="#63b8ff" points="191.36,-131.66 197.91,-123.34 187.6,-125.76 191.36,-131.66"/>
</a>
</g>
</g>
<!-- Node3 -->
<g id="Node000003" class="node">
<title>Node3</title>
<g id="a_Node000003"><a xlink:href="namespacemachine__learning.html#ad0bdc88e5f1be47c46c0f0c8ebf754bb" target="_top" xlink:title=" ">
<polygon fill="white" stroke="#666666" points="471,-547.5 350,-547.5 350,-517 471,-517 471,-547.5"/>
<text text-anchor="start" x="358" y="-534" font-family="Helvetica,sans-Serif" font-size="10.00">machine_learning::apply</text>
<text text-anchor="middle" x="410.5" y="-522.75" font-family="Helvetica,sans-Serif" font-size="10.00">_function</text>
</a>
</g>
</g>
<!-- Node2&#45;&gt;Node3 -->
<g id="edge2_Node000002_Node000003" class="edge">
<title>Node2&#45;&gt;Node3</title>
<g id="a_edge2_Node000002_Node000003"><a xlink:title=" ">
<path fill="none" stroke="#63b8ff" d="M240.13,-352.95C252.63,-386.38 286.33,-465.05 340.25,-508.25 341.37,-509.15 342.52,-510.01 343.7,-510.84"/>
<polygon fill="#63b8ff" stroke="#63b8ff" points="341.61,-513.67 351.98,-515.84 345.23,-507.67 341.61,-513.67"/>
</a>
</g>
</g>
<!-- Node4 -->
<g id="Node000004" class="node">
<title>Node4</title>
<g id="a_Node000004"><a xlink:href="namespacemachine__learning.html#a50480fccfb39de20ca47f1bf51ecb6ec" target="_top" xlink:title=" ">
<polygon fill="white" stroke="#666666" points="475.5,-498.88 345.5,-498.88 345.5,-479.62 475.5,-479.62 475.5,-498.88"/>
<text text-anchor="middle" x="410.5" y="-485.38" font-family="Helvetica,sans-Serif" font-size="10.00">machine_learning::argmax</text>
</a>
</g>
</g>
<!-- Node2&#45;&gt;Node4 -->
<g id="edge3_Node000002_Node000004" class="edge">
<title>Node2&#45;&gt;Node4</title>
<g id="a_edge3_Node000002_Node000004"><a xlink:title=" ">
<path fill="none" stroke="#63b8ff" d="M243.35,-352.58C259.27,-379.22 295.53,-434.18 340.25,-465.25 345.67,-469.02 351.74,-472.24 357.97,-474.99"/>
<polygon fill="#63b8ff" stroke="#63b8ff" points="356.53,-478.19 367.12,-478.62 359.12,-471.68 356.53,-478.19"/>
</a>
</g>
</g>
<!-- Node5 -->
<g id="Node000005" class="node">
<title>Node5</title>
<g id="a_Node000005"><a xlink:href="namespacemachine__learning.html#aa4bbf61e65f8cd297255fa94b983d078" target="_top" xlink:title=" ">
<polygon fill="white" stroke="#666666" points="628,-352.5 516.75,-352.5 516.75,-322 628,-322 628,-352.5"/>
<text text-anchor="start" x="524.75" y="-339" font-family="Helvetica,sans-Serif" font-size="10.00">machine_learning::get</text>
<text text-anchor="middle" x="572.38" y="-327.75" font-family="Helvetica,sans-Serif" font-size="10.00">_shape</text>
</a>
</g>
</g>
<!-- Node2&#45;&gt;Node5 -->
<g id="edge6_Node000002_Node000005" class="edge">
<title>Node2&#45;&gt;Node5</title>
<g id="a_edge6_Node000002_Node000005"><a xlink:title=" ">
<path fill="none" stroke="#63b8ff" d="M245.78,-352.82C263.03,-375.39 298.57,-416.26 340.25,-432.25 398.55,-454.61 423.34,-456.82 480.75,-432.25 513.79,-418.11 540.51,-385.35 556.16,-362.27"/>
<polygon fill="#63b8ff" stroke="#63b8ff" points="559.01,-364.31 561.54,-354.02 553.14,-360.49 559.01,-364.31"/>
</a>
</g>
</g>
<!-- Node6 -->
<g id="Node000006" class="node">
<title>Node6</title>
<g id="a_Node000006"><a xlink:href="namespacemachine__learning.html#af801bf30591ca6b2c38ff4fed0ded23f" target="_top" xlink:title=" ">
<polygon fill="white" stroke="#666666" points="471,-423.5 350,-423.5 350,-393 471,-393 471,-423.5"/>
<text text-anchor="start" x="358" y="-410" font-family="Helvetica,sans-Serif" font-size="10.00">machine_learning::equal</text>
<text text-anchor="middle" x="410.5" y="-398.75" font-family="Helvetica,sans-Serif" font-size="10.00">_shuffle</text>
</a>
</g>
</g>
<!-- Node2&#45;&gt;Node6 -->
<g id="edge5_Node000002_Node000006" class="edge">
<title>Node2&#45;&gt;Node6</title>
<g id="a_edge5_Node000002_Node000006"><a xlink:title=" ">
<path fill="none" stroke="#63b8ff" d="M269.12,-352.94C289.64,-362.11 316.28,-373.71 340.25,-383.25 344.66,-385 349.25,-386.77 353.87,-388.52"/>
<polygon fill="#63b8ff" stroke="#63b8ff" points="352.63,-391.79 363.22,-392 355.07,-385.23 352.63,-391.79"/>
</a>
</g>
</g>
<!-- Node7 -->
<g id="Node000007" class="node">
<title>Node7</title>
<g id="a_Node000007"><a xlink:href="namespacemachine__learning.html#acafa3e62b686aebdbad81c4f89913f43" target="_top" xlink:title=" ">
<polygon fill="white" stroke="#666666" points="480.75,-374.5 340.25,-374.5 340.25,-344 480.75,-344 480.75,-374.5"/>
<text text-anchor="start" x="348.25" y="-361" font-family="Helvetica,sans-Serif" font-size="10.00">machine_learning::hadamard</text>
<text text-anchor="middle" x="410.5" y="-349.75" font-family="Helvetica,sans-Serif" font-size="10.00">_product</text>
</a>
</g>
</g>
<!-- Node2&#45;&gt;Node7 -->
<g id="edge7_Node000002_Node000007" class="edge">
<title>Node2&#45;&gt;Node7</title>
<g id="a_edge7_Node000002_Node000007"><a xlink:title=" ">
<path fill="none" stroke="#63b8ff" d="M304.75,-346.07C312.63,-347.06 320.7,-348.08 328.7,-349.09"/>
<polygon fill="#63b8ff" stroke="#63b8ff" points="328.07,-352.53 338.43,-350.31 328.95,-345.59 328.07,-352.53"/>
</a>
</g>
</g>
<!-- Node8 -->
<g id="Node000008" class="node">
<title>Node8</title>
<g id="a_Node000008"><a xlink:href="namespacemachine__learning.html#a5342906d42b80fc6b6b3ad17bf00fcb9" target="_top" xlink:title=" ">
<polygon fill="white" stroke="#666666" points="476.25,-325.88 344.75,-325.88 344.75,-306.62 476.25,-306.62 476.25,-325.88"/>
<text text-anchor="middle" x="410.5" y="-312.38" font-family="Helvetica,sans-Serif" font-size="10.00">machine_learning::multiply</text>
</a>
</g>
</g>
<!-- Node2&#45;&gt;Node8 -->
<g id="edge9_Node000002_Node000008" class="edge">
<title>Node2&#45;&gt;Node8</title>
<g id="a_edge9_Node000002_Node000008"><a xlink:title=" ">
<path fill="none" stroke="#63b8ff" d="M304.75,-328.83C314.07,-327.71 323.66,-326.56 333.09,-325.43"/>
<polygon fill="#63b8ff" stroke="#63b8ff" points="333.45,-328.91 342.96,-324.24 332.62,-321.96 333.45,-328.91"/>
</a>
</g>
</g>
<!-- Node9 -->
<g id="Node000009" class="node">
<title>Node9</title>
<g id="a_Node000009"><a xlink:href="namespacemachine__learning.html#a6f1c98c016ad34ff3d9f39372161bd35" target="_top" xlink:title=" ">
<polygon fill="white" stroke="#666666" points="468.75,-288.88 352.25,-288.88 352.25,-269.62 468.75,-269.62 468.75,-288.88"/>
<text text-anchor="middle" x="410.5" y="-275.38" font-family="Helvetica,sans-Serif" font-size="10.00">machine_learning::sum</text>
</a>
</g>
</g>
<!-- Node2&#45;&gt;Node9 -->
<g id="edge11_Node000002_Node000009" class="edge">
<title>Node2&#45;&gt;Node9</title>
<g id="a_edge11_Node000002_Node000009"><a xlink:title=" ">
<path fill="none" stroke="#63b8ff" d="M272.9,-321.61C292.81,-313.78 317.64,-304.45 340.25,-297.25 345.66,-295.53 351.35,-293.85 357.04,-292.25"/>
<polygon fill="#63b8ff" stroke="#63b8ff" points="357.72,-295.69 366.45,-289.68 355.88,-288.93 357.72,-295.69"/>
</a>
</g>
</g>
<!-- Node10 -->
<g id="Node000010" class="node">
<title>Node10</title>
<g id="a_Node000010"><a xlink:href="namespacemachine__learning.html#a89fde571b38f9483576594f66572958a" target="_top" xlink:title=" ">
<polygon fill="white" stroke="#666666" points="480.75,-251.88 340.25,-251.88 340.25,-232.62 480.75,-232.62 480.75,-251.88"/>
<text text-anchor="middle" x="410.5" y="-238.38" font-family="Helvetica,sans-Serif" font-size="10.00">machine_learning::transpose</text>
</a>
</g>
</g>
<!-- Node2&#45;&gt;Node10 -->
<g id="edge12_Node000002_Node000010" class="edge">
<title>Node2&#45;&gt;Node10</title>
<g id="a_edge12_Node000002_Node000010"><a xlink:title=" ">
<path fill="none" stroke="#63b8ff" d="M251.63,-321.68C271.48,-304.29 306,-276.46 340.25,-260.25 343.51,-258.71 346.91,-257.29 350.4,-255.97"/>
<polygon fill="#63b8ff" stroke="#63b8ff" points="351.22,-259.39 359.56,-252.85 348.96,-252.76 351.22,-259.39"/>
</a>
</g>
</g>
<!-- Node11 -->
<g id="Node000011" class="node">
<title>Node11</title>
<g id="a_Node000011"><a xlink:href="namespacemachine__learning.html#ac1bdaa2a724b4ce6a6bb371a5dbe2e7e" target="_top" xlink:title=" ">
<polygon fill="white" stroke="#666666" points="474,-214.5 347,-214.5 347,-184 474,-184 474,-214.5"/>
<text text-anchor="start" x="355" y="-201" font-family="Helvetica,sans-Serif" font-size="10.00">machine_learning::zeroes</text>
<text text-anchor="middle" x="410.5" y="-189.75" font-family="Helvetica,sans-Serif" font-size="10.00">_initialization</text>
</a>
</g>
</g>
<!-- Node2&#45;&gt;Node11 -->
<g id="edge14_Node000002_Node000011" class="edge">
<title>Node2&#45;&gt;Node11</title>
<g id="a_edge14_Node000002_Node000011"><a xlink:title=" ">
<path fill="none" stroke="#63b8ff" d="M245.13,-321.71C262.3,-297.41 298.68,-250.4 340.25,-223.25 342.05,-222.08 343.91,-220.95 345.82,-219.88"/>
<polygon fill="#63b8ff" stroke="#63b8ff" points="346.98,-223.21 354.34,-215.59 343.83,-216.96 346.98,-223.21"/>
</a>
</g>
</g>
<!-- Node4&#45;&gt;Node5 -->
<g id="edge4_Node000004_Node000005" class="edge">
<title>Node4&#45;&gt;Node5</title>
<g id="a_edge4_Node000004_Node000005"><a xlink:title=" ">
<path fill="none" stroke="#63b8ff" d="M453.87,-479.22C463.29,-475.77 472.81,-471.21 480.75,-465.25 517.24,-437.85 544.79,-391.47 559.47,-362.7"/>
<polygon fill="#63b8ff" stroke="#63b8ff" points="562.49,-364.49 563.79,-353.97 556.22,-361.38 562.49,-364.49"/>
</a>
</g>
</g>
<!-- Node7&#45;&gt;Node5 -->
<g id="edge8_Node000007_Node000005" class="edge">
<title>Node7&#45;&gt;Node5</title>
<g id="a_edge8_Node000007_Node000005"><a xlink:title=" ">
<path fill="none" stroke="#63b8ff" d="M481.16,-349.66C489.07,-348.58 497.13,-347.47 505,-346.38"/>
<polygon fill="#63b8ff" stroke="#63b8ff" points="505.43,-349.86 514.86,-345.03 504.48,-342.92 505.43,-349.86"/>
</a>
</g>
</g>
<!-- Node8&#45;&gt;Node5 -->
<g id="edge10_Node000008_Node000005" class="edge">
<title>Node8&#45;&gt;Node5</title>
<g id="a_edge10_Node000008_Node000005"><a xlink:title=" ">
<path fill="none" stroke="#63b8ff" d="M476.53,-324.79C485.93,-326.03 495.62,-327.3 505.05,-328.54"/>
<polygon fill="#63b8ff" stroke="#63b8ff" points="504.51,-332 514.88,-329.83 505.42,-325.06 504.51,-332"/>
</a>
</g>
</g>
<!-- Node10&#45;&gt;Node5 -->
<g id="edge13_Node000010_Node000005" class="edge">
<title>Node10&#45;&gt;Node5</title>
<g id="a_edge13_Node000010_Node000005"><a xlink:title=" ">
<path fill="none" stroke="#63b8ff" d="M461.32,-252.29C468.03,-254.47 474.69,-257.1 480.75,-260.25 507.04,-273.91 532.34,-296.46 549.49,-313.63"/>
<polygon fill="#63b8ff" stroke="#63b8ff" points="546.68,-315.76 556.17,-320.48 551.69,-310.88 546.68,-315.76"/>
</a>
</g>
</g>
<!-- Node13 -->
<g id="Node000013" class="node">
<title>Node13</title>
<g id="a_Node000013"><a xlink:href="namespacemachine__learning.html#a496302e3371aa7b478cb7d5917904bdd" target="_top" xlink:title=" ">
<polygon fill="white" stroke="#666666" points="471.38,-165.5 349.62,-165.5 349.62,-135 471.38,-135 471.38,-165.5"/>
<text text-anchor="start" x="357.62" y="-152" font-family="Helvetica,sans-Serif" font-size="10.00">machine_learning::insert</text>
<text text-anchor="middle" x="410.5" y="-140.75" font-family="Helvetica,sans-Serif" font-size="10.00">_element</text>
</a>
</g>
</g>
<!-- Node12&#45;&gt;Node13 -->
<g id="edge16_Node000012_Node000013" class="edge">
<title>Node12&#45;&gt;Node13</title>
<g id="a_edge16_Node000012_Node000013"><a xlink:title=" ">
<path fill="none" stroke="#63b8ff" d="M297.26,-118.8C312.01,-122.93 327.79,-127.35 342.71,-131.53"/>
<polygon fill="#63b8ff" stroke="#63b8ff" points="341.37,-134.79 351.94,-134.12 343.25,-128.05 341.37,-134.79"/>
</a>
</g>
</g>
<!-- Node14 -->
<g id="Node000014" class="node">
<title>Node14</title>
<g id="a_Node000014"><a xlink:href="namespacemachine__learning.html#ac332d152078e96311e43ac5e7183ea26" target="_top" xlink:title=" ">
<polygon fill="white" stroke="#666666" points="476.62,-116.5 344.38,-116.5 344.38,-86 476.62,-86 476.62,-116.5"/>
<text text-anchor="start" x="352.38" y="-103" font-family="Helvetica,sans-Serif" font-size="10.00">machine_learning::minmax</text>
<text text-anchor="middle" x="410.5" y="-91.75" font-family="Helvetica,sans-Serif" font-size="10.00">_scaler</text>
</a>
</g>
</g>
<!-- Node12&#45;&gt;Node14 -->
<g id="edge17_Node000012_Node000014" class="edge">
<title>Node12&#45;&gt;Node14</title>
<g id="a_edge17_Node000012_Node000014"><a xlink:title=" ">
<path fill="none" stroke="#63b8ff" d="M297.26,-101.25C308.78,-101.25 320.91,-101.25 332.78,-101.25"/>
<polygon fill="#63b8ff" stroke="#63b8ff" points="332.54,-104.75 342.54,-101.25 332.54,-97.75 332.54,-104.75"/>
</a>
</g>
</g>
<!-- Node15 -->
<g id="Node000015" class="node">
<title>Node15</title>
<g id="a_Node000015"><a xlink:href="namespacemachine__learning.html#ae10178b082f0205c326550877d998e5d" target="_top" xlink:title=" ">
<polygon fill="white" stroke="#666666" points="480.38,-67.88 340.62,-67.88 340.62,-48.62 480.38,-48.62 480.38,-67.88"/>
<text text-anchor="middle" x="410.5" y="-54.38" font-family="Helvetica,sans-Serif" font-size="10.00">machine_learning::pop_back</text>
</a>
</g>
</g>
<!-- Node12&#45;&gt;Node15 -->
<g id="edge19_Node000012_Node000015" class="edge">
<title>Node12&#45;&gt;Node15</title>
<g id="a_edge19_Node000012_Node000015"><a xlink:title=" ">
<path fill="none" stroke="#63b8ff" d="M297.26,-85.85C317,-81 338.57,-75.69 357.48,-71.04"/>
<polygon fill="#63b8ff" stroke="#63b8ff" points="358.23,-74.46 367.1,-68.68 356.55,-67.66 358.23,-74.46"/>
</a>
</g>
</g>
<!-- Node16 -->
<g id="Node000016" class="node">
<title>Node16</title>
<g id="a_Node000016"><a xlink:href="namespacemachine__learning.html#a912cf68863063a38d6e63545be5eb093" target="_top" xlink:title=" ">
<polygon fill="white" stroke="#666666" points="467.25,-30.5 353.75,-30.5 353.75,0 467.25,0 467.25,-30.5"/>
<text text-anchor="start" x="361.75" y="-17" font-family="Helvetica,sans-Serif" font-size="10.00">machine_learning::pop</text>
<text text-anchor="middle" x="410.5" y="-5.75" font-family="Helvetica,sans-Serif" font-size="10.00">_front</text>
</a>
</g>
</g>
<!-- Node12&#45;&gt;Node16 -->
<g id="edge20_Node000012_Node000016" class="edge">
<title>Node12&#45;&gt;Node16</title>
<g id="a_edge20_Node000012_Node000016"><a xlink:title=" ">
<path fill="none" stroke="#63b8ff" d="M267.02,-79.98C287.48,-67.12 314.76,-51.01 340.25,-39.25 343.33,-37.83 346.52,-36.45 349.76,-35.11"/>
<polygon fill="#63b8ff" stroke="#63b8ff" points="350.79,-38.46 358.81,-31.54 348.22,-31.95 350.79,-38.46"/>
</a>
</g>
</g>
<!-- Node14&#45;&gt;Node5 -->
<g id="edge18_Node000014_Node000005" class="edge">
<title>Node14&#45;&gt;Node5</title>
<g id="a_edge18_Node000014_Node000005"><a xlink:title=" ">
<path fill="none" stroke="#63b8ff" d="M467.92,-116.93C472.57,-119.57 476.94,-122.66 480.75,-126.25 534.85,-177.24 558.22,-265.89 566.92,-310.29"/>
<polygon fill="#63b8ff" stroke="#63b8ff" points="563.47,-310.89 568.73,-320.09 570.36,-309.62 563.47,-310.89"/>
</a>
</g>
</g>
</g>
</svg>

<g id="navigator" transform="translate(0 0)" fill="#404254">
  <rect fill="#f2f5e9" fill-opacity="0.5" stroke="#606060" stroke-width=".5" x="0" y="0" width="60" height="60"/>
  <use id="zoomplus" xlink:href="#zoomPlus" x="17" y="9" onmousedown="handleZoom(evt,'in')"/>
  <use id="zoomminus" xlink:href="#zoomMin" x="42" y="9" onmousedown="handleZoom(evt,'out')"/>
  <use id="reset" xlink:href="#resetDef" x="30" y="36" onmousedown="handleReset()"/>
   <use id="arrowup" xlink:href="#arrowUp" x="0" y="0" onmousedown="handlePan(0,-1)"/>
  <use id="arrowright" xlink:href="#arrowRight" x="0" y="0" onmousedown="handlePan(1,0)"/>
  <use id="arrowdown" xlink:href="#arrowDown" x="0" y="0" onmousedown="handlePan(0,1)"/>
  <use id="arrowleft" xlink:href="#arrowLeft" x="0" y="0" onmousedown="handlePan(-1,0)"/>
</g>
<svg viewBox="0 0 15 15" width="100%" height="30px" preserveAspectRatio="xMaxYMin meet">
 <g id="arrow_out" transform="scale(0.3 0.3)">
  <a xlink:href="classmachine__learning_1_1neural__network_1_1_neural_network_a5172a6791b9bd24f4232bab8d6b81fff_cgraph_org.svg" target="_base">
   <rect id="button" ry="5" rx="5" y="6" x="6" height="38" width="38"
        fill="#f2f5e9" fill-opacity="0.5" stroke="#606060" stroke-width="1.0"/>
   <path id="arrow"
     d="M 11.500037,31.436501 C 11.940474,20.09759 22.043105,11.32322 32.158766,21.979434 L 37.068811,17.246167 C 37.068811,17.246167 37.088388,32 37.088388,32 L 22.160133,31.978069 C 22.160133,31.978069 26.997745,27.140456 26.997745,27.140456 C 18.528582,18.264221 13.291696,25.230495 11.500037,31.436501 z"
     style="fill:#404040;"/>
  </a>
 </g>
</svg>

<style type='text/css'>
<![CDATA[
[data-mouse-over-selected='false'] { opacity: 0.7; }
[data-mouse-over-selected='true']  { opacity: 1.0; }
]]>
</style>
<script type="application/ecmascript"><![CDATA[
document.addEventListener('DOMContentLoaded', (event) => {
  highlightEdges();
  highlightAdjacentNodes();
});
]]></script>
</svg>
