<?xml version="1.0" encoding="UTF-8" standalone="no"?>
<!DOCTYPE svg PUBLIC "-//W3C//DTD SVG 1.1//EN"
 "http://www.w3.org/Graphics/SVG/1.1/DTD/svg11.dtd">
<!-- Generated by graphviz version 12.1.1 (20240910.0053)
 -->
<!-- Title: MinHeap::extractMin Pages: 1 -->
<svg width="377pt" height="64pt"
 viewBox="0.00 0.00 377.00 64.25" xmlns="http://www.w3.org/2000/svg" xmlns:xlink="http://www.w3.org/1999/xlink">

<svg id="main" version="1.1" xmlns="http://www.w3.org/2000/svg" xmlns:xlink="http://www.w3.org/1999/xlink" xml:space="preserve">

<style type="text/css"><![CDATA[
.node, .edge {opacity: 0.7;}
.node.selected, .edge.selected {opacity: 1;}
.edge:hover path { stroke: red; }
.edge:hover polygon { stroke: red; fill: red; }
]]></style>
<script type="application/ecmascript" xlink:href="svg.min.js"/>
<svg id="graph" class="graph">
<g id="graph0" class="graph" transform="scale(1 1) rotate(0) translate(4 60.25)">
<title>MinHeap::extractMin</title>
<!-- Node1 -->
<g id="Node000001" class="node">
<title>Node1</title>
<g id="a_Node000001"><a xlink:title=" ">
<polygon fill="#999999" stroke="#666666" points="106.75,-37.25 0,-37.25 0,-18 106.75,-18 106.75,-37.25"/>
<text text-anchor="middle" x="53.38" y="-23.75" font-family="Helvetica,sans-Serif" font-size="10.00">MinHeap::extractMin</text>
</a>
</g>
</g>
<!-- Node2 -->
<g id="Node000002" class="node">
<title>Node2</title>
<g id="a_Node000002"><a xlink:href="class_min_heap.html#aaef438c1056492cb62c4a4d9035b5cad" target="_top" xlink:title=" ">
<polygon fill="white" stroke="#666666" points="253.25,-37.25 142.75,-37.25 142.75,-18 253.25,-18 253.25,-37.25"/>
<text text-anchor="middle" x="198" y="-23.75" font-family="Helvetica,sans-Serif" font-size="10.00">MinHeap::MinHeapify</text>
</a>
</g>
</g>
<!-- Node1&#45;&gt;Node2 -->
<g id="edge1_Node000001_Node000002" class="edge">
<title>Node1&#45;&gt;Node2</title>
<g id="a_edge1_Node000001_Node000002"><a xlink:title=" ">
<path fill="none" stroke="#63b8ff" d="M107.08,-27.62C114.95,-27.62 123.15,-27.62 131.26,-27.62"/>
<polygon fill="#63b8ff" stroke="#63b8ff" points="131.09,-31.13 141.09,-27.63 131.09,-24.13 131.09,-31.13"/>
</a>
</g>
</g>
<!-- Node2&#45;&gt;Node2 -->
<g id="edge3_Node000002_Node000002" class="edge">
<title>Node2&#45;&gt;Node2</title>
<g id="a_edge3_Node000002_Node000002"><a xlink:title=" ">
<path fill="none" stroke="#63b8ff" d="M177.47,-37.54C168.11,-46.15 174.95,-55.25 198,-55.25 210.61,-55.25 218.36,-52.53 221.27,-48.65"/>
<polygon fill="#63b8ff" stroke="#63b8ff" points="224.69,-47.88 218.89,-39.01 217.89,-49.56 224.69,-47.88"/>
</a>
</g>
</g>
<!-- Node3 -->
<g id="Node000003" class="node">
<title>Node3</title>
<g id="a_Node000003"><a xlink:href="class_min_heap.html#aa8c6c141e3de664819686aa637e1afca" target="_top" xlink:title=" ">
<polygon fill="white" stroke="#666666" points="366.38,-56.25 291.88,-56.25 291.88,-37 366.38,-37 366.38,-56.25"/>
<text text-anchor="middle" x="329.12" y="-42.75" font-family="Helvetica,sans-Serif" font-size="10.00">MinHeap::left</text>
</a>
</g>
</g>
<!-- Node2&#45;&gt;Node3 -->
<g id="edge2_Node000002_Node000003" class="edge">
<title>Node2&#45;&gt;Node3</title>
<g id="a_edge2_Node000002_Node000003"><a xlink:title=" ">
<path fill="none" stroke="#63b8ff" d="M253.39,-35.63C262.3,-36.94 271.48,-38.29 280.22,-39.58"/>
<polygon fill="#63b8ff" stroke="#63b8ff" points="279.5,-43.01 289.9,-41 280.52,-36.08 279.5,-43.01"/>
</a>
</g>
</g>
<!-- Node4 -->
<g id="Node000004" class="node">
<title>Node4</title>
<g id="a_Node000004"><a xlink:href="class_min_heap.html#ac760b85cf90265b8d674b942a43fb70e" target="_top" xlink:title=" ">
<polygon fill="white" stroke="#666666" points="369,-19.25 289.25,-19.25 289.25,0 369,0 369,-19.25"/>
<text text-anchor="middle" x="329.12" y="-5.75" font-family="Helvetica,sans-Serif" font-size="10.00">MinHeap::right</text>
</a>
</g>
</g>
<!-- Node2&#45;&gt;Node4 -->
<g id="edge4_Node000002_Node000004" class="edge">
<title>Node2&#45;&gt;Node4</title>
<g id="a_edge4_Node000002_Node000004"><a xlink:title=" ">
<path fill="none" stroke="#63b8ff" d="M253.39,-20.04C261.54,-18.91 269.91,-17.74 277.97,-16.62"/>
<polygon fill="#63b8ff" stroke="#63b8ff" points="278.17,-20.12 287.6,-15.27 277.21,-13.19 278.17,-20.12"/>
</a>
</g>
</g>
</g>
</svg>
</svg>

<style type='text/css'>
<![CDATA[
[data-mouse-over-selected='false'] { opacity: 0.7; }
[data-mouse-over-selected='true']  { opacity: 1.0; }
]]>
</style>
<script type="application/ecmascript"><![CDATA[
document.addEventListener('DOMContentLoaded', (event) => {
  highlightEdges();
  highlightAdjacentNodes();
});
]]></script>
</svg>
