<?xml version="1.0" encoding="UTF-8" standalone="no"?>
<!DOCTYPE svg PUBLIC "-//W3C//DTD SVG 1.1//EN"
 "http://www.w3.org/Graphics/SVG/1.1/DTD/svg11.dtd">
<!-- Generated by graphviz version 12.1.1 (20240910.0053)
 -->
<!-- Title: divide_and_conquer::strassens_multiplication::Matrix::strassens_multiplication Pages: 1 -->
<svg width="671pt" height="268pt"
 viewBox="0.00 0.00 670.50 267.75" xmlns="http://www.w3.org/2000/svg" xmlns:xlink="http://www.w3.org/1999/xlink">
<g id="graph0" class="graph" transform="scale(1 1) rotate(0) translate(4 263.75)">
<title>divide_and_conquer::strassens_multiplication::Matrix::strassens_multiplication</title>
<!-- Node1 -->
<g id="Node000001" class="node">
<title>Node1</title>
<g id="a_Node000001"><a xlink:title="Strassens method of multiplying two matrices References: https://en.wikipedia.org/wiki/Strassen_algor...">
<polygon fill="#999999" stroke="#666666" points="160,-139.75 0,-139.75 0,-98 160,-98 160,-139.75"/>
<text text-anchor="start" x="8" y="-126.25" font-family="Helvetica,sans-Serif" font-size="10.00">divide_and_conquer</text>
<text text-anchor="start" x="8" y="-115" font-family="Helvetica,sans-Serif" font-size="10.00">::strassens_multiplication</text>
<text text-anchor="middle" x="80" y="-103.75" font-family="Helvetica,sans-Serif" font-size="10.00">::Matrix::strassens_multiplication</text>
</a>
</g>
</g>
<!-- Node1&#45;&gt;Node1 -->
<g id="edge8_Node000001_Node000001" class="edge">
<title>Node1&#45;&gt;Node1</title>
<g id="a_edge8_Node000001_Node000001"><a xlink:title=" ">
<path fill="none" stroke="#63b8ff" d="M45.62,-140.07C42.35,-149.55 53.81,-157.75 80,-157.75 95.14,-157.75 105.36,-155.01 110.65,-150.86"/>
<polygon fill="#63b8ff" stroke="#63b8ff" points="113.93,-152.09 113.88,-141.5 107.31,-149.81 113.93,-152.09"/>
</a>
</g>
</g>
<!-- Node2 -->
<g id="Node000002" class="node">
<title>Node2</title>
<g id="a_Node000002"><a xlink:href="classdivide__and__conquer_1_1strassens__multiplication_1_1_matrix.html#ab6534125643a02c114bd4cddba9bc17f" target="_top" xlink:title="Horizontally stack the matrix (one after the other)">
<polygon fill="white" stroke="#666666" points="329.75,-259.75 202.75,-259.75 202.75,-218 329.75,-218 329.75,-259.75"/>
<text text-anchor="start" x="210.75" y="-246.25" font-family="Helvetica,sans-Serif" font-size="10.00">divide_and_conquer</text>
<text text-anchor="start" x="210.75" y="-235" font-family="Helvetica,sans-Serif" font-size="10.00">::strassens_multiplication</text>
<text text-anchor="middle" x="266.25" y="-223.75" font-family="Helvetica,sans-Serif" font-size="10.00">::Matrix::h_stack</text>
</a>
</g>
</g>
<!-- Node1&#45;&gt;Node2 -->
<g id="edge1_Node000001_Node000002" class="edge">
<title>Node1&#45;&gt;Node2</title>
<g id="a_edge1_Node000001_Node000002"><a xlink:title=" ">
<path fill="none" stroke="#63b8ff" d="M104.37,-140.09C126.74,-159.66 162.01,-188.66 196,-208.88 198.02,-210.08 200.1,-211.26 202.22,-212.42"/>
<polygon fill="#63b8ff" stroke="#63b8ff" points="200.53,-215.48 211.02,-216.96 203.74,-209.26 200.53,-215.48"/>
</a>
</g>
</g>
<!-- Node3 -->
<g id="Node000003" class="node">
<title>Node3</title>
<g id="a_Node000003"><a xlink:href="classdivide__and__conquer_1_1strassens__multiplication_1_1_matrix.html#a5d8eb669b37a27224376b08515b4ee50" target="_top" xlink:title="Naive multiplication performed on this.">
<polygon fill="white" stroke="#666666" points="336.5,-199.75 196,-199.75 196,-158 336.5,-158 336.5,-199.75"/>
<text text-anchor="start" x="204" y="-186.25" font-family="Helvetica,sans-Serif" font-size="10.00">divide_and_conquer</text>
<text text-anchor="start" x="204" y="-175" font-family="Helvetica,sans-Serif" font-size="10.00">::strassens_multiplication</text>
<text text-anchor="middle" x="266.25" y="-163.75" font-family="Helvetica,sans-Serif" font-size="10.00">::Matrix::naive_multiplication</text>
</a>
</g>
</g>
<!-- Node1&#45;&gt;Node3 -->
<g id="edge2_Node000001_Node000003" class="edge">
<title>Node1&#45;&gt;Node3</title>
<g id="a_edge2_Node000001_Node000003"><a xlink:title=" ">
<path fill="none" stroke="#63b8ff" d="M146.48,-140.2C160.24,-144.68 174.88,-149.45 189,-154.04"/>
<polygon fill="#63b8ff" stroke="#63b8ff" points="187.64,-157.28 198.23,-157.05 189.81,-150.63 187.64,-157.28"/>
</a>
</g>
</g>
<!-- Node5 -->
<g id="Node000005" class="node">
<title>Node5</title>
<g id="a_Node000005"><a xlink:href="classdivide__and__conquer_1_1strassens__multiplication_1_1_matrix.html#ae4e183ec8eab778cb243e4ae0b22a0f1" target="_top" xlink:title="Get the matrix shape.">
<polygon fill="white" stroke="#666666" points="662.5,-90.75 535.5,-90.75 535.5,-49 662.5,-49 662.5,-90.75"/>
<text text-anchor="start" x="543.5" y="-77.25" font-family="Helvetica,sans-Serif" font-size="10.00">divide_and_conquer</text>
<text text-anchor="start" x="543.5" y="-66" font-family="Helvetica,sans-Serif" font-size="10.00">::strassens_multiplication</text>
<text text-anchor="middle" x="599" y="-54.75" font-family="Helvetica,sans-Serif" font-size="10.00">::Matrix::size</text>
</a>
</g>
</g>
<!-- Node1&#45;&gt;Node5 -->
<g id="edge5_Node000001_Node000005" class="edge">
<title>Node1&#45;&gt;Node5</title>
<g id="a_edge5_Node000001_Node000005"><a xlink:title=" ">
<path fill="none" stroke="#63b8ff" d="M153.53,-97.52C167.51,-94.1 182.13,-90.99 196,-88.88 309.63,-71.56 443.23,-68.65 524.21,-68.79"/>
<polygon fill="#63b8ff" stroke="#63b8ff" points="523.75,-72.28 533.76,-68.82 523.78,-65.28 523.75,-72.28"/>
</a>
</g>
</g>
<!-- Node6 -->
<g id="Node000006" class="node">
<title>Node6</title>
<g id="a_Node000006"><a xlink:href="classdivide__and__conquer_1_1strassens__multiplication_1_1_matrix.html#a1fcb7db9bdeabd874712ec4f00483d17" target="_top" xlink:title="Creates a new matrix and returns a part of it.">
<polygon fill="white" stroke="#666666" points="329.75,-139.75 202.75,-139.75 202.75,-98 329.75,-98 329.75,-139.75"/>
<text text-anchor="start" x="210.75" y="-126.25" font-family="Helvetica,sans-Serif" font-size="10.00">divide_and_conquer</text>
<text text-anchor="start" x="210.75" y="-115" font-family="Helvetica,sans-Serif" font-size="10.00">::strassens_multiplication</text>
<text text-anchor="middle" x="266.25" y="-103.75" font-family="Helvetica,sans-Serif" font-size="10.00">::Matrix::slice</text>
</a>
</g>
</g>
<!-- Node1&#45;&gt;Node6 -->
<g id="edge6_Node000001_Node000006" class="edge">
<title>Node1&#45;&gt;Node6</title>
<g id="a_edge6_Node000001_Node000006"><a xlink:title=" ">
<path fill="none" stroke="#63b8ff" d="M160.48,-118.88C170.67,-118.88 181.07,-118.88 191.17,-118.88"/>
<polygon fill="#63b8ff" stroke="#63b8ff" points="190.9,-122.38 200.9,-118.88 190.9,-115.38 190.9,-122.38"/>
</a>
</g>
</g>
<!-- Node7 -->
<g id="Node000007" class="node">
<title>Node7</title>
<g id="a_Node000007"><a xlink:href="classdivide__and__conquer_1_1strassens__multiplication_1_1_matrix.html#af12ceffdc07cc87eca8a4a8ac87d60fe" target="_top" xlink:title="Horizontally stack the matrix (current matrix above the other)">
<polygon fill="white" stroke="#666666" points="499.5,-41.75 372.5,-41.75 372.5,0 499.5,0 499.5,-41.75"/>
<text text-anchor="start" x="380.5" y="-28.25" font-family="Helvetica,sans-Serif" font-size="10.00">divide_and_conquer</text>
<text text-anchor="start" x="380.5" y="-17" font-family="Helvetica,sans-Serif" font-size="10.00">::strassens_multiplication</text>
<text text-anchor="middle" x="436" y="-5.75" font-family="Helvetica,sans-Serif" font-size="10.00">::Matrix::v_stack</text>
</a>
</g>
</g>
<!-- Node1&#45;&gt;Node7 -->
<g id="edge9_Node000001_Node000007" class="edge">
<title>Node1&#45;&gt;Node7</title>
<g id="a_edge9_Node000001_Node000007"><a xlink:title=" ">
<path fill="none" stroke="#63b8ff" d="M112.3,-97.72C134.67,-83.64 166,-65.93 196,-55.88 249.56,-37.93 312.93,-29.18 360.95,-24.92"/>
<polygon fill="#63b8ff" stroke="#63b8ff" points="361.01,-28.42 370.68,-24.1 360.43,-21.45 361.01,-28.42"/>
</a>
</g>
</g>
<!-- Node4 -->
<g id="Node000004" class="node">
<title>Node4</title>
<g id="a_Node000004"><a xlink:href="classdivide__and__conquer_1_1strassens__multiplication_1_1_matrix.html#a01f3a05cf5abdc5d63999ef1bf9f9256" target="_top" xlink:title="Constructor.">
<polygon fill="white" stroke="#666666" points="499.5,-139.75 372.5,-139.75 372.5,-98 499.5,-98 499.5,-139.75"/>
<text text-anchor="start" x="380.5" y="-126.25" font-family="Helvetica,sans-Serif" font-size="10.00">divide_and_conquer</text>
<text text-anchor="start" x="380.5" y="-115" font-family="Helvetica,sans-Serif" font-size="10.00">::strassens_multiplication</text>
<text text-anchor="middle" x="436" y="-103.75" font-family="Helvetica,sans-Serif" font-size="10.00">::Matrix::Matrix</text>
</a>
</g>
</g>
<!-- Node3&#45;&gt;Node4 -->
<g id="edge3_Node000003_Node000004" class="edge">
<title>Node3&#45;&gt;Node4</title>
<g id="a_edge3_Node000003_Node000004"><a xlink:title=" ">
<path fill="none" stroke="#63b8ff" d="M326.86,-157.55C339.15,-153.16 352.2,-148.49 364.82,-143.98"/>
<polygon fill="#63b8ff" stroke="#63b8ff" points="365.63,-147.4 373.87,-140.74 363.28,-140.81 365.63,-147.4"/>
</a>
</g>
</g>
<!-- Node4&#45;&gt;Node5 -->
<g id="edge4_Node000004_Node000005" class="edge">
<title>Node4&#45;&gt;Node5</title>
<g id="a_edge4_Node000004_Node000005"><a xlink:title=" ">
<path fill="none" stroke="#63b8ff" d="M499.71,-99.79C507.81,-97.32 516.17,-94.78 524.43,-92.27"/>
<polygon fill="#63b8ff" stroke="#63b8ff" points="525.2,-95.69 533.75,-89.43 523.16,-88.99 525.2,-95.69"/>
</a>
</g>
</g>
<!-- Node6&#45;&gt;Node4 -->
<g id="edge7_Node000006_Node000004" class="edge">
<title>Node6&#45;&gt;Node4</title>
<g id="a_edge7_Node000006_Node000004"><a xlink:title=" ">
<path fill="none" stroke="#63b8ff" d="M330.19,-118.88C340.19,-118.88 350.61,-118.88 360.83,-118.88"/>
<polygon fill="#63b8ff" stroke="#63b8ff" points="360.75,-122.38 370.75,-118.88 360.75,-115.38 360.75,-122.38"/>
</a>
</g>
</g>
<!-- Node7&#45;&gt;Node5 -->
<g id="edge10_Node000007_Node000005" class="edge">
<title>Node7&#45;&gt;Node5</title>
<g id="a_edge10_Node000007_Node000005"><a xlink:title=" ">
<path fill="none" stroke="#63b8ff" d="M499.71,-39.96C507.81,-42.43 516.17,-44.97 524.43,-47.48"/>
<polygon fill="#63b8ff" stroke="#63b8ff" points="523.16,-50.76 533.75,-50.32 525.2,-44.06 523.16,-50.76"/>
</a>
</g>
</g>
</g>
</svg>
