<?xml version="1.0" encoding="UTF-8" standalone="no"?>
<!DOCTYPE svg PUBLIC "-//W3C//DTD SVG 1.1//EN"
 "http://www.w3.org/Graphics/SVG/1.1/DTD/svg11.dtd">
<!-- Generated by graphviz version 12.1.1 (20240910.0053)
 -->
<!-- Title: divide_and_conquer::strassens_multiplication::Matrix::operator* Pages: 1 -->
<svg width="638pt" height="75pt"
 viewBox="0.00 0.00 637.50 74.75" xmlns="http://www.w3.org/2000/svg" xmlns:xlink="http://www.w3.org/1999/xlink">
<g id="graph0" class="graph" transform="scale(1 1) rotate(0) translate(4 70.75)">
<title>divide_and_conquer::strassens_multiplication::Matrix::operator*</title>
<!-- Node1 -->
<g id="Node000001" class="node">
<title>Node1</title>
<g id="a_Node000001"><a xlink:title="Multiply two matrices and returns a new matrix.">
<polygon fill="#999999" stroke="#666666" points="127,-41.75 0,-41.75 0,0 127,0 127,-41.75"/>
<text text-anchor="start" x="8" y="-28.25" font-family="Helvetica,sans-Serif" font-size="10.00">divide_and_conquer</text>
<text text-anchor="start" x="8" y="-17" font-family="Helvetica,sans-Serif" font-size="10.00">::strassens_multiplication</text>
<text text-anchor="middle" x="63.5" y="-5.75" font-family="Helvetica,sans-Serif" font-size="10.00">::Matrix::operator*</text>
</a>
</g>
</g>
<!-- Node2 -->
<g id="Node000002" class="node">
<title>Node2</title>
<g id="a_Node000002"><a xlink:href="classdivide__and__conquer_1_1strassens__multiplication_1_1_matrix.html#a5d8eb669b37a27224376b08515b4ee50" target="_top" xlink:title="Naive multiplication performed on this.">
<polygon fill="white" stroke="#666666" points="303.5,-66.75 163,-66.75 163,-25 303.5,-25 303.5,-66.75"/>
<text text-anchor="start" x="171" y="-53.25" font-family="Helvetica,sans-Serif" font-size="10.00">divide_and_conquer</text>
<text text-anchor="start" x="171" y="-42" font-family="Helvetica,sans-Serif" font-size="10.00">::strassens_multiplication</text>
<text text-anchor="middle" x="233.25" y="-30.75" font-family="Helvetica,sans-Serif" font-size="10.00">::Matrix::naive_multiplication</text>
</a>
</g>
</g>
<!-- Node1&#45;&gt;Node2 -->
<g id="edge1_Node000001_Node000002" class="edge">
<title>Node1&#45;&gt;Node2</title>
<g id="a_edge1_Node000001_Node000002"><a xlink:title=" ">
<path fill="none" stroke="#63b8ff" d="M127.44,-30.26C135.28,-31.42 143.37,-32.63 151.43,-33.83"/>
<polygon fill="#63b8ff" stroke="#63b8ff" points="150.86,-37.28 161.27,-35.3 151.9,-30.36 150.86,-37.28"/>
</a>
</g>
</g>
<!-- Node4 -->
<g id="Node000004" class="node">
<title>Node4</title>
<g id="a_Node000004"><a xlink:href="classdivide__and__conquer_1_1strassens__multiplication_1_1_matrix.html#ae4e183ec8eab778cb243e4ae0b22a0f1" target="_top" xlink:title="Get the matrix shape.">
<polygon fill="white" stroke="#666666" points="629.5,-41.75 502.5,-41.75 502.5,0 629.5,0 629.5,-41.75"/>
<text text-anchor="start" x="510.5" y="-28.25" font-family="Helvetica,sans-Serif" font-size="10.00">divide_and_conquer</text>
<text text-anchor="start" x="510.5" y="-17" font-family="Helvetica,sans-Serif" font-size="10.00">::strassens_multiplication</text>
<text text-anchor="middle" x="566" y="-5.75" font-family="Helvetica,sans-Serif" font-size="10.00">::Matrix::size</text>
</a>
</g>
</g>
<!-- Node1&#45;&gt;Node4 -->
<g id="edge4_Node000001_Node000004" class="edge">
<title>Node1&#45;&gt;Node4</title>
<g id="a_edge4_Node000001_Node000004"><a xlink:title=" ">
<path fill="none" stroke="#63b8ff" d="M127.27,-17.21C139.14,-16.65 151.45,-16.17 163,-15.88 297.85,-12.45 331.65,-12.45 466.5,-15.88 474.35,-16.07 482.56,-16.36 490.73,-16.7"/>
<polygon fill="#63b8ff" stroke="#63b8ff" points="490.57,-20.2 500.71,-17.14 490.88,-13.2 490.57,-20.2"/>
</a>
</g>
</g>
<!-- Node3 -->
<g id="Node000003" class="node">
<title>Node3</title>
<g id="a_Node000003"><a xlink:href="classdivide__and__conquer_1_1strassens__multiplication_1_1_matrix.html#a01f3a05cf5abdc5d63999ef1bf9f9256" target="_top" xlink:title="Constructor.">
<polygon fill="white" stroke="#666666" points="466.5,-66.75 339.5,-66.75 339.5,-25 466.5,-25 466.5,-66.75"/>
<text text-anchor="start" x="347.5" y="-53.25" font-family="Helvetica,sans-Serif" font-size="10.00">divide_and_conquer</text>
<text text-anchor="start" x="347.5" y="-42" font-family="Helvetica,sans-Serif" font-size="10.00">::strassens_multiplication</text>
<text text-anchor="middle" x="403" y="-30.75" font-family="Helvetica,sans-Serif" font-size="10.00">::Matrix::Matrix</text>
</a>
</g>
</g>
<!-- Node2&#45;&gt;Node3 -->
<g id="edge2_Node000002_Node000003" class="edge">
<title>Node2&#45;&gt;Node3</title>
<g id="a_edge2_Node000002_Node000003"><a xlink:title=" ">
<path fill="none" stroke="#63b8ff" d="M303.93,-45.88C311.8,-45.88 319.83,-45.88 327.75,-45.88"/>
<polygon fill="#63b8ff" stroke="#63b8ff" points="327.72,-49.38 337.72,-45.88 327.72,-42.38 327.72,-49.38"/>
</a>
</g>
</g>
<!-- Node3&#45;&gt;Node4 -->
<g id="edge3_Node000003_Node000004" class="edge">
<title>Node3&#45;&gt;Node4</title>
<g id="a_edge3_Node000003_Node000004"><a xlink:title=" ">
<path fill="none" stroke="#63b8ff" d="M466.71,-36.14C474.63,-34.91 482.79,-33.64 490.87,-32.39"/>
<polygon fill="#63b8ff" stroke="#63b8ff" points="491.36,-35.85 500.7,-30.86 490.28,-28.93 491.36,-35.85"/>
</a>
</g>
</g>
</g>
</svg>
