<?xml version="1.0" encoding="UTF-8" standalone="no"?>
<!DOCTYPE svg PUBLIC "-//W3C//DTD SVG 1.1//EN"
 "http://www.w3.org/Graphics/SVG/1.1/DTD/svg11.dtd">
<!-- Generated by graphviz version 12.1.1 (20240910.0053)
 -->
<!-- Title: ciphers::HillCipher::generate_decryption_key Pages: 1 -->
<svg width="382pt" height="39pt"
 viewBox="0.00 0.00 382.25 38.50" xmlns="http://www.w3.org/2000/svg" xmlns:xlink="http://www.w3.org/1999/xlink">
<g id="graph0" class="graph" transform="scale(1 1) rotate(0) translate(4 34.5)">
<title>ciphers::HillCipher::generate_decryption_key</title>
<!-- Node1 -->
<g id="Node000001" class="node">
<title>Node1</title>
<g id="a_Node000001"><a xlink:title="Generate decryption matrix from an encryption matrix key.">
<polygon fill="#999999" stroke="#666666" points="130.75,-30.5 0,-30.5 0,0 130.75,0 130.75,-30.5"/>
<text text-anchor="start" x="8" y="-17" font-family="Helvetica,sans-Serif" font-size="10.00">ciphers::HillCipher</text>
<text text-anchor="middle" x="65.38" y="-5.75" font-family="Helvetica,sans-Serif" font-size="10.00">::generate_decryption_key</text>
</a>
</g>
</g>
<!-- Node2 -->
<g id="Node000002" class="node">
<title>Node2</title>
<g id="a_Node000002"><a xlink:href="lu__decomposition_8h.html#a3108d43bd32c6fb3b3c158476c51ba7f" target="_top" xlink:title=" ">
<polygon fill="white" stroke="#666666" points="246.5,-24.88 166.75,-24.88 166.75,-5.63 246.5,-5.63 246.5,-24.88"/>
<text text-anchor="middle" x="206.62" y="-11.38" font-family="Helvetica,sans-Serif" font-size="10.00">determinant_lu</text>
</a>
</g>
</g>
<!-- Node1&#45;&gt;Node2 -->
<g id="edge1_Node000001_Node000002" class="edge">
<title>Node1&#45;&gt;Node2</title>
<g id="a_edge1_Node000001_Node000002"><a xlink:title=" ">
<path fill="none" stroke="#63b8ff" d="M131.11,-15.25C139.13,-15.25 147.23,-15.25 154.99,-15.25"/>
<polygon fill="#63b8ff" stroke="#63b8ff" points="154.95,-18.75 164.95,-15.25 154.95,-11.75 154.95,-18.75"/>
</a>
</g>
</g>
<!-- Node3 -->
<g id="Node000003" class="node">
<title>Node3</title>
<g id="a_Node000003"><a xlink:href="lu__decomposition_8h.html#a75b8a228c6419ecda6077255d6d60509" target="_top" xlink:title=" ">
<polygon fill="white" stroke="#666666" points="374.25,-24.88 282.5,-24.88 282.5,-5.63 374.25,-5.63 374.25,-24.88"/>
<text text-anchor="middle" x="328.38" y="-11.38" font-family="Helvetica,sans-Serif" font-size="10.00">lu_decomposition</text>
</a>
</g>
</g>
<!-- Node2&#45;&gt;Node3 -->
<g id="edge2_Node000002_Node000003" class="edge">
<title>Node2&#45;&gt;Node3</title>
<g id="a_edge2_Node000002_Node000003"><a xlink:title=" ">
<path fill="none" stroke="#63b8ff" d="M246.84,-15.25C254.53,-15.25 262.75,-15.25 270.88,-15.25"/>
<polygon fill="#63b8ff" stroke="#63b8ff" points="270.74,-18.75 280.74,-15.25 270.74,-11.75 270.74,-18.75"/>
</a>
</g>
</g>
</g>
</svg>
