<?xml version="1.0" encoding="UTF-8" standalone="no"?>
<!DOCTYPE svg PUBLIC "-//W3C//DTD SVG 1.1//EN"
 "http://www.w3.org/Graphics/SVG/1.1/DTD/svg11.dtd">
<!-- Generated by graphviz version 12.1.1 (20240910.0053)
 -->
<!-- Title: graph::LowestCommonAncestor::LowestCommonAncestor Pages: 1 -->
<svg width="503pt" height="39pt"
 viewBox="0.00 0.00 503.00 38.50" xmlns="http://www.w3.org/2000/svg" xmlns:xlink="http://www.w3.org/1999/xlink">
<g id="graph0" class="graph" transform="scale(1 1) rotate(0) translate(4 34.5)">
<title>graph::LowestCommonAncestor::LowestCommonAncestor</title>
<!-- Node1 -->
<g id="Node000001" class="node">
<title>Node1</title>
<g id="a_Node000001"><a xlink:title="Stores the tree and precomputs &quot;up lifts&quot;.">
<polygon fill="#999999" stroke="#666666" points="156.25,-30.5 0,-30.5 0,0 156.25,0 156.25,-30.5"/>
<text text-anchor="start" x="8" y="-17" font-family="Helvetica,sans-Serif" font-size="10.00">graph::LowestCommonAncestor</text>
<text text-anchor="middle" x="78.12" y="-5.75" font-family="Helvetica,sans-Serif" font-size="10.00">::LowestCommonAncestor</text>
</a>
</g>
</g>
<!-- Node2 -->
<g id="Node000002" class="node">
<title>Node2</title>
<g id="a_Node000002"><a xlink:href="classgraph_1_1_lowest_common_ancestor.html#a42589cc39d6bbff6c997152f1b96e356" target="_top" xlink:title=" ">
<polygon fill="white" stroke="#666666" points="348.5,-30.5 192.25,-30.5 192.25,0 348.5,0 348.5,-30.5"/>
<text text-anchor="start" x="200.25" y="-17" font-family="Helvetica,sans-Serif" font-size="10.00">graph::LowestCommonAncestor</text>
<text text-anchor="middle" x="270.38" y="-5.75" font-family="Helvetica,sans-Serif" font-size="10.00">::populate_up</text>
</a>
</g>
</g>
<!-- Node1&#45;&gt;Node2 -->
<g id="edge1_Node000001_Node000002" class="edge">
<title>Node1&#45;&gt;Node2</title>
<g id="a_edge1_Node000001_Node000002"><a xlink:title=" ">
<path fill="none" stroke="#63b8ff" d="M156.51,-15.25C164.41,-15.25 172.48,-15.25 180.49,-15.25"/>
<polygon fill="#63b8ff" stroke="#63b8ff" points="180.24,-18.75 190.24,-15.25 180.24,-11.75 180.24,-18.75"/>
</a>
</g>
</g>
<!-- Node3 -->
<g id="Node000003" class="node">
<title>Node3</title>
<g id="a_Node000003"><a xlink:href="classgraph_1_1_graph.html#a8930d1470d132b19e430d1c71f94c904" target="_top" xlink:title=" ">
<polygon fill="white" stroke="#666666" points="495,-30.5 384.5,-30.5 384.5,0 495,0 495,-30.5"/>
<text text-anchor="start" x="392.5" y="-17" font-family="Helvetica,sans-Serif" font-size="10.00">graph::Graph::number</text>
<text text-anchor="middle" x="439.75" y="-5.75" font-family="Helvetica,sans-Serif" font-size="10.00">_of_vertices</text>
</a>
</g>
</g>
<!-- Node2&#45;&gt;Node3 -->
<g id="edge2_Node000002_Node000003" class="edge">
<title>Node2&#45;&gt;Node3</title>
<g id="a_edge2_Node000002_Node000003"><a xlink:title=" ">
<path fill="none" stroke="#63b8ff" d="M348.69,-15.25C356.75,-15.25 364.89,-15.25 372.8,-15.25"/>
<polygon fill="#63b8ff" stroke="#63b8ff" points="372.69,-18.75 382.69,-15.25 372.69,-11.75 372.69,-18.75"/>
</a>
</g>
</g>
</g>
</svg>
