<?xml version="1.0" encoding="UTF-8" standalone="no"?>
<!DOCTYPE svg PUBLIC "-//W3C//DTD SVG 1.1//EN"
 "http://www.w3.org/Graphics/SVG/1.1/DTD/svg11.dtd">
<!-- Generated by graphviz version 12.1.1 (20240910.0053)
 -->
<!-- Title: machine_learning::k_nearest_neighbors::Knn::predict Pages: 1 -->
<svg width="258pt" height="68pt"
 viewBox="0.00 0.00 257.50 67.75" xmlns="http://www.w3.org/2000/svg" xmlns:xlink="http://www.w3.org/1999/xlink">
<g id="graph0" class="graph" transform="scale(1 1) rotate(0) translate(4 63.75)">
<title>machine_learning::k_nearest_neighbors::Knn::predict</title>
<!-- Node1 -->
<g id="Node000001" class="node">
<title>Node1</title>
<g id="a_Node000001"><a xlink:title="Classify sample.">
<polygon fill="#999999" stroke="#666666" points="106.75,-41.75 0,-41.75 0,0 106.75,0 106.75,-41.75"/>
<text text-anchor="start" x="8" y="-28.25" font-family="Helvetica,sans-Serif" font-size="10.00">machine_learning::k</text>
<text text-anchor="start" x="8" y="-17" font-family="Helvetica,sans-Serif" font-size="10.00">_nearest_neighbors::</text>
<text text-anchor="middle" x="53.38" y="-5.75" font-family="Helvetica,sans-Serif" font-size="10.00">Knn::predict</text>
</a>
</g>
</g>
<!-- Node2 -->
<g id="Node000002" class="node">
<title>Node2</title>
<g id="a_Node000002"><a xlink:href="k__nearest__neighbors_8cpp.html#ad6ae16e50bb153ebaa7251d0aaa97b69" target="_top" xlink:title="Compute the Euclidean distance between two vectors.">
<polygon fill="white" stroke="#666666" points="249.5,-41.75 142.75,-41.75 142.75,0 249.5,0 249.5,-41.75"/>
<text text-anchor="start" x="150.75" y="-28.25" font-family="Helvetica,sans-Serif" font-size="10.00">machine_learning::k</text>
<text text-anchor="start" x="150.75" y="-17" font-family="Helvetica,sans-Serif" font-size="10.00">_nearest_neighbors::</text>
<text text-anchor="middle" x="196.12" y="-5.75" font-family="Helvetica,sans-Serif" font-size="10.00">euclidean_distance</text>
</a>
</g>
</g>
<!-- Node1&#45;&gt;Node2 -->
<g id="edge1_Node000001_Node000002" class="edge">
<title>Node1&#45;&gt;Node2</title>
<g id="a_edge1_Node000001_Node000002"><a xlink:title=" ">
<path fill="none" stroke="#63b8ff" d="M107.19,-20.88C115.03,-20.88 123.19,-20.88 131.23,-20.88"/>
<polygon fill="#63b8ff" stroke="#63b8ff" points="130.97,-24.38 140.97,-20.88 130.97,-17.38 130.97,-24.38"/>
</a>
</g>
</g>
<!-- Node2&#45;&gt;Node2 -->
<g id="edge2_Node000002_Node000002" class="edge">
<title>Node2&#45;&gt;Node2</title>
<g id="a_edge2_Node000002_Node000002"><a xlink:title=" ">
<path fill="none" stroke="#63b8ff" d="M169.78,-42.07C167.27,-51.55 176.05,-59.75 196.12,-59.75 207.73,-59.75 215.56,-57.01 219.62,-52.86"/>
<polygon fill="#63b8ff" stroke="#63b8ff" points="222.91,-54.09 222.09,-43.53 216.15,-52.31 222.91,-54.09"/>
</a>
</g>
</g>
</g>
</svg>
