<?xml version="1.0" encoding="UTF-8" standalone="no"?>
<!DOCTYPE svg PUBLIC "-//W3C//DTD SVG 1.1//EN"
 "http://www.w3.org/Graphics/SVG/1.1/DTD/svg11.dtd">
<!-- Generated by graphviz version 12.1.1 (20240910.0053)
 -->
<!-- Title: main Pages: 1 -->
<svg width="325pt" height="46pt"
 viewBox="0.00 0.00 324.75 46.25" xmlns="http://www.w3.org/2000/svg" xmlns:xlink="http://www.w3.org/1999/xlink">
<g id="graph0" class="graph" transform="scale(1 1) rotate(0) translate(4 42.25)">
<title>main</title>
<!-- Node1 -->
<g id="Node000001" class="node">
<title>Node1</title>
<g id="a_Node000001"><a xlink:title=" ">
<polygon fill="#999999" stroke="#666666" points="37,-38.25 0,-38.25 0,-19 37,-19 37,-38.25"/>
<text text-anchor="middle" x="18.5" y="-24.75" font-family="Helvetica,sans-Serif" font-size="10.00">main</text>
</a>
</g>
</g>
<!-- Node2 -->
<g id="Node000002" class="node">
<title>Node2</title>
<g id="a_Node000002"><a xlink:href="comb__sort_8cpp.html#a0f4e7569090083fb53d5cdeaf0e2974f" target="_top" xlink:title=" ">
<polygon fill="white" stroke="#666666" points="207,-38.25 146.75,-38.25 146.75,-19 207,-19 207,-38.25"/>
<text text-anchor="middle" x="176.88" y="-24.75" font-family="Helvetica,sans-Serif" font-size="10.00">CombSort</text>
</a>
</g>
</g>
<!-- Node1&#45;&gt;Node2 -->
<g id="edge1_Node000001_Node000002" class="edge">
<title>Node1&#45;&gt;Node2</title>
<g id="a_edge1_Node000001_Node000002"><a xlink:title=" ">
<path fill="none" stroke="#63b8ff" d="M37.44,-28.62C61.16,-28.62 103.65,-28.62 135.33,-28.62"/>
<polygon fill="#63b8ff" stroke="#63b8ff" points="134.94,-32.13 144.94,-28.63 134.94,-25.13 134.94,-32.13"/>
</a>
</g>
</g>
<!-- Node4 -->
<g id="Node000004" class="node">
<title>Node4</title>
<g id="a_Node000004"><a xlink:href="comb__sort_8cpp.html#a88ec9ad42717780d6caaff9d3d6977f9" target="_top" xlink:title=" ">
<polygon fill="white" stroke="#666666" points="110.75,-19.25 73,-19.25 73,0 110.75,0 110.75,-19.25"/>
<text text-anchor="middle" x="91.88" y="-5.75" font-family="Helvetica,sans-Serif" font-size="10.00">tests</text>
</a>
</g>
</g>
<!-- Node1&#45;&gt;Node4 -->
<g id="edge3_Node000001_Node000004" class="edge">
<title>Node1&#45;&gt;Node4</title>
<g id="a_edge3_Node000001_Node000004"><a xlink:title=" ">
<path fill="none" stroke="#63b8ff" d="M37.14,-23.93C44.64,-21.93 53.57,-19.56 61.98,-17.32"/>
<polygon fill="#63b8ff" stroke="#63b8ff" points="62.71,-20.74 71.48,-14.79 60.91,-13.98 62.71,-20.74"/>
</a>
</g>
</g>
<!-- Node3 -->
<g id="Node000003" class="node">
<title>Node3</title>
<g id="a_Node000003"><a xlink:href="comb__sort_8cpp.html#aede08143e63105faba10e9ee8e745fd5" target="_top" xlink:title=" ">
<polygon fill="white" stroke="#666666" points="316.75,-38.25 243,-38.25 243,-19 316.75,-19 316.75,-38.25"/>
<text text-anchor="middle" x="279.88" y="-24.75" font-family="Helvetica,sans-Serif" font-size="10.00">FindNextGap</text>
</a>
</g>
</g>
<!-- Node2&#45;&gt;Node3 -->
<g id="edge2_Node000002_Node000003" class="edge">
<title>Node2&#45;&gt;Node3</title>
<g id="a_edge2_Node000002_Node000003"><a xlink:title=" ">
<path fill="none" stroke="#63b8ff" d="M207.36,-28.62C214.88,-28.62 223.16,-28.62 231.33,-28.62"/>
<polygon fill="#63b8ff" stroke="#63b8ff" points="231.21,-32.13 241.21,-28.63 231.21,-25.13 231.21,-32.13"/>
</a>
</g>
</g>
<!-- Node4&#45;&gt;Node2 -->
<g id="edge4_Node000004_Node000002" class="edge">
<title>Node4&#45;&gt;Node2</title>
<g id="a_edge4_Node000004_Node000002"><a xlink:title=" ">
<path fill="none" stroke="#63b8ff" d="M110.88,-13.75C118.11,-15.4 126.76,-17.38 135.34,-19.35"/>
<polygon fill="#63b8ff" stroke="#63b8ff" points="134.47,-22.74 145,-21.56 136.04,-15.91 134.47,-22.74"/>
</a>
</g>
</g>
</g>
</svg>
