<?xml version="1.0" encoding="UTF-8" standalone="no"?>
<!DOCTYPE svg PUBLIC "-//W3C//DTD SVG 1.1//EN"
 "http://www.w3.org/Graphics/SVG/1.1/DTD/svg11.dtd">
<!-- Generated by graphviz version 12.1.1 (20240910.0053)
 -->
<!-- Title: graph::disjoint_union::no_of_connected_components Pages: 1 -->
<svg width="304pt" height="57pt"
 viewBox="0.00 0.00 304.00 56.50" xmlns="http://www.w3.org/2000/svg" xmlns:xlink="http://www.w3.org/1999/xlink">
<g id="graph0" class="graph" transform="scale(1 1) rotate(0) translate(4 52.5)">
<title>graph::disjoint_union::no_of_connected_components</title>
<!-- Node1 -->
<g id="Node000001" class="node">
<title>Node1</title>
<g id="a_Node000001"><a xlink:title="Find total no. of connected components.">
<polygon fill="#999999" stroke="#666666" points="154.75,-30.5 0,-30.5 0,0 154.75,0 154.75,-30.5"/>
<text text-anchor="start" x="8" y="-17" font-family="Helvetica,sans-Serif" font-size="10.00">graph::disjoint_union</text>
<text text-anchor="middle" x="77.38" y="-5.75" font-family="Helvetica,sans-Serif" font-size="10.00">::no_of_connected_components</text>
</a>
</g>
</g>
<!-- Node1&#45;&gt;Node1 -->
<g id="edge3_Node000001_Node000001" class="edge">
<title>Node1&#45;&gt;Node1</title>
<g id="a_edge3_Node000001_Node000001"><a xlink:title=" ">
<path fill="none" stroke="#63b8ff" d="M47.96,-30.99C41.96,-40.06 51.76,-48.5 77.38,-48.5 91.38,-48.5 100.66,-45.97 105.21,-42.2"/>
<polygon fill="#63b8ff" stroke="#63b8ff" points="108.65,-42.87 106.58,-32.48 101.72,-41.9 108.65,-42.87"/>
</a>
</g>
</g>
<!-- Node2 -->
<g id="Node000002" class="node">
<title>Node2</title>
<g id="a_Node000002"><a xlink:href="connected__components__with__dsu_8cpp.html#a469384d8a4197a9b24482ce7c321a85e" target="_top" xlink:title="Find the component where following node belongs to.">
<polygon fill="white" stroke="#666666" points="296,-30.5 190.75,-30.5 190.75,0 296,0 296,-30.5"/>
<text text-anchor="start" x="198.75" y="-17" font-family="Helvetica,sans-Serif" font-size="10.00">graph::disjoint_union</text>
<text text-anchor="middle" x="243.38" y="-5.75" font-family="Helvetica,sans-Serif" font-size="10.00">::find_set</text>
</a>
</g>
</g>
<!-- Node1&#45;&gt;Node2 -->
<g id="edge1_Node000001_Node000002" class="edge">
<title>Node1&#45;&gt;Node2</title>
<g id="a_edge1_Node000001_Node000002"><a xlink:title=" ">
<path fill="none" stroke="#63b8ff" d="M155.09,-15.25C163.16,-15.25 171.29,-15.25 179.18,-15.25"/>
<polygon fill="#63b8ff" stroke="#63b8ff" points="179.01,-18.75 189.01,-15.25 179.01,-11.75 179.01,-18.75"/>
</a>
</g>
</g>
<!-- Node2&#45;&gt;Node2 -->
<g id="edge2_Node000002_Node000002" class="edge">
<title>Node2&#45;&gt;Node2</title>
<g id="a_edge2_Node000002_Node000002"><a xlink:title=" ">
<path fill="none" stroke="#63b8ff" d="M213.96,-30.99C207.96,-40.06 217.76,-48.5 243.38,-48.5 257.38,-48.5 266.66,-45.97 271.21,-42.2"/>
<polygon fill="#63b8ff" stroke="#63b8ff" points="274.65,-42.87 272.58,-32.48 267.72,-41.9 274.65,-42.87"/>
</a>
</g>
</g>
</g>
</svg>
