<?xml version="1.0" encoding="UTF-8" standalone="no"?>
<!DOCTYPE svg PUBLIC "-//W3C//DTD SVG 1.1//EN"
 "http://www.w3.org/Graphics/SVG/1.1/DTD/svg11.dtd">
<!-- Generated by graphviz version 12.1.1 (20240910.0053)
 -->
<!-- Title: tests Pages: 1 -->
<svg width="358pt" height="64pt"
 viewBox="0.00 0.00 357.50 64.25" xmlns="http://www.w3.org/2000/svg" xmlns:xlink="http://www.w3.org/1999/xlink">
<g id="graph0" class="graph" transform="scale(1 1) rotate(0) translate(4 60.25)">
<title>tests</title>
<!-- Node1 -->
<g id="Node000001" class="node">
<title>Node1</title>
<g id="a_Node000001"><a xlink:title=" ">
<polygon fill="#999999" stroke="#666666" points="37.75,-37.25 0,-37.25 0,-18 37.75,-18 37.75,-37.25"/>
<text text-anchor="middle" x="18.88" y="-23.75" font-family="Helvetica,sans-Serif" font-size="10.00">tests</text>
</a>
</g>
</g>
<!-- Node2 -->
<g id="Node000002" class="node">
<title>Node2</title>
<g id="a_Node000002"><a xlink:href="namespacegraph.html#a9125ceb66bfbec3093bba64c2c1e99e2" target="_top" xlink:title="Function that add edge between two nodes or vertices of graph.">
<polygon fill="white" stroke="#666666" points="197,-56.25 112.75,-56.25 112.75,-37 197,-37 197,-56.25"/>
<text text-anchor="middle" x="154.88" y="-42.75" font-family="Helvetica,sans-Serif" font-size="10.00">graph::addEdge</text>
</a>
</g>
</g>
<!-- Node1&#45;&gt;Node2 -->
<g id="edge1_Node000001_Node000002" class="edge">
<title>Node1&#45;&gt;Node2</title>
<g id="a_edge1_Node000001_Node000002"><a xlink:title=" ">
<path fill="none" stroke="#63b8ff" d="M38.23,-30.23C54.4,-32.52 78.78,-35.98 101,-39.13"/>
<polygon fill="#63b8ff" stroke="#63b8ff" points="100.47,-42.59 110.86,-40.53 101.45,-35.66 100.47,-42.59"/>
</a>
</g>
</g>
<!-- Node3 -->
<g id="Node000003" class="node">
<title>Node3</title>
<g id="a_Node000003"><a xlink:href="namespacegraph.html#a83ab16e96cec644109a58dfc9329bc2b" target="_top" xlink:title="Function that perfoms depth first search algorithm on graph and calculated the number of connected co...">
<polygon fill="white" stroke="#666666" points="236,-19.25 73.75,-19.25 73.75,0 236,0 236,-19.25"/>
<text text-anchor="middle" x="154.88" y="-5.75" font-family="Helvetica,sans-Serif" font-size="10.00">graph::getConnectedComponents</text>
</a>
</g>
</g>
<!-- Node1&#45;&gt;Node3 -->
<g id="edge2_Node000001_Node000003" class="edge">
<title>Node1&#45;&gt;Node3</title>
<g id="a_edge2_Node000001_Node000003"><a xlink:title=" ">
<path fill="none" stroke="#63b8ff" d="M38.23,-25.16C46.34,-24.07 56.53,-22.7 67.47,-21.23"/>
<polygon fill="#63b8ff" stroke="#63b8ff" points="67.67,-24.74 77.11,-19.94 66.73,-17.8 67.67,-24.74"/>
</a>
</g>
</g>
<!-- Node4 -->
<g id="Node000004" class="node">
<title>Node4</title>
<g id="a_Node000004"><a xlink:href="namespacegraph.html#a3ae80bc4c6a79d041b4f3a6589eb7fb8" target="_top" xlink:title="Utility function for depth first seach algorithm this function explores the vertex which is passed in...">
<polygon fill="white" stroke="#666666" points="349.5,-19.25 272,-19.25 272,0 349.5,0 349.5,-19.25"/>
<text text-anchor="middle" x="310.75" y="-5.75" font-family="Helvetica,sans-Serif" font-size="10.00">graph::explore</text>
</a>
</g>
</g>
<!-- Node3&#45;&gt;Node4 -->
<g id="edge3_Node000003_Node000004" class="edge">
<title>Node3&#45;&gt;Node4</title>
<g id="a_edge3_Node000003_Node000004"><a xlink:title=" ">
<path fill="none" stroke="#63b8ff" d="M236.42,-9.62C244.63,-9.62 252.78,-9.62 260.5,-9.62"/>
<polygon fill="#63b8ff" stroke="#63b8ff" points="260.34,-13.13 270.34,-9.63 260.34,-6.13 260.34,-13.13"/>
</a>
</g>
</g>
<!-- Node4&#45;&gt;Node4 -->
<g id="edge4_Node000004_Node000004" class="edge">
<title>Node4&#45;&gt;Node4</title>
<g id="a_edge4_Node000004_Node000004"><a xlink:title=" ">
<path fill="none" stroke="#63b8ff" d="M286.35,-19.54C275.22,-28.15 283.35,-37.25 310.75,-37.25 326.16,-37.25 335.48,-34.37 338.7,-30.32"/>
<polygon fill="#63b8ff" stroke="#63b8ff" points="342.08,-29.38 335.63,-20.98 335.43,-31.57 342.08,-29.38"/>
</a>
</g>
</g>
</g>
</svg>
