<?xml version="1.0" encoding="UTF-8" standalone="no"?>
<!DOCTYPE svg PUBLIC "-//W3C//DTD SVG 1.1//EN"
 "http://www.w3.org/Graphics/SVG/1.1/DTD/svg11.dtd">
<!-- Generated by graphviz version 12.1.1 (20240910.0053)
 -->
<!-- Title: graph::disjoint_union::union_sets Pages: 1 -->
<svg width="255pt" height="57pt"
 viewBox="0.00 0.00 254.50 56.50" xmlns="http://www.w3.org/2000/svg" xmlns:xlink="http://www.w3.org/1999/xlink">
<g id="graph0" class="graph" transform="scale(1 1) rotate(0) translate(4 52.5)">
<title>graph::disjoint_union::union_sets</title>
<!-- Node1 -->
<g id="Node000001" class="node">
<title>Node1</title>
<g id="a_Node000001"><a xlink:title="Merge 2 components to become one.">
<polygon fill="#999999" stroke="#666666" points="105.25,-30.5 0,-30.5 0,0 105.25,0 105.25,-30.5"/>
<text text-anchor="start" x="8" y="-17" font-family="Helvetica,sans-Serif" font-size="10.00">graph::disjoint_union</text>
<text text-anchor="middle" x="52.62" y="-5.75" font-family="Helvetica,sans-Serif" font-size="10.00">::union_sets</text>
</a>
</g>
</g>
<!-- Node1&#45;&gt;Node1 -->
<g id="edge3_Node000001_Node000001" class="edge">
<title>Node1&#45;&gt;Node1</title>
<g id="a_edge3_Node000001_Node000001"><a xlink:title=" ">
<path fill="none" stroke="#63b8ff" d="M27.6,-30.99C22.49,-40.06 30.83,-48.5 52.62,-48.5 64.54,-48.5 72.44,-45.97 76.31,-42.2"/>
<polygon fill="#63b8ff" stroke="#63b8ff" points="79.76,-42.83 77.47,-32.49 72.81,-42 79.76,-42.83"/>
</a>
</g>
</g>
<!-- Node2 -->
<g id="Node000002" class="node">
<title>Node2</title>
<g id="a_Node000002"><a xlink:href="connected__components__with__dsu_8cpp.html#a469384d8a4197a9b24482ce7c321a85e" target="_top" xlink:title="Find the component where following node belongs to.">
<polygon fill="white" stroke="#666666" points="246.5,-30.5 141.25,-30.5 141.25,0 246.5,0 246.5,-30.5"/>
<text text-anchor="start" x="149.25" y="-17" font-family="Helvetica,sans-Serif" font-size="10.00">graph::disjoint_union</text>
<text text-anchor="middle" x="193.88" y="-5.75" font-family="Helvetica,sans-Serif" font-size="10.00">::find_set</text>
</a>
</g>
</g>
<!-- Node1&#45;&gt;Node2 -->
<g id="edge1_Node000001_Node000002" class="edge">
<title>Node1&#45;&gt;Node2</title>
<g id="a_edge1_Node000001_Node000002"><a xlink:title=" ">
<path fill="none" stroke="#63b8ff" d="M105.48,-15.25C113.36,-15.25 121.57,-15.25 129.66,-15.25"/>
<polygon fill="#63b8ff" stroke="#63b8ff" points="129.47,-18.75 139.47,-15.25 129.47,-11.75 129.47,-18.75"/>
</a>
</g>
</g>
<!-- Node2&#45;&gt;Node2 -->
<g id="edge2_Node000002_Node000002" class="edge">
<title>Node2&#45;&gt;Node2</title>
<g id="a_edge2_Node000002_Node000002"><a xlink:title=" ">
<path fill="none" stroke="#63b8ff" d="M168.85,-30.99C163.74,-40.06 172.08,-48.5 193.88,-48.5 205.79,-48.5 213.69,-45.97 217.56,-42.2"/>
<polygon fill="#63b8ff" stroke="#63b8ff" points="221.01,-42.83 218.72,-32.49 214.06,-42 221.01,-42.83"/>
</a>
</g>
</g>
</g>
</svg>
