<?xml version="1.0" encoding="UTF-8" standalone="no"?>
<!DOCTYPE svg PUBLIC "-//W3C//DTD SVG 1.1//EN"
 "http://www.w3.org/Graphics/SVG/1.1/DTD/svg11.dtd">
<!-- Generated by graphviz version 12.1.1 (20240910.0053)
 -->
<!-- Title: main Pages: 1 -->
<svg width="431pt" height="64pt"
 viewBox="0.00 0.00 430.50 64.25" xmlns="http://www.w3.org/2000/svg" xmlns:xlink="http://www.w3.org/1999/xlink">

<svg id="main" version="1.1" xmlns="http://www.w3.org/2000/svg" xmlns:xlink="http://www.w3.org/1999/xlink" xml:space="preserve">

<style type="text/css"><![CDATA[
.node, .edge {opacity: 0.7;}
.node.selected, .edge.selected {opacity: 1;}
.edge:hover path { stroke: red; }
.edge:hover polygon { stroke: red; fill: red; }
]]></style>
<script type="application/ecmascript" xlink:href="svg.min.js"/>
<svg id="graph" class="graph">
<g id="graph0" class="graph" transform="scale(1 1) rotate(0) translate(4 60.25)">
<title>main</title>
<!-- Node1 -->
<g id="Node000001" class="node">
<title>Node1</title>
<g id="a_Node000001"><a xlink:title=" ">
<polygon fill="#999999" stroke="#666666" points="37,-38.25 0,-38.25 0,-19 37,-19 37,-38.25"/>
<text text-anchor="middle" x="18.5" y="-24.75" font-family="Helvetica,sans-Serif" font-size="10.00">main</text>
</a>
</g>
</g>
<!-- Node2 -->
<g id="Node000002" class="node">
<title>Node2</title>
<g id="a_Node000002"><a xlink:href="namespacegraph.html#a9125ceb66bfbec3093bba64c2c1e99e2" target="_top" xlink:title="Function that add edge between two nodes or vertices of graph.">
<polygon fill="white" stroke="#666666" points="270,-56.25 185.75,-56.25 185.75,-37 270,-37 270,-56.25"/>
<text text-anchor="middle" x="227.88" y="-42.75" font-family="Helvetica,sans-Serif" font-size="10.00">graph::addEdge</text>
</a>
</g>
</g>
<!-- Node1&#45;&gt;Node2 -->
<g id="edge1_Node000001_Node000002" class="edge">
<title>Node1&#45;&gt;Node2</title>
<g id="a_edge1_Node000001_Node000002"><a xlink:title=" ">
<path fill="none" stroke="#63b8ff" d="M37.41,-36.72C47.61,-40.88 60.76,-45.52 73,-47.62 106.24,-53.35 144.11,-53.19 173.97,-51.55"/>
<polygon fill="#63b8ff" stroke="#63b8ff" points="174.13,-55.05 183.89,-50.92 173.69,-48.06 174.13,-55.05"/>
</a>
</g>
</g>
<!-- Node3 -->
<g id="Node000003" class="node">
<title>Node3</title>
<g id="a_Node000003"><a xlink:href="namespacegraph.html#a83ab16e96cec644109a58dfc9329bc2b" target="_top" xlink:title="Function that perfoms depth first search algorithm on graph and calculated the number of connected co...">
<polygon fill="white" stroke="#666666" points="309,-19.25 146.75,-19.25 146.75,0 309,0 309,-19.25"/>
<text text-anchor="middle" x="227.88" y="-5.75" font-family="Helvetica,sans-Serif" font-size="10.00">graph::getConnectedComponents</text>
</a>
</g>
</g>
<!-- Node1&#45;&gt;Node3 -->
<g id="edge2_Node000001_Node000003" class="edge">
<title>Node1&#45;&gt;Node3</title>
<g id="a_edge2_Node000001_Node000003"><a xlink:title=" ">
<path fill="none" stroke="#63b8ff" d="M37.41,-20.53C47.61,-16.37 60.76,-11.73 73,-9.62 92.99,-6.18 114.66,-4.78 135.26,-4.51"/>
<polygon fill="#63b8ff" stroke="#63b8ff" points="135.07,-8.01 145.06,-4.48 135.05,-1.01 135.07,-8.01"/>
</a>
</g>
</g>
<!-- Node5 -->
<g id="Node000005" class="node">
<title>Node5</title>
<g id="a_Node000005"><a xlink:href="connected__components_8cpp.html#a88ec9ad42717780d6caaff9d3d6977f9" target="_top" xlink:title=" ">
<polygon fill="white" stroke="#666666" points="110.75,-38.25 73,-38.25 73,-19 110.75,-19 110.75,-38.25"/>
<text text-anchor="middle" x="91.88" y="-24.75" font-family="Helvetica,sans-Serif" font-size="10.00">tests</text>
</a>
</g>
</g>
<!-- Node1&#45;&gt;Node5 -->
<g id="edge5_Node000001_Node000005" class="edge">
<title>Node1&#45;&gt;Node5</title>
<g id="a_edge5_Node000001_Node000005"><a xlink:title=" ">
<path fill="none" stroke="#63b8ff" d="M37.14,-28.62C44.55,-28.62 53.37,-28.62 61.69,-28.62"/>
<polygon fill="#63b8ff" stroke="#63b8ff" points="61.43,-32.13 71.43,-28.63 61.43,-25.13 61.43,-32.13"/>
</a>
</g>
</g>
<!-- Node4 -->
<g id="Node000004" class="node">
<title>Node4</title>
<g id="a_Node000004"><a xlink:href="namespacegraph.html#a3ae80bc4c6a79d041b4f3a6589eb7fb8" target="_top" xlink:title="Utility function for depth first seach algorithm this function explores the vertex which is passed in...">
<polygon fill="white" stroke="#666666" points="422.5,-19.25 345,-19.25 345,0 422.5,0 422.5,-19.25"/>
<text text-anchor="middle" x="383.75" y="-5.75" font-family="Helvetica,sans-Serif" font-size="10.00">graph::explore</text>
</a>
</g>
</g>
<!-- Node3&#45;&gt;Node4 -->
<g id="edge3_Node000003_Node000004" class="edge">
<title>Node3&#45;&gt;Node4</title>
<g id="a_edge3_Node000003_Node000004"><a xlink:title=" ">
<path fill="none" stroke="#63b8ff" d="M309.42,-9.62C317.63,-9.62 325.78,-9.62 333.5,-9.62"/>
<polygon fill="#63b8ff" stroke="#63b8ff" points="333.34,-13.13 343.34,-9.63 333.34,-6.13 333.34,-13.13"/>
</a>
</g>
</g>
<!-- Node4&#45;&gt;Node4 -->
<g id="edge4_Node000004_Node000004" class="edge">
<title>Node4&#45;&gt;Node4</title>
<g id="a_edge4_Node000004_Node000004"><a xlink:title=" ">
<path fill="none" stroke="#63b8ff" d="M359.35,-19.54C348.22,-28.15 356.35,-37.25 383.75,-37.25 399.16,-37.25 408.48,-34.37 411.7,-30.32"/>
<polygon fill="#63b8ff" stroke="#63b8ff" points="415.08,-29.38 408.63,-20.98 408.43,-31.57 415.08,-29.38"/>
</a>
</g>
</g>
<!-- Node5&#45;&gt;Node2 -->
<g id="edge6_Node000005_Node000002" class="edge">
<title>Node5&#45;&gt;Node2</title>
<g id="a_edge6_Node000005_Node000002"><a xlink:title=" ">
<path fill="none" stroke="#63b8ff" d="M111.23,-31.09C127.4,-33.26 151.78,-36.54 174,-39.52"/>
<polygon fill="#63b8ff" stroke="#63b8ff" points="173.48,-42.98 183.86,-40.85 174.42,-36.05 173.48,-42.98"/>
</a>
</g>
</g>
<!-- Node5&#45;&gt;Node3 -->
<g id="edge7_Node000005_Node000003" class="edge">
<title>Node5&#45;&gt;Node3</title>
<g id="a_edge7_Node000005_Node000003"><a xlink:title=" ">
<path fill="none" stroke="#63b8ff" d="M111.23,-26.02C120.32,-24.73 132,-23.08 144.44,-21.31"/>
<polygon fill="#63b8ff" stroke="#63b8ff" points="144.61,-24.83 154.01,-19.96 143.62,-17.89 144.61,-24.83"/>
</a>
</g>
</g>
</g>
</svg>
</svg>

<style type='text/css'>
<![CDATA[
[data-mouse-over-selected='false'] { opacity: 0.7; }
[data-mouse-over-selected='true']  { opacity: 1.0; }
]]>
</style>
<script type="application/ecmascript"><![CDATA[
document.addEventListener('DOMContentLoaded', (event) => {
  highlightEdges();
  highlightAdjacentNodes();
});
]]></script>
</svg>
