<?xml version="1.0" encoding="UTF-8" standalone="no"?>
<!DOCTYPE svg PUBLIC "-//W3C//DTD SVG 1.1//EN"
 "http://www.w3.org/Graphics/SVG/1.1/DTD/svg11.dtd">
<!-- Generated by graphviz version 12.1.1 (20240910.0053)
 -->
<!-- Title: sorting::inversion::countInversion Pages: 1 -->
<svg width="351pt" height="57pt"
 viewBox="0.00 0.00 350.75 56.50" xmlns="http://www.w3.org/2000/svg" xmlns:xlink="http://www.w3.org/1999/xlink">
<g id="graph0" class="graph" transform="scale(1 1) rotate(0) translate(4 52.5)">
<title>sorting::inversion::countInversion</title>
<!-- Node1 -->
<g id="Node000001" class="node">
<title>Node1</title>
<g id="a_Node000001"><a xlink:title="Function countInversion() returns the number of inversion present in the input array....">
<polygon fill="#999999" stroke="#666666" points="90.25,-30.5 0,-30.5 0,0 90.25,0 90.25,-30.5"/>
<text text-anchor="start" x="8" y="-17" font-family="Helvetica,sans-Serif" font-size="10.00">sorting::inversion</text>
<text text-anchor="middle" x="45.12" y="-5.75" font-family="Helvetica,sans-Serif" font-size="10.00">::countInversion</text>
</a>
</g>
</g>
<!-- Node1&#45;&gt;Node1 -->
<g id="edge1_Node000001_Node000001" class="edge">
<title>Node1&#45;&gt;Node1</title>
<g id="a_edge1_Node000001_Node000001"><a xlink:title=" ">
<path fill="none" stroke="#63b8ff" d="M22.75,-30.99C18.19,-40.06 25.65,-48.5 45.12,-48.5 55.78,-48.5 62.84,-45.97 66.3,-42.2"/>
<polygon fill="#63b8ff" stroke="#63b8ff" points="69.75,-42.81 67.34,-32.49 62.79,-42.06 69.75,-42.81"/>
</a>
</g>
</g>
<!-- Node2 -->
<g id="Node000002" class="node">
<title>Node2</title>
<g id="a_Node000002"><a xlink:href="count__inversions_8cpp.html#ae97a486e14101c4822ea8dc47f0d1661" target="_top" xlink:title="Implement merge Sort and count inverions while merging.">
<polygon fill="white" stroke="#666666" points="216.5,-30.5 126.25,-30.5 126.25,0 216.5,0 216.5,-30.5"/>
<text text-anchor="start" x="134.25" y="-17" font-family="Helvetica,sans-Serif" font-size="10.00">sorting::inversion</text>
<text text-anchor="middle" x="171.38" y="-5.75" font-family="Helvetica,sans-Serif" font-size="10.00">::mergeSort</text>
</a>
</g>
</g>
<!-- Node1&#45;&gt;Node2 -->
<g id="edge2_Node000001_Node000002" class="edge">
<title>Node1&#45;&gt;Node2</title>
<g id="a_edge2_Node000001_Node000002"><a xlink:title=" ">
<path fill="none" stroke="#63b8ff" d="M90.63,-15.25C98.3,-15.25 106.37,-15.25 114.3,-15.25"/>
<polygon fill="#63b8ff" stroke="#63b8ff" points="114.25,-18.75 124.25,-15.25 114.25,-11.75 114.25,-18.75"/>
</a>
</g>
</g>
<!-- Node2&#45;&gt;Node2 -->
<g id="edge5_Node000002_Node000002" class="edge">
<title>Node2&#45;&gt;Node2</title>
<g id="a_edge5_Node000002_Node000002"><a xlink:title=" ">
<path fill="none" stroke="#63b8ff" d="M149,-30.99C144.44,-40.06 151.9,-48.5 171.38,-48.5 182.03,-48.5 189.09,-45.97 192.55,-42.2"/>
<polygon fill="#63b8ff" stroke="#63b8ff" points="196,-42.81 193.59,-32.49 189.04,-42.06 196,-42.81"/>
</a>
</g>
</g>
<!-- Node3 -->
<g id="Node000003" class="node">
<title>Node3</title>
<g id="a_Node000003"><a xlink:href="count__inversions_8cpp.html#aad643c14734394e784a75169cb58132f" target="_top" xlink:title="Function to merge two sub&#45;arrays.">
<polygon fill="white" stroke="#666666" points="342.75,-30.5 252.5,-30.5 252.5,0 342.75,0 342.75,-30.5"/>
<text text-anchor="start" x="260.5" y="-17" font-family="Helvetica,sans-Serif" font-size="10.00">sorting::inversion</text>
<text text-anchor="middle" x="297.62" y="-5.75" font-family="Helvetica,sans-Serif" font-size="10.00">::merge</text>
</a>
</g>
</g>
<!-- Node2&#45;&gt;Node3 -->
<g id="edge3_Node000002_Node000003" class="edge">
<title>Node2&#45;&gt;Node3</title>
<g id="a_edge3_Node000002_Node000003"><a xlink:title=" ">
<path fill="none" stroke="#63b8ff" d="M216.88,-15.25C224.55,-15.25 232.62,-15.25 240.55,-15.25"/>
<polygon fill="#63b8ff" stroke="#63b8ff" points="240.5,-18.75 250.5,-15.25 240.5,-11.75 240.5,-18.75"/>
</a>
</g>
</g>
<!-- Node3&#45;&gt;Node3 -->
<g id="edge4_Node000003_Node000003" class="edge">
<title>Node3&#45;&gt;Node3</title>
<g id="a_edge4_Node000003_Node000003"><a xlink:title=" ">
<path fill="none" stroke="#63b8ff" d="M275.25,-30.99C270.69,-40.06 278.15,-48.5 297.62,-48.5 308.28,-48.5 315.34,-45.97 318.8,-42.2"/>
<polygon fill="#63b8ff" stroke="#63b8ff" points="322.25,-42.81 319.84,-32.49 315.29,-42.06 322.25,-42.81"/>
</a>
</g>
</g>
</g>
</svg>
