<?xml version="1.0" encoding="UTF-8" standalone="no"?>
<!DOCTYPE svg PUBLIC "-//W3C//DTD SVG 1.1//EN"
 "http://www.w3.org/Graphics/SVG/1.1/DTD/svg11.dtd">
<!-- Generated by graphviz version 12.1.1 (20240910.0053)
 -->
<!-- Title: sorting::inversion::mergeSort Pages: 1 -->
<svg width="225pt" height="57pt"
 viewBox="0.00 0.00 224.50 56.50" xmlns="http://www.w3.org/2000/svg" xmlns:xlink="http://www.w3.org/1999/xlink">

<svg id="main" version="1.1" xmlns="http://www.w3.org/2000/svg" xmlns:xlink="http://www.w3.org/1999/xlink" xml:space="preserve">

<style type="text/css"><![CDATA[
.node, .edge {opacity: 0.7;}
.node.selected, .edge.selected {opacity: 1;}
.edge:hover path { stroke: red; }
.edge:hover polygon { stroke: red; fill: red; }
]]></style>
<script type="application/ecmascript" xlink:href="svg.min.js"/>
<svg id="graph" class="graph">
<g id="graph0" class="graph" transform="scale(1 1) rotate(0) translate(4 52.5)">
<title>sorting::inversion::mergeSort</title>
<!-- Node1 -->
<g id="Node000001" class="node">
<title>Node1</title>
<g id="a_Node000001"><a xlink:title="Implement merge Sort and count inverions while merging.">
<polygon fill="#999999" stroke="#666666" points="90.25,-30.5 0,-30.5 0,0 90.25,0 90.25,-30.5"/>
<text text-anchor="start" x="8" y="-17" font-family="Helvetica,sans-Serif" font-size="10.00">sorting::inversion</text>
<text text-anchor="middle" x="45.12" y="-5.75" font-family="Helvetica,sans-Serif" font-size="10.00">::mergeSort</text>
</a>
</g>
</g>
<!-- Node1&#45;&gt;Node1 -->
<g id="edge3_Node000001_Node000001" class="edge">
<title>Node1&#45;&gt;Node1</title>
<g id="a_edge3_Node000001_Node000001"><a xlink:title=" ">
<path fill="none" stroke="#63b8ff" d="M22.75,-30.99C18.19,-40.06 25.65,-48.5 45.12,-48.5 55.78,-48.5 62.84,-45.97 66.3,-42.2"/>
<polygon fill="#63b8ff" stroke="#63b8ff" points="69.75,-42.81 67.34,-32.49 62.79,-42.06 69.75,-42.81"/>
</a>
</g>
</g>
<!-- Node2 -->
<g id="Node000002" class="node">
<title>Node2</title>
<g id="a_Node000002"><a xlink:href="count__inversions_8cpp.html#aad643c14734394e784a75169cb58132f" target="_top" xlink:title="Function to merge two sub&#45;arrays.">
<polygon fill="white" stroke="#666666" points="216.5,-30.5 126.25,-30.5 126.25,0 216.5,0 216.5,-30.5"/>
<text text-anchor="start" x="134.25" y="-17" font-family="Helvetica,sans-Serif" font-size="10.00">sorting::inversion</text>
<text text-anchor="middle" x="171.38" y="-5.75" font-family="Helvetica,sans-Serif" font-size="10.00">::merge</text>
</a>
</g>
</g>
<!-- Node1&#45;&gt;Node2 -->
<g id="edge1_Node000001_Node000002" class="edge">
<title>Node1&#45;&gt;Node2</title>
<g id="a_edge1_Node000001_Node000002"><a xlink:title=" ">
<path fill="none" stroke="#63b8ff" d="M90.63,-15.25C98.3,-15.25 106.37,-15.25 114.3,-15.25"/>
<polygon fill="#63b8ff" stroke="#63b8ff" points="114.25,-18.75 124.25,-15.25 114.25,-11.75 114.25,-18.75"/>
</a>
</g>
</g>
<!-- Node2&#45;&gt;Node2 -->
<g id="edge2_Node000002_Node000002" class="edge">
<title>Node2&#45;&gt;Node2</title>
<g id="a_edge2_Node000002_Node000002"><a xlink:title=" ">
<path fill="none" stroke="#63b8ff" d="M149,-30.99C144.44,-40.06 151.9,-48.5 171.38,-48.5 182.03,-48.5 189.09,-45.97 192.55,-42.2"/>
<polygon fill="#63b8ff" stroke="#63b8ff" points="196,-42.81 193.59,-32.49 189.04,-42.06 196,-42.81"/>
</a>
</g>
</g>
</g>
</svg>
</svg>

<style type='text/css'>
<![CDATA[
[data-mouse-over-selected='false'] { opacity: 0.7; }
[data-mouse-over-selected='true']  { opacity: 1.0; }
]]>
</style>
<script type="application/ecmascript"><![CDATA[
document.addEventListener('DOMContentLoaded', (event) => {
  highlightEdges();
  highlightAdjacentNodes();
});
]]></script>
</svg>
