<?xml version="1.0" encoding="UTF-8" standalone="no"?>
<!DOCTYPE svg PUBLIC "-//W3C//DTD SVG 1.1//EN"
 "http://www.w3.org/Graphics/SVG/1.1/DTD/svg11.dtd">
<!-- Generated by graphviz version 12.1.1 (20240910.0053)
 -->
<!-- Title: graph::depth_first_search::dfs Pages: 1 -->
<svg width="203pt" height="101pt"
 viewBox="0.00 0.00 202.75 101.25" xmlns="http://www.w3.org/2000/svg" xmlns:xlink="http://www.w3.org/1999/xlink">
<g id="graph0" class="graph" transform="scale(1 1) rotate(0) translate(4 97.25)">
<title>graph::depth_first_search::dfs</title>
<!-- Node1 -->
<g id="Node000001" class="node">
<title>Node1</title>
<g id="a_Node000001"><a xlink:title="Explores the given vertex, exploring a vertex means traversing over all the vertices which are connec...">
<polygon fill="#999999" stroke="#666666" points="91.75,-61.88 0,-61.88 0,-31.38 91.75,-31.38 91.75,-61.88"/>
<text text-anchor="start" x="8" y="-48.38" font-family="Helvetica,sans-Serif" font-size="10.00">graph::depth_first</text>
<text text-anchor="middle" x="45.88" y="-37.12" font-family="Helvetica,sans-Serif" font-size="10.00">_search::dfs</text>
</a>
</g>
</g>
<!-- Node1&#45;&gt;Node1 -->
<g id="edge1_Node000001_Node000001" class="edge">
<title>Node1&#45;&gt;Node1</title>
<g id="a_edge1_Node000001_Node000001"><a xlink:title=" ">
<path fill="none" stroke="#63b8ff" d="M25.43,-62.36C21.26,-71.43 28.07,-79.88 45.88,-79.88 55.61,-79.88 62.06,-77.35 65.22,-73.58"/>
<polygon fill="#63b8ff" stroke="#63b8ff" points="68.68,-74.16 66.17,-63.87 61.72,-73.48 68.68,-74.16"/>
</a>
</g>
</g>
<!-- Node2 -->
<g id="Node000002" class="node">
<title>Node2</title>
<g id="a_Node000002"><a xlink:href="classstack.html#a3647fb4418890f19e0dc414b8092b8b0" target="_top" xlink:title=" ">
<polygon fill="white" stroke="#666666" points="192.12,-93.25 130.38,-93.25 130.38,-74 192.12,-74 192.12,-93.25"/>
<text text-anchor="middle" x="161.25" y="-79.75" font-family="Helvetica,sans-Serif" font-size="10.00">stack::pop</text>
</a>
</g>
</g>
<!-- Node1&#45;&gt;Node2 -->
<g id="edge2_Node000001_Node000002" class="edge">
<title>Node1&#45;&gt;Node2</title>
<g id="a_edge2_Node000001_Node000002"><a xlink:title=" ">
<path fill="none" stroke="#63b8ff" d="M92.01,-61.35C100.95,-64.27 110.3,-67.32 119.1,-70.2"/>
<polygon fill="#63b8ff" stroke="#63b8ff" points="117.86,-73.47 128.45,-73.25 120.03,-66.82 117.86,-73.47"/>
</a>
</g>
</g>
<!-- Node3 -->
<g id="Node000003" class="node">
<title>Node3</title>
<g id="a_Node000003"><a xlink:href="classstack.html#a90df277532c23519aa7ac3c08ed90a1d" target="_top" xlink:title=" ">
<polygon fill="white" stroke="#666666" points="194.75,-56.25 127.75,-56.25 127.75,-37 194.75,-37 194.75,-56.25"/>
<text text-anchor="middle" x="161.25" y="-42.75" font-family="Helvetica,sans-Serif" font-size="10.00">stack::push</text>
</a>
</g>
</g>
<!-- Node1&#45;&gt;Node3 -->
<g id="edge3_Node000001_Node000003" class="edge">
<title>Node1&#45;&gt;Node3</title>
<g id="a_edge3_Node000001_Node000003"><a xlink:title=" ">
<path fill="none" stroke="#63b8ff" d="M92.01,-46.62C99.98,-46.62 108.26,-46.62 116.2,-46.62"/>
<polygon fill="#63b8ff" stroke="#63b8ff" points="115.98,-50.13 125.98,-46.63 115.98,-43.13 115.98,-50.13"/>
</a>
</g>
</g>
<!-- Node4 -->
<g id="Node000004" class="node">
<title>Node4</title>
<g id="a_Node000004"><a xlink:href="classstack.html#ae09630c4384903d187801921b2ddc709" target="_top" xlink:title=" ">
<polygon fill="white" stroke="#666666" points="191,-19.25 131.5,-19.25 131.5,0 191,0 191,-19.25"/>
<text text-anchor="middle" x="161.25" y="-5.75" font-family="Helvetica,sans-Serif" font-size="10.00">stack::top</text>
</a>
</g>
</g>
<!-- Node1&#45;&gt;Node4 -->
<g id="edge4_Node000001_Node000004" class="edge">
<title>Node1&#45;&gt;Node4</title>
<g id="a_edge4_Node000001_Node000004"><a xlink:title=" ">
<path fill="none" stroke="#63b8ff" d="M92.01,-31.9C101.4,-28.83 111.24,-25.62 120.43,-22.62"/>
<polygon fill="#63b8ff" stroke="#63b8ff" points="121.38,-25.99 129.8,-19.56 119.21,-19.34 121.38,-25.99"/>
</a>
</g>
</g>
</g>
</svg>
