<?xml version="1.0" encoding="UTF-8" standalone="no"?>
<!DOCTYPE svg PUBLIC "-//W3C//DTD SVG 1.1//EN"
 "http://www.w3.org/Graphics/SVG/1.1/DTD/svg11.dtd">
<!-- Generated by graphviz version 12.1.1 (20240910.0053)
 -->
<!-- Title: main Pages: 1 -->
<!--zoomable 252 -->

<svg id="main" version="1.1" xmlns="http://www.w3.org/2000/svg" xmlns:xlink="http://www.w3.org/1999/xlink" xml:space="preserve" onload="init(evt)">

<style type="text/css"><![CDATA[
.node, .edge {opacity: 0.7;}
.node.selected, .edge.selected {opacity: 1;}
.edge:hover path { stroke: red; }
.edge:hover polygon { stroke: red; fill: red; }
]]></style>

<defs>
  <circle id="rim" cx="0" cy="0" r="7"/>
  <circle id="rim2" cx="0" cy="0" r="3.5"/>
  <g id="zoomPlus">
    <use xlink:href="#rim" fill="#404040"><set attributeName="fill" to="#808080" begin="zoomplus.mouseover" end="zoomplus.mouseout"/></use>
    <path d="M-4,0h8M0,-4v8" fill="none" stroke="white" stroke-width="1.5" pointer-events="none"/>
  </g>
  <g id="zoomMin">
    <use xlink:href="#rim" fill="#404040"><set attributeName="fill" to="#808080" begin="zoomminus.mouseover" end="zoomminus.mouseout"/></use>
    <path d="M-4,0h8" fill="none" stroke="white" stroke-width="1.5" pointer-events="none"/>
  </g>
  <g id="arrowUp" transform="translate(30 24)">
    <use xlink:href="#rim"/>
    <path pointer-events="none" fill="none" stroke="white" stroke-width="1.5" d="M0,-3.0v7 M-2.5,-0.5L0,-3.0L2.5,-0.5"/>
  </g>
  <g id="arrowRight" transform="rotate(90) translate(36 -43)">
    <use xlink:href="#rim"/>
    <path pointer-events="none" fill="none" stroke="white" stroke-width="1.5" d="M0,-3.0v7 M-2.5,-0.5L0,-3.0L2.5,-0.5"/>
  </g>
  <g id="arrowDown" transform="rotate(180) translate(-30 -48)">
    <use xlink:href="#rim"/>
    <path pointer-events="none" fill="none" stroke="white" stroke-width="1.5" d="M0,-3.0v7 M-2.5,-0.5L0,-3.0L2.5,-0.5"/>
  </g>
  <g id="arrowLeft" transform="rotate(270) translate(-36 17)">
    <use xlink:href="#rim"/>
    <path pointer-events="none" fill="none" stroke="white" stroke-width="1.5" d="M0,-3.0v7 M-2.5,-0.5L0,-3.0L2.5,-0.5"/>
  </g>
  <g id="resetDef">
    <use xlink:href="#rim2" fill="#404040"><set attributeName="fill" to="#808080" begin="reset.mouseover" end="reset.mouseout"/></use>
  </g>
</defs>
<script type="application/ecmascript">
var viewWidth = 744;
var viewHeight = 252;
var sectionId = 'dynsection-1';
</script>
<script type="application/ecmascript" xlink:href="svg.min.js"/>
<svg id="graph" class="graph">
<g id="viewport">
<title>main</title>
<!-- Node1 -->
<g id="Node000001" class="node">
<title>Node1</title>
<g id="a_Node000001"><a xlink:title=" ">
<polygon fill="#999999" stroke="#666666" points="37,-119.1 0,-119.1 0,-99.85 37,-99.85 37,-119.1"/>
<text text-anchor="middle" x="18.5" y="-105.6" font-family="Helvetica,sans-Serif" font-size="10.00">main</text>
</a>
</g>
</g>
<!-- Node2 -->
<g id="Node000002" class="node">
<title>Node2</title>
<g id="a_Node000002"><a xlink:href="namespacedouble__hashing.html#a9c652b2e467e5d250dfe3bed83b12560" target="_top" xlink:title=" ">
<polygon fill="white" stroke="#666666" points="204.12,-81.1 82.38,-81.1 82.38,-61.85 204.12,-61.85 204.12,-81.1"/>
<text text-anchor="middle" x="143.25" y="-67.6" font-family="Helvetica,sans-Serif" font-size="10.00">double_hashing::addInfo</text>
</a>
</g>
</g>
<!-- Node1&#45;&gt;Node2 -->
<g id="edge1_Node000001_Node000002" class="edge">
<title>Node1&#45;&gt;Node2</title>
<g id="a_edge1_Node000001_Node000002"><a xlink:title=" ">
<path fill="none" stroke="#63b8ff" d="M37.35,-103.95C53.43,-98.97 77.72,-91.45 98.88,-84.9"/>
<polygon fill="#63b8ff" stroke="#63b8ff" points="99.64,-88.33 108.16,-82.03 97.57,-81.64 99.64,-88.33"/>
</a>
</g>
</g>
<!-- Node4 -->
<g id="Node000004" class="node">
<title>Node4</title>
<g id="a_Node000004"><a xlink:href="namespacedouble__hashing.html#a8f8ff4fb018e1bb32d67d8a1885d3200" target="_top" xlink:title="Performs double hashing to resolve collisions.">
<polygon fill="white" stroke="#666666" points="548.5,-195.1 407.25,-195.1 407.25,-175.85 548.5,-175.85 548.5,-195.1"/>
<text text-anchor="middle" x="477.88" y="-181.6" font-family="Helvetica,sans-Serif" font-size="10.00">double_hashing::doubleHash</text>
</a>
</g>
</g>
<!-- Node1&#45;&gt;Node4 -->
<g id="edge13_Node000001_Node000004" class="edge">
<title>Node1&#45;&gt;Node4</title>
<g id="a_edge13_Node000001_Node000004"><a xlink:title=" ">
<path fill="none" stroke="#63b8ff" d="M25.82,-119.25C34.72,-132.19 52.21,-154.72 73,-166.48 142.85,-205.97 169.71,-195.98 249.5,-204.48 303.31,-210.2 317.35,-209.28 371.25,-204.48 387.08,-203.06 404.09,-200.48 419.73,-197.67"/>
<polygon fill="#63b8ff" stroke="#63b8ff" points="420.17,-201.15 429.35,-195.87 418.88,-194.27 420.17,-201.15"/>
</a>
</g>
</g>
<!-- Node5 -->
<g id="Node000005" class="node">
<title>Node5</title>
<g id="a_Node000005"><a xlink:href="namespacedouble__hashing.html#a0d90726ed1de7b3d2ae261baed048003" target="_top" xlink:title="Hash a key. Uses the STL library&#39;s std::hash() function.">
<polygon fill="white" stroke="#666666" points="723.5,-83.1 596.5,-83.1 596.5,-63.85 723.5,-63.85 723.5,-83.1"/>
<text text-anchor="middle" x="660" y="-69.6" font-family="Helvetica,sans-Serif" font-size="10.00">double_hashing::hashFxn</text>
</a>
</g>
</g>
<!-- Node1&#45;&gt;Node5 -->
<g id="edge14_Node000001_Node000005" class="edge">
<title>Node1&#45;&gt;Node5</title>
<g id="a_edge14_Node000001_Node000005"><a xlink:title=" ">
<path fill="none" stroke="#63b8ff" d="M25.29,-99.69C33.81,-86.3 51.14,-62.76 73,-52.48 264.3,37.5 339.32,-9.91 548.5,-40.48 573.69,-44.16 601.12,-52.32 622.34,-59.61"/>
<polygon fill="#63b8ff" stroke="#63b8ff" points="621.12,-62.89 631.71,-62.92 623.45,-56.29 621.12,-62.89"/>
</a>
</g>
</g>
<!-- Node10 -->
<g id="Node000010" class="node">
<title>Node10</title>
<g id="a_Node000010"><a xlink:href="namespacedouble__hashing.html#a1e901418c759627557eff359b8db38cd" target="_top" xlink:title=" ">
<polygon fill="white" stroke="#666666" points="370.5,-119.1 250.25,-119.1 250.25,-99.85 370.5,-99.85 370.5,-119.1"/>
<text text-anchor="middle" x="310.38" y="-105.6" font-family="Helvetica,sans-Serif" font-size="10.00">double_hashing::display</text>
</a>
</g>
</g>
<!-- Node1&#45;&gt;Node10 -->
<g id="edge12_Node000001_Node000010" class="edge">
<title>Node1&#45;&gt;Node10</title>
<g id="a_edge12_Node000001_Node000010"><a xlink:title=" ">
<path fill="none" stroke="#63b8ff" d="M37.2,-109.48C76.3,-109.48 171.87,-109.48 238.66,-109.48"/>
<polygon fill="#63b8ff" stroke="#63b8ff" points="238.43,-112.98 248.43,-109.48 238.43,-105.98 238.43,-112.98"/>
</a>
</g>
</g>
<!-- Node11 -->
<g id="Node000011" class="node">
<title>Node11</title>
<g id="a_Node000011"><a xlink:href="namespacedouble__hashing.html#a5d06e4598569526294f10104875f6824" target="_top" xlink:title=" ">
<polygon fill="white" stroke="#666666" points="213.5,-157.1 73,-157.1 73,-137.85 213.5,-137.85 213.5,-157.1"/>
<text text-anchor="middle" x="143.25" y="-143.6" font-family="Helvetica,sans-Serif" font-size="10.00">double_hashing::removalInfo</text>
</a>
</g>
</g>
<!-- Node1&#45;&gt;Node11 -->
<g id="edge15_Node000001_Node000011" class="edge">
<title>Node1&#45;&gt;Node11</title>
<g id="a_edge15_Node000001_Node000011"><a xlink:title=" ">
<path fill="none" stroke="#63b8ff" d="M37.35,-115C53.43,-119.98 77.72,-127.5 98.88,-134.05"/>
<polygon fill="#63b8ff" stroke="#63b8ff" points="97.57,-137.31 108.16,-136.92 99.64,-130.62 97.57,-137.31"/>
</a>
</g>
</g>
<!-- Node3 -->
<g id="Node000003" class="node">
<title>Node3</title>
<g id="a_Node000003"><a xlink:href="namespacedouble__hashing.html#a79a9c914a6c68275b3640303d7faad8a" target="_top" xlink:title=" ">
<polygon fill="white" stroke="#666666" points="363,-82.1 257.75,-82.1 257.75,-62.85 363,-62.85 363,-82.1"/>
<text text-anchor="middle" x="310.38" y="-68.6" font-family="Helvetica,sans-Serif" font-size="10.00">double_hashing::add</text>
</a>
</g>
</g>
<!-- Node2&#45;&gt;Node3 -->
<g id="edge2_Node000002_Node000003" class="edge">
<title>Node2&#45;&gt;Node3</title>
<g id="a_edge2_Node000002_Node000003"><a xlink:title=" ">
<path fill="none" stroke="#63b8ff" d="M204.33,-71.84C217.95,-71.92 232.45,-72.01 246.19,-72.09"/>
<polygon fill="#63b8ff" stroke="#63b8ff" points="245.98,-75.59 256,-72.15 246.02,-68.59 245.98,-75.59"/>
</a>
</g>
</g>
<!-- Node2&#45;&gt;Node5 -->
<g id="edge11_Node000002_Node000005" class="edge">
<title>Node2&#45;&gt;Node5</title>
<g id="a_edge11_Node000002_Node000005"><a xlink:title=" ">
<path fill="none" stroke="#63b8ff" d="M193.03,-61.36C210.73,-58.16 230.94,-55.05 249.5,-53.48 381.91,-42.23 416.14,-41.59 548.5,-53.48 566.18,-55.06 585.26,-58.05 602.51,-61.24"/>
<polygon fill="#63b8ff" stroke="#63b8ff" points="601.59,-64.63 612.07,-63.07 602.9,-57.75 601.59,-64.63"/>
</a>
</g>
</g>
<!-- Node2&#45;&gt;Node10 -->
<g id="edge10_Node000002_Node000010" class="edge">
<title>Node2&#45;&gt;Node10</title>
<g id="a_edge10_Node000002_Node000010"><a xlink:title=" ">
<path fill="none" stroke="#63b8ff" d="M188.07,-81.56C208.49,-86.26 233,-91.9 254.63,-96.88"/>
<polygon fill="#63b8ff" stroke="#63b8ff" points="253.63,-100.24 264.17,-99.07 255.2,-93.42 253.63,-100.24"/>
</a>
</g>
</g>
<!-- Node3&#45;&gt;Node4 -->
<g id="edge3_Node000003_Node000004" class="edge">
<title>Node3&#45;&gt;Node4</title>
<g id="a_edge3_Node000003_Node000004"><a xlink:title=" ">
<path fill="none" stroke="#63b8ff" d="M353.57,-82.58C359.69,-84.78 365.76,-87.39 371.25,-90.48 407.58,-110.9 441.97,-145.76 461.15,-167.09"/>
<polygon fill="#63b8ff" stroke="#63b8ff" points="458.39,-169.25 467.63,-174.45 463.65,-164.63 458.39,-169.25"/>
</a>
</g>
</g>
<!-- Node9 -->
<g id="Node000009" class="node">
<title>Node9</title>
<g id="a_Node000009"><a xlink:href="namespacedouble__hashing.html#af4981819aae8bc7e7beeaef02615e30d" target="_top" xlink:title=" ">
<polygon fill="white" stroke="#666666" points="537.25,-82.1 418.5,-82.1 418.5,-62.85 537.25,-62.85 537.25,-82.1"/>
<text text-anchor="middle" x="477.88" y="-68.6" font-family="Helvetica,sans-Serif" font-size="10.00">double_hashing::rehash</text>
</a>
</g>
</g>
<!-- Node3&#45;&gt;Node9 -->
<g id="edge8_Node000003_Node000009" class="edge">
<title>Node3&#45;&gt;Node9</title>
<g id="a_edge8_Node000003_Node000009"><a xlink:title=" ">
<path fill="none" stroke="#63b8ff" d="M363.29,-66.16C377.19,-65.75 392.44,-65.63 407.13,-65.8"/>
<polygon fill="#63b8ff" stroke="#63b8ff" points="406.66,-69.29 416.71,-65.96 406.77,-62.29 406.66,-69.29"/>
</a>
</g>
</g>
<!-- Node4&#45;&gt;Node5 -->
<g id="edge4_Node000004_Node000005" class="edge">
<title>Node4&#45;&gt;Node5</title>
<g id="a_edge4_Node000004_Node000005"><a xlink:title=" ">
<path fill="none" stroke="#63b8ff" d="M516.93,-175.37C527.53,-171.77 538.79,-167.16 548.5,-161.48 566.98,-150.67 567.93,-143.03 584.5,-129.48 601.35,-115.69 621.06,-100.93 635.98,-90.03"/>
<polygon fill="#63b8ff" stroke="#63b8ff" points="637.75,-93.06 643.78,-84.35 633.64,-87.4 637.75,-93.06"/>
</a>
</g>
</g>
<!-- Node6 -->
<g id="Node000006" class="node">
<title>Node6</title>
<g id="a_Node000006"><a xlink:href="namespacedouble__hashing.html#a33968a1178289ab61445dd4000df7082" target="_top" xlink:title="Used for second hash function.">
<polygon fill="white" stroke="#666666" points="735.5,-195.1 584.5,-195.1 584.5,-175.85 735.5,-175.85 735.5,-195.1"/>
<text text-anchor="middle" x="660" y="-181.6" font-family="Helvetica,sans-Serif" font-size="10.00">double_hashing::otherHashFxn</text>
</a>
</g>
</g>
<!-- Node4&#45;&gt;Node6 -->
<g id="edge5_Node000004_Node000006" class="edge">
<title>Node4&#45;&gt;Node6</title>
<g id="a_edge5_Node000004_Node000006"><a xlink:title=" ">
<path fill="none" stroke="#63b8ff" d="M548.77,-185.48C556.64,-185.48 564.72,-185.48 572.76,-185.48"/>
<polygon fill="#63b8ff" stroke="#63b8ff" points="572.56,-188.98 582.56,-185.48 572.56,-181.98 572.56,-188.98"/>
</a>
</g>
</g>
<!-- Node7 -->
<g id="Node000007" class="node">
<title>Node7</title>
<g id="a_Node000007"><a xlink:href="namespacedouble__hashing.html#ac2adfce49ac57f6dbd1778d2c1ce0d2b" target="_top" xlink:title=" ">
<polygon fill="white" stroke="#666666" points="725.75,-158.1 594.25,-158.1 594.25,-138.85 725.75,-138.85 725.75,-158.1"/>
<text text-anchor="middle" x="660" y="-144.6" font-family="Helvetica,sans-Serif" font-size="10.00">double_hashing::putProber</text>
</a>
</g>
</g>
<!-- Node4&#45;&gt;Node7 -->
<g id="edge6_Node000004_Node000007" class="edge">
<title>Node4&#45;&gt;Node7</title>
<g id="a_edge6_Node000004_Node000007"><a xlink:title=" ">
<path fill="none" stroke="#63b8ff" d="M528.09,-175.37C549.94,-170.88 575.84,-165.56 598.82,-160.84"/>
<polygon fill="#63b8ff" stroke="#63b8ff" points="599.27,-164.32 608.36,-158.88 597.86,-157.46 599.27,-164.32"/>
</a>
</g>
</g>
<!-- Node8 -->
<g id="Node000008" class="node">
<title>Node8</title>
<g id="a_Node000008"><a xlink:href="namespacedouble__hashing.html#a29f543e2626bad58907661e1e45028a6" target="_top" xlink:title=" ">
<polygon fill="white" stroke="#666666" points="725.75,-243.73 594.25,-243.73 594.25,-213.23 725.75,-213.23 725.75,-243.73"/>
<text text-anchor="start" x="602.25" y="-230.23" font-family="Helvetica,sans-Serif" font-size="10.00">double_hashing::searching</text>
<text text-anchor="middle" x="660" y="-218.98" font-family="Helvetica,sans-Serif" font-size="10.00">Prober</text>
</a>
</g>
</g>
<!-- Node4&#45;&gt;Node8 -->
<g id="edge7_Node000004_Node000008" class="edge">
<title>Node4&#45;&gt;Node8</title>
<g id="a_edge7_Node000004_Node000008"><a xlink:title=" ">
<path fill="none" stroke="#63b8ff" d="M521.11,-195.56C539.52,-199.95 561.7,-205.25 582.83,-210.29"/>
<polygon fill="#63b8ff" stroke="#63b8ff" points="581.75,-213.63 592.29,-212.55 583.38,-206.82 581.75,-213.63"/>
</a>
</g>
</g>
<!-- Node9&#45;&gt;Node3 -->
<g id="edge9_Node000009_Node000003" class="edge">
<title>Node9&#45;&gt;Node3</title>
<g id="a_edge9_Node000009_Node000003"><a xlink:title=" ">
<path fill="none" stroke="#63b8ff" d="M418.23,-78.96C404.09,-79.28 388.91,-79.31 374.57,-79.06"/>
<polygon fill="#63b8ff" stroke="#63b8ff" points="374.88,-75.56 364.8,-78.83 374.71,-82.56 374.88,-75.56"/>
</a>
</g>
</g>
<!-- Node11&#45;&gt;Node5 -->
<g id="edge17_Node000011_Node000005" class="edge">
<title>Node11&#45;&gt;Node5</title>
<g id="a_edge17_Node000011_Node000005"><a xlink:title=" ">
<path fill="none" stroke="#63b8ff" d="M213.75,-143.56C258.79,-140.56 318.65,-135.68 371.25,-128.48 452.5,-117.34 545.56,-98.41 603.32,-85.93"/>
<polygon fill="#63b8ff" stroke="#63b8ff" points="603.88,-89.39 612.9,-83.84 602.39,-82.55 603.88,-89.39"/>
</a>
</g>
</g>
<!-- Node11&#45;&gt;Node10 -->
<g id="edge16_Node000011_Node000010" class="edge">
<title>Node11&#45;&gt;Node10</title>
<g id="a_edge16_Node000011_Node000010"><a xlink:title=" ">
<path fill="none" stroke="#63b8ff" d="M188.07,-137.39C208.49,-132.69 233,-127.05 254.63,-122.07"/>
<polygon fill="#63b8ff" stroke="#63b8ff" points="255.2,-125.53 264.17,-119.88 253.63,-118.71 255.2,-125.53"/>
</a>
</g>
</g>
<!-- Node12 -->
<g id="Node000012" class="node">
<title>Node12</title>
<g id="a_Node000012"><a xlink:href="namespacedouble__hashing.html#a28083ecac6eb94b643281875c8665931" target="_top" xlink:title=" ">
<polygon fill="white" stroke="#666666" points="371.25,-195.1 249.5,-195.1 249.5,-175.85 371.25,-175.85 371.25,-195.1"/>
<text text-anchor="middle" x="310.38" y="-181.6" font-family="Helvetica,sans-Serif" font-size="10.00">double_hashing::remove</text>
</a>
</g>
</g>
<!-- Node11&#45;&gt;Node12 -->
<g id="edge18_Node000011_Node000012" class="edge">
<title>Node11&#45;&gt;Node12</title>
<g id="a_edge18_Node000011_Node000012"><a xlink:title=" ">
<path fill="none" stroke="#63b8ff" d="M188.07,-157.56C208.49,-162.26 233,-167.9 254.63,-172.88"/>
<polygon fill="#63b8ff" stroke="#63b8ff" points="253.63,-176.24 264.17,-175.07 255.2,-169.42 253.63,-176.24"/>
</a>
</g>
</g>
<!-- Node12&#45;&gt;Node4 -->
<g id="edge19_Node000012_Node000004" class="edge">
<title>Node12&#45;&gt;Node4</title>
<g id="a_edge19_Node000012_Node000004"><a xlink:title=" ">
<path fill="none" stroke="#63b8ff" d="M371.59,-185.48C379.38,-185.48 387.46,-185.48 395.52,-185.48"/>
<polygon fill="#63b8ff" stroke="#63b8ff" points="395.36,-188.98 405.36,-185.48 395.36,-181.98 395.36,-188.98"/>
</a>
</g>
</g>
</g>
</svg>

<g id="navigator" transform="translate(0 0)" fill="#404254">
  <rect fill="#f2f5e9" fill-opacity="0.5" stroke="#606060" stroke-width=".5" x="0" y="0" width="60" height="60"/>
  <use id="zoomplus" xlink:href="#zoomPlus" x="17" y="9" onmousedown="handleZoom(evt,'in')"/>
  <use id="zoomminus" xlink:href="#zoomMin" x="42" y="9" onmousedown="handleZoom(evt,'out')"/>
  <use id="reset" xlink:href="#resetDef" x="30" y="36" onmousedown="handleReset()"/>
   <use id="arrowup" xlink:href="#arrowUp" x="0" y="0" onmousedown="handlePan(0,-1)"/>
  <use id="arrowright" xlink:href="#arrowRight" x="0" y="0" onmousedown="handlePan(1,0)"/>
  <use id="arrowdown" xlink:href="#arrowDown" x="0" y="0" onmousedown="handlePan(0,1)"/>
  <use id="arrowleft" xlink:href="#arrowLeft" x="0" y="0" onmousedown="handlePan(-1,0)"/>
</g>
<svg viewBox="0 0 15 15" width="100%" height="30px" preserveAspectRatio="xMaxYMin meet">
 <g id="arrow_out" transform="scale(0.3 0.3)">
  <a xlink:href="double__hash__hash__table_8cpp_ae66f6b31b5ad750f1fe042a706a4e3d4_cgraph_org.svg" target="_base">
   <rect id="button" ry="5" rx="5" y="6" x="6" height="38" width="38"
        fill="#f2f5e9" fill-opacity="0.5" stroke="#606060" stroke-width="1.0"/>
   <path id="arrow"
     d="M 11.500037,31.436501 C 11.940474,20.09759 22.043105,11.32322 32.158766,21.979434 L 37.068811,17.246167 C 37.068811,17.246167 37.088388,32 37.088388,32 L 22.160133,31.978069 C 22.160133,31.978069 26.997745,27.140456 26.997745,27.140456 C 18.528582,18.264221 13.291696,25.230495 11.500037,31.436501 z"
     style="fill:#404040;"/>
  </a>
 </g>
</svg>

<style type='text/css'>
<![CDATA[
[data-mouse-over-selected='false'] { opacity: 0.7; }
[data-mouse-over-selected='true']  { opacity: 1.0; }
]]>
</style>
<script type="application/ecmascript"><![CDATA[
document.addEventListener('DOMContentLoaded', (event) => {
  highlightEdges();
  highlightAdjacentNodes();
});
]]></script>
</svg>
