<?xml version="1.0" encoding="UTF-8" standalone="no"?>
<!DOCTYPE svg PUBLIC "-//W3C//DTD SVG 1.1//EN"
 "http://www.w3.org/Graphics/SVG/1.1/DTD/svg11.dtd">
<!-- Generated by graphviz version 12.1.1 (20240910.0053)
 -->
<!-- Title: test Pages: 1 -->
<svg width="206pt" height="119pt"
 viewBox="0.00 0.00 205.75 119.25" xmlns="http://www.w3.org/2000/svg" xmlns:xlink="http://www.w3.org/1999/xlink">

<svg id="main" version="1.1" xmlns="http://www.w3.org/2000/svg" xmlns:xlink="http://www.w3.org/1999/xlink" xml:space="preserve">

<style type="text/css"><![CDATA[
.node, .edge {opacity: 0.7;}
.node.selected, .edge.selected {opacity: 1;}
.edge:hover path { stroke: red; }
.edge:hover polygon { stroke: red; fill: red; }
]]></style>
<script type="application/ecmascript" xlink:href="svg.min.js"/>
<svg id="graph" class="graph">
<g id="graph0" class="graph" transform="scale(1 1) rotate(0) translate(4 115.25)">
<title>test</title>
<!-- Node1 -->
<g id="Node000001" class="node">
<title>Node1</title>
<g id="a_Node000001"><a xlink:title=" ">
<polygon fill="#999999" stroke="#666666" points="32.5,-56.25 0,-56.25 0,-37 32.5,-37 32.5,-56.25"/>
<text text-anchor="middle" x="16.25" y="-42.75" font-family="Helvetica,sans-Serif" font-size="10.00">test</text>
</a>
</g>
</g>
<!-- Node2 -->
<g id="Node000002" class="node">
<title>Node2</title>
<g id="a_Node000002"><a xlink:href="double__factorial_8cpp.html#a0a3c417360400093891a9ccddaa4be26" target="_top" xlink:title=" ">
<polygon fill="white" stroke="#666666" points="195.12,-111.25 71.12,-111.25 71.12,-92 195.12,-92 195.12,-111.25"/>
<text text-anchor="middle" x="133.12" y="-97.75" font-family="Helvetica,sans-Serif" font-size="10.00">double_factorial_iterative</text>
</a>
</g>
</g>
<!-- Node1&#45;&gt;Node2 -->
<g id="edge1_Node000001_Node000002" class="edge">
<title>Node1&#45;&gt;Node2</title>
<g id="a_edge1_Node000001_Node000002"><a xlink:title=" ">
<path fill="none" stroke="#63b8ff" d="M28.71,-56.72C38.63,-64.99 53.68,-76.46 68.5,-83.62 71.55,-85.1 74.75,-86.48 78.01,-87.76"/>
<polygon fill="#63b8ff" stroke="#63b8ff" points="76.57,-90.96 87.16,-91 78.91,-84.36 76.57,-90.96"/>
</a>
</g>
</g>
<!-- Node3 -->
<g id="Node000003" class="node">
<title>Node3</title>
<g id="a_Node000003"><a xlink:href="double__factorial_8cpp.html#a68ba20fed2ce427f6469c7689437829d" target="_top" xlink:title=" ">
<polygon fill="white" stroke="#666666" points="197.75,-56.25 68.5,-56.25 68.5,-37 197.75,-37 197.75,-56.25"/>
<text text-anchor="middle" x="133.12" y="-42.75" font-family="Helvetica,sans-Serif" font-size="10.00">double_factorial_recursive</text>
</a>
</g>
</g>
<!-- Node1&#45;&gt;Node3 -->
<g id="edge2_Node000001_Node000003" class="edge">
<title>Node1&#45;&gt;Node3</title>
<g id="a_edge2_Node000001_Node000003"><a xlink:title=" ">
<path fill="none" stroke="#63b8ff" d="M32.74,-46.62C39.45,-46.62 47.83,-46.62 56.86,-46.62"/>
<polygon fill="#63b8ff" stroke="#63b8ff" points="56.63,-50.13 66.63,-46.63 56.63,-43.13 56.63,-50.13"/>
</a>
</g>
</g>
<!-- Node4 -->
<g id="Node000004" class="node">
<title>Node4</title>
<g id="a_Node000004"><a xlink:href="caesar__cipher_8cpp.html#ae1a3968e7947464bee7714f6d43b7002" target="_top" xlink:title=" ">
<polygon fill="white" stroke="#666666" points="149.38,-19.25 116.88,-19.25 116.88,0 149.38,0 149.38,-19.25"/>
<text text-anchor="middle" x="133.12" y="-5.75" font-family="Helvetica,sans-Serif" font-size="10.00">test</text>
</a>
</g>
</g>
<!-- Node1&#45;&gt;Node4 -->
<g id="edge4_Node000001_Node000004" class="edge">
<title>Node1&#45;&gt;Node4</title>
<g id="a_edge4_Node000001_Node000004"><a xlink:title=" ">
<path fill="none" stroke="#63b8ff" d="M32.84,-40.48C42.94,-36.59 56.41,-31.57 68.5,-27.62 80.57,-23.69 94.08,-19.79 105.54,-16.64"/>
<polygon fill="#63b8ff" stroke="#63b8ff" points="106.39,-20.03 115.13,-14.04 104.57,-13.28 106.39,-20.03"/>
</a>
</g>
</g>
<!-- Node3&#45;&gt;Node3 -->
<g id="edge3_Node000003_Node000003" class="edge">
<title>Node3&#45;&gt;Node3</title>
<g id="a_edge3_Node000003_Node000003"><a xlink:title=" ">
<path fill="none" stroke="#63b8ff" d="M114.83,-56.54C106.48,-65.15 112.58,-74.25 133.12,-74.25 144.36,-74.25 151.28,-71.53 153.87,-67.65"/>
<polygon fill="#63b8ff" stroke="#63b8ff" points="157.32,-67.03 151.75,-58.02 150.48,-68.53 157.32,-67.03"/>
</a>
</g>
</g>
</g>
</svg>
</svg>

<style type='text/css'>
<![CDATA[
[data-mouse-over-selected='false'] { opacity: 0.7; }
[data-mouse-over-selected='true']  { opacity: 1.0; }
]]>
</style>
<script type="application/ecmascript"><![CDATA[
document.addEventListener('DOMContentLoaded', (event) => {
  highlightEdges();
  highlightAdjacentNodes();
});
]]></script>
</svg>
