<?xml version="1.0" encoding="UTF-8" standalone="no"?>
<!DOCTYPE svg PUBLIC "-//W3C//DTD SVG 1.1//EN"
 "http://www.w3.org/Graphics/SVG/1.1/DTD/svg11.dtd">
<!-- Generated by graphviz version 12.1.1 (20240910.0053)
 -->
<!-- Title: test2 Pages: 1 -->
<svg width="314pt" height="101pt"
 viewBox="0.00 0.00 314.00 101.25" xmlns="http://www.w3.org/2000/svg" xmlns:xlink="http://www.w3.org/1999/xlink">
<g id="graph0" class="graph" transform="scale(1 1) rotate(0) translate(4 97.25)">
<title>test2</title>
<!-- Node1 -->
<g id="Node000001" class="node">
<title>Node1</title>
<g id="a_Node000001"><a xlink:title=" ">
<polygon fill="#999999" stroke="#666666" points="37.75,-56.25 0,-56.25 0,-37 37.75,-37 37.75,-56.25"/>
<text text-anchor="middle" x="18.88" y="-42.75" font-family="Helvetica,sans-Serif" font-size="10.00">test2</text>
</a>
</g>
</g>
<!-- Node2 -->
<g id="Node000002" class="node">
<title>Node2</title>
<g id="a_Node000002"><a xlink:href="durand__kerner__roots_8cpp.html#a2c35b320ace8677f9b331faf94f8b2fd" target="_top" xlink:title=" ">
<polygon fill="white" stroke="#666666" points="174.5,-56.25 73.75,-56.25 73.75,-37 174.5,-37 174.5,-56.25"/>
<text text-anchor="middle" x="124.12" y="-42.75" font-family="Helvetica,sans-Serif" font-size="10.00">durand_kerner_algo</text>
</a>
</g>
</g>
<!-- Node1&#45;&gt;Node2 -->
<g id="edge1_Node000001_Node000002" class="edge">
<title>Node1&#45;&gt;Node2</title>
<g id="a_edge1_Node000001_Node000002"><a xlink:title=" ">
<path fill="none" stroke="#63b8ff" d="M37.86,-46.62C44.85,-46.62 53.29,-46.62 62.11,-46.62"/>
<polygon fill="#63b8ff" stroke="#63b8ff" points="61.9,-50.13 71.9,-46.63 61.9,-43.13 61.9,-50.13"/>
</a>
</g>
</g>
<!-- Node3 -->
<g id="Node000003" class="node">
<title>Node3</title>
<g id="a_Node000003"><a xlink:href="durand__kerner__roots_8cpp.html#a024b8bc4755863315456d573a6732377" target="_top" xlink:title=" ">
<polygon fill="white" stroke="#666666" points="306,-93.25 210.5,-93.25 210.5,-74 306,-74 306,-93.25"/>
<text text-anchor="middle" x="258.25" y="-79.75" font-family="Helvetica,sans-Serif" font-size="10.00">check_termination</text>
</a>
</g>
</g>
<!-- Node2&#45;&gt;Node3 -->
<g id="edge2_Node000002_Node000003" class="edge">
<title>Node2&#45;&gt;Node3</title>
<g id="a_edge2_Node000002_Node000003"><a xlink:title=" ">
<path fill="none" stroke="#63b8ff" d="M161.23,-56.74C176.38,-60.98 194.19,-65.97 210.33,-70.49"/>
<polygon fill="#63b8ff" stroke="#63b8ff" points="209.16,-73.79 219.73,-73.12 211.05,-67.05 209.16,-73.79"/>
</a>
</g>
</g>
<!-- Node4 -->
<g id="Node000004" class="node">
<title>Node4</title>
<g id="a_Node000004"><a xlink:href="durand__kerner__roots_8cpp.html#a90219e35062007d1f1b68e9af071ab5c" target="_top" xlink:title=" ">
<polygon fill="white" stroke="#666666" points="292.88,-56.25 223.62,-56.25 223.62,-37 292.88,-37 292.88,-56.25"/>
<text text-anchor="middle" x="258.25" y="-42.75" font-family="Helvetica,sans-Serif" font-size="10.00">complex_str</text>
</a>
</g>
</g>
<!-- Node2&#45;&gt;Node4 -->
<g id="edge3_Node000002_Node000004" class="edge">
<title>Node2&#45;&gt;Node4</title>
<g id="a_edge3_Node000002_Node000004"><a xlink:title=" ">
<path fill="none" stroke="#63b8ff" d="M174.7,-46.62C187.02,-46.62 200.15,-46.62 212.24,-46.62"/>
<polygon fill="#63b8ff" stroke="#63b8ff" points="211.93,-50.13 221.93,-46.63 211.93,-43.13 211.93,-50.13"/>
</a>
</g>
</g>
<!-- Node5 -->
<g id="Node000005" class="node">
<title>Node5</title>
<g id="a_Node000005"><a xlink:href="durand__kerner__roots_8cpp.html#ae2ab49ba1969d7a5988f9bc2c8924569" target="_top" xlink:title=" ">
<polygon fill="white" stroke="#666666" points="295.12,-19.25 221.38,-19.25 221.38,0 295.12,0 295.12,-19.25"/>
<text text-anchor="middle" x="258.25" y="-5.75" font-family="Helvetica,sans-Serif" font-size="10.00">poly_function</text>
</a>
</g>
</g>
<!-- Node2&#45;&gt;Node5 -->
<g id="edge4_Node000002_Node000005" class="edge">
<title>Node2&#45;&gt;Node5</title>
<g id="a_edge4_Node000002_Node000005"><a xlink:title=" ">
<path fill="none" stroke="#63b8ff" d="M161.23,-36.51C176.38,-32.27 194.19,-27.28 210.33,-22.76"/>
<polygon fill="#63b8ff" stroke="#63b8ff" points="211.05,-26.2 219.73,-20.13 209.16,-19.46 211.05,-26.2"/>
</a>
</g>
</g>
</g>
</svg>
