<?xml version="1.0" encoding="UTF-8" standalone="no"?>
<!DOCTYPE svg PUBLIC "-//W3C//DTD SVG 1.1//EN"
 "http://www.w3.org/Graphics/SVG/1.1/DTD/svg11.dtd">
<!-- Generated by graphviz version 12.1.1 (20240910.0053)
 -->
<!-- Title: main Pages: 1 -->
<svg width="259pt" height="120pt"
 viewBox="0.00 0.00 259.25 120.25" xmlns="http://www.w3.org/2000/svg" xmlns:xlink="http://www.w3.org/1999/xlink">
<g id="graph0" class="graph" transform="scale(1 1) rotate(0) translate(4 116.25)">
<title>main</title>
<!-- Node1 -->
<g id="Node000001" class="node">
<title>Node1</title>
<g id="a_Node000001"><a xlink:title="Main function.">
<polygon fill="#999999" stroke="#666666" points="37,-74.25 0,-74.25 0,-55 37,-55 37,-74.25"/>
<text text-anchor="middle" x="18.5" y="-60.75" font-family="Helvetica,sans-Serif" font-size="10.00">main</text>
</a>
</g>
</g>
<!-- Node2 -->
<g id="Node000002" class="node">
<title>Node2</title>
<g id="a_Node000002"><a xlink:href="prime__numbers_8cpp.html#a9575f3a51eeb8a57d657b3db6a4b441a" target="_top" xlink:title=" ">
<polygon fill="white" stroke="#666666" points="251.25,-112.25 206,-112.25 206,-93 251.25,-93 251.25,-112.25"/>
<text text-anchor="middle" x="228.62" y="-98.75" font-family="Helvetica,sans-Serif" font-size="10.00">primes</text>
</a>
</g>
</g>
<!-- Node1&#45;&gt;Node2 -->
<g id="edge1_Node000001_Node000002" class="edge">
<title>Node1&#45;&gt;Node2</title>
<g id="a_edge1_Node000001_Node000002"><a xlink:title=" ">
<path fill="none" stroke="#63b8ff" d="M29.48,-74.66C39.49,-83.96 55.85,-97.15 73,-102.62 113.25,-115.47 162.46,-112.52 194.39,-108.34"/>
<polygon fill="#63b8ff" stroke="#63b8ff" points="194.83,-111.81 204.23,-106.93 193.83,-104.88 194.83,-111.81"/>
</a>
</g>
</g>
<!-- Node3 -->
<g id="Node000003" class="node">
<title>Node3</title>
<g id="a_Node000003"><a xlink:href="namespacemath.html#ad09d59850865012a6fd95d89954c82e4" target="_top" xlink:title="Prints all the indexes of true values in the passed std::vector.">
<polygon fill="white" stroke="#666666" points="170,-93.25 73,-93.25 73,-74 170,-74 170,-93.25"/>
<text text-anchor="middle" x="121.5" y="-79.75" font-family="Helvetica,sans-Serif" font-size="10.00">math::print_primes</text>
</a>
</g>
</g>
<!-- Node1&#45;&gt;Node3 -->
<g id="edge2_Node000001_Node000003" class="edge">
<title>Node1&#45;&gt;Node3</title>
<g id="a_edge2_Node000001_Node000003"><a xlink:title=" ">
<path fill="none" stroke="#63b8ff" d="M37.09,-67.93C44.16,-69.26 52.76,-70.88 61.72,-72.57"/>
<polygon fill="#63b8ff" stroke="#63b8ff" points="60.77,-75.95 71.25,-74.36 62.07,-69.07 60.77,-75.95"/>
</a>
</g>
</g>
<!-- Node4 -->
<g id="Node000004" class="node">
<title>Node4</title>
<g id="a_Node000004"><a xlink:href="namespacemath.html#a91366864111e1fac29722ca45e02ea8f" target="_top" xlink:title="Performs the sieve.">
<polygon fill="white" stroke="#666666" points="155,-56.25 88,-56.25 88,-37 155,-37 155,-56.25"/>
<text text-anchor="middle" x="121.5" y="-42.75" font-family="Helvetica,sans-Serif" font-size="10.00">math::sieve</text>
</a>
</g>
</g>
<!-- Node1&#45;&gt;Node4 -->
<g id="edge4_Node000001_Node000004" class="edge">
<title>Node1&#45;&gt;Node4</title>
<g id="a_edge4_Node000001_Node000004"><a xlink:title=" ">
<path fill="none" stroke="#63b8ff" d="M37.09,-61.49C48.06,-59.53 62.7,-56.93 76.65,-54.44"/>
<polygon fill="#63b8ff" stroke="#63b8ff" points="76.89,-57.95 86.12,-52.75 75.66,-51.06 76.89,-57.95"/>
</a>
</g>
</g>
<!-- Node5 -->
<g id="Node000005" class="node">
<title>Node5</title>
<g id="a_Node000005"><a xlink:href="caesar__cipher_8cpp.html#ae1a3968e7947464bee7714f6d43b7002" target="_top" xlink:title=" ">
<polygon fill="white" stroke="#666666" points="137.75,-19.25 105.25,-19.25 105.25,0 137.75,0 137.75,-19.25"/>
<text text-anchor="middle" x="121.5" y="-5.75" font-family="Helvetica,sans-Serif" font-size="10.00">test</text>
</a>
</g>
</g>
<!-- Node1&#45;&gt;Node5 -->
<g id="edge5_Node000001_Node000005" class="edge">
<title>Node1&#45;&gt;Node5</title>
<g id="a_edge5_Node000001_Node000005"><a xlink:title=" ">
<path fill="none" stroke="#63b8ff" d="M32.13,-54.58C42.63,-46.55 58.2,-35.4 73,-27.62 79.76,-24.07 87.39,-20.86 94.52,-18.17"/>
<polygon fill="#63b8ff" stroke="#63b8ff" points="95.45,-21.56 103.69,-14.9 93.1,-14.96 95.45,-21.56"/>
</a>
</g>
</g>
<!-- Node3&#45;&gt;Node2 -->
<g id="edge3_Node000003_Node000002" class="edge">
<title>Node3&#45;&gt;Node2</title>
<g id="a_edge3_Node000003_Node000002"><a xlink:title=" ">
<path fill="none" stroke="#63b8ff" d="M170.45,-92.29C178.65,-93.77 187,-95.28 194.69,-96.67"/>
<polygon fill="#63b8ff" stroke="#63b8ff" points="193.81,-100.07 204.27,-98.4 195.05,-93.18 193.81,-100.07"/>
</a>
</g>
</g>
</g>
</svg>
