<?xml version="1.0" encoding="UTF-8" standalone="no"?>
<!DOCTYPE svg PUBLIC "-//W3C//DTD SVG 1.1//EN"
 "http://www.w3.org/Graphics/SVG/1.1/DTD/svg11.dtd">
<!-- Generated by graphviz version 12.1.1 (20240910.0053)
 -->
<!-- Title: main Pages: 1 -->
<svg width="190pt" height="100pt"
 viewBox="0.00 0.00 190.00 100.25" xmlns="http://www.w3.org/2000/svg" xmlns:xlink="http://www.w3.org/1999/xlink">
<g id="graph0" class="graph" transform="scale(1 1) rotate(0) translate(4 96.25)">
<title>main</title>
<!-- Node1 -->
<g id="Node000001" class="node">
<title>Node1</title>
<g id="a_Node000001"><a xlink:title=" ">
<polygon fill="#999999" stroke="#666666" points="37,-46.25 0,-46.25 0,-27 37,-27 37,-46.25"/>
<text text-anchor="middle" x="18.5" y="-32.75" font-family="Helvetica,sans-Serif" font-size="10.00">main</text>
</a>
</g>
</g>
<!-- Node2 -->
<g id="Node000002" class="node">
<title>Node2</title>
<g id="a_Node000002"><a xlink:href="fast__power_8cpp.html#a0d4e3f0099a6975b74a314a35bd0f94d" target="_top" xlink:title=" ">
<polygon fill="white" stroke="#666666" points="173.75,-74.25 81.25,-74.25 81.25,-55 173.75,-55 173.75,-74.25"/>
<text text-anchor="middle" x="127.5" y="-60.75" font-family="Helvetica,sans-Serif" font-size="10.00">fast_power_linear</text>
</a>
</g>
</g>
<!-- Node1&#45;&gt;Node2 -->
<g id="edge1_Node000001_Node000002" class="edge">
<title>Node1&#45;&gt;Node2</title>
<g id="a_edge1_Node000001_Node000002"><a xlink:title=" ">
<path fill="none" stroke="#63b8ff" d="M37.17,-41.25C48.14,-44.12 62.84,-47.97 77.14,-51.71"/>
<polygon fill="#63b8ff" stroke="#63b8ff" points="75.9,-55 86.46,-54.15 77.67,-48.23 75.9,-55"/>
</a>
</g>
</g>
<!-- Node3 -->
<g id="Node000003" class="node">
<title>Node3</title>
<g id="a_Node000003"><a xlink:href="fast__power_8cpp.html#a8399b847626e5bba983cab7c7918b445" target="_top" xlink:title=" ">
<polygon fill="white" stroke="#666666" points="182,-19.25 73,-19.25 73,0 182,0 182,-19.25"/>
<text text-anchor="middle" x="127.5" y="-5.75" font-family="Helvetica,sans-Serif" font-size="10.00">fast_power_recursive</text>
</a>
</g>
</g>
<!-- Node1&#45;&gt;Node3 -->
<g id="edge3_Node000001_Node000003" class="edge">
<title>Node1&#45;&gt;Node3</title>
<g id="a_edge3_Node000001_Node000003"><a xlink:title=" ">
<path fill="none" stroke="#63b8ff" d="M37.17,-32.17C47.75,-29.5 61.8,-25.95 75.62,-22.46"/>
<polygon fill="#63b8ff" stroke="#63b8ff" points="76.27,-25.91 85.11,-20.07 74.56,-19.12 76.27,-25.91"/>
</a>
</g>
</g>
<!-- Node2&#45;&gt;Node2 -->
<g id="edge2_Node000002_Node000002" class="edge">
<title>Node2&#45;&gt;Node2</title>
<g id="a_edge2_Node000002_Node000002"><a xlink:title=" ">
<path fill="none" stroke="#63b8ff" d="M110.44,-74.54C102.65,-83.15 108.34,-92.25 127.5,-92.25 137.98,-92.25 144.43,-89.53 146.85,-85.65"/>
<polygon fill="#63b8ff" stroke="#63b8ff" points="150.31,-85.11 144.87,-76.02 143.45,-86.52 150.31,-85.11"/>
</a>
</g>
</g>
<!-- Node3&#45;&gt;Node3 -->
<g id="edge4_Node000003_Node000003" class="edge">
<title>Node3&#45;&gt;Node3</title>
<g id="a_edge4_Node000003_Node000003"><a xlink:title=" ">
<path fill="none" stroke="#63b8ff" d="M110.44,-19.54C102.65,-28.15 108.34,-37.25 127.5,-37.25 137.98,-37.25 144.43,-34.53 146.85,-30.65"/>
<polygon fill="#63b8ff" stroke="#63b8ff" points="150.31,-30.11 144.87,-21.02 143.45,-31.52 150.31,-30.11"/>
</a>
</g>
</g>
</g>
</svg>
