<?xml version="1.0" encoding="UTF-8" standalone="no"?>
<!DOCTYPE svg PUBLIC "-//W3C//DTD SVG 1.1//EN"
 "http://www.w3.org/Graphics/SVG/1.1/DTD/svg11.dtd">
<!-- Generated by graphviz version 12.1.1 (20240910.0053)
 -->
<!-- Title: main Pages: 1 -->
<svg width="310pt" height="64pt"
 viewBox="0.00 0.00 310.25 64.25" xmlns="http://www.w3.org/2000/svg" xmlns:xlink="http://www.w3.org/1999/xlink">
<g id="graph0" class="graph" transform="scale(1 1) rotate(0) translate(4 60.25)">
<title>main</title>
<!-- Node1 -->
<g id="Node000001" class="node">
<title>Node1</title>
<g id="a_Node000001"><a xlink:title=" ">
<polygon fill="#999999" stroke="#666666" points="37,-37.25 0,-37.25 0,-18 37,-18 37,-37.25"/>
<text text-anchor="middle" x="18.5" y="-23.75" font-family="Helvetica,sans-Serif" font-size="10.00">main</text>
</a>
</g>
</g>
<!-- Node2 -->
<g id="Node000002" class="node">
<title>Node2</title>
<g id="a_Node000002"><a xlink:href="fibonacci__search_8cpp.html#a5e144326104e57a3808aed7eb098db0d" target="_top" xlink:title="random tests for checking performance when an array doesn&#39;t contain an element">
<polygon fill="white" stroke="#666666" points="176.75,-56.25 73,-56.25 73,-37 176.75,-37 176.75,-56.25"/>
<text text-anchor="middle" x="124.88" y="-42.75" font-family="Helvetica,sans-Serif" font-size="10.00">no_occurence_tests</text>
</a>
</g>
</g>
<!-- Node1&#45;&gt;Node2 -->
<g id="edge1_Node000001_Node000002" class="edge">
<title>Node1&#45;&gt;Node2</title>
<g id="a_edge1_Node000001_Node000002"><a xlink:title=" ">
<path fill="none" stroke="#63b8ff" d="M37.21,-30.85C44.24,-32.13 52.78,-33.68 61.72,-35.31"/>
<polygon fill="#63b8ff" stroke="#63b8ff" points="60.81,-38.7 71.27,-37.05 62.06,-31.81 60.81,-38.7"/>
</a>
</g>
</g>
<!-- Node4 -->
<g id="Node000004" class="node">
<title>Node4</title>
<g id="a_Node000004"><a xlink:href="fibonacci__search_8cpp.html#a2aa09bef74ee063c1331de0883af4f4f" target="_top" xlink:title="random tests which cover cases when we have one, multiple or zero occurences of the value we&#39;re looki...">
<polygon fill="white" stroke="#666666" points="162.5,-19.25 87.25,-19.25 87.25,0 162.5,0 162.5,-19.25"/>
<text text-anchor="middle" x="124.88" y="-5.75" font-family="Helvetica,sans-Serif" font-size="10.00">random_tests</text>
</a>
</g>
</g>
<!-- Node1&#45;&gt;Node4 -->
<g id="edge3_Node000001_Node000004" class="edge">
<title>Node1&#45;&gt;Node4</title>
<g id="a_edge3_Node000001_Node000004"><a xlink:title=" ">
<path fill="none" stroke="#63b8ff" d="M37.21,-24.57C47.94,-22.72 62.21,-20.26 76.06,-17.87"/>
<polygon fill="#63b8ff" stroke="#63b8ff" points="76.25,-21.39 85.51,-16.24 75.06,-14.49 76.25,-21.39"/>
</a>
</g>
</g>
<!-- Node3 -->
<g id="Node000003" class="node">
<title>Node3</title>
<g id="a_Node000003"><a xlink:href="fibonacci__search_8cpp.html#a0bc61b3903d9a53061bf31e5d110fe61" target="_top" xlink:title="using fibonacci search algorithm finds an index of a given element in a sorted array">
<polygon fill="white" stroke="#666666" points="302.25,-37.25 212.75,-37.25 212.75,-18 302.25,-18 302.25,-37.25"/>
<text text-anchor="middle" x="257.5" y="-23.75" font-family="Helvetica,sans-Serif" font-size="10.00">fibonacci_search</text>
</a>
</g>
</g>
<!-- Node2&#45;&gt;Node3 -->
<g id="edge2_Node000002_Node000003" class="edge">
<title>Node2&#45;&gt;Node3</title>
<g id="a_edge2_Node000002_Node000003"><a xlink:title=" ">
<path fill="none" stroke="#63b8ff" d="M177.13,-39.17C185.09,-38.01 193.35,-36.81 201.4,-35.64"/>
<polygon fill="#63b8ff" stroke="#63b8ff" points="201.7,-39.13 211.09,-34.23 200.69,-32.21 201.7,-39.13"/>
</a>
</g>
</g>
<!-- Node4&#45;&gt;Node3 -->
<g id="edge4_Node000004_Node000003" class="edge">
<title>Node4&#45;&gt;Node3</title>
<g id="a_edge4_Node000004_Node000003"><a xlink:title=" ">
<path fill="none" stroke="#63b8ff" d="M162.96,-14.73C174.86,-16.37 188.31,-18.23 201.22,-20.01"/>
<polygon fill="#63b8ff" stroke="#63b8ff" points="200.5,-23.44 210.88,-21.34 201.45,-16.51 200.5,-23.44"/>
</a>
</g>
</g>
</g>
</svg>
