<?xml version="1.0" encoding="UTF-8" standalone="no"?>
<!DOCTYPE svg PUBLIC "-//W3C//DTD SVG 1.1//EN"
 "http://www.w3.org/Graphics/SVG/1.1/DTD/svg11.dtd">
<!-- Generated by graphviz version 12.1.1 (20240910.0053)
 -->
<!-- Title: main Pages: 1 -->
<svg width="113pt" height="45pt"
 viewBox="0.00 0.00 112.75 45.25" xmlns="http://www.w3.org/2000/svg" xmlns:xlink="http://www.w3.org/1999/xlink">
<g id="graph0" class="graph" transform="scale(1 1) rotate(0) translate(4 41.25)">
<title>main</title>
<!-- Node1 -->
<g id="Node000001" class="node">
<title>Node1</title>
<g id="a_Node000001"><a xlink:title=" ">
<polygon fill="#999999" stroke="#666666" points="37,-19.25 0,-19.25 0,0 37,0 37,-19.25"/>
<text text-anchor="middle" x="18.5" y="-5.75" font-family="Helvetica,sans-Serif" font-size="10.00">main</text>
</a>
</g>
</g>
<!-- Node2 -->
<g id="Node000002" class="node">
<title>Node2</title>
<g id="a_Node000002"><a xlink:href="gcd__recursive__euclidean_8cpp.html#ae48807fa2b7000afae599e67f327545e" target="_top" xlink:title=" ">
<polygon fill="white" stroke="#666666" points="104.75,-19.25 73,-19.25 73,0 104.75,0 104.75,-19.25"/>
<text text-anchor="middle" x="88.88" y="-5.75" font-family="Helvetica,sans-Serif" font-size="10.00">gcd</text>
</a>
</g>
</g>
<!-- Node1&#45;&gt;Node2 -->
<g id="edge1_Node000001_Node000002" class="edge">
<title>Node1&#45;&gt;Node2</title>
<g id="a_edge1_Node000001_Node000002"><a xlink:title=" ">
<path fill="none" stroke="#63b8ff" d="M37.46,-9.62C44.72,-9.62 53.24,-9.62 61.19,-9.62"/>
<polygon fill="#63b8ff" stroke="#63b8ff" points="61.06,-13.13 71.06,-9.63 61.06,-6.13 61.06,-13.13"/>
</a>
</g>
</g>
<!-- Node2&#45;&gt;Node2 -->
<g id="edge2_Node000002_Node000002" class="edge">
<title>Node2&#45;&gt;Node2</title>
<g id="a_edge2_Node000002_Node000002"><a xlink:title=" ">
<path fill="none" stroke="#63b8ff" d="M77.86,-19.54C72.83,-28.15 76.5,-37.25 88.88,-37.25 95.64,-37.25 99.8,-34.53 101.37,-30.65"/>
<polygon fill="#63b8ff" stroke="#63b8ff" points="104.88,-30.49 100.09,-21.04 97.94,-31.41 104.88,-30.49"/>
</a>
</g>
</g>
</g>
</svg>
