<?xml version="1.0" encoding="UTF-8" standalone="no"?>
<!DOCTYPE svg PUBLIC "-//W3C//DTD SVG 1.1//EN"
 "http://www.w3.org/Graphics/SVG/1.1/DTD/svg11.dtd">
<!-- Generated by graphviz version 12.1.1 (20240910.0053)
 -->
<!-- Title: sample_test Pages: 1 -->
<svg width="446pt" height="209pt"
 viewBox="0.00 0.00 446.00 209.12" xmlns="http://www.w3.org/2000/svg" xmlns:xlink="http://www.w3.org/1999/xlink">
<g id="graph0" class="graph" transform="scale(1 1) rotate(0) translate(4 205.12)">
<title>sample_test</title>
<!-- Node1 -->
<g id="Node000001" class="node">
<title>Node1</title>
<g id="a_Node000001"><a xlink:title="Tests the sampling method of the geometric distribution.">
<polygon fill="#999999" stroke="#666666" points="69.25,-90.5 0,-90.5 0,-71.25 69.25,-71.25 69.25,-90.5"/>
<text text-anchor="middle" x="34.62" y="-77" font-family="Helvetica,sans-Serif" font-size="10.00">sample_test</text>
</a>
</g>
</g>
<!-- Node2 -->
<g id="Node000002" class="node">
<title>Node2</title>
<g id="a_Node000002"><a xlink:href="classprobability_1_1geometric__dist_1_1geometric__distribution.html#a8aae1cebcf42ed2332f1c7217c401aa3" target="_top" xlink:title="Generates a (discrete) sample according to the geometrical distribution.">
<polygon fill="white" stroke="#666666" points="243.5,-161.75 105.25,-161.75 105.25,-120 243.5,-120 243.5,-161.75"/>
<text text-anchor="start" x="113.25" y="-148.25" font-family="Helvetica,sans-Serif" font-size="10.00">probability::geometric</text>
<text text-anchor="start" x="113.25" y="-137" font-family="Helvetica,sans-Serif" font-size="10.00">_dist::geometric_distribution</text>
<text text-anchor="middle" x="174.38" y="-125.75" font-family="Helvetica,sans-Serif" font-size="10.00">::draw_sample</text>
</a>
</g>
</g>
<!-- Node1&#45;&gt;Node2 -->
<g id="edge1_Node000001_Node000002" class="edge">
<title>Node1&#45;&gt;Node2</title>
<g id="a_edge1_Node000001_Node000002"><a xlink:title=" ">
<path fill="none" stroke="#63b8ff" d="M58.68,-90.92C73.87,-97.53 94.51,-106.52 114.09,-115.05"/>
<polygon fill="#63b8ff" stroke="#63b8ff" points="112.55,-118.2 123.12,-118.98 115.35,-111.78 112.55,-118.2"/>
</a>
</g>
</g>
<!-- Node5 -->
<g id="Node000005" class="node">
<title>Node5</title>
<g id="a_Node000005"><a xlink:href="classprobability_1_1geometric__dist_1_1geometric__distribution.html#a41051365f8ac7700f2ed5880a6760413" target="_top" xlink:title="The expected value of a geometrically distributed random variable X.">
<polygon fill="white" stroke="#666666" points="243.5,-101.75 105.25,-101.75 105.25,-60 243.5,-60 243.5,-101.75"/>
<text text-anchor="start" x="113.25" y="-88.25" font-family="Helvetica,sans-Serif" font-size="10.00">probability::geometric</text>
<text text-anchor="start" x="113.25" y="-77" font-family="Helvetica,sans-Serif" font-size="10.00">_dist::geometric_distribution</text>
<text text-anchor="middle" x="174.38" y="-65.75" font-family="Helvetica,sans-Serif" font-size="10.00">::expected_value</text>
</a>
</g>
</g>
<!-- Node1&#45;&gt;Node5 -->
<g id="edge5_Node000001_Node000005" class="edge">
<title>Node1&#45;&gt;Node5</title>
<g id="a_edge5_Node000001_Node000005"><a xlink:title=" ">
<path fill="none" stroke="#63b8ff" d="M69.68,-80.88C77.07,-80.88 85.19,-80.88 93.53,-80.88"/>
<polygon fill="#63b8ff" stroke="#63b8ff" points="93.48,-84.38 103.48,-80.88 93.48,-77.38 93.48,-84.38"/>
</a>
</g>
</g>
<!-- Node6 -->
<g id="Node000006" class="node">
<title>Node6</title>
<g id="a_Node000006"><a xlink:href="classprobability_1_1geometric__dist_1_1geometric__distribution.html#aea8b0d649f0dc9a6f8baf3341a0b4960" target="_top" xlink:title="The variance of a geometrically distributed random variable X.">
<polygon fill="white" stroke="#666666" points="243.5,-41.75 105.25,-41.75 105.25,0 243.5,0 243.5,-41.75"/>
<text text-anchor="start" x="113.25" y="-28.25" font-family="Helvetica,sans-Serif" font-size="10.00">probability::geometric</text>
<text text-anchor="start" x="113.25" y="-17" font-family="Helvetica,sans-Serif" font-size="10.00">_dist::geometric_distribution</text>
<text text-anchor="middle" x="174.38" y="-5.75" font-family="Helvetica,sans-Serif" font-size="10.00">::variance</text>
</a>
</g>
</g>
<!-- Node1&#45;&gt;Node6 -->
<g id="edge6_Node000001_Node000006" class="edge">
<title>Node1&#45;&gt;Node6</title>
<g id="a_edge6_Node000001_Node000006"><a xlink:title=" ">
<path fill="none" stroke="#63b8ff" d="M58.68,-70.83C73.87,-64.22 94.51,-55.23 114.09,-46.7"/>
<polygon fill="#63b8ff" stroke="#63b8ff" points="115.35,-49.97 123.12,-42.77 112.55,-43.55 115.35,-49.97"/>
</a>
</g>
</g>
<!-- Node3 -->
<g id="Node000003" class="node">
<title>Node3</title>
<g id="a_Node000003"><a xlink:href="geometric__dist_8cpp.html#a82964ca6180507deb5fafc71050012ba" target="_top" xlink:title="Returns a random number between [0,1].">
<polygon fill="white" stroke="#666666" points="417.75,-183.12 299.75,-183.12 299.75,-152.62 417.75,-152.62 417.75,-183.12"/>
<text text-anchor="start" x="307.75" y="-169.62" font-family="Helvetica,sans-Serif" font-size="10.00">probability::geometric</text>
<text text-anchor="middle" x="358.75" y="-158.38" font-family="Helvetica,sans-Serif" font-size="10.00">_dist::generate_uniform</text>
</a>
</g>
</g>
<!-- Node2&#45;&gt;Node3 -->
<g id="edge2_Node000002_Node000003" class="edge">
<title>Node2&#45;&gt;Node3</title>
<g id="a_edge2_Node000002_Node000003"><a xlink:title=" ">
<path fill="none" stroke="#63b8ff" d="M243.8,-151.01C258.38,-153.16 273.79,-155.44 288.4,-157.61"/>
<polygon fill="#63b8ff" stroke="#63b8ff" points="287.49,-161.01 297.9,-159.01 288.52,-154.09 287.49,-161.01"/>
</a>
</g>
</g>
<!-- Node4 -->
<g id="Node000004" class="node">
<title>Node4</title>
<g id="a_Node000004"><a xlink:href="classprobability_1_1geometric__dist_1_1geometric__distribution.html#aaf762e88c66918d7afda4234f28a7ddf" target="_top" xlink:title="The inverse cumulative distribution function.">
<polygon fill="white" stroke="#666666" points="438,-134.75 279.5,-134.75 279.5,-93 438,-93 438,-134.75"/>
<text text-anchor="start" x="287.5" y="-121.25" font-family="Helvetica,sans-Serif" font-size="10.00">probability::geometric</text>
<text text-anchor="start" x="287.5" y="-110" font-family="Helvetica,sans-Serif" font-size="10.00">_dist::geometric_distribution</text>
<text text-anchor="middle" x="358.75" y="-98.75" font-family="Helvetica,sans-Serif" font-size="10.00">::inverse_cumulative_distribution</text>
</a>
</g>
</g>
<!-- Node2&#45;&gt;Node4 -->
<g id="edge4_Node000002_Node000004" class="edge">
<title>Node2&#45;&gt;Node4</title>
<g id="a_edge4_Node000002_Node000004"><a xlink:title=" ">
<path fill="none" stroke="#63b8ff" d="M243.8,-130.74C251.64,-129.58 259.71,-128.39 267.76,-127.2"/>
<polygon fill="#63b8ff" stroke="#63b8ff" points="268.25,-130.66 277.63,-125.74 267.22,-123.74 268.25,-130.66"/>
</a>
</g>
</g>
<!-- Node3&#45;&gt;Node3 -->
<g id="edge3_Node000003_Node000003" class="edge">
<title>Node3&#45;&gt;Node3</title>
<g id="a_edge3_Node000003_Node000003"><a xlink:title=" ">
<path fill="none" stroke="#63b8ff" d="M326.08,-183.61C319.41,-192.68 330.3,-201.12 358.75,-201.12 374.31,-201.12 384.61,-198.6 389.67,-194.83"/>
<polygon fill="#63b8ff" stroke="#63b8ff" points="393.1,-195.53 391.19,-185.11 386.19,-194.45 393.1,-195.53"/>
</a>
</g>
</g>
</g>
</svg>
