<?xml version="1.0" encoding="UTF-8" standalone="no"?>
<!DOCTYPE svg PUBLIC "-//W3C//DTD SVG 1.1//EN"
 "http://www.w3.org/Graphics/SVG/1.1/DTD/svg11.dtd">
<!-- Generated by graphviz version 12.1.1 (20240910.0053)
 -->
<!-- Title: main Pages: 1 -->
<svg width="239pt" height="64pt"
 viewBox="0.00 0.00 239.00 64.25" xmlns="http://www.w3.org/2000/svg" xmlns:xlink="http://www.w3.org/1999/xlink">
<g id="graph0" class="graph" transform="scale(1 1) rotate(0) translate(4 60.25)">
<title>main</title>
<!-- Node1 -->
<g id="Node000001" class="node">
<title>Node1</title>
<g id="a_Node000001"><a xlink:title=" ">
<polygon fill="#999999" stroke="#666666" points="37,-38.25 0,-38.25 0,-19 37,-19 37,-38.25"/>
<text text-anchor="middle" x="18.5" y="-24.75" font-family="Helvetica,sans-Serif" font-size="10.00">main</text>
</a>
</g>
</g>
<!-- Node2 -->
<g id="Node000002" class="node">
<title>Node2</title>
<g id="a_Node000002"><a xlink:href="namespacegraph.html#a9125ceb66bfbec3093bba64c2c1e99e2" target="_top" xlink:title="Function that add edge between two nodes or vertices of graph.">
<polygon fill="white" stroke="#666666" points="231,-56.25 146.75,-56.25 146.75,-37 231,-37 231,-56.25"/>
<text text-anchor="middle" x="188.88" y="-42.75" font-family="Helvetica,sans-Serif" font-size="10.00">graph::addEdge</text>
</a>
</g>
</g>
<!-- Node1&#45;&gt;Node2 -->
<g id="edge1_Node000001_Node000002" class="edge">
<title>Node1&#45;&gt;Node2</title>
<g id="a_edge1_Node000001_Node000002"><a xlink:title=" ">
<path fill="none" stroke="#63b8ff" d="M37.41,-36.72C47.61,-40.88 60.76,-45.52 73,-47.62 93.03,-51.08 115.32,-51.62 134.9,-51.03"/>
<polygon fill="#63b8ff" stroke="#63b8ff" points="135.03,-54.52 144.87,-50.61 134.73,-47.53 135.03,-54.52"/>
</a>
</g>
</g>
<!-- Node3 -->
<g id="Node000003" class="node">
<title>Node3</title>
<g id="a_Node000003"><a xlink:href="namespacegraph.html#adc68cbc8ba09eb1142265935c0d45b84" target="_top" xlink:title="Function runs the dijkstra algorithm for some source vertex and target vertex in the graph and return...">
<polygon fill="white" stroke="#666666" points="227.62,-19.25 150.12,-19.25 150.12,0 227.62,0 227.62,-19.25"/>
<text text-anchor="middle" x="188.88" y="-5.75" font-family="Helvetica,sans-Serif" font-size="10.00">graph::dijkstra</text>
</a>
</g>
</g>
<!-- Node1&#45;&gt;Node3 -->
<g id="edge2_Node000001_Node000003" class="edge">
<title>Node1&#45;&gt;Node3</title>
<g id="a_edge2_Node000001_Node000003"><a xlink:title=" ">
<path fill="none" stroke="#63b8ff" d="M37.41,-20.53C47.61,-16.37 60.76,-11.73 73,-9.62 94.29,-5.96 118.14,-5.39 138.56,-5.96"/>
<polygon fill="#63b8ff" stroke="#63b8ff" points="138.19,-9.45 148.32,-6.34 138.46,-2.46 138.19,-9.45"/>
</a>
</g>
</g>
<!-- Node4 -->
<g id="Node000004" class="node">
<title>Node4</title>
<g id="a_Node000004"><a xlink:href="graph_2dijkstra_8cpp.html#a88ec9ad42717780d6caaff9d3d6977f9" target="_top" xlink:title=" ">
<polygon fill="white" stroke="#666666" points="110.75,-38.25 73,-38.25 73,-19 110.75,-19 110.75,-38.25"/>
<text text-anchor="middle" x="91.88" y="-24.75" font-family="Helvetica,sans-Serif" font-size="10.00">tests</text>
</a>
</g>
</g>
<!-- Node1&#45;&gt;Node4 -->
<g id="edge3_Node000001_Node000004" class="edge">
<title>Node1&#45;&gt;Node4</title>
<g id="a_edge3_Node000001_Node000004"><a xlink:title=" ">
<path fill="none" stroke="#63b8ff" d="M37.14,-28.62C44.55,-28.62 53.37,-28.62 61.69,-28.62"/>
<polygon fill="#63b8ff" stroke="#63b8ff" points="61.43,-32.13 71.43,-28.63 61.43,-25.13 61.43,-32.13"/>
</a>
</g>
</g>
<!-- Node4&#45;&gt;Node2 -->
<g id="edge4_Node000004_Node000002" class="edge">
<title>Node4&#45;&gt;Node2</title>
<g id="a_edge4_Node000004_Node000002"><a xlink:title=" ">
<path fill="none" stroke="#63b8ff" d="M111.19,-32.1C118.24,-33.43 126.7,-35.03 135.37,-36.68"/>
<polygon fill="#63b8ff" stroke="#63b8ff" points="134.43,-40.06 144.91,-38.48 135.74,-33.18 134.43,-40.06"/>
</a>
</g>
</g>
<!-- Node4&#45;&gt;Node3 -->
<g id="edge5_Node000004_Node000003" class="edge">
<title>Node4&#45;&gt;Node3</title>
<g id="a_edge5_Node000004_Node000003"><a xlink:title=" ">
<path fill="none" stroke="#63b8ff" d="M111.19,-24.96C119.18,-23.36 128.97,-21.41 138.85,-19.43"/>
<polygon fill="#63b8ff" stroke="#63b8ff" points="139.35,-22.9 148.47,-17.51 137.98,-16.04 139.35,-22.9"/>
</a>
</g>
</g>
</g>
</svg>
