<?xml version="1.0" encoding="UTF-8" standalone="no"?>
<!DOCTYPE svg PUBLIC "-//W3C//DTD SVG 1.1//EN"
 "http://www.w3.org/Graphics/SVG/1.1/DTD/svg11.dtd">
<!-- Generated by graphviz version 12.1.1 (20240910.0053)
 -->
<!-- Title: main Pages: 1 -->
<svg width="661pt" height="180pt"
 viewBox="0.00 0.00 661.25 179.50" xmlns="http://www.w3.org/2000/svg" xmlns:xlink="http://www.w3.org/1999/xlink">
<g id="graph0" class="graph" transform="scale(1 1) rotate(0) translate(4 175.5)">
<title>main</title>
<!-- Node1 -->
<g id="Node000001" class="node">
<title>Node1</title>
<g id="a_Node000001"><a xlink:title=" ">
<polygon fill="#999999" stroke="#666666" points="37,-115.88 0,-115.88 0,-96.62 37,-96.62 37,-115.88"/>
<text text-anchor="middle" x="18.5" y="-102.38" font-family="Helvetica,sans-Serif" font-size="10.00">main</text>
</a>
</g>
</g>
<!-- Node2 -->
<g id="Node000002" class="node">
<title>Node2</title>
<g id="a_Node000002"><a xlink:href="hill__cipher_8cpp.html#a3147ad576f8a94a2a6b66948672b452b" target="_top" xlink:title="Self test 1 &#45; using 3x3 randomly generated key.">
<polygon fill="white" stroke="#666666" points="110.75,-143.88 73,-143.88 73,-124.62 110.75,-124.62 110.75,-143.88"/>
<text text-anchor="middle" x="91.88" y="-130.38" font-family="Helvetica,sans-Serif" font-size="10.00">test1</text>
</a>
</g>
</g>
<!-- Node1&#45;&gt;Node2 -->
<g id="edge1_Node000001_Node000002" class="edge">
<title>Node1&#45;&gt;Node2</title>
<g id="a_edge1_Node000001_Node000002"><a xlink:title=" ">
<path fill="none" stroke="#63b8ff" d="M37.14,-113.17C44.72,-116.14 53.77,-119.69 62.27,-123.03"/>
<polygon fill="#63b8ff" stroke="#63b8ff" points="60.94,-126.27 71.53,-126.66 63.5,-119.75 60.94,-126.27"/>
</a>
</g>
</g>
<!-- Node10 -->
<g id="Node000010" class="node">
<title>Node10</title>
<g id="a_Node000010"><a xlink:href="hill__cipher_8cpp.html#a04391124480d2a49f2dec900237b0712" target="_top" xlink:title="Self test 2 &#45; using 8x8 randomly generated key.">
<polygon fill="white" stroke="#666666" points="110.75,-88.88 73,-88.88 73,-69.62 110.75,-69.62 110.75,-88.88"/>
<text text-anchor="middle" x="91.88" y="-75.38" font-family="Helvetica,sans-Serif" font-size="10.00">test2</text>
</a>
</g>
</g>
<!-- Node1&#45;&gt;Node10 -->
<g id="edge11_Node000001_Node000010" class="edge">
<title>Node1&#45;&gt;Node10</title>
<g id="a_edge11_Node000001_Node000010"><a xlink:title=" ">
<path fill="none" stroke="#63b8ff" d="M37.14,-99.58C44.72,-96.71 53.77,-93.29 62.27,-90.07"/>
<polygon fill="#63b8ff" stroke="#63b8ff" points="63.41,-93.38 71.52,-86.57 60.93,-86.84 63.41,-93.38"/>
</a>
</g>
</g>
<!-- Node2&#45;&gt;Node2 -->
<g id="edge10_Node000002_Node000002" class="edge">
<title>Node2&#45;&gt;Node2</title>
<g id="a_edge10_Node000002_Node000002"><a xlink:title=" ">
<path fill="none" stroke="#63b8ff" d="M80.39,-144.16C75.15,-152.77 78.98,-161.88 91.88,-161.88 98.93,-161.88 103.27,-159.15 104.9,-155.28"/>
<polygon fill="#63b8ff" stroke="#63b8ff" points="108.41,-155.09 103.57,-145.66 101.47,-156.05 108.41,-155.09"/>
</a>
</g>
</g>
<!-- Node3 -->
<g id="Node000003" class="node">
<title>Node3</title>
<g id="a_Node000003"><a xlink:href="classciphers_1_1_hill_cipher.html#a427acfac1dbff3f48a2b071d449d965b" target="_top" xlink:title="Decrypt a given text using a given key.">
<polygon fill="white" stroke="#666666" points="243,-171.5 146.75,-171.5 146.75,-141 243,-141 243,-171.5"/>
<text text-anchor="start" x="154.75" y="-158" font-family="Helvetica,sans-Serif" font-size="10.00">ciphers::HillCipher</text>
<text text-anchor="middle" x="194.88" y="-146.75" font-family="Helvetica,sans-Serif" font-size="10.00">::decrypt_text</text>
</a>
</g>
</g>
<!-- Node2&#45;&gt;Node3 -->
<g id="edge2_Node000002_Node000003" class="edge">
<title>Node2&#45;&gt;Node3</title>
<g id="a_edge2_Node000002_Node000003"><a xlink:title=" ">
<path fill="none" stroke="#63b8ff" d="M110.93,-138.18C118.03,-139.73 126.61,-141.6 135.53,-143.54"/>
<polygon fill="#63b8ff" stroke="#63b8ff" points="134.5,-146.9 145.02,-145.61 135.99,-140.06 134.5,-146.9"/>
</a>
</g>
</g>
<!-- Node4 -->
<g id="Node000004" class="node">
<title>Node4</title>
<g id="a_Node000004"><a xlink:href="classciphers_1_1_hill_cipher.html#aa8bbb6e4a5749f6008b06602d5103917" target="_top" xlink:title="Encrypt a given text using a given key.">
<polygon fill="white" stroke="#666666" points="243,-122.5 146.75,-122.5 146.75,-92 243,-92 243,-122.5"/>
<text text-anchor="start" x="154.75" y="-109" font-family="Helvetica,sans-Serif" font-size="10.00">ciphers::HillCipher</text>
<text text-anchor="middle" x="194.88" y="-97.75" font-family="Helvetica,sans-Serif" font-size="10.00">::encrypt_text</text>
</a>
</g>
</g>
<!-- Node2&#45;&gt;Node4 -->
<g id="edge3_Node000002_Node000004" class="edge">
<title>Node2&#45;&gt;Node4</title>
<g id="a_edge3_Node000002_Node000004"><a xlink:title=" ">
<path fill="none" stroke="#63b8ff" d="M110.93,-129.42C118.03,-127.53 126.61,-125.23 135.53,-122.85"/>
<polygon fill="#63b8ff" stroke="#63b8ff" points="136.28,-126.27 145.04,-120.31 134.47,-119.51 136.28,-126.27"/>
</a>
</g>
</g>
<!-- Node5 -->
<g id="Node000005" class="node">
<title>Node5</title>
<g id="a_Node000005"><a xlink:href="classciphers_1_1_hill_cipher.html#a405b0a28d66a61239d3565d5256f9cb5" target="_top" xlink:title="Generate encryption and decryption key pair.">
<polygon fill="white" stroke="#666666" points="243,-73.5 146.75,-73.5 146.75,-43 243,-43 243,-73.5"/>
<text text-anchor="start" x="154.75" y="-60" font-family="Helvetica,sans-Serif" font-size="10.00">ciphers::HillCipher</text>
<text text-anchor="middle" x="194.88" y="-48.75" font-family="Helvetica,sans-Serif" font-size="10.00">::generate_keys</text>
</a>
</g>
</g>
<!-- Node2&#45;&gt;Node5 -->
<g id="edge4_Node000002_Node000005" class="edge">
<title>Node2&#45;&gt;Node5</title>
<g id="a_edge4_Node000002_Node000005"><a xlink:title=" ">
<path fill="none" stroke="#63b8ff" d="M102.67,-124.36C115.53,-111.49 137.54,-89.86 146.75,-83.25 148.5,-81.99 150.32,-80.76 152.18,-79.55"/>
<polygon fill="#63b8ff" stroke="#63b8ff" points="153.69,-82.73 160.44,-74.57 150.07,-76.74 153.69,-82.73"/>
</a>
</g>
</g>
<!-- Node6 -->
<g id="Node000006" class="node">
<title>Node6</title>
<g id="a_Node000006"><a xlink:href="lu__decomposition_8h.html#a3108d43bd32c6fb3b3c158476c51ba7f" target="_top" xlink:title=" ">
<polygon fill="white" stroke="#666666" points="525.5,-88.88 445.75,-88.88 445.75,-69.62 525.5,-69.62 525.5,-88.88"/>
<text text-anchor="middle" x="485.62" y="-75.38" font-family="Helvetica,sans-Serif" font-size="10.00">determinant_lu</text>
</a>
</g>
</g>
<!-- Node5&#45;&gt;Node6 -->
<g id="edge5_Node000005_Node000006" class="edge">
<title>Node5&#45;&gt;Node6</title>
<g id="a_edge5_Node000005_Node000006"><a xlink:title=" ">
<path fill="none" stroke="#63b8ff" d="M243.23,-61.69C295.85,-65.52 380.47,-71.67 434.27,-75.59"/>
<polygon fill="#63b8ff" stroke="#63b8ff" points="433.85,-79.07 444.08,-76.3 434.36,-72.08 433.85,-79.07"/>
</a>
</g>
</g>
<!-- Node8 -->
<g id="Node000008" class="node">
<title>Node8</title>
<g id="a_Node000008"><a xlink:href="classciphers_1_1_hill_cipher.html#ab02c7563889bf1e363deb8e21967b706" target="_top" xlink:title="Generate decryption matrix from an encryption matrix key.">
<polygon fill="white" stroke="#666666" points="409.75,-116.5 279,-116.5 279,-86 409.75,-86 409.75,-116.5"/>
<text text-anchor="start" x="287" y="-103" font-family="Helvetica,sans-Serif" font-size="10.00">ciphers::HillCipher</text>
<text text-anchor="middle" x="344.38" y="-91.75" font-family="Helvetica,sans-Serif" font-size="10.00">::generate_decryption_key</text>
</a>
</g>
</g>
<!-- Node5&#45;&gt;Node8 -->
<g id="edge7_Node000005_Node000008" class="edge">
<title>Node5&#45;&gt;Node8</title>
<g id="a_edge7_Node000005_Node000008"><a xlink:title=" ">
<path fill="none" stroke="#63b8ff" d="M243.36,-72.09C254.64,-75.38 266.87,-78.95 278.77,-82.42"/>
<polygon fill="#63b8ff" stroke="#63b8ff" points="277.54,-85.7 288.12,-85.14 279.5,-78.98 277.54,-85.7"/>
</a>
</g>
</g>
<!-- Node9 -->
<g id="Node000009" class="node">
<title>Node9</title>
<g id="a_Node000009"><a xlink:href="classciphers_1_1_hill_cipher.html#a642f70fb54cb50b00fb6df7c3f2b120e" target="_top" xlink:title="Generate encryption matrix of a given size. Larger size matrices are difficult to generate but provid...">
<polygon fill="white" stroke="#666666" points="409.75,-30.5 279,-30.5 279,0 409.75,0 409.75,-30.5"/>
<text text-anchor="start" x="287" y="-17" font-family="Helvetica,sans-Serif" font-size="10.00">ciphers::HillCipher</text>
<text text-anchor="middle" x="344.38" y="-5.75" font-family="Helvetica,sans-Serif" font-size="10.00">::generate_encryption_key</text>
</a>
</g>
</g>
<!-- Node5&#45;&gt;Node9 -->
<g id="edge9_Node000005_Node000009" class="edge">
<title>Node5&#45;&gt;Node9</title>
<g id="a_edge9_Node000005_Node000009"><a xlink:title=" ">
<path fill="none" stroke="#63b8ff" d="M243.36,-44.41C254.64,-41.12 266.87,-37.55 278.77,-34.08"/>
<polygon fill="#63b8ff" stroke="#63b8ff" points="279.5,-37.52 288.12,-31.36 277.54,-30.8 279.5,-37.52"/>
</a>
</g>
</g>
<!-- Node7 -->
<g id="Node000007" class="node">
<title>Node7</title>
<g id="a_Node000007"><a xlink:href="lu__decomposition_8h.html#a75b8a228c6419ecda6077255d6d60509" target="_top" xlink:title=" ">
<polygon fill="white" stroke="#666666" points="653.25,-88.88 561.5,-88.88 561.5,-69.62 653.25,-69.62 653.25,-88.88"/>
<text text-anchor="middle" x="607.38" y="-75.38" font-family="Helvetica,sans-Serif" font-size="10.00">lu_decomposition</text>
</a>
</g>
</g>
<!-- Node6&#45;&gt;Node7 -->
<g id="edge6_Node000006_Node000007" class="edge">
<title>Node6&#45;&gt;Node7</title>
<g id="a_edge6_Node000006_Node000007"><a xlink:title=" ">
<path fill="none" stroke="#63b8ff" d="M525.84,-79.25C533.53,-79.25 541.75,-79.25 549.88,-79.25"/>
<polygon fill="#63b8ff" stroke="#63b8ff" points="549.74,-82.75 559.74,-79.25 549.74,-75.75 549.74,-82.75"/>
</a>
</g>
</g>
<!-- Node8&#45;&gt;Node6 -->
<g id="edge8_Node000008_Node000006" class="edge">
<title>Node8&#45;&gt;Node6</title>
<g id="a_edge8_Node000008_Node000006"><a xlink:title=" ">
<path fill="none" stroke="#63b8ff" d="M410.11,-91.02C418.22,-89.74 426.42,-88.45 434.27,-87.21"/>
<polygon fill="#63b8ff" stroke="#63b8ff" points="434.63,-90.69 443.96,-85.67 433.54,-83.78 434.63,-90.69"/>
</a>
</g>
</g>
<!-- Node10&#45;&gt;Node3 -->
<g id="edge12_Node000010_Node000003" class="edge">
<title>Node10&#45;&gt;Node3</title>
<g id="a_edge12_Node000010_Node000003"><a xlink:title=" ">
<path fill="none" stroke="#63b8ff" d="M101.69,-89.31C111.82,-100.47 129.28,-118.58 146.75,-131.25 148.49,-132.51 150.31,-133.76 152.17,-134.97"/>
<polygon fill="#63b8ff" stroke="#63b8ff" points="150.05,-137.78 160.42,-139.96 153.68,-131.79 150.05,-137.78"/>
</a>
</g>
</g>
<!-- Node10&#45;&gt;Node4 -->
<g id="edge13_Node000010_Node000004" class="edge">
<title>Node10&#45;&gt;Node4</title>
<g id="a_edge13_Node000010_Node000004"><a xlink:title=" ">
<path fill="none" stroke="#63b8ff" d="M110.93,-84.26C118.03,-86.22 126.61,-88.6 135.53,-91.08"/>
<polygon fill="#63b8ff" stroke="#63b8ff" points="134.47,-94.41 145.04,-93.71 136.34,-87.67 134.47,-94.41"/>
</a>
</g>
</g>
<!-- Node10&#45;&gt;Node5 -->
<g id="edge14_Node000010_Node000005" class="edge">
<title>Node10&#45;&gt;Node5</title>
<g id="a_edge14_Node000010_Node000005"><a xlink:title=" ">
<path fill="none" stroke="#63b8ff" d="M110.93,-75.5C117.95,-74.04 126.43,-72.27 135.24,-70.44"/>
<polygon fill="#63b8ff" stroke="#63b8ff" points="135.94,-73.87 145.02,-68.41 134.51,-67.02 135.94,-73.87"/>
</a>
</g>
</g>
<!-- Node10&#45;&gt;Node10 -->
<g id="edge15_Node000010_Node000010" class="edge">
<title>Node10&#45;&gt;Node10</title>
<g id="a_edge15_Node000010_Node000010"><a xlink:title=" ">
<path fill="none" stroke="#63b8ff" d="M80.39,-89.16C75.15,-97.77 78.98,-106.88 91.88,-106.88 98.93,-106.88 103.27,-104.15 104.9,-100.28"/>
<polygon fill="#63b8ff" stroke="#63b8ff" points="108.41,-100.09 103.57,-90.66 101.47,-101.05 108.41,-100.09"/>
</a>
</g>
</g>
</g>
</svg>
