<?xml version="1.0" encoding="UTF-8" standalone="no"?>
<!DOCTYPE svg PUBLIC "-//W3C//DTD SVG 1.1//EN"
 "http://www.w3.org/Graphics/SVG/1.1/DTD/svg11.dtd">
<!-- Generated by graphviz version 12.1.1 (20240910.0053)
 -->
<!-- Title: main Pages: 1 -->
<svg width="217pt" height="64pt"
 viewBox="0.00 0.00 217.30 64.25" xmlns="http://www.w3.org/2000/svg" xmlns:xlink="http://www.w3.org/1999/xlink">
<g id="graph0" class="graph" transform="scale(1 1) rotate(0) translate(4 60.25)">
<title>main</title>
<!-- Node1 -->
<g id="Node000001" class="node">
<title>Node1</title>
<g id="a_Node000001"><a xlink:title=" ">
<polygon fill="#999999" stroke="#666666" points="37,-37.25 0,-37.25 0,-18 37,-18 37,-37.25"/>
<text text-anchor="middle" x="18.5" y="-23.75" font-family="Helvetica,sans-Serif" font-size="10.00">main</text>
</a>
</g>
</g>
<!-- Node2 -->
<g id="Node000002" class="node">
<title>Node2</title>
<g id="a_Node000002"><a xlink:href="hash__search_8cpp.html#ad0831425f1389166a9518f422d0c6ec5" target="_top" xlink:title=" ">
<polygon fill="white" stroke="#666666" points="139.25,-56.25 78.25,-56.25 78.25,-37 139.25,-37 139.25,-56.25"/>
<text text-anchor="middle" x="108.75" y="-42.75" font-family="Helvetica,sans-Serif" font-size="10.00">create_list</text>
</a>
</g>
</g>
<!-- Node1&#45;&gt;Node2 -->
<g id="edge1_Node000001_Node000002" class="edge">
<title>Node1&#45;&gt;Node2</title>
<g id="a_edge1_Node000001_Node000002"><a xlink:title=" ">
<path fill="none" stroke="#63b8ff" d="M37.36,-31.47C45.87,-33.3 56.42,-35.57 66.75,-37.8"/>
<polygon fill="#63b8ff" stroke="#63b8ff" points="65.76,-41.16 76.27,-39.85 67.23,-34.32 65.76,-41.16"/>
</a>
</g>
</g>
<!-- Node4 -->
<g id="Node000004" class="node">
<title>Node4</title>
<g id="a_Node000004"><a xlink:href="hash__search_8cpp.html#a36ea13c16028f18ef2d5ff47f3fda7a2" target="_top" xlink:title=" ">
<polygon fill="white" stroke="#666666" points="144.5,-19.25 73,-19.25 73,0 144.5,0 144.5,-19.25"/>
<text text-anchor="middle" x="108.75" y="-5.75" font-family="Helvetica,sans-Serif" font-size="10.00">hash_search</text>
</a>
</g>
</g>
<!-- Node1&#45;&gt;Node4 -->
<g id="edge3_Node000001_Node000004" class="edge">
<title>Node1&#45;&gt;Node4</title>
<g id="a_edge3_Node000001_Node000004"><a xlink:title=" ">
<path fill="none" stroke="#63b8ff" d="M37.36,-23.98C44.43,-22.54 52.92,-20.81 61.52,-19.05"/>
<polygon fill="#63b8ff" stroke="#63b8ff" points="62.19,-22.49 71.29,-17.06 60.79,-15.63 62.19,-22.49"/>
</a>
</g>
</g>
<!-- Node3 -->
<g id="Node000003" class="node">
<title>Node3</title>
<g id="a_Node000003"><a xlink:href="hash__search_8cpp.html#a566eaf0ffafd50bc61e644561fd27001" target="_top" xlink:title=" ">
<polygon fill="white" stroke="#666666" points="209.3,-37.25 180.5,-37.25 180.5,-18 209.3,-18 209.3,-37.25"/>
<text text-anchor="middle" x="194.9" y="-23.75" font-family="Helvetica,sans-Serif" font-size="10.00">h</text>
</a>
</g>
</g>
<!-- Node2&#45;&gt;Node3 -->
<g id="edge2_Node000002_Node000003" class="edge">
<title>Node2&#45;&gt;Node3</title>
<g id="a_edge2_Node000002_Node000003"><a xlink:title=" ">
<path fill="none" stroke="#63b8ff" d="M139.66,-39.87C149.25,-37.71 159.76,-35.33 168.96,-33.26"/>
<polygon fill="#63b8ff" stroke="#63b8ff" points="169.64,-36.69 178.63,-31.07 168.1,-29.86 169.64,-36.69"/>
</a>
</g>
</g>
<!-- Node4&#45;&gt;Node3 -->
<g id="edge4_Node000004_Node000003" class="edge">
<title>Node4&#45;&gt;Node3</title>
<g id="a_edge4_Node000004_Node000003"><a xlink:title=" ">
<path fill="none" stroke="#63b8ff" d="M144.95,-17.15C153.11,-18.9 161.62,-20.72 169.21,-22.34"/>
<polygon fill="#63b8ff" stroke="#63b8ff" points="168.22,-25.71 178.73,-24.38 169.68,-18.87 168.22,-25.71"/>
</a>
</g>
</g>
</g>
</svg>
