<?xml version="1.0" encoding="UTF-8" standalone="no"?>
<!DOCTYPE svg PUBLIC "-//W3C//DTD SVG 1.1//EN"
 "http://www.w3.org/Graphics/SVG/1.1/DTD/svg11.dtd">
<!-- Generated by graphviz version 12.1.1 (20240910.0053)
 -->
<!-- Title: test2 Pages: 1 -->
<svg width="589pt" height="186pt"
 viewBox="0.00 0.00 588.88 185.50" xmlns="http://www.w3.org/2000/svg" xmlns:xlink="http://www.w3.org/1999/xlink">
<g id="graph0" class="graph" transform="scale(1 1) rotate(0) translate(4 181.5)">
<title>test2</title>
<!-- Node1 -->
<g id="Node000001" class="node">
<title>Node1</title>
<g id="a_Node000001"><a xlink:title="Self test 2 &#45; using 8x8 randomly generated key.">
<polygon fill="#999999" stroke="#666666" points="38.38,-122.88 0.63,-122.88 0.63,-103.62 38.38,-103.62 38.38,-122.88"/>
<text text-anchor="middle" x="19.5" y="-109.38" font-family="Helvetica,sans-Serif" font-size="10.00">test2</text>
</a>
</g>
</g>
<!-- Node1&#45;&gt;Node1 -->
<g id="edge9_Node000001_Node000001" class="edge">
<title>Node1&#45;&gt;Node1</title>
<g id="a_edge9_Node000001_Node000001"><a xlink:title=" ">
<path fill="none" stroke="#63b8ff" d="M3.38,-123.16C-3.98,-131.77 1.4,-140.88 19.5,-140.88 29.4,-140.88 35.5,-138.15 37.78,-134.28"/>
<polygon fill="#63b8ff" stroke="#63b8ff" points="41.26,-133.8 35.92,-124.65 34.39,-135.13 41.26,-133.8"/>
</a>
</g>
</g>
<!-- Node2 -->
<g id="Node000002" class="node">
<title>Node2</title>
<g id="a_Node000002"><a xlink:href="classciphers_1_1_hill_cipher.html#a427acfac1dbff3f48a2b071d449d965b" target="_top" xlink:title="Decrypt a given text using a given key.">
<polygon fill="white" stroke="#666666" points="170.63,-177.5 74.38,-177.5 74.38,-147 170.63,-147 170.63,-177.5"/>
<text text-anchor="start" x="82.38" y="-164" font-family="Helvetica,sans-Serif" font-size="10.00">ciphers::HillCipher</text>
<text text-anchor="middle" x="122.5" y="-152.75" font-family="Helvetica,sans-Serif" font-size="10.00">::decrypt_text</text>
</a>
</g>
</g>
<!-- Node1&#45;&gt;Node2 -->
<g id="edge1_Node000001_Node000002" class="edge">
<title>Node1&#45;&gt;Node2</title>
<g id="a_edge1_Node000001_Node000002"><a xlink:title=" ">
<path fill="none" stroke="#63b8ff" d="M38.56,-122.01C49.88,-127.5 64.98,-134.83 79.19,-141.72"/>
<polygon fill="#63b8ff" stroke="#63b8ff" points="77.42,-144.76 87.95,-145.97 80.48,-138.46 77.42,-144.76"/>
</a>
</g>
</g>
<!-- Node3 -->
<g id="Node000003" class="node">
<title>Node3</title>
<g id="a_Node000003"><a xlink:href="classciphers_1_1_hill_cipher.html#aa8bbb6e4a5749f6008b06602d5103917" target="_top" xlink:title="Encrypt a given text using a given key.">
<polygon fill="white" stroke="#666666" points="170.63,-128.5 74.38,-128.5 74.38,-98 170.63,-98 170.63,-128.5"/>
<text text-anchor="start" x="82.38" y="-115" font-family="Helvetica,sans-Serif" font-size="10.00">ciphers::HillCipher</text>
<text text-anchor="middle" x="122.5" y="-103.75" font-family="Helvetica,sans-Serif" font-size="10.00">::encrypt_text</text>
</a>
</g>
</g>
<!-- Node1&#45;&gt;Node3 -->
<g id="edge2_Node000001_Node000003" class="edge">
<title>Node1&#45;&gt;Node3</title>
<g id="a_edge2_Node000001_Node000003"><a xlink:title=" ">
<path fill="none" stroke="#63b8ff" d="M38.56,-113.25C45.58,-113.25 54.05,-113.25 62.87,-113.25"/>
<polygon fill="#63b8ff" stroke="#63b8ff" points="62.61,-116.75 72.61,-113.25 62.61,-109.75 62.61,-116.75"/>
</a>
</g>
</g>
<!-- Node4 -->
<g id="Node000004" class="node">
<title>Node4</title>
<g id="a_Node000004"><a xlink:href="classciphers_1_1_hill_cipher.html#a405b0a28d66a61239d3565d5256f9cb5" target="_top" xlink:title="Generate encryption and decryption key pair.">
<polygon fill="white" stroke="#666666" points="170.63,-79.5 74.38,-79.5 74.38,-49 170.63,-49 170.63,-79.5"/>
<text text-anchor="start" x="82.38" y="-66" font-family="Helvetica,sans-Serif" font-size="10.00">ciphers::HillCipher</text>
<text text-anchor="middle" x="122.5" y="-54.75" font-family="Helvetica,sans-Serif" font-size="10.00">::generate_keys</text>
</a>
</g>
</g>
<!-- Node1&#45;&gt;Node4 -->
<g id="edge3_Node000001_Node000004" class="edge">
<title>Node1&#45;&gt;Node4</title>
<g id="a_edge3_Node000001_Node000004"><a xlink:title=" ">
<path fill="none" stroke="#63b8ff" d="M38.56,-104.49C49.88,-99 64.98,-91.67 79.19,-84.78"/>
<polygon fill="#63b8ff" stroke="#63b8ff" points="80.48,-88.04 87.95,-80.53 77.42,-81.74 80.48,-88.04"/>
</a>
</g>
</g>
<!-- Node5 -->
<g id="Node000005" class="node">
<title>Node5</title>
<g id="a_Node000005"><a xlink:href="lu__decomposition_8h.html#a3108d43bd32c6fb3b3c158476c51ba7f" target="_top" xlink:title=" ">
<polygon fill="white" stroke="#666666" points="453.13,-94.88 373.38,-94.88 373.38,-75.62 453.13,-75.62 453.13,-94.88"/>
<text text-anchor="middle" x="413.25" y="-81.38" font-family="Helvetica,sans-Serif" font-size="10.00">determinant_lu</text>
</a>
</g>
</g>
<!-- Node4&#45;&gt;Node5 -->
<g id="edge4_Node000004_Node000005" class="edge">
<title>Node4&#45;&gt;Node5</title>
<g id="a_edge4_Node000004_Node000005"><a xlink:title=" ">
<path fill="none" stroke="#63b8ff" d="M169.17,-79.92C181.21,-83.37 194.28,-86.5 206.63,-88.25 259.14,-95.68 319.94,-93.48 361.73,-90.32"/>
<polygon fill="#63b8ff" stroke="#63b8ff" points="361.79,-93.83 371.48,-89.53 361.23,-86.85 361.79,-93.83"/>
</a>
</g>
</g>
<!-- Node7 -->
<g id="Node000007" class="node">
<title>Node7</title>
<g id="a_Node000007"><a xlink:href="classciphers_1_1_hill_cipher.html#ab02c7563889bf1e363deb8e21967b706" target="_top" xlink:title="Generate decryption matrix from an encryption matrix key.">
<polygon fill="white" stroke="#666666" points="337.38,-79.5 206.63,-79.5 206.63,-49 337.38,-49 337.38,-79.5"/>
<text text-anchor="start" x="214.63" y="-66" font-family="Helvetica,sans-Serif" font-size="10.00">ciphers::HillCipher</text>
<text text-anchor="middle" x="272" y="-54.75" font-family="Helvetica,sans-Serif" font-size="10.00">::generate_decryption_key</text>
</a>
</g>
</g>
<!-- Node4&#45;&gt;Node7 -->
<g id="edge6_Node000004_Node000007" class="edge">
<title>Node4&#45;&gt;Node7</title>
<g id="a_edge6_Node000004_Node000007"><a xlink:title=" ">
<path fill="none" stroke="#63b8ff" d="M170.98,-64.25C178.6,-64.25 186.64,-64.25 194.72,-64.25"/>
<polygon fill="#63b8ff" stroke="#63b8ff" points="194.62,-67.75 204.62,-64.25 194.62,-60.75 194.62,-67.75"/>
</a>
</g>
</g>
<!-- Node8 -->
<g id="Node000008" class="node">
<title>Node8</title>
<g id="a_Node000008"><a xlink:href="classciphers_1_1_hill_cipher.html#a642f70fb54cb50b00fb6df7c3f2b120e" target="_top" xlink:title="Generate encryption matrix of a given size. Larger size matrices are difficult to generate but provid...">
<polygon fill="white" stroke="#666666" points="337.38,-30.5 206.63,-30.5 206.63,0 337.38,0 337.38,-30.5"/>
<text text-anchor="start" x="214.63" y="-17" font-family="Helvetica,sans-Serif" font-size="10.00">ciphers::HillCipher</text>
<text text-anchor="middle" x="272" y="-5.75" font-family="Helvetica,sans-Serif" font-size="10.00">::generate_encryption_key</text>
</a>
</g>
</g>
<!-- Node4&#45;&gt;Node8 -->
<g id="edge8_Node000004_Node000008" class="edge">
<title>Node4&#45;&gt;Node8</title>
<g id="a_edge8_Node000004_Node000008"><a xlink:title=" ">
<path fill="none" stroke="#63b8ff" d="M170.58,-48.61C184.08,-44.13 198.97,-39.18 213.04,-34.5"/>
<polygon fill="#63b8ff" stroke="#63b8ff" points="213.79,-37.94 222.18,-31.47 211.59,-31.3 213.79,-37.94"/>
</a>
</g>
</g>
<!-- Node6 -->
<g id="Node000006" class="node">
<title>Node6</title>
<g id="a_Node000006"><a xlink:href="lu__decomposition_8h.html#a75b8a228c6419ecda6077255d6d60509" target="_top" xlink:title=" ">
<polygon fill="white" stroke="#666666" points="580.88,-94.88 489.13,-94.88 489.13,-75.62 580.88,-75.62 580.88,-94.88"/>
<text text-anchor="middle" x="535" y="-81.38" font-family="Helvetica,sans-Serif" font-size="10.00">lu_decomposition</text>
</a>
</g>
</g>
<!-- Node5&#45;&gt;Node6 -->
<g id="edge5_Node000005_Node000006" class="edge">
<title>Node5&#45;&gt;Node6</title>
<g id="a_edge5_Node000005_Node000006"><a xlink:title=" ">
<path fill="none" stroke="#63b8ff" d="M453.46,-85.25C461.16,-85.25 469.37,-85.25 477.51,-85.25"/>
<polygon fill="#63b8ff" stroke="#63b8ff" points="477.37,-88.75 487.37,-85.25 477.37,-81.75 477.37,-88.75"/>
</a>
</g>
</g>
<!-- Node7&#45;&gt;Node5 -->
<g id="edge7_Node000007_Node000005" class="edge">
<title>Node7&#45;&gt;Node5</title>
<g id="a_edge7_Node000007_Node000005"><a xlink:title=" ">
<path fill="none" stroke="#63b8ff" d="M337.74,-74.01C345.85,-75.24 354.05,-76.47 361.9,-77.66"/>
<polygon fill="#63b8ff" stroke="#63b8ff" points="361.18,-81.09 371.59,-79.12 362.22,-74.17 361.18,-81.09"/>
</a>
</g>
</g>
</g>
</svg>
