<?xml version="1.0" encoding="UTF-8" standalone="no"?>
<!DOCTYPE svg PUBLIC "-//W3C//DTD SVG 1.1//EN"
 "http://www.w3.org/Graphics/SVG/1.1/DTD/svg11.dtd">
<!-- Generated by graphviz version 12.1.1 (20240910.0053)
 -->
<!-- Title: main Pages: 1 -->
<svg width="428pt" height="97pt"
 viewBox="0.00 0.00 427.50 97.25" xmlns="http://www.w3.org/2000/svg" xmlns:xlink="http://www.w3.org/1999/xlink">

<svg id="main" version="1.1" xmlns="http://www.w3.org/2000/svg" xmlns:xlink="http://www.w3.org/1999/xlink" xml:space="preserve">

<style type="text/css"><![CDATA[
.node, .edge {opacity: 0.7;}
.node.selected, .edge.selected {opacity: 1;}
.edge:hover path { stroke: red; }
.edge:hover polygon { stroke: red; fill: red; }
]]></style>
<script type="application/ecmascript" xlink:href="svg.min.js"/>
<svg id="graph" class="graph">
<g id="graph0" class="graph" transform="scale(1 1) rotate(0) translate(4 93.25)">
<title>main</title>
<!-- Node1 -->
<g id="Node000001" class="node">
<title>Node1</title>
<g id="a_Node000001"><a xlink:title="Main function.">
<polygon fill="#999999" stroke="#666666" points="37,-67.25 0,-67.25 0,-48 37,-48 37,-67.25"/>
<text text-anchor="middle" x="18.5" y="-53.75" font-family="Helvetica,sans-Serif" font-size="10.00">main</text>
</a>
</g>
</g>
<!-- Node2 -->
<g id="Node000002" class="node">
<title>Node2</title>
<g id="a_Node000002"><a xlink:href="hopcroft__karp_8cpp.html#a88ec9ad42717780d6caaff9d3d6977f9" target="_top" xlink:title=" ">
<polygon fill="white" stroke="#666666" points="110.75,-67.25 73,-67.25 73,-48 110.75,-48 110.75,-67.25"/>
<text text-anchor="middle" x="91.88" y="-53.75" font-family="Helvetica,sans-Serif" font-size="10.00">tests</text>
</a>
</g>
</g>
<!-- Node1&#45;&gt;Node2 -->
<g id="edge1_Node000001_Node000002" class="edge">
<title>Node1&#45;&gt;Node2</title>
<g id="a_edge1_Node000001_Node000002"><a xlink:title=" ">
<path fill="none" stroke="#63b8ff" d="M37.14,-57.62C44.55,-57.62 53.37,-57.62 61.69,-57.62"/>
<polygon fill="#63b8ff" stroke="#63b8ff" points="61.43,-61.13 71.43,-57.63 61.43,-54.13 61.43,-61.13"/>
</a>
</g>
</g>
<!-- Node3 -->
<g id="Node000003" class="node">
<title>Node3</title>
<g id="a_Node000003"><a xlink:href="classgraph_1_1_h_k_graph.html#a3b49011c09cf90a116ab53bef61cd95a" target="_top" xlink:title="function to add edge from u to v">
<polygon fill="white" stroke="#666666" points="277.5,-89.25 146.75,-89.25 146.75,-70 277.5,-70 277.5,-89.25"/>
<text text-anchor="middle" x="212.12" y="-75.75" font-family="Helvetica,sans-Serif" font-size="10.00">graph::HKGraph::addEdge</text>
</a>
</g>
</g>
<!-- Node2&#45;&gt;Node3 -->
<g id="edge2_Node000002_Node000003" class="edge">
<title>Node2&#45;&gt;Node3</title>
<g id="a_edge2_Node000002_Node000003"><a xlink:title=" ">
<path fill="none" stroke="#63b8ff" d="M111.09,-61.01C120.61,-62.79 132.91,-65.07 145.6,-67.43"/>
<polygon fill="#63b8ff" stroke="#63b8ff" points="144.84,-70.85 155.31,-69.24 146.12,-63.97 144.84,-70.85"/>
</a>
</g>
</g>
<!-- Node4 -->
<g id="Node000004" class="node">
<title>Node4</title>
<g id="a_Node000004"><a xlink:href="classgraph_1_1_h_k_graph.html#a9dbda80d02bdc26c3e8ff7330c9be75d" target="_top" xlink:title="This function counts the number of augmenting paths between left and right sides of the Bipartite gra...">
<polygon fill="white" stroke="#666666" points="276,-51.88 148.25,-51.88 148.25,-21.38 276,-21.38 276,-51.88"/>
<text text-anchor="start" x="156.25" y="-38.38" font-family="Helvetica,sans-Serif" font-size="10.00">graph::HKGraph::hopcroft</text>
<text text-anchor="middle" x="212.12" y="-27.12" font-family="Helvetica,sans-Serif" font-size="10.00">KarpAlgorithm</text>
</a>
</g>
</g>
<!-- Node2&#45;&gt;Node4 -->
<g id="edge3_Node000002_Node000004" class="edge">
<title>Node2&#45;&gt;Node4</title>
<g id="a_edge3_Node000002_Node000004"><a xlink:title=" ">
<path fill="none" stroke="#63b8ff" d="M111.09,-54.39C118.36,-53.1 127.24,-51.52 136.68,-49.85"/>
<polygon fill="#63b8ff" stroke="#63b8ff" points="137.23,-53.3 146.46,-48.11 136,-46.41 137.23,-53.3"/>
</a>
</g>
</g>
<!-- Node5 -->
<g id="Node000005" class="node">
<title>Node5</title>
<g id="a_Node000005"><a xlink:href="classgraph_1_1_h_k_graph.html#a7491add14d9fc04f679114ca6d6f0f93" target="_top" xlink:title="This function checks for the possibility of augmented path availability.">
<polygon fill="white" stroke="#666666" points="419.5,-74.25 313.5,-74.25 313.5,-55 419.5,-55 419.5,-74.25"/>
<text text-anchor="middle" x="366.5" y="-60.75" font-family="Helvetica,sans-Serif" font-size="10.00">graph::HKGraph::bfs</text>
</a>
</g>
</g>
<!-- Node4&#45;&gt;Node5 -->
<g id="edge4_Node000004_Node000005" class="edge">
<title>Node4&#45;&gt;Node5</title>
<g id="a_edge4_Node000004_Node000005"><a xlink:title=" ">
<path fill="none" stroke="#63b8ff" d="M276.42,-48.26C284.95,-49.82 293.7,-51.43 302.23,-53"/>
<polygon fill="#63b8ff" stroke="#63b8ff" points="301.32,-56.39 311.78,-54.75 302.58,-49.5 301.32,-56.39"/>
</a>
</g>
</g>
<!-- Node6 -->
<g id="Node000006" class="node">
<title>Node6</title>
<g id="a_Node000006"><a xlink:href="classgraph_1_1_h_k_graph.html#ae794950cb3407b6b47d3dc986cf714c0" target="_top" xlink:title="This functions checks whether an augmenting path is available exists beginning with free vertex u.">
<polygon fill="white" stroke="#666666" points="419.5,-19.25 313.5,-19.25 313.5,0 419.5,0 419.5,-19.25"/>
<text text-anchor="middle" x="366.5" y="-5.75" font-family="Helvetica,sans-Serif" font-size="10.00">graph::HKGraph::dfs</text>
</a>
</g>
</g>
<!-- Node4&#45;&gt;Node6 -->
<g id="edge5_Node000004_Node000006" class="edge">
<title>Node4&#45;&gt;Node6</title>
<g id="a_edge5_Node000004_Node000006"><a xlink:title=" ">
<path fill="none" stroke="#63b8ff" d="M276.42,-25.41C284.85,-23.91 293.5,-22.38 301.94,-20.89"/>
<polygon fill="#63b8ff" stroke="#63b8ff" points="302.55,-24.33 311.78,-19.14 301.33,-17.44 302.55,-24.33"/>
</a>
</g>
</g>
<!-- Node6&#45;&gt;Node6 -->
<g id="edge6_Node000006_Node000006" class="edge">
<title>Node6&#45;&gt;Node6</title>
<g id="a_edge6_Node000006_Node000006"><a xlink:title=" ">
<path fill="none" stroke="#63b8ff" d="M342.33,-19.54C331.31,-28.15 339.36,-37.25 366.5,-37.25 381.76,-37.25 390.99,-34.37 394.18,-30.32"/>
<polygon fill="#63b8ff" stroke="#63b8ff" points="397.56,-29.4 391.14,-20.98 390.91,-31.57 397.56,-29.4"/>
</a>
</g>
</g>
</g>
</svg>
</svg>

<style type='text/css'>
<![CDATA[
[data-mouse-over-selected='false'] { opacity: 0.7; }
[data-mouse-over-selected='true']  { opacity: 1.0; }
]]>
</style>
<script type="application/ecmascript"><![CDATA[
document.addEventListener('DOMContentLoaded', (event) => {
  highlightEdges();
  highlightAdjacentNodes();
});
]]></script>
</svg>
