<?xml version="1.0" encoding="UTF-8" standalone="no"?>
<!DOCTYPE svg PUBLIC "-//W3C//DTD SVG 1.1//EN"
 "http://www.w3.org/Graphics/SVG/1.1/DTD/svg11.dtd">
<!-- Generated by graphviz version 12.1.1 (20240910.0053)
 -->
<!-- Title: math::monte_carlo::integral_monte_carlo Pages: 1 -->
<svg width="253pt" height="57pt"
 viewBox="0.00 0.00 253.00 56.50" xmlns="http://www.w3.org/2000/svg" xmlns:xlink="http://www.w3.org/1999/xlink">
<g id="graph0" class="graph" transform="scale(1 1) rotate(0) translate(4 52.5)">
<title>math::monte_carlo::integral_monte_carlo</title>
<!-- Node1 -->
<g id="Node000001" class="node">
<title>Node1</title>
<g id="a_Node000001"><a xlink:title="Compute an approximation of an integral using Monte Carlo integration.">
<polygon fill="#999999" stroke="#666666" points="106,-30.5 0,-30.5 0,0 106,0 106,-30.5"/>
<text text-anchor="start" x="8" y="-17" font-family="Helvetica,sans-Serif" font-size="10.00">math::monte_carlo::</text>
<text text-anchor="middle" x="53" y="-5.75" font-family="Helvetica,sans-Serif" font-size="10.00">integral_monte_carlo</text>
</a>
</g>
</g>
<!-- Node1&#45;&gt;Node1 -->
<g id="edge3_Node000001_Node000001" class="edge">
<title>Node1&#45;&gt;Node1</title>
<g id="a_edge3_Node000001_Node000001"><a xlink:title=" ">
<path fill="none" stroke="#63b8ff" d="M28.1,-30.99C23.02,-40.06 31.32,-48.5 53,-48.5 64.86,-48.5 72.71,-45.97 76.56,-42.2"/>
<polygon fill="#63b8ff" stroke="#63b8ff" points="80.01,-42.83 77.72,-32.49 73.06,-42.01 80.01,-42.83"/>
</a>
</g>
</g>
<!-- Node2 -->
<g id="Node000002" class="node">
<title>Node2</title>
<g id="a_Node000002"><a xlink:href="integral__approximation2_8cpp.html#a71249ee535f16f8ed2e9cc8f0199a2cf" target="_top" xlink:title="short&#45;hand for std::functions used in this implementation">
<polygon fill="white" stroke="#666666" points="245,-30.5 142,-30.5 142,0 245,0 245,-30.5"/>
<text text-anchor="start" x="150" y="-17" font-family="Helvetica,sans-Serif" font-size="10.00">math::monte_carlo::</text>
<text text-anchor="middle" x="193.5" y="-5.75" font-family="Helvetica,sans-Serif" font-size="10.00">generate_samples</text>
</a>
</g>
</g>
<!-- Node1&#45;&gt;Node2 -->
<g id="edge1_Node000001_Node000002" class="edge">
<title>Node1&#45;&gt;Node2</title>
<g id="a_edge1_Node000001_Node000002"><a xlink:title=" ">
<path fill="none" stroke="#63b8ff" d="M106.36,-15.25C114.27,-15.25 122.5,-15.25 130.59,-15.25"/>
<polygon fill="#63b8ff" stroke="#63b8ff" points="130.38,-18.75 140.38,-15.25 130.38,-11.75 130.38,-18.75"/>
</a>
</g>
</g>
<!-- Node2&#45;&gt;Node2 -->
<g id="edge2_Node000002_Node000002" class="edge">
<title>Node2&#45;&gt;Node2</title>
<g id="a_edge2_Node000002_Node000002"><a xlink:title=" ">
<path fill="none" stroke="#63b8ff" d="M168.6,-30.99C163.52,-40.06 171.82,-48.5 193.5,-48.5 205.36,-48.5 213.21,-45.97 217.06,-42.2"/>
<polygon fill="#63b8ff" stroke="#63b8ff" points="220.51,-42.83 218.22,-32.49 213.56,-42.01 220.51,-42.83"/>
</a>
</g>
</g>
</g>
</svg>
