<?xml version="1.0" encoding="UTF-8" standalone="no"?>
<!DOCTYPE svg PUBLIC "-//W3C//DTD SVG 1.1//EN"
 "http://www.w3.org/Graphics/SVG/1.1/DTD/svg11.dtd">
<!-- Generated by graphviz version 12.1.1 (20240910.0053)
 -->
<!-- Title: main Pages: 1 -->
<svg width="173pt" height="101pt"
 viewBox="0.00 0.00 172.75 101.25" xmlns="http://www.w3.org/2000/svg" xmlns:xlink="http://www.w3.org/1999/xlink">
<g id="graph0" class="graph" transform="scale(1 1) rotate(0) translate(4 97.25)">
<title>main</title>
<!-- Node1 -->
<g id="Node000001" class="node">
<title>Node1</title>
<g id="a_Node000001"><a xlink:title="Main function.">
<polygon fill="#999999" stroke="#666666" points="37,-56.25 0,-56.25 0,-37 37,-37 37,-56.25"/>
<text text-anchor="middle" x="18.5" y="-42.75" font-family="Helvetica,sans-Serif" font-size="10.00">main</text>
</a>
</g>
</g>
<!-- Node2 -->
<g id="Node000002" class="node">
<title>Node2</title>
<g id="a_Node000002"><a xlink:href="inv__sqrt_8cpp.html#ad219034bf5fba657f5035ec5a1d50f52" target="_top" xlink:title="for numeric_limits">
<polygon fill="white" stroke="#666666" points="155,-93.25 82.75,-93.25 82.75,-74 155,-74 155,-93.25"/>
<text text-anchor="middle" x="118.88" y="-79.75" font-family="Helvetica,sans-Serif" font-size="10.00">Fast_InvSqrt</text>
</a>
</g>
</g>
<!-- Node1&#45;&gt;Node2 -->
<g id="edge1_Node000001_Node000002" class="edge">
<title>Node1&#45;&gt;Node2</title>
<g id="a_edge1_Node000001_Node000002"><a xlink:title=" ">
<path fill="none" stroke="#63b8ff" d="M37.09,-53.24C49.18,-57.79 65.7,-64 80.65,-69.62"/>
<polygon fill="#63b8ff" stroke="#63b8ff" points="79.16,-72.8 89.76,-73.05 81.63,-66.25 79.16,-72.8"/>
</a>
</g>
</g>
<!-- Node3 -->
<g id="Node000003" class="node">
<title>Node3</title>
<g id="a_Node000003"><a xlink:href="inv__sqrt_8cpp.html#aa2703e5cf3fecde8becd9066b9666b97" target="_top" xlink:title="This is the function that calculates the fast inverse square root. The following code is the fast inv...">
<polygon fill="white" stroke="#666666" points="164.75,-56.25 73,-56.25 73,-37 164.75,-37 164.75,-56.25"/>
<text text-anchor="middle" x="118.88" y="-42.75" font-family="Helvetica,sans-Serif" font-size="10.00">Standard_InvSqrt</text>
</a>
</g>
</g>
<!-- Node1&#45;&gt;Node3 -->
<g id="edge2_Node000001_Node000003" class="edge">
<title>Node1&#45;&gt;Node3</title>
<g id="a_edge2_Node000001_Node000003"><a xlink:title=" ">
<path fill="none" stroke="#63b8ff" d="M37.09,-46.62C44.08,-46.62 52.56,-46.62 61.35,-46.62"/>
<polygon fill="#63b8ff" stroke="#63b8ff" points="61.06,-50.13 71.06,-46.63 61.06,-43.13 61.06,-50.13"/>
</a>
</g>
</g>
<!-- Node4 -->
<g id="Node000004" class="node">
<title>Node4</title>
<g id="a_Node000004"><a xlink:href="caesar__cipher_8cpp.html#ae1a3968e7947464bee7714f6d43b7002" target="_top" xlink:title=" ">
<polygon fill="white" stroke="#666666" points="135.12,-19.25 102.62,-19.25 102.62,0 135.12,0 135.12,-19.25"/>
<text text-anchor="middle" x="118.88" y="-5.75" font-family="Helvetica,sans-Serif" font-size="10.00">test</text>
</a>
</g>
</g>
<!-- Node1&#45;&gt;Node4 -->
<g id="edge3_Node000001_Node000004" class="edge">
<title>Node1&#45;&gt;Node4</title>
<g id="a_edge3_Node000001_Node000004"><a xlink:title=" ">
<path fill="none" stroke="#63b8ff" d="M37.09,-40.01C52.32,-34.28 74.56,-25.91 91.86,-19.41"/>
<polygon fill="#63b8ff" stroke="#63b8ff" points="92.84,-22.78 100.97,-15.98 90.37,-16.23 92.84,-22.78"/>
</a>
</g>
</g>
</g>
</svg>
