<?xml version="1.0" encoding="UTF-8" standalone="no"?>
<!DOCTYPE svg PUBLIC "-//W3C//DTD SVG 1.1//EN"
 "http://www.w3.org/Graphics/SVG/1.1/DTD/svg11.dtd">
<!-- Generated by graphviz version 12.1.1 (20240910.0053)
 -->
<!-- Title: main Pages: 1 -->
<!--zoomable 261 -->

<svg id="main" version="1.1" xmlns="http://www.w3.org/2000/svg" xmlns:xlink="http://www.w3.org/1999/xlink" xml:space="preserve" onload="init(evt)">

<style type="text/css"><![CDATA[
.node, .edge {opacity: 0.7;}
.node.selected, .edge.selected {opacity: 1;}
.edge:hover path { stroke: red; }
.edge:hover polygon { stroke: red; fill: red; }
]]></style>

<defs>
  <circle id="rim" cx="0" cy="0" r="7"/>
  <circle id="rim2" cx="0" cy="0" r="3.5"/>
  <g id="zoomPlus">
    <use xlink:href="#rim" fill="#404040"><set attributeName="fill" to="#808080" begin="zoomplus.mouseover" end="zoomplus.mouseout"/></use>
    <path d="M-4,0h8M0,-4v8" fill="none" stroke="white" stroke-width="1.5" pointer-events="none"/>
  </g>
  <g id="zoomMin">
    <use xlink:href="#rim" fill="#404040"><set attributeName="fill" to="#808080" begin="zoomminus.mouseover" end="zoomminus.mouseout"/></use>
    <path d="M-4,0h8" fill="none" stroke="white" stroke-width="1.5" pointer-events="none"/>
  </g>
  <g id="arrowUp" transform="translate(30 24)">
    <use xlink:href="#rim"/>
    <path pointer-events="none" fill="none" stroke="white" stroke-width="1.5" d="M0,-3.0v7 M-2.5,-0.5L0,-3.0L2.5,-0.5"/>
  </g>
  <g id="arrowRight" transform="rotate(90) translate(36 -43)">
    <use xlink:href="#rim"/>
    <path pointer-events="none" fill="none" stroke="white" stroke-width="1.5" d="M0,-3.0v7 M-2.5,-0.5L0,-3.0L2.5,-0.5"/>
  </g>
  <g id="arrowDown" transform="rotate(180) translate(-30 -48)">
    <use xlink:href="#rim"/>
    <path pointer-events="none" fill="none" stroke="white" stroke-width="1.5" d="M0,-3.0v7 M-2.5,-0.5L0,-3.0L2.5,-0.5"/>
  </g>
  <g id="arrowLeft" transform="rotate(270) translate(-36 17)">
    <use xlink:href="#rim"/>
    <path pointer-events="none" fill="none" stroke="white" stroke-width="1.5" d="M0,-3.0v7 M-2.5,-0.5L0,-3.0L2.5,-0.5"/>
  </g>
  <g id="resetDef">
    <use xlink:href="#rim2" fill="#404040"><set attributeName="fill" to="#808080" begin="reset.mouseover" end="reset.mouseout"/></use>
  </g>
</defs>
<script type="application/ecmascript">
var viewWidth = 836;
var viewHeight = 261;
var sectionId = 'dynsection-1';
</script>
<script type="application/ecmascript" xlink:href="svg.min.js"/>
<svg id="graph" class="graph">
<g id="viewport">
<title>main</title>
<!-- Node1 -->
<g id="Node000001" class="node">
<title>Node1</title>
<g id="a_Node000001"><a xlink:title="Main function.">
<polygon fill="#999999" stroke="#666666" points="37,-146.88 0,-146.88 0,-127.62 37,-127.62 37,-146.88"/>
<text text-anchor="middle" x="18.5" y="-133.38" font-family="Helvetica,sans-Serif" font-size="10.00">main</text>
</a>
</g>
</g>
<!-- Node2 -->
<g id="Node000002" class="node">
<title>Node2</title>
<g id="a_Node000002"><a xlink:href="classothers_1_1iterative__tree__traversals_1_1_binary_tree.html#a3078a5ccf45d6a7031dcf46e43de65b6" target="_top" xlink:title="function that will create new node for insertion.">
<polygon fill="white" stroke="#666666" points="190.25,-253.12 73,-253.12 73,-211.38 190.25,-211.38 190.25,-253.12"/>
<text text-anchor="start" x="81" y="-239.62" font-family="Helvetica,sans-Serif" font-size="10.00">others::iterative_tree</text>
<text text-anchor="start" x="81" y="-228.38" font-family="Helvetica,sans-Serif" font-size="10.00">_traversals::BinaryTree</text>
<text text-anchor="middle" x="131.62" y="-217.12" font-family="Helvetica,sans-Serif" font-size="10.00">::createNewNode</text>
</a>
</g>
</g>
<!-- Node1&#45;&gt;Node2 -->
<g id="edge1_Node000001_Node000002" class="edge">
<title>Node1&#45;&gt;Node2</title>
<g id="a_edge1_Node000001_Node000002"><a xlink:title=" ">
<path fill="none" stroke="#63b8ff" d="M25.74,-147.11C34.82,-160.84 52.79,-185.87 73,-202.25 73.96,-203.03 74.95,-203.8 75.96,-204.56"/>
<polygon fill="#63b8ff" stroke="#63b8ff" points="73.97,-207.44 84.2,-210.18 77.91,-201.65 73.97,-207.44"/>
</a>
</g>
</g>
<!-- Node3 -->
<g id="Node000003" class="node">
<title>Node3</title>
<g id="a_Node000003"><a xlink:href="hill__cipher_8cpp.html#a3147ad576f8a94a2a6b66948672b452b" target="_top" xlink:title="Self test 1 &#45; using 3x3 randomly generated key.">
<polygon fill="white" stroke="#666666" points="150.5,-174.88 112.75,-174.88 112.75,-155.62 150.5,-155.62 150.5,-174.88"/>
<text text-anchor="middle" x="131.62" y="-161.38" font-family="Helvetica,sans-Serif" font-size="10.00">test1</text>
</a>
</g>
</g>
<!-- Node1&#45;&gt;Node3 -->
<g id="edge2_Node000001_Node000003" class="edge">
<title>Node1&#45;&gt;Node3</title>
<g id="a_edge2_Node000001_Node000003"><a xlink:title=" ">
<path fill="none" stroke="#63b8ff" d="M37.35,-141.75C54.59,-146.09 80.98,-152.74 101.3,-157.86"/>
<polygon fill="#63b8ff" stroke="#63b8ff" points="100.43,-161.25 110.98,-160.3 102.14,-154.46 100.43,-161.25"/>
</a>
</g>
</g>
<!-- Node11 -->
<g id="Node000011" class="node">
<title>Node11</title>
<g id="a_Node000011"><a xlink:href="hill__cipher_8cpp.html#a04391124480d2a49f2dec900237b0712" target="_top" xlink:title="Self test 2 &#45; using 8x8 randomly generated key.">
<polygon fill="white" stroke="#666666" points="150.5,-119.88 112.75,-119.88 112.75,-100.62 150.5,-100.62 150.5,-119.88"/>
<text text-anchor="middle" x="131.62" y="-106.38" font-family="Helvetica,sans-Serif" font-size="10.00">test2</text>
</a>
</g>
</g>
<!-- Node1&#45;&gt;Node11 -->
<g id="edge12_Node000001_Node000011" class="edge">
<title>Node1&#45;&gt;Node11</title>
<g id="a_edge12_Node000001_Node000011"><a xlink:title=" ">
<path fill="none" stroke="#63b8ff" d="M37.35,-132.91C54.59,-128.73 80.98,-122.31 101.3,-117.38"/>
<polygon fill="#63b8ff" stroke="#63b8ff" points="102.08,-120.79 110.98,-115.02 100.43,-113.98 102.08,-120.79"/>
</a>
</g>
</g>
<!-- Node12 -->
<g id="Node000012" class="node">
<title>Node12</title>
<g id="a_Node000012"><a xlink:href="adaline__learning_8cpp.html#a992bdf1fdb0b9d414bcf7981d2d87aa9" target="_top" xlink:title=" ">
<polygon fill="white" stroke="#666666" points="150.5,-62.88 112.75,-62.88 112.75,-43.62 150.5,-43.62 150.5,-62.88"/>
<text text-anchor="middle" x="131.62" y="-49.38" font-family="Helvetica,sans-Serif" font-size="10.00">test3</text>
</a>
</g>
</g>
<!-- Node1&#45;&gt;Node12 -->
<g id="edge17_Node000001_Node000012" class="edge">
<title>Node1&#45;&gt;Node12</title>
<g id="a_edge17_Node000001_Node000012"><a xlink:title=" ">
<path fill="none" stroke="#63b8ff" d="M30.23,-127.31C40.79,-117.7 57.55,-102.91 73,-91.25 83.04,-83.67 94.54,-75.91 104.61,-69.4"/>
<polygon fill="#63b8ff" stroke="#63b8ff" points="106.27,-72.5 112.82,-64.17 102.51,-66.59 106.27,-72.5"/>
</a>
</g>
</g>
<!-- Node3&#45;&gt;Node3 -->
<g id="edge11_Node000003_Node000003" class="edge">
<title>Node3&#45;&gt;Node3</title>
<g id="a_edge11_Node000003_Node000003"><a xlink:title=" ">
<path fill="none" stroke="#63b8ff" d="M113.91,-175.16C105.84,-183.77 111.74,-192.88 131.62,-192.88 142.5,-192.88 149.19,-190.15 151.7,-186.28"/>
<polygon fill="#63b8ff" stroke="#63b8ff" points="155.16,-185.69 149.65,-176.64 148.31,-187.15 155.16,-185.69"/>
</a>
</g>
</g>
<!-- Node4 -->
<g id="Node000004" class="node">
<title>Node4</title>
<g id="a_Node000004"><a xlink:href="classciphers_1_1_hill_cipher.html#a427acfac1dbff3f48a2b071d449d965b" target="_top" xlink:title="Decrypt a given text using a given key.">
<polygon fill="white" stroke="#666666" points="345.75,-223.5 249.5,-223.5 249.5,-193 345.75,-193 345.75,-223.5"/>
<text text-anchor="start" x="257.5" y="-210" font-family="Helvetica,sans-Serif" font-size="10.00">ciphers::HillCipher</text>
<text text-anchor="middle" x="297.62" y="-198.75" font-family="Helvetica,sans-Serif" font-size="10.00">::decrypt_text</text>
</a>
</g>
</g>
<!-- Node3&#45;&gt;Node4 -->
<g id="edge3_Node000003_Node000004" class="edge">
<title>Node3&#45;&gt;Node4</title>
<g id="a_edge3_Node000003_Node000004"><a xlink:title=" ">
<path fill="none" stroke="#63b8ff" d="M150.8,-170.02C171.75,-175.51 207.23,-184.81 237.95,-192.87"/>
<polygon fill="#63b8ff" stroke="#63b8ff" points="237,-196.23 247.56,-195.38 238.77,-189.46 237,-196.23"/>
</a>
</g>
</g>
<!-- Node5 -->
<g id="Node000005" class="node">
<title>Node5</title>
<g id="a_Node000005"><a xlink:href="classciphers_1_1_hill_cipher.html#aa8bbb6e4a5749f6008b06602d5103917" target="_top" xlink:title="Encrypt a given text using a given key.">
<polygon fill="white" stroke="#666666" points="345.75,-174.5 249.5,-174.5 249.5,-144 345.75,-144 345.75,-174.5"/>
<text text-anchor="start" x="257.5" y="-161" font-family="Helvetica,sans-Serif" font-size="10.00">ciphers::HillCipher</text>
<text text-anchor="middle" x="297.62" y="-149.75" font-family="Helvetica,sans-Serif" font-size="10.00">::encrypt_text</text>
</a>
</g>
</g>
<!-- Node3&#45;&gt;Node5 -->
<g id="edge4_Node000003_Node000005" class="edge">
<title>Node3&#45;&gt;Node5</title>
<g id="a_edge4_Node000003_Node000005"><a xlink:title=" ">
<path fill="none" stroke="#63b8ff" d="M150.8,-164.58C171.66,-163.82 206.92,-162.53 237.55,-161.41"/>
<polygon fill="#63b8ff" stroke="#63b8ff" points="237.64,-164.91 247.51,-161.05 237.39,-157.92 237.64,-164.91"/>
</a>
</g>
</g>
<!-- Node6 -->
<g id="Node000006" class="node">
<title>Node6</title>
<g id="a_Node000006"><a xlink:href="classciphers_1_1_hill_cipher.html#a405b0a28d66a61239d3565d5256f9cb5" target="_top" xlink:title="Generate encryption and decryption key pair.">
<polygon fill="white" stroke="#666666" points="345.75,-125.5 249.5,-125.5 249.5,-95 345.75,-95 345.75,-125.5"/>
<text text-anchor="start" x="257.5" y="-112" font-family="Helvetica,sans-Serif" font-size="10.00">ciphers::HillCipher</text>
<text text-anchor="middle" x="297.62" y="-100.75" font-family="Helvetica,sans-Serif" font-size="10.00">::generate_keys</text>
</a>
</g>
</g>
<!-- Node3&#45;&gt;Node6 -->
<g id="edge5_Node000003_Node000006" class="edge">
<title>Node3&#45;&gt;Node6</title>
<g id="a_edge5_Node000003_Node000006"><a xlink:title=" ">
<path fill="none" stroke="#63b8ff" d="M150.84,-159.72C162.2,-156.24 177.11,-151.59 190.25,-147.25 207.08,-141.7 225.33,-135.44 241.88,-129.67"/>
<polygon fill="#63b8ff" stroke="#63b8ff" points="242.77,-133.06 251.05,-126.46 240.46,-126.46 242.77,-133.06"/>
</a>
</g>
</g>
<!-- Node7 -->
<g id="Node000007" class="node">
<title>Node7</title>
<g id="a_Node000007"><a xlink:href="lu__decomposition_8h.html#a3108d43bd32c6fb3b3c158476c51ba7f" target="_top" xlink:title=" ">
<polygon fill="white" stroke="#666666" points="675.88,-143.88 596.12,-143.88 596.12,-124.62 675.88,-124.62 675.88,-143.88"/>
<text text-anchor="middle" x="636" y="-130.38" font-family="Helvetica,sans-Serif" font-size="10.00">determinant_lu</text>
</a>
</g>
</g>
<!-- Node6&#45;&gt;Node7 -->
<g id="edge6_Node000006_Node000007" class="edge">
<title>Node6&#45;&gt;Node7</title>
<g id="a_edge6_Node000006_Node000007"><a xlink:title=" ">
<path fill="none" stroke="#63b8ff" d="M346.06,-124.98C364.3,-129.92 385.43,-134.81 405,-137.25 466.37,-144.92 537.67,-142.21 584.41,-138.87"/>
<polygon fill="#63b8ff" stroke="#63b8ff" points="584.53,-142.37 594.24,-138.13 584.01,-135.39 584.53,-142.37"/>
</a>
</g>
</g>
<!-- Node9 -->
<g id="Node000009" class="node">
<title>Node9</title>
<g id="a_Node000009"><a xlink:href="classciphers_1_1_hill_cipher.html#ab02c7563889bf1e363deb8e21967b706" target="_top" xlink:title="Generate decryption matrix from an encryption matrix key.">
<polygon fill="white" stroke="#666666" points="535.75,-128.5 405,-128.5 405,-98 535.75,-98 535.75,-128.5"/>
<text text-anchor="start" x="413" y="-115" font-family="Helvetica,sans-Serif" font-size="10.00">ciphers::HillCipher</text>
<text text-anchor="middle" x="470.38" y="-103.75" font-family="Helvetica,sans-Serif" font-size="10.00">::generate_decryption_key</text>
</a>
</g>
</g>
<!-- Node6&#45;&gt;Node9 -->
<g id="edge8_Node000006_Node000009" class="edge">
<title>Node6&#45;&gt;Node9</title>
<g id="a_edge8_Node000006_Node000009"><a xlink:title=" ">
<path fill="none" stroke="#63b8ff" d="M346.19,-111.09C360.72,-111.34 377.08,-111.63 393.02,-111.91"/>
<polygon fill="#63b8ff" stroke="#63b8ff" points="392.95,-115.41 403.01,-112.08 393.07,-108.41 392.95,-115.41"/>
</a>
</g>
</g>
<!-- Node10 -->
<g id="Node000010" class="node">
<title>Node10</title>
<g id="a_Node000010"><a xlink:href="classciphers_1_1_hill_cipher.html#a642f70fb54cb50b00fb6df7c3f2b120e" target="_top" xlink:title="Generate encryption matrix of a given size. Larger size matrices are difficult to generate but provid...">
<polygon fill="white" stroke="#666666" points="535.75,-79.5 405,-79.5 405,-49 535.75,-49 535.75,-79.5"/>
<text text-anchor="start" x="413" y="-66" font-family="Helvetica,sans-Serif" font-size="10.00">ciphers::HillCipher</text>
<text text-anchor="middle" x="470.38" y="-54.75" font-family="Helvetica,sans-Serif" font-size="10.00">::generate_encryption_key</text>
</a>
</g>
</g>
<!-- Node6&#45;&gt;Node10 -->
<g id="edge10_Node000006_Node000010" class="edge">
<title>Node6&#45;&gt;Node10</title>
<g id="a_edge10_Node000006_Node000010"><a xlink:title=" ">
<path fill="none" stroke="#63b8ff" d="M346.19,-97.44C362.86,-92.95 381.94,-87.81 400.03,-82.93"/>
<polygon fill="#63b8ff" stroke="#63b8ff" points="400.92,-86.32 409.67,-80.34 399.1,-79.56 400.92,-86.32"/>
</a>
</g>
</g>
<!-- Node8 -->
<g id="Node000008" class="node">
<title>Node8</title>
<g id="a_Node000008"><a xlink:href="lu__decomposition_8h.html#a75b8a228c6419ecda6077255d6d60509" target="_top" xlink:title=" ">
<polygon fill="white" stroke="#666666" points="828,-143.88 736.25,-143.88 736.25,-124.62 828,-124.62 828,-143.88"/>
<text text-anchor="middle" x="782.12" y="-130.38" font-family="Helvetica,sans-Serif" font-size="10.00">lu_decomposition</text>
</a>
</g>
</g>
<!-- Node7&#45;&gt;Node8 -->
<g id="edge7_Node000007_Node000008" class="edge">
<title>Node7&#45;&gt;Node8</title>
<g id="a_edge7_Node000007_Node000008"><a xlink:title=" ">
<path fill="none" stroke="#63b8ff" d="M676,-134.25C691.04,-134.25 708.53,-134.25 724.88,-134.25"/>
<polygon fill="#63b8ff" stroke="#63b8ff" points="724.45,-137.75 734.45,-134.25 724.45,-130.75 724.45,-137.75"/>
</a>
</g>
</g>
<!-- Node9&#45;&gt;Node7 -->
<g id="edge9_Node000009_Node000007" class="edge">
<title>Node9&#45;&gt;Node7</title>
<g id="a_edge9_Node000009_Node000007"><a xlink:title=" ">
<path fill="none" stroke="#63b8ff" d="M536.04,-121.55C552.13,-123.61 569.14,-125.8 584.44,-127.76"/>
<polygon fill="#63b8ff" stroke="#63b8ff" points="583.9,-131.22 594.26,-129.02 584.79,-124.28 583.9,-131.22"/>
</a>
</g>
</g>
<!-- Node11&#45;&gt;Node4 -->
<g id="edge13_Node000011_Node000004" class="edge">
<title>Node11&#45;&gt;Node4</title>
<g id="a_edge13_Node000011_Node000004"><a xlink:title=" ">
<path fill="none" stroke="#63b8ff" d="M150.77,-120.07C162.51,-126.79 177.85,-136.25 190.25,-146.25 208.11,-160.65 206.94,-170.86 226.25,-183.25 230.18,-185.77 234.4,-188.08 238.74,-190.18"/>
<polygon fill="#63b8ff" stroke="#63b8ff" points="237.09,-193.27 247.65,-194.1 239.91,-186.87 237.09,-193.27"/>
</a>
</g>
</g>
<!-- Node11&#45;&gt;Node5 -->
<g id="edge14_Node000011_Node000005" class="edge">
<title>Node11&#45;&gt;Node5</title>
<g id="a_edge14_Node000011_Node000005"><a xlink:title=" ">
<path fill="none" stroke="#63b8ff" d="M150.8,-115.68C171.84,-121.97 207.55,-132.63 238.36,-141.84"/>
<polygon fill="#63b8ff" stroke="#63b8ff" points="236.99,-145.08 247.57,-144.59 238.99,-138.38 236.99,-145.08"/>
</a>
</g>
</g>
<!-- Node11&#45;&gt;Node6 -->
<g id="edge15_Node000011_Node000006" class="edge">
<title>Node11&#45;&gt;Node6</title>
<g id="a_edge15_Node000011_Node000006"><a xlink:title=" ">
<path fill="none" stroke="#63b8ff" d="M150.8,-110.25C171.66,-110.25 206.92,-110.25 237.55,-110.25"/>
<polygon fill="#63b8ff" stroke="#63b8ff" points="237.51,-113.75 247.51,-110.25 237.51,-106.75 237.51,-113.75"/>
</a>
</g>
</g>
<!-- Node11&#45;&gt;Node11 -->
<g id="edge16_Node000011_Node000011" class="edge">
<title>Node11&#45;&gt;Node11</title>
<g id="a_edge16_Node000011_Node000011"><a xlink:title=" ">
<path fill="none" stroke="#63b8ff" d="M113.91,-120.16C105.84,-128.77 111.74,-137.88 131.62,-137.88 142.5,-137.88 149.19,-135.15 151.7,-131.28"/>
<polygon fill="#63b8ff" stroke="#63b8ff" points="155.16,-130.69 149.65,-121.64 148.31,-132.15 155.16,-130.69"/>
</a>
</g>
</g>
<!-- Node12&#45;&gt;Node12 -->
<g id="edge22_Node000012_Node000012" class="edge">
<title>Node12&#45;&gt;Node12</title>
<g id="a_edge22_Node000012_Node000012"><a xlink:title=" ">
<path fill="none" stroke="#63b8ff" d="M113.91,-63.16C105.84,-71.77 111.74,-80.88 131.62,-80.88 142.5,-80.88 149.19,-78.15 151.7,-74.28"/>
<polygon fill="#63b8ff" stroke="#63b8ff" points="155.16,-73.69 149.65,-64.64 148.31,-75.15 155.16,-73.69"/>
</a>
</g>
</g>
<!-- Node13 -->
<g id="Node000013" class="node">
<title>Node13</title>
<g id="a_Node000013"><a xlink:href="classmachine__learning_1_1adaline.html#a74e3c6c037b67895014414c5d75465e5" target="_top" xlink:title=" ">
<polygon fill="white" stroke="#666666" points="369,-24.88 226.25,-24.88 226.25,-5.63 369,-5.63 369,-24.88"/>
<text text-anchor="middle" x="297.62" y="-11.38" font-family="Helvetica,sans-Serif" font-size="10.00">machine_learning::adaline::fit</text>
</a>
</g>
</g>
<!-- Node12&#45;&gt;Node13 -->
<g id="edge18_Node000012_Node000013" class="edge">
<title>Node12&#45;&gt;Node13</title>
<g id="a_edge18_Node000012_Node000013"><a xlink:title=" ">
<path fill="none" stroke="#63b8ff" d="M150.8,-49.04C172.74,-43.96 210.61,-35.18 242.26,-27.85"/>
<polygon fill="#63b8ff" stroke="#63b8ff" points="242.74,-31.33 251.69,-25.66 241.16,-24.51 242.74,-31.33"/>
</a>
</g>
</g>
<!-- Node14 -->
<g id="Node000014" class="node">
<title>Node14</title>
<g id="a_Node000014"><a xlink:href="classmachine__learning_1_1adaline.html#ab11242d9ad5b03a75911e29b04f78fd3" target="_top" xlink:title=" ">
<polygon fill="white" stroke="#666666" points="534.62,-30.5 406.12,-30.5 406.12,0 534.62,0 534.62,-30.5"/>
<text text-anchor="start" x="414.12" y="-17" font-family="Helvetica,sans-Serif" font-size="10.00">machine_learning::adaline</text>
<text text-anchor="middle" x="470.38" y="-5.75" font-family="Helvetica,sans-Serif" font-size="10.00">::predict</text>
</a>
</g>
</g>
<!-- Node12&#45;&gt;Node14 -->
<g id="edge21_Node000012_Node000014" class="edge">
<title>Node12&#45;&gt;Node14</title>
<g id="a_edge21_Node000012_Node000014"><a xlink:title=" ">
<path fill="none" stroke="#63b8ff" d="M150.78,-52.45C190.5,-50.56 288.01,-45.14 369,-34.25 377.31,-33.13 385.98,-31.78 394.58,-30.32"/>
<polygon fill="#63b8ff" stroke="#63b8ff" points="395.09,-33.78 404.33,-28.6 393.88,-26.89 395.09,-33.78"/>
</a>
</g>
</g>
<!-- Node13&#45;&gt;Node14 -->
<g id="edge19_Node000013_Node000014" class="edge">
<title>Node13&#45;&gt;Node14</title>
<g id="a_edge19_Node000013_Node000014"><a xlink:title=" ">
<path fill="none" stroke="#63b8ff" d="M369.06,-15.25C377.4,-15.25 385.93,-15.25 394.33,-15.25"/>
<polygon fill="#63b8ff" stroke="#63b8ff" points="394.15,-18.75 404.15,-15.25 394.15,-11.75 394.15,-18.75"/>
</a>
</g>
</g>
<!-- Node15 -->
<g id="Node000015" class="node">
<title>Node15</title>
<g id="a_Node000015"><a xlink:href="classmachine__learning_1_1adaline.html#a082f758fb55fe19f22b3df66f89b2325" target="_top" xlink:title=" ">
<polygon fill="white" stroke="#666666" points="700.25,-30.5 571.75,-30.5 571.75,0 700.25,0 700.25,-30.5"/>
<text text-anchor="start" x="579.75" y="-17" font-family="Helvetica,sans-Serif" font-size="10.00">machine_learning::adaline</text>
<text text-anchor="middle" x="636" y="-5.75" font-family="Helvetica,sans-Serif" font-size="10.00">::activation</text>
</a>
</g>
</g>
<!-- Node14&#45;&gt;Node15 -->
<g id="edge20_Node000014_Node000015" class="edge">
<title>Node14&#45;&gt;Node15</title>
<g id="a_edge20_Node000014_Node000015"><a xlink:title=" ">
<path fill="none" stroke="#63b8ff" d="M535.11,-15.25C543.31,-15.25 551.77,-15.25 560.13,-15.25"/>
<polygon fill="#63b8ff" stroke="#63b8ff" points="559.93,-18.75 569.93,-15.25 559.93,-11.75 559.93,-18.75"/>
</a>
</g>
</g>
</g>
</svg>

<g id="navigator" transform="translate(0 0)" fill="#404254">
  <rect fill="#f2f5e9" fill-opacity="0.5" stroke="#606060" stroke-width=".5" x="0" y="0" width="60" height="60"/>
  <use id="zoomplus" xlink:href="#zoomPlus" x="17" y="9" onmousedown="handleZoom(evt,'in')"/>
  <use id="zoomminus" xlink:href="#zoomMin" x="42" y="9" onmousedown="handleZoom(evt,'out')"/>
  <use id="reset" xlink:href="#resetDef" x="30" y="36" onmousedown="handleReset()"/>
   <use id="arrowup" xlink:href="#arrowUp" x="0" y="0" onmousedown="handlePan(0,-1)"/>
  <use id="arrowright" xlink:href="#arrowRight" x="0" y="0" onmousedown="handlePan(1,0)"/>
  <use id="arrowdown" xlink:href="#arrowDown" x="0" y="0" onmousedown="handlePan(0,1)"/>
  <use id="arrowleft" xlink:href="#arrowLeft" x="0" y="0" onmousedown="handlePan(-1,0)"/>
</g>
<svg viewBox="0 0 15 15" width="100%" height="30px" preserveAspectRatio="xMaxYMin meet">
 <g id="arrow_out" transform="scale(0.3 0.3)">
  <a xlink:href="iterative__tree__traversals_8cpp_ae66f6b31b5ad750f1fe042a706a4e3d4_cgraph_org.svg" target="_base">
   <rect id="button" ry="5" rx="5" y="6" x="6" height="38" width="38"
        fill="#f2f5e9" fill-opacity="0.5" stroke="#606060" stroke-width="1.0"/>
   <path id="arrow"
     d="M 11.500037,31.436501 C 11.940474,20.09759 22.043105,11.32322 32.158766,21.979434 L 37.068811,17.246167 C 37.068811,17.246167 37.088388,32 37.088388,32 L 22.160133,31.978069 C 22.160133,31.978069 26.997745,27.140456 26.997745,27.140456 C 18.528582,18.264221 13.291696,25.230495 11.500037,31.436501 z"
     style="fill:#404040;"/>
  </a>
 </g>
</svg>

<style type='text/css'>
<![CDATA[
[data-mouse-over-selected='false'] { opacity: 0.7; }
[data-mouse-over-selected='true']  { opacity: 1.0; }
]]>
</style>
<script type="application/ecmascript"><![CDATA[
document.addEventListener('DOMContentLoaded', (event) => {
  highlightEdges();
  highlightAdjacentNodes();
});
]]></script>
</svg>
