<?xml version="1.0" encoding="UTF-8" standalone="no"?>
<!DOCTYPE svg PUBLIC "-//W3C//DTD SVG 1.1//EN"
 "http://www.w3.org/Graphics/SVG/1.1/DTD/svg11.dtd">
<!-- Generated by graphviz version 12.1.1 (20240910.0053)
 -->
<!-- Title: divide_and_conquer::karatsuba_algorithm::karatsuba_algorithm Pages: 1 -->
<svg width="264pt" height="146pt"
 viewBox="0.00 0.00 263.50 145.75" xmlns="http://www.w3.org/2000/svg" xmlns:xlink="http://www.w3.org/1999/xlink">
<g id="graph0" class="graph" transform="scale(1 1) rotate(0) translate(4 141.75)">
<title>divide_and_conquer::karatsuba_algorithm::karatsuba_algorithm</title>
<!-- Node1 -->
<g id="Node000001" class="node">
<title>Node1</title>
<g id="a_Node000001"><a xlink:title="The main function implements Karatsuba&#39;s algorithm for fast multiplication.">
<polygon fill="#999999" stroke="#666666" points="109.75,-80.75 0,-80.75 0,-39 109.75,-39 109.75,-80.75"/>
<text text-anchor="start" x="8" y="-67.25" font-family="Helvetica,sans-Serif" font-size="10.00">divide_and_conquer</text>
<text text-anchor="start" x="8" y="-56" font-family="Helvetica,sans-Serif" font-size="10.00">::karatsuba_algorithm</text>
<text text-anchor="middle" x="54.88" y="-44.75" font-family="Helvetica,sans-Serif" font-size="10.00">::karatsuba_algorithm</text>
</a>
</g>
</g>
<!-- Node2 -->
<g id="Node000002" class="node">
<title>Node2</title>
<g id="a_Node000002"><a xlink:href="karatsuba__algorithm__for__fast__multiplication_8cpp.html#ad76f5cac3ef8dc034f6abb99b64c2b20" target="_top" xlink:title="Binary addition.">
<polygon fill="white" stroke="#666666" points="255.5,-119.75 145.75,-119.75 145.75,-78 255.5,-78 255.5,-119.75"/>
<text text-anchor="start" x="153.75" y="-106.25" font-family="Helvetica,sans-Serif" font-size="10.00">divide_and_conquer</text>
<text text-anchor="start" x="153.75" y="-95" font-family="Helvetica,sans-Serif" font-size="10.00">::karatsuba_algorithm</text>
<text text-anchor="middle" x="200.62" y="-83.75" font-family="Helvetica,sans-Serif" font-size="10.00">::add_strings</text>
</a>
</g>
</g>
<!-- Node1&#45;&gt;Node2 -->
<g id="edge1_Node000001_Node000002" class="edge">
<title>Node1&#45;&gt;Node2</title>
<g id="a_edge1_Node000001_Node000002"><a xlink:title=" ">
<path fill="none" stroke="#63b8ff" d="M110.22,-74.62C118.2,-76.78 126.49,-79.03 134.66,-81.25"/>
<polygon fill="#63b8ff" stroke="#63b8ff" points="133.65,-84.6 144.22,-83.84 135.48,-77.85 133.65,-84.6"/>
</a>
</g>
</g>
<!-- Node3 -->
<g id="Node000003" class="node">
<title>Node3</title>
<g id="a_Node000003"><a xlink:href="karatsuba__algorithm__for__fast__multiplication_8cpp.html#aad9e3edfe156b59fc06a5585403fe0d6" target="_top" xlink:title="Wrapper function for substr that considers leading zeros.">
<polygon fill="white" stroke="#666666" points="255.5,-41.75 145.75,-41.75 145.75,0 255.5,0 255.5,-41.75"/>
<text text-anchor="start" x="153.75" y="-28.25" font-family="Helvetica,sans-Serif" font-size="10.00">divide_and_conquer</text>
<text text-anchor="start" x="153.75" y="-17" font-family="Helvetica,sans-Serif" font-size="10.00">::karatsuba_algorithm</text>
<text text-anchor="middle" x="200.62" y="-5.75" font-family="Helvetica,sans-Serif" font-size="10.00">::safe_substr</text>
</a>
</g>
</g>
<!-- Node1&#45;&gt;Node3 -->
<g id="edge3_Node000001_Node000003" class="edge">
<title>Node1&#45;&gt;Node3</title>
<g id="a_edge3_Node000001_Node000003"><a xlink:title=" ">
<path fill="none" stroke="#63b8ff" d="M110.22,-45.13C118.2,-42.97 126.49,-40.72 134.66,-38.5"/>
<polygon fill="#63b8ff" stroke="#63b8ff" points="135.48,-41.9 144.22,-35.91 133.65,-35.15 135.48,-41.9"/>
</a>
</g>
</g>
<!-- Node2&#45;&gt;Node2 -->
<g id="edge2_Node000002_Node000002" class="edge">
<title>Node2&#45;&gt;Node2</title>
<g id="a_edge2_Node000002_Node000002"><a xlink:title=" ">
<path fill="none" stroke="#63b8ff" d="M173.72,-120.07C171.16,-129.55 180.13,-137.75 200.62,-137.75 212.47,-137.75 220.47,-135.01 224.61,-130.86"/>
<polygon fill="#63b8ff" stroke="#63b8ff" points="227.91,-132.1 227.13,-121.53 221.15,-130.27 227.91,-132.1"/>
</a>
</g>
</g>
<!-- Node3&#45;&gt;Node3 -->
<g id="edge4_Node000003_Node000003" class="edge">
<title>Node3&#45;&gt;Node3</title>
<g id="a_edge4_Node000003_Node000003"><a xlink:title=" ">
<path fill="none" stroke="#63b8ff" d="M173.72,-42.07C171.16,-51.55 180.13,-59.75 200.62,-59.75 212.47,-59.75 220.47,-57.01 224.61,-52.86"/>
<polygon fill="#63b8ff" stroke="#63b8ff" points="227.91,-54.1 227.13,-43.53 221.15,-52.27 227.91,-54.1"/>
</a>
</g>
</g>
</g>
</svg>
