<?xml version="1.0" encoding="UTF-8" standalone="no"?>
<!DOCTYPE svg PUBLIC "-//W3C//DTD SVG 1.1//EN"
 "http://www.w3.org/Graphics/SVG/1.1/DTD/svg11.dtd">
<!-- Generated by graphviz version 12.1.1 (20240910.0053)
 -->
<!-- Title: test2 Pages: 1 -->
<svg width="264pt" height="79pt"
 viewBox="0.00 0.00 263.75 78.62" xmlns="http://www.w3.org/2000/svg" xmlns:xlink="http://www.w3.org/1999/xlink">
<g id="graph0" class="graph" transform="scale(1 1) rotate(0) translate(4 74.62)">
<title>test2</title>
<!-- Node1 -->
<g id="Node000001" class="node">
<title>Node1</title>
<g id="a_Node000001"><a xlink:title=" ">
<polygon fill="#999999" stroke="#666666" points="37.75,-56.25 0,-56.25 0,-37 37.75,-37 37.75,-56.25"/>
<text text-anchor="middle" x="18.88" y="-42.75" font-family="Helvetica,sans-Serif" font-size="10.00">test2</text>
</a>
</g>
</g>
<!-- Node2 -->
<g id="Node000002" class="node">
<title>Node2</title>
<g id="a_Node000002"><a xlink:href="group__machine__learning.html#gaf5ce14f026d6d231bef29161bac2b485" target="_top" xlink:title=" ">
<polygon fill="white" stroke="#666666" points="255.75,-56.25 202.25,-56.25 202.25,-37 255.75,-37 255.75,-56.25"/>
<text text-anchor="middle" x="229" y="-42.75" font-family="Helvetica,sans-Serif" font-size="10.00">_random</text>
</a>
</g>
</g>
<!-- Node1&#45;&gt;Node2 -->
<g id="edge1_Node000001_Node000002" class="edge">
<title>Node1&#45;&gt;Node2</title>
<g id="a_edge1_Node000001_Node000002"><a xlink:title=" ">
<path fill="none" stroke="#63b8ff" d="M37.91,-54.72C48.19,-58.88 61.43,-63.52 73.75,-65.62 114.27,-72.56 125.6,-71.74 166.25,-65.62 174.39,-64.4 182.94,-62.32 191,-59.97"/>
<polygon fill="#63b8ff" stroke="#63b8ff" points="192.02,-63.31 200.51,-56.98 189.93,-56.63 192.02,-63.31"/>
</a>
</g>
</g>
<!-- Node3 -->
<g id="Node000003" class="node">
<title>Node3</title>
<g id="a_Node000003"><a xlink:href="group__machine__learning.html#gabc90175770bf0d5853c466e14993a08c" target="_top" xlink:title=" ">
<polygon fill="white" stroke="#666666" points="158.38,-56.25 81.62,-56.25 81.62,-37 158.38,-37 158.38,-56.25"/>
<text text-anchor="middle" x="120" y="-42.75" font-family="Helvetica,sans-Serif" font-size="10.00">save_2d_data</text>
</a>
</g>
</g>
<!-- Node1&#45;&gt;Node3 -->
<g id="edge2_Node000001_Node000003" class="edge">
<title>Node1&#45;&gt;Node3</title>
<g id="a_edge2_Node000001_Node000003"><a xlink:title=" ">
<path fill="none" stroke="#63b8ff" d="M38.06,-46.62C47.11,-46.62 58.54,-46.62 69.93,-46.62"/>
<polygon fill="#63b8ff" stroke="#63b8ff" points="69.71,-50.13 79.71,-46.63 69.71,-43.13 69.71,-50.13"/>
</a>
</g>
</g>
<!-- Node4 -->
<g id="Node000004" class="node">
<title>Node4</title>
<g id="a_Node000004"><a xlink:href="kohonen__som__topology_8cpp.html#a1302662a56ebf67a21249270b017297e" target="_top" xlink:title=" ">
<polygon fill="white" stroke="#666666" points="166.25,-19.25 73.75,-19.25 73.75,0 166.25,0 166.25,-19.25"/>
<text text-anchor="middle" x="120" y="-5.75" font-family="Helvetica,sans-Serif" font-size="10.00">test_3d_classes1</text>
</a>
</g>
</g>
<!-- Node1&#45;&gt;Node4 -->
<g id="edge3_Node000001_Node000004" class="edge">
<title>Node1&#45;&gt;Node4</title>
<g id="a_edge3_Node000001_Node000004"><a xlink:title=" ">
<path fill="none" stroke="#63b8ff" d="M38.06,-39.84C50.2,-35.31 66.61,-29.18 81.48,-23.63"/>
<polygon fill="#63b8ff" stroke="#63b8ff" points="82.4,-27.02 90.54,-20.25 79.95,-20.47 82.4,-27.02"/>
</a>
</g>
</g>
<!-- Node4&#45;&gt;Node2 -->
<g id="edge4_Node000004_Node000002" class="edge">
<title>Node4&#45;&gt;Node2</title>
<g id="a_edge4_Node000004_Node000002"><a xlink:title=" ">
<path fill="none" stroke="#63b8ff" d="M150.24,-19.74C162.9,-24.12 177.87,-29.29 191.27,-33.93"/>
<polygon fill="#63b8ff" stroke="#63b8ff" points="190.06,-37.21 200.65,-37.17 192.34,-30.59 190.06,-37.21"/>
</a>
</g>
</g>
</g>
</svg>
