<?xml version="1.0" encoding="UTF-8" standalone="no"?>
<!DOCTYPE svg PUBLIC "-//W3C//DTD SVG 1.1//EN"
 "http://www.w3.org/Graphics/SVG/1.1/DTD/svg11.dtd">
<!-- Generated by graphviz version 12.1.1 (20240910.0053)
 -->
<!-- Title: test2 Pages: 1 -->
<svg width="256pt" height="78pt"
 viewBox="0.00 0.00 256.25 78.22" xmlns="http://www.w3.org/2000/svg" xmlns:xlink="http://www.w3.org/1999/xlink">
<g id="graph0" class="graph" transform="scale(1 1) rotate(0) translate(4 74.22)">
<title>test2</title>
<!-- Node1 -->
<g id="Node000001" class="node">
<title>Node1</title>
<g id="a_Node000001"><a xlink:title=" ">
<polygon fill="#999999" stroke="#666666" points="37.75,-56.25 0,-56.25 0,-37 37.75,-37 37.75,-56.25"/>
<text text-anchor="middle" x="18.88" y="-42.75" font-family="Helvetica,sans-Serif" font-size="10.00">test2</text>
</a>
</g>
</g>
<!-- Node2 -->
<g id="Node000002" class="node">
<title>Node2</title>
<g id="a_Node000002"><a xlink:href="group__machine__learning.html#gaf5ce14f026d6d231bef29161bac2b485" target="_top" xlink:title=" ">
<polygon fill="white" stroke="#666666" points="248.25,-56.25 194.75,-56.25 194.75,-37 248.25,-37 248.25,-56.25"/>
<text text-anchor="middle" x="221.5" y="-42.75" font-family="Helvetica,sans-Serif" font-size="10.00">_random</text>
</a>
</g>
</g>
<!-- Node1&#45;&gt;Node2 -->
<g id="edge1_Node000001_Node000002" class="edge">
<title>Node1&#45;&gt;Node2</title>
<g id="a_edge1_Node000001_Node000002"><a xlink:title=" ">
<path fill="none" stroke="#63b8ff" d="M37.91,-54.72C48.19,-58.88 61.43,-63.52 73.75,-65.62 110.99,-72 121.39,-71.24 158.75,-65.62 166.89,-64.4 175.44,-62.32 183.5,-59.97"/>
<polygon fill="#63b8ff" stroke="#63b8ff" points="184.52,-63.31 193.01,-56.98 182.43,-56.63 184.52,-63.31"/>
</a>
</g>
</g>
<!-- Node3 -->
<g id="Node000003" class="node">
<title>Node3</title>
<g id="a_Node000003"><a xlink:href="group__machine__learning.html#gae0208548f8b393528e5db01717e88e67" target="_top" xlink:title=" ">
<polygon fill="white" stroke="#666666" points="154.62,-56.25 77.88,-56.25 77.88,-37 154.62,-37 154.62,-56.25"/>
<text text-anchor="middle" x="116.25" y="-42.75" font-family="Helvetica,sans-Serif" font-size="10.00">save_nd_data</text>
</a>
</g>
</g>
<!-- Node1&#45;&gt;Node3 -->
<g id="edge2_Node000001_Node000003" class="edge">
<title>Node1&#45;&gt;Node3</title>
<g id="a_edge2_Node000001_Node000003"><a xlink:title=" ">
<path fill="none" stroke="#63b8ff" d="M37.81,-46.62C45.97,-46.62 56.06,-46.62 66.22,-46.62"/>
<polygon fill="#63b8ff" stroke="#63b8ff" points="66.13,-50.13 76.13,-46.63 66.13,-43.13 66.13,-50.13"/>
</a>
</g>
</g>
<!-- Node4 -->
<g id="Node000004" class="node">
<title>Node4</title>
<g id="a_Node000004"><a xlink:href="kohonen__som__trace_8cpp.html#a53082f2e5bacec40266499da4547309a" target="_top" xlink:title=" ">
<polygon fill="white" stroke="#666666" points="158.75,-19.25 73.75,-19.25 73.75,0 158.75,0 158.75,-19.25"/>
<text text-anchor="middle" x="116.25" y="-5.75" font-family="Helvetica,sans-Serif" font-size="10.00">test_lamniscate</text>
</a>
</g>
</g>
<!-- Node1&#45;&gt;Node4 -->
<g id="edge3_Node000001_Node000004" class="edge">
<title>Node1&#45;&gt;Node4</title>
<g id="a_edge3_Node000001_Node000004"><a xlink:title=" ">
<path fill="none" stroke="#63b8ff" d="M37.81,-39.67C49.42,-35.16 64.95,-29.14 79.05,-23.67"/>
<polygon fill="#63b8ff" stroke="#63b8ff" points="80,-27.05 88.06,-20.17 77.47,-20.53 80,-27.05"/>
</a>
</g>
</g>
<!-- Node4&#45;&gt;Node2 -->
<g id="edge4_Node000004_Node000002" class="edge">
<title>Node4&#45;&gt;Node2</title>
<g id="a_edge4_Node000004_Node000002"><a xlink:title=" ">
<path fill="none" stroke="#63b8ff" d="M145.46,-19.74C157.29,-23.97 171.19,-28.95 183.79,-33.47"/>
<polygon fill="#63b8ff" stroke="#63b8ff" points="182.43,-36.7 193.02,-36.78 184.79,-30.11 182.43,-36.7"/>
</a>
</g>
</g>
</g>
</svg>
