<?xml version="1.0" encoding="UTF-8" standalone="no"?>
<!DOCTYPE svg PUBLIC "-//W3C//DTD SVG 1.1//EN"
 "http://www.w3.org/Graphics/SVG/1.1/DTD/svg11.dtd">
<!-- Generated by graphviz version 12.1.1 (20240910.0053)
 -->
<!-- Title: test1 Pages: 1 -->
<svg width="248pt" height="78pt"
 viewBox="0.00 0.00 248.00 77.77" xmlns="http://www.w3.org/2000/svg" xmlns:xlink="http://www.w3.org/1999/xlink">
<g id="graph0" class="graph" transform="scale(1 1) rotate(0) translate(4 73.77)">
<title>test1</title>
<!-- Node1 -->
<g id="Node000001" class="node">
<title>Node1</title>
<g id="a_Node000001"><a xlink:title=" ">
<polygon fill="#999999" stroke="#666666" points="37.75,-56.25 0,-56.25 0,-37 37.75,-37 37.75,-56.25"/>
<text text-anchor="middle" x="18.88" y="-42.75" font-family="Helvetica,sans-Serif" font-size="10.00">test1</text>
</a>
</g>
</g>
<!-- Node2 -->
<g id="Node000002" class="node">
<title>Node2</title>
<g id="a_Node000002"><a xlink:href="group__machine__learning.html#gaf5ce14f026d6d231bef29161bac2b485" target="_top" xlink:title=" ">
<polygon fill="white" stroke="#666666" points="240,-56.25 186.5,-56.25 186.5,-37 240,-37 240,-56.25"/>
<text text-anchor="middle" x="213.25" y="-42.75" font-family="Helvetica,sans-Serif" font-size="10.00">_random</text>
</a>
</g>
</g>
<!-- Node1&#45;&gt;Node2 -->
<g id="edge1_Node000001_Node000002" class="edge">
<title>Node1&#45;&gt;Node2</title>
<g id="a_edge1_Node000001_Node000002"><a xlink:title=" ">
<path fill="none" stroke="#63b8ff" d="M37.91,-54.72C48.19,-58.88 61.43,-63.52 73.75,-65.62 107.37,-71.38 116.77,-70.7 150.5,-65.62 158.64,-64.4 167.19,-62.32 175.25,-59.97"/>
<polygon fill="#63b8ff" stroke="#63b8ff" points="176.27,-63.31 184.76,-56.98 174.18,-56.63 176.27,-63.31"/>
</a>
</g>
</g>
<!-- Node3 -->
<g id="Node000003" class="node">
<title>Node3</title>
<g id="a_Node000003"><a xlink:href="group__machine__learning.html#gae0208548f8b393528e5db01717e88e67" target="_top" xlink:title=" ">
<polygon fill="white" stroke="#666666" points="150.5,-56.25 73.75,-56.25 73.75,-37 150.5,-37 150.5,-56.25"/>
<text text-anchor="middle" x="112.12" y="-42.75" font-family="Helvetica,sans-Serif" font-size="10.00">save_nd_data</text>
</a>
</g>
</g>
<!-- Node1&#45;&gt;Node3 -->
<g id="edge2_Node000001_Node000003" class="edge">
<title>Node1&#45;&gt;Node3</title>
<g id="a_edge2_Node000001_Node000003"><a xlink:title=" ">
<path fill="none" stroke="#63b8ff" d="M37.9,-46.62C44.98,-46.62 53.48,-46.62 62.14,-46.62"/>
<polygon fill="#63b8ff" stroke="#63b8ff" points="62,-50.13 72,-46.63 62,-43.13 62,-50.13"/>
</a>
</g>
</g>
<!-- Node4 -->
<g id="Node000004" class="node">
<title>Node4</title>
<g id="a_Node000004"><a xlink:href="kohonen__som__trace_8cpp.html#ae571600aa42a81bc14a4a602ea5ff00d" target="_top" xlink:title=" ">
<polygon fill="white" stroke="#666666" points="142.62,-19.25 81.62,-19.25 81.62,0 142.62,0 142.62,-19.25"/>
<text text-anchor="middle" x="112.12" y="-5.75" font-family="Helvetica,sans-Serif" font-size="10.00">test_circle</text>
</a>
</g>
</g>
<!-- Node1&#45;&gt;Node4 -->
<g id="edge3_Node000001_Node000004" class="edge">
<title>Node1&#45;&gt;Node4</title>
<g id="a_edge3_Node000001_Node000004"><a xlink:title=" ">
<path fill="none" stroke="#63b8ff" d="M37.9,-39.31C48.7,-34.94 62.79,-29.22 75.73,-23.98"/>
<polygon fill="#63b8ff" stroke="#63b8ff" points="76.87,-27.29 84.82,-20.29 74.24,-20.8 76.87,-27.29"/>
</a>
</g>
</g>
<!-- Node4&#45;&gt;Node2 -->
<g id="edge4_Node000004_Node000002" class="edge">
<title>Node4&#45;&gt;Node2</title>
<g id="a_edge4_Node000004_Node000002"><a xlink:title=" ">
<path fill="none" stroke="#63b8ff" d="M140.21,-19.74C151.18,-23.83 164.02,-28.62 175.79,-33.02"/>
<polygon fill="#63b8ff" stroke="#63b8ff" points="174.21,-36.16 184.8,-36.38 176.66,-29.6 174.21,-36.16"/>
</a>
</g>
</g>
</g>
</svg>
