<?xml version="1.0" encoding="UTF-8" standalone="no"?>
<!DOCTYPE svg PUBLIC "-//W3C//DTD SVG 1.1//EN"
 "http://www.w3.org/Graphics/SVG/1.1/DTD/svg11.dtd">
<!-- Generated by graphviz version 12.1.1 (20240910.0053)
 -->
<!-- Title: main Pages: 1 -->
<svg width="376pt" height="236pt"
 viewBox="0.00 0.00 375.75 236.46" xmlns="http://www.w3.org/2000/svg" xmlns:xlink="http://www.w3.org/1999/xlink">

<svg id="main" version="1.1" xmlns="http://www.w3.org/2000/svg" xmlns:xlink="http://www.w3.org/1999/xlink" xml:space="preserve">

<style type="text/css"><![CDATA[
.node, .edge {opacity: 0.7;}
.node.selected, .edge.selected {opacity: 1;}
.edge:hover path { stroke: red; }
.edge:hover polygon { stroke: red; fill: red; }
]]></style>
<script type="application/ecmascript" xlink:href="svg.min.js"/>
<svg id="graph" class="graph">
<g id="graph0" class="graph" transform="scale(1 1) rotate(0) translate(4 232.46)">
<title>main</title>
<!-- Node1 -->
<g id="Node000001" class="node">
<title>Node1</title>
<g id="a_Node000001"><a xlink:title=" ">
<polygon fill="#999999" stroke="#666666" points="37,-133.46 0,-133.46 0,-114.21 37,-114.21 37,-133.46"/>
<text text-anchor="middle" x="18.5" y="-119.96" font-family="Helvetica,sans-Serif" font-size="10.00">main</text>
</a>
</g>
</g>
<!-- Node2 -->
<g id="Node000002" class="node">
<title>Node2</title>
<g id="a_Node000002"><a xlink:href="kohonen__som__topology_8cpp.html#a2256c10b16edba377b64a44b6c656908" target="_top" xlink:title=" ">
<polygon fill="white" stroke="#666666" points="149.75,-189.46 73,-189.46 73,-170.21 149.75,-170.21 149.75,-189.46"/>
<text text-anchor="middle" x="111.38" y="-175.96" font-family="Helvetica,sans-Serif" font-size="10.00">get_clock_diff</text>
</a>
</g>
</g>
<!-- Node1&#45;&gt;Node2 -->
<g id="edge1_Node000001_Node000002" class="edge">
<title>Node1&#45;&gt;Node2</title>
<g id="a_edge1_Node000001_Node000002"><a xlink:title=" ">
<path fill="none" stroke="#63b8ff" d="M32.28,-133.84C42.87,-141.9 58.48,-153.27 73,-161.84 74.62,-162.79 76.3,-163.74 78.01,-164.67"/>
<polygon fill="#63b8ff" stroke="#63b8ff" points="76.08,-167.62 86.57,-169.09 79.29,-161.4 76.08,-167.62"/>
</a>
</g>
</g>
<!-- Node3 -->
<g id="Node000003" class="node">
<title>Node3</title>
<g id="a_Node000003"><a xlink:href="kohonen__som__topology_8cpp.html#a1440a7779ac56f47a3f355ce4a8c7da0" target="_top" xlink:title=" ">
<polygon fill="white" stroke="#666666" points="130.25,-152.46 92.5,-152.46 92.5,-133.21 130.25,-133.21 130.25,-152.46"/>
<text text-anchor="middle" x="111.38" y="-138.96" font-family="Helvetica,sans-Serif" font-size="10.00">test1</text>
</a>
</g>
</g>
<!-- Node1&#45;&gt;Node3 -->
<g id="edge2_Node000001_Node000003" class="edge">
<title>Node1&#45;&gt;Node3</title>
<g id="a_edge2_Node000001_Node000003"><a xlink:title=" ">
<path fill="none" stroke="#63b8ff" d="M37.45,-127.59C49.94,-130.2 66.87,-133.74 81.27,-136.75"/>
<polygon fill="#63b8ff" stroke="#63b8ff" points="80.16,-140.1 90.67,-138.72 81.59,-133.24 80.16,-140.1"/>
</a>
</g>
</g>
<!-- Node7 -->
<g id="Node000007" class="node">
<title>Node7</title>
<g id="a_Node000007"><a xlink:href="kohonen__som__topology_8cpp.html#a0283886819c7c140a023582b7269e2d0" target="_top" xlink:title=" ">
<polygon fill="white" stroke="#666666" points="130.25,-59.46 92.5,-59.46 92.5,-40.21 130.25,-40.21 130.25,-59.46"/>
<text text-anchor="middle" x="111.38" y="-45.96" font-family="Helvetica,sans-Serif" font-size="10.00">test2</text>
</a>
</g>
</g>
<!-- Node1&#45;&gt;Node7 -->
<g id="edge7_Node000001_Node000007" class="edge">
<title>Node1&#45;&gt;Node7</title>
<g id="a_edge7_Node000001_Node000007"><a xlink:title=" ">
<path fill="none" stroke="#63b8ff" d="M31.76,-113.86C46.53,-101.83 71.58,-81.43 89.43,-66.89"/>
<polygon fill="#63b8ff" stroke="#63b8ff" points="91.31,-69.88 96.85,-60.85 86.89,-64.45 91.31,-69.88"/>
</a>
</g>
</g>
<!-- Node9 -->
<g id="Node000009" class="node">
<title>Node9</title>
<g id="a_Node000009"><a xlink:href="kohonen__som__topology_8cpp.html#a6d0455dd5c30adda100e95f0423c786e" target="_top" xlink:title=" ">
<polygon fill="white" stroke="#666666" points="130.25,-115.46 92.5,-115.46 92.5,-96.21 130.25,-96.21 130.25,-115.46"/>
<text text-anchor="middle" x="111.38" y="-101.96" font-family="Helvetica,sans-Serif" font-size="10.00">test3</text>
</a>
</g>
</g>
<!-- Node1&#45;&gt;Node9 -->
<g id="edge12_Node000001_Node000009" class="edge">
<title>Node1&#45;&gt;Node9</title>
<g id="a_edge12_Node000001_Node000009"><a xlink:title=" ">
<path fill="none" stroke="#63b8ff" d="M37.45,-120.28C49.94,-117.81 66.87,-114.45 81.27,-111.6"/>
<polygon fill="#63b8ff" stroke="#63b8ff" points="81.53,-115.12 90.66,-109.74 80.17,-108.25 81.53,-115.12"/>
</a>
</g>
</g>
<!-- Node4 -->
<g id="Node000004" class="node">
<title>Node4</title>
<g id="a_Node000004"><a xlink:href="group__machine__learning.html#gaf5ce14f026d6d231bef29161bac2b485" target="_top" xlink:title=" ">
<polygon fill="white" stroke="#666666" points="367.75,-96.46 314.25,-96.46 314.25,-77.21 367.75,-77.21 367.75,-96.46"/>
<text text-anchor="middle" x="341" y="-82.96" font-family="Helvetica,sans-Serif" font-size="10.00">_random</text>
</a>
</g>
</g>
<!-- Node3&#45;&gt;Node4 -->
<g id="edge3_Node000003_Node000004" class="edge">
<title>Node3&#45;&gt;Node4</title>
<g id="a_edge3_Node000003_Node000004"><a xlink:title=" ">
<path fill="none" stroke="#63b8ff" d="M130.33,-150.87C161.91,-163.72 228.71,-185.22 278.25,-161.84 302.12,-150.57 319.89,-125.04 330.09,-106.91"/>
<polygon fill="#63b8ff" stroke="#63b8ff" points="333.16,-108.58 334.74,-98.1 326.97,-105.31 333.16,-108.58"/>
</a>
</g>
</g>
<!-- Node5 -->
<g id="Node000005" class="node">
<title>Node5</title>
<g id="a_Node000005"><a xlink:href="group__machine__learning.html#gabc90175770bf0d5853c466e14993a08c" target="_top" xlink:title=" ">
<polygon fill="white" stroke="#666666" points="270.38,-152.46 193.62,-152.46 193.62,-133.21 270.38,-133.21 270.38,-152.46"/>
<text text-anchor="middle" x="232" y="-138.96" font-family="Helvetica,sans-Serif" font-size="10.00">save_2d_data</text>
</a>
</g>
</g>
<!-- Node3&#45;&gt;Node5 -->
<g id="edge4_Node000003_Node000005" class="edge">
<title>Node3&#45;&gt;Node5</title>
<g id="a_edge4_Node000003_Node000005"><a xlink:title=" ">
<path fill="none" stroke="#63b8ff" d="M130.65,-142.84C144.36,-142.84 163.82,-142.84 181.95,-142.84"/>
<polygon fill="#63b8ff" stroke="#63b8ff" points="181.79,-146.34 191.79,-142.84 181.79,-139.34 181.79,-146.34"/>
</a>
</g>
</g>
<!-- Node6 -->
<g id="Node000006" class="node">
<title>Node6</title>
<g id="a_Node000006"><a xlink:href="kohonen__som__topology_8cpp.html#a48efb079040c7aaa3a4917a0e486cba9" target="_top" xlink:title=" ">
<polygon fill="white" stroke="#666666" points="275.62,-228.46 188.38,-228.46 188.38,-209.21 275.62,-209.21 275.62,-228.46"/>
<text text-anchor="middle" x="232" y="-214.96" font-family="Helvetica,sans-Serif" font-size="10.00">test_2d_classes</text>
</a>
</g>
</g>
<!-- Node3&#45;&gt;Node6 -->
<g id="edge5_Node000003_Node000006" class="edge">
<title>Node3&#45;&gt;Node6</title>
<g id="a_edge5_Node000003_Node000006"><a xlink:title=" ">
<path fill="none" stroke="#63b8ff" d="M130.49,-150.19C136.82,-153.11 143.82,-156.75 149.75,-160.84 167.88,-173.31 167.87,-182.01 185.75,-194.84 189.93,-197.83 194.53,-200.7 199.14,-203.34"/>
<polygon fill="#63b8ff" stroke="#63b8ff" points="197.33,-206.34 207.79,-208.02 200.65,-200.18 197.33,-206.34"/>
</a>
</g>
</g>
<!-- Node6&#45;&gt;Node4 -->
<g id="edge6_Node000006_Node000004" class="edge">
<title>Node6&#45;&gt;Node4</title>
<g id="a_edge6_Node000006_Node000004"><a xlink:title=" ">
<path fill="none" stroke="#63b8ff" d="M257.68,-208.92C264.88,-205.23 272.37,-200.53 278.25,-194.84 304.39,-169.51 322.88,-130.73 332.46,-107.18"/>
<polygon fill="#63b8ff" stroke="#63b8ff" points="335.62,-108.68 335.99,-98.1 329.1,-106.14 335.62,-108.68"/>
</a>
</g>
</g>
<!-- Node7&#45;&gt;Node4 -->
<g id="edge8_Node000007_Node000004" class="edge">
<title>Node7&#45;&gt;Node4</title>
<g id="a_edge8_Node000007_Node000004"><a xlink:title=" ">
<path fill="none" stroke="#63b8ff" d="M126.14,-39.85C140.29,-30.26 163.35,-16.42 185.75,-10.84 225.64,-0.89 241.13,6.83 278.25,-10.84 302.39,-22.33 320.17,-48.38 330.3,-66.77"/>
<polygon fill="#63b8ff" stroke="#63b8ff" points="327.08,-68.17 334.79,-75.44 333.3,-64.95 327.08,-68.17"/>
</a>
</g>
</g>
<!-- Node7&#45;&gt;Node5 -->
<g id="edge9_Node000007_Node000005" class="edge">
<title>Node7&#45;&gt;Node5</title>
<g id="a_edge9_Node000007_Node000005"><a xlink:title=" ">
<path fill="none" stroke="#63b8ff" d="M122.62,-59.8C130.18,-67.2 140.68,-77.57 149.75,-86.84 166.02,-103.47 166.49,-111.79 185.75,-124.84 187.29,-125.88 188.9,-126.88 190.55,-127.83"/>
<polygon fill="#63b8ff" stroke="#63b8ff" points="188.52,-130.72 199.03,-132.09 191.67,-124.47 188.52,-130.72"/>
</a>
</g>
</g>
<!-- Node8 -->
<g id="Node000008" class="node">
<title>Node8</title>
<g id="a_Node000008"><a xlink:href="kohonen__som__topology_8cpp.html#a1302662a56ebf67a21249270b017297e" target="_top" xlink:title=" ">
<polygon fill="white" stroke="#666666" points="278.25,-39.46 185.75,-39.46 185.75,-20.21 278.25,-20.21 278.25,-39.46"/>
<text text-anchor="middle" x="232" y="-25.96" font-family="Helvetica,sans-Serif" font-size="10.00">test_3d_classes1</text>
</a>
</g>
</g>
<!-- Node7&#45;&gt;Node8 -->
<g id="edge10_Node000007_Node000008" class="edge">
<title>Node7&#45;&gt;Node8</title>
<g id="a_edge10_Node000007_Node000008"><a xlink:title=" ">
<path fill="none" stroke="#63b8ff" d="M130.65,-46.76C142.36,-44.78 158.27,-42.1 173.96,-39.45"/>
<polygon fill="#63b8ff" stroke="#63b8ff" points="174.51,-42.91 183.79,-37.8 173.35,-36.01 174.51,-42.91"/>
</a>
</g>
</g>
<!-- Node8&#45;&gt;Node4 -->
<g id="edge11_Node000008_Node000004" class="edge">
<title>Node8&#45;&gt;Node4</title>
<g id="a_edge11_Node000008_Node000004"><a xlink:title=" ">
<path fill="none" stroke="#63b8ff" d="M251.94,-39.87C260.05,-44.16 269.62,-49.24 278.25,-53.84 289.11,-59.62 301.04,-65.99 311.5,-71.58"/>
<polygon fill="#63b8ff" stroke="#63b8ff" points="309.56,-74.51 320.03,-76.14 312.86,-68.34 309.56,-74.51"/>
</a>
</g>
</g>
<!-- Node9&#45;&gt;Node4 -->
<g id="edge13_Node000009_Node000004" class="edge">
<title>Node9&#45;&gt;Node4</title>
<g id="a_edge13_Node000009_Node000004"><a xlink:title=" ">
<path fill="none" stroke="#63b8ff" d="M130.52,-99.77C145.22,-95.18 166.56,-89.28 185.75,-86.84 225.44,-81.78 271.34,-82.63 302.69,-84.21"/>
<polygon fill="#63b8ff" stroke="#63b8ff" points="302.25,-87.69 312.43,-84.75 302.65,-80.7 302.25,-87.69"/>
</a>
</g>
</g>
<!-- Node9&#45;&gt;Node5 -->
<g id="edge14_Node000009_Node000005" class="edge">
<title>Node9&#45;&gt;Node5</title>
<g id="a_edge14_Node000009_Node000005"><a xlink:title=" ">
<path fill="none" stroke="#63b8ff" d="M130.65,-111.54C145.82,-116.27 168.03,-123.2 187.69,-129.33"/>
<polygon fill="#63b8ff" stroke="#63b8ff" points="186.57,-132.64 197.15,-132.28 188.65,-125.96 186.57,-132.64"/>
</a>
</g>
</g>
<!-- Node10 -->
<g id="Node000010" class="node">
<title>Node10</title>
<g id="a_Node000010"><a xlink:href="kohonen__som__topology_8cpp.html#a4b7ab643f6a5002f991837de46f70653" target="_top" xlink:title=" ">
<polygon fill="white" stroke="#666666" points="278.25,-115.46 185.75,-115.46 185.75,-96.21 278.25,-96.21 278.25,-115.46"/>
<text text-anchor="middle" x="232" y="-101.96" font-family="Helvetica,sans-Serif" font-size="10.00">test_3d_classes2</text>
</a>
</g>
</g>
<!-- Node9&#45;&gt;Node10 -->
<g id="edge15_Node000009_Node000010" class="edge">
<title>Node9&#45;&gt;Node10</title>
<g id="a_edge15_Node000009_Node000010"><a xlink:title=" ">
<path fill="none" stroke="#63b8ff" d="M130.65,-105.84C142.36,-105.84 158.27,-105.84 173.96,-105.84"/>
<polygon fill="#63b8ff" stroke="#63b8ff" points="173.77,-109.34 183.77,-105.84 173.77,-102.34 173.77,-109.34"/>
</a>
</g>
</g>
<!-- Node10&#45;&gt;Node4 -->
<g id="edge16_Node000010_Node000004" class="edge">
<title>Node10&#45;&gt;Node4</title>
<g id="a_edge16_Node000010_Node000004"><a xlink:title=" ">
<path fill="none" stroke="#63b8ff" d="M278.69,-97.72C286.68,-96.3 294.92,-94.84 302.66,-93.47"/>
<polygon fill="#63b8ff" stroke="#63b8ff" points="303.2,-96.93 312.43,-91.73 301.97,-90.03 303.2,-96.93"/>
</a>
</g>
</g>
</g>
</svg>
</svg>

<style type='text/css'>
<![CDATA[
[data-mouse-over-selected='false'] { opacity: 0.7; }
[data-mouse-over-selected='true']  { opacity: 1.0; }
]]>
</style>
<script type="application/ecmascript"><![CDATA[
document.addEventListener('DOMContentLoaded', (event) => {
  highlightEdges();
  highlightAdjacentNodes();
});
]]></script>
</svg>
