<?xml version="1.0" encoding="UTF-8" standalone="no"?>
<!DOCTYPE svg PUBLIC "-//W3C//DTD SVG 1.1//EN"
 "http://www.w3.org/Graphics/SVG/1.1/DTD/svg11.dtd">
<!-- Generated by graphviz version 12.1.1 (20240910.0053)
 -->
<!-- Title: main Pages: 1 -->
<svg width="371pt" height="236pt"
 viewBox="0.00 0.00 370.50 235.85" xmlns="http://www.w3.org/2000/svg" xmlns:xlink="http://www.w3.org/1999/xlink">
<g id="graph0" class="graph" transform="scale(1 1) rotate(0) translate(4 231.85)">
<title>main</title>
<!-- Node1 -->
<g id="Node000001" class="node">
<title>Node1</title>
<g id="a_Node000001"><a xlink:title=" ">
<polygon fill="#999999" stroke="#666666" points="37,-132.85 0,-132.85 0,-113.6 37,-113.6 37,-132.85"/>
<text text-anchor="middle" x="18.5" y="-119.35" font-family="Helvetica,sans-Serif" font-size="10.00">main</text>
</a>
</g>
</g>
<!-- Node2 -->
<g id="Node000002" class="node">
<title>Node2</title>
<g id="a_Node000002"><a xlink:href="kohonen__som__trace_8cpp.html#a2256c10b16edba377b64a44b6c656908" target="_top" xlink:title=" ">
<polygon fill="white" stroke="#666666" points="149.75,-188.85 73,-188.85 73,-169.6 149.75,-169.6 149.75,-188.85"/>
<text text-anchor="middle" x="111.38" y="-175.35" font-family="Helvetica,sans-Serif" font-size="10.00">get_clock_diff</text>
</a>
</g>
</g>
<!-- Node1&#45;&gt;Node2 -->
<g id="edge1_Node000001_Node000002" class="edge">
<title>Node1&#45;&gt;Node2</title>
<g id="a_edge1_Node000001_Node000002"><a xlink:title=" ">
<path fill="none" stroke="#63b8ff" d="M32.28,-133.23C42.87,-141.29 58.48,-152.65 73,-161.22 74.62,-162.18 76.3,-163.13 78.01,-164.06"/>
<polygon fill="#63b8ff" stroke="#63b8ff" points="76.08,-167 86.57,-168.47 79.29,-160.78 76.08,-167"/>
</a>
</g>
</g>
<!-- Node3 -->
<g id="Node000003" class="node">
<title>Node3</title>
<g id="a_Node000003"><a xlink:href="kohonen__som__trace_8cpp.html#a1440a7779ac56f47a3f355ce4a8c7da0" target="_top" xlink:title=" ">
<polygon fill="white" stroke="#666666" points="130.25,-151.85 92.5,-151.85 92.5,-132.6 130.25,-132.6 130.25,-151.85"/>
<text text-anchor="middle" x="111.38" y="-138.35" font-family="Helvetica,sans-Serif" font-size="10.00">test1</text>
</a>
</g>
</g>
<!-- Node1&#45;&gt;Node3 -->
<g id="edge2_Node000001_Node000003" class="edge">
<title>Node1&#45;&gt;Node3</title>
<g id="a_edge2_Node000001_Node000003"><a xlink:title=" ">
<path fill="none" stroke="#63b8ff" d="M37.45,-126.98C49.94,-129.59 66.87,-133.13 81.27,-136.14"/>
<polygon fill="#63b8ff" stroke="#63b8ff" points="80.16,-139.48 90.67,-138.1 81.59,-132.63 80.16,-139.48"/>
</a>
</g>
</g>
<!-- Node7 -->
<g id="Node000007" class="node">
<title>Node7</title>
<g id="a_Node000007"><a xlink:href="kohonen__som__trace_8cpp.html#a0283886819c7c140a023582b7269e2d0" target="_top" xlink:title=" ">
<polygon fill="white" stroke="#666666" points="130.25,-58.85 92.5,-58.85 92.5,-39.6 130.25,-39.6 130.25,-58.85"/>
<text text-anchor="middle" x="111.38" y="-45.35" font-family="Helvetica,sans-Serif" font-size="10.00">test2</text>
</a>
</g>
</g>
<!-- Node1&#45;&gt;Node7 -->
<g id="edge7_Node000001_Node000007" class="edge">
<title>Node1&#45;&gt;Node7</title>
<g id="a_edge7_Node000001_Node000007"><a xlink:title=" ">
<path fill="none" stroke="#63b8ff" d="M31.76,-113.24C46.53,-101.22 71.58,-80.81 89.43,-66.27"/>
<polygon fill="#63b8ff" stroke="#63b8ff" points="91.31,-69.26 96.85,-60.24 86.89,-63.84 91.31,-69.26"/>
</a>
</g>
</g>
<!-- Node9 -->
<g id="Node000009" class="node">
<title>Node9</title>
<g id="a_Node000009"><a xlink:href="kohonen__som__trace_8cpp.html#a6d0455dd5c30adda100e95f0423c786e" target="_top" xlink:title=" ">
<polygon fill="white" stroke="#666666" points="130.25,-114.85 92.5,-114.85 92.5,-95.6 130.25,-95.6 130.25,-114.85"/>
<text text-anchor="middle" x="111.38" y="-101.35" font-family="Helvetica,sans-Serif" font-size="10.00">test3</text>
</a>
</g>
</g>
<!-- Node1&#45;&gt;Node9 -->
<g id="edge12_Node000001_Node000009" class="edge">
<title>Node1&#45;&gt;Node9</title>
<g id="a_edge12_Node000001_Node000009"><a xlink:title=" ">
<path fill="none" stroke="#63b8ff" d="M37.45,-119.67C49.94,-117.19 66.87,-113.84 81.27,-110.99"/>
<polygon fill="#63b8ff" stroke="#63b8ff" points="81.53,-114.5 90.66,-109.13 80.17,-107.64 81.53,-114.5"/>
</a>
</g>
</g>
<!-- Node4 -->
<g id="Node000004" class="node">
<title>Node4</title>
<g id="a_Node000004"><a xlink:href="group__machine__learning.html#gaf5ce14f026d6d231bef29161bac2b485" target="_top" xlink:title=" ">
<polygon fill="white" stroke="#666666" points="362.5,-95.85 309,-95.85 309,-76.6 362.5,-76.6 362.5,-95.85"/>
<text text-anchor="middle" x="335.75" y="-82.35" font-family="Helvetica,sans-Serif" font-size="10.00">_random</text>
</a>
</g>
</g>
<!-- Node3&#45;&gt;Node4 -->
<g id="edge3_Node000003_Node000004" class="edge">
<title>Node3&#45;&gt;Node4</title>
<g id="a_edge3_Node000003_Node000004"><a xlink:title=" ">
<path fill="none" stroke="#63b8ff" d="M130.74,-150.5C161.69,-163.17 225.51,-183.64 273,-161.22 296.87,-149.95 314.64,-124.43 324.84,-106.29"/>
<polygon fill="#63b8ff" stroke="#63b8ff" points="327.91,-107.96 329.49,-97.49 321.72,-104.69 327.91,-107.96"/>
</a>
</g>
</g>
<!-- Node5 -->
<g id="Node000005" class="node">
<title>Node5</title>
<g id="a_Node000005"><a xlink:href="group__machine__learning.html#gae0208548f8b393528e5db01717e88e67" target="_top" xlink:title=" ">
<polygon fill="white" stroke="#666666" points="267.75,-151.85 191,-151.85 191,-132.6 267.75,-132.6 267.75,-151.85"/>
<text text-anchor="middle" x="229.38" y="-138.35" font-family="Helvetica,sans-Serif" font-size="10.00">save_nd_data</text>
</a>
</g>
</g>
<!-- Node3&#45;&gt;Node5 -->
<g id="edge4_Node000003_Node000005" class="edge">
<title>Node3&#45;&gt;Node5</title>
<g id="a_edge4_Node000003_Node000005"><a xlink:title=" ">
<path fill="none" stroke="#63b8ff" d="M130.5,-142.22C143.67,-142.22 162.16,-142.22 179.53,-142.22"/>
<polygon fill="#63b8ff" stroke="#63b8ff" points="179.2,-145.72 189.2,-142.22 179.2,-138.72 179.2,-145.72"/>
</a>
</g>
</g>
<!-- Node6 -->
<g id="Node000006" class="node">
<title>Node6</title>
<g id="a_Node000006"><a xlink:href="kohonen__som__trace_8cpp.html#ae571600aa42a81bc14a4a602ea5ff00d" target="_top" xlink:title=" ">
<polygon fill="white" stroke="#666666" points="259.88,-227.85 198.88,-227.85 198.88,-208.6 259.88,-208.6 259.88,-227.85"/>
<text text-anchor="middle" x="229.38" y="-214.35" font-family="Helvetica,sans-Serif" font-size="10.00">test_circle</text>
</a>
</g>
</g>
<!-- Node3&#45;&gt;Node6 -->
<g id="edge5_Node000003_Node000006" class="edge">
<title>Node3&#45;&gt;Node6</title>
<g id="a_edge5_Node000003_Node000006"><a xlink:title=" ">
<path fill="none" stroke="#63b8ff" d="M130.49,-149.58C136.82,-152.5 143.82,-156.14 149.75,-160.22 167.88,-172.7 168.03,-181.17 185.75,-194.22 189.67,-197.11 193.98,-199.91 198.3,-202.52"/>
<polygon fill="#63b8ff" stroke="#63b8ff" points="196.5,-205.52 206.92,-207.44 199.97,-199.44 196.5,-205.52"/>
</a>
</g>
</g>
<!-- Node6&#45;&gt;Node4 -->
<g id="edge6_Node000006_Node000004" class="edge">
<title>Node6&#45;&gt;Node4</title>
<g id="a_edge6_Node000006_Node000004"><a xlink:title=" ">
<path fill="none" stroke="#63b8ff" d="M253.18,-208.31C260.09,-204.58 267.34,-199.85 273,-194.22 298.69,-168.7 317.22,-130.28 326.94,-106.81"/>
<polygon fill="#63b8ff" stroke="#63b8ff" points="330.11,-108.31 330.55,-97.73 323.61,-105.73 330.11,-108.31"/>
</a>
</g>
</g>
<!-- Node7&#45;&gt;Node4 -->
<g id="edge8_Node000007_Node000004" class="edge">
<title>Node7&#45;&gt;Node4</title>
<g id="a_edge8_Node000007_Node000004"><a xlink:title=" ">
<path fill="none" stroke="#63b8ff" d="M126.14,-39.24C140.29,-29.64 163.35,-15.8 185.75,-10.22 223.38,-0.84 237.99,6.44 273,-10.22 297.14,-21.71 314.92,-47.76 325.05,-66.15"/>
<polygon fill="#63b8ff" stroke="#63b8ff" points="321.83,-67.55 329.54,-74.82 328.05,-64.33 321.83,-67.55"/>
</a>
</g>
</g>
<!-- Node7&#45;&gt;Node5 -->
<g id="edge9_Node000007_Node000005" class="edge">
<title>Node7&#45;&gt;Node5</title>
<g id="a_edge9_Node000007_Node000005"><a xlink:title=" ">
<path fill="none" stroke="#63b8ff" d="M122.62,-59.19C130.18,-66.58 140.68,-76.95 149.75,-86.22 166.02,-102.85 166.63,-110.97 185.75,-124.22 187.11,-125.17 188.53,-126.07 189.99,-126.95"/>
<polygon fill="#63b8ff" stroke="#63b8ff" points="188.17,-129.94 198.65,-131.48 191.41,-123.74 188.17,-129.94"/>
</a>
</g>
</g>
<!-- Node8 -->
<g id="Node000008" class="node">
<title>Node8</title>
<g id="a_Node000008"><a xlink:href="kohonen__som__trace_8cpp.html#a53082f2e5bacec40266499da4547309a" target="_top" xlink:title=" ">
<polygon fill="white" stroke="#666666" points="271.88,-38.85 186.88,-38.85 186.88,-19.6 271.88,-19.6 271.88,-38.85"/>
<text text-anchor="middle" x="229.38" y="-25.35" font-family="Helvetica,sans-Serif" font-size="10.00">test_lamniscate</text>
</a>
</g>
</g>
<!-- Node7&#45;&gt;Node8 -->
<g id="edge10_Node000007_Node000008" class="edge">
<title>Node7&#45;&gt;Node8</title>
<g id="a_edge10_Node000007_Node000008"><a xlink:title=" ">
<path fill="none" stroke="#63b8ff" d="M130.5,-46.1C142.72,-43.99 159.51,-41.09 175.74,-38.3"/>
<polygon fill="#63b8ff" stroke="#63b8ff" points="176.07,-41.79 185.33,-36.64 174.88,-34.89 176.07,-41.79"/>
</a>
</g>
</g>
<!-- Node8&#45;&gt;Node4 -->
<g id="edge11_Node000008_Node000004" class="edge">
<title>Node8&#45;&gt;Node4</title>
<g id="a_edge11_Node000008_Node000004"><a xlink:title=" ">
<path fill="none" stroke="#63b8ff" d="M248.56,-39.15C264.55,-47.88 288.08,-60.74 306.52,-70.81"/>
<polygon fill="#63b8ff" stroke="#63b8ff" points="304.64,-73.77 315.1,-75.49 308,-67.63 304.64,-73.77"/>
</a>
</g>
</g>
<!-- Node9&#45;&gt;Node4 -->
<g id="edge13_Node000009_Node000004" class="edge">
<title>Node9&#45;&gt;Node4</title>
<g id="a_edge13_Node000009_Node000004"><a xlink:title=" ">
<path fill="none" stroke="#63b8ff" d="M130.52,-99.15C145.22,-94.57 166.56,-88.67 185.75,-86.22 223.47,-81.42 266.99,-82.13 297.22,-83.61"/>
<polygon fill="#63b8ff" stroke="#63b8ff" points="296.83,-87.09 307,-84.14 297.21,-80.1 296.83,-87.09"/>
</a>
</g>
</g>
<!-- Node9&#45;&gt;Node5 -->
<g id="edge14_Node000009_Node000005" class="edge">
<title>Node9&#45;&gt;Node5</title>
<g id="a_edge14_Node000009_Node000005"><a xlink:title=" ">
<path fill="none" stroke="#63b8ff" d="M130.5,-111C145.31,-115.73 166.84,-122.59 185.94,-128.69"/>
<polygon fill="#63b8ff" stroke="#63b8ff" points="184.8,-132 195.39,-131.7 186.93,-125.33 184.8,-132"/>
</a>
</g>
</g>
<!-- Node10 -->
<g id="Node000010" class="node">
<title>Node10</title>
<g id="a_Node000010"><a xlink:href="kohonen__som__trace_8cpp.html#a7154fe319e6033485a8a6cd6f0d8932d" target="_top" xlink:title=" ">
<polygon fill="white" stroke="#666666" points="273,-114.85 185.75,-114.85 185.75,-95.6 273,-95.6 273,-114.85"/>
<text text-anchor="middle" x="229.38" y="-101.35" font-family="Helvetica,sans-Serif" font-size="10.00">test_3d_classes</text>
</a>
</g>
</g>
<!-- Node9&#45;&gt;Node10 -->
<g id="edge15_Node000009_Node000010" class="edge">
<title>Node9&#45;&gt;Node10</title>
<g id="a_edge15_Node000009_Node000010"><a xlink:title=" ">
<path fill="none" stroke="#63b8ff" d="M130.5,-105.22C142.29,-105.22 158.35,-105.22 174.05,-105.22"/>
<polygon fill="#63b8ff" stroke="#63b8ff" points="173.83,-108.72 183.83,-105.22 173.83,-101.72 173.83,-108.72"/>
</a>
</g>
</g>
<!-- Node10&#45;&gt;Node4 -->
<g id="edge16_Node000010_Node000004" class="edge">
<title>Node10&#45;&gt;Node4</title>
<g id="a_edge16_Node000010_Node000004"><a xlink:title=" ">
<path fill="none" stroke="#63b8ff" d="M273.43,-97.38C281.34,-95.95 289.53,-94.45 297.26,-93.05"/>
<polygon fill="#63b8ff" stroke="#63b8ff" points="297.82,-96.5 307.04,-91.27 296.57,-89.61 297.82,-96.5"/>
</a>
</g>
</g>
</g>
</svg>
