<?xml version="1.0" encoding="UTF-8" standalone="no"?>
<!DOCTYPE svg PUBLIC "-//W3C//DTD SVG 1.1//EN"
 "http://www.w3.org/Graphics/SVG/1.1/DTD/svg11.dtd">
<!-- Generated by graphviz version 12.1.1 (20240910.0053)
 -->
<!-- Title: tests Pages: 1 -->
<svg width="181pt" height="45pt"
 viewBox="0.00 0.00 181.25 45.25" xmlns="http://www.w3.org/2000/svg" xmlns:xlink="http://www.w3.org/1999/xlink">
<g id="graph0" class="graph" transform="scale(1 1) rotate(0) translate(4 41.25)">
<title>tests</title>
<!-- Node1 -->
<g id="Node000001" class="node">
<title>Node1</title>
<g id="a_Node000001"><a xlink:title=" ">
<polygon fill="#999999" stroke="#666666" points="37.75,-19.25 0,-19.25 0,0 37.75,0 37.75,-19.25"/>
<text text-anchor="middle" x="18.88" y="-5.75" font-family="Helvetica,sans-Serif" font-size="10.00">tests</text>
</a>
</g>
</g>
<!-- Node2 -->
<g id="Node000002" class="node">
<title>Node2</title>
<g id="a_Node000002"><a xlink:href="least__common__multiple_8cpp.html#aa8d0e241db517813725e721a152e3a25" target="_top" xlink:title=" ">
<polygon fill="white" stroke="#666666" points="105.5,-19.25 73.75,-19.25 73.75,0 105.5,0 105.5,-19.25"/>
<text text-anchor="middle" x="89.62" y="-5.75" font-family="Helvetica,sans-Serif" font-size="10.00">lcm</text>
</a>
</g>
</g>
<!-- Node1&#45;&gt;Node2 -->
<g id="edge1_Node000001_Node000002" class="edge">
<title>Node1&#45;&gt;Node2</title>
<g id="a_edge1_Node000001_Node000002"><a xlink:title=" ">
<path fill="none" stroke="#63b8ff" d="M37.94,-9.62C45.42,-9.62 54.25,-9.62 62.42,-9.62"/>
<polygon fill="#63b8ff" stroke="#63b8ff" points="62.18,-13.13 72.18,-9.63 62.18,-6.13 62.18,-13.13"/>
</a>
</g>
</g>
<!-- Node3 -->
<g id="Node000003" class="node">
<title>Node3</title>
<g id="a_Node000003"><a xlink:href="least__common__multiple_8cpp.html#a8ba1fc66e4134ab25b2602b323150563" target="_top" xlink:title=" ">
<polygon fill="white" stroke="#666666" points="173.25,-19.25 141.5,-19.25 141.5,0 173.25,0 173.25,-19.25"/>
<text text-anchor="middle" x="157.38" y="-5.75" font-family="Helvetica,sans-Serif" font-size="10.00">gcd</text>
</a>
</g>
</g>
<!-- Node2&#45;&gt;Node3 -->
<g id="edge2_Node000002_Node000003" class="edge">
<title>Node2&#45;&gt;Node3</title>
<g id="a_edge2_Node000002_Node000003"><a xlink:title=" ">
<path fill="none" stroke="#63b8ff" d="M105.87,-9.62C113.01,-9.62 121.72,-9.62 129.89,-9.62"/>
<polygon fill="#63b8ff" stroke="#63b8ff" points="129.69,-13.13 139.69,-9.63 129.69,-6.13 129.69,-13.13"/>
</a>
</g>
</g>
<!-- Node3&#45;&gt;Node3 -->
<g id="edge3_Node000003_Node000003" class="edge">
<title>Node3&#45;&gt;Node3</title>
<g id="a_edge3_Node000003_Node000003"><a xlink:title=" ">
<path fill="none" stroke="#63b8ff" d="M146.77,-19.54C141.93,-28.15 145.47,-37.25 157.38,-37.25 163.89,-37.25 167.9,-34.53 169.4,-30.65"/>
<polygon fill="#63b8ff" stroke="#63b8ff" points="172.91,-30.52 168.17,-21.04 165.97,-31.4 172.91,-30.52"/>
</a>
</g>
</g>
</g>
</svg>
