<?xml version="1.0" encoding="UTF-8" standalone="no"?>
<!DOCTYPE svg PUBLIC "-//W3C//DTD SVG 1.1//EN"
 "http://www.w3.org/Graphics/SVG/1.1/DTD/svg11.dtd">
<!-- Generated by graphviz version 12.1.1 (20240910.0053)
 -->
<!-- Title: main Pages: 1 -->
<!--zoomable 237 -->

<svg id="main" version="1.1" xmlns="http://www.w3.org/2000/svg" xmlns:xlink="http://www.w3.org/1999/xlink" xml:space="preserve" onload="init(evt)">

<style type="text/css"><![CDATA[
.node, .edge {opacity: 0.7;}
.node.selected, .edge.selected {opacity: 1;}
.edge:hover path { stroke: red; }
.edge:hover polygon { stroke: red; fill: red; }
]]></style>

<defs>
  <circle id="rim" cx="0" cy="0" r="7"/>
  <circle id="rim2" cx="0" cy="0" r="3.5"/>
  <g id="zoomPlus">
    <use xlink:href="#rim" fill="#404040"><set attributeName="fill" to="#808080" begin="zoomplus.mouseover" end="zoomplus.mouseout"/></use>
    <path d="M-4,0h8M0,-4v8" fill="none" stroke="white" stroke-width="1.5" pointer-events="none"/>
  </g>
  <g id="zoomMin">
    <use xlink:href="#rim" fill="#404040"><set attributeName="fill" to="#808080" begin="zoomminus.mouseover" end="zoomminus.mouseout"/></use>
    <path d="M-4,0h8" fill="none" stroke="white" stroke-width="1.5" pointer-events="none"/>
  </g>
  <g id="arrowUp" transform="translate(30 24)">
    <use xlink:href="#rim"/>
    <path pointer-events="none" fill="none" stroke="white" stroke-width="1.5" d="M0,-3.0v7 M-2.5,-0.5L0,-3.0L2.5,-0.5"/>
  </g>
  <g id="arrowRight" transform="rotate(90) translate(36 -43)">
    <use xlink:href="#rim"/>
    <path pointer-events="none" fill="none" stroke="white" stroke-width="1.5" d="M0,-3.0v7 M-2.5,-0.5L0,-3.0L2.5,-0.5"/>
  </g>
  <g id="arrowDown" transform="rotate(180) translate(-30 -48)">
    <use xlink:href="#rim"/>
    <path pointer-events="none" fill="none" stroke="white" stroke-width="1.5" d="M0,-3.0v7 M-2.5,-0.5L0,-3.0L2.5,-0.5"/>
  </g>
  <g id="arrowLeft" transform="rotate(270) translate(-36 17)">
    <use xlink:href="#rim"/>
    <path pointer-events="none" fill="none" stroke="white" stroke-width="1.5" d="M0,-3.0v7 M-2.5,-0.5L0,-3.0L2.5,-0.5"/>
  </g>
  <g id="resetDef">
    <use xlink:href="#rim2" fill="#404040"><set attributeName="fill" to="#808080" begin="reset.mouseover" end="reset.mouseout"/></use>
  </g>
</defs>
<script type="application/ecmascript">
var viewWidth = 691;
var viewHeight = 237;
var sectionId = 'dynsection-1';
</script>
<script type="application/ecmascript" xlink:href="svg.min.js"/>
<svg id="graph" class="graph">
<g id="viewport">
<title>main</title>
<!-- Node1 -->
<g id="Node000001" class="node">
<title>Node1</title>
<g id="a_Node000001"><a xlink:title=" ">
<polygon fill="#999999" stroke="#666666" points="37,-126.52 0,-126.52 0,-107.27 37,-107.27 37,-126.52"/>
<text text-anchor="middle" x="18.5" y="-113.02" font-family="Helvetica,sans-Serif" font-size="10.00">main</text>
</a>
</g>
</g>
<!-- Node2 -->
<g id="Node000002" class="node">
<title>Node2</title>
<g id="a_Node000002"><a xlink:href="namespacelinear__probing.html#a16680b8a37d442c2f208faa286e33908" target="_top" xlink:title=" ">
<polygon fill="white" stroke="#666666" points="196.62,-88.52 82.38,-88.52 82.38,-69.27 196.62,-69.27 196.62,-88.52"/>
<text text-anchor="middle" x="139.5" y="-75.02" font-family="Helvetica,sans-Serif" font-size="10.00">linear_probing::addInfo</text>
</a>
</g>
</g>
<!-- Node1&#45;&gt;Node2 -->
<g id="edge1_Node000001_Node000002" class="edge">
<title>Node1&#45;&gt;Node2</title>
<g id="a_edge1_Node000001_Node000002"><a xlink:title=" ">
<path fill="none" stroke="#63b8ff" d="M37.32,-111.21C52.85,-106.25 76.01,-98.85 96.25,-92.39"/>
<polygon fill="#63b8ff" stroke="#63b8ff" points="97.23,-95.75 105.69,-89.38 95.1,-89.08 97.23,-95.75"/>
</a>
</g>
</g>
<!-- Node4 -->
<g id="Node000004" class="node">
<title>Node4</title>
<g id="a_Node000004"><a xlink:href="namespacelinear__probing.html#a6322209aaa91b7bbf16f96e1cc52b746" target="_top" xlink:title=" ">
<polygon fill="white" stroke="#666666" points="523,-202.52 392.25,-202.52 392.25,-183.27 523,-183.27 523,-202.52"/>
<text text-anchor="middle" x="457.62" y="-189.02" font-family="Helvetica,sans-Serif" font-size="10.00">linear_probing::linearProbe</text>
</a>
</g>
</g>
<!-- Node1&#45;&gt;Node4 -->
<g id="edge13_Node000001_Node000004" class="edge">
<title>Node1&#45;&gt;Node4</title>
<g id="a_edge13_Node000001_Node000004"><a xlink:title=" ">
<path fill="none" stroke="#63b8ff" d="M25.83,-126.65C34.75,-139.55 52.26,-162.05 73,-173.9 139.84,-212.09 165.48,-203.4 242,-211.9 292.47,-217.5 305.69,-216.64 356.25,-211.9 371.17,-210.5 387.17,-207.96 401.91,-205.17"/>
<polygon fill="#63b8ff" stroke="#63b8ff" points="402.28,-208.67 411.42,-203.31 400.93,-201.8 402.28,-208.67"/>
</a>
</g>
</g>
<!-- Node5 -->
<g id="Node000005" class="node">
<title>Node5</title>
<g id="a_Node000005"><a xlink:href="namespacelinear__probing.html#a4bde7a47f98dd1ad24c84038e2608527" target="_top" xlink:title="Hash a key. Uses the STL library&#39;s std::hash() function.">
<polygon fill="white" stroke="#666666" points="680.75,-108.52 561.25,-108.52 561.25,-89.27 680.75,-89.27 680.75,-108.52"/>
<text text-anchor="middle" x="621" y="-95.02" font-family="Helvetica,sans-Serif" font-size="10.00">linear_probing::hashFxn</text>
</a>
</g>
</g>
<!-- Node1&#45;&gt;Node5 -->
<g id="edge12_Node000001_Node000005" class="edge">
<title>Node1&#45;&gt;Node5</title>
<g id="a_edge12_Node000001_Node000005"><a xlink:title=" ">
<path fill="none" stroke="#63b8ff" d="M25.31,-107.17C33.88,-93.86 51.25,-70.4 73,-59.9 253.22,27.12 329.49,7.14 523,-43.9 551.08,-51.31 579.57,-68.92 598.34,-82.24"/>
<polygon fill="#63b8ff" stroke="#63b8ff" points="596.1,-84.94 606.23,-88.02 600.23,-79.29 596.1,-84.94"/>
</a>
</g>
</g>
<!-- Node9 -->
<g id="Node000009" class="node">
<title>Node9</title>
<g id="a_Node000009"><a xlink:href="namespacelinear__probing.html#ad87b71d810901fab69c4ad9d4d0fa635" target="_top" xlink:title=" ">
<polygon fill="white" stroke="#666666" points="355.5,-126.52 242.75,-126.52 242.75,-107.27 355.5,-107.27 355.5,-126.52"/>
<text text-anchor="middle" x="299.12" y="-113.02" font-family="Helvetica,sans-Serif" font-size="10.00">linear_probing::display</text>
</a>
</g>
</g>
<!-- Node1&#45;&gt;Node9 -->
<g id="edge11_Node000001_Node000009" class="edge">
<title>Node1&#45;&gt;Node9</title>
<g id="a_edge11_Node000001_Node000009"><a xlink:title=" ">
<path fill="none" stroke="#63b8ff" d="M37.35,-116.9C75.65,-116.9 167.38,-116.9 231.14,-116.9"/>
<polygon fill="#63b8ff" stroke="#63b8ff" points="230.8,-120.4 240.8,-116.9 230.8,-113.4 230.8,-120.4"/>
</a>
</g>
</g>
<!-- Node10 -->
<g id="Node000010" class="node">
<title>Node10</title>
<g id="a_Node000010"><a xlink:href="namespacelinear__probing.html#a75854f5aa216e61219154c62167ce8f0" target="_top" xlink:title=" ">
<polygon fill="white" stroke="#666666" points="206,-164.52 73,-164.52 73,-145.27 206,-145.27 206,-164.52"/>
<text text-anchor="middle" x="139.5" y="-151.02" font-family="Helvetica,sans-Serif" font-size="10.00">linear_probing::removalInfo</text>
</a>
</g>
</g>
<!-- Node1&#45;&gt;Node10 -->
<g id="edge14_Node000001_Node000010" class="edge">
<title>Node1&#45;&gt;Node10</title>
<g id="a_edge14_Node000001_Node000010"><a xlink:title=" ">
<path fill="none" stroke="#63b8ff" d="M37.32,-122.59C52.85,-127.55 76.01,-134.94 96.25,-141.41"/>
<polygon fill="#63b8ff" stroke="#63b8ff" points="95.1,-144.71 105.69,-144.42 97.23,-138.04 95.1,-144.71"/>
</a>
</g>
</g>
<!-- Node3 -->
<g id="Node000003" class="node">
<title>Node3</title>
<g id="a_Node000003"><a xlink:href="namespacelinear__probing.html#a16d34fd3511626a83ab00665d7bc34d1" target="_top" xlink:title=" ">
<polygon fill="white" stroke="#666666" points="348,-89.52 250.25,-89.52 250.25,-70.27 348,-70.27 348,-89.52"/>
<text text-anchor="middle" x="299.12" y="-76.02" font-family="Helvetica,sans-Serif" font-size="10.00">linear_probing::add</text>
</a>
</g>
</g>
<!-- Node2&#45;&gt;Node3 -->
<g id="edge2_Node000002_Node000003" class="edge">
<title>Node2&#45;&gt;Node3</title>
<g id="a_edge2_Node000002_Node000003"><a xlink:title=" ">
<path fill="none" stroke="#63b8ff" d="M196.96,-79.26C210.49,-79.34 224.97,-79.43 238.63,-79.52"/>
<polygon fill="#63b8ff" stroke="#63b8ff" points="238.34,-83.02 248.36,-79.58 238.38,-76.02 238.34,-83.02"/>
</a>
</g>
</g>
<!-- Node2&#45;&gt;Node5 -->
<g id="edge10_Node000002_Node000005" class="edge">
<title>Node2&#45;&gt;Node5</title>
<g id="a_edge10_Node000002_Node000005"><a xlink:title=" ">
<path fill="none" stroke="#63b8ff" d="M187.52,-68.79C204.59,-65.59 224.08,-62.48 242,-60.9 366.41,-49.95 400.28,-37.72 523,-60.9 546.47,-65.33 571.55,-75.31 590.32,-83.92"/>
<polygon fill="#63b8ff" stroke="#63b8ff" points="588.68,-87.02 599.22,-88.14 591.68,-80.69 588.68,-87.02"/>
</a>
</g>
</g>
<!-- Node2&#45;&gt;Node9 -->
<g id="edge9_Node000002_Node000009" class="edge">
<title>Node2&#45;&gt;Node9</title>
<g id="a_edge9_Node000002_Node000009"><a xlink:title=" ">
<path fill="none" stroke="#63b8ff" d="M182.33,-88.98C201.64,-93.64 224.79,-99.22 245.3,-104.16"/>
<polygon fill="#63b8ff" stroke="#63b8ff" points="244.36,-107.54 254.91,-106.48 246,-100.73 244.36,-107.54"/>
</a>
</g>
</g>
<!-- Node3&#45;&gt;Node4 -->
<g id="edge3_Node000003_Node000004" class="edge">
<title>Node3&#45;&gt;Node4</title>
<g id="a_edge3_Node000003_Node000004"><a xlink:title=" ">
<path fill="none" stroke="#63b8ff" d="M339.45,-90.01C345.27,-92.21 351.05,-94.83 356.25,-97.9 390.99,-118.45 423.42,-153.02 441.57,-174.3"/>
<polygon fill="#63b8ff" stroke="#63b8ff" points="438.8,-176.45 447.9,-181.89 444.18,-171.97 438.8,-176.45"/>
</a>
</g>
</g>
<!-- Node8 -->
<g id="Node000008" class="node">
<title>Node8</title>
<g id="a_Node000008"><a xlink:href="namespacelinear__probing.html#a6a082dc1426a79f866cee6b370df37b0" target="_top" xlink:title=" ">
<polygon fill="white" stroke="#666666" points="513.25,-89.52 402,-89.52 402,-70.27 513.25,-70.27 513.25,-89.52"/>
<text text-anchor="middle" x="457.62" y="-76.02" font-family="Helvetica,sans-Serif" font-size="10.00">linear_probing::rehash</text>
</a>
</g>
</g>
<!-- Node3&#45;&gt;Node8 -->
<g id="edge7_Node000003_Node000008" class="edge">
<title>Node3&#45;&gt;Node8</title>
<g id="a_edge7_Node000003_Node000008"><a xlink:title=" ">
<path fill="none" stroke="#63b8ff" d="M348.36,-73.61C361.68,-73.18 376.37,-73.05 390.52,-73.22"/>
<polygon fill="#63b8ff" stroke="#63b8ff" points="390.14,-76.72 400.2,-73.4 390.27,-69.72 390.14,-76.72"/>
</a>
</g>
</g>
<!-- Node4&#45;&gt;Node5 -->
<g id="edge4_Node000004_Node000005" class="edge">
<title>Node4&#45;&gt;Node5</title>
<g id="a_edge4_Node000004_Node000005"><a xlink:title=" ">
<path fill="none" stroke="#63b8ff" d="M490.8,-182.82C501.32,-179.02 512.9,-174.3 523,-168.9 551.23,-153.81 580.63,-131.51 599.56,-116.16"/>
<polygon fill="#63b8ff" stroke="#63b8ff" points="601.78,-118.86 607.27,-109.8 597.33,-113.46 601.78,-118.86"/>
</a>
</g>
</g>
<!-- Node6 -->
<g id="Node000006" class="node">
<title>Node6</title>
<g id="a_Node000006"><a xlink:href="namespacelinear__probing.html#a75d779938df7ebc68581d922b60a2541" target="_top" xlink:title=" ">
<polygon fill="white" stroke="#666666" points="683,-180.52 559,-180.52 559,-161.27 683,-161.27 683,-180.52"/>
<text text-anchor="middle" x="621" y="-167.02" font-family="Helvetica,sans-Serif" font-size="10.00">linear_probing::putProber</text>
</a>
</g>
</g>
<!-- Node4&#45;&gt;Node6 -->
<g id="edge5_Node000004_Node000006" class="edge">
<title>Node4&#45;&gt;Node6</title>
<g id="a_edge5_Node000004_Node000006"><a xlink:title=" ">
<path fill="none" stroke="#63b8ff" d="M523.33,-184.08C531.26,-183 539.4,-181.89 547.43,-180.79"/>
<polygon fill="#63b8ff" stroke="#63b8ff" points="547.75,-184.28 557.18,-179.46 546.8,-177.35 547.75,-184.28"/>
</a>
</g>
</g>
<!-- Node7 -->
<g id="Node000007" class="node">
<title>Node7</title>
<g id="a_Node000007"><a xlink:href="namespacelinear__probing.html#a942fc8407b8001890ea26830cdcd9d77" target="_top" xlink:title=" ">
<polygon fill="white" stroke="#666666" points="683,-229.15 559,-229.15 559,-198.65 683,-198.65 683,-229.15"/>
<text text-anchor="start" x="567" y="-215.65" font-family="Helvetica,sans-Serif" font-size="10.00">linear_probing::searching</text>
<text text-anchor="middle" x="621" y="-204.4" font-family="Helvetica,sans-Serif" font-size="10.00">Prober</text>
</a>
</g>
</g>
<!-- Node4&#45;&gt;Node7 -->
<g id="edge6_Node000004_Node000007" class="edge">
<title>Node4&#45;&gt;Node7</title>
<g id="a_edge6_Node000004_Node000007"><a xlink:title=" ">
<path fill="none" stroke="#63b8ff" d="M523.33,-201.32C531.26,-202.35 539.4,-203.41 547.43,-204.46"/>
<polygon fill="#63b8ff" stroke="#63b8ff" points="546.81,-207.9 557.18,-205.72 547.72,-200.96 546.81,-207.9"/>
</a>
</g>
</g>
<!-- Node8&#45;&gt;Node3 -->
<g id="edge8_Node000008_Node000003" class="edge">
<title>Node8&#45;&gt;Node3</title>
<g id="a_edge8_Node000008_Node000003"><a xlink:title=" ">
<path fill="none" stroke="#63b8ff" d="M401.71,-86.37C388.13,-86.7 373.51,-86.74 359.71,-86.48"/>
<polygon fill="#63b8ff" stroke="#63b8ff" points="359.96,-82.98 349.87,-86.23 359.78,-89.98 359.96,-82.98"/>
</a>
</g>
</g>
<!-- Node10&#45;&gt;Node5 -->
<g id="edge16_Node000010_Node000005" class="edge">
<title>Node10&#45;&gt;Node5</title>
<g id="a_edge16_Node000010_Node000005"><a xlink:title=" ">
<path fill="none" stroke="#63b8ff" d="M206.21,-150C249,-146.59 306,-141.63 356.25,-135.9 421.95,-128.4 496.55,-117.74 549.61,-109.78"/>
<polygon fill="#63b8ff" stroke="#63b8ff" points="550.06,-113.25 559.43,-108.3 549.02,-106.33 550.06,-113.25"/>
</a>
</g>
</g>
<!-- Node10&#45;&gt;Node9 -->
<g id="edge15_Node000010_Node000009" class="edge">
<title>Node10&#45;&gt;Node9</title>
<g id="a_edge15_Node000010_Node000009"><a xlink:title=" ">
<path fill="none" stroke="#63b8ff" d="M182.33,-144.82C201.64,-140.16 224.79,-134.58 245.3,-129.63"/>
<polygon fill="#63b8ff" stroke="#63b8ff" points="246,-133.06 254.91,-127.32 244.36,-126.26 246,-133.06"/>
</a>
</g>
</g>
<!-- Node11 -->
<g id="Node000011" class="node">
<title>Node11</title>
<g id="a_Node000011"><a xlink:href="namespacelinear__probing.html#abcf8d033f8115f39f3c93cfb6cee0b28" target="_top" xlink:title=" ">
<polygon fill="white" stroke="#666666" points="356.25,-202.52 242,-202.52 242,-183.27 356.25,-183.27 356.25,-202.52"/>
<text text-anchor="middle" x="299.12" y="-189.02" font-family="Helvetica,sans-Serif" font-size="10.00">linear_probing::remove</text>
</a>
</g>
</g>
<!-- Node10&#45;&gt;Node11 -->
<g id="edge17_Node000010_Node000011" class="edge">
<title>Node10&#45;&gt;Node11</title>
<g id="a_edge17_Node000010_Node000011"><a xlink:title=" ">
<path fill="none" stroke="#63b8ff" d="M182.33,-164.98C201.64,-169.64 224.79,-175.22 245.3,-180.16"/>
<polygon fill="#63b8ff" stroke="#63b8ff" points="244.36,-183.54 254.91,-182.48 246,-176.73 244.36,-183.54"/>
</a>
</g>
</g>
<!-- Node11&#45;&gt;Node4 -->
<g id="edge18_Node000011_Node000004" class="edge">
<title>Node11&#45;&gt;Node4</title>
<g id="a_edge18_Node000011_Node000004"><a xlink:title=" ">
<path fill="none" stroke="#63b8ff" d="M356.63,-192.9C364.42,-192.9 372.53,-192.9 380.61,-192.9"/>
<polygon fill="#63b8ff" stroke="#63b8ff" points="380.45,-196.4 390.45,-192.9 380.45,-189.4 380.45,-196.4"/>
</a>
</g>
</g>
</g>
</svg>

<g id="navigator" transform="translate(0 0)" fill="#404254">
  <rect fill="#f2f5e9" fill-opacity="0.5" stroke="#606060" stroke-width=".5" x="0" y="0" width="60" height="60"/>
  <use id="zoomplus" xlink:href="#zoomPlus" x="17" y="9" onmousedown="handleZoom(evt,'in')"/>
  <use id="zoomminus" xlink:href="#zoomMin" x="42" y="9" onmousedown="handleZoom(evt,'out')"/>
  <use id="reset" xlink:href="#resetDef" x="30" y="36" onmousedown="handleReset()"/>
   <use id="arrowup" xlink:href="#arrowUp" x="0" y="0" onmousedown="handlePan(0,-1)"/>
  <use id="arrowright" xlink:href="#arrowRight" x="0" y="0" onmousedown="handlePan(1,0)"/>
  <use id="arrowdown" xlink:href="#arrowDown" x="0" y="0" onmousedown="handlePan(0,1)"/>
  <use id="arrowleft" xlink:href="#arrowLeft" x="0" y="0" onmousedown="handlePan(-1,0)"/>
</g>
<svg viewBox="0 0 15 15" width="100%" height="30px" preserveAspectRatio="xMaxYMin meet">
 <g id="arrow_out" transform="scale(0.3 0.3)">
  <a xlink:href="linear__probing__hash__table_8cpp_ae66f6b31b5ad750f1fe042a706a4e3d4_cgraph_org.svg" target="_base">
   <rect id="button" ry="5" rx="5" y="6" x="6" height="38" width="38"
        fill="#f2f5e9" fill-opacity="0.5" stroke="#606060" stroke-width="1.0"/>
   <path id="arrow"
     d="M 11.500037,31.436501 C 11.940474,20.09759 22.043105,11.32322 32.158766,21.979434 L 37.068811,17.246167 C 37.068811,17.246167 37.088388,32 37.088388,32 L 22.160133,31.978069 C 22.160133,31.978069 26.997745,27.140456 26.997745,27.140456 C 18.528582,18.264221 13.291696,25.230495 11.500037,31.436501 z"
     style="fill:#404040;"/>
  </a>
 </g>
</svg>

<style type='text/css'>
<![CDATA[
[data-mouse-over-selected='false'] { opacity: 0.7; }
[data-mouse-over-selected='true']  { opacity: 1.0; }
]]>
</style>
<script type="application/ecmascript"><![CDATA[
document.addEventListener('DOMContentLoaded', (event) => {
  highlightEdges();
  highlightAdjacentNodes();
});
]]></script>
</svg>
