<?xml version="1.0" encoding="UTF-8" standalone="no"?>
<!DOCTYPE svg PUBLIC "-//W3C//DTD SVG 1.1//EN"
 "http://www.w3.org/Graphics/SVG/1.1/DTD/svg11.dtd">
<!-- Generated by graphviz version 12.1.1 (20240910.0053)
 -->
<!-- Title: main Pages: 1 -->
<svg width="210pt" height="186pt"
 viewBox="0.00 0.00 209.50 185.50" xmlns="http://www.w3.org/2000/svg" xmlns:xlink="http://www.w3.org/1999/xlink">
<g id="graph0" class="graph" transform="scale(1 1) rotate(0) translate(4 181.5)">
<title>main</title>
<!-- Node1 -->
<g id="Node000001" class="node">
<title>Node1</title>
<g id="a_Node000001"><a xlink:title="Main function.">
<polygon fill="#999999" stroke="#666666" points="37,-97.88 0,-97.88 0,-78.62 37,-78.62 37,-97.88"/>
<text text-anchor="middle" x="18.5" y="-84.38" font-family="Helvetica,sans-Serif" font-size="10.00">main</text>
</a>
</g>
</g>
<!-- Node2 -->
<g id="Node000002" class="node">
<title>Node2</title>
<g id="a_Node000002"><a xlink:href="classothers_1_1lru__cache_1_1_l_r_u_cache.html#aad506b1c1a3cd5b93cc7e497626bfb53" target="_top" xlink:title="A function to display the current cache.">
<polygon fill="white" stroke="#666666" points="188,-177.5 86.5,-177.5 86.5,-147 188,-147 188,-177.5"/>
<text text-anchor="start" x="94.5" y="-164" font-family="Helvetica,sans-Serif" font-size="10.00">others::lru_cache::</text>
<text text-anchor="middle" x="137.25" y="-152.75" font-family="Helvetica,sans-Serif" font-size="10.00">LRUCache::display</text>
</a>
</g>
</g>
<!-- Node1&#45;&gt;Node2 -->
<g id="edge1_Node000001_Node000002" class="edge">
<title>Node1&#45;&gt;Node2</title>
<g id="a_edge1_Node000001_Node000002"><a xlink:title=" ">
<path fill="none" stroke="#63b8ff" d="M28.12,-98.05C38.04,-108.85 55.27,-126.16 73,-137.25 75.41,-138.76 77.92,-140.2 80.5,-141.58"/>
<polygon fill="#63b8ff" stroke="#63b8ff" points="78.81,-144.65 89.33,-145.92 81.9,-138.37 78.81,-144.65"/>
</a>
</g>
</g>
<!-- Node3 -->
<g id="Node000003" class="node">
<title>Node3</title>
<g id="a_Node000003"><a xlink:href="classothers_1_1lru__cache_1_1_l_r_u_cache.html#aa24a141455b9fbcbec22392c28d04933" target="_top" xlink:title="A function to get page hits.">
<polygon fill="white" stroke="#666666" points="188.38,-128.5 86.12,-128.5 86.12,-98 188.38,-98 188.38,-128.5"/>
<text text-anchor="start" x="94.12" y="-115" font-family="Helvetica,sans-Serif" font-size="10.00">others::lru_cache::</text>
<text text-anchor="middle" x="137.25" y="-103.75" font-family="Helvetica,sans-Serif" font-size="10.00">LRUCache::getHits</text>
</a>
</g>
</g>
<!-- Node1&#45;&gt;Node3 -->
<g id="edge2_Node000001_Node000003" class="edge">
<title>Node1&#45;&gt;Node3</title>
<g id="a_edge2_Node000001_Node000003"><a xlink:title=" ">
<path fill="none" stroke="#63b8ff" d="M37.49,-92.1C47.68,-94.28 61.1,-97.16 74.75,-100.08"/>
<polygon fill="#63b8ff" stroke="#63b8ff" points="73.69,-103.43 84.21,-102.11 75.16,-96.59 73.69,-103.43"/>
</a>
</g>
</g>
<!-- Node4 -->
<g id="Node000004" class="node">
<title>Node4</title>
<g id="a_Node000004"><a xlink:href="classothers_1_1lru__cache_1_1_l_r_u_cache.html#a78be932dac71c90f485a67d4fda877e2" target="_top" xlink:title="A function to get page fault.">
<polygon fill="white" stroke="#666666" points="201.5,-79.5 73,-79.5 73,-49 201.5,-49 201.5,-79.5"/>
<text text-anchor="start" x="81" y="-66" font-family="Helvetica,sans-Serif" font-size="10.00">others::lru_cache::</text>
<text text-anchor="middle" x="137.25" y="-54.75" font-family="Helvetica,sans-Serif" font-size="10.00">LRUCache::getPageFault</text>
</a>
</g>
</g>
<!-- Node1&#45;&gt;Node4 -->
<g id="edge3_Node000001_Node000004" class="edge">
<title>Node1&#45;&gt;Node4</title>
<g id="a_edge3_Node000001_Node000004"><a xlink:title=" ">
<path fill="none" stroke="#63b8ff" d="M37.49,-84.55C44.35,-83.14 52.68,-81.43 61.56,-79.6"/>
<polygon fill="#63b8ff" stroke="#63b8ff" points="62.02,-83.08 71.11,-77.64 60.61,-76.23 62.02,-83.08"/>
</a>
</g>
</g>
<!-- Node5 -->
<g id="Node000005" class="node">
<title>Node5</title>
<g id="a_Node000005"><a xlink:href="classothers_1_1lru__cache_1_1_l_r_u_cache.html#a7dbf04bf7e1472c48639694f0b110602" target="_top" xlink:title="Refer to a page, or request a page from memory.">
<polygon fill="white" stroke="#666666" points="185.75,-30.5 88.75,-30.5 88.75,0 185.75,0 185.75,-30.5"/>
<text text-anchor="start" x="96.75" y="-17" font-family="Helvetica,sans-Serif" font-size="10.00">others::lru_cache::</text>
<text text-anchor="middle" x="137.25" y="-5.75" font-family="Helvetica,sans-Serif" font-size="10.00">LRUCache::refer</text>
</a>
</g>
</g>
<!-- Node1&#45;&gt;Node5 -->
<g id="edge4_Node000001_Node000005" class="edge">
<title>Node1&#45;&gt;Node5</title>
<g id="a_edge4_Node000001_Node000005"><a xlink:title=" ">
<path fill="none" stroke="#63b8ff" d="M28.52,-78.28C38.53,-67.69 55.59,-51.01 73,-40.25 75.42,-38.76 77.94,-37.32 80.52,-35.95"/>
<polygon fill="#63b8ff" stroke="#63b8ff" points="81.91,-39.17 89.36,-31.63 78.84,-32.88 81.91,-39.17"/>
</a>
</g>
</g>
</g>
</svg>
