<?xml version="1.0" encoding="UTF-8" standalone="no"?>
<!DOCTYPE svg PUBLIC "-//W3C//DTD SVG 1.1//EN"
 "http://www.w3.org/Graphics/SVG/1.1/DTD/svg11.dtd">
<!-- Generated by graphviz version 12.1.1 (20240910.0053)
 -->
<!-- Title: hashing::md5::hash Pages: 1 -->
<svg width="617pt" height="155pt"
 viewBox="0.00 0.00 617.25 155.25" xmlns="http://www.w3.org/2000/svg" xmlns:xlink="http://www.w3.org/1999/xlink">
<g id="graph0" class="graph" transform="scale(1 1) rotate(0) translate(4 151.25)">
<title>hashing::md5::hash</title>
<!-- Node1 -->
<g id="Node000001" class="node">
<title>Node1</title>
<g id="a_Node000001"><a xlink:title="Converts the string to bytestring and calls the main algorithm.">
<polygon fill="#999999" stroke="#666666" points="101.5,-74.25 0,-74.25 0,-55 101.5,-55 101.5,-74.25"/>
<text text-anchor="middle" x="50.75" y="-60.75" font-family="Helvetica,sans-Serif" font-size="10.00">hashing::md5::hash</text>
</a>
</g>
</g>
<!-- Node1&#45;&gt;Node1 -->
<g id="edge1_Node000001_Node000001" class="edge">
<title>Node1&#45;&gt;Node1</title>
<g id="a_edge1_Node000001_Node000001"><a xlink:title=" ">
<path fill="none" stroke="#63b8ff" d="M27.99,-74.54C17.61,-83.15 25.2,-92.25 50.75,-92.25 65.12,-92.25 73.81,-89.37 76.82,-85.32"/>
<polygon fill="#63b8ff" stroke="#63b8ff" points="80.23,-84.52 73.95,-75.99 73.54,-86.57 80.23,-84.52"/>
</a>
</g>
</g>
<!-- Node2 -->
<g id="Node000002" class="node">
<title>Node2</title>
<g id="a_Node000002"><a xlink:href="md5_8cpp.html#a5341431cef7fcfc33794326e1deb2425" target="_top" xlink:title="The MD5 algorithm itself, taking in a bytestring.">
<polygon fill="white" stroke="#666666" points="254.75,-74.25 137.5,-74.25 137.5,-55 254.75,-55 254.75,-74.25"/>
<text text-anchor="middle" x="196.12" y="-60.75" font-family="Helvetica,sans-Serif" font-size="10.00">hashing::md5::hash_bs</text>
</a>
</g>
</g>
<!-- Node1&#45;&gt;Node2 -->
<g id="edge2_Node000001_Node000002" class="edge">
<title>Node1&#45;&gt;Node2</title>
<g id="a_edge2_Node000001_Node000002"><a xlink:title=" ">
<path fill="none" stroke="#63b8ff" d="M101.9,-64.62C109.69,-64.62 117.86,-64.62 125.98,-64.62"/>
<polygon fill="#63b8ff" stroke="#63b8ff" points="125.88,-68.13 135.88,-64.63 125.88,-61.13 125.88,-68.13"/>
</a>
</g>
</g>
<!-- Node2&#45;&gt;Node2 -->
<g id="edge3_Node000002_Node000002" class="edge">
<title>Node2&#45;&gt;Node2</title>
<g id="a_edge3_Node000002_Node000002"><a xlink:title=" ">
<path fill="none" stroke="#63b8ff" d="M173.37,-74.54C162.98,-83.15 170.57,-92.25 196.12,-92.25 210.5,-92.25 219.19,-89.37 222.19,-85.32"/>
<polygon fill="#63b8ff" stroke="#63b8ff" points="225.61,-84.52 219.33,-75.99 218.92,-86.57 225.61,-84.52"/>
</a>
</g>
</g>
<!-- Node3 -->
<g id="Node000003" class="node">
<title>Node3</title>
<g id="a_Node000003"><a xlink:href="md5_8cpp.html#add2bf982d5dd64a45d13cba52c2b371d" target="_top" xlink:title="Rotates the bits of a 32&#45;bit unsigned integer.">
<polygon fill="white" stroke="#666666" points="440.62,-129.25 291.12,-129.25 291.12,-110 440.62,-110 440.62,-129.25"/>
<text text-anchor="middle" x="365.88" y="-115.75" font-family="Helvetica,sans-Serif" font-size="10.00">hashing::md5::leftRotate32bits</text>
</a>
</g>
</g>
<!-- Node2&#45;&gt;Node3 -->
<g id="edge4_Node000002_Node000003" class="edge">
<title>Node2&#45;&gt;Node3</title>
<g id="a_edge4_Node000002_Node000003"><a xlink:title=" ">
<path fill="none" stroke="#63b8ff" d="M219.89,-74.65C238.66,-82.66 266.09,-93.8 290.75,-101.62 296.43,-103.43 302.4,-105.15 308.39,-106.77"/>
<polygon fill="#63b8ff" stroke="#63b8ff" points="307.1,-110.05 317.66,-109.18 308.87,-103.28 307.1,-110.05"/>
</a>
</g>
</g>
<!-- Node4 -->
<g id="Node000004" class="node">
<title>Node4</title>
<g id="a_Node000004"><a xlink:href="md5_8cpp.html#a694712c9665051ba52b686387b87a689" target="_top" xlink:title="Sets 32&#45;bit integer to little&#45;endian if needed.">
<polygon fill="white" stroke="#666666" points="441,-74.25 290.75,-74.25 290.75,-55 441,-55 441,-74.25"/>
<text text-anchor="middle" x="365.88" y="-60.75" font-family="Helvetica,sans-Serif" font-size="10.00">hashing::md5::toLittleEndian32</text>
</a>
</g>
</g>
<!-- Node2&#45;&gt;Node4 -->
<g id="edge6_Node000002_Node000004" class="edge">
<title>Node2&#45;&gt;Node4</title>
<g id="a_edge6_Node000002_Node000004"><a xlink:title=" ">
<path fill="none" stroke="#63b8ff" d="M254.86,-64.62C262.74,-64.62 270.97,-64.62 279.21,-64.62"/>
<polygon fill="#63b8ff" stroke="#63b8ff" points="278.93,-68.13 288.93,-64.63 278.93,-61.13 278.93,-68.13"/>
</a>
</g>
</g>
<!-- Node6 -->
<g id="Node000006" class="node">
<title>Node6</title>
<g id="a_Node000006"><a xlink:href="md5_8cpp.html#a6be48c1e6e742f9bd329f501d61dcaef" target="_top" xlink:title="Sets 64&#45;bit integer to little&#45;endian if needed.">
<polygon fill="white" stroke="#666666" points="441,-19.25 290.75,-19.25 290.75,0 441,0 441,-19.25"/>
<text text-anchor="middle" x="365.88" y="-5.75" font-family="Helvetica,sans-Serif" font-size="10.00">hashing::md5::toLittleEndian64</text>
</a>
</g>
</g>
<!-- Node2&#45;&gt;Node6 -->
<g id="edge10_Node000002_Node000006" class="edge">
<title>Node2&#45;&gt;Node6</title>
<g id="a_edge10_Node000002_Node000006"><a xlink:title=" ">
<path fill="none" stroke="#63b8ff" d="M227.89,-54.54C254.65,-45.77 293.65,-32.98 323.2,-23.29"/>
<polygon fill="#63b8ff" stroke="#63b8ff" points="324.17,-26.65 332.58,-20.21 321.99,-20 324.17,-26.65"/>
</a>
</g>
</g>
<!-- Node3&#45;&gt;Node3 -->
<g id="edge5_Node000003_Node000003" class="edge">
<title>Node3&#45;&gt;Node3</title>
<g id="a_edge5_Node000003_Node000003"><a xlink:title=" ">
<path fill="none" stroke="#63b8ff" d="M339.3,-129.54C327.18,-138.15 336.04,-147.25 365.88,-147.25 382.66,-147.25 392.81,-144.37 396.31,-140.32"/>
<polygon fill="#63b8ff" stroke="#63b8ff" points="399.63,-139.2 392.96,-130.96 393.04,-141.56 399.63,-139.2"/>
</a>
</g>
</g>
<!-- Node4&#45;&gt;Node4 -->
<g id="edge9_Node000004_Node000004" class="edge">
<title>Node4&#45;&gt;Node4</title>
<g id="a_edge9_Node000004_Node000004"><a xlink:title=" ">
<path fill="none" stroke="#63b8ff" d="M339.3,-74.54C327.18,-83.15 336.04,-92.25 365.88,-92.25 382.66,-92.25 392.81,-89.37 396.31,-85.32"/>
<polygon fill="#63b8ff" stroke="#63b8ff" points="399.63,-84.2 392.96,-75.96 393.04,-86.56 399.63,-84.2"/>
</a>
</g>
</g>
<!-- Node5 -->
<g id="Node000005" class="node">
<title>Node5</title>
<g id="a_Node000005"><a xlink:href="md5_8cpp.html#af8e96bde0183c4b0a7ff04668f11e446" target="_top" xlink:title="Checks whether integers are stored as big endian or not.">
<polygon fill="white" stroke="#666666" points="609.25,-46.25 477,-46.25 477,-27 609.25,-27 609.25,-46.25"/>
<text text-anchor="middle" x="543.12" y="-32.75" font-family="Helvetica,sans-Serif" font-size="10.00">hashing::md5::isBigEndian</text>
</a>
</g>
</g>
<!-- Node4&#45;&gt;Node5 -->
<g id="edge7_Node000004_Node000005" class="edge">
<title>Node4&#45;&gt;Node5</title>
<g id="a_edge7_Node000004_Node000005"><a xlink:title=" ">
<path fill="none" stroke="#63b8ff" d="M430.14,-54.52C442.3,-52.57 455.14,-50.52 467.62,-48.53"/>
<polygon fill="#63b8ff" stroke="#63b8ff" points="468.13,-51.99 477.45,-46.96 467.03,-45.08 468.13,-51.99"/>
</a>
</g>
</g>
<!-- Node5&#45;&gt;Node5 -->
<g id="edge8_Node000005_Node000005" class="edge">
<title>Node5&#45;&gt;Node5</title>
<g id="a_edge8_Node000005_Node000005"><a xlink:title=" ">
<path fill="none" stroke="#63b8ff" d="M515.38,-46.54C502.72,-55.15 511.97,-64.25 543.12,-64.25 560.65,-64.25 571.25,-61.37 574.91,-57.32"/>
<polygon fill="#63b8ff" stroke="#63b8ff" points="578.19,-56.09 571.4,-47.96 571.63,-58.55 578.19,-56.09"/>
</a>
</g>
</g>
<!-- Node6&#45;&gt;Node5 -->
<g id="edge11_Node000006_Node000005" class="edge">
<title>Node6&#45;&gt;Node5</title>
<g id="a_edge11_Node000006_Node000005"><a xlink:title=" ">
<path fill="none" stroke="#63b8ff" d="M432.13,-19.68C442.89,-21.34 454.14,-23.07 465.15,-24.77"/>
<polygon fill="#63b8ff" stroke="#63b8ff" points="464.61,-28.22 475.03,-26.29 465.68,-21.31 464.61,-28.22"/>
</a>
</g>
</g>
<!-- Node6&#45;&gt;Node6 -->
<g id="edge12_Node000006_Node000006" class="edge">
<title>Node6&#45;&gt;Node6</title>
<g id="a_edge12_Node000006_Node000006"><a xlink:title=" ">
<path fill="none" stroke="#63b8ff" d="M339.3,-19.54C327.18,-28.15 336.04,-37.25 365.88,-37.25 382.66,-37.25 392.81,-34.37 396.31,-30.32"/>
<polygon fill="#63b8ff" stroke="#63b8ff" points="399.63,-29.2 392.96,-20.96 393.04,-31.56 399.63,-29.2"/>
</a>
</g>
</g>
</g>
</svg>
