<?xml version="1.0" encoding="UTF-8" standalone="no"?>
<!DOCTYPE svg PUBLIC "-//W3C//DTD SVG 1.1//EN"
 "http://www.w3.org/Graphics/SVG/1.1/DTD/svg11.dtd">
<!-- Generated by graphviz version 12.1.1 (20240910.0053)
 -->
<!-- Title: hashing::md5::hash_bs Pages: 1 -->
<svg width="480pt" height="155pt"
 viewBox="0.00 0.00 479.75 155.25" xmlns="http://www.w3.org/2000/svg" xmlns:xlink="http://www.w3.org/1999/xlink">
<g id="graph0" class="graph" transform="scale(1 1) rotate(0) translate(4 151.25)">
<title>hashing::md5::hash_bs</title>
<!-- Node1 -->
<g id="Node000001" class="node">
<title>Node1</title>
<g id="a_Node000001"><a xlink:title="The MD5 algorithm itself, taking in a bytestring.">
<polygon fill="#999999" stroke="#666666" points="117.25,-74.25 0,-74.25 0,-55 117.25,-55 117.25,-74.25"/>
<text text-anchor="middle" x="58.62" y="-60.75" font-family="Helvetica,sans-Serif" font-size="10.00">hashing::md5::hash_bs</text>
</a>
</g>
</g>
<!-- Node1&#45;&gt;Node1 -->
<g id="edge1_Node000001_Node000001" class="edge">
<title>Node1&#45;&gt;Node1</title>
<g id="a_edge1_Node000001_Node000001"><a xlink:title=" ">
<path fill="none" stroke="#63b8ff" d="M32.05,-74.54C19.93,-83.15 28.79,-92.25 58.62,-92.25 75.41,-92.25 85.56,-89.37 89.06,-85.32"/>
<polygon fill="#63b8ff" stroke="#63b8ff" points="92.38,-84.2 85.71,-75.96 85.79,-86.56 92.38,-84.2"/>
</a>
</g>
</g>
<!-- Node2 -->
<g id="Node000002" class="node">
<title>Node2</title>
<g id="a_Node000002"><a xlink:href="md5_8cpp.html#add2bf982d5dd64a45d13cba52c2b371d" target="_top" xlink:title="Rotates the bits of a 32&#45;bit unsigned integer.">
<polygon fill="white" stroke="#666666" points="303.12,-129.25 153.62,-129.25 153.62,-110 303.12,-110 303.12,-129.25"/>
<text text-anchor="middle" x="228.38" y="-115.75" font-family="Helvetica,sans-Serif" font-size="10.00">hashing::md5::leftRotate32bits</text>
</a>
</g>
</g>
<!-- Node1&#45;&gt;Node2 -->
<g id="edge2_Node000001_Node000002" class="edge">
<title>Node1&#45;&gt;Node2</title>
<g id="a_edge2_Node000001_Node000002"><a xlink:title=" ">
<path fill="none" stroke="#63b8ff" d="M82.39,-74.65C101.16,-82.66 128.59,-93.8 153.25,-101.62 158.93,-103.43 164.9,-105.15 170.89,-106.77"/>
<polygon fill="#63b8ff" stroke="#63b8ff" points="169.6,-110.05 180.16,-109.18 171.37,-103.28 169.6,-110.05"/>
</a>
</g>
</g>
<!-- Node3 -->
<g id="Node000003" class="node">
<title>Node3</title>
<g id="a_Node000003"><a xlink:href="md5_8cpp.html#a694712c9665051ba52b686387b87a689" target="_top" xlink:title="Sets 32&#45;bit integer to little&#45;endian if needed.">
<polygon fill="white" stroke="#666666" points="303.5,-74.25 153.25,-74.25 153.25,-55 303.5,-55 303.5,-74.25"/>
<text text-anchor="middle" x="228.38" y="-60.75" font-family="Helvetica,sans-Serif" font-size="10.00">hashing::md5::toLittleEndian32</text>
</a>
</g>
</g>
<!-- Node1&#45;&gt;Node3 -->
<g id="edge4_Node000001_Node000003" class="edge">
<title>Node1&#45;&gt;Node3</title>
<g id="a_edge4_Node000001_Node000003"><a xlink:title=" ">
<path fill="none" stroke="#63b8ff" d="M117.36,-64.62C125.24,-64.62 133.47,-64.62 141.71,-64.62"/>
<polygon fill="#63b8ff" stroke="#63b8ff" points="141.43,-68.13 151.43,-64.63 141.43,-61.13 141.43,-68.13"/>
</a>
</g>
</g>
<!-- Node5 -->
<g id="Node000005" class="node">
<title>Node5</title>
<g id="a_Node000005"><a xlink:href="md5_8cpp.html#a6be48c1e6e742f9bd329f501d61dcaef" target="_top" xlink:title="Sets 64&#45;bit integer to little&#45;endian if needed.">
<polygon fill="white" stroke="#666666" points="303.5,-19.25 153.25,-19.25 153.25,0 303.5,0 303.5,-19.25"/>
<text text-anchor="middle" x="228.38" y="-5.75" font-family="Helvetica,sans-Serif" font-size="10.00">hashing::md5::toLittleEndian64</text>
</a>
</g>
</g>
<!-- Node1&#45;&gt;Node5 -->
<g id="edge8_Node000001_Node000005" class="edge">
<title>Node1&#45;&gt;Node5</title>
<g id="a_edge8_Node000001_Node000005"><a xlink:title=" ">
<path fill="none" stroke="#63b8ff" d="M90.39,-54.54C117.15,-45.77 156.15,-32.98 185.7,-23.29"/>
<polygon fill="#63b8ff" stroke="#63b8ff" points="186.67,-26.65 195.08,-20.21 184.49,-20 186.67,-26.65"/>
</a>
</g>
</g>
<!-- Node2&#45;&gt;Node2 -->
<g id="edge3_Node000002_Node000002" class="edge">
<title>Node2&#45;&gt;Node2</title>
<g id="a_edge3_Node000002_Node000002"><a xlink:title=" ">
<path fill="none" stroke="#63b8ff" d="M201.8,-129.54C189.68,-138.15 198.54,-147.25 228.38,-147.25 245.16,-147.25 255.31,-144.37 258.81,-140.32"/>
<polygon fill="#63b8ff" stroke="#63b8ff" points="262.13,-139.2 255.46,-130.96 255.54,-141.56 262.13,-139.2"/>
</a>
</g>
</g>
<!-- Node3&#45;&gt;Node3 -->
<g id="edge7_Node000003_Node000003" class="edge">
<title>Node3&#45;&gt;Node3</title>
<g id="a_edge7_Node000003_Node000003"><a xlink:title=" ">
<path fill="none" stroke="#63b8ff" d="M201.8,-74.54C189.68,-83.15 198.54,-92.25 228.38,-92.25 245.16,-92.25 255.31,-89.37 258.81,-85.32"/>
<polygon fill="#63b8ff" stroke="#63b8ff" points="262.13,-84.2 255.46,-75.96 255.54,-86.56 262.13,-84.2"/>
</a>
</g>
</g>
<!-- Node4 -->
<g id="Node000004" class="node">
<title>Node4</title>
<g id="a_Node000004"><a xlink:href="md5_8cpp.html#af8e96bde0183c4b0a7ff04668f11e446" target="_top" xlink:title="Checks whether integers are stored as big endian or not.">
<polygon fill="white" stroke="#666666" points="471.75,-46.25 339.5,-46.25 339.5,-27 471.75,-27 471.75,-46.25"/>
<text text-anchor="middle" x="405.62" y="-32.75" font-family="Helvetica,sans-Serif" font-size="10.00">hashing::md5::isBigEndian</text>
</a>
</g>
</g>
<!-- Node3&#45;&gt;Node4 -->
<g id="edge5_Node000003_Node000004" class="edge">
<title>Node3&#45;&gt;Node4</title>
<g id="a_edge5_Node000003_Node000004"><a xlink:title=" ">
<path fill="none" stroke="#63b8ff" d="M292.64,-54.52C304.8,-52.57 317.64,-50.52 330.12,-48.53"/>
<polygon fill="#63b8ff" stroke="#63b8ff" points="330.63,-51.99 339.95,-46.96 329.53,-45.08 330.63,-51.99"/>
</a>
</g>
</g>
<!-- Node4&#45;&gt;Node4 -->
<g id="edge6_Node000004_Node000004" class="edge">
<title>Node4&#45;&gt;Node4</title>
<g id="a_edge6_Node000004_Node000004"><a xlink:title=" ">
<path fill="none" stroke="#63b8ff" d="M377.88,-46.54C365.22,-55.15 374.47,-64.25 405.62,-64.25 423.15,-64.25 433.75,-61.37 437.41,-57.32"/>
<polygon fill="#63b8ff" stroke="#63b8ff" points="440.69,-56.09 433.9,-47.96 434.13,-58.55 440.69,-56.09"/>
</a>
</g>
</g>
<!-- Node5&#45;&gt;Node4 -->
<g id="edge9_Node000005_Node000004" class="edge">
<title>Node5&#45;&gt;Node4</title>
<g id="a_edge9_Node000005_Node000004"><a xlink:title=" ">
<path fill="none" stroke="#63b8ff" d="M294.63,-19.68C305.39,-21.34 316.64,-23.07 327.65,-24.77"/>
<polygon fill="#63b8ff" stroke="#63b8ff" points="327.11,-28.22 337.53,-26.29 328.18,-21.31 327.11,-28.22"/>
</a>
</g>
</g>
<!-- Node5&#45;&gt;Node5 -->
<g id="edge10_Node000005_Node000005" class="edge">
<title>Node5&#45;&gt;Node5</title>
<g id="a_edge10_Node000005_Node000005"><a xlink:title=" ">
<path fill="none" stroke="#63b8ff" d="M201.8,-19.54C189.68,-28.15 198.54,-37.25 228.38,-37.25 245.16,-37.25 255.31,-34.37 258.81,-30.32"/>
<polygon fill="#63b8ff" stroke="#63b8ff" points="262.13,-29.2 255.46,-20.96 255.54,-31.56 262.13,-29.2"/>
</a>
</g>
</g>
</g>
</svg>
