<?xml version="1.0" encoding="UTF-8" standalone="no"?>
<!DOCTYPE svg PUBLIC "-//W3C//DTD SVG 1.1//EN"
 "http://www.w3.org/Graphics/SVG/1.1/DTD/svg11.dtd">
<!-- Generated by graphviz version 12.1.1 (20240910.0053)
 -->
<!-- Title: main Pages: 1 -->
<svg width="500pt" height="260pt"
 viewBox="0.00 0.00 500.25 259.50" xmlns="http://www.w3.org/2000/svg" xmlns:xlink="http://www.w3.org/1999/xlink">

<svg id="main" version="1.1" xmlns="http://www.w3.org/2000/svg" xmlns:xlink="http://www.w3.org/1999/xlink" xml:space="preserve">

<style type="text/css"><![CDATA[
.node, .edge {opacity: 0.7;}
.node.selected, .edge.selected {opacity: 1;}
.edge:hover path { stroke: red; }
.edge:hover polygon { stroke: red; fill: red; }
]]></style>
<script type="application/ecmascript" xlink:href="svg.min.js"/>
<svg id="graph" class="graph">
<g id="graph0" class="graph" transform="scale(1 1) rotate(0) translate(4 255.5)">
<title>main</title>
<!-- Node1 -->
<g id="Node000001" class="node">
<title>Node1</title>
<g id="a_Node000001"><a xlink:title="Main function.">
<polygon fill="#999999" stroke="#666666" points="37,-159.88 0,-159.88 0,-140.62 37,-140.62 37,-159.88"/>
<text text-anchor="middle" x="18.5" y="-146.38" font-family="Helvetica,sans-Serif" font-size="10.00">main</text>
</a>
</g>
</g>
<!-- Node2 -->
<g id="Node000002" class="node">
<title>Node2</title>
<g id="a_Node000002"><a xlink:href="namespacegames_1_1memory__game.html#a5714d97649c0edd57b4fb449799676a3" target="_top" xlink:title="Function that asks the user for their input in the table they previously chose.">
<polygon fill="white" stroke="#666666" points="340.5,-202.5 224.75,-202.5 224.75,-172 340.5,-172 340.5,-202.5"/>
<text text-anchor="start" x="232.75" y="-189" font-family="Helvetica,sans-Serif" font-size="10.00">games::memory_game</text>
<text text-anchor="middle" x="282.62" y="-177.75" font-family="Helvetica,sans-Serif" font-size="10.00">::ask_data</text>
</a>
</g>
</g>
<!-- Node1&#45;&gt;Node2 -->
<g id="edge1_Node000001_Node000002" class="edge">
<title>Node1&#45;&gt;Node2</title>
<g id="a_edge1_Node000001_Node000002"><a xlink:title=" ">
<path fill="none" stroke="#63b8ff" d="M37.11,-152.74C72.53,-157.74 154.09,-169.25 213.29,-177.6"/>
<polygon fill="#63b8ff" stroke="#63b8ff" points="212.55,-181.04 222.95,-178.97 213.53,-174.1 212.55,-181.04"/>
</a>
</g>
</g>
<!-- Node3 -->
<g id="Node000003" class="node">
<title>Node3</title>
<g id="a_Node000003"><a xlink:href="namespacegames_1_1memory__game.html#a33167bb9cce6d527b478b4f6ae8c3f59" target="_top" xlink:title="Utility function to verify if the given input is a number or not. This is very useful to prevent the ...">
<polygon fill="white" stroke="#666666" points="492.25,-251.5 376.5,-251.5 376.5,-221 492.25,-221 492.25,-251.5"/>
<text text-anchor="start" x="384.5" y="-238" font-family="Helvetica,sans-Serif" font-size="10.00">games::memory_game</text>
<text text-anchor="middle" x="434.38" y="-226.75" font-family="Helvetica,sans-Serif" font-size="10.00">::is_number</text>
</a>
</g>
</g>
<!-- Node1&#45;&gt;Node3 -->
<g id="edge14_Node000001_Node000003" class="edge">
<title>Node1&#45;&gt;Node3</title>
<g id="a_edge14_Node000001_Node000003"><a xlink:title=" ">
<path fill="none" stroke="#63b8ff" d="M34.86,-160.12C45.26,-166.42 59.51,-174.29 73,-179.25 170.35,-215.04 290.6,-228.36 364.63,-233.32"/>
<polygon fill="#63b8ff" stroke="#63b8ff" points="364.39,-236.81 374.59,-233.95 364.83,-229.83 364.39,-236.81"/>
</a>
</g>
</g>
<!-- Node6 -->
<g id="Node000006" class="node">
<title>Node6</title>
<g id="a_Node000006"><a xlink:href="namespacegames_1_1memory__game.html#a3ceeea62d8fa6c563e2c66359fd73413" target="_top" xlink:title="Function to assign the results to the table.">
<polygon fill="white" stroke="#666666" points="188.75,-122.5 73,-122.5 73,-92 188.75,-92 188.75,-122.5"/>
<text text-anchor="start" x="81" y="-109" font-family="Helvetica,sans-Serif" font-size="10.00">games::memory_game</text>
<text text-anchor="middle" x="130.88" y="-97.75" font-family="Helvetica,sans-Serif" font-size="10.00">::assign_results</text>
</a>
</g>
</g>
<!-- Node1&#45;&gt;Node6 -->
<g id="edge6_Node000001_Node000006" class="edge">
<title>Node1&#45;&gt;Node6</title>
<g id="a_edge6_Node000001_Node000006"><a xlink:title=" ">
<path fill="none" stroke="#63b8ff" d="M37.23,-143.34C48.72,-138.87 64.31,-132.79 79.42,-126.91"/>
<polygon fill="#63b8ff" stroke="#63b8ff" points="80.29,-130.33 88.33,-123.43 77.75,-123.8 80.29,-130.33"/>
</a>
</g>
</g>
<!-- Node7 -->
<g id="Node000007" class="node">
<title>Node7</title>
<g id="a_Node000007"><a xlink:href="namespacegames_1_1memory__game.html#ad573c8ae66ab66156d03e5e81bbba214" target="_top" xlink:title="Initializes the table with the letters.">
<polygon fill="white" stroke="#666666" points="340.5,-30.5 224.75,-30.5 224.75,0 340.5,0 340.5,-30.5"/>
<text text-anchor="start" x="232.75" y="-17" font-family="Helvetica,sans-Serif" font-size="10.00">games::memory_game</text>
<text text-anchor="middle" x="282.62" y="-5.75" font-family="Helvetica,sans-Serif" font-size="10.00">::init</text>
</a>
</g>
</g>
<!-- Node1&#45;&gt;Node7 -->
<g id="edge13_Node000001_Node000007" class="edge">
<title>Node1&#45;&gt;Node7</title>
<g id="a_edge13_Node000001_Node000007"><a xlink:title=" ">
<path fill="none" stroke="#63b8ff" d="M24.74,-140.56C33.09,-126.04 50.73,-98.68 73,-83.25 114.96,-54.17 170.17,-36.9 213.25,-27.04"/>
<polygon fill="#63b8ff" stroke="#63b8ff" points="214,-30.46 223.01,-24.9 212.5,-23.63 214,-30.46"/>
</a>
</g>
</g>
<!-- Node2&#45;&gt;Node3 -->
<g id="edge2_Node000002_Node000003" class="edge">
<title>Node2&#45;&gt;Node3</title>
<g id="a_edge2_Node000002_Node000003"><a xlink:title=" ">
<path fill="none" stroke="#63b8ff" d="M331.42,-202.89C345.13,-207.37 360.24,-212.32 374.53,-217"/>
<polygon fill="#63b8ff" stroke="#63b8ff" points="373.23,-220.25 383.83,-220.04 375.41,-213.6 373.23,-220.25"/>
</a>
</g>
</g>
<!-- Node4 -->
<g id="Node000004" class="node">
<title>Node4</title>
<g id="a_Node000004"><a xlink:href="namespacegames_1_1memory__game.html#ac589ef65abb0a6b9a7116ee0f9fd5280" target="_top" xlink:title="Utility function to print the table.">
<polygon fill="white" stroke="#666666" points="492.25,-153.5 376.5,-153.5 376.5,-123 492.25,-123 492.25,-153.5"/>
<text text-anchor="start" x="384.5" y="-140" font-family="Helvetica,sans-Serif" font-size="10.00">games::memory_game</text>
<text text-anchor="middle" x="434.38" y="-128.75" font-family="Helvetica,sans-Serif" font-size="10.00">::print_table</text>
</a>
</g>
</g>
<!-- Node2&#45;&gt;Node4 -->
<g id="edge3_Node000002_Node000004" class="edge">
<title>Node2&#45;&gt;Node4</title>
<g id="a_edge3_Node000002_Node000004"><a xlink:title=" ">
<path fill="none" stroke="#63b8ff" d="M331.42,-171.61C345.13,-167.13 360.24,-162.18 374.53,-157.5"/>
<polygon fill="#63b8ff" stroke="#63b8ff" points="375.41,-160.9 383.83,-154.46 373.23,-154.25 375.41,-160.9"/>
</a>
</g>
</g>
<!-- Node5 -->
<g id="Node000005" class="node">
<title>Node5</title>
<g id="a_Node000005"><a xlink:href="namespacegames_1_1memory__game.html#adc62ebb75853446656e24932bdc6dd6b" target="_top" xlink:title="Utility function that resets the data if the user enters an invalid value.">
<polygon fill="white" stroke="#666666" points="492.25,-202.5 376.5,-202.5 376.5,-172 492.25,-172 492.25,-202.5"/>
<text text-anchor="start" x="384.5" y="-189" font-family="Helvetica,sans-Serif" font-size="10.00">games::memory_game</text>
<text text-anchor="middle" x="434.38" y="-177.75" font-family="Helvetica,sans-Serif" font-size="10.00">::reset_data</text>
</a>
</g>
</g>
<!-- Node2&#45;&gt;Node5 -->
<g id="edge4_Node000002_Node000005" class="edge">
<title>Node2&#45;&gt;Node5</title>
<g id="a_edge4_Node000002_Node000005"><a xlink:title=" ">
<path fill="none" stroke="#63b8ff" d="M340.67,-180.67C348.64,-180.52 356.91,-180.47 365.07,-180.52"/>
<polygon fill="#63b8ff" stroke="#63b8ff" points="364.93,-184.02 374.98,-180.66 365.03,-177.02 364.93,-184.02"/>
</a>
</g>
</g>
<!-- Node5&#45;&gt;Node2 -->
<g id="edge5_Node000005_Node000002" class="edge">
<title>Node5&#45;&gt;Node2</title>
<g id="a_edge5_Node000005_Node000002"><a xlink:title=" ">
<path fill="none" stroke="#63b8ff" d="M376.49,-193.82C368.52,-193.98 360.26,-194.03 352.09,-193.98"/>
<polygon fill="#63b8ff" stroke="#63b8ff" points="352.23,-190.48 342.18,-193.85 352.13,-197.48 352.23,-190.48"/>
</a>
</g>
</g>
<!-- Node6&#45;&gt;Node2 -->
<g id="edge7_Node000006_Node000002" class="edge">
<title>Node6&#45;&gt;Node2</title>
<g id="a_edge7_Node000006_Node000002"><a xlink:title=" ">
<path fill="none" stroke="#63b8ff" d="M159.8,-122.87C178.17,-133.08 202.8,-146.63 224.75,-158.25 229.82,-160.94 235.17,-163.72 240.48,-166.46"/>
<polygon fill="#63b8ff" stroke="#63b8ff" points="238.7,-169.48 249.2,-170.93 241.89,-163.25 238.7,-169.48"/>
</a>
</g>
</g>
<!-- Node6&#45;&gt;Node4 -->
<g id="edge11_Node000006_Node000004" class="edge">
<title>Node6&#45;&gt;Node4</title>
<g id="a_edge11_Node000006_Node000004"><a xlink:title=" ">
<path fill="none" stroke="#63b8ff" d="M189.16,-119.55C200.89,-121.73 213.18,-123.77 224.75,-125.25 271.21,-131.17 323.85,-134.43 364.63,-136.2"/>
<polygon fill="#63b8ff" stroke="#63b8ff" points="364.43,-139.7 374.56,-136.61 364.71,-132.7 364.43,-139.7"/>
</a>
</g>
</g>
<!-- Node6&#45;&gt;Node6 -->
<g id="edge8_Node000006_Node000006" class="edge">
<title>Node6&#45;&gt;Node6</title>
<g id="a_edge8_Node000006_Node000006"><a xlink:title=" ">
<path fill="none" stroke="#63b8ff" d="M110.96,-122.99C106.9,-132.06 113.54,-140.5 130.88,-140.5 140.36,-140.5 146.64,-137.97 149.72,-134.2"/>
<polygon fill="#63b8ff" stroke="#63b8ff" points="153.18,-134.78 150.64,-124.49 146.21,-134.12 153.18,-134.78"/>
</a>
</g>
</g>
<!-- Node6&#45;&gt;Node7 -->
<g id="edge9_Node000006_Node000007" class="edge">
<title>Node6&#45;&gt;Node7</title>
<g id="a_edge9_Node000006_Node000007"><a xlink:title=" ">
<path fill="none" stroke="#63b8ff" d="M150.55,-91.55C168.71,-76.79 197.45,-54.72 224.75,-39.25 226.79,-38.09 228.9,-36.96 231.04,-35.85"/>
<polygon fill="#63b8ff" stroke="#63b8ff" points="232.45,-39.06 239.92,-31.55 229.4,-32.76 232.45,-39.06"/>
</a>
</g>
</g>
<!-- Node8 -->
<g id="Node000008" class="node">
<title>Node8</title>
<g id="a_Node000008"><a xlink:href="namespacegames_1_1memory__game.html#a370760f2b328ad341bcb77d82fa17b01" target="_top" xlink:title="Checks if the two values given by the user match.">
<polygon fill="white" stroke="#666666" points="340.5,-116.5 224.75,-116.5 224.75,-86 340.5,-86 340.5,-116.5"/>
<text text-anchor="start" x="232.75" y="-103" font-family="Helvetica,sans-Serif" font-size="10.00">games::memory_game</text>
<text text-anchor="middle" x="282.62" y="-91.75" font-family="Helvetica,sans-Serif" font-size="10.00">::match</text>
</a>
</g>
</g>
<!-- Node6&#45;&gt;Node8 -->
<g id="edge10_Node000006_Node000008" class="edge">
<title>Node6&#45;&gt;Node8</title>
<g id="a_edge10_Node000006_Node000008"><a xlink:title=" ">
<path fill="none" stroke="#63b8ff" d="M188.92,-104.96C196.89,-104.64 205.16,-104.31 213.32,-103.99"/>
<polygon fill="#63b8ff" stroke="#63b8ff" points="213.38,-107.49 223.23,-103.59 213.1,-100.49 213.38,-107.49"/>
</a>
</g>
</g>
<!-- Node9 -->
<g id="Node000009" class="node">
<title>Node9</title>
<g id="a_Node000009"><a xlink:href="memory__game_8cpp.html#a5bdc30951221eae9c33413ff9eb574f6" target="_top" xlink:title="for sleep()">
<polygon fill="white" stroke="#666666" points="306.75,-67.88 258.5,-67.88 258.5,-48.62 306.75,-48.62 306.75,-67.88"/>
<text text-anchor="middle" x="282.62" y="-54.38" font-family="Helvetica,sans-Serif" font-size="10.00">SLEEP</text>
</a>
</g>
</g>
<!-- Node6&#45;&gt;Node9 -->
<g id="edge12_Node000006_Node000009" class="edge">
<title>Node6&#45;&gt;Node9</title>
<g id="a_edge12_Node000006_Node000009"><a xlink:title=" ">
<path fill="none" stroke="#63b8ff" d="M179.67,-91.61C201.67,-84.41 227.27,-76.04 247.31,-69.48"/>
<polygon fill="#63b8ff" stroke="#63b8ff" points="248.26,-72.85 256.67,-66.41 246.08,-66.2 248.26,-72.85"/>
</a>
</g>
</g>
</g>
</svg>
</svg>

<style type='text/css'>
<![CDATA[
[data-mouse-over-selected='false'] { opacity: 0.7; }
[data-mouse-over-selected='true']  { opacity: 1.0; }
]]>
</style>
<script type="application/ecmascript"><![CDATA[
document.addEventListener('DOMContentLoaded', (event) => {
  highlightEdges();
  highlightAdjacentNodes();
});
]]></script>
</svg>
