<?xml version="1.0" encoding="UTF-8" standalone="no"?>
<!DOCTYPE svg PUBLIC "-//W3C//DTD SVG 1.1//EN"
 "http://www.w3.org/Graphics/SVG/1.1/DTD/svg11.dtd">
<!-- Generated by graphviz version 12.1.1 (20240910.0053)
 -->
<!-- Title: miller_test Pages: 1 -->
<svg width="310pt" height="101pt"
 viewBox="0.00 0.00 309.50 101.25" xmlns="http://www.w3.org/2000/svg" xmlns:xlink="http://www.w3.org/1999/xlink">

<svg id="main" version="1.1" xmlns="http://www.w3.org/2000/svg" xmlns:xlink="http://www.w3.org/1999/xlink" xml:space="preserve">

<style type="text/css"><![CDATA[
.node, .edge {opacity: 0.7;}
.node.selected, .edge.selected {opacity: 1;}
.edge:hover path { stroke: red; }
.edge:hover polygon { stroke: red; fill: red; }
]]></style>
<script type="application/ecmascript" xlink:href="svg.min.js"/>
<svg id="graph" class="graph">
<g id="graph0" class="graph" transform="scale(1 1) rotate(0) translate(4 97.25)">
<title>miller_test</title>
<!-- Node1 -->
<g id="Node000001" class="node">
<title>Node1</title>
<g id="a_Node000001"><a xlink:title=" ">
<polygon fill="#999999" stroke="#666666" points="61,-56.25 0,-56.25 0,-37 61,-37 61,-56.25"/>
<text text-anchor="middle" x="30.5" y="-42.75" font-family="Helvetica,sans-Serif" font-size="10.00">miller_test</text>
</a>
</g>
</g>
<!-- Node2 -->
<g id="Node000002" class="node">
<title>Node2</title>
<g id="a_Node000002"><a xlink:href="miller__rabin_8cpp.html#ad6c2c67ea416d0e80003a88623f98b29" target="_top" xlink:title=" ">
<polygon fill="white" stroke="#666666" points="215.75,-93.25 97,-93.25 97,-74 215.75,-74 215.75,-93.25"/>
<text text-anchor="middle" x="156.38" y="-79.75" font-family="Helvetica,sans-Serif" font-size="10.00">modular_exponentiation</text>
</a>
</g>
</g>
<!-- Node1&#45;&gt;Node2 -->
<g id="edge1_Node000001_Node000002" class="edge">
<title>Node1&#45;&gt;Node2</title>
<g id="a_edge1_Node000001_Node000002"><a xlink:title=" ">
<path fill="none" stroke="#63b8ff" d="M61.49,-55.58C76.26,-60 94.38,-65.41 110.75,-70.3"/>
<polygon fill="#63b8ff" stroke="#63b8ff" points="109.7,-73.64 120.28,-73.14 111.7,-66.93 109.7,-73.64"/>
</a>
</g>
</g>
<!-- Node3 -->
<g id="Node000003" class="node">
<title>Node3</title>
<g id="a_Node000003"><a xlink:href="power__for__huge__numbers_8cpp.html#ae249a2af508aa94266023ce8aa81426f" target="_top" xlink:title=" ">
<polygon fill="white" stroke="#666666" points="177.5,-56.25 135.25,-56.25 135.25,-37 177.5,-37 177.5,-56.25"/>
<text text-anchor="middle" x="156.38" y="-42.75" font-family="Helvetica,sans-Serif" font-size="10.00">power</text>
</a>
</g>
</g>
<!-- Node1&#45;&gt;Node3 -->
<g id="edge2_Node000001_Node000003" class="edge">
<title>Node1&#45;&gt;Node3</title>
<g id="a_edge2_Node000001_Node000003"><a xlink:title=" ">
<path fill="none" stroke="#63b8ff" d="M61.49,-46.62C80.25,-46.62 104.41,-46.62 123.52,-46.62"/>
<polygon fill="#63b8ff" stroke="#63b8ff" points="123.45,-50.13 133.45,-46.63 123.45,-43.13 123.45,-50.13"/>
</a>
</g>
</g>
<!-- Node5 -->
<g id="Node000005" class="node">
<title>Node5</title>
<g id="a_Node000005"><a xlink:href="miller__rabin_8cpp.html#a091662a787d5ad4866713021f580fddb" target="_top" xlink:title=" ">
<polygon fill="white" stroke="#666666" points="196.25,-19.25 116.5,-19.25 116.5,0 196.25,0 196.25,-19.25"/>
<text text-anchor="middle" x="156.38" y="-5.75" font-family="Helvetica,sans-Serif" font-size="10.00">reverse_binary</text>
</a>
</g>
</g>
<!-- Node1&#45;&gt;Node5 -->
<g id="edge4_Node000001_Node000005" class="edge">
<title>Node1&#45;&gt;Node5</title>
<g id="a_edge4_Node000001_Node000005"><a xlink:title=" ">
<path fill="none" stroke="#63b8ff" d="M61.49,-37.67C76.26,-33.25 94.38,-27.84 110.75,-22.95"/>
<polygon fill="#63b8ff" stroke="#63b8ff" points="111.7,-26.32 120.28,-20.11 109.7,-19.61 111.7,-26.32"/>
</a>
</g>
</g>
<!-- Node4 -->
<g id="Node000004" class="node">
<title>Node4</title>
<g id="a_Node000004"><a xlink:href="power__for__huge__numbers_8cpp.html#aa141a7904f0c4668bac112d652a3acf9" target="_top" xlink:title=" ">
<polygon fill="white" stroke="#666666" points="301.5,-56.25 251.75,-56.25 251.75,-37 301.5,-37 301.5,-56.25"/>
<text text-anchor="middle" x="276.62" y="-42.75" font-family="Helvetica,sans-Serif" font-size="10.00">multiply</text>
</a>
</g>
</g>
<!-- Node3&#45;&gt;Node4 -->
<g id="edge3_Node000003_Node000004" class="edge">
<title>Node3&#45;&gt;Node4</title>
<g id="a_edge3_Node000003_Node000004"><a xlink:title=" ">
<path fill="none" stroke="#63b8ff" d="M177.97,-46.62C195.12,-46.62 219.93,-46.62 240.24,-46.62"/>
<polygon fill="#63b8ff" stroke="#63b8ff" points="240.08,-50.13 250.08,-46.63 240.08,-43.13 240.08,-50.13"/>
</a>
</g>
</g>
</g>
</svg>
</svg>

<style type='text/css'>
<![CDATA[
[data-mouse-over-selected='false'] { opacity: 0.7; }
[data-mouse-over-selected='true']  { opacity: 1.0; }
]]>
</style>
<script type="application/ecmascript"><![CDATA[
document.addEventListener('DOMContentLoaded', (event) => {
  highlightEdges();
  highlightAdjacentNodes();
});
]]></script>
</svg>
