<?xml version="1.0" encoding="UTF-8" standalone="no"?>
<!DOCTYPE svg PUBLIC "-//W3C//DTD SVG 1.1//EN"
 "http://www.w3.org/Graphics/SVG/1.1/DTD/svg11.dtd">
<!-- Generated by graphviz version 12.1.1 (20240910.0053)
 -->
<!-- Title: tests Pages: 1 -->
<svg width="549pt" height="101pt"
 viewBox="0.00 0.00 548.50 101.25" xmlns="http://www.w3.org/2000/svg" xmlns:xlink="http://www.w3.org/1999/xlink">
<g id="graph0" class="graph" transform="scale(1 1) rotate(0) translate(4 97.25)">
<title>tests</title>
<!-- Node1 -->
<g id="Node000001" class="node">
<title>Node1</title>
<g id="a_Node000001"><a xlink:title=" ">
<polygon fill="#999999" stroke="#666666" points="37.75,-56.25 0,-56.25 0,-37 37.75,-37 37.75,-56.25"/>
<text text-anchor="middle" x="18.88" y="-42.75" font-family="Helvetica,sans-Serif" font-size="10.00">tests</text>
</a>
</g>
</g>
<!-- Node2 -->
<g id="Node000002" class="node">
<title>Node2</title>
<g id="a_Node000002"><a xlink:href="miller__rabin_8cpp.html#a901288288ef5ebe8e97414cc30797cce" target="_top" xlink:title=" ">
<polygon fill="white" stroke="#666666" points="203,-56.25 73.75,-56.25 73.75,-37 203,-37 203,-56.25"/>
<text text-anchor="middle" x="138.38" y="-42.75" font-family="Helvetica,sans-Serif" font-size="10.00">miller_rabin_primality_test</text>
</a>
</g>
</g>
<!-- Node1&#45;&gt;Node2 -->
<g id="edge1_Node000001_Node000002" class="edge">
<title>Node1&#45;&gt;Node2</title>
<g id="a_edge1_Node000001_Node000002"><a xlink:title=" ">
<path fill="none" stroke="#63b8ff" d="M38.23,-46.62C45.04,-46.62 53.25,-46.62 62,-46.62"/>
<polygon fill="#63b8ff" stroke="#63b8ff" points="61.78,-50.13 71.78,-46.63 61.78,-43.13 61.78,-50.13"/>
</a>
</g>
</g>
<!-- Node3 -->
<g id="Node000003" class="node">
<title>Node3</title>
<g id="a_Node000003"><a xlink:href="miller__rabin_8cpp.html#a6f9c31c1047aa3191676d64571d4c506" target="_top" xlink:title=" ">
<polygon fill="white" stroke="#666666" points="300,-56.25 239,-56.25 239,-37 300,-37 300,-56.25"/>
<text text-anchor="middle" x="269.5" y="-42.75" font-family="Helvetica,sans-Serif" font-size="10.00">miller_test</text>
</a>
</g>
</g>
<!-- Node2&#45;&gt;Node3 -->
<g id="edge2_Node000002_Node000003" class="edge">
<title>Node2&#45;&gt;Node3</title>
<g id="a_edge2_Node000002_Node000003"><a xlink:title=" ">
<path fill="none" stroke="#63b8ff" d="M203.18,-46.62C211.45,-46.62 219.74,-46.62 227.5,-46.62"/>
<polygon fill="#63b8ff" stroke="#63b8ff" points="227.29,-50.13 237.29,-46.63 227.29,-43.13 227.29,-50.13"/>
</a>
</g>
</g>
<!-- Node4 -->
<g id="Node000004" class="node">
<title>Node4</title>
<g id="a_Node000004"><a xlink:href="miller__rabin_8cpp.html#ad6c2c67ea416d0e80003a88623f98b29" target="_top" xlink:title=" ">
<polygon fill="white" stroke="#666666" points="454.75,-93.25 336,-93.25 336,-74 454.75,-74 454.75,-93.25"/>
<text text-anchor="middle" x="395.38" y="-79.75" font-family="Helvetica,sans-Serif" font-size="10.00">modular_exponentiation</text>
</a>
</g>
</g>
<!-- Node3&#45;&gt;Node4 -->
<g id="edge3_Node000003_Node000004" class="edge">
<title>Node3&#45;&gt;Node4</title>
<g id="a_edge3_Node000003_Node000004"><a xlink:title=" ">
<path fill="none" stroke="#63b8ff" d="M300.49,-55.58C315.26,-60 333.38,-65.41 349.75,-70.3"/>
<polygon fill="#63b8ff" stroke="#63b8ff" points="348.7,-73.64 359.28,-73.14 350.7,-66.93 348.7,-73.64"/>
</a>
</g>
</g>
<!-- Node5 -->
<g id="Node000005" class="node">
<title>Node5</title>
<g id="a_Node000005"><a xlink:href="power__for__huge__numbers_8cpp.html#ae249a2af508aa94266023ce8aa81426f" target="_top" xlink:title=" ">
<polygon fill="white" stroke="#666666" points="416.5,-56.25 374.25,-56.25 374.25,-37 416.5,-37 416.5,-56.25"/>
<text text-anchor="middle" x="395.38" y="-42.75" font-family="Helvetica,sans-Serif" font-size="10.00">power</text>
</a>
</g>
</g>
<!-- Node3&#45;&gt;Node5 -->
<g id="edge4_Node000003_Node000005" class="edge">
<title>Node3&#45;&gt;Node5</title>
<g id="a_edge4_Node000003_Node000005"><a xlink:title=" ">
<path fill="none" stroke="#63b8ff" d="M300.49,-46.62C319.25,-46.62 343.41,-46.62 362.52,-46.62"/>
<polygon fill="#63b8ff" stroke="#63b8ff" points="362.45,-50.13 372.45,-46.63 362.45,-43.13 362.45,-50.13"/>
</a>
</g>
</g>
<!-- Node7 -->
<g id="Node000007" class="node">
<title>Node7</title>
<g id="a_Node000007"><a xlink:href="miller__rabin_8cpp.html#a091662a787d5ad4866713021f580fddb" target="_top" xlink:title=" ">
<polygon fill="white" stroke="#666666" points="435.25,-19.25 355.5,-19.25 355.5,0 435.25,0 435.25,-19.25"/>
<text text-anchor="middle" x="395.38" y="-5.75" font-family="Helvetica,sans-Serif" font-size="10.00">reverse_binary</text>
</a>
</g>
</g>
<!-- Node3&#45;&gt;Node7 -->
<g id="edge6_Node000003_Node000007" class="edge">
<title>Node3&#45;&gt;Node7</title>
<g id="a_edge6_Node000003_Node000007"><a xlink:title=" ">
<path fill="none" stroke="#63b8ff" d="M300.49,-37.67C315.26,-33.25 333.38,-27.84 349.75,-22.95"/>
<polygon fill="#63b8ff" stroke="#63b8ff" points="350.7,-26.32 359.28,-20.11 348.7,-19.61 350.7,-26.32"/>
</a>
</g>
</g>
<!-- Node6 -->
<g id="Node000006" class="node">
<title>Node6</title>
<g id="a_Node000006"><a xlink:href="power__for__huge__numbers_8cpp.html#aa141a7904f0c4668bac112d652a3acf9" target="_top" xlink:title=" ">
<polygon fill="white" stroke="#666666" points="540.5,-56.25 490.75,-56.25 490.75,-37 540.5,-37 540.5,-56.25"/>
<text text-anchor="middle" x="515.62" y="-42.75" font-family="Helvetica,sans-Serif" font-size="10.00">multiply</text>
</a>
</g>
</g>
<!-- Node5&#45;&gt;Node6 -->
<g id="edge5_Node000005_Node000006" class="edge">
<title>Node5&#45;&gt;Node6</title>
<g id="a_edge5_Node000005_Node000006"><a xlink:title=" ">
<path fill="none" stroke="#63b8ff" d="M416.97,-46.62C434.12,-46.62 458.93,-46.62 479.24,-46.62"/>
<polygon fill="#63b8ff" stroke="#63b8ff" points="479.08,-50.13 489.08,-46.63 479.08,-43.13 479.08,-50.13"/>
</a>
</g>
</g>
</g>
</svg>
