<?xml version="1.0" encoding="UTF-8" standalone="no"?>
<!DOCTYPE svg PUBLIC "-//W3C//DTD SVG 1.1//EN"
 "http://www.w3.org/Graphics/SVG/1.1/DTD/svg11.dtd">
<!-- Generated by graphviz version 12.1.1 (20240910.0053)
 -->
<!-- Title: main Pages: 1 -->
<svg width="622pt" height="101pt"
 viewBox="0.00 0.00 621.50 101.25" xmlns="http://www.w3.org/2000/svg" xmlns:xlink="http://www.w3.org/1999/xlink">
<g id="graph0" class="graph" transform="scale(1 1) rotate(0) translate(4 97.25)">
<title>main</title>
<!-- Node1 -->
<g id="Node000001" class="node">
<title>Node1</title>
<g id="a_Node000001"><a xlink:title=" ">
<polygon fill="#999999" stroke="#666666" points="37,-56.25 0,-56.25 0,-37 37,-37 37,-56.25"/>
<text text-anchor="middle" x="18.5" y="-42.75" font-family="Helvetica,sans-Serif" font-size="10.00">main</text>
</a>
</g>
</g>
<!-- Node2 -->
<g id="Node000002" class="node">
<title>Node2</title>
<g id="a_Node000002"><a xlink:href="miller__rabin_8cpp.html#a88ec9ad42717780d6caaff9d3d6977f9" target="_top" xlink:title=" ">
<polygon fill="white" stroke="#666666" points="110.75,-56.25 73,-56.25 73,-37 110.75,-37 110.75,-56.25"/>
<text text-anchor="middle" x="91.88" y="-42.75" font-family="Helvetica,sans-Serif" font-size="10.00">tests</text>
</a>
</g>
</g>
<!-- Node1&#45;&gt;Node2 -->
<g id="edge1_Node000001_Node000002" class="edge">
<title>Node1&#45;&gt;Node2</title>
<g id="a_edge1_Node000001_Node000002"><a xlink:title=" ">
<path fill="none" stroke="#63b8ff" d="M37.14,-46.62C44.55,-46.62 53.37,-46.62 61.69,-46.62"/>
<polygon fill="#63b8ff" stroke="#63b8ff" points="61.43,-50.13 71.43,-46.63 61.43,-43.13 61.43,-50.13"/>
</a>
</g>
</g>
<!-- Node3 -->
<g id="Node000003" class="node">
<title>Node3</title>
<g id="a_Node000003"><a xlink:href="miller__rabin_8cpp.html#a901288288ef5ebe8e97414cc30797cce" target="_top" xlink:title=" ">
<polygon fill="white" stroke="#666666" points="276,-56.25 146.75,-56.25 146.75,-37 276,-37 276,-56.25"/>
<text text-anchor="middle" x="211.38" y="-42.75" font-family="Helvetica,sans-Serif" font-size="10.00">miller_rabin_primality_test</text>
</a>
</g>
</g>
<!-- Node2&#45;&gt;Node3 -->
<g id="edge2_Node000002_Node000003" class="edge">
<title>Node2&#45;&gt;Node3</title>
<g id="a_edge2_Node000002_Node000003"><a xlink:title=" ">
<path fill="none" stroke="#63b8ff" d="M111.23,-46.62C118.04,-46.62 126.25,-46.62 135,-46.62"/>
<polygon fill="#63b8ff" stroke="#63b8ff" points="134.78,-50.13 144.78,-46.63 134.78,-43.13 134.78,-50.13"/>
</a>
</g>
</g>
<!-- Node4 -->
<g id="Node000004" class="node">
<title>Node4</title>
<g id="a_Node000004"><a xlink:href="miller__rabin_8cpp.html#a6f9c31c1047aa3191676d64571d4c506" target="_top" xlink:title=" ">
<polygon fill="white" stroke="#666666" points="373,-56.25 312,-56.25 312,-37 373,-37 373,-56.25"/>
<text text-anchor="middle" x="342.5" y="-42.75" font-family="Helvetica,sans-Serif" font-size="10.00">miller_test</text>
</a>
</g>
</g>
<!-- Node3&#45;&gt;Node4 -->
<g id="edge3_Node000003_Node000004" class="edge">
<title>Node3&#45;&gt;Node4</title>
<g id="a_edge3_Node000003_Node000004"><a xlink:title=" ">
<path fill="none" stroke="#63b8ff" d="M276.18,-46.62C284.45,-46.62 292.74,-46.62 300.5,-46.62"/>
<polygon fill="#63b8ff" stroke="#63b8ff" points="300.29,-50.13 310.29,-46.63 300.29,-43.13 300.29,-50.13"/>
</a>
</g>
</g>
<!-- Node5 -->
<g id="Node000005" class="node">
<title>Node5</title>
<g id="a_Node000005"><a xlink:href="miller__rabin_8cpp.html#ad6c2c67ea416d0e80003a88623f98b29" target="_top" xlink:title=" ">
<polygon fill="white" stroke="#666666" points="527.75,-93.25 409,-93.25 409,-74 527.75,-74 527.75,-93.25"/>
<text text-anchor="middle" x="468.38" y="-79.75" font-family="Helvetica,sans-Serif" font-size="10.00">modular_exponentiation</text>
</a>
</g>
</g>
<!-- Node4&#45;&gt;Node5 -->
<g id="edge4_Node000004_Node000005" class="edge">
<title>Node4&#45;&gt;Node5</title>
<g id="a_edge4_Node000004_Node000005"><a xlink:title=" ">
<path fill="none" stroke="#63b8ff" d="M373.49,-55.58C388.26,-60 406.38,-65.41 422.75,-70.3"/>
<polygon fill="#63b8ff" stroke="#63b8ff" points="421.7,-73.64 432.28,-73.14 423.7,-66.93 421.7,-73.64"/>
</a>
</g>
</g>
<!-- Node6 -->
<g id="Node000006" class="node">
<title>Node6</title>
<g id="a_Node000006"><a xlink:href="power__for__huge__numbers_8cpp.html#ae249a2af508aa94266023ce8aa81426f" target="_top" xlink:title=" ">
<polygon fill="white" stroke="#666666" points="489.5,-56.25 447.25,-56.25 447.25,-37 489.5,-37 489.5,-56.25"/>
<text text-anchor="middle" x="468.38" y="-42.75" font-family="Helvetica,sans-Serif" font-size="10.00">power</text>
</a>
</g>
</g>
<!-- Node4&#45;&gt;Node6 -->
<g id="edge5_Node000004_Node000006" class="edge">
<title>Node4&#45;&gt;Node6</title>
<g id="a_edge5_Node000004_Node000006"><a xlink:title=" ">
<path fill="none" stroke="#63b8ff" d="M373.49,-46.62C392.25,-46.62 416.41,-46.62 435.52,-46.62"/>
<polygon fill="#63b8ff" stroke="#63b8ff" points="435.45,-50.13 445.45,-46.63 435.45,-43.13 435.45,-50.13"/>
</a>
</g>
</g>
<!-- Node8 -->
<g id="Node000008" class="node">
<title>Node8</title>
<g id="a_Node000008"><a xlink:href="miller__rabin_8cpp.html#a091662a787d5ad4866713021f580fddb" target="_top" xlink:title=" ">
<polygon fill="white" stroke="#666666" points="508.25,-19.25 428.5,-19.25 428.5,0 508.25,0 508.25,-19.25"/>
<text text-anchor="middle" x="468.38" y="-5.75" font-family="Helvetica,sans-Serif" font-size="10.00">reverse_binary</text>
</a>
</g>
</g>
<!-- Node4&#45;&gt;Node8 -->
<g id="edge7_Node000004_Node000008" class="edge">
<title>Node4&#45;&gt;Node8</title>
<g id="a_edge7_Node000004_Node000008"><a xlink:title=" ">
<path fill="none" stroke="#63b8ff" d="M373.49,-37.67C388.26,-33.25 406.38,-27.84 422.75,-22.95"/>
<polygon fill="#63b8ff" stroke="#63b8ff" points="423.7,-26.32 432.28,-20.11 421.7,-19.61 423.7,-26.32"/>
</a>
</g>
</g>
<!-- Node7 -->
<g id="Node000007" class="node">
<title>Node7</title>
<g id="a_Node000007"><a xlink:href="power__for__huge__numbers_8cpp.html#aa141a7904f0c4668bac112d652a3acf9" target="_top" xlink:title=" ">
<polygon fill="white" stroke="#666666" points="613.5,-56.25 563.75,-56.25 563.75,-37 613.5,-37 613.5,-56.25"/>
<text text-anchor="middle" x="588.62" y="-42.75" font-family="Helvetica,sans-Serif" font-size="10.00">multiply</text>
</a>
</g>
</g>
<!-- Node6&#45;&gt;Node7 -->
<g id="edge6_Node000006_Node000007" class="edge">
<title>Node6&#45;&gt;Node7</title>
<g id="a_edge6_Node000006_Node000007"><a xlink:title=" ">
<path fill="none" stroke="#63b8ff" d="M489.97,-46.62C507.12,-46.62 531.93,-46.62 552.24,-46.62"/>
<polygon fill="#63b8ff" stroke="#63b8ff" points="552.08,-50.13 562.08,-46.63 552.08,-43.13 552.08,-50.13"/>
</a>
</g>
</g>
</g>
</svg>
