<?xml version="1.0" encoding="UTF-8" standalone="no"?>
<!DOCTYPE svg PUBLIC "-//W3C//DTD SVG 1.1//EN"
 "http://www.w3.org/Graphics/SVG/1.1/DTD/svg11.dtd">
<!-- Generated by graphviz version 12.1.1 (20240910.0053)
 -->
<!-- Title: miller_rabin_primality_test Pages: 1 -->
<svg width="475pt" height="101pt"
 viewBox="0.00 0.00 474.75 101.25" xmlns="http://www.w3.org/2000/svg" xmlns:xlink="http://www.w3.org/1999/xlink">

<svg id="main" version="1.1" xmlns="http://www.w3.org/2000/svg" xmlns:xlink="http://www.w3.org/1999/xlink" xml:space="preserve">

<style type="text/css"><![CDATA[
.node, .edge {opacity: 0.7;}
.node.selected, .edge.selected {opacity: 1;}
.edge:hover path { stroke: red; }
.edge:hover polygon { stroke: red; fill: red; }
]]></style>
<script type="application/ecmascript" xlink:href="svg.min.js"/>
<svg id="graph" class="graph">
<g id="graph0" class="graph" transform="scale(1 1) rotate(0) translate(4 97.25)">
<title>miller_rabin_primality_test</title>
<!-- Node1 -->
<g id="Node000001" class="node">
<title>Node1</title>
<g id="a_Node000001"><a xlink:title=" ">
<polygon fill="#999999" stroke="#666666" points="129.25,-56.25 0,-56.25 0,-37 129.25,-37 129.25,-56.25"/>
<text text-anchor="middle" x="64.62" y="-42.75" font-family="Helvetica,sans-Serif" font-size="10.00">miller_rabin_primality_test</text>
</a>
</g>
</g>
<!-- Node2 -->
<g id="Node000002" class="node">
<title>Node2</title>
<g id="a_Node000002"><a xlink:href="miller__rabin_8cpp.html#a6f9c31c1047aa3191676d64571d4c506" target="_top" xlink:title=" ">
<polygon fill="white" stroke="#666666" points="226.25,-56.25 165.25,-56.25 165.25,-37 226.25,-37 226.25,-56.25"/>
<text text-anchor="middle" x="195.75" y="-42.75" font-family="Helvetica,sans-Serif" font-size="10.00">miller_test</text>
</a>
</g>
</g>
<!-- Node1&#45;&gt;Node2 -->
<g id="edge1_Node000001_Node000002" class="edge">
<title>Node1&#45;&gt;Node2</title>
<g id="a_edge1_Node000001_Node000002"><a xlink:title=" ">
<path fill="none" stroke="#63b8ff" d="M129.43,-46.62C137.7,-46.62 145.99,-46.62 153.75,-46.62"/>
<polygon fill="#63b8ff" stroke="#63b8ff" points="153.54,-50.13 163.54,-46.63 153.54,-43.13 153.54,-50.13"/>
</a>
</g>
</g>
<!-- Node3 -->
<g id="Node000003" class="node">
<title>Node3</title>
<g id="a_Node000003"><a xlink:href="miller__rabin_8cpp.html#ad6c2c67ea416d0e80003a88623f98b29" target="_top" xlink:title=" ">
<polygon fill="white" stroke="#666666" points="381,-93.25 262.25,-93.25 262.25,-74 381,-74 381,-93.25"/>
<text text-anchor="middle" x="321.62" y="-79.75" font-family="Helvetica,sans-Serif" font-size="10.00">modular_exponentiation</text>
</a>
</g>
</g>
<!-- Node2&#45;&gt;Node3 -->
<g id="edge2_Node000002_Node000003" class="edge">
<title>Node2&#45;&gt;Node3</title>
<g id="a_edge2_Node000002_Node000003"><a xlink:title=" ">
<path fill="none" stroke="#63b8ff" d="M226.74,-55.58C241.51,-60 259.63,-65.41 276,-70.3"/>
<polygon fill="#63b8ff" stroke="#63b8ff" points="274.95,-73.64 285.53,-73.14 276.95,-66.93 274.95,-73.64"/>
</a>
</g>
</g>
<!-- Node4 -->
<g id="Node000004" class="node">
<title>Node4</title>
<g id="a_Node000004"><a xlink:href="power__for__huge__numbers_8cpp.html#ae249a2af508aa94266023ce8aa81426f" target="_top" xlink:title=" ">
<polygon fill="white" stroke="#666666" points="342.75,-56.25 300.5,-56.25 300.5,-37 342.75,-37 342.75,-56.25"/>
<text text-anchor="middle" x="321.62" y="-42.75" font-family="Helvetica,sans-Serif" font-size="10.00">power</text>
</a>
</g>
</g>
<!-- Node2&#45;&gt;Node4 -->
<g id="edge3_Node000002_Node000004" class="edge">
<title>Node2&#45;&gt;Node4</title>
<g id="a_edge3_Node000002_Node000004"><a xlink:title=" ">
<path fill="none" stroke="#63b8ff" d="M226.74,-46.62C245.5,-46.62 269.66,-46.62 288.77,-46.62"/>
<polygon fill="#63b8ff" stroke="#63b8ff" points="288.7,-50.13 298.7,-46.63 288.7,-43.13 288.7,-50.13"/>
</a>
</g>
</g>
<!-- Node6 -->
<g id="Node000006" class="node">
<title>Node6</title>
<g id="a_Node000006"><a xlink:href="miller__rabin_8cpp.html#a091662a787d5ad4866713021f580fddb" target="_top" xlink:title=" ">
<polygon fill="white" stroke="#666666" points="361.5,-19.25 281.75,-19.25 281.75,0 361.5,0 361.5,-19.25"/>
<text text-anchor="middle" x="321.62" y="-5.75" font-family="Helvetica,sans-Serif" font-size="10.00">reverse_binary</text>
</a>
</g>
</g>
<!-- Node2&#45;&gt;Node6 -->
<g id="edge5_Node000002_Node000006" class="edge">
<title>Node2&#45;&gt;Node6</title>
<g id="a_edge5_Node000002_Node000006"><a xlink:title=" ">
<path fill="none" stroke="#63b8ff" d="M226.74,-37.67C241.51,-33.25 259.63,-27.84 276,-22.95"/>
<polygon fill="#63b8ff" stroke="#63b8ff" points="276.95,-26.32 285.53,-20.11 274.95,-19.61 276.95,-26.32"/>
</a>
</g>
</g>
<!-- Node5 -->
<g id="Node000005" class="node">
<title>Node5</title>
<g id="a_Node000005"><a xlink:href="power__for__huge__numbers_8cpp.html#aa141a7904f0c4668bac112d652a3acf9" target="_top" xlink:title=" ">
<polygon fill="white" stroke="#666666" points="466.75,-56.25 417,-56.25 417,-37 466.75,-37 466.75,-56.25"/>
<text text-anchor="middle" x="441.88" y="-42.75" font-family="Helvetica,sans-Serif" font-size="10.00">multiply</text>
</a>
</g>
</g>
<!-- Node4&#45;&gt;Node5 -->
<g id="edge4_Node000004_Node000005" class="edge">
<title>Node4&#45;&gt;Node5</title>
<g id="a_edge4_Node000004_Node000005"><a xlink:title=" ">
<path fill="none" stroke="#63b8ff" d="M343.22,-46.62C360.37,-46.62 385.18,-46.62 405.49,-46.62"/>
<polygon fill="#63b8ff" stroke="#63b8ff" points="405.33,-50.13 415.33,-46.63 405.33,-43.13 405.33,-50.13"/>
</a>
</g>
</g>
</g>
</svg>
</svg>

<style type='text/css'>
<![CDATA[
[data-mouse-over-selected='false'] { opacity: 0.7; }
[data-mouse-over-selected='true']  { opacity: 1.0; }
]]>
</style>
<script type="application/ecmascript"><![CDATA[
document.addEventListener('DOMContentLoaded', (event) => {
  highlightEdges();
  highlightAdjacentNodes();
});
]]></script>
</svg>
