<?xml version="1.0" encoding="UTF-8" standalone="no"?>
<!DOCTYPE svg PUBLIC "-//W3C//DTD SVG 1.1//EN"
 "http://www.w3.org/Graphics/SVG/1.1/DTD/svg11.dtd">
<!-- Generated by graphviz version 12.1.1 (20240910.0053)
 -->
<!-- Title: main Pages: 1 -->
<svg width="274pt" height="73pt"
 viewBox="0.00 0.00 273.50 73.25" xmlns="http://www.w3.org/2000/svg" xmlns:xlink="http://www.w3.org/1999/xlink">

<svg id="main" version="1.1" xmlns="http://www.w3.org/2000/svg" xmlns:xlink="http://www.w3.org/1999/xlink" xml:space="preserve">

<style type="text/css"><![CDATA[
.node, .edge {opacity: 0.7;}
.node.selected, .edge.selected {opacity: 1;}
.edge:hover path { stroke: red; }
.edge:hover polygon { stroke: red; fill: red; }
]]></style>
<script type="application/ecmascript" xlink:href="svg.min.js"/>
<svg id="graph" class="graph">
<g id="graph0" class="graph" transform="scale(1 1) rotate(0) translate(4 69.25)">
<title>main</title>
<!-- Node1 -->
<g id="Node000001" class="node">
<title>Node1</title>
<g id="a_Node000001"><a xlink:title="Main function.">
<polygon fill="#999999" stroke="#666666" points="37,-47.25 0,-47.25 0,-28 37,-28 37,-47.25"/>
<text text-anchor="middle" x="18.5" y="-33.75" font-family="Helvetica,sans-Serif" font-size="10.00">main</text>
</a>
</g>
</g>
<!-- Node2 -->
<g id="Node000002" class="node">
<title>Node2</title>
<g id="a_Node000002"><a xlink:href="avltree_8cpp.html#ae4a66d8b0c2b0d626aea45977e358c83" target="_top" xlink:title=" ">
<polygon fill="white" stroke="#666666" points="265.5,-47.25 223.25,-47.25 223.25,-28 265.5,-28 265.5,-47.25"/>
<text text-anchor="middle" x="244.38" y="-33.75" font-family="Helvetica,sans-Serif" font-size="10.00">height</text>
</a>
</g>
</g>
<!-- Node1&#45;&gt;Node2 -->
<g id="edge1_Node000001_Node000002" class="edge">
<title>Node1&#45;&gt;Node2</title>
<g id="a_edge1_Node000001_Node000002"><a xlink:title=" ">
<path fill="none" stroke="#63b8ff" d="M37.24,-41.37C47.61,-43.37 60.99,-45.62 73,-46.62 123.6,-50.85 136.63,-50.66 187.25,-46.62 195.25,-45.99 203.83,-44.85 211.81,-43.59"/>
<polygon fill="#63b8ff" stroke="#63b8ff" points="212.18,-47.08 221.45,-41.96 211.01,-40.17 212.18,-47.08"/>
</a>
</g>
</g>
<!-- Node3 -->
<g id="Node000003" class="node">
<title>Node3</title>
<g id="a_Node000003"><a xlink:href="namespacebacktracking.html#a78540bcb5ef3473b2348cbc34748ec50" target="_top" xlink:title="Check which is the maximum/minimum number in the array.">
<polygon fill="white" stroke="#666666" points="187.25,-19.25 73,-19.25 73,0 187.25,0 187.25,-19.25"/>
<text text-anchor="middle" x="130.12" y="-5.75" font-family="Helvetica,sans-Serif" font-size="10.00">backtracking::minimax</text>
</a>
</g>
</g>
<!-- Node1&#45;&gt;Node3 -->
<g id="edge3_Node000001_Node000003" class="edge">
<title>Node1&#45;&gt;Node3</title>
<g id="a_edge3_Node000001_Node000003"><a xlink:title=" ">
<path fill="none" stroke="#63b8ff" d="M37.11,-33.13C48.51,-30.22 63.97,-26.27 78.96,-22.44"/>
<polygon fill="#63b8ff" stroke="#63b8ff" points="79.44,-25.93 88.26,-20.06 77.71,-19.15 79.44,-25.93"/>
</a>
</g>
</g>
<!-- Node2&#45;&gt;Node2 -->
<g id="edge2_Node000002_Node000002" class="edge">
<title>Node2&#45;&gt;Node2</title>
<g id="a_edge2_Node000002_Node000002"><a xlink:title=" ">
<path fill="none" stroke="#63b8ff" d="M226.49,-47.54C218.33,-56.15 224.29,-65.25 244.38,-65.25 255.36,-65.25 262.12,-62.53 264.65,-58.65"/>
<polygon fill="#63b8ff" stroke="#63b8ff" points="268.11,-58.06 262.58,-49.02 261.26,-59.53 268.11,-58.06"/>
</a>
</g>
</g>
<!-- Node3&#45;&gt;Node2 -->
<g id="edge4_Node000003_Node000002" class="edge">
<title>Node3&#45;&gt;Node2</title>
<g id="a_edge4_Node000003_Node000002"><a xlink:title=" ">
<path fill="none" stroke="#63b8ff" d="M171.65,-19.73C184.92,-23.04 199.45,-26.67 211.95,-29.79"/>
<polygon fill="#63b8ff" stroke="#63b8ff" points="210.74,-33.09 221.29,-32.11 212.43,-26.3 210.74,-33.09"/>
</a>
</g>
</g>
<!-- Node3&#45;&gt;Node3 -->
<g id="edge5_Node000003_Node000003" class="edge">
<title>Node3&#45;&gt;Node3</title>
<g id="a_edge5_Node000003_Node000003"><a xlink:title=" ">
<path fill="none" stroke="#63b8ff" d="M112.65,-19.54C104.68,-28.15 110.5,-37.25 130.12,-37.25 140.86,-37.25 147.46,-34.53 149.94,-30.65"/>
<polygon fill="#63b8ff" stroke="#63b8ff" points="153.4,-30.08 147.91,-21.02 146.55,-31.53 153.4,-30.08"/>
</a>
</g>
</g>
</g>
</svg>
</svg>

<style type='text/css'>
<![CDATA[
[data-mouse-over-selected='false'] { opacity: 0.7; }
[data-mouse-over-selected='true']  { opacity: 1.0; }
]]>
</style>
<script type="application/ecmascript"><![CDATA[
document.addEventListener('DOMContentLoaded', (event) => {
  highlightEdges();
  highlightAdjacentNodes();
});
]]></script>
</svg>
