<?xml version="1.0" encoding="UTF-8" standalone="no"?>
<!DOCTYPE svg PUBLIC "-//W3C//DTD SVG 1.1//EN"
 "http://www.w3.org/Graphics/SVG/1.1/DTD/svg11.dtd">
<!-- Generated by graphviz version 12.1.1 (20240910.0053)
 -->
<!-- Title: ciphers::morse::decrypt Pages: 1 -->
<svg width="276pt" height="57pt"
 viewBox="0.00 0.00 276.25 56.50" xmlns="http://www.w3.org/2000/svg" xmlns:xlink="http://www.w3.org/1999/xlink">
<g id="graph0" class="graph" transform="scale(1 1) rotate(0) translate(4 52.5)">
<title>ciphers::morse::decrypt</title>
<!-- Node1 -->
<g id="Node000001" class="node">
<title>Node1</title>
<g id="a_Node000001"><a xlink:title=" ">
<polygon fill="#999999" stroke="#666666" points="118.75,-24.88 0,-24.88 0,-5.63 118.75,-5.63 118.75,-24.88"/>
<text text-anchor="middle" x="59.38" y="-11.38" font-family="Helvetica,sans-Serif" font-size="10.00">ciphers::morse::decrypt</text>
</a>
</g>
</g>
<!-- Node2 -->
<g id="Node000002" class="node">
<title>Node2</title>
<g id="a_Node000002"><a xlink:href="morse__code_8cpp.html#ac9f294b0dec08a4a11d477a32f9bd829" target="_top" xlink:title=" ">
<polygon fill="white" stroke="#666666" points="268.25,-30.5 154.75,-30.5 154.75,0 268.25,0 268.25,-30.5"/>
<text text-anchor="start" x="162.75" y="-17" font-family="Helvetica,sans-Serif" font-size="10.00">ciphers::morse::morse</text>
<text text-anchor="middle" x="211.5" y="-5.75" font-family="Helvetica,sans-Serif" font-size="10.00">_to_char</text>
</a>
</g>
</g>
<!-- Node1&#45;&gt;Node2 -->
<g id="edge1_Node000001_Node000002" class="edge">
<title>Node1&#45;&gt;Node2</title>
<g id="a_edge1_Node000001_Node000002"><a xlink:title=" ">
<path fill="none" stroke="#63b8ff" d="M118.85,-15.25C126.79,-15.25 135,-15.25 143.09,-15.25"/>
<polygon fill="#63b8ff" stroke="#63b8ff" points="142.89,-18.75 152.89,-15.25 142.89,-11.75 142.89,-18.75"/>
</a>
</g>
</g>
<!-- Node2&#45;&gt;Node2 -->
<g id="edge2_Node000002_Node000002" class="edge">
<title>Node2&#45;&gt;Node2</title>
<g id="a_edge2_Node000002_Node000002"><a xlink:title=" ">
<path fill="none" stroke="#63b8ff" d="M184.54,-30.99C179.04,-40.06 188.03,-48.5 211.5,-48.5 224.34,-48.5 232.84,-45.97 237.01,-42.2"/>
<polygon fill="#63b8ff" stroke="#63b8ff" points="240.46,-42.85 238.26,-32.49 233.51,-41.96 240.46,-42.85"/>
</a>
</g>
</g>
</g>
</svg>
