<?xml version="1.0" encoding="UTF-8" standalone="no"?>
<!DOCTYPE svg PUBLIC "-//W3C//DTD SVG 1.1//EN"
 "http://www.w3.org/Graphics/SVG/1.1/DTD/svg11.dtd">
<!-- Generated by graphviz version 12.1.1 (20240910.0053)
 -->
<!-- Title: double_hashing::doubleHash Pages: 1 -->
<svg width="336pt" height="150pt"
 viewBox="0.00 0.00 336.25 149.88" xmlns="http://www.w3.org/2000/svg" xmlns:xlink="http://www.w3.org/1999/xlink">
<g id="graph0" class="graph" transform="scale(1 1) rotate(0) translate(4 145.88)">
<title>double_hashing::doubleHash</title>
<!-- Node1 -->
<g id="Node000001" class="node">
<title>Node1</title>
<g id="a_Node000001"><a xlink:title="Performs double hashing to resolve collisions.">
<polygon fill="#999999" stroke="#666666" points="141.25,-85.88 0,-85.88 0,-66.62 141.25,-66.62 141.25,-85.88"/>
<text text-anchor="middle" x="70.62" y="-72.38" font-family="Helvetica,sans-Serif" font-size="10.00">double_hashing::doubleHash</text>
</a>
</g>
</g>
<!-- Node2 -->
<g id="Node000002" class="node">
<title>Node2</title>
<g id="a_Node000002"><a xlink:href="namespacedouble__hashing.html#a0d90726ed1de7b3d2ae261baed048003" target="_top" xlink:title="Hash a key. Uses the STL library&#39;s std::hash() function.">
<polygon fill="white" stroke="#666666" points="316.25,-141.88 189.25,-141.88 189.25,-122.62 316.25,-122.62 316.25,-141.88"/>
<text text-anchor="middle" x="252.75" y="-128.38" font-family="Helvetica,sans-Serif" font-size="10.00">double_hashing::hashFxn</text>
</a>
</g>
</g>
<!-- Node1&#45;&gt;Node2 -->
<g id="edge1_Node000001_Node000002" class="edge">
<title>Node1&#45;&gt;Node2</title>
<g id="a_edge1_Node000001_Node000002"><a xlink:title=" ">
<path fill="none" stroke="#63b8ff" d="M96.98,-86.25C118.22,-94.41 149.43,-105.91 177.25,-114.25 183.15,-116.02 189.34,-117.73 195.54,-119.36"/>
<polygon fill="#63b8ff" stroke="#63b8ff" points="194.61,-122.73 205.16,-121.81 196.33,-115.95 194.61,-122.73"/>
</a>
</g>
</g>
<!-- Node3 -->
<g id="Node000003" class="node">
<title>Node3</title>
<g id="a_Node000003"><a xlink:href="namespacedouble__hashing.html#a33968a1178289ab61445dd4000df7082" target="_top" xlink:title="Used for second hash function.">
<polygon fill="white" stroke="#666666" points="328.25,-104.88 177.25,-104.88 177.25,-85.62 328.25,-85.62 328.25,-104.88"/>
<text text-anchor="middle" x="252.75" y="-91.38" font-family="Helvetica,sans-Serif" font-size="10.00">double_hashing::otherHashFxn</text>
</a>
</g>
</g>
<!-- Node1&#45;&gt;Node3 -->
<g id="edge2_Node000001_Node000003" class="edge">
<title>Node1&#45;&gt;Node3</title>
<g id="a_edge2_Node000001_Node000003"><a xlink:title=" ">
<path fill="none" stroke="#63b8ff" d="M141.52,-83.62C149.39,-84.45 157.47,-85.3 165.51,-86.15"/>
<polygon fill="#63b8ff" stroke="#63b8ff" points="165,-89.62 175.32,-87.19 165.74,-82.66 165,-89.62"/>
</a>
</g>
</g>
<!-- Node4 -->
<g id="Node000004" class="node">
<title>Node4</title>
<g id="a_Node000004"><a xlink:href="namespacedouble__hashing.html#ac2adfce49ac57f6dbd1778d2c1ce0d2b" target="_top" xlink:title=" ">
<polygon fill="white" stroke="#666666" points="318.5,-67.88 187,-67.88 187,-48.62 318.5,-48.62 318.5,-67.88"/>
<text text-anchor="middle" x="252.75" y="-54.38" font-family="Helvetica,sans-Serif" font-size="10.00">double_hashing::putProber</text>
</a>
</g>
</g>
<!-- Node1&#45;&gt;Node4 -->
<g id="edge3_Node000001_Node000004" class="edge">
<title>Node1&#45;&gt;Node4</title>
<g id="a_edge3_Node000001_Node000004"><a xlink:title=" ">
<path fill="none" stroke="#63b8ff" d="M141.52,-69.26C152.65,-68.15 164.21,-67 175.47,-65.87"/>
<polygon fill="#63b8ff" stroke="#63b8ff" points="175.5,-69.39 185.1,-64.91 174.8,-62.42 175.5,-69.39"/>
</a>
</g>
</g>
<!-- Node5 -->
<g id="Node000005" class="node">
<title>Node5</title>
<g id="a_Node000005"><a xlink:href="namespacedouble__hashing.html#a29f543e2626bad58907661e1e45028a6" target="_top" xlink:title=" ">
<polygon fill="white" stroke="#666666" points="318.5,-30.5 187,-30.5 187,0 318.5,0 318.5,-30.5"/>
<text text-anchor="start" x="195" y="-17" font-family="Helvetica,sans-Serif" font-size="10.00">double_hashing::searching</text>
<text text-anchor="middle" x="252.75" y="-5.75" font-family="Helvetica,sans-Serif" font-size="10.00">Prober</text>
</a>
</g>
</g>
<!-- Node1&#45;&gt;Node5 -->
<g id="edge4_Node000001_Node000005" class="edge">
<title>Node1&#45;&gt;Node5</title>
<g id="a_edge4_Node000001_Node000005"><a xlink:title=" ">
<path fill="none" stroke="#63b8ff" d="M99.8,-66.16C121.04,-58.61 150.91,-48.1 177.25,-39.25 181.94,-37.67 186.81,-36.06 191.7,-34.45"/>
<polygon fill="#63b8ff" stroke="#63b8ff" points="192.54,-37.86 200.96,-31.42 190.37,-31.2 192.54,-37.86"/>
</a>
</g>
</g>
</g>
</svg>
