<?xml version="1.0" encoding="UTF-8" standalone="no"?>
<!DOCTYPE svg PUBLIC "-//W3C//DTD SVG 1.1//EN"
 "http://www.w3.org/Graphics/SVG/1.1/DTD/svg11.dtd">
<!-- Generated by graphviz version 12.1.1 (20240910.0053)
 -->
<!-- Title: math::cylinder_surface_area Pages: 1 -->
<svg width="227pt" height="45pt"
 viewBox="0.00 0.00 226.60 45.25" xmlns="http://www.w3.org/2000/svg" xmlns:xlink="http://www.w3.org/1999/xlink">
<g id="graph0" class="graph" transform="scale(1 1) rotate(0) translate(4 41.25)">
<title>math::cylinder_surface_area</title>
<!-- Node1 -->
<g id="Node000001" class="node">
<title>Node1</title>
<g id="a_Node000001"><a xlink:title="surface area of a cylinder (2 * pi * r * h + 2 * pi * r^2)">
<polygon fill="#999999" stroke="#666666" points="139,-19.25 0,-19.25 0,0 139,0 139,-19.25"/>
<text text-anchor="middle" x="69.5" y="-5.75" font-family="Helvetica,sans-Serif" font-size="10.00">math::cylinder_surface_area</text>
</a>
</g>
</g>
<!-- Node2 -->
<g id="Node000002" class="node">
<title>Node2</title>
<g id="a_Node000002"><a xlink:href="avltree_8cpp.html#ae4a66d8b0c2b0d626aea45977e358c83" target="_top" xlink:title=" ">
<polygon fill="white" stroke="#666666" points="217.25,-19.25 175,-19.25 175,0 217.25,0 217.25,-19.25"/>
<text text-anchor="middle" x="196.12" y="-5.75" font-family="Helvetica,sans-Serif" font-size="10.00">height</text>
</a>
</g>
</g>
<!-- Node1&#45;&gt;Node2 -->
<g id="edge1_Node000001_Node000002" class="edge">
<title>Node1&#45;&gt;Node2</title>
<g id="a_edge1_Node000001_Node000002"><a xlink:title=" ">
<path fill="none" stroke="#63b8ff" d="M139.37,-9.62C147.7,-9.62 155.86,-9.62 163.27,-9.62"/>
<polygon fill="#63b8ff" stroke="#63b8ff" points="163.03,-13.13 173.03,-9.63 163.03,-6.13 163.03,-13.13"/>
</a>
</g>
</g>
<!-- Node2&#45;&gt;Node2 -->
<g id="edge2_Node000002_Node000002" class="edge">
<title>Node2&#45;&gt;Node2</title>
<g id="a_edge2_Node000002_Node000002"><a xlink:title=" ">
<path fill="none" stroke="#63b8ff" d="M176.3,-19.54C167.26,-28.15 173.87,-37.25 196.12,-37.25 208.3,-37.25 215.79,-34.53 218.6,-30.65"/>
<polygon fill="#63b8ff" stroke="#63b8ff" points="222.03,-29.92 216.3,-21.01 215.22,-31.55 222.03,-29.92"/>
</a>
</g>
</g>
</g>
</svg>
