<?xml version="1.0" encoding="UTF-8" standalone="no"?>
<!DOCTYPE svg PUBLIC "-//W3C//DTD SVG 1.1//EN"
 "http://www.w3.org/Graphics/SVG/1.1/DTD/svg11.dtd">
<!-- Generated by graphviz version 12.1.1 (20240910.0053)
 -->
<!-- Title: sorting::iterativeQuickSort Pages: 1 -->
<svg width="259pt" height="138pt"
 viewBox="0.00 0.00 259.00 138.25" xmlns="http://www.w3.org/2000/svg" xmlns:xlink="http://www.w3.org/1999/xlink">
<g id="graph0" class="graph" transform="scale(1 1) rotate(0) translate(4 134.25)">
<title>sorting::iterativeQuickSort</title>
<!-- Node1 -->
<g id="Node000001" class="node">
<title>Node1</title>
<g id="a_Node000001"><a xlink:title="The main sorting function.">
<polygon fill="#999999" stroke="#666666" points="129.25,-74.25 0,-74.25 0,-55 129.25,-55 129.25,-74.25"/>
<text text-anchor="middle" x="64.62" y="-60.75" font-family="Helvetica,sans-Serif" font-size="10.00">sorting::iterativeQuickSort</text>
</a>
</g>
</g>
<!-- Node2 -->
<g id="Node000002" class="node">
<title>Node2</title>
<g id="a_Node000002"><a xlink:href="namespacesorting.html#aac8f44b28b4aa96444383030b28f8b34" target="_top" xlink:title="The partition function sorts the array from start to end and uses the last element as the pivot.">
<polygon fill="white" stroke="#666666" points="251,-130.25 165.25,-130.25 165.25,-111 251,-111 251,-130.25"/>
<text text-anchor="middle" x="208.12" y="-116.75" font-family="Helvetica,sans-Serif" font-size="10.00">sorting::partition</text>
</a>
</g>
</g>
<!-- Node1&#45;&gt;Node2 -->
<g id="edge1_Node000001_Node000002" class="edge">
<title>Node1&#45;&gt;Node2</title>
<g id="a_edge1_Node000001_Node000002"><a xlink:title=" ">
<path fill="none" stroke="#63b8ff" d="M90.92,-74.64C113.22,-83.46 145.96,-96.42 171.01,-106.33"/>
<polygon fill="#63b8ff" stroke="#63b8ff" points="169.58,-109.53 180.16,-109.95 172.15,-103.02 169.58,-109.53"/>
</a>
</g>
</g>
<!-- Node3 -->
<g id="Node000003" class="node">
<title>Node3</title>
<g id="a_Node000003"><a xlink:href="classstack.html#a3647fb4418890f19e0dc414b8092b8b0" target="_top" xlink:title=" ">
<polygon fill="white" stroke="#666666" points="239,-93.25 177.25,-93.25 177.25,-74 239,-74 239,-93.25"/>
<text text-anchor="middle" x="208.12" y="-79.75" font-family="Helvetica,sans-Serif" font-size="10.00">stack::pop</text>
</a>
</g>
</g>
<!-- Node1&#45;&gt;Node3 -->
<g id="edge2_Node000001_Node000003" class="edge">
<title>Node1&#45;&gt;Node3</title>
<g id="a_edge2_Node000001_Node000003"><a xlink:title=" ">
<path fill="none" stroke="#63b8ff" d="M129.34,-73.18C141.64,-74.83 154.23,-76.52 165.6,-78.05"/>
<polygon fill="#63b8ff" stroke="#63b8ff" points="165.07,-81.51 175.44,-79.37 166,-74.57 165.07,-81.51"/>
</a>
</g>
</g>
<!-- Node4 -->
<g id="Node000004" class="node">
<title>Node4</title>
<g id="a_Node000004"><a xlink:href="classstack.html#a90df277532c23519aa7ac3c08ed90a1d" target="_top" xlink:title=" ">
<polygon fill="white" stroke="#666666" points="241.62,-56.25 174.62,-56.25 174.62,-37 241.62,-37 241.62,-56.25"/>
<text text-anchor="middle" x="208.12" y="-42.75" font-family="Helvetica,sans-Serif" font-size="10.00">stack::push</text>
</a>
</g>
</g>
<!-- Node1&#45;&gt;Node4 -->
<g id="edge3_Node000001_Node000004" class="edge">
<title>Node1&#45;&gt;Node4</title>
<g id="a_edge3_Node000001_Node000004"><a xlink:title=" ">
<path fill="none" stroke="#63b8ff" d="M129.34,-56.52C140.76,-55.07 152.43,-53.58 163.13,-52.22"/>
<polygon fill="#63b8ff" stroke="#63b8ff" points="163.34,-55.72 172.82,-50.99 162.46,-48.78 163.34,-55.72"/>
</a>
</g>
</g>
<!-- Node5 -->
<g id="Node000005" class="node">
<title>Node5</title>
<g id="a_Node000005"><a xlink:href="classstack.html#ae09630c4384903d187801921b2ddc709" target="_top" xlink:title=" ">
<polygon fill="white" stroke="#666666" points="237.88,-19.25 178.38,-19.25 178.38,0 237.88,0 237.88,-19.25"/>
<text text-anchor="middle" x="208.12" y="-5.75" font-family="Helvetica,sans-Serif" font-size="10.00">stack::top</text>
</a>
</g>
</g>
<!-- Node1&#45;&gt;Node5 -->
<g id="edge4_Node000001_Node000005" class="edge">
<title>Node1&#45;&gt;Node5</title>
<g id="a_edge4_Node000001_Node000005"><a xlink:title=" ">
<path fill="none" stroke="#63b8ff" d="M91.58,-54.54C113.82,-45.89 146.09,-33.35 170.88,-23.71"/>
<polygon fill="#63b8ff" stroke="#63b8ff" points="171.87,-27.08 179.93,-20.2 169.34,-20.56 171.87,-27.08"/>
</a>
</g>
</g>
</g>
</svg>
