<?xml version="1.0" encoding="UTF-8" standalone="no"?>
<!DOCTYPE svg PUBLIC "-//W3C//DTD SVG 1.1//EN"
 "http://www.w3.org/Graphics/SVG/1.1/DTD/svg11.dtd">
<!-- Generated by graphviz version 12.1.1 (20240910.0053)
 -->
<!-- Title: linear_probing::addInfo Pages: 1 -->
<svg width="598pt" height="175pt"
 viewBox="0.00 0.00 597.75 175.25" xmlns="http://www.w3.org/2000/svg" xmlns:xlink="http://www.w3.org/1999/xlink">
<g id="graph0" class="graph" transform="scale(1 1) rotate(0) translate(4 171.25)">
<title>linear_probing::addInfo</title>
<!-- Node1 -->
<g id="Node000001" class="node">
<title>Node1</title>
<g id="a_Node000001"><a xlink:title=" ">
<polygon fill="#999999" stroke="#666666" points="114.25,-57.25 0,-57.25 0,-38 114.25,-38 114.25,-57.25"/>
<text text-anchor="middle" x="57.12" y="-43.75" font-family="Helvetica,sans-Serif" font-size="10.00">linear_probing::addInfo</text>
</a>
</g>
</g>
<!-- Node2 -->
<g id="Node000002" class="node">
<title>Node2</title>
<g id="a_Node000002"><a xlink:href="namespacelinear__probing.html#a16d34fd3511626a83ab00665d7bc34d1" target="_top" xlink:title=" ">
<polygon fill="white" stroke="#666666" points="255.5,-95.25 157.75,-95.25 157.75,-76 255.5,-76 255.5,-95.25"/>
<text text-anchor="middle" x="206.62" y="-81.75" font-family="Helvetica,sans-Serif" font-size="10.00">linear_probing::add</text>
</a>
</g>
</g>
<!-- Node1&#45;&gt;Node2 -->
<g id="edge1_Node000001_Node000002" class="edge">
<title>Node1&#45;&gt;Node2</title>
<g id="a_edge1_Node000001_Node000002"><a xlink:title=" ">
<path fill="none" stroke="#63b8ff" d="M97.27,-57.71C115.17,-62.32 136.6,-67.84 155.66,-72.75"/>
<polygon fill="#63b8ff" stroke="#63b8ff" points="154.54,-76.08 165.09,-75.18 156.28,-69.3 154.54,-76.08"/>
</a>
</g>
</g>
<!-- Node4 -->
<g id="Node000004" class="node">
<title>Node4</title>
<g id="a_Node000004"><a xlink:href="namespacelinear__probing.html#a4bde7a47f98dd1ad24c84038e2608527" target="_top" xlink:title="Hash a key. Uses the STL library&#39;s std::hash() function.">
<polygon fill="white" stroke="#666666" points="587.5,-73.25 468,-73.25 468,-54 587.5,-54 587.5,-73.25"/>
<text text-anchor="middle" x="527.75" y="-59.75" font-family="Helvetica,sans-Serif" font-size="10.00">linear_probing::hashFxn</text>
</a>
</g>
</g>
<!-- Node1&#45;&gt;Node4 -->
<g id="edge9_Node000001_Node000004" class="edge">
<title>Node1&#45;&gt;Node4</title>
<g id="a_edge9_Node000001_Node000004"><a xlink:title=" ">
<path fill="none" stroke="#63b8ff" d="M114.65,-49.55C200.42,-52.48 363.27,-58.04 456.52,-61.23"/>
<polygon fill="#63b8ff" stroke="#63b8ff" points="456.19,-64.72 466.3,-61.56 456.42,-57.72 456.19,-64.72"/>
</a>
</g>
</g>
<!-- Node8 -->
<g id="Node000008" class="node">
<title>Node8</title>
<g id="a_Node000008"><a xlink:href="namespacelinear__probing.html#ad87b71d810901fab69c4ad9d4d0fa635" target="_top" xlink:title=" ">
<polygon fill="white" stroke="#666666" points="263,-19.25 150.25,-19.25 150.25,0 263,0 263,-19.25"/>
<text text-anchor="middle" x="206.62" y="-5.75" font-family="Helvetica,sans-Serif" font-size="10.00">linear_probing::display</text>
</a>
</g>
</g>
<!-- Node1&#45;&gt;Node8 -->
<g id="edge8_Node000001_Node000008" class="edge">
<title>Node1&#45;&gt;Node8</title>
<g id="a_edge8_Node000001_Node000008"><a xlink:title=" ">
<path fill="none" stroke="#63b8ff" d="M97.27,-37.54C115.17,-32.93 136.6,-27.41 155.66,-22.5"/>
<polygon fill="#63b8ff" stroke="#63b8ff" points="156.28,-25.95 165.09,-20.07 154.54,-19.17 156.28,-25.95"/>
</a>
</g>
</g>
<!-- Node3 -->
<g id="Node000003" class="node">
<title>Node3</title>
<g id="a_Node000003"><a xlink:href="namespacelinear__probing.html#a6322209aaa91b7bbf16f96e1cc52b746" target="_top" xlink:title=" ">
<polygon fill="white" stroke="#666666" points="429.75,-132.25 299,-132.25 299,-113 429.75,-113 429.75,-132.25"/>
<text text-anchor="middle" x="364.38" y="-118.75" font-family="Helvetica,sans-Serif" font-size="10.00">linear_probing::linearProbe</text>
</a>
</g>
</g>
<!-- Node2&#45;&gt;Node3 -->
<g id="edge2_Node000002_Node000003" class="edge">
<title>Node2&#45;&gt;Node3</title>
<g id="a_edge2_Node000002_Node000003"><a xlink:title=" ">
<path fill="none" stroke="#63b8ff" d="M250.18,-95.74C268.56,-100.1 290.25,-105.25 309.71,-109.88"/>
<polygon fill="#63b8ff" stroke="#63b8ff" points="308.86,-113.27 319.39,-112.18 310.47,-106.46 308.86,-113.27"/>
</a>
</g>
</g>
<!-- Node7 -->
<g id="Node000007" class="node">
<title>Node7</title>
<g id="a_Node000007"><a xlink:href="namespacelinear__probing.html#a6a082dc1426a79f866cee6b370df37b0" target="_top" xlink:title=" ">
<polygon fill="white" stroke="#666666" points="420,-95.25 308.75,-95.25 308.75,-76 420,-76 420,-95.25"/>
<text text-anchor="middle" x="364.38" y="-81.75" font-family="Helvetica,sans-Serif" font-size="10.00">linear_probing::rehash</text>
</a>
</g>
</g>
<!-- Node2&#45;&gt;Node7 -->
<g id="edge6_Node000002_Node000007" class="edge">
<title>Node2&#45;&gt;Node7</title>
<g id="a_edge6_Node000002_Node000007"><a xlink:title=" ">
<path fill="none" stroke="#63b8ff" d="M255.63,-79.34C268.68,-78.91 283.06,-78.78 296.95,-78.94"/>
<polygon fill="#63b8ff" stroke="#63b8ff" points="296.88,-82.44 306.94,-79.12 297,-75.44 296.88,-82.44"/>
</a>
</g>
</g>
<!-- Node3&#45;&gt;Node4 -->
<g id="edge3_Node000003_Node000004" class="edge">
<title>Node3&#45;&gt;Node4</title>
<g id="a_edge3_Node000003_Node000004"><a xlink:title=" ">
<path fill="none" stroke="#63b8ff" d="M404.43,-112.56C412.84,-110.16 421.64,-107.46 429.75,-104.62 442.04,-100.33 470.69,-88.12 493.68,-78.13"/>
<polygon fill="#63b8ff" stroke="#63b8ff" points="494.93,-81.41 502.7,-74.2 492.14,-74.99 494.93,-81.41"/>
</a>
</g>
</g>
<!-- Node5 -->
<g id="Node000005" class="node">
<title>Node5</title>
<g id="a_Node000005"><a xlink:href="namespacelinear__probing.html#a75d779938df7ebc68581d922b60a2541" target="_top" xlink:title=" ">
<polygon fill="white" stroke="#666666" points="589.75,-167.25 465.75,-167.25 465.75,-148 589.75,-148 589.75,-167.25"/>
<text text-anchor="middle" x="527.75" y="-153.75" font-family="Helvetica,sans-Serif" font-size="10.00">linear_probing::putProber</text>
</a>
</g>
</g>
<!-- Node3&#45;&gt;Node5 -->
<g id="edge4_Node000003_Node000005" class="edge">
<title>Node3&#45;&gt;Node5</title>
<g id="a_edge4_Node000003_Node000005"><a xlink:title=" ">
<path fill="none" stroke="#63b8ff" d="M412.05,-132.75C429.86,-136.61 450.39,-141.06 469.1,-145.12"/>
<polygon fill="#63b8ff" stroke="#63b8ff" points="468.18,-148.5 478.7,-147.2 469.67,-141.66 468.18,-148.5"/>
</a>
</g>
</g>
<!-- Node6 -->
<g id="Node000006" class="node">
<title>Node6</title>
<g id="a_Node000006"><a xlink:href="namespacelinear__probing.html#a942fc8407b8001890ea26830cdcd9d77" target="_top" xlink:title=" ">
<polygon fill="white" stroke="#666666" points="589.75,-129.88 465.75,-129.88 465.75,-99.38 589.75,-99.38 589.75,-129.88"/>
<text text-anchor="start" x="473.75" y="-116.38" font-family="Helvetica,sans-Serif" font-size="10.00">linear_probing::searching</text>
<text text-anchor="middle" x="527.75" y="-105.12" font-family="Helvetica,sans-Serif" font-size="10.00">Prober</text>
</a>
</g>
</g>
<!-- Node3&#45;&gt;Node6 -->
<g id="edge5_Node000003_Node000006" class="edge">
<title>Node3&#45;&gt;Node6</title>
<g id="a_edge5_Node000003_Node000006"><a xlink:title=" ">
<path fill="none" stroke="#63b8ff" d="M430.08,-119.42C438.01,-119.02 446.15,-118.62 454.18,-118.22"/>
<polygon fill="#63b8ff" stroke="#63b8ff" points="454.11,-121.73 463.92,-117.74 453.76,-114.74 454.11,-121.73"/>
</a>
</g>
</g>
<!-- Node7&#45;&gt;Node2 -->
<g id="edge7_Node000007_Node000002" class="edge">
<title>Node7&#45;&gt;Node2</title>
<g id="a_edge7_Node000007_Node000002"><a xlink:title=" ">
<path fill="none" stroke="#63b8ff" d="M308.45,-92.11C294.99,-92.43 280.52,-92.46 266.87,-92.2"/>
<polygon fill="#63b8ff" stroke="#63b8ff" points="267.23,-88.71 257.14,-91.95 267.05,-95.71 267.23,-88.71"/>
</a>
</g>
</g>
</g>
</svg>
