<?xml version="1.0" encoding="UTF-8" standalone="no"?>
<!DOCTYPE svg PUBLIC "-//W3C//DTD SVG 1.1//EN"
 "http://www.w3.org/Graphics/SVG/1.1/DTD/svg11.dtd">
<!-- Generated by graphviz version 12.1.1 (20240910.0053)
 -->
<!-- Title: double_hashing::addInfo Pages: 1 -->
<svg width="650pt" height="188pt"
 viewBox="0.00 0.00 650.25 188.25" xmlns="http://www.w3.org/2000/svg" xmlns:xlink="http://www.w3.org/1999/xlink">
<g id="graph0" class="graph" transform="scale(1 1) rotate(0) translate(4 184.25)">
<title>double_hashing::addInfo</title>
<!-- Node1 -->
<g id="Node000001" class="node">
<title>Node1</title>
<g id="a_Node000001"><a xlink:title=" ">
<polygon fill="#999999" stroke="#666666" points="121.75,-57.25 0,-57.25 0,-38 121.75,-38 121.75,-57.25"/>
<text text-anchor="middle" x="60.88" y="-43.75" font-family="Helvetica,sans-Serif" font-size="10.00">double_hashing::addInfo</text>
</a>
</g>
</g>
<!-- Node2 -->
<g id="Node000002" class="node">
<title>Node2</title>
<g id="a_Node000002"><a xlink:href="namespacedouble__hashing.html#a79a9c914a6c68275b3640303d7faad8a" target="_top" xlink:title=" ">
<polygon fill="white" stroke="#666666" points="270.5,-95.25 165.25,-95.25 165.25,-76 270.5,-76 270.5,-95.25"/>
<text text-anchor="middle" x="217.88" y="-81.75" font-family="Helvetica,sans-Serif" font-size="10.00">double_hashing::add</text>
</a>
</g>
</g>
<!-- Node1&#45;&gt;Node2 -->
<g id="edge1_Node000001_Node000002" class="edge">
<title>Node1&#45;&gt;Node2</title>
<g id="a_edge1_Node000001_Node000002"><a xlink:title=" ">
<path fill="none" stroke="#63b8ff" d="M103.01,-57.71C121.91,-62.34 144.55,-67.89 164.65,-72.82"/>
<polygon fill="#63b8ff" stroke="#63b8ff" points="163.81,-76.22 174.35,-75.2 165.47,-69.42 163.81,-76.22"/>
</a>
</g>
</g>
<!-- Node4 -->
<g id="Node000004" class="node">
<title>Node4</title>
<g id="a_Node000004"><a xlink:href="namespacedouble__hashing.html#a0d90726ed1de7b3d2ae261baed048003" target="_top" xlink:title="Hash a key. Uses the STL library&#39;s std::hash() function.">
<polygon fill="white" stroke="#666666" points="630.25,-57.25 503.25,-57.25 503.25,-38 630.25,-38 630.25,-57.25"/>
<text text-anchor="middle" x="566.75" y="-43.75" font-family="Helvetica,sans-Serif" font-size="10.00">double_hashing::hashFxn</text>
</a>
</g>
</g>
<!-- Node1&#45;&gt;Node4 -->
<g id="edge10_Node000001_Node000004" class="edge">
<title>Node1&#45;&gt;Node4</title>
<g id="a_edge10_Node000001_Node000004"><a xlink:title=" ">
<path fill="none" stroke="#63b8ff" d="M122.15,-47.62C214.72,-47.62 391.63,-47.62 491.8,-47.62"/>
<polygon fill="#63b8ff" stroke="#63b8ff" points="491.52,-51.13 501.52,-47.63 491.52,-44.13 491.52,-51.13"/>
</a>
</g>
</g>
<!-- Node9 -->
<g id="Node000009" class="node">
<title>Node9</title>
<g id="a_Node000009"><a xlink:href="namespacedouble__hashing.html#a1e901418c759627557eff359b8db38cd" target="_top" xlink:title=" ">
<polygon fill="white" stroke="#666666" points="278,-19.25 157.75,-19.25 157.75,0 278,0 278,-19.25"/>
<text text-anchor="middle" x="217.88" y="-5.75" font-family="Helvetica,sans-Serif" font-size="10.00">double_hashing::display</text>
</a>
</g>
</g>
<!-- Node1&#45;&gt;Node9 -->
<g id="edge9_Node000001_Node000009" class="edge">
<title>Node1&#45;&gt;Node9</title>
<g id="a_edge9_Node000001_Node000009"><a xlink:title=" ">
<path fill="none" stroke="#63b8ff" d="M103.01,-37.54C121.91,-32.91 144.55,-27.36 164.65,-22.43"/>
<polygon fill="#63b8ff" stroke="#63b8ff" points="165.47,-25.83 174.35,-20.05 163.81,-19.03 165.47,-25.83"/>
</a>
</g>
</g>
<!-- Node3 -->
<g id="Node000003" class="node">
<title>Node3</title>
<g id="a_Node000003"><a xlink:href="namespacedouble__hashing.html#a8f8ff4fb018e1bb32d67d8a1885d3200" target="_top" xlink:title="Performs double hashing to resolve collisions.">
<polygon fill="white" stroke="#666666" points="455.25,-132.25 314,-132.25 314,-113 455.25,-113 455.25,-132.25"/>
<text text-anchor="middle" x="384.62" y="-118.75" font-family="Helvetica,sans-Serif" font-size="10.00">double_hashing::doubleHash</text>
</a>
</g>
</g>
<!-- Node2&#45;&gt;Node3 -->
<g id="edge2_Node000002_Node000003" class="edge">
<title>Node2&#45;&gt;Node3</title>
<g id="a_edge2_Node000002_Node000003"><a xlink:title=" ">
<path fill="none" stroke="#63b8ff" d="M263.89,-95.74C283.51,-100.14 306.71,-105.35 327.44,-110.01"/>
<polygon fill="#63b8ff" stroke="#63b8ff" points="326.66,-113.42 337.18,-112.2 328.19,-106.59 326.66,-113.42"/>
</a>
</g>
</g>
<!-- Node8 -->
<g id="Node000008" class="node">
<title>Node8</title>
<g id="a_Node000008"><a xlink:href="namespacedouble__hashing.html#af4981819aae8bc7e7beeaef02615e30d" target="_top" xlink:title=" ">
<polygon fill="white" stroke="#666666" points="444,-95.25 325.25,-95.25 325.25,-76 444,-76 444,-95.25"/>
<text text-anchor="middle" x="384.62" y="-81.75" font-family="Helvetica,sans-Serif" font-size="10.00">double_hashing::rehash</text>
</a>
</g>
</g>
<!-- Node2&#45;&gt;Node8 -->
<g id="edge7_Node000002_Node000008" class="edge">
<title>Node2&#45;&gt;Node8</title>
<g id="a_edge7_Node000002_Node000008"><a xlink:title=" ">
<path fill="none" stroke="#63b8ff" d="M270.55,-79.31C284.18,-78.91 299.11,-78.78 313.53,-78.94"/>
<polygon fill="#63b8ff" stroke="#63b8ff" points="313.38,-82.44 323.44,-79.1 313.5,-75.44 313.38,-82.44"/>
</a>
</g>
</g>
<!-- Node3&#45;&gt;Node4 -->
<g id="edge3_Node000003_Node000004" class="edge">
<title>Node3&#45;&gt;Node4</title>
<g id="a_edge3_Node000003_Node000004"><a xlink:title=" ">
<path fill="none" stroke="#63b8ff" d="M437.87,-112.58C443.94,-110.41 449.87,-107.8 455.25,-104.62 475.29,-92.81 471.19,-78.41 491.25,-66.62 494.26,-64.86 497.43,-63.25 500.7,-61.79"/>
<polygon fill="#63b8ff" stroke="#63b8ff" points="501.95,-65.07 509.99,-58.18 499.41,-58.54 501.95,-65.07"/>
</a>
</g>
</g>
<!-- Node5 -->
<g id="Node000005" class="node">
<title>Node5</title>
<g id="a_Node000005"><a xlink:href="namespacedouble__hashing.html#a33968a1178289ab61445dd4000df7082" target="_top" xlink:title="Used for second hash function.">
<polygon fill="white" stroke="#666666" points="642.25,-180.25 491.25,-180.25 491.25,-161 642.25,-161 642.25,-180.25"/>
<text text-anchor="middle" x="566.75" y="-166.75" font-family="Helvetica,sans-Serif" font-size="10.00">double_hashing::otherHashFxn</text>
</a>
</g>
</g>
<!-- Node3&#45;&gt;Node5 -->
<g id="edge4_Node000003_Node000005" class="edge">
<title>Node3&#45;&gt;Node5</title>
<g id="a_edge4_Node000003_Node000005"><a xlink:title=" ">
<path fill="none" stroke="#63b8ff" d="M419.78,-132.7C440.42,-138.69 467.28,-146.33 491.25,-152.62 497.92,-154.38 504.95,-156.16 511.91,-157.88"/>
<polygon fill="#63b8ff" stroke="#63b8ff" points="510.72,-161.2 521.27,-160.18 512.39,-154.4 510.72,-161.2"/>
</a>
</g>
</g>
<!-- Node6 -->
<g id="Node000006" class="node">
<title>Node6</title>
<g id="a_Node000006"><a xlink:href="namespacedouble__hashing.html#ac2adfce49ac57f6dbd1778d2c1ce0d2b" target="_top" xlink:title=" ">
<polygon fill="white" stroke="#666666" points="632.5,-143.25 501,-143.25 501,-124 632.5,-124 632.5,-143.25"/>
<text text-anchor="middle" x="566.75" y="-129.75" font-family="Helvetica,sans-Serif" font-size="10.00">double_hashing::putProber</text>
</a>
</g>
</g>
<!-- Node3&#45;&gt;Node6 -->
<g id="edge5_Node000003_Node000006" class="edge">
<title>Node3&#45;&gt;Node6</title>
<g id="a_edge5_Node000003_Node000006"><a xlink:title=" ">
<path fill="none" stroke="#63b8ff" d="M455.52,-126.89C466.53,-127.57 477.97,-128.26 489.12,-128.95"/>
<polygon fill="#63b8ff" stroke="#63b8ff" points="488.9,-132.44 499.1,-129.55 489.33,-125.45 488.9,-132.44"/>
</a>
</g>
</g>
<!-- Node7 -->
<g id="Node000007" class="node">
<title>Node7</title>
<g id="a_Node000007"><a xlink:href="namespacedouble__hashing.html#a29f543e2626bad58907661e1e45028a6" target="_top" xlink:title=" ">
<polygon fill="white" stroke="#666666" points="632.5,-105.88 501,-105.88 501,-75.38 632.5,-75.38 632.5,-105.88"/>
<text text-anchor="start" x="509" y="-92.38" font-family="Helvetica,sans-Serif" font-size="10.00">double_hashing::searching</text>
<text text-anchor="middle" x="566.75" y="-81.12" font-family="Helvetica,sans-Serif" font-size="10.00">Prober</text>
</a>
</g>
</g>
<!-- Node3&#45;&gt;Node7 -->
<g id="edge6_Node000003_Node000007" class="edge">
<title>Node3&#45;&gt;Node7</title>
<g id="a_edge6_Node000003_Node000007"><a xlink:title=" ">
<path fill="none" stroke="#63b8ff" d="M442.62,-112.5C457.46,-109.86 473.7,-106.98 489.37,-104.19"/>
<polygon fill="#63b8ff" stroke="#63b8ff" points="489.93,-107.65 499.17,-102.45 488.71,-100.76 489.93,-107.65"/>
</a>
</g>
</g>
<!-- Node8&#45;&gt;Node2 -->
<g id="edge8_Node000008_Node000002" class="edge">
<title>Node8&#45;&gt;Node2</title>
<g id="a_edge8_Node000008_Node000002"><a xlink:title=" ">
<path fill="none" stroke="#63b8ff" d="M324.95,-92.12C310.94,-92.43 295.92,-92.46 281.72,-92.2"/>
<polygon fill="#63b8ff" stroke="#63b8ff" points="282.14,-88.71 272.06,-91.98 281.98,-95.71 282.14,-88.71"/>
</a>
</g>
</g>
</g>
</svg>
