<?xml version="1.0" encoding="UTF-8" standalone="no"?>
<!DOCTYPE svg PUBLIC "-//W3C//DTD SVG 1.1//EN"
 "http://www.w3.org/Graphics/SVG/1.1/DTD/svg11.dtd">
<!-- Generated by graphviz version 12.1.1 (20240910.0053)
 -->
<!-- Title: linear_probing::remove Pages: 1 -->
<svg width="449pt" height="113pt"
 viewBox="0.00 0.00 449.00 112.88" xmlns="http://www.w3.org/2000/svg" xmlns:xlink="http://www.w3.org/1999/xlink">

<svg id="main" version="1.1" xmlns="http://www.w3.org/2000/svg" xmlns:xlink="http://www.w3.org/1999/xlink" xml:space="preserve">

<style type="text/css"><![CDATA[
.node, .edge {opacity: 0.7;}
.node.selected, .edge.selected {opacity: 1;}
.edge:hover path { stroke: red; }
.edge:hover polygon { stroke: red; fill: red; }
]]></style>
<script type="application/ecmascript" xlink:href="svg.min.js"/>
<svg id="graph" class="graph">
<g id="graph0" class="graph" transform="scale(1 1) rotate(0) translate(4 108.88)">
<title>linear_probing::remove</title>
<!-- Node1 -->
<g id="Node000001" class="node">
<title>Node1</title>
<g id="a_Node000001"><a xlink:title=" ">
<polygon fill="#999999" stroke="#666666" points="114.25,-67.88 0,-67.88 0,-48.62 114.25,-48.62 114.25,-67.88"/>
<text text-anchor="middle" x="57.12" y="-54.38" font-family="Helvetica,sans-Serif" font-size="10.00">linear_probing::remove</text>
</a>
</g>
</g>
<!-- Node2 -->
<g id="Node000002" class="node">
<title>Node2</title>
<g id="a_Node000002"><a xlink:href="namespacelinear__probing.html#a6322209aaa91b7bbf16f96e1cc52b746" target="_top" xlink:title=" ">
<polygon fill="white" stroke="#666666" points="281,-67.88 150.25,-67.88 150.25,-48.62 281,-48.62 281,-67.88"/>
<text text-anchor="middle" x="215.62" y="-54.38" font-family="Helvetica,sans-Serif" font-size="10.00">linear_probing::linearProbe</text>
</a>
</g>
</g>
<!-- Node1&#45;&gt;Node2 -->
<g id="edge1_Node000001_Node000002" class="edge">
<title>Node1&#45;&gt;Node2</title>
<g id="a_edge1_Node000001_Node000002"><a xlink:title=" ">
<path fill="none" stroke="#63b8ff" d="M114.63,-58.25C122.42,-58.25 130.53,-58.25 138.61,-58.25"/>
<polygon fill="#63b8ff" stroke="#63b8ff" points="138.45,-61.75 148.45,-58.25 138.45,-54.75 138.45,-61.75"/>
</a>
</g>
</g>
<!-- Node3 -->
<g id="Node000003" class="node">
<title>Node3</title>
<g id="a_Node000003"><a xlink:href="namespacelinear__probing.html#a4bde7a47f98dd1ad24c84038e2608527" target="_top" xlink:title="Hash a key. Uses the STL library&#39;s std::hash() function.">
<polygon fill="white" stroke="#666666" points="438.75,-104.88 319.25,-104.88 319.25,-85.62 438.75,-85.62 438.75,-104.88"/>
<text text-anchor="middle" x="379" y="-91.38" font-family="Helvetica,sans-Serif" font-size="10.00">linear_probing::hashFxn</text>
</a>
</g>
</g>
<!-- Node2&#45;&gt;Node3 -->
<g id="edge2_Node000002_Node000003" class="edge">
<title>Node2&#45;&gt;Node3</title>
<g id="a_edge2_Node000002_Node000003"><a xlink:title=" ">
<path fill="none" stroke="#63b8ff" d="M260.72,-68.36C279.93,-72.77 302.66,-77.98 322.96,-82.63"/>
<polygon fill="#63b8ff" stroke="#63b8ff" points="321.95,-85.99 332.48,-84.81 323.52,-79.17 321.95,-85.99"/>
</a>
</g>
</g>
<!-- Node4 -->
<g id="Node000004" class="node">
<title>Node4</title>
<g id="a_Node000004"><a xlink:href="namespacelinear__probing.html#a75d779938df7ebc68581d922b60a2541" target="_top" xlink:title=" ">
<polygon fill="white" stroke="#666666" points="441,-67.88 317,-67.88 317,-48.62 441,-48.62 441,-67.88"/>
<text text-anchor="middle" x="379" y="-54.38" font-family="Helvetica,sans-Serif" font-size="10.00">linear_probing::putProber</text>
</a>
</g>
</g>
<!-- Node2&#45;&gt;Node4 -->
<g id="edge3_Node000002_Node000004" class="edge">
<title>Node2&#45;&gt;Node4</title>
<g id="a_edge3_Node000002_Node000004"><a xlink:title=" ">
<path fill="none" stroke="#63b8ff" d="M281.33,-58.25C289.26,-58.25 297.4,-58.25 305.43,-58.25"/>
<polygon fill="#63b8ff" stroke="#63b8ff" points="305.17,-61.75 315.17,-58.25 305.17,-54.75 305.17,-61.75"/>
</a>
</g>
</g>
<!-- Node5 -->
<g id="Node000005" class="node">
<title>Node5</title>
<g id="a_Node000005"><a xlink:href="namespacelinear__probing.html#a942fc8407b8001890ea26830cdcd9d77" target="_top" xlink:title=" ">
<polygon fill="white" stroke="#666666" points="441,-30.5 317,-30.5 317,0 441,0 441,-30.5"/>
<text text-anchor="start" x="325" y="-17" font-family="Helvetica,sans-Serif" font-size="10.00">linear_probing::searching</text>
<text text-anchor="middle" x="379" y="-5.75" font-family="Helvetica,sans-Serif" font-size="10.00">Prober</text>
</a>
</g>
</g>
<!-- Node2&#45;&gt;Node5 -->
<g id="edge4_Node000002_Node000005" class="edge">
<title>Node2&#45;&gt;Node5</title>
<g id="a_edge4_Node000002_Node000005"><a xlink:title=" ">
<path fill="none" stroke="#63b8ff" d="M254.46,-48.17C270.43,-43.91 289.55,-38.82 307.92,-33.92"/>
<polygon fill="#63b8ff" stroke="#63b8ff" points="308.7,-37.34 317.47,-31.38 306.9,-30.57 308.7,-37.34"/>
</a>
</g>
</g>
</g>
</svg>
</svg>

<style type='text/css'>
<![CDATA[
[data-mouse-over-selected='false'] { opacity: 0.7; }
[data-mouse-over-selected='true']  { opacity: 1.0; }
]]>
</style>
<script type="application/ecmascript"><![CDATA[
document.addEventListener('DOMContentLoaded', (event) => {
  highlightEdges();
  highlightAdjacentNodes();
});
]]></script>
</svg>
