<?xml version="1.0" encoding="UTF-8" standalone="no"?>
<!DOCTYPE svg PUBLIC "-//W3C//DTD SVG 1.1//EN"
 "http://www.w3.org/Graphics/SVG/1.1/DTD/svg11.dtd">
<!-- Generated by graphviz version 12.1.1 (20240910.0053)
 -->
<!-- Title: qr_algorithm::eigen_values Pages: 1 -->
<svg width="601pt" height="82pt"
 viewBox="0.00 0.00 600.75 82.25" xmlns="http://www.w3.org/2000/svg" xmlns:xlink="http://www.w3.org/1999/xlink">
<g id="graph0" class="graph" transform="scale(1 1) rotate(0) translate(4 78.25)">
<title>qr_algorithm::eigen_values</title>
<!-- Node1 -->
<g id="Node000001" class="node">
<title>Node1</title>
<g id="a_Node000001"><a xlink:title=" ">
<polygon fill="#999999" stroke="#666666" points="98.5,-60.88 0,-60.88 0,-30.38 98.5,-30.38 98.5,-60.88"/>
<text text-anchor="start" x="8" y="-47.38" font-family="Helvetica,sans-Serif" font-size="10.00">qr_algorithm::eigen</text>
<text text-anchor="middle" x="49.25" y="-36.12" font-family="Helvetica,sans-Serif" font-size="10.00">_values</text>
</a>
</g>
</g>
<!-- Node2 -->
<g id="Node000002" class="node">
<title>Node2</title>
<g id="a_Node000002"><a xlink:href="qr__eigen__values_8cpp.html#abb8bf4c55e10685a5eb2ad3797fde1ae" target="_top" xlink:title=" ">
<polygon fill="white" stroke="#666666" points="230.75,-74.25 177.25,-74.25 177.25,-55 230.75,-55 230.75,-74.25"/>
<text text-anchor="middle" x="204" y="-60.75" font-family="Helvetica,sans-Serif" font-size="10.00">mat_mul</text>
</a>
</g>
</g>
<!-- Node1&#45;&gt;Node2 -->
<g id="edge1_Node000001_Node000002" class="edge">
<title>Node1&#45;&gt;Node2</title>
<g id="a_edge1_Node000001_Node000002"><a xlink:title=" ">
<path fill="none" stroke="#63b8ff" d="M98.58,-51.64C120.35,-54.35 145.66,-57.49 165.9,-60.01"/>
<polygon fill="#63b8ff" stroke="#63b8ff" points="165.32,-63.46 175.67,-61.23 166.18,-56.52 165.32,-63.46"/>
</a>
</g>
</g>
<!-- Node3 -->
<g id="Node000003" class="node">
<title>Node3</title>
<g id="a_Node000003"><a xlink:href="namespaceqr__algorithm.html#a73ce637634fc49e1d10d190eb388ebf1" target="_top" xlink:title=" ">
<polygon fill="white" stroke="#666666" points="273.5,-37.25 134.5,-37.25 134.5,-18 273.5,-18 273.5,-37.25"/>
<text text-anchor="middle" x="204" y="-23.75" font-family="Helvetica,sans-Serif" font-size="10.00">qr_algorithm::qr_decompose</text>
</a>
</g>
</g>
<!-- Node1&#45;&gt;Node3 -->
<g id="edge2_Node000001_Node000003" class="edge">
<title>Node1&#45;&gt;Node3</title>
<g id="a_edge2_Node000001_Node000003"><a xlink:title=" ">
<path fill="none" stroke="#63b8ff" d="M98.58,-39.93C106.33,-39.02 114.53,-38.05 122.79,-37.08"/>
<polygon fill="#63b8ff" stroke="#63b8ff" points="123.03,-40.57 132.55,-35.93 122.21,-33.62 123.03,-40.57"/>
</a>
</g>
</g>
<!-- Node4 -->
<g id="Node000004" class="node">
<title>Node4</title>
<g id="a_Node000004"><a xlink:href="namespaceqr__algorithm.html#ad16da2183db22378435042f26af43d5f" target="_top" xlink:title=" ">
<polygon fill="white" stroke="#666666" points="435.75,-56.25 309.5,-56.25 309.5,-37 435.75,-37 435.75,-56.25"/>
<text text-anchor="middle" x="372.62" y="-42.75" font-family="Helvetica,sans-Serif" font-size="10.00">qr_algorithm::vector_mag</text>
</a>
</g>
</g>
<!-- Node3&#45;&gt;Node4 -->
<g id="edge3_Node000003_Node000004" class="edge">
<title>Node3&#45;&gt;Node4</title>
<g id="a_edge3_Node000003_Node000004"><a xlink:title=" ">
<path fill="none" stroke="#63b8ff" d="M273.73,-35.46C281.72,-36.37 289.88,-37.3 297.93,-38.22"/>
<polygon fill="#63b8ff" stroke="#63b8ff" points="297.35,-41.68 307.69,-39.33 298.15,-34.72 297.35,-41.68"/>
</a>
</g>
</g>
<!-- Node6 -->
<g id="Node000006" class="node">
<title>Node6</title>
<g id="a_Node000006"><a xlink:href="namespaceqr__algorithm.html#a6d3c7dce1f142141f509d09f6c0e25dc" target="_top" xlink:title=" ">
<polygon fill="white" stroke="#666666" points="434.25,-19.25 311,-19.25 311,0 434.25,0 434.25,-19.25"/>
<text text-anchor="middle" x="372.62" y="-5.75" font-family="Helvetica,sans-Serif" font-size="10.00">qr_algorithm::vector_proj</text>
</a>
</g>
</g>
<!-- Node3&#45;&gt;Node6 -->
<g id="edge5_Node000003_Node000006" class="edge">
<title>Node3&#45;&gt;Node6</title>
<g id="a_edge5_Node000003_Node000006"><a xlink:title=" ">
<path fill="none" stroke="#63b8ff" d="M273.73,-20.2C282.12,-19.29 290.7,-18.37 299.14,-17.46"/>
<polygon fill="#63b8ff" stroke="#63b8ff" points="299.44,-20.94 309.01,-16.39 298.69,-13.98 299.44,-20.94"/>
</a>
</g>
</g>
<!-- Node5 -->
<g id="Node000005" class="node">
<title>Node5</title>
<g id="a_Node000005"><a xlink:href="namespaceqr__algorithm.html#a8ea313a1a1b5f9d0e3e332c29c6446ec" target="_top" xlink:title=" ">
<polygon fill="white" stroke="#666666" points="592.75,-37.25 471.75,-37.25 471.75,-18 592.75,-18 592.75,-37.25"/>
<text text-anchor="middle" x="532.25" y="-23.75" font-family="Helvetica,sans-Serif" font-size="10.00">qr_algorithm::vector_dot</text>
</a>
</g>
</g>
<!-- Node4&#45;&gt;Node5 -->
<g id="edge4_Node000004_Node000005" class="edge">
<title>Node4&#45;&gt;Node5</title>
<g id="a_edge4_Node000004_Node000005"><a xlink:title=" ">
<path fill="none" stroke="#63b8ff" d="M435.92,-39.12C443.88,-38.16 452.07,-37.17 460.15,-36.2"/>
<polygon fill="#63b8ff" stroke="#63b8ff" points="460.45,-39.68 469.96,-35.01 459.61,-32.73 460.45,-39.68"/>
</a>
</g>
</g>
<!-- Node6&#45;&gt;Node5 -->
<g id="edge6_Node000006_Node000005" class="edge">
<title>Node6&#45;&gt;Node5</title>
<g id="a_edge6_Node000006_Node000005"><a xlink:title=" ">
<path fill="none" stroke="#63b8ff" d="M434.57,-16.58C443,-17.55 451.72,-18.54 460.32,-19.52"/>
<polygon fill="#63b8ff" stroke="#63b8ff" points="459.67,-22.97 470,-20.63 460.47,-16.02 459.67,-22.97"/>
</a>
</g>
</g>
</g>
</svg>
