<?xml version="1.0" encoding="UTF-8" standalone="no"?>
<!DOCTYPE svg PUBLIC "-//W3C//DTD SVG 1.1//EN"
 "http://www.w3.org/Graphics/SVG/1.1/DTD/svg11.dtd">
<!-- Generated by graphviz version 12.1.1 (20240910.0053)
 -->
<!-- Title: math::parallelogram_area Pages: 1 -->
<svg width="212pt" height="45pt"
 viewBox="0.00 0.00 211.90 45.25" xmlns="http://www.w3.org/2000/svg" xmlns:xlink="http://www.w3.org/1999/xlink">
<g id="graph0" class="graph" transform="scale(1 1) rotate(0) translate(4 41.25)">
<title>math::parallelogram_area</title>
<!-- Node1 -->
<g id="Node000001" class="node">
<title>Node1</title>
<g id="a_Node000001"><a xlink:title="area of a parallelogram (b * h)">
<polygon fill="#999999" stroke="#666666" points="125.5,-19.25 0,-19.25 0,0 125.5,0 125.5,-19.25"/>
<text text-anchor="middle" x="62.75" y="-5.75" font-family="Helvetica,sans-Serif" font-size="10.00">math::parallelogram_area</text>
</a>
</g>
</g>
<!-- Node2 -->
<g id="Node000002" class="node">
<title>Node2</title>
<g id="a_Node000002"><a xlink:href="avltree_8cpp.html#ae4a66d8b0c2b0d626aea45977e358c83" target="_top" xlink:title=" ">
<polygon fill="white" stroke="#666666" points="203.75,-19.25 161.5,-19.25 161.5,0 203.75,0 203.75,-19.25"/>
<text text-anchor="middle" x="182.62" y="-5.75" font-family="Helvetica,sans-Serif" font-size="10.00">height</text>
</a>
</g>
</g>
<!-- Node1&#45;&gt;Node2 -->
<g id="edge1_Node000001_Node000002" class="edge">
<title>Node1&#45;&gt;Node2</title>
<g id="a_edge1_Node000001_Node000002"><a xlink:title=" ">
<path fill="none" stroke="#63b8ff" d="M125.79,-9.62C134.07,-9.62 142.26,-9.62 149.71,-9.62"/>
<polygon fill="#63b8ff" stroke="#63b8ff" points="149.57,-13.13 159.57,-9.63 149.57,-6.13 149.57,-13.13"/>
</a>
</g>
</g>
<!-- Node2&#45;&gt;Node2 -->
<g id="edge2_Node000002_Node000002" class="edge">
<title>Node2&#45;&gt;Node2</title>
<g id="a_edge2_Node000002_Node000002"><a xlink:title=" ">
<path fill="none" stroke="#63b8ff" d="M163.86,-19.54C155.3,-28.15 161.55,-37.25 182.62,-37.25 194.15,-37.25 201.24,-34.53 203.9,-30.65"/>
<polygon fill="#63b8ff" stroke="#63b8ff" points="207.34,-30 201.73,-21.01 200.52,-31.54 207.34,-30"/>
</a>
</g>
</g>
</g>
</svg>
