<?xml version="1.0" encoding="UTF-8" standalone="no"?>
<!DOCTYPE svg PUBLIC "-//W3C//DTD SVG 1.1//EN"
 "http://www.w3.org/Graphics/SVG/1.1/DTD/svg11.dtd">
<!-- Generated by graphviz version 12.1.1 (20240910.0053)
 -->
<!-- Title: double_hashing::add Pages: 1 -->
<svg width="478pt" height="150pt"
 viewBox="0.00 0.00 477.50 149.88" xmlns="http://www.w3.org/2000/svg" xmlns:xlink="http://www.w3.org/1999/xlink">

<svg id="main" version="1.1" xmlns="http://www.w3.org/2000/svg" xmlns:xlink="http://www.w3.org/1999/xlink" xml:space="preserve">

<style type="text/css"><![CDATA[
.node, .edge {opacity: 0.7;}
.node.selected, .edge.selected {opacity: 1;}
.edge:hover path { stroke: red; }
.edge:hover polygon { stroke: red; fill: red; }
]]></style>
<script type="application/ecmascript" xlink:href="svg.min.js"/>
<svg id="graph" class="graph">
<g id="graph0" class="graph" transform="scale(1 1) rotate(0) translate(4 145.88)">
<title>double_hashing::add</title>
<!-- Node1 -->
<g id="Node000001" class="node">
<title>Node1</title>
<g id="a_Node000001"><a xlink:title=" ">
<polygon fill="#999999" stroke="#666666" points="105.25,-48.88 0,-48.88 0,-29.62 105.25,-29.62 105.25,-48.88"/>
<text text-anchor="middle" x="52.62" y="-35.38" font-family="Helvetica,sans-Serif" font-size="10.00">double_hashing::add</text>
</a>
</g>
</g>
<!-- Node2 -->
<g id="Node000002" class="node">
<title>Node2</title>
<g id="a_Node000002"><a xlink:href="namespacedouble__hashing.html#a8f8ff4fb018e1bb32d67d8a1885d3200" target="_top" xlink:title="Performs double hashing to resolve collisions.">
<polygon fill="white" stroke="#666666" points="282.5,-85.88 141.25,-85.88 141.25,-66.62 282.5,-66.62 282.5,-85.88"/>
<text text-anchor="middle" x="211.88" y="-72.38" font-family="Helvetica,sans-Serif" font-size="10.00">double_hashing::doubleHash</text>
</a>
</g>
</g>
<!-- Node1&#45;&gt;Node2 -->
<g id="edge1_Node000001_Node000002" class="edge">
<title>Node1&#45;&gt;Node2</title>
<g id="a_edge1_Node000001_Node000002"><a xlink:title=" ">
<path fill="none" stroke="#63b8ff" d="M96.59,-49.36C115.23,-53.75 137.25,-58.93 156.97,-63.57"/>
<polygon fill="#63b8ff" stroke="#63b8ff" points="155.95,-66.92 166.48,-65.81 157.55,-60.11 155.95,-66.92"/>
</a>
</g>
</g>
<!-- Node7 -->
<g id="Node000007" class="node">
<title>Node7</title>
<g id="a_Node000007"><a xlink:href="namespacedouble__hashing.html#af4981819aae8bc7e7beeaef02615e30d" target="_top" xlink:title=" ">
<polygon fill="white" stroke="#666666" points="271.25,-48.88 152.5,-48.88 152.5,-29.62 271.25,-29.62 271.25,-48.88"/>
<text text-anchor="middle" x="211.88" y="-35.38" font-family="Helvetica,sans-Serif" font-size="10.00">double_hashing::rehash</text>
</a>
</g>
</g>
<!-- Node1&#45;&gt;Node7 -->
<g id="edge6_Node000001_Node000007" class="edge">
<title>Node1&#45;&gt;Node7</title>
<g id="a_edge6_Node000001_Node000007"><a xlink:title=" ">
<path fill="none" stroke="#63b8ff" d="M105.55,-32.86C116.87,-32.54 129.03,-32.44 140.92,-32.54"/>
<polygon fill="#63b8ff" stroke="#63b8ff" points="140.64,-36.03 150.69,-32.68 140.74,-29.03 140.64,-36.03"/>
</a>
</g>
</g>
<!-- Node3 -->
<g id="Node000003" class="node">
<title>Node3</title>
<g id="a_Node000003"><a xlink:href="namespacedouble__hashing.html#a0d90726ed1de7b3d2ae261baed048003" target="_top" xlink:title="Hash a key. Uses the STL library&#39;s std::hash() function.">
<polygon fill="white" stroke="#666666" points="457.5,-141.88 330.5,-141.88 330.5,-122.62 457.5,-122.62 457.5,-141.88"/>
<text text-anchor="middle" x="394" y="-128.38" font-family="Helvetica,sans-Serif" font-size="10.00">double_hashing::hashFxn</text>
</a>
</g>
</g>
<!-- Node2&#45;&gt;Node3 -->
<g id="edge2_Node000002_Node000003" class="edge">
<title>Node2&#45;&gt;Node3</title>
<g id="a_edge2_Node000002_Node000003"><a xlink:title=" ">
<path fill="none" stroke="#63b8ff" d="M238.23,-86.25C259.47,-94.41 290.68,-105.91 318.5,-114.25 324.4,-116.02 330.59,-117.73 336.79,-119.36"/>
<polygon fill="#63b8ff" stroke="#63b8ff" points="335.86,-122.73 346.41,-121.81 337.58,-115.95 335.86,-122.73"/>
</a>
</g>
</g>
<!-- Node4 -->
<g id="Node000004" class="node">
<title>Node4</title>
<g id="a_Node000004"><a xlink:href="namespacedouble__hashing.html#a33968a1178289ab61445dd4000df7082" target="_top" xlink:title="Used for second hash function.">
<polygon fill="white" stroke="#666666" points="469.5,-104.88 318.5,-104.88 318.5,-85.62 469.5,-85.62 469.5,-104.88"/>
<text text-anchor="middle" x="394" y="-91.38" font-family="Helvetica,sans-Serif" font-size="10.00">double_hashing::otherHashFxn</text>
</a>
</g>
</g>
<!-- Node2&#45;&gt;Node4 -->
<g id="edge3_Node000002_Node000004" class="edge">
<title>Node2&#45;&gt;Node4</title>
<g id="a_edge3_Node000002_Node000004"><a xlink:title=" ">
<path fill="none" stroke="#63b8ff" d="M282.77,-83.62C290.64,-84.45 298.72,-85.3 306.76,-86.15"/>
<polygon fill="#63b8ff" stroke="#63b8ff" points="306.25,-89.62 316.57,-87.19 306.99,-82.66 306.25,-89.62"/>
</a>
</g>
</g>
<!-- Node5 -->
<g id="Node000005" class="node">
<title>Node5</title>
<g id="a_Node000005"><a xlink:href="namespacedouble__hashing.html#ac2adfce49ac57f6dbd1778d2c1ce0d2b" target="_top" xlink:title=" ">
<polygon fill="white" stroke="#666666" points="459.75,-67.88 328.25,-67.88 328.25,-48.62 459.75,-48.62 459.75,-67.88"/>
<text text-anchor="middle" x="394" y="-54.38" font-family="Helvetica,sans-Serif" font-size="10.00">double_hashing::putProber</text>
</a>
</g>
</g>
<!-- Node2&#45;&gt;Node5 -->
<g id="edge4_Node000002_Node000005" class="edge">
<title>Node2&#45;&gt;Node5</title>
<g id="a_edge4_Node000002_Node000005"><a xlink:title=" ">
<path fill="none" stroke="#63b8ff" d="M282.77,-69.26C293.9,-68.15 305.46,-67 316.72,-65.87"/>
<polygon fill="#63b8ff" stroke="#63b8ff" points="316.75,-69.39 326.35,-64.91 316.05,-62.42 316.75,-69.39"/>
</a>
</g>
</g>
<!-- Node6 -->
<g id="Node000006" class="node">
<title>Node6</title>
<g id="a_Node000006"><a xlink:href="namespacedouble__hashing.html#a29f543e2626bad58907661e1e45028a6" target="_top" xlink:title=" ">
<polygon fill="white" stroke="#666666" points="459.75,-30.5 328.25,-30.5 328.25,0 459.75,0 459.75,-30.5"/>
<text text-anchor="start" x="336.25" y="-17" font-family="Helvetica,sans-Serif" font-size="10.00">double_hashing::searching</text>
<text text-anchor="middle" x="394" y="-5.75" font-family="Helvetica,sans-Serif" font-size="10.00">Prober</text>
</a>
</g>
</g>
<!-- Node2&#45;&gt;Node6 -->
<g id="edge5_Node000002_Node000006" class="edge">
<title>Node2&#45;&gt;Node6</title>
<g id="a_edge5_Node000002_Node000006"><a xlink:title=" ">
<path fill="none" stroke="#63b8ff" d="M258.3,-66.14C266.47,-63.86 274.82,-61.22 282.5,-58.25 299.37,-51.72 301.83,-46.27 318.5,-39.25 322.12,-37.73 325.86,-36.24 329.67,-34.81"/>
<polygon fill="#63b8ff" stroke="#63b8ff" points="330.84,-38.11 339.05,-31.41 328.46,-31.52 330.84,-38.11"/>
</a>
</g>
</g>
<!-- Node7&#45;&gt;Node1 -->
<g id="edge7_Node000007_Node000001" class="edge">
<title>Node7&#45;&gt;Node1</title>
<g id="a_edge7_Node000007_Node000001"><a xlink:title=" ">
<path fill="none" stroke="#63b8ff" d="M152.21,-45.8C140.72,-46.03 128.62,-46.06 116.99,-45.89"/>
<polygon fill="#63b8ff" stroke="#63b8ff" points="117.14,-42.39 107.06,-45.67 116.99,-49.39 117.14,-42.39"/>
</a>
</g>
</g>
</g>
</svg>
</svg>

<style type='text/css'>
<![CDATA[
[data-mouse-over-selected='false'] { opacity: 0.7; }
[data-mouse-over-selected='true']  { opacity: 1.0; }
]]>
</style>
<script type="application/ecmascript"><![CDATA[
document.addEventListener('DOMContentLoaded', (event) => {
  highlightEdges();
  highlightAdjacentNodes();
});
]]></script>
</svg>
