<?xml version="1.0" encoding="UTF-8" standalone="no"?>
<!DOCTYPE svg PUBLIC "-//W3C//DTD SVG 1.1//EN"
 "http://www.w3.org/Graphics/SVG/1.1/DTD/svg11.dtd">
<!-- Generated by graphviz version 12.1.1 (20240910.0053)
 -->
<!-- Title: math::parallelogram_perimeter Pages: 1 -->
<svg width="188pt" height="51pt"
 viewBox="0.00 0.00 187.75 50.88" xmlns="http://www.w3.org/2000/svg" xmlns:xlink="http://www.w3.org/1999/xlink">
<g id="graph0" class="graph" transform="scale(1 1) rotate(0) translate(4 46.88)">
<title>math::parallelogram_perimeter</title>
<!-- Node1 -->
<g id="Node000001" class="node">
<title>Node1</title>
<g id="a_Node000001"><a xlink:title="perimeter of a parallelogram 2(b + h)">
<polygon fill="#999999" stroke="#666666" points="101.5,-30.5 0,-30.5 0,0 101.5,0 101.5,-30.5"/>
<text text-anchor="start" x="8" y="-17" font-family="Helvetica,sans-Serif" font-size="10.00">math::parallelogram</text>
<text text-anchor="middle" x="50.75" y="-5.75" font-family="Helvetica,sans-Serif" font-size="10.00">_perimeter</text>
</a>
</g>
</g>
<!-- Node2 -->
<g id="Node000002" class="node">
<title>Node2</title>
<g id="a_Node000002"><a xlink:href="avltree_8cpp.html#ae4a66d8b0c2b0d626aea45977e358c83" target="_top" xlink:title=" ">
<polygon fill="white" stroke="#666666" points="179.75,-24.88 137.5,-24.88 137.5,-5.63 179.75,-5.63 179.75,-24.88"/>
<text text-anchor="middle" x="158.62" y="-11.38" font-family="Helvetica,sans-Serif" font-size="10.00">height</text>
</a>
</g>
</g>
<!-- Node1&#45;&gt;Node2 -->
<g id="edge1_Node000001_Node000002" class="edge">
<title>Node1&#45;&gt;Node2</title>
<g id="a_edge1_Node000001_Node000002"><a xlink:title=" ">
<path fill="none" stroke="#63b8ff" d="M101.9,-15.25C110.1,-15.25 118.4,-15.25 126,-15.25"/>
<polygon fill="#63b8ff" stroke="#63b8ff" points="125.73,-18.75 135.73,-15.25 125.73,-11.75 125.73,-18.75"/>
</a>
</g>
</g>
<!-- Node2&#45;&gt;Node2 -->
<g id="edge2_Node000002_Node000002" class="edge">
<title>Node2&#45;&gt;Node2</title>
<g id="a_edge2_Node000002_Node000002"><a xlink:title=" ">
<path fill="none" stroke="#63b8ff" d="M141.74,-25.16C134.03,-33.77 139.66,-42.88 158.62,-42.88 169,-42.88 175.38,-40.15 177.77,-36.28"/>
<polygon fill="#63b8ff" stroke="#63b8ff" points="181.24,-35.75 175.81,-26.65 174.38,-37.14 181.24,-35.75"/>
</a>
</g>
</g>
</g>
</svg>
