<?xml version="1.0" encoding="UTF-8" standalone="no"?>
<!DOCTYPE svg PUBLIC "-//W3C//DTD SVG 1.1//EN"
 "http://www.w3.org/Graphics/SVG/1.1/DTD/svg11.dtd">
<!-- Generated by graphviz version 12.1.1 (20240910.0053)
 -->
<!-- Title: machine_learning::kohonen_som Pages: 1 -->
<svg width="482pt" height="64pt"
 viewBox="0.00 0.00 482.00 64.25" xmlns="http://www.w3.org/2000/svg" xmlns:xlink="http://www.w3.org/1999/xlink">
<g id="graph0" class="graph" transform="scale(1 1) rotate(0) translate(4 60.25)">
<title>machine_learning::kohonen_som</title>
<!-- Node1 -->
<g id="Node000001" class="node">
<title>Node1</title>
<g id="a_Node000001"><a xlink:title=" ">
<polygon fill="#999999" stroke="#666666" points="158.5,-37.25 0,-37.25 0,-18 158.5,-18 158.5,-37.25"/>
<text text-anchor="middle" x="79.25" y="-23.75" font-family="Helvetica,sans-Serif" font-size="10.00">machine_learning::kohonen_som</text>
</a>
</g>
</g>
<!-- Node2 -->
<g id="Node000002" class="node">
<title>Node2</title>
<g id="a_Node000002"><a xlink:href="namespacemachine__learning.html#ae868ad43698a1d69ba46ea3827d7d2c3" target="_top" xlink:title=" ">
<polygon fill="white" stroke="#666666" points="321.5,-42.88 194.5,-42.88 194.5,-12.37 321.5,-12.37 321.5,-42.88"/>
<text text-anchor="start" x="202.5" y="-29.38" font-family="Helvetica,sans-Serif" font-size="10.00">machine_learning::update</text>
<text text-anchor="middle" x="258" y="-18.12" font-family="Helvetica,sans-Serif" font-size="10.00">_weights</text>
</a>
</g>
</g>
<!-- Node1&#45;&gt;Node2 -->
<g id="edge1_Node000001_Node000002" class="edge">
<title>Node1&#45;&gt;Node2</title>
<g id="a_edge1_Node000001_Node000002"><a xlink:title=" ">
<path fill="none" stroke="#63b8ff" d="M158.8,-27.62C166.73,-27.62 174.77,-27.62 182.65,-27.62"/>
<polygon fill="#63b8ff" stroke="#63b8ff" points="182.55,-31.13 192.55,-27.63 182.55,-24.13 182.55,-31.13"/>
</a>
</g>
</g>
<!-- Node3 -->
<g id="Node000003" class="node">
<title>Node3</title>
<g id="a_Node000003"><a xlink:href="group__machine__learning.html#ga60f9186ccb682724a8792a2bf81e9b9e" target="_top" xlink:title=" ">
<polygon fill="white" stroke="#666666" points="448.88,-56.25 382.62,-56.25 382.62,-37 448.88,-37 448.88,-56.25"/>
<text text-anchor="middle" x="415.75" y="-42.75" font-family="Helvetica,sans-Serif" font-size="10.00">get_min_2d</text>
</a>
</g>
</g>
<!-- Node2&#45;&gt;Node3 -->
<g id="edge2_Node000002_Node000003" class="edge">
<title>Node2&#45;&gt;Node3</title>
<g id="a_edge2_Node000002_Node000003"><a xlink:title=" ">
<path fill="none" stroke="#63b8ff" d="M321.9,-35.3C338.45,-37.32 355.94,-39.45 371.22,-41.31"/>
<polygon fill="#63b8ff" stroke="#63b8ff" points="370.57,-44.76 380.92,-42.5 371.42,-37.81 370.57,-44.76"/>
</a>
</g>
</g>
<!-- Node4 -->
<g id="Node000004" class="node">
<title>Node4</title>
<g id="a_Node000004"><a xlink:href="namespacemachine__learning.html#a6f1c98c016ad34ff3d9f39372161bd35" target="_top" xlink:title=" ">
<polygon fill="white" stroke="#666666" points="474,-19.25 357.5,-19.25 357.5,0 474,0 474,-19.25"/>
<text text-anchor="middle" x="415.75" y="-5.75" font-family="Helvetica,sans-Serif" font-size="10.00">machine_learning::sum</text>
</a>
</g>
</g>
<!-- Node2&#45;&gt;Node4 -->
<g id="edge3_Node000002_Node000004" class="edge">
<title>Node2&#45;&gt;Node4</title>
<g id="a_edge3_Node000002_Node000004"><a xlink:title=" ">
<path fill="none" stroke="#63b8ff" d="M321.9,-20.36C329.82,-19.44 337.95,-18.5 345.96,-17.58"/>
<polygon fill="#63b8ff" stroke="#63b8ff" points="346.11,-21.08 355.65,-16.46 345.31,-14.13 346.11,-21.08"/>
</a>
</g>
</g>
</g>
</svg>
