<?xml version="1.0" encoding="UTF-8" standalone="no"?>
<!DOCTYPE svg PUBLIC "-//W3C//DTD SVG 1.1//EN"
 "http://www.w3.org/Graphics/SVG/1.1/DTD/svg11.dtd">
<!-- Generated by graphviz version 12.1.1 (20240910.0053)
 -->
<!-- Title: double_hashing::rehash Pages: 1 -->
<svg width="632pt" height="150pt"
 viewBox="0.00 0.00 632.25 149.88" xmlns="http://www.w3.org/2000/svg" xmlns:xlink="http://www.w3.org/1999/xlink">
<g id="graph0" class="graph" transform="scale(1 1) rotate(0) translate(4 145.88)">
<title>double_hashing::rehash</title>
<!-- Node1 -->
<g id="Node000001" class="node">
<title>Node1</title>
<g id="a_Node000001"><a xlink:title=" ">
<polygon fill="#999999" stroke="#666666" points="118.75,-85.88 0,-85.88 0,-66.62 118.75,-66.62 118.75,-85.88"/>
<text text-anchor="middle" x="59.38" y="-72.38" font-family="Helvetica,sans-Serif" font-size="10.00">double_hashing::rehash</text>
</a>
</g>
</g>
<!-- Node2 -->
<g id="Node000002" class="node">
<title>Node2</title>
<g id="a_Node000002"><a xlink:href="namespacedouble__hashing.html#a79a9c914a6c68275b3640303d7faad8a" target="_top" xlink:title=" ">
<polygon fill="white" stroke="#666666" points="260,-85.88 154.75,-85.88 154.75,-66.62 260,-66.62 260,-85.88"/>
<text text-anchor="middle" x="207.38" y="-72.38" font-family="Helvetica,sans-Serif" font-size="10.00">double_hashing::add</text>
</a>
</g>
</g>
<!-- Node1&#45;&gt;Node2 -->
<g id="edge1_Node000001_Node000002" class="edge">
<title>Node1&#45;&gt;Node2</title>
<g id="a_edge1_Node000001_Node000002"><a xlink:title=" ">
<path fill="none" stroke="#63b8ff" d="M118.92,-69.62C126.9,-69.49 135.12,-69.46 143.18,-69.55"/>
<polygon fill="#63b8ff" stroke="#63b8ff" points="142.84,-73.05 152.91,-69.73 142.97,-66.05 142.84,-73.05"/>
</a>
</g>
</g>
<!-- Node2&#45;&gt;Node1 -->
<g id="edge7_Node000002_Node000001" class="edge">
<title>Node2&#45;&gt;Node1</title>
<g id="a_edge7_Node000002_Node000001"><a xlink:title=" ">
<path fill="none" stroke="#63b8ff" d="M154.42,-82.74C146.6,-82.94 138.44,-83.02 130.32,-82.99"/>
<polygon fill="#63b8ff" stroke="#63b8ff" points="130.47,-79.5 120.43,-82.9 130.4,-86.5 130.47,-79.5"/>
</a>
</g>
</g>
<!-- Node3 -->
<g id="Node000003" class="node">
<title>Node3</title>
<g id="a_Node000003"><a xlink:href="namespacedouble__hashing.html#a8f8ff4fb018e1bb32d67d8a1885d3200" target="_top" xlink:title="Performs double hashing to resolve collisions.">
<polygon fill="white" stroke="#666666" points="437.25,-85.88 296,-85.88 296,-66.62 437.25,-66.62 437.25,-85.88"/>
<text text-anchor="middle" x="366.62" y="-72.38" font-family="Helvetica,sans-Serif" font-size="10.00">double_hashing::doubleHash</text>
</a>
</g>
</g>
<!-- Node2&#45;&gt;Node3 -->
<g id="edge2_Node000002_Node000003" class="edge">
<title>Node2&#45;&gt;Node3</title>
<g id="a_edge2_Node000002_Node000003"><a xlink:title=" ">
<path fill="none" stroke="#63b8ff" d="M260.3,-76.25C267.96,-76.25 276.01,-76.25 284.09,-76.25"/>
<polygon fill="#63b8ff" stroke="#63b8ff" points="284,-79.75 294,-76.25 284,-72.75 284,-79.75"/>
</a>
</g>
</g>
<!-- Node4 -->
<g id="Node000004" class="node">
<title>Node4</title>
<g id="a_Node000004"><a xlink:href="namespacedouble__hashing.html#a0d90726ed1de7b3d2ae261baed048003" target="_top" xlink:title="Hash a key. Uses the STL library&#39;s std::hash() function.">
<polygon fill="white" stroke="#666666" points="612.25,-141.88 485.25,-141.88 485.25,-122.62 612.25,-122.62 612.25,-141.88"/>
<text text-anchor="middle" x="548.75" y="-128.38" font-family="Helvetica,sans-Serif" font-size="10.00">double_hashing::hashFxn</text>
</a>
</g>
</g>
<!-- Node3&#45;&gt;Node4 -->
<g id="edge3_Node000003_Node000004" class="edge">
<title>Node3&#45;&gt;Node4</title>
<g id="a_edge3_Node000003_Node000004"><a xlink:title=" ">
<path fill="none" stroke="#63b8ff" d="M392.98,-86.25C414.22,-94.41 445.43,-105.91 473.25,-114.25 479.15,-116.02 485.34,-117.73 491.54,-119.36"/>
<polygon fill="#63b8ff" stroke="#63b8ff" points="490.61,-122.73 501.16,-121.81 492.33,-115.95 490.61,-122.73"/>
</a>
</g>
</g>
<!-- Node5 -->
<g id="Node000005" class="node">
<title>Node5</title>
<g id="a_Node000005"><a xlink:href="namespacedouble__hashing.html#a33968a1178289ab61445dd4000df7082" target="_top" xlink:title="Used for second hash function.">
<polygon fill="white" stroke="#666666" points="624.25,-104.88 473.25,-104.88 473.25,-85.62 624.25,-85.62 624.25,-104.88"/>
<text text-anchor="middle" x="548.75" y="-91.38" font-family="Helvetica,sans-Serif" font-size="10.00">double_hashing::otherHashFxn</text>
</a>
</g>
</g>
<!-- Node3&#45;&gt;Node5 -->
<g id="edge4_Node000003_Node000005" class="edge">
<title>Node3&#45;&gt;Node5</title>
<g id="a_edge4_Node000003_Node000005"><a xlink:title=" ">
<path fill="none" stroke="#63b8ff" d="M437.52,-83.62C445.39,-84.45 453.47,-85.3 461.51,-86.15"/>
<polygon fill="#63b8ff" stroke="#63b8ff" points="461,-89.62 471.32,-87.19 461.74,-82.66 461,-89.62"/>
</a>
</g>
</g>
<!-- Node6 -->
<g id="Node000006" class="node">
<title>Node6</title>
<g id="a_Node000006"><a xlink:href="namespacedouble__hashing.html#ac2adfce49ac57f6dbd1778d2c1ce0d2b" target="_top" xlink:title=" ">
<polygon fill="white" stroke="#666666" points="614.5,-67.88 483,-67.88 483,-48.62 614.5,-48.62 614.5,-67.88"/>
<text text-anchor="middle" x="548.75" y="-54.38" font-family="Helvetica,sans-Serif" font-size="10.00">double_hashing::putProber</text>
</a>
</g>
</g>
<!-- Node3&#45;&gt;Node6 -->
<g id="edge5_Node000003_Node000006" class="edge">
<title>Node3&#45;&gt;Node6</title>
<g id="a_edge5_Node000003_Node000006"><a xlink:title=" ">
<path fill="none" stroke="#63b8ff" d="M437.52,-69.26C448.65,-68.15 460.21,-67 471.47,-65.87"/>
<polygon fill="#63b8ff" stroke="#63b8ff" points="471.5,-69.39 481.1,-64.91 470.8,-62.42 471.5,-69.39"/>
</a>
</g>
</g>
<!-- Node7 -->
<g id="Node000007" class="node">
<title>Node7</title>
<g id="a_Node000007"><a xlink:href="namespacedouble__hashing.html#a29f543e2626bad58907661e1e45028a6" target="_top" xlink:title=" ">
<polygon fill="white" stroke="#666666" points="614.5,-30.5 483,-30.5 483,0 614.5,0 614.5,-30.5"/>
<text text-anchor="start" x="491" y="-17" font-family="Helvetica,sans-Serif" font-size="10.00">double_hashing::searching</text>
<text text-anchor="middle" x="548.75" y="-5.75" font-family="Helvetica,sans-Serif" font-size="10.00">Prober</text>
</a>
</g>
</g>
<!-- Node3&#45;&gt;Node7 -->
<g id="edge6_Node000003_Node000007" class="edge">
<title>Node3&#45;&gt;Node7</title>
<g id="a_edge6_Node000003_Node000007"><a xlink:title=" ">
<path fill="none" stroke="#63b8ff" d="M395.8,-66.16C417.04,-58.61 446.91,-48.1 473.25,-39.25 477.94,-37.67 482.81,-36.06 487.7,-34.45"/>
<polygon fill="#63b8ff" stroke="#63b8ff" points="488.54,-37.86 496.96,-31.42 486.37,-31.2 488.54,-37.86"/>
</a>
</g>
</g>
</g>
</svg>
