<?xml version="1.0" encoding="UTF-8" standalone="no"?>
<!DOCTYPE svg PUBLIC "-//W3C//DTD SVG 1.1//EN"
 "http://www.w3.org/Graphics/SVG/1.1/DTD/svg11.dtd">
<!-- Generated by graphviz version 12.1.1 (20240910.0053)
 -->
<!-- Title: linear_probing::rehash Pages: 1 -->
<svg width="580pt" height="113pt"
 viewBox="0.00 0.00 579.75 112.88" xmlns="http://www.w3.org/2000/svg" xmlns:xlink="http://www.w3.org/1999/xlink">
<g id="graph0" class="graph" transform="scale(1 1) rotate(0) translate(4 108.88)">
<title>linear_probing::rehash</title>
<!-- Node1 -->
<g id="Node000001" class="node">
<title>Node1</title>
<g id="a_Node000001"><a xlink:title=" ">
<polygon fill="#999999" stroke="#666666" points="111.25,-67.88 0,-67.88 0,-48.62 111.25,-48.62 111.25,-67.88"/>
<text text-anchor="middle" x="55.62" y="-54.38" font-family="Helvetica,sans-Serif" font-size="10.00">linear_probing::rehash</text>
</a>
</g>
</g>
<!-- Node2 -->
<g id="Node000002" class="node">
<title>Node2</title>
<g id="a_Node000002"><a xlink:href="namespacelinear__probing.html#a16d34fd3511626a83ab00665d7bc34d1" target="_top" xlink:title=" ">
<polygon fill="white" stroke="#666666" points="245,-67.88 147.25,-67.88 147.25,-48.62 245,-48.62 245,-67.88"/>
<text text-anchor="middle" x="196.12" y="-54.38" font-family="Helvetica,sans-Serif" font-size="10.00">linear_probing::add</text>
</a>
</g>
</g>
<!-- Node1&#45;&gt;Node2 -->
<g id="edge1_Node000001_Node000002" class="edge">
<title>Node1&#45;&gt;Node2</title>
<g id="a_edge1_Node000001_Node000002"><a xlink:title=" ">
<path fill="none" stroke="#63b8ff" d="M111.36,-51.63C119.38,-51.48 127.67,-51.46 135.77,-51.56"/>
<polygon fill="#63b8ff" stroke="#63b8ff" points="135.48,-55.06 145.55,-51.76 135.62,-48.06 135.48,-55.06"/>
</a>
</g>
</g>
<!-- Node2&#45;&gt;Node1 -->
<g id="edge6_Node000002_Node000001" class="edge">
<title>Node2&#45;&gt;Node1</title>
<g id="a_edge6_Node000002_Node000001"><a xlink:title=" ">
<path fill="none" stroke="#63b8ff" d="M147.06,-64.71C139.23,-64.93 131,-65.03 122.83,-64.99"/>
<polygon fill="#63b8ff" stroke="#63b8ff" points="122.92,-61.5 112.88,-64.88 122.84,-68.49 122.92,-61.5"/>
</a>
</g>
</g>
<!-- Node3 -->
<g id="Node000003" class="node">
<title>Node3</title>
<g id="a_Node000003"><a xlink:href="namespacelinear__probing.html#a6322209aaa91b7bbf16f96e1cc52b746" target="_top" xlink:title=" ">
<polygon fill="white" stroke="#666666" points="411.75,-67.88 281,-67.88 281,-48.62 411.75,-48.62 411.75,-67.88"/>
<text text-anchor="middle" x="346.38" y="-54.38" font-family="Helvetica,sans-Serif" font-size="10.00">linear_probing::linearProbe</text>
</a>
</g>
</g>
<!-- Node2&#45;&gt;Node3 -->
<g id="edge2_Node000002_Node000003" class="edge">
<title>Node2&#45;&gt;Node3</title>
<g id="a_edge2_Node000002_Node000003"><a xlink:title=" ">
<path fill="none" stroke="#63b8ff" d="M245.26,-58.25C253.05,-58.25 261.27,-58.25 269.53,-58.25"/>
<polygon fill="#63b8ff" stroke="#63b8ff" points="269.25,-61.75 279.25,-58.25 269.25,-54.75 269.25,-61.75"/>
</a>
</g>
</g>
<!-- Node4 -->
<g id="Node000004" class="node">
<title>Node4</title>
<g id="a_Node000004"><a xlink:href="namespacelinear__probing.html#a4bde7a47f98dd1ad24c84038e2608527" target="_top" xlink:title="Hash a key. Uses the STL library&#39;s std::hash() function.">
<polygon fill="white" stroke="#666666" points="569.5,-104.88 450,-104.88 450,-85.62 569.5,-85.62 569.5,-104.88"/>
<text text-anchor="middle" x="509.75" y="-91.38" font-family="Helvetica,sans-Serif" font-size="10.00">linear_probing::hashFxn</text>
</a>
</g>
</g>
<!-- Node3&#45;&gt;Node4 -->
<g id="edge3_Node000003_Node000004" class="edge">
<title>Node3&#45;&gt;Node4</title>
<g id="a_edge3_Node000003_Node000004"><a xlink:title=" ">
<path fill="none" stroke="#63b8ff" d="M391.47,-68.36C410.68,-72.77 433.41,-77.98 453.71,-82.63"/>
<polygon fill="#63b8ff" stroke="#63b8ff" points="452.7,-85.99 463.23,-84.81 454.27,-79.17 452.7,-85.99"/>
</a>
</g>
</g>
<!-- Node5 -->
<g id="Node000005" class="node">
<title>Node5</title>
<g id="a_Node000005"><a xlink:href="namespacelinear__probing.html#a75d779938df7ebc68581d922b60a2541" target="_top" xlink:title=" ">
<polygon fill="white" stroke="#666666" points="571.75,-67.88 447.75,-67.88 447.75,-48.62 571.75,-48.62 571.75,-67.88"/>
<text text-anchor="middle" x="509.75" y="-54.38" font-family="Helvetica,sans-Serif" font-size="10.00">linear_probing::putProber</text>
</a>
</g>
</g>
<!-- Node3&#45;&gt;Node5 -->
<g id="edge4_Node000003_Node000005" class="edge">
<title>Node3&#45;&gt;Node5</title>
<g id="a_edge4_Node000003_Node000005"><a xlink:title=" ">
<path fill="none" stroke="#63b8ff" d="M412.08,-58.25C420.01,-58.25 428.15,-58.25 436.18,-58.25"/>
<polygon fill="#63b8ff" stroke="#63b8ff" points="435.92,-61.75 445.92,-58.25 435.92,-54.75 435.92,-61.75"/>
</a>
</g>
</g>
<!-- Node6 -->
<g id="Node000006" class="node">
<title>Node6</title>
<g id="a_Node000006"><a xlink:href="namespacelinear__probing.html#a942fc8407b8001890ea26830cdcd9d77" target="_top" xlink:title=" ">
<polygon fill="white" stroke="#666666" points="571.75,-30.5 447.75,-30.5 447.75,0 571.75,0 571.75,-30.5"/>
<text text-anchor="start" x="455.75" y="-17" font-family="Helvetica,sans-Serif" font-size="10.00">linear_probing::searching</text>
<text text-anchor="middle" x="509.75" y="-5.75" font-family="Helvetica,sans-Serif" font-size="10.00">Prober</text>
</a>
</g>
</g>
<!-- Node3&#45;&gt;Node6 -->
<g id="edge5_Node000003_Node000006" class="edge">
<title>Node3&#45;&gt;Node6</title>
<g id="a_edge5_Node000003_Node000006"><a xlink:title=" ">
<path fill="none" stroke="#63b8ff" d="M385.21,-48.17C401.18,-43.91 420.3,-38.82 438.67,-33.92"/>
<polygon fill="#63b8ff" stroke="#63b8ff" points="439.45,-37.34 448.22,-31.38 437.65,-30.57 439.45,-37.34"/>
</a>
</g>
</g>
</g>
</svg>
