<?xml version="1.0" encoding="UTF-8" standalone="no"?>
<!DOCTYPE svg PUBLIC "-//W3C//DTD SVG 1.1//EN"
 "http://www.w3.org/Graphics/SVG/1.1/DTD/svg11.dtd">
<!-- Generated by graphviz version 12.1.1 (20240910.0053)
 -->
<!-- Title: double_hashing::remove Pages: 1 -->
<svg width="494pt" height="150pt"
 viewBox="0.00 0.00 494.00 149.88" xmlns="http://www.w3.org/2000/svg" xmlns:xlink="http://www.w3.org/1999/xlink">
<g id="graph0" class="graph" transform="scale(1 1) rotate(0) translate(4 145.88)">
<title>double_hashing::remove</title>
<!-- Node1 -->
<g id="Node000001" class="node">
<title>Node1</title>
<g id="a_Node000001"><a xlink:title=" ">
<polygon fill="#999999" stroke="#666666" points="121.75,-85.88 0,-85.88 0,-66.62 121.75,-66.62 121.75,-85.88"/>
<text text-anchor="middle" x="60.88" y="-72.38" font-family="Helvetica,sans-Serif" font-size="10.00">double_hashing::remove</text>
</a>
</g>
</g>
<!-- Node2 -->
<g id="Node000002" class="node">
<title>Node2</title>
<g id="a_Node000002"><a xlink:href="namespacedouble__hashing.html#a8f8ff4fb018e1bb32d67d8a1885d3200" target="_top" xlink:title="Performs double hashing to resolve collisions.">
<polygon fill="white" stroke="#666666" points="299,-85.88 157.75,-85.88 157.75,-66.62 299,-66.62 299,-85.88"/>
<text text-anchor="middle" x="228.38" y="-72.38" font-family="Helvetica,sans-Serif" font-size="10.00">double_hashing::doubleHash</text>
</a>
</g>
</g>
<!-- Node1&#45;&gt;Node2 -->
<g id="edge1_Node000001_Node000002" class="edge">
<title>Node1&#45;&gt;Node2</title>
<g id="a_edge1_Node000001_Node000002"><a xlink:title=" ">
<path fill="none" stroke="#63b8ff" d="M122.09,-76.25C129.88,-76.25 137.96,-76.25 146.02,-76.25"/>
<polygon fill="#63b8ff" stroke="#63b8ff" points="145.86,-79.75 155.86,-76.25 145.86,-72.75 145.86,-79.75"/>
</a>
</g>
</g>
<!-- Node3 -->
<g id="Node000003" class="node">
<title>Node3</title>
<g id="a_Node000003"><a xlink:href="namespacedouble__hashing.html#a0d90726ed1de7b3d2ae261baed048003" target="_top" xlink:title="Hash a key. Uses the STL library&#39;s std::hash() function.">
<polygon fill="white" stroke="#666666" points="474,-141.88 347,-141.88 347,-122.62 474,-122.62 474,-141.88"/>
<text text-anchor="middle" x="410.5" y="-128.38" font-family="Helvetica,sans-Serif" font-size="10.00">double_hashing::hashFxn</text>
</a>
</g>
</g>
<!-- Node2&#45;&gt;Node3 -->
<g id="edge2_Node000002_Node000003" class="edge">
<title>Node2&#45;&gt;Node3</title>
<g id="a_edge2_Node000002_Node000003"><a xlink:title=" ">
<path fill="none" stroke="#63b8ff" d="M254.73,-86.25C275.97,-94.41 307.18,-105.91 335,-114.25 340.9,-116.02 347.09,-117.73 353.29,-119.36"/>
<polygon fill="#63b8ff" stroke="#63b8ff" points="352.36,-122.73 362.91,-121.81 354.08,-115.95 352.36,-122.73"/>
</a>
</g>
</g>
<!-- Node4 -->
<g id="Node000004" class="node">
<title>Node4</title>
<g id="a_Node000004"><a xlink:href="namespacedouble__hashing.html#a33968a1178289ab61445dd4000df7082" target="_top" xlink:title="Used for second hash function.">
<polygon fill="white" stroke="#666666" points="486,-104.88 335,-104.88 335,-85.62 486,-85.62 486,-104.88"/>
<text text-anchor="middle" x="410.5" y="-91.38" font-family="Helvetica,sans-Serif" font-size="10.00">double_hashing::otherHashFxn</text>
</a>
</g>
</g>
<!-- Node2&#45;&gt;Node4 -->
<g id="edge3_Node000002_Node000004" class="edge">
<title>Node2&#45;&gt;Node4</title>
<g id="a_edge3_Node000002_Node000004"><a xlink:title=" ">
<path fill="none" stroke="#63b8ff" d="M299.27,-83.62C307.14,-84.45 315.22,-85.3 323.26,-86.15"/>
<polygon fill="#63b8ff" stroke="#63b8ff" points="322.75,-89.62 333.07,-87.19 323.49,-82.66 322.75,-89.62"/>
</a>
</g>
</g>
<!-- Node5 -->
<g id="Node000005" class="node">
<title>Node5</title>
<g id="a_Node000005"><a xlink:href="namespacedouble__hashing.html#ac2adfce49ac57f6dbd1778d2c1ce0d2b" target="_top" xlink:title=" ">
<polygon fill="white" stroke="#666666" points="476.25,-67.88 344.75,-67.88 344.75,-48.62 476.25,-48.62 476.25,-67.88"/>
<text text-anchor="middle" x="410.5" y="-54.38" font-family="Helvetica,sans-Serif" font-size="10.00">double_hashing::putProber</text>
</a>
</g>
</g>
<!-- Node2&#45;&gt;Node5 -->
<g id="edge4_Node000002_Node000005" class="edge">
<title>Node2&#45;&gt;Node5</title>
<g id="a_edge4_Node000002_Node000005"><a xlink:title=" ">
<path fill="none" stroke="#63b8ff" d="M299.27,-69.26C310.4,-68.15 321.96,-67 333.22,-65.87"/>
<polygon fill="#63b8ff" stroke="#63b8ff" points="333.25,-69.39 342.85,-64.91 332.55,-62.42 333.25,-69.39"/>
</a>
</g>
</g>
<!-- Node6 -->
<g id="Node000006" class="node">
<title>Node6</title>
<g id="a_Node000006"><a xlink:href="namespacedouble__hashing.html#a29f543e2626bad58907661e1e45028a6" target="_top" xlink:title=" ">
<polygon fill="white" stroke="#666666" points="476.25,-30.5 344.75,-30.5 344.75,0 476.25,0 476.25,-30.5"/>
<text text-anchor="start" x="352.75" y="-17" font-family="Helvetica,sans-Serif" font-size="10.00">double_hashing::searching</text>
<text text-anchor="middle" x="410.5" y="-5.75" font-family="Helvetica,sans-Serif" font-size="10.00">Prober</text>
</a>
</g>
</g>
<!-- Node2&#45;&gt;Node6 -->
<g id="edge5_Node000002_Node000006" class="edge">
<title>Node2&#45;&gt;Node6</title>
<g id="a_edge5_Node000002_Node000006"><a xlink:title=" ">
<path fill="none" stroke="#63b8ff" d="M257.55,-66.16C278.79,-58.61 308.66,-48.1 335,-39.25 339.69,-37.67 344.56,-36.06 349.45,-34.45"/>
<polygon fill="#63b8ff" stroke="#63b8ff" points="350.29,-37.86 358.71,-31.42 348.12,-31.2 350.29,-37.86"/>
</a>
</g>
</g>
</g>
</svg>
