<?xml version="1.0" encoding="UTF-8" standalone="no"?>
<!DOCTYPE svg PUBLIC "-//W3C//DTD SVG 1.1//EN"
 "http://www.w3.org/Graphics/SVG/1.1/DTD/svg11.dtd">
<!-- Generated by graphviz version 12.1.1 (20240910.0053)
 -->
<!-- Title: games::memory_game::assign_results Pages: 1 -->
<svg width="427pt" height="223pt"
 viewBox="0.00 0.00 427.25 222.88" xmlns="http://www.w3.org/2000/svg" xmlns:xlink="http://www.w3.org/1999/xlink">

<svg id="main" version="1.1" xmlns="http://www.w3.org/2000/svg" xmlns:xlink="http://www.w3.org/1999/xlink" xml:space="preserve">

<style type="text/css"><![CDATA[
.node, .edge {opacity: 0.7;}
.node.selected, .edge.selected {opacity: 1;}
.edge:hover path { stroke: red; }
.edge:hover polygon { stroke: red; fill: red; }
]]></style>
<script type="application/ecmascript" xlink:href="svg.min.js"/>
<svg id="graph" class="graph">
<g id="graph0" class="graph" transform="scale(1 1) rotate(0) translate(4 218.88)">
<title>games::memory_game::assign_results</title>
<!-- Node1 -->
<g id="Node000001" class="node">
<title>Node1</title>
<g id="a_Node000001"><a xlink:title="Function to assign the results to the table.">
<polygon fill="#999999" stroke="#666666" points="115.75,-116.88 0,-116.88 0,-86.38 115.75,-86.38 115.75,-116.88"/>
<text text-anchor="start" x="8" y="-103.38" font-family="Helvetica,sans-Serif" font-size="10.00">games::memory_game</text>
<text text-anchor="middle" x="57.88" y="-92.12" font-family="Helvetica,sans-Serif" font-size="10.00">::assign_results</text>
</a>
</g>
</g>
<!-- Node1&#45;&gt;Node1 -->
<g id="edge6_Node000001_Node000001" class="edge">
<title>Node1&#45;&gt;Node1</title>
<g id="a_edge6_Node000001_Node000001"><a xlink:title=" ">
<path fill="none" stroke="#63b8ff" d="M30.98,-117.36C25.5,-126.43 34.46,-134.88 57.88,-134.88 70.68,-134.88 79.16,-132.35 83.32,-128.58"/>
<polygon fill="#63b8ff" stroke="#63b8ff" points="86.77,-129.23 84.57,-118.86 79.83,-128.33 86.77,-129.23"/>
</a>
</g>
</g>
<!-- Node2 -->
<g id="Node000002" class="node">
<title>Node2</title>
<g id="a_Node000002"><a xlink:href="namespacegames_1_1memory__game.html#a5714d97649c0edd57b4fb449799676a3" target="_top" xlink:title="Function that asks the user for their input in the table they previously chose.">
<polygon fill="white" stroke="#666666" points="267.5,-165.88 151.75,-165.88 151.75,-135.38 267.5,-135.38 267.5,-165.88"/>
<text text-anchor="start" x="159.75" y="-152.38" font-family="Helvetica,sans-Serif" font-size="10.00">games::memory_game</text>
<text text-anchor="middle" x="209.62" y="-141.12" font-family="Helvetica,sans-Serif" font-size="10.00">::ask_data</text>
</a>
</g>
</g>
<!-- Node1&#45;&gt;Node2 -->
<g id="edge1_Node000001_Node000002" class="edge">
<title>Node1&#45;&gt;Node2</title>
<g id="a_edge1_Node000001_Node000002"><a xlink:title=" ">
<path fill="none" stroke="#63b8ff" d="M106.67,-117.26C120.38,-121.75 135.49,-126.69 149.78,-131.37"/>
<polygon fill="#63b8ff" stroke="#63b8ff" points="148.48,-134.63 159.08,-134.41 150.66,-127.98 148.48,-134.63"/>
</a>
</g>
</g>
<!-- Node4 -->
<g id="Node000004" class="node">
<title>Node4</title>
<g id="a_Node000004"><a xlink:href="namespacegames_1_1memory__game.html#ac589ef65abb0a6b9a7116ee0f9fd5280" target="_top" xlink:title="Utility function to print the table.">
<polygon fill="white" stroke="#666666" points="419.25,-214.88 303.5,-214.88 303.5,-184.38 419.25,-184.38 419.25,-214.88"/>
<text text-anchor="start" x="311.5" y="-201.38" font-family="Helvetica,sans-Serif" font-size="10.00">games::memory_game</text>
<text text-anchor="middle" x="361.38" y="-190.12" font-family="Helvetica,sans-Serif" font-size="10.00">::print_table</text>
</a>
</g>
</g>
<!-- Node1&#45;&gt;Node4 -->
<g id="edge9_Node000001_Node000004" class="edge">
<title>Node1&#45;&gt;Node4</title>
<g id="a_edge9_Node000001_Node000004"><a xlink:title=" ">
<path fill="none" stroke="#63b8ff" d="M73.27,-117.21C90.23,-134.45 120.11,-161.52 151.75,-174.62 196.11,-193 250.01,-199.09 291.9,-200.67"/>
<polygon fill="#63b8ff" stroke="#63b8ff" points="291.78,-204.17 301.87,-200.96 291.98,-197.17 291.78,-204.17"/>
</a>
</g>
</g>
<!-- Node6 -->
<g id="Node000006" class="node">
<title>Node6</title>
<g id="a_Node000006"><a xlink:href="namespacegames_1_1memory__game.html#ad573c8ae66ab66156d03e5e81bbba214" target="_top" xlink:title="Initializes the table with the letters.">
<polygon fill="white" stroke="#666666" points="267.5,-116.88 151.75,-116.88 151.75,-86.38 267.5,-86.38 267.5,-116.88"/>
<text text-anchor="start" x="159.75" y="-103.38" font-family="Helvetica,sans-Serif" font-size="10.00">games::memory_game</text>
<text text-anchor="middle" x="209.62" y="-92.12" font-family="Helvetica,sans-Serif" font-size="10.00">::init</text>
</a>
</g>
</g>
<!-- Node1&#45;&gt;Node6 -->
<g id="edge7_Node000001_Node000006" class="edge">
<title>Node1&#45;&gt;Node6</title>
<g id="a_edge7_Node000001_Node000006"><a xlink:title=" ">
<path fill="none" stroke="#63b8ff" d="M115.92,-101.62C123.89,-101.62 132.16,-101.62 140.32,-101.62"/>
<polygon fill="#63b8ff" stroke="#63b8ff" points="140.23,-105.13 150.23,-101.63 140.23,-98.13 140.23,-105.13"/>
</a>
</g>
</g>
<!-- Node7 -->
<g id="Node000007" class="node">
<title>Node7</title>
<g id="a_Node000007"><a xlink:href="namespacegames_1_1memory__game.html#a370760f2b328ad341bcb77d82fa17b01" target="_top" xlink:title="Checks if the two values given by the user match.">
<polygon fill="white" stroke="#666666" points="267.5,-67.88 151.75,-67.88 151.75,-37.38 267.5,-37.38 267.5,-67.88"/>
<text text-anchor="start" x="159.75" y="-54.38" font-family="Helvetica,sans-Serif" font-size="10.00">games::memory_game</text>
<text text-anchor="middle" x="209.62" y="-43.12" font-family="Helvetica,sans-Serif" font-size="10.00">::match</text>
</a>
</g>
</g>
<!-- Node1&#45;&gt;Node7 -->
<g id="edge8_Node000001_Node000007" class="edge">
<title>Node1&#45;&gt;Node7</title>
<g id="a_edge8_Node000001_Node000007"><a xlink:title=" ">
<path fill="none" stroke="#63b8ff" d="M106.67,-85.99C120.38,-81.5 135.49,-76.56 149.78,-71.88"/>
<polygon fill="#63b8ff" stroke="#63b8ff" points="150.66,-75.27 159.08,-68.84 148.48,-68.62 150.66,-75.27"/>
</a>
</g>
</g>
<!-- Node8 -->
<g id="Node000008" class="node">
<title>Node8</title>
<g id="a_Node000008"><a xlink:href="memory__game_8cpp.html#a5bdc30951221eae9c33413ff9eb574f6" target="_top" xlink:title="for sleep()">
<polygon fill="white" stroke="#666666" points="233.75,-19.25 185.5,-19.25 185.5,0 233.75,0 233.75,-19.25"/>
<text text-anchor="middle" x="209.62" y="-5.75" font-family="Helvetica,sans-Serif" font-size="10.00">SLEEP</text>
</a>
</g>
</g>
<!-- Node1&#45;&gt;Node8 -->
<g id="edge10_Node000001_Node000008" class="edge">
<title>Node1&#45;&gt;Node8</title>
<g id="a_edge10_Node000001_Node000008"><a xlink:title=" ">
<path fill="none" stroke="#63b8ff" d="M75.09,-86C92.72,-69.74 122.32,-44.48 151.75,-28.62 158.77,-24.84 166.68,-21.62 174.32,-18.97"/>
<polygon fill="#63b8ff" stroke="#63b8ff" points="175.29,-22.33 183.74,-15.94 173.15,-15.67 175.29,-22.33"/>
</a>
</g>
</g>
<!-- Node3 -->
<g id="Node000003" class="node">
<title>Node3</title>
<g id="a_Node000003"><a xlink:href="namespacegames_1_1memory__game.html#a33167bb9cce6d527b478b4f6ae8c3f59" target="_top" xlink:title="Utility function to verify if the given input is a number or not. This is very useful to prevent the ...">
<polygon fill="white" stroke="#666666" points="419.25,-165.88 303.5,-165.88 303.5,-135.38 419.25,-135.38 419.25,-165.88"/>
<text text-anchor="start" x="311.5" y="-152.38" font-family="Helvetica,sans-Serif" font-size="10.00">games::memory_game</text>
<text text-anchor="middle" x="361.38" y="-141.12" font-family="Helvetica,sans-Serif" font-size="10.00">::is_number</text>
</a>
</g>
</g>
<!-- Node2&#45;&gt;Node3 -->
<g id="edge2_Node000002_Node000003" class="edge">
<title>Node2&#45;&gt;Node3</title>
<g id="a_edge2_Node000002_Node000003"><a xlink:title=" ">
<path fill="none" stroke="#63b8ff" d="M267.67,-150.62C275.64,-150.62 283.91,-150.62 292.07,-150.62"/>
<polygon fill="#63b8ff" stroke="#63b8ff" points="291.98,-154.13 301.98,-150.63 291.98,-147.13 291.98,-154.13"/>
</a>
</g>
</g>
<!-- Node2&#45;&gt;Node4 -->
<g id="edge3_Node000002_Node000004" class="edge">
<title>Node2&#45;&gt;Node4</title>
<g id="a_edge3_Node000002_Node000004"><a xlink:title=" ">
<path fill="none" stroke="#63b8ff" d="M258.42,-166.26C272.13,-170.75 287.24,-175.69 301.53,-180.37"/>
<polygon fill="#63b8ff" stroke="#63b8ff" points="300.23,-183.63 310.83,-183.41 302.41,-176.98 300.23,-183.63"/>
</a>
</g>
</g>
<!-- Node5 -->
<g id="Node000005" class="node">
<title>Node5</title>
<g id="a_Node000005"><a xlink:href="namespacegames_1_1memory__game.html#adc62ebb75853446656e24932bdc6dd6b" target="_top" xlink:title="Utility function that resets the data if the user enters an invalid value.">
<polygon fill="white" stroke="#666666" points="419.25,-116.88 303.5,-116.88 303.5,-86.38 419.25,-86.38 419.25,-116.88"/>
<text text-anchor="start" x="311.5" y="-103.38" font-family="Helvetica,sans-Serif" font-size="10.00">games::memory_game</text>
<text text-anchor="middle" x="361.38" y="-92.12" font-family="Helvetica,sans-Serif" font-size="10.00">::reset_data</text>
</a>
</g>
</g>
<!-- Node2&#45;&gt;Node5 -->
<g id="edge4_Node000002_Node000005" class="edge">
<title>Node2&#45;&gt;Node5</title>
<g id="a_edge4_Node000002_Node000005"><a xlink:title=" ">
<path fill="none" stroke="#63b8ff" d="M241.65,-134.88C256.34,-129.19 274.5,-122.87 292.16,-117.22"/>
<polygon fill="#63b8ff" stroke="#63b8ff" points="293.12,-120.59 301.61,-114.25 291.02,-113.91 293.12,-120.59"/>
</a>
</g>
</g>
<!-- Node5&#45;&gt;Node2 -->
<g id="edge5_Node000005_Node000002" class="edge">
<title>Node5&#45;&gt;Node2</title>
<g id="a_edge5_Node000005_Node000002"><a xlink:title=" ">
<path fill="none" stroke="#63b8ff" d="M329.47,-117.32C314.71,-123.04 296.41,-129.41 278.63,-135.1"/>
<polygon fill="#63b8ff" stroke="#63b8ff" points="277.6,-131.75 269.11,-138.08 279.7,-138.43 277.6,-131.75"/>
</a>
</g>
</g>
</g>
</svg>
</svg>

<style type='text/css'>
<![CDATA[
[data-mouse-over-selected='false'] { opacity: 0.7; }
[data-mouse-over-selected='true']  { opacity: 1.0; }
]]>
</style>
<script type="application/ecmascript"><![CDATA[
document.addEventListener('DOMContentLoaded', (event) => {
  highlightEdges();
  highlightAdjacentNodes();
});
]]></script>
</svg>
