<?xml version="1.0" encoding="UTF-8" standalone="no"?>
<!DOCTYPE svg PUBLIC "-//W3C//DTD SVG 1.1//EN"
 "http://www.w3.org/Graphics/SVG/1.1/DTD/svg11.dtd">
<!-- Generated by graphviz version 12.1.1 (20240910.0053)
 -->
<!-- Title: quadratic_probing::add Pages: 1 -->
<svg width="391pt" height="137pt"
 viewBox="0.00 0.00 391.25 136.50" xmlns="http://www.w3.org/2000/svg" xmlns:xlink="http://www.w3.org/1999/xlink">
<g id="graph0" class="graph" transform="scale(1 1) rotate(0) translate(4 132.5)">
<title>quadratic_probing::add</title>
<!-- Node1 -->
<g id="Node000001" class="node">
<title>Node1</title>
<g id="a_Node000001"><a xlink:title=" ">
<polygon fill="#999999" stroke="#666666" points="114.25,-24.88 0,-24.88 0,-5.63 114.25,-5.63 114.25,-24.88"/>
<text text-anchor="middle" x="57.12" y="-11.38" font-family="Helvetica,sans-Serif" font-size="10.00">quadratic_probing::add</text>
</a>
</g>
</g>
<!-- Node2 -->
<g id="Node000002" class="node">
<title>Node2</title>
<g id="a_Node000002"><a xlink:href="namespacequadratic__probing.html#ab431981b54c0bae1b2956f716aee1dcf" target="_top" xlink:title=" ">
<polygon fill="white" stroke="#666666" points="248.75,-79.5 150.25,-79.5 150.25,-49 248.75,-49 248.75,-79.5"/>
<text text-anchor="start" x="158.25" y="-66" font-family="Helvetica,sans-Serif" font-size="10.00">quadratic_probing::</text>
<text text-anchor="middle" x="199.5" y="-54.75" font-family="Helvetica,sans-Serif" font-size="10.00">quadraticProbe</text>
</a>
</g>
</g>
<!-- Node1&#45;&gt;Node2 -->
<g id="edge1_Node000001_Node000002" class="edge">
<title>Node1&#45;&gt;Node2</title>
<g id="a_edge1_Node000001_Node000002"><a xlink:title=" ">
<path fill="none" stroke="#63b8ff" d="M86.87,-25.28C102.97,-30.9 123.6,-38.11 142.74,-44.79"/>
<polygon fill="#63b8ff" stroke="#63b8ff" points="141.46,-48.05 152.06,-48.04 143.77,-41.44 141.46,-48.05"/>
</a>
</g>
</g>
<!-- Node6 -->
<g id="Node000006" class="node">
<title>Node6</title>
<g id="a_Node000006"><a xlink:href="namespacequadratic__probing.html#ada6f1f44f7e83b0094fbcbe170788486" target="_top" xlink:title=" ">
<polygon fill="white" stroke="#666666" points="248.75,-30.5 150.25,-30.5 150.25,0 248.75,0 248.75,-30.5"/>
<text text-anchor="start" x="158.25" y="-17" font-family="Helvetica,sans-Serif" font-size="10.00">quadratic_probing::</text>
<text text-anchor="middle" x="199.5" y="-5.75" font-family="Helvetica,sans-Serif" font-size="10.00">rehash</text>
</a>
</g>
</g>
<!-- Node1&#45;&gt;Node6 -->
<g id="edge5_Node000001_Node000006" class="edge">
<title>Node1&#45;&gt;Node6</title>
<g id="a_edge5_Node000001_Node000006"><a xlink:title=" ">
<path fill="none" stroke="#63b8ff" d="M114.41,-8.62C122.3,-8.48 130.44,-8.46 138.4,-8.56"/>
<polygon fill="#63b8ff" stroke="#63b8ff" points="138.31,-12.06 148.37,-8.76 138.45,-5.06 138.31,-12.06"/>
</a>
</g>
</g>
<!-- Node3 -->
<g id="Node000003" class="node">
<title>Node3</title>
<g id="a_Node000003"><a xlink:href="namespacequadratic__probing.html#a2093d91dd3d377cf0a5c939e45dcefc7" target="_top" xlink:title=" ">
<polygon fill="white" stroke="#666666" points="383.25,-128.5 284.75,-128.5 284.75,-98 383.25,-98 383.25,-128.5"/>
<text text-anchor="start" x="292.75" y="-115" font-family="Helvetica,sans-Serif" font-size="10.00">quadratic_probing::</text>
<text text-anchor="middle" x="334" y="-103.75" font-family="Helvetica,sans-Serif" font-size="10.00">hashFxn</text>
</a>
</g>
</g>
<!-- Node2&#45;&gt;Node3 -->
<g id="edge2_Node000002_Node000003" class="edge">
<title>Node2&#45;&gt;Node3</title>
<g id="a_edge2_Node000002_Node000003"><a xlink:title=" ">
<path fill="none" stroke="#63b8ff" d="M242.79,-79.89C254.62,-84.26 267.63,-89.08 280,-93.65"/>
<polygon fill="#63b8ff" stroke="#63b8ff" points="278.65,-96.88 289.24,-97.07 281.07,-90.32 278.65,-96.88"/>
</a>
</g>
</g>
<!-- Node4 -->
<g id="Node000004" class="node">
<title>Node4</title>
<g id="a_Node000004"><a xlink:href="namespacequadratic__probing.html#adccc63a7e57cc6dba75bd62f40feb88b" target="_top" xlink:title=" ">
<polygon fill="white" stroke="#666666" points="383.25,-79.5 284.75,-79.5 284.75,-49 383.25,-49 383.25,-79.5"/>
<text text-anchor="start" x="292.75" y="-66" font-family="Helvetica,sans-Serif" font-size="10.00">quadratic_probing::</text>
<text text-anchor="middle" x="334" y="-54.75" font-family="Helvetica,sans-Serif" font-size="10.00">putProber</text>
</a>
</g>
</g>
<!-- Node2&#45;&gt;Node4 -->
<g id="edge3_Node000002_Node000004" class="edge">
<title>Node2&#45;&gt;Node4</title>
<g id="a_edge3_Node000002_Node000004"><a xlink:title=" ">
<path fill="none" stroke="#63b8ff" d="M249.09,-64.25C256.92,-64.25 265.1,-64.25 273.16,-64.25"/>
<polygon fill="#63b8ff" stroke="#63b8ff" points="272.91,-67.75 282.91,-64.25 272.91,-60.75 272.91,-67.75"/>
</a>
</g>
</g>
<!-- Node5 -->
<g id="Node000005" class="node">
<title>Node5</title>
<g id="a_Node000005"><a xlink:href="namespacequadratic__probing.html#aeb6bca8db4768226f8ea8291ea4f83f6" target="_top" xlink:title=" ">
<polygon fill="white" stroke="#666666" points="383.25,-30.5 284.75,-30.5 284.75,0 383.25,0 383.25,-30.5"/>
<text text-anchor="start" x="292.75" y="-17" font-family="Helvetica,sans-Serif" font-size="10.00">quadratic_probing::</text>
<text text-anchor="middle" x="334" y="-5.75" font-family="Helvetica,sans-Serif" font-size="10.00">searchingProber</text>
</a>
</g>
</g>
<!-- Node2&#45;&gt;Node5 -->
<g id="edge4_Node000002_Node000005" class="edge">
<title>Node2&#45;&gt;Node5</title>
<g id="a_edge4_Node000002_Node000005"><a xlink:title=" ">
<path fill="none" stroke="#63b8ff" d="M242.79,-48.61C254.62,-44.24 267.63,-39.42 280,-34.85"/>
<polygon fill="#63b8ff" stroke="#63b8ff" points="281.07,-38.18 289.24,-31.43 278.65,-31.62 281.07,-38.18"/>
</a>
</g>
</g>
<!-- Node6&#45;&gt;Node1 -->
<g id="edge6_Node000006_Node000001" class="edge">
<title>Node6&#45;&gt;Node1</title>
<g id="a_edge6_Node000006_Node000001"><a xlink:title=" ">
<path fill="none" stroke="#63b8ff" d="M149.89,-21.71C142.11,-21.92 133.94,-22.02 125.82,-22"/>
<polygon fill="#63b8ff" stroke="#63b8ff" points="125.96,-18.5 115.93,-21.9 125.89,-25.5 125.96,-18.5"/>
</a>
</g>
</g>
</g>
</svg>
