<?xml version="1.0" encoding="UTF-8" standalone="no"?>
<!DOCTYPE svg PUBLIC "-//W3C//DTD SVG 1.1//EN"
 "http://www.w3.org/Graphics/SVG/1.1/DTD/svg11.dtd">
<!-- Generated by graphviz version 12.1.1 (20240910.0053)
 -->
<!-- Title: quadratic_probing::removalInfo Pages: 1 -->
<!--zoomable 178 -->

<svg id="main" version="1.1" xmlns="http://www.w3.org/2000/svg" xmlns:xlink="http://www.w3.org/1999/xlink" xml:space="preserve" onload="init(evt)">

<style type="text/css"><![CDATA[
.node, .edge {opacity: 0.7;}
.node.selected, .edge.selected {opacity: 1;}
.edge:hover path { stroke: red; }
.edge:hover polygon { stroke: red; fill: red; }
]]></style>

<defs>
  <circle id="rim" cx="0" cy="0" r="7"/>
  <circle id="rim2" cx="0" cy="0" r="3.5"/>
  <g id="zoomPlus">
    <use xlink:href="#rim" fill="#404040"><set attributeName="fill" to="#808080" begin="zoomplus.mouseover" end="zoomplus.mouseout"/></use>
    <path d="M-4,0h8M0,-4v8" fill="none" stroke="white" stroke-width="1.5" pointer-events="none"/>
  </g>
  <g id="zoomMin">
    <use xlink:href="#rim" fill="#404040"><set attributeName="fill" to="#808080" begin="zoomminus.mouseover" end="zoomminus.mouseout"/></use>
    <path d="M-4,0h8" fill="none" stroke="white" stroke-width="1.5" pointer-events="none"/>
  </g>
  <g id="arrowUp" transform="translate(30 24)">
    <use xlink:href="#rim"/>
    <path pointer-events="none" fill="none" stroke="white" stroke-width="1.5" d="M0,-3.0v7 M-2.5,-0.5L0,-3.0L2.5,-0.5"/>
  </g>
  <g id="arrowRight" transform="rotate(90) translate(36 -43)">
    <use xlink:href="#rim"/>
    <path pointer-events="none" fill="none" stroke="white" stroke-width="1.5" d="M0,-3.0v7 M-2.5,-0.5L0,-3.0L2.5,-0.5"/>
  </g>
  <g id="arrowDown" transform="rotate(180) translate(-30 -48)">
    <use xlink:href="#rim"/>
    <path pointer-events="none" fill="none" stroke="white" stroke-width="1.5" d="M0,-3.0v7 M-2.5,-0.5L0,-3.0L2.5,-0.5"/>
  </g>
  <g id="arrowLeft" transform="rotate(270) translate(-36 17)">
    <use xlink:href="#rim"/>
    <path pointer-events="none" fill="none" stroke="white" stroke-width="1.5" d="M0,-3.0v7 M-2.5,-0.5L0,-3.0L2.5,-0.5"/>
  </g>
  <g id="resetDef">
    <use xlink:href="#rim2" fill="#404040"><set attributeName="fill" to="#808080" begin="reset.mouseover" end="reset.mouseout"/></use>
  </g>
</defs>
<script type="application/ecmascript">
var viewWidth = 510;
var viewHeight = 178;
var sectionId = 'dynsection-5';
</script>
<script type="application/ecmascript" xlink:href="svg.min.js"/>
<svg id="graph" class="graph">
<g id="viewport">
<title>quadratic_probing::removalInfo</title>
<!-- Node1 -->
<g id="Node000001" class="node">
<title>Node1</title>
<g id="a_Node000001"><a xlink:title=" ">
<polygon fill="#999999" stroke="#666666" points="98.5,-126.5 0,-126.5 0,-96 98.5,-96 98.5,-126.5"/>
<text text-anchor="start" x="8" y="-113" font-family="Helvetica,sans-Serif" font-size="10.00">quadratic_probing::</text>
<text text-anchor="middle" x="49.25" y="-101.75" font-family="Helvetica,sans-Serif" font-size="10.00">removalInfo</text>
</a>
</g>
</g>
<!-- Node2 -->
<g id="Node000002" class="node">
<title>Node2</title>
<g id="a_Node000002"><a xlink:href="namespacequadratic__probing.html#a40d617ebf4d6ba21bcda8d8d1faa2357" target="_top" xlink:title=" ">
<polygon fill="white" stroke="#666666" points="233,-169.5 134.5,-169.5 134.5,-139 233,-139 233,-169.5"/>
<text text-anchor="start" x="142.5" y="-156" font-family="Helvetica,sans-Serif" font-size="10.00">quadratic_probing::</text>
<text text-anchor="middle" x="183.75" y="-144.75" font-family="Helvetica,sans-Serif" font-size="10.00">display</text>
</a>
</g>
</g>
<!-- Node1&#45;&gt;Node2 -->
<g id="edge1_Node000001_Node000002" class="edge">
<title>Node1&#45;&gt;Node2</title>
<g id="a_edge1_Node000001_Node000002"><a xlink:title=" ">
<path fill="none" stroke="#63b8ff" d="M98.46,-126.9C106.59,-129.53 115.11,-132.3 123.48,-135.02"/>
<polygon fill="#63b8ff" stroke="#63b8ff" points="122.32,-138.32 132.91,-138.08 124.48,-131.66 122.32,-138.32"/>
</a>
</g>
</g>
<!-- Node3 -->
<g id="Node000003" class="node">
<title>Node3</title>
<g id="a_Node000003"><a xlink:href="namespacequadratic__probing.html#a2093d91dd3d377cf0a5c939e45dcefc7" target="_top" xlink:title=" ">
<polygon fill="white" stroke="#666666" points="502,-128.5 403.5,-128.5 403.5,-98 502,-98 502,-128.5"/>
<text text-anchor="start" x="411.5" y="-115" font-family="Helvetica,sans-Serif" font-size="10.00">quadratic_probing::</text>
<text text-anchor="middle" x="452.75" y="-103.75" font-family="Helvetica,sans-Serif" font-size="10.00">hashFxn</text>
</a>
</g>
</g>
<!-- Node1&#45;&gt;Node3 -->
<g id="edge2_Node000001_Node000003" class="edge">
<title>Node1&#45;&gt;Node3</title>
<g id="a_edge2_Node000001_Node000003"><a xlink:title=" ">
<path fill="none" stroke="#63b8ff" d="M98.68,-111.49C172.23,-111.86 311.97,-112.55 391.82,-112.95"/>
<polygon fill="#63b8ff" stroke="#63b8ff" points="391.62,-116.45 401.63,-113 391.65,-109.45 391.62,-116.45"/>
</a>
</g>
</g>
<!-- Node4 -->
<g id="Node000004" class="node">
<title>Node4</title>
<g id="a_Node000004"><a xlink:href="namespacequadratic__probing.html#a07a0467b24102260fbb6b554c453c20a" target="_top" xlink:title=" ">
<polygon fill="white" stroke="#666666" points="233,-83.5 134.5,-83.5 134.5,-53 233,-53 233,-83.5"/>
<text text-anchor="start" x="142.5" y="-70" font-family="Helvetica,sans-Serif" font-size="10.00">quadratic_probing::</text>
<text text-anchor="middle" x="183.75" y="-58.75" font-family="Helvetica,sans-Serif" font-size="10.00">remove</text>
</a>
</g>
</g>
<!-- Node1&#45;&gt;Node4 -->
<g id="edge3_Node000001_Node000004" class="edge">
<title>Node1&#45;&gt;Node4</title>
<g id="a_edge3_Node000001_Node000004"><a xlink:title=" ">
<path fill="none" stroke="#63b8ff" d="M98.46,-95.6C106.59,-92.97 115.11,-90.2 123.48,-87.48"/>
<polygon fill="#63b8ff" stroke="#63b8ff" points="124.48,-90.84 132.91,-84.42 122.32,-84.18 124.48,-90.84"/>
</a>
</g>
</g>
<!-- Node5 -->
<g id="Node000005" class="node">
<title>Node5</title>
<g id="a_Node000005"><a xlink:href="namespacequadratic__probing.html#ab431981b54c0bae1b2956f716aee1dcf" target="_top" xlink:title=" ">
<polygon fill="white" stroke="#666666" points="367.5,-82.5 269,-82.5 269,-52 367.5,-52 367.5,-82.5"/>
<text text-anchor="start" x="277" y="-69" font-family="Helvetica,sans-Serif" font-size="10.00">quadratic_probing::</text>
<text text-anchor="middle" x="318.25" y="-57.75" font-family="Helvetica,sans-Serif" font-size="10.00">quadraticProbe</text>
</a>
</g>
</g>
<!-- Node4&#45;&gt;Node5 -->
<g id="edge4_Node000004_Node000005" class="edge">
<title>Node4&#45;&gt;Node5</title>
<g id="a_edge4_Node000004_Node000005"><a xlink:title=" ">
<path fill="none" stroke="#63b8ff" d="M233.34,-67.88C241.17,-67.82 249.35,-67.76 257.41,-67.7"/>
<polygon fill="#63b8ff" stroke="#63b8ff" points="257.18,-71.2 267.16,-67.63 257.13,-64.2 257.18,-71.2"/>
</a>
</g>
</g>
<!-- Node5&#45;&gt;Node3 -->
<g id="edge5_Node000005_Node000003" class="edge">
<title>Node5&#45;&gt;Node3</title>
<g id="a_edge5_Node000005_Node000003"><a xlink:title=" ">
<path fill="none" stroke="#63b8ff" d="M364.48,-82.95C374.61,-86.47 385.46,-90.24 395.96,-93.88"/>
<polygon fill="#63b8ff" stroke="#63b8ff" points="394.7,-97.15 405.3,-97.12 397,-90.54 394.7,-97.15"/>
</a>
</g>
</g>
<!-- Node6 -->
<g id="Node000006" class="node">
<title>Node6</title>
<g id="a_Node000006"><a xlink:href="namespacequadratic__probing.html#adccc63a7e57cc6dba75bd62f40feb88b" target="_top" xlink:title=" ">
<polygon fill="white" stroke="#666666" points="502,-79.5 403.5,-79.5 403.5,-49 502,-49 502,-79.5"/>
<text text-anchor="start" x="411.5" y="-66" font-family="Helvetica,sans-Serif" font-size="10.00">quadratic_probing::</text>
<text text-anchor="middle" x="452.75" y="-54.75" font-family="Helvetica,sans-Serif" font-size="10.00">putProber</text>
</a>
</g>
</g>
<!-- Node5&#45;&gt;Node6 -->
<g id="edge6_Node000005_Node000006" class="edge">
<title>Node5&#45;&gt;Node6</title>
<g id="a_edge6_Node000005_Node000006"><a xlink:title=" ">
<path fill="none" stroke="#63b8ff" d="M367.84,-66.15C375.67,-65.97 383.85,-65.79 391.91,-65.6"/>
<polygon fill="#63b8ff" stroke="#63b8ff" points="391.74,-69.11 401.66,-65.38 391.58,-62.11 391.74,-69.11"/>
</a>
</g>
</g>
<!-- Node7 -->
<g id="Node000007" class="node">
<title>Node7</title>
<g id="a_Node000007"><a xlink:href="namespacequadratic__probing.html#aeb6bca8db4768226f8ea8291ea4f83f6" target="_top" xlink:title=" ">
<polygon fill="white" stroke="#666666" points="502,-30.5 403.5,-30.5 403.5,0 502,0 502,-30.5"/>
<text text-anchor="start" x="411.5" y="-17" font-family="Helvetica,sans-Serif" font-size="10.00">quadratic_probing::</text>
<text text-anchor="middle" x="452.75" y="-5.75" font-family="Helvetica,sans-Serif" font-size="10.00">searchingProber</text>
</a>
</g>
</g>
<!-- Node5&#45;&gt;Node7 -->
<g id="edge7_Node000005_Node000007" class="edge">
<title>Node5&#45;&gt;Node7</title>
<g id="a_edge7_Node000005_Node000007"><a xlink:title=" ">
<path fill="none" stroke="#63b8ff" d="M359.36,-51.51C372.6,-46.31 387.48,-40.47 401.38,-35.02"/>
<polygon fill="#63b8ff" stroke="#63b8ff" points="402.33,-38.4 410.36,-31.49 399.78,-31.89 402.33,-38.4"/>
</a>
</g>
</g>
</g>
</svg>

<g id="navigator" transform="translate(0 0)" fill="#404254">
  <rect fill="#f2f5e9" fill-opacity="0.5" stroke="#606060" stroke-width=".5" x="0" y="0" width="60" height="60"/>
  <use id="zoomplus" xlink:href="#zoomPlus" x="17" y="9" onmousedown="handleZoom(evt,'in')"/>
  <use id="zoomminus" xlink:href="#zoomMin" x="42" y="9" onmousedown="handleZoom(evt,'out')"/>
  <use id="reset" xlink:href="#resetDef" x="30" y="36" onmousedown="handleReset()"/>
   <use id="arrowup" xlink:href="#arrowUp" x="0" y="0" onmousedown="handlePan(0,-1)"/>
  <use id="arrowright" xlink:href="#arrowRight" x="0" y="0" onmousedown="handlePan(1,0)"/>
  <use id="arrowdown" xlink:href="#arrowDown" x="0" y="0" onmousedown="handlePan(0,1)"/>
  <use id="arrowleft" xlink:href="#arrowLeft" x="0" y="0" onmousedown="handlePan(-1,0)"/>
</g>
<svg viewBox="0 0 15 15" width="100%" height="30px" preserveAspectRatio="xMaxYMin meet">
 <g id="arrow_out" transform="scale(0.3 0.3)">
  <a xlink:href="namespacequadratic__probing_a69fe1f7c36fe004ba83eef2ca82e7e30_cgraph_org.svg" target="_base">
   <rect id="button" ry="5" rx="5" y="6" x="6" height="38" width="38"
        fill="#f2f5e9" fill-opacity="0.5" stroke="#606060" stroke-width="1.0"/>
   <path id="arrow"
     d="M 11.500037,31.436501 C 11.940474,20.09759 22.043105,11.32322 32.158766,21.979434 L 37.068811,17.246167 C 37.068811,17.246167 37.088388,32 37.088388,32 L 22.160133,31.978069 C 22.160133,31.978069 26.997745,27.140456 26.997745,27.140456 C 18.528582,18.264221 13.291696,25.230495 11.500037,31.436501 z"
     style="fill:#404040;"/>
  </a>
 </g>
</svg>

<style type='text/css'>
<![CDATA[
[data-mouse-over-selected='false'] { opacity: 0.7; }
[data-mouse-over-selected='true']  { opacity: 1.0; }
]]>
</style>
<script type="application/ecmascript"><![CDATA[
document.addEventListener('DOMContentLoaded', (event) => {
  highlightEdges();
  highlightAdjacentNodes();
});
]]></script>
</svg>
