<?xml version="1.0" encoding="UTF-8" standalone="no"?>
<!DOCTYPE svg PUBLIC "-//W3C//DTD SVG 1.1//EN"
 "http://www.w3.org/Graphics/SVG/1.1/DTD/svg11.dtd">
<!-- Generated by graphviz version 12.1.1 (20240910.0053)
 -->
<!-- Title: machine_learning::kohonen_som_tracer Pages: 1 -->
<svg width="458pt" height="64pt"
 viewBox="0.00 0.00 458.00 64.25" xmlns="http://www.w3.org/2000/svg" xmlns:xlink="http://www.w3.org/1999/xlink">
<g id="graph0" class="graph" transform="scale(1 1) rotate(0) translate(4 60.25)">
<title>machine_learning::kohonen_som_tracer</title>
<!-- Node1 -->
<g id="Node000001" class="node">
<title>Node1</title>
<g id="a_Node000001"><a xlink:title=" ">
<polygon fill="#999999" stroke="#666666" points="134.5,-42.88 0,-42.88 0,-12.37 134.5,-12.37 134.5,-42.88"/>
<text text-anchor="start" x="8" y="-29.38" font-family="Helvetica,sans-Serif" font-size="10.00">machine_learning::kohonen</text>
<text text-anchor="middle" x="67.25" y="-18.12" font-family="Helvetica,sans-Serif" font-size="10.00">_som_tracer</text>
</a>
</g>
</g>
<!-- Node2 -->
<g id="Node000002" class="node">
<title>Node2</title>
<g id="a_Node000002"><a xlink:href="namespacemachine__learning.html#ae868ad43698a1d69ba46ea3827d7d2c3" target="_top" xlink:title=" ">
<polygon fill="white" stroke="#666666" points="297.5,-42.88 170.5,-42.88 170.5,-12.37 297.5,-12.37 297.5,-42.88"/>
<text text-anchor="start" x="178.5" y="-29.38" font-family="Helvetica,sans-Serif" font-size="10.00">machine_learning::update</text>
<text text-anchor="middle" x="234" y="-18.12" font-family="Helvetica,sans-Serif" font-size="10.00">_weights</text>
</a>
</g>
</g>
<!-- Node1&#45;&gt;Node2 -->
<g id="edge1_Node000001_Node000002" class="edge">
<title>Node1&#45;&gt;Node2</title>
<g id="a_edge1_Node000001_Node000002"><a xlink:title=" ">
<path fill="none" stroke="#63b8ff" d="M134.79,-27.62C142.74,-27.62 150.89,-27.62 158.94,-27.62"/>
<polygon fill="#63b8ff" stroke="#63b8ff" points="158.7,-31.13 168.7,-27.63 158.7,-24.13 158.7,-31.13"/>
</a>
</g>
</g>
<!-- Node3 -->
<g id="Node000003" class="node">
<title>Node3</title>
<g id="a_Node000003"><a xlink:href="group__machine__learning.html#ga60f9186ccb682724a8792a2bf81e9b9e" target="_top" xlink:title=" ">
<polygon fill="white" stroke="#666666" points="424.88,-56.25 358.62,-56.25 358.62,-37 424.88,-37 424.88,-56.25"/>
<text text-anchor="middle" x="391.75" y="-42.75" font-family="Helvetica,sans-Serif" font-size="10.00">get_min_2d</text>
</a>
</g>
</g>
<!-- Node2&#45;&gt;Node3 -->
<g id="edge2_Node000002_Node000003" class="edge">
<title>Node2&#45;&gt;Node3</title>
<g id="a_edge2_Node000002_Node000003"><a xlink:title=" ">
<path fill="none" stroke="#63b8ff" d="M297.9,-35.3C314.45,-37.32 331.94,-39.45 347.22,-41.31"/>
<polygon fill="#63b8ff" stroke="#63b8ff" points="346.57,-44.76 356.92,-42.5 347.42,-37.81 346.57,-44.76"/>
</a>
</g>
</g>
<!-- Node4 -->
<g id="Node000004" class="node">
<title>Node4</title>
<g id="a_Node000004"><a xlink:href="namespacemachine__learning.html#a6f1c98c016ad34ff3d9f39372161bd35" target="_top" xlink:title=" ">
<polygon fill="white" stroke="#666666" points="450,-19.25 333.5,-19.25 333.5,0 450,0 450,-19.25"/>
<text text-anchor="middle" x="391.75" y="-5.75" font-family="Helvetica,sans-Serif" font-size="10.00">machine_learning::sum</text>
</a>
</g>
</g>
<!-- Node2&#45;&gt;Node4 -->
<g id="edge3_Node000002_Node000004" class="edge">
<title>Node2&#45;&gt;Node4</title>
<g id="a_edge3_Node000002_Node000004"><a xlink:title=" ">
<path fill="none" stroke="#63b8ff" d="M297.9,-20.36C305.82,-19.44 313.95,-18.5 321.96,-17.58"/>
<polygon fill="#63b8ff" stroke="#63b8ff" points="322.11,-21.08 331.65,-16.46 321.31,-14.13 322.11,-21.08"/>
</a>
</g>
</g>
</g>
</svg>
