<?xml version="1.0" encoding="UTF-8" standalone="no"?>
<!DOCTYPE svg PUBLIC "-//W3C//DTD SVG 1.1//EN"
 "http://www.w3.org/Graphics/SVG/1.1/DTD/svg11.dtd">
<!-- Generated by graphviz version 12.1.1 (20240910.0053)
 -->
<!-- Title: quadratic_probing::addInfo Pages: 1 -->
<svg width="526pt" height="212pt"
 viewBox="0.00 0.00 525.75 211.50" xmlns="http://www.w3.org/2000/svg" xmlns:xlink="http://www.w3.org/1999/xlink">
<g id="graph0" class="graph" transform="scale(1 1) rotate(0) translate(4 207.5)">
<title>quadratic_probing::addInfo</title>
<!-- Node1 -->
<g id="Node000001" class="node">
<title>Node1</title>
<g id="a_Node000001"><a xlink:title=" ">
<polygon fill="#999999" stroke="#666666" points="98.5,-73.5 0,-73.5 0,-43 98.5,-43 98.5,-73.5"/>
<text text-anchor="start" x="8" y="-60" font-family="Helvetica,sans-Serif" font-size="10.00">quadratic_probing::</text>
<text text-anchor="middle" x="49.25" y="-48.75" font-family="Helvetica,sans-Serif" font-size="10.00">addInfo</text>
</a>
</g>
</g>
<!-- Node2 -->
<g id="Node000002" class="node">
<title>Node2</title>
<g id="a_Node000002"><a xlink:href="namespacequadratic__probing.html#a00ebcc6d39653eccc26f8432efbfc8d9" target="_top" xlink:title=" ">
<polygon fill="white" stroke="#666666" points="248.75,-110.88 134.5,-110.88 134.5,-91.62 248.75,-91.62 248.75,-110.88"/>
<text text-anchor="middle" x="191.62" y="-97.38" font-family="Helvetica,sans-Serif" font-size="10.00">quadratic_probing::add</text>
</a>
</g>
</g>
<!-- Node1&#45;&gt;Node2 -->
<g id="edge1_Node000001_Node000002" class="edge">
<title>Node1&#45;&gt;Node2</title>
<g id="a_edge1_Node000001_Node000002"><a xlink:title=" ">
<path fill="none" stroke="#63b8ff" d="M98.95,-73.17C114.63,-77.97 131.89,-83.26 147.16,-87.94"/>
<polygon fill="#63b8ff" stroke="#63b8ff" points="145.84,-91.19 156.43,-90.78 147.89,-84.5 145.84,-91.19"/>
</a>
</g>
</g>
<!-- Node4 -->
<g id="Node000004" class="node">
<title>Node4</title>
<g id="a_Node000004"><a xlink:href="namespacequadratic__probing.html#a2093d91dd3d377cf0a5c939e45dcefc7" target="_top" xlink:title=" ">
<polygon fill="white" stroke="#666666" points="517.75,-94.5 419.25,-94.5 419.25,-64 517.75,-64 517.75,-94.5"/>
<text text-anchor="start" x="427.25" y="-81" font-family="Helvetica,sans-Serif" font-size="10.00">quadratic_probing::</text>
<text text-anchor="middle" x="468.5" y="-69.75" font-family="Helvetica,sans-Serif" font-size="10.00">hashFxn</text>
</a>
</g>
</g>
<!-- Node1&#45;&gt;Node4 -->
<g id="edge9_Node000001_Node000004" class="edge">
<title>Node1&#45;&gt;Node4</title>
<g id="a_edge9_Node000001_Node000004"><a xlink:title=" ">
<path fill="none" stroke="#63b8ff" d="M98.93,-60.7C175.62,-64.56 324.36,-72.05 407.52,-76.23"/>
<polygon fill="#63b8ff" stroke="#63b8ff" points="407.13,-79.72 417.3,-76.72 407.48,-72.72 407.13,-79.72"/>
</a>
</g>
</g>
<!-- Node8 -->
<g id="Node000008" class="node">
<title>Node8</title>
<g id="a_Node000008"><a xlink:href="namespacequadratic__probing.html#a40d617ebf4d6ba21bcda8d8d1faa2357" target="_top" xlink:title=" ">
<polygon fill="white" stroke="#666666" points="240.88,-30.5 142.38,-30.5 142.38,0 240.88,0 240.88,-30.5"/>
<text text-anchor="start" x="150.38" y="-17" font-family="Helvetica,sans-Serif" font-size="10.00">quadratic_probing::</text>
<text text-anchor="middle" x="191.62" y="-5.75" font-family="Helvetica,sans-Serif" font-size="10.00">display</text>
</a>
</g>
</g>
<!-- Node1&#45;&gt;Node8 -->
<g id="edge8_Node000001_Node000008" class="edge">
<title>Node1&#45;&gt;Node8</title>
<g id="a_edge8_Node000001_Node000008"><a xlink:title=" ">
<path fill="none" stroke="#63b8ff" d="M98.95,-43.33C109.3,-40.16 120.33,-36.78 131.03,-33.51"/>
<polygon fill="#63b8ff" stroke="#63b8ff" points="132.03,-36.86 140.56,-30.59 129.97,-30.17 132.03,-36.86"/>
</a>
</g>
</g>
<!-- Node3 -->
<g id="Node000003" class="node">
<title>Node3</title>
<g id="a_Node000003"><a xlink:href="namespacequadratic__probing.html#ab431981b54c0bae1b2956f716aee1dcf" target="_top" xlink:title=" ">
<polygon fill="white" stroke="#666666" points="383.25,-165.5 284.75,-165.5 284.75,-135 383.25,-135 383.25,-165.5"/>
<text text-anchor="start" x="292.75" y="-152" font-family="Helvetica,sans-Serif" font-size="10.00">quadratic_probing::</text>
<text text-anchor="middle" x="334" y="-140.75" font-family="Helvetica,sans-Serif" font-size="10.00">quadraticProbe</text>
</a>
</g>
</g>
<!-- Node2&#45;&gt;Node3 -->
<g id="edge2_Node000002_Node000003" class="edge">
<title>Node2&#45;&gt;Node3</title>
<g id="a_edge2_Node000002_Node000003"><a xlink:title=" ">
<path fill="none" stroke="#63b8ff" d="M221.37,-111.28C237.47,-116.9 258.1,-124.11 277.24,-130.79"/>
<polygon fill="#63b8ff" stroke="#63b8ff" points="275.96,-134.05 286.56,-134.04 278.27,-127.44 275.96,-134.05"/>
</a>
</g>
</g>
<!-- Node7 -->
<g id="Node000007" class="node">
<title>Node7</title>
<g id="a_Node000007"><a xlink:href="namespacequadratic__probing.html#ada6f1f44f7e83b0094fbcbe170788486" target="_top" xlink:title=" ">
<polygon fill="white" stroke="#666666" points="383.25,-116.5 284.75,-116.5 284.75,-86 383.25,-86 383.25,-116.5"/>
<text text-anchor="start" x="292.75" y="-103" font-family="Helvetica,sans-Serif" font-size="10.00">quadratic_probing::</text>
<text text-anchor="middle" x="334" y="-91.75" font-family="Helvetica,sans-Serif" font-size="10.00">rehash</text>
</a>
</g>
</g>
<!-- Node2&#45;&gt;Node7 -->
<g id="edge6_Node000002_Node000007" class="edge">
<title>Node2&#45;&gt;Node7</title>
<g id="a_edge6_Node000002_Node000007"><a xlink:title=" ">
<path fill="none" stroke="#63b8ff" d="M248.91,-94.62C256.8,-94.48 264.94,-94.46 272.9,-94.56"/>
<polygon fill="#63b8ff" stroke="#63b8ff" points="272.81,-98.06 282.87,-94.76 272.95,-91.06 272.81,-98.06"/>
</a>
</g>
</g>
<!-- Node3&#45;&gt;Node4 -->
<g id="edge3_Node000003_Node000004" class="edge">
<title>Node3&#45;&gt;Node4</title>
<g id="a_edge3_Node000003_Node000004"><a xlink:title=" ">
<path fill="none" stroke="#63b8ff" d="M365.42,-134.61C371.35,-131.53 377.5,-128.31 383.25,-125.25 398.29,-117.25 414.74,-108.31 429.09,-100.45"/>
<polygon fill="#63b8ff" stroke="#63b8ff" points="430.71,-103.56 437.79,-95.68 427.34,-97.42 430.71,-103.56"/>
</a>
</g>
</g>
<!-- Node5 -->
<g id="Node000005" class="node">
<title>Node5</title>
<g id="a_Node000005"><a xlink:href="namespacequadratic__probing.html#adccc63a7e57cc6dba75bd62f40feb88b" target="_top" xlink:title=" ">
<polygon fill="white" stroke="#666666" points="517.75,-203.5 419.25,-203.5 419.25,-173 517.75,-173 517.75,-203.5"/>
<text text-anchor="start" x="427.25" y="-190" font-family="Helvetica,sans-Serif" font-size="10.00">quadratic_probing::</text>
<text text-anchor="middle" x="468.5" y="-178.75" font-family="Helvetica,sans-Serif" font-size="10.00">putProber</text>
</a>
</g>
</g>
<!-- Node3&#45;&gt;Node5 -->
<g id="edge4_Node000003_Node000005" class="edge">
<title>Node3&#45;&gt;Node5</title>
<g id="a_edge4_Node000003_Node000005"><a xlink:title=" ">
<path fill="none" stroke="#63b8ff" d="M383.59,-164.18C391.51,-166.46 399.79,-168.83 407.94,-171.17"/>
<polygon fill="#63b8ff" stroke="#63b8ff" points="406.89,-174.51 417.47,-173.9 408.82,-167.78 406.89,-174.51"/>
</a>
</g>
</g>
<!-- Node6 -->
<g id="Node000006" class="node">
<title>Node6</title>
<g id="a_Node000006"><a xlink:href="namespacequadratic__probing.html#aeb6bca8db4768226f8ea8291ea4f83f6" target="_top" xlink:title=" ">
<polygon fill="white" stroke="#666666" points="517.75,-154.5 419.25,-154.5 419.25,-124 517.75,-124 517.75,-154.5"/>
<text text-anchor="start" x="427.25" y="-141" font-family="Helvetica,sans-Serif" font-size="10.00">quadratic_probing::</text>
<text text-anchor="middle" x="468.5" y="-129.75" font-family="Helvetica,sans-Serif" font-size="10.00">searchingProber</text>
</a>
</g>
</g>
<!-- Node3&#45;&gt;Node6 -->
<g id="edge5_Node000003_Node000006" class="edge">
<title>Node3&#45;&gt;Node6</title>
<g id="a_edge5_Node000003_Node000006"><a xlink:title=" ">
<path fill="none" stroke="#63b8ff" d="M383.59,-146.22C391.42,-145.57 399.6,-144.89 407.66,-144.22"/>
<polygon fill="#63b8ff" stroke="#63b8ff" points="407.74,-147.72 417.41,-143.41 407.16,-140.75 407.74,-147.72"/>
</a>
</g>
</g>
<!-- Node7&#45;&gt;Node2 -->
<g id="edge7_Node000007_Node000002" class="edge">
<title>Node7&#45;&gt;Node2</title>
<g id="a_edge7_Node000007_Node000002"><a xlink:title=" ">
<path fill="none" stroke="#63b8ff" d="M284.39,-107.71C276.61,-107.92 268.44,-108.02 260.32,-108"/>
<polygon fill="#63b8ff" stroke="#63b8ff" points="260.46,-104.5 250.43,-107.9 260.39,-111.5 260.46,-104.5"/>
</a>
</g>
</g>
</g>
</svg>
