<?xml version="1.0" encoding="UTF-8" standalone="no"?>
<!DOCTYPE svg PUBLIC "-//W3C//DTD SVG 1.1//EN"
 "http://www.w3.org/Graphics/SVG/1.1/DTD/svg11.dtd">
<!-- Generated by graphviz version 12.1.1 (20240910.0053)
 -->
<!-- Title: linear_probing::removalInfo Pages: 1 -->
<svg width="618pt" height="151pt"
 viewBox="0.00 0.00 618.00 150.88" xmlns="http://www.w3.org/2000/svg" xmlns:xlink="http://www.w3.org/1999/xlink">
<g id="graph0" class="graph" transform="scale(1 1) rotate(0) translate(4 146.88)">
<title>linear_probing::removalInfo</title>
<!-- Node1 -->
<g id="Node000001" class="node">
<title>Node1</title>
<g id="a_Node000001"><a xlink:title=" ">
<polygon fill="#999999" stroke="#666666" points="133,-104.88 0,-104.88 0,-85.62 133,-85.62 133,-104.88"/>
<text text-anchor="middle" x="66.5" y="-91.38" font-family="Helvetica,sans-Serif" font-size="10.00">linear_probing::removalInfo</text>
</a>
</g>
</g>
<!-- Node2 -->
<g id="Node000002" class="node">
<title>Node2</title>
<g id="a_Node000002"><a xlink:href="namespacelinear__probing.html#ad87b71d810901fab69c4ad9d4d0fa635" target="_top" xlink:title=" ">
<polygon fill="white" stroke="#666666" points="282.5,-142.88 169.75,-142.88 169.75,-123.62 282.5,-123.62 282.5,-142.88"/>
<text text-anchor="middle" x="226.12" y="-129.38" font-family="Helvetica,sans-Serif" font-size="10.00">linear_probing::display</text>
</a>
</g>
</g>
<!-- Node1&#45;&gt;Node2 -->
<g id="edge1_Node000001_Node000002" class="edge">
<title>Node1&#45;&gt;Node2</title>
<g id="a_edge1_Node000001_Node000002"><a xlink:title=" ">
<path fill="none" stroke="#63b8ff" d="M109.33,-105.33C128.64,-109.99 151.79,-115.57 172.3,-120.51"/>
<polygon fill="#63b8ff" stroke="#63b8ff" points="171.36,-123.89 181.91,-122.83 173,-117.08 171.36,-123.89"/>
</a>
</g>
</g>
<!-- Node3 -->
<g id="Node000003" class="node">
<title>Node3</title>
<g id="a_Node000003"><a xlink:href="namespacelinear__probing.html#a4bde7a47f98dd1ad24c84038e2608527" target="_top" xlink:title="Hash a key. Uses the STL library&#39;s std::hash() function.">
<polygon fill="white" stroke="#666666" points="607.75,-104.88 488.25,-104.88 488.25,-85.62 607.75,-85.62 607.75,-104.88"/>
<text text-anchor="middle" x="548" y="-91.38" font-family="Helvetica,sans-Serif" font-size="10.00">linear_probing::hashFxn</text>
</a>
</g>
</g>
<!-- Node1&#45;&gt;Node3 -->
<g id="edge2_Node000001_Node000003" class="edge">
<title>Node1&#45;&gt;Node3</title>
<g id="a_edge2_Node000001_Node000003"><a xlink:title=" ">
<path fill="none" stroke="#63b8ff" d="M133.42,-95.25C223.39,-95.25 384.01,-95.25 476.37,-95.25"/>
<polygon fill="#63b8ff" stroke="#63b8ff" points="476.33,-98.75 486.33,-95.25 476.33,-91.75 476.33,-98.75"/>
</a>
</g>
</g>
<!-- Node4 -->
<g id="Node000004" class="node">
<title>Node4</title>
<g id="a_Node000004"><a xlink:href="namespacelinear__probing.html#abcf8d033f8115f39f3c93cfb6cee0b28" target="_top" xlink:title=" ">
<polygon fill="white" stroke="#666666" points="283.25,-66.88 169,-66.88 169,-47.62 283.25,-47.62 283.25,-66.88"/>
<text text-anchor="middle" x="226.12" y="-53.38" font-family="Helvetica,sans-Serif" font-size="10.00">linear_probing::remove</text>
</a>
</g>
</g>
<!-- Node1&#45;&gt;Node4 -->
<g id="edge3_Node000001_Node000004" class="edge">
<title>Node1&#45;&gt;Node4</title>
<g id="a_edge3_Node000001_Node000004"><a xlink:title=" ">
<path fill="none" stroke="#63b8ff" d="M109.33,-85.17C128.64,-80.51 151.79,-74.93 172.3,-69.99"/>
<polygon fill="#63b8ff" stroke="#63b8ff" points="173,-73.42 181.91,-67.67 171.36,-66.61 173,-73.42"/>
</a>
</g>
</g>
<!-- Node5 -->
<g id="Node000005" class="node">
<title>Node5</title>
<g id="a_Node000005"><a xlink:href="namespacelinear__probing.html#a6322209aaa91b7bbf16f96e1cc52b746" target="_top" xlink:title=" ">
<polygon fill="white" stroke="#666666" points="450,-66.88 319.25,-66.88 319.25,-47.62 450,-47.62 450,-66.88"/>
<text text-anchor="middle" x="384.62" y="-53.38" font-family="Helvetica,sans-Serif" font-size="10.00">linear_probing::linearProbe</text>
</a>
</g>
</g>
<!-- Node4&#45;&gt;Node5 -->
<g id="edge4_Node000004_Node000005" class="edge">
<title>Node4&#45;&gt;Node5</title>
<g id="a_edge4_Node000004_Node000005"><a xlink:title=" ">
<path fill="none" stroke="#63b8ff" d="M283.63,-57.25C291.42,-57.25 299.53,-57.25 307.61,-57.25"/>
<polygon fill="#63b8ff" stroke="#63b8ff" points="307.45,-60.75 317.45,-57.25 307.45,-53.75 307.45,-60.75"/>
</a>
</g>
</g>
<!-- Node5&#45;&gt;Node3 -->
<g id="edge5_Node000005_Node000003" class="edge">
<title>Node5&#45;&gt;Node3</title>
<g id="a_edge5_Node000005_Node000003"><a xlink:title=" ">
<path fill="none" stroke="#63b8ff" d="M428.45,-67.33C448.31,-72.01 472.14,-77.62 493.21,-82.58"/>
<polygon fill="#63b8ff" stroke="#63b8ff" points="492.25,-85.95 502.79,-84.84 493.85,-79.14 492.25,-85.95"/>
</a>
</g>
</g>
<!-- Node6 -->
<g id="Node000006" class="node">
<title>Node6</title>
<g id="a_Node000006"><a xlink:href="namespacelinear__probing.html#a75d779938df7ebc68581d922b60a2541" target="_top" xlink:title=" ">
<polygon fill="white" stroke="#666666" points="610,-67.88 486,-67.88 486,-48.62 610,-48.62 610,-67.88"/>
<text text-anchor="middle" x="548" y="-54.38" font-family="Helvetica,sans-Serif" font-size="10.00">linear_probing::putProber</text>
</a>
</g>
</g>
<!-- Node5&#45;&gt;Node6 -->
<g id="edge6_Node000005_Node000006" class="edge">
<title>Node5&#45;&gt;Node6</title>
<g id="a_edge6_Node000005_Node000006"><a xlink:title=" ">
<path fill="none" stroke="#63b8ff" d="M450.33,-57.65C458.26,-57.7 466.4,-57.75 474.43,-57.8"/>
<polygon fill="#63b8ff" stroke="#63b8ff" points="474.15,-61.3 484.17,-57.86 474.19,-54.3 474.15,-61.3"/>
</a>
</g>
</g>
<!-- Node7 -->
<g id="Node000007" class="node">
<title>Node7</title>
<g id="a_Node000007"><a xlink:href="namespacelinear__probing.html#a942fc8407b8001890ea26830cdcd9d77" target="_top" xlink:title=" ">
<polygon fill="white" stroke="#666666" points="610,-30.5 486,-30.5 486,0 610,0 610,-30.5"/>
<text text-anchor="start" x="494" y="-17" font-family="Helvetica,sans-Serif" font-size="10.00">linear_probing::searching</text>
<text text-anchor="middle" x="548" y="-5.75" font-family="Helvetica,sans-Serif" font-size="10.00">Prober</text>
</a>
</g>
</g>
<!-- Node5&#45;&gt;Node7 -->
<g id="edge7_Node000005_Node000007" class="edge">
<title>Node5&#45;&gt;Node7</title>
<g id="a_edge7_Node000005_Node000007"><a xlink:title=" ">
<path fill="none" stroke="#63b8ff" d="M424.28,-47.19C439.72,-43.17 458.02,-38.41 475.7,-33.81"/>
<polygon fill="#63b8ff" stroke="#63b8ff" points="476.34,-37.26 485.14,-31.35 474.58,-30.48 476.34,-37.26"/>
</a>
</g>
</g>
</g>
</svg>
