<?xml version="1.0" encoding="UTF-8" standalone="no"?>
<!DOCTYPE svg PUBLIC "-//W3C//DTD SVG 1.1//EN"
 "http://www.w3.org/Graphics/SVG/1.1/DTD/svg11.dtd">
<!-- Generated by graphviz version 12.1.1 (20240910.0053)
 -->
<!-- Title: math::rect_prism_volume Pages: 1 -->
<svg width="213pt" height="45pt"
 viewBox="0.00 0.00 212.72 45.25" xmlns="http://www.w3.org/2000/svg" xmlns:xlink="http://www.w3.org/1999/xlink">
<g id="graph0" class="graph" transform="scale(1 1) rotate(0) translate(4 41.25)">
<title>math::rect_prism_volume</title>
<!-- Node1 -->
<g id="Node000001" class="node">
<title>Node1</title>
<g id="a_Node000001"><a xlink:title="The volume of a rectangular prism.">
<polygon fill="#999999" stroke="#666666" points="126.25,-19.25 0,-19.25 0,0 126.25,0 126.25,-19.25"/>
<text text-anchor="middle" x="63.12" y="-5.75" font-family="Helvetica,sans-Serif" font-size="10.00">math::rect_prism_volume</text>
</a>
</g>
</g>
<!-- Node2 -->
<g id="Node000002" class="node">
<title>Node2</title>
<g id="a_Node000002"><a xlink:href="avltree_8cpp.html#ae4a66d8b0c2b0d626aea45977e358c83" target="_top" xlink:title=" ">
<polygon fill="white" stroke="#666666" points="204.5,-19.25 162.25,-19.25 162.25,0 204.5,0 204.5,-19.25"/>
<text text-anchor="middle" x="183.38" y="-5.75" font-family="Helvetica,sans-Serif" font-size="10.00">height</text>
</a>
</g>
</g>
<!-- Node1&#45;&gt;Node2 -->
<g id="edge1_Node000001_Node000002" class="edge">
<title>Node1&#45;&gt;Node2</title>
<g id="a_edge1_Node000001_Node000002"><a xlink:title=" ">
<path fill="none" stroke="#63b8ff" d="M126.71,-9.62C134.97,-9.62 143.15,-9.62 150.58,-9.62"/>
<polygon fill="#63b8ff" stroke="#63b8ff" points="150.4,-13.13 160.4,-9.63 150.4,-6.13 150.4,-13.13"/>
</a>
</g>
</g>
<!-- Node2&#45;&gt;Node2 -->
<g id="edge2_Node000002_Node000002" class="edge">
<title>Node2&#45;&gt;Node2</title>
<g id="a_edge2_Node000002_Node000002"><a xlink:title=" ">
<path fill="none" stroke="#63b8ff" d="M164.55,-19.54C155.96,-28.15 162.24,-37.25 183.38,-37.25 194.93,-37.25 202.05,-34.53 204.72,-30.65"/>
<polygon fill="#63b8ff" stroke="#63b8ff" points="208.16,-29.99 202.54,-21.01 201.33,-31.54 208.16,-29.99"/>
</a>
</g>
</g>
</g>
</svg>
