<?xml version="1.0" encoding="UTF-8" standalone="no"?>
<!DOCTYPE svg PUBLIC "-//W3C//DTD SVG 1.1//EN"
 "http://www.w3.org/Graphics/SVG/1.1/DTD/svg11.dtd">
<!-- Generated by graphviz version 12.1.1 (20240910.0053)
 -->
<!-- Title: quadratic_probing::rehash Pages: 1 -->
<svg width="526pt" height="137pt"
 viewBox="0.00 0.00 525.75 136.50" xmlns="http://www.w3.org/2000/svg" xmlns:xlink="http://www.w3.org/1999/xlink">
<g id="graph0" class="graph" transform="scale(1 1) rotate(0) translate(4 132.5)">
<title>quadratic_probing::rehash</title>
<!-- Node1 -->
<g id="Node000001" class="node">
<title>Node1</title>
<g id="a_Node000001"><a xlink:title=" ">
<polygon fill="#999999" stroke="#666666" points="98.5,-79.5 0,-79.5 0,-49 98.5,-49 98.5,-79.5"/>
<text text-anchor="start" x="8" y="-66" font-family="Helvetica,sans-Serif" font-size="10.00">quadratic_probing::</text>
<text text-anchor="middle" x="49.25" y="-54.75" font-family="Helvetica,sans-Serif" font-size="10.00">rehash</text>
</a>
</g>
</g>
<!-- Node2 -->
<g id="Node000002" class="node">
<title>Node2</title>
<g id="a_Node000002"><a xlink:href="namespacequadratic__probing.html#a00ebcc6d39653eccc26f8432efbfc8d9" target="_top" xlink:title=" ">
<polygon fill="white" stroke="#666666" points="248.75,-73.88 134.5,-73.88 134.5,-54.62 248.75,-54.62 248.75,-73.88"/>
<text text-anchor="middle" x="191.62" y="-60.38" font-family="Helvetica,sans-Serif" font-size="10.00">quadratic_probing::add</text>
</a>
</g>
</g>
<!-- Node1&#45;&gt;Node2 -->
<g id="edge1_Node000001_Node000002" class="edge">
<title>Node1&#45;&gt;Node2</title>
<g id="a_edge1_Node000001_Node000002"><a xlink:title=" ">
<path fill="none" stroke="#63b8ff" d="M98.95,-57.79C106.7,-57.57 114.84,-57.48 122.93,-57.5"/>
<polygon fill="#63b8ff" stroke="#63b8ff" points="122.75,-61 132.79,-57.6 122.82,-54 122.75,-61"/>
</a>
</g>
</g>
<!-- Node2&#45;&gt;Node1 -->
<g id="edge6_Node000002_Node000001" class="edge">
<title>Node2&#45;&gt;Node1</title>
<g id="a_edge6_Node000002_Node000001"><a xlink:title=" ">
<path fill="none" stroke="#63b8ff" d="M134.3,-70.88C126.44,-71.02 118.33,-71.04 110.4,-70.94"/>
<polygon fill="#63b8ff" stroke="#63b8ff" points="110.53,-67.44 100.47,-70.74 110.39,-74.44 110.53,-67.44"/>
</a>
</g>
</g>
<!-- Node3 -->
<g id="Node000003" class="node">
<title>Node3</title>
<g id="a_Node000003"><a xlink:href="namespacequadratic__probing.html#ab431981b54c0bae1b2956f716aee1dcf" target="_top" xlink:title=" ">
<polygon fill="white" stroke="#666666" points="383.25,-79.5 284.75,-79.5 284.75,-49 383.25,-49 383.25,-79.5"/>
<text text-anchor="start" x="292.75" y="-66" font-family="Helvetica,sans-Serif" font-size="10.00">quadratic_probing::</text>
<text text-anchor="middle" x="334" y="-54.75" font-family="Helvetica,sans-Serif" font-size="10.00">quadraticProbe</text>
</a>
</g>
</g>
<!-- Node2&#45;&gt;Node3 -->
<g id="edge2_Node000002_Node000003" class="edge">
<title>Node2&#45;&gt;Node3</title>
<g id="a_edge2_Node000002_Node000003"><a xlink:title=" ">
<path fill="none" stroke="#63b8ff" d="M248.91,-64.25C256.8,-64.25 264.94,-64.25 272.9,-64.25"/>
<polygon fill="#63b8ff" stroke="#63b8ff" points="272.87,-67.75 282.87,-64.25 272.87,-60.75 272.87,-67.75"/>
</a>
</g>
</g>
<!-- Node4 -->
<g id="Node000004" class="node">
<title>Node4</title>
<g id="a_Node000004"><a xlink:href="namespacequadratic__probing.html#a2093d91dd3d377cf0a5c939e45dcefc7" target="_top" xlink:title=" ">
<polygon fill="white" stroke="#666666" points="517.75,-128.5 419.25,-128.5 419.25,-98 517.75,-98 517.75,-128.5"/>
<text text-anchor="start" x="427.25" y="-115" font-family="Helvetica,sans-Serif" font-size="10.00">quadratic_probing::</text>
<text text-anchor="middle" x="468.5" y="-103.75" font-family="Helvetica,sans-Serif" font-size="10.00">hashFxn</text>
</a>
</g>
</g>
<!-- Node3&#45;&gt;Node4 -->
<g id="edge3_Node000003_Node000004" class="edge">
<title>Node3&#45;&gt;Node4</title>
<g id="a_edge3_Node000003_Node000004"><a xlink:title=" ">
<path fill="none" stroke="#63b8ff" d="M377.29,-79.89C389.12,-84.26 402.13,-89.08 414.5,-93.65"/>
<polygon fill="#63b8ff" stroke="#63b8ff" points="413.15,-96.88 423.74,-97.07 415.57,-90.32 413.15,-96.88"/>
</a>
</g>
</g>
<!-- Node5 -->
<g id="Node000005" class="node">
<title>Node5</title>
<g id="a_Node000005"><a xlink:href="namespacequadratic__probing.html#adccc63a7e57cc6dba75bd62f40feb88b" target="_top" xlink:title=" ">
<polygon fill="white" stroke="#666666" points="517.75,-79.5 419.25,-79.5 419.25,-49 517.75,-49 517.75,-79.5"/>
<text text-anchor="start" x="427.25" y="-66" font-family="Helvetica,sans-Serif" font-size="10.00">quadratic_probing::</text>
<text text-anchor="middle" x="468.5" y="-54.75" font-family="Helvetica,sans-Serif" font-size="10.00">putProber</text>
</a>
</g>
</g>
<!-- Node3&#45;&gt;Node5 -->
<g id="edge4_Node000003_Node000005" class="edge">
<title>Node3&#45;&gt;Node5</title>
<g id="a_edge4_Node000003_Node000005"><a xlink:title=" ">
<path fill="none" stroke="#63b8ff" d="M383.59,-64.25C391.42,-64.25 399.6,-64.25 407.66,-64.25"/>
<polygon fill="#63b8ff" stroke="#63b8ff" points="407.41,-67.75 417.41,-64.25 407.41,-60.75 407.41,-67.75"/>
</a>
</g>
</g>
<!-- Node6 -->
<g id="Node000006" class="node">
<title>Node6</title>
<g id="a_Node000006"><a xlink:href="namespacequadratic__probing.html#aeb6bca8db4768226f8ea8291ea4f83f6" target="_top" xlink:title=" ">
<polygon fill="white" stroke="#666666" points="517.75,-30.5 419.25,-30.5 419.25,0 517.75,0 517.75,-30.5"/>
<text text-anchor="start" x="427.25" y="-17" font-family="Helvetica,sans-Serif" font-size="10.00">quadratic_probing::</text>
<text text-anchor="middle" x="468.5" y="-5.75" font-family="Helvetica,sans-Serif" font-size="10.00">searchingProber</text>
</a>
</g>
</g>
<!-- Node3&#45;&gt;Node6 -->
<g id="edge5_Node000003_Node000006" class="edge">
<title>Node3&#45;&gt;Node6</title>
<g id="a_edge5_Node000003_Node000006"><a xlink:title=" ">
<path fill="none" stroke="#63b8ff" d="M377.29,-48.61C389.12,-44.24 402.13,-39.42 414.5,-34.85"/>
<polygon fill="#63b8ff" stroke="#63b8ff" points="415.57,-38.18 423.74,-31.43 413.15,-31.62 415.57,-38.18"/>
</a>
</g>
</g>
</g>
</svg>
