<?xml version="1.0" encoding="UTF-8" standalone="no"?>
<!DOCTYPE svg PUBLIC "-//W3C//DTD SVG 1.1//EN"
 "http://www.w3.org/Graphics/SVG/1.1/DTD/svg11.dtd">
<!-- Generated by graphviz version 12.1.1 (20240910.0053)
 -->
<!-- Title: double_hashing::removalInfo Pages: 1 -->
<svg width="671pt" height="188pt"
 viewBox="0.00 0.00 670.50 187.88" xmlns="http://www.w3.org/2000/svg" xmlns:xlink="http://www.w3.org/1999/xlink">
<g id="graph0" class="graph" transform="scale(1 1) rotate(0) translate(4 183.88)">
<title>double_hashing::removalInfo</title>
<!-- Node1 -->
<g id="Node000001" class="node">
<title>Node1</title>
<g id="a_Node000001"><a xlink:title=" ">
<polygon fill="#999999" stroke="#666666" points="140.5,-141.88 0,-141.88 0,-122.62 140.5,-122.62 140.5,-141.88"/>
<text text-anchor="middle" x="70.25" y="-128.38" font-family="Helvetica,sans-Serif" font-size="10.00">double_hashing::removalInfo</text>
</a>
</g>
</g>
<!-- Node2 -->
<g id="Node000002" class="node">
<title>Node2</title>
<g id="a_Node000002"><a xlink:href="namespacedouble__hashing.html#a1e901418c759627557eff359b8db38cd" target="_top" xlink:title=" ">
<polygon fill="white" stroke="#666666" points="297.5,-179.88 177.25,-179.88 177.25,-160.62 297.5,-160.62 297.5,-179.88"/>
<text text-anchor="middle" x="237.38" y="-166.38" font-family="Helvetica,sans-Serif" font-size="10.00">double_hashing::display</text>
</a>
</g>
</g>
<!-- Node1&#45;&gt;Node2 -->
<g id="edge1_Node000001_Node000002" class="edge">
<title>Node1&#45;&gt;Node2</title>
<g id="a_edge1_Node000001_Node000002"><a xlink:title=" ">
<path fill="none" stroke="#63b8ff" d="M115.07,-142.33C135.49,-147.03 160,-152.67 181.63,-157.65"/>
<polygon fill="#63b8ff" stroke="#63b8ff" points="180.63,-161.01 191.17,-159.85 182.2,-154.19 180.63,-161.01"/>
</a>
</g>
</g>
<!-- Node3 -->
<g id="Node000003" class="node">
<title>Node3</title>
<g id="a_Node000003"><a xlink:href="namespacedouble__hashing.html#a0d90726ed1de7b3d2ae261baed048003" target="_top" xlink:title="Hash a key. Uses the STL library&#39;s std::hash() function.">
<polygon fill="white" stroke="#666666" points="650.5,-141.88 523.5,-141.88 523.5,-122.62 650.5,-122.62 650.5,-141.88"/>
<text text-anchor="middle" x="587" y="-128.38" font-family="Helvetica,sans-Serif" font-size="10.00">double_hashing::hashFxn</text>
</a>
</g>
</g>
<!-- Node1&#45;&gt;Node3 -->
<g id="edge2_Node000001_Node000003" class="edge">
<title>Node1&#45;&gt;Node3</title>
<g id="a_edge2_Node000001_Node000003"><a xlink:title=" ">
<path fill="none" stroke="#63b8ff" d="M140.94,-132.25C237.9,-132.25 412.74,-132.25 511.96,-132.25"/>
<polygon fill="#63b8ff" stroke="#63b8ff" points="511.87,-135.75 521.87,-132.25 511.87,-128.75 511.87,-135.75"/>
</a>
</g>
</g>
<!-- Node4 -->
<g id="Node000004" class="node">
<title>Node4</title>
<g id="a_Node000004"><a xlink:href="namespacedouble__hashing.html#a28083ecac6eb94b643281875c8665931" target="_top" xlink:title=" ">
<polygon fill="white" stroke="#666666" points="298.25,-103.88 176.5,-103.88 176.5,-84.62 298.25,-84.62 298.25,-103.88"/>
<text text-anchor="middle" x="237.38" y="-90.38" font-family="Helvetica,sans-Serif" font-size="10.00">double_hashing::remove</text>
</a>
</g>
</g>
<!-- Node1&#45;&gt;Node4 -->
<g id="edge3_Node000001_Node000004" class="edge">
<title>Node1&#45;&gt;Node4</title>
<g id="a_edge3_Node000001_Node000004"><a xlink:title=" ">
<path fill="none" stroke="#63b8ff" d="M115.07,-122.17C135.49,-117.47 160,-111.83 181.63,-106.85"/>
<polygon fill="#63b8ff" stroke="#63b8ff" points="182.2,-110.31 191.17,-104.65 180.63,-103.49 182.2,-110.31"/>
</a>
</g>
</g>
<!-- Node5 -->
<g id="Node000005" class="node">
<title>Node5</title>
<g id="a_Node000005"><a xlink:href="namespacedouble__hashing.html#a8f8ff4fb018e1bb32d67d8a1885d3200" target="_top" xlink:title="Performs double hashing to resolve collisions.">
<polygon fill="white" stroke="#666666" points="475.5,-103.88 334.25,-103.88 334.25,-84.62 475.5,-84.62 475.5,-103.88"/>
<text text-anchor="middle" x="404.88" y="-90.38" font-family="Helvetica,sans-Serif" font-size="10.00">double_hashing::doubleHash</text>
</a>
</g>
</g>
<!-- Node4&#45;&gt;Node5 -->
<g id="edge4_Node000004_Node000005" class="edge">
<title>Node4&#45;&gt;Node5</title>
<g id="a_edge4_Node000004_Node000005"><a xlink:title=" ">
<path fill="none" stroke="#63b8ff" d="M298.59,-94.25C306.38,-94.25 314.46,-94.25 322.52,-94.25"/>
<polygon fill="#63b8ff" stroke="#63b8ff" points="322.36,-97.75 332.36,-94.25 322.36,-90.75 322.36,-97.75"/>
</a>
</g>
</g>
<!-- Node5&#45;&gt;Node3 -->
<g id="edge5_Node000005_Node000003" class="edge">
<title>Node5&#45;&gt;Node3</title>
<g id="a_edge5_Node000005_Node000003"><a xlink:title=" ">
<path fill="none" stroke="#63b8ff" d="M453.67,-104.33C476.26,-109.1 503.43,-114.83 527.25,-119.86"/>
<polygon fill="#63b8ff" stroke="#63b8ff" points="526.3,-123.23 536.81,-121.87 527.75,-116.38 526.3,-123.23"/>
</a>
</g>
</g>
<!-- Node6 -->
<g id="Node000006" class="node">
<title>Node6</title>
<g id="a_Node000006"><a xlink:href="namespacedouble__hashing.html#a33968a1178289ab61445dd4000df7082" target="_top" xlink:title="Used for second hash function.">
<polygon fill="white" stroke="#666666" points="662.5,-104.88 511.5,-104.88 511.5,-85.62 662.5,-85.62 662.5,-104.88"/>
<text text-anchor="middle" x="587" y="-91.38" font-family="Helvetica,sans-Serif" font-size="10.00">double_hashing::otherHashFxn</text>
</a>
</g>
</g>
<!-- Node5&#45;&gt;Node6 -->
<g id="edge6_Node000005_Node000006" class="edge">
<title>Node5&#45;&gt;Node6</title>
<g id="a_edge6_Node000005_Node000006"><a xlink:title=" ">
<path fill="none" stroke="#63b8ff" d="M475.77,-94.64C483.64,-94.68 491.72,-94.73 499.76,-94.77"/>
<polygon fill="#63b8ff" stroke="#63b8ff" points="499.54,-98.27 509.56,-94.83 499.58,-91.27 499.54,-98.27"/>
</a>
</g>
</g>
<!-- Node7 -->
<g id="Node000007" class="node">
<title>Node7</title>
<g id="a_Node000007"><a xlink:href="namespacedouble__hashing.html#ac2adfce49ac57f6dbd1778d2c1ce0d2b" target="_top" xlink:title=" ">
<polygon fill="white" stroke="#666666" points="652.75,-67.88 521.25,-67.88 521.25,-48.62 652.75,-48.62 652.75,-67.88"/>
<text text-anchor="middle" x="587" y="-54.38" font-family="Helvetica,sans-Serif" font-size="10.00">double_hashing::putProber</text>
</a>
</g>
</g>
<!-- Node5&#45;&gt;Node7 -->
<g id="edge7_Node000005_Node000007" class="edge">
<title>Node5&#45;&gt;Node7</title>
<g id="a_edge7_Node000005_Node000007"><a xlink:title=" ">
<path fill="none" stroke="#63b8ff" d="M456.53,-84.13C477.53,-79.93 502.09,-75.02 524.14,-70.61"/>
<polygon fill="#63b8ff" stroke="#63b8ff" points="524.81,-74.05 533.93,-68.66 523.44,-67.18 524.81,-74.05"/>
</a>
</g>
</g>
<!-- Node8 -->
<g id="Node000008" class="node">
<title>Node8</title>
<g id="a_Node000008"><a xlink:href="namespacedouble__hashing.html#a29f543e2626bad58907661e1e45028a6" target="_top" xlink:title=" ">
<polygon fill="white" stroke="#666666" points="652.75,-30.5 521.25,-30.5 521.25,0 652.75,0 652.75,-30.5"/>
<text text-anchor="start" x="529.25" y="-17" font-family="Helvetica,sans-Serif" font-size="10.00">double_hashing::searching</text>
<text text-anchor="middle" x="587" y="-5.75" font-family="Helvetica,sans-Serif" font-size="10.00">Prober</text>
</a>
</g>
</g>
<!-- Node5&#45;&gt;Node8 -->
<g id="edge8_Node000005_Node000008" class="edge">
<title>Node5&#45;&gt;Node8</title>
<g id="a_edge8_Node000005_Node000008"><a xlink:title=" ">
<path fill="none" stroke="#63b8ff" d="M423.01,-84.18C443.56,-72.38 479.26,-52.72 511.5,-39.25 515.12,-37.74 518.87,-36.26 522.68,-34.83"/>
<polygon fill="#63b8ff" stroke="#63b8ff" points="523.85,-38.13 532.07,-31.45 521.47,-31.54 523.85,-38.13"/>
</a>
</g>
</g>
</g>
</svg>
