<?xml version="1.0" encoding="UTF-8" standalone="no"?>
<!DOCTYPE svg PUBLIC "-//W3C//DTD SVG 1.1//EN"
 "http://www.w3.org/Graphics/SVG/1.1/DTD/svg11.dtd">
<!-- Generated by graphviz version 12.1.1 (20240910.0053)
 -->
<!-- Title: qr_algorithm::qr_decompose Pages: 1 -->
<svg width="466pt" height="64pt"
 viewBox="0.00 0.00 466.25 64.25" xmlns="http://www.w3.org/2000/svg" xmlns:xlink="http://www.w3.org/1999/xlink">
<g id="graph0" class="graph" transform="scale(1 1) rotate(0) translate(4 60.25)">
<title>qr_algorithm::qr_decompose</title>
<!-- Node1 -->
<g id="Node000001" class="node">
<title>Node1</title>
<g id="a_Node000001"><a xlink:title=" ">
<polygon fill="#999999" stroke="#666666" points="139,-37.25 0,-37.25 0,-18 139,-18 139,-37.25"/>
<text text-anchor="middle" x="69.5" y="-23.75" font-family="Helvetica,sans-Serif" font-size="10.00">qr_algorithm::qr_decompose</text>
</a>
</g>
</g>
<!-- Node2 -->
<g id="Node000002" class="node">
<title>Node2</title>
<g id="a_Node000002"><a xlink:href="namespaceqr__algorithm.html#ad16da2183db22378435042f26af43d5f" target="_top" xlink:title=" ">
<polygon fill="white" stroke="#666666" points="301.25,-56.25 175,-56.25 175,-37 301.25,-37 301.25,-56.25"/>
<text text-anchor="middle" x="238.12" y="-42.75" font-family="Helvetica,sans-Serif" font-size="10.00">qr_algorithm::vector_mag</text>
</a>
</g>
</g>
<!-- Node1&#45;&gt;Node2 -->
<g id="edge1_Node000001_Node000002" class="edge">
<title>Node1&#45;&gt;Node2</title>
<g id="a_edge1_Node000001_Node000002"><a xlink:title=" ">
<path fill="none" stroke="#63b8ff" d="M139.23,-35.46C147.22,-36.37 155.38,-37.3 163.43,-38.22"/>
<polygon fill="#63b8ff" stroke="#63b8ff" points="162.85,-41.68 173.19,-39.33 163.65,-34.72 162.85,-41.68"/>
</a>
</g>
</g>
<!-- Node4 -->
<g id="Node000004" class="node">
<title>Node4</title>
<g id="a_Node000004"><a xlink:href="namespaceqr__algorithm.html#a6d3c7dce1f142141f509d09f6c0e25dc" target="_top" xlink:title=" ">
<polygon fill="white" stroke="#666666" points="299.75,-19.25 176.5,-19.25 176.5,0 299.75,0 299.75,-19.25"/>
<text text-anchor="middle" x="238.12" y="-5.75" font-family="Helvetica,sans-Serif" font-size="10.00">qr_algorithm::vector_proj</text>
</a>
</g>
</g>
<!-- Node1&#45;&gt;Node4 -->
<g id="edge3_Node000001_Node000004" class="edge">
<title>Node1&#45;&gt;Node4</title>
<g id="a_edge3_Node000001_Node000004"><a xlink:title=" ">
<path fill="none" stroke="#63b8ff" d="M139.23,-20.2C147.62,-19.29 156.2,-18.37 164.64,-17.46"/>
<polygon fill="#63b8ff" stroke="#63b8ff" points="164.94,-20.94 174.51,-16.39 164.19,-13.98 164.94,-20.94"/>
</a>
</g>
</g>
<!-- Node3 -->
<g id="Node000003" class="node">
<title>Node3</title>
<g id="a_Node000003"><a xlink:href="namespaceqr__algorithm.html#a8ea313a1a1b5f9d0e3e332c29c6446ec" target="_top" xlink:title=" ">
<polygon fill="white" stroke="#666666" points="458.25,-37.25 337.25,-37.25 337.25,-18 458.25,-18 458.25,-37.25"/>
<text text-anchor="middle" x="397.75" y="-23.75" font-family="Helvetica,sans-Serif" font-size="10.00">qr_algorithm::vector_dot</text>
</a>
</g>
</g>
<!-- Node2&#45;&gt;Node3 -->
<g id="edge2_Node000002_Node000003" class="edge">
<title>Node2&#45;&gt;Node3</title>
<g id="a_edge2_Node000002_Node000003"><a xlink:title=" ">
<path fill="none" stroke="#63b8ff" d="M301.42,-39.12C309.38,-38.16 317.57,-37.17 325.65,-36.2"/>
<polygon fill="#63b8ff" stroke="#63b8ff" points="325.95,-39.68 335.46,-35.01 325.11,-32.73 325.95,-39.68"/>
</a>
</g>
</g>
<!-- Node4&#45;&gt;Node3 -->
<g id="edge4_Node000004_Node000003" class="edge">
<title>Node4&#45;&gt;Node3</title>
<g id="a_edge4_Node000004_Node000003"><a xlink:title=" ">
<path fill="none" stroke="#63b8ff" d="M300.07,-16.58C308.5,-17.55 317.22,-18.54 325.82,-19.52"/>
<polygon fill="#63b8ff" stroke="#63b8ff" points="325.17,-22.97 335.5,-20.63 325.97,-16.02 325.17,-22.97"/>
</a>
</g>
</g>
</g>
</svg>
