<?xml version="1.0" encoding="UTF-8" standalone="no"?>
<!DOCTYPE svg PUBLIC "-//W3C//DTD SVG 1.1//EN"
 "http://www.w3.org/Graphics/SVG/1.1/DTD/svg11.dtd">
<!-- Generated by graphviz version 12.1.1 (20240910.0053)
 -->
<!-- Title: main Pages: 1 -->
<svg width="407pt" height="64pt"
 viewBox="0.00 0.00 407.25 64.25" xmlns="http://www.w3.org/2000/svg" xmlns:xlink="http://www.w3.org/1999/xlink">
<g id="graph0" class="graph" transform="scale(1 1) rotate(0) translate(4 60.25)">
<title>main</title>
<!-- Node1 -->
<g id="Node000001" class="node">
<title>Node1</title>
<g id="a_Node000001"><a xlink:title=" ">
<polygon fill="#999999" stroke="#666666" points="37,-37.25 0,-37.25 0,-18 37,-18 37,-37.25"/>
<text text-anchor="middle" x="18.5" y="-23.75" font-family="Helvetica,sans-Serif" font-size="10.00">main</text>
</a>
</g>
</g>
<!-- Node2 -->
<g id="Node000002" class="node">
<title>Node2</title>
<g id="a_Node000002"><a xlink:href="group__ode.html#gae0509f8843e2bc42de2abbd00a14b7b9" target="_top" xlink:title="Compute approximation using the forward&#45;Euler method in the given limits.">
<polygon fill="white" stroke="#666666" points="162.88,-56.25 88.38,-56.25 88.38,-37 162.88,-37 162.88,-56.25"/>
<text text-anchor="middle" x="125.62" y="-42.75" font-family="Helvetica,sans-Serif" font-size="10.00">forward_euler</text>
</a>
</g>
</g>
<!-- Node1&#45;&gt;Node2 -->
<g id="edge1_Node000001_Node000002" class="edge">
<title>Node1&#45;&gt;Node2</title>
<g id="a_edge1_Node000001_Node000002"><a xlink:title=" ">
<path fill="none" stroke="#63b8ff" d="M37.33,-30.85C48.24,-32.82 62.76,-35.44 76.82,-37.99"/>
<polygon fill="#63b8ff" stroke="#63b8ff" points="75.97,-41.39 86.44,-39.72 77.22,-34.5 75.97,-41.39"/>
</a>
</g>
</g>
<!-- Node5 -->
<g id="Node000005" class="node">
<title>Node5</title>
<g id="a_Node000005"><a xlink:href="ode__forward__euler_8cpp.html#aa13517b8e5de1b75592052db7f7e237f" target="_top" xlink:title=" ">
<polygon fill="white" stroke="#666666" points="178.25,-19.25 73,-19.25 73,0 178.25,0 178.25,-19.25"/>
<text text-anchor="middle" x="125.62" y="-5.75" font-family="Helvetica,sans-Serif" font-size="10.00">save_exact_solution</text>
</a>
</g>
</g>
<!-- Node1&#45;&gt;Node5 -->
<g id="edge4_Node000001_Node000005" class="edge">
<title>Node1&#45;&gt;Node5</title>
<g id="a_edge4_Node000001_Node000005"><a xlink:title=" ">
<path fill="none" stroke="#63b8ff" d="M37.33,-24.57C44.25,-23.39 52.63,-21.95 61.41,-20.45"/>
<polygon fill="#63b8ff" stroke="#63b8ff" points="61.93,-23.91 71.2,-18.77 60.75,-17.01 61.93,-23.91"/>
</a>
</g>
</g>
<!-- Node3 -->
<g id="Node000003" class="node">
<title>Node3</title>
<g id="a_Node000003"><a xlink:href="group__ode.html#ga195d23bbdfcb80e83c9cda45c9ad5723" target="_top" xlink:title="Compute next step approximation using the forward&#45;Euler method.">
<polygon fill="white" stroke="#666666" points="312.75,-56.25 214.25,-56.25 214.25,-37 312.75,-37 312.75,-56.25"/>
<text text-anchor="middle" x="263.5" y="-42.75" font-family="Helvetica,sans-Serif" font-size="10.00">forward_euler_step</text>
</a>
</g>
</g>
<!-- Node2&#45;&gt;Node3 -->
<g id="edge2_Node000002_Node000003" class="edge">
<title>Node2&#45;&gt;Node3</title>
<g id="a_edge2_Node000002_Node000003"><a xlink:title=" ">
<path fill="none" stroke="#63b8ff" d="M163.04,-46.62C175.26,-46.62 189.23,-46.62 202.76,-46.62"/>
<polygon fill="#63b8ff" stroke="#63b8ff" points="202.46,-50.13 212.46,-46.63 202.46,-43.13 202.46,-50.13"/>
</a>
</g>
</g>
<!-- Node4 -->
<g id="Node000004" class="node">
<title>Node4</title>
<g id="a_Node000004"><a xlink:href="ode__forward__euler_8cpp.html#abaeae8f62a018d197f0187a1c80a90fe" target="_top" xlink:title="Problem statement for a system with first&#45;order differential equations. Updates the system differenti...">
<polygon fill="white" stroke="#666666" points="399.25,-56.25 348.75,-56.25 348.75,-37 399.25,-37 399.25,-56.25"/>
<text text-anchor="middle" x="374" y="-42.75" font-family="Helvetica,sans-Serif" font-size="10.00">problem</text>
</a>
</g>
</g>
<!-- Node3&#45;&gt;Node4 -->
<g id="edge3_Node000003_Node000004" class="edge">
<title>Node3&#45;&gt;Node4</title>
<g id="a_edge3_Node000003_Node000004"><a xlink:title=" ">
<path fill="none" stroke="#63b8ff" d="M313.04,-46.62C321.04,-46.62 329.2,-46.62 336.83,-46.62"/>
<polygon fill="#63b8ff" stroke="#63b8ff" points="336.76,-50.13 346.76,-46.63 336.76,-43.13 336.76,-50.13"/>
</a>
</g>
</g>
<!-- Node6 -->
<g id="Node000006" class="node">
<title>Node6</title>
<g id="a_Node000006"><a xlink:href="ode__forward__euler_8cpp.html#af3adf7b092a87868917ee5fb4255192b" target="_top" xlink:title="Exact solution of the problem. Used for solution comparison.">
<polygon fill="white" stroke="#666666" points="303,-19.25 224,-19.25 224,0 303,0 303,-19.25"/>
<text text-anchor="middle" x="263.5" y="-5.75" font-family="Helvetica,sans-Serif" font-size="10.00">exact_solution</text>
</a>
</g>
</g>
<!-- Node5&#45;&gt;Node6 -->
<g id="edge5_Node000005_Node000006" class="edge">
<title>Node5&#45;&gt;Node6</title>
<g id="a_edge5_Node000005_Node000006"><a xlink:title=" ">
<path fill="none" stroke="#63b8ff" d="M178.38,-9.62C189.51,-9.62 201.26,-9.62 212.33,-9.62"/>
<polygon fill="#63b8ff" stroke="#63b8ff" points="212.06,-13.13 222.06,-9.63 212.06,-6.13 212.06,-13.13"/>
</a>
</g>
</g>
</g>
</svg>
