<?xml version="1.0" encoding="UTF-8" standalone="no"?>
<!DOCTYPE svg PUBLIC "-//W3C//DTD SVG 1.1//EN"
 "http://www.w3.org/Graphics/SVG/1.1/DTD/svg11.dtd">
<!-- Generated by graphviz version 12.1.1 (20240910.0053)
 -->
<!-- Title: main Pages: 1 -->
<svg width="432pt" height="64pt"
 viewBox="0.00 0.00 432.00 64.25" xmlns="http://www.w3.org/2000/svg" xmlns:xlink="http://www.w3.org/1999/xlink">

<svg id="main" version="1.1" xmlns="http://www.w3.org/2000/svg" xmlns:xlink="http://www.w3.org/1999/xlink" xml:space="preserve">

<style type="text/css"><![CDATA[
.node, .edge {opacity: 0.7;}
.node.selected, .edge.selected {opacity: 1;}
.edge:hover path { stroke: red; }
.edge:hover polygon { stroke: red; fill: red; }
]]></style>
<script type="application/ecmascript" xlink:href="svg.min.js"/>
<svg id="graph" class="graph">
<g id="graph0" class="graph" transform="scale(1 1) rotate(0) translate(4 60.25)">
<title>main</title>
<!-- Node1 -->
<g id="Node000001" class="node">
<title>Node1</title>
<g id="a_Node000001"><a xlink:title=" ">
<polygon fill="#999999" stroke="#666666" points="37,-37.25 0,-37.25 0,-18 37,-18 37,-37.25"/>
<text text-anchor="middle" x="18.5" y="-23.75" font-family="Helvetica,sans-Serif" font-size="10.00">main</text>
</a>
</g>
</g>
<!-- Node2 -->
<g id="Node000002" class="node">
<title>Node2</title>
<g id="a_Node000002"><a xlink:href="ode__semi__implicit__euler_8cpp.html#aa13517b8e5de1b75592052db7f7e237f" target="_top" xlink:title=" ">
<polygon fill="white" stroke="#666666" points="178.25,-56.25 73,-56.25 73,-37 178.25,-37 178.25,-56.25"/>
<text text-anchor="middle" x="125.62" y="-42.75" font-family="Helvetica,sans-Serif" font-size="10.00">save_exact_solution</text>
</a>
</g>
</g>
<!-- Node1&#45;&gt;Node2 -->
<g id="edge1_Node000001_Node000002" class="edge">
<title>Node1&#45;&gt;Node2</title>
<g id="a_edge1_Node000001_Node000002"><a xlink:title=" ">
<path fill="none" stroke="#63b8ff" d="M37.33,-30.85C44.25,-32.1 52.63,-33.61 61.41,-35.2"/>
<polygon fill="#63b8ff" stroke="#63b8ff" points="60.74,-38.63 71.2,-36.97 61.98,-31.75 60.74,-38.63"/>
</a>
</g>
</g>
<!-- Node4 -->
<g id="Node000004" class="node">
<title>Node4</title>
<g id="a_Node000004"><a xlink:href="group__ode.html#ga3874d294ab00fe9ce8731c5b7991a089" target="_top" xlink:title="Compute approximation using the semi&#45;implicit&#45;Euler method in the given limits.">
<polygon fill="white" stroke="#666666" points="175.25,-19.25 76,-19.25 76,0 175.25,0 175.25,-19.25"/>
<text text-anchor="middle" x="125.62" y="-5.75" font-family="Helvetica,sans-Serif" font-size="10.00">semi_implicit_euler</text>
</a>
</g>
</g>
<!-- Node1&#45;&gt;Node4 -->
<g id="edge3_Node000001_Node000004" class="edge">
<title>Node1&#45;&gt;Node4</title>
<g id="a_edge3_Node000001_Node000004"><a xlink:title=" ">
<path fill="none" stroke="#63b8ff" d="M37.33,-24.57C45.08,-23.25 54.65,-21.61 64.58,-19.91"/>
<polygon fill="#63b8ff" stroke="#63b8ff" points="65.11,-23.37 74.38,-18.23 63.93,-16.47 65.11,-23.37"/>
</a>
</g>
</g>
<!-- Node3 -->
<g id="Node000003" class="node">
<title>Node3</title>
<g id="a_Node000003"><a xlink:href="ode__semi__implicit__euler_8cpp.html#af3adf7b092a87868917ee5fb4255192b" target="_top" xlink:title="Exact solution of the problem. Used for solution comparison.">
<polygon fill="white" stroke="#666666" points="315.38,-56.25 236.38,-56.25 236.38,-37 315.38,-37 315.38,-56.25"/>
<text text-anchor="middle" x="275.88" y="-42.75" font-family="Helvetica,sans-Serif" font-size="10.00">exact_solution</text>
</a>
</g>
</g>
<!-- Node2&#45;&gt;Node3 -->
<g id="edge2_Node000002_Node000003" class="edge">
<title>Node2&#45;&gt;Node3</title>
<g id="a_edge2_Node000002_Node000003"><a xlink:title=" ">
<path fill="none" stroke="#63b8ff" d="M178.48,-46.62C193.51,-46.62 209.9,-46.62 224.82,-46.62"/>
<polygon fill="#63b8ff" stroke="#63b8ff" points="224.39,-50.13 234.39,-46.63 224.39,-43.13 224.39,-50.13"/>
</a>
</g>
</g>
<!-- Node5 -->
<g id="Node000005" class="node">
<title>Node5</title>
<g id="a_Node000005"><a xlink:href="group__ode.html#ga827bf009831ddc477c5fa8891d5cb35f" target="_top" xlink:title="Compute next step approximation using the semi&#45;implicit&#45;Euler method.">
<polygon fill="white" stroke="#666666" points="337.5,-19.25 214.25,-19.25 214.25,0 337.5,0 337.5,-19.25"/>
<text text-anchor="middle" x="275.88" y="-5.75" font-family="Helvetica,sans-Serif" font-size="10.00">semi_implicit_euler_step</text>
</a>
</g>
</g>
<!-- Node4&#45;&gt;Node5 -->
<g id="edge4_Node000004_Node000005" class="edge">
<title>Node4&#45;&gt;Node5</title>
<g id="a_edge4_Node000004_Node000005"><a xlink:title=" ">
<path fill="none" stroke="#63b8ff" d="M175.58,-9.62C184.18,-9.62 193.29,-9.62 202.37,-9.62"/>
<polygon fill="#63b8ff" stroke="#63b8ff" points="202.3,-13.13 212.3,-9.63 202.3,-6.13 202.3,-13.13"/>
</a>
</g>
</g>
<!-- Node6 -->
<g id="Node000006" class="node">
<title>Node6</title>
<g id="a_Node000006"><a xlink:href="ode__semi__implicit__euler_8cpp.html#abaeae8f62a018d197f0187a1c80a90fe" target="_top" xlink:title="Problem statement for a system with first&#45;order differential equations. Updates the system differenti...">
<polygon fill="white" stroke="#666666" points="424,-19.25 373.5,-19.25 373.5,0 424,0 424,-19.25"/>
<text text-anchor="middle" x="398.75" y="-5.75" font-family="Helvetica,sans-Serif" font-size="10.00">problem</text>
</a>
</g>
</g>
<!-- Node5&#45;&gt;Node6 -->
<g id="edge5_Node000005_Node000006" class="edge">
<title>Node5&#45;&gt;Node6</title>
<g id="a_edge5_Node000005_Node000006"><a xlink:title=" ">
<path fill="none" stroke="#63b8ff" d="M337.67,-9.62C345.92,-9.62 354.17,-9.62 361.79,-9.62"/>
<polygon fill="#63b8ff" stroke="#63b8ff" points="361.65,-13.13 371.65,-9.63 361.65,-6.13 361.65,-13.13"/>
</a>
</g>
</g>
</g>
</svg>
</svg>

<style type='text/css'>
<![CDATA[
[data-mouse-over-selected='false'] { opacity: 0.7; }
[data-mouse-over-selected='true']  { opacity: 1.0; }
]]>
</style>
<script type="application/ecmascript"><![CDATA[
document.addEventListener('DOMContentLoaded', (event) => {
  highlightEdges();
  highlightAdjacentNodes();
});
]]></script>
</svg>
