<?xml version="1.0" encoding="UTF-8" standalone="no"?>
<!DOCTYPE svg PUBLIC "-//W3C//DTD SVG 1.1//EN"
 "http://www.w3.org/Graphics/SVG/1.1/DTD/svg11.dtd">
<!-- Generated by graphviz version 12.1.1 (20240910.0053)
 -->
<!-- Title: main Pages: 1 -->
<svg width="412pt" height="64pt"
 viewBox="0.00 0.00 411.75 64.25" xmlns="http://www.w3.org/2000/svg" xmlns:xlink="http://www.w3.org/1999/xlink">

<svg id="main" version="1.1" xmlns="http://www.w3.org/2000/svg" xmlns:xlink="http://www.w3.org/1999/xlink" xml:space="preserve">

<style type="text/css"><![CDATA[
.node, .edge {opacity: 0.7;}
.node.selected, .edge.selected {opacity: 1;}
.edge:hover path { stroke: red; }
.edge:hover polygon { stroke: red; fill: red; }
]]></style>
<script type="application/ecmascript" xlink:href="svg.min.js"/>
<svg id="graph" class="graph">
<g id="graph0" class="graph" transform="scale(1 1) rotate(0) translate(4 60.25)">
<title>main</title>
<!-- Node1 -->
<g id="Node000001" class="node">
<title>Node1</title>
<g id="a_Node000001"><a xlink:title=" ">
<polygon fill="#999999" stroke="#666666" points="37,-37.25 0,-37.25 0,-18 37,-18 37,-37.25"/>
<text text-anchor="middle" x="18.5" y="-23.75" font-family="Helvetica,sans-Serif" font-size="10.00">main</text>
</a>
</g>
</g>
<!-- Node2 -->
<g id="Node000002" class="node">
<title>Node2</title>
<g id="a_Node000002"><a xlink:href="group__ode.html#ga36ff0710861ca39d957046c0b09b2985" target="_top" xlink:title="Compute approximation using the midpoint&#45;Euler method in the given limits.">
<polygon fill="white" stroke="#666666" points="165.12,-56.25 86.12,-56.25 86.12,-37 165.12,-37 165.12,-56.25"/>
<text text-anchor="middle" x="125.62" y="-42.75" font-family="Helvetica,sans-Serif" font-size="10.00">midpoint_euler</text>
</a>
</g>
</g>
<!-- Node1&#45;&gt;Node2 -->
<g id="edge1_Node000001_Node000002" class="edge">
<title>Node1&#45;&gt;Node2</title>
<g id="a_edge1_Node000001_Node000002"><a xlink:title=" ">
<path fill="none" stroke="#63b8ff" d="M37.33,-30.85C47.68,-32.72 61.27,-35.17 74.63,-37.59"/>
<polygon fill="#63b8ff" stroke="#63b8ff" points="73.78,-40.99 84.25,-39.33 75.03,-34.1 73.78,-40.99"/>
</a>
</g>
</g>
<!-- Node5 -->
<g id="Node000005" class="node">
<title>Node5</title>
<g id="a_Node000005"><a xlink:href="ode__midpoint__euler_8cpp.html#aa13517b8e5de1b75592052db7f7e237f" target="_top" xlink:title=" ">
<polygon fill="white" stroke="#666666" points="178.25,-19.25 73,-19.25 73,0 178.25,0 178.25,-19.25"/>
<text text-anchor="middle" x="125.62" y="-5.75" font-family="Helvetica,sans-Serif" font-size="10.00">save_exact_solution</text>
</a>
</g>
</g>
<!-- Node1&#45;&gt;Node5 -->
<g id="edge4_Node000001_Node000005" class="edge">
<title>Node1&#45;&gt;Node5</title>
<g id="a_edge4_Node000001_Node000005"><a xlink:title=" ">
<path fill="none" stroke="#63b8ff" d="M37.33,-24.57C44.25,-23.39 52.63,-21.95 61.41,-20.45"/>
<polygon fill="#63b8ff" stroke="#63b8ff" points="61.93,-23.91 71.2,-18.77 60.75,-17.01 61.93,-23.91"/>
</a>
</g>
</g>
<!-- Node3 -->
<g id="Node000003" class="node">
<title>Node3</title>
<g id="a_Node000003"><a xlink:href="group__ode.html#ga8c319db420c3d97a83e9dcca803b6812" target="_top" xlink:title="Compute next step approximation using the midpoint&#45;Euler method.">
<polygon fill="white" stroke="#666666" points="317.25,-56.25 214.25,-56.25 214.25,-37 317.25,-37 317.25,-56.25"/>
<text text-anchor="middle" x="265.75" y="-42.75" font-family="Helvetica,sans-Serif" font-size="10.00">midpoint_euler_step</text>
</a>
</g>
</g>
<!-- Node2&#45;&gt;Node3 -->
<g id="edge2_Node000002_Node000003" class="edge">
<title>Node2&#45;&gt;Node3</title>
<g id="a_edge2_Node000002_Node000003"><a xlink:title=" ">
<path fill="none" stroke="#63b8ff" d="M165.47,-46.62C176.95,-46.62 189.83,-46.62 202.4,-46.62"/>
<polygon fill="#63b8ff" stroke="#63b8ff" points="202.3,-50.13 212.3,-46.63 202.3,-43.13 202.3,-50.13"/>
</a>
</g>
</g>
<!-- Node4 -->
<g id="Node000004" class="node">
<title>Node4</title>
<g id="a_Node000004"><a xlink:href="ode__midpoint__euler_8cpp.html#abaeae8f62a018d197f0187a1c80a90fe" target="_top" xlink:title="Problem statement for a system with first&#45;order differential equations. Updates the system differenti...">
<polygon fill="white" stroke="#666666" points="403.75,-56.25 353.25,-56.25 353.25,-37 403.75,-37 403.75,-56.25"/>
<text text-anchor="middle" x="378.5" y="-42.75" font-family="Helvetica,sans-Serif" font-size="10.00">problem</text>
</a>
</g>
</g>
<!-- Node3&#45;&gt;Node4 -->
<g id="edge3_Node000003_Node000004" class="edge">
<title>Node3&#45;&gt;Node4</title>
<g id="a_edge3_Node000003_Node000004"><a xlink:title=" ">
<path fill="none" stroke="#63b8ff" d="M317.59,-46.62C325.65,-46.62 333.84,-46.62 341.47,-46.62"/>
<polygon fill="#63b8ff" stroke="#63b8ff" points="341.38,-50.13 351.38,-46.63 341.38,-43.13 341.38,-50.13"/>
</a>
</g>
</g>
<!-- Node6 -->
<g id="Node000006" class="node">
<title>Node6</title>
<g id="a_Node000006"><a xlink:href="ode__midpoint__euler_8cpp.html#af3adf7b092a87868917ee5fb4255192b" target="_top" xlink:title="Exact solution of the problem. Used for solution comparison.">
<polygon fill="white" stroke="#666666" points="305.25,-19.25 226.25,-19.25 226.25,0 305.25,0 305.25,-19.25"/>
<text text-anchor="middle" x="265.75" y="-5.75" font-family="Helvetica,sans-Serif" font-size="10.00">exact_solution</text>
</a>
</g>
</g>
<!-- Node5&#45;&gt;Node6 -->
<g id="edge5_Node000005_Node000006" class="edge">
<title>Node5&#45;&gt;Node6</title>
<g id="a_edge5_Node000005_Node000006"><a xlink:title=" ">
<path fill="none" stroke="#63b8ff" d="M178.45,-9.62C190.28,-9.62 202.83,-9.62 214.58,-9.62"/>
<polygon fill="#63b8ff" stroke="#63b8ff" points="214.5,-13.13 224.5,-9.63 214.5,-6.13 214.5,-13.13"/>
</a>
</g>
</g>
</g>
</svg>
</svg>

<style type='text/css'>
<![CDATA[
[data-mouse-over-selected='false'] { opacity: 0.7; }
[data-mouse-over-selected='true']  { opacity: 1.0; }
]]>
</style>
<script type="application/ecmascript"><![CDATA[
document.addEventListener('DOMContentLoaded', (event) => {
  highlightEdges();
  highlightAdjacentNodes();
});
]]></script>
</svg>
