<?xml version="1.0" encoding="UTF-8" standalone="no"?>
<!DOCTYPE svg PUBLIC "-//W3C//DTD SVG 1.1//EN"
 "http://www.w3.org/Graphics/SVG/1.1/DTD/svg11.dtd">
<!-- Generated by graphviz version 12.1.1 (20240910.0053)
 -->
<!-- Title: ols_test Pages: 1 -->
<svg width="418pt" height="82pt"
 viewBox="0.00 0.00 417.75 82.25" xmlns="http://www.w3.org/2000/svg" xmlns:xlink="http://www.w3.org/1999/xlink">

<svg id="main" version="1.1" xmlns="http://www.w3.org/2000/svg" xmlns:xlink="http://www.w3.org/1999/xlink" xml:space="preserve">

<style type="text/css"><![CDATA[
.node, .edge {opacity: 0.7;}
.node.selected, .edge.selected {opacity: 1;}
.edge:hover path { stroke: red; }
.edge:hover polygon { stroke: red; fill: red; }
]]></style>
<script type="application/ecmascript" xlink:href="svg.min.js"/>
<svg id="graph" class="graph">
<g id="graph0" class="graph" transform="scale(1 1) rotate(0) translate(4 78.25)">
<title>ols_test</title>
<!-- Node1 -->
<g id="Node000001" class="node">
<title>Node1</title>
<g id="a_Node000001"><a xlink:title=" ">
<polygon fill="#999999" stroke="#666666" points="50.5,-37.25 0,-37.25 0,-18 50.5,-18 50.5,-37.25"/>
<text text-anchor="middle" x="25.25" y="-23.75" font-family="Helvetica,sans-Serif" font-size="10.00">ols_test</text>
</a>
</g>
</g>
<!-- Node2 -->
<g id="Node000002" class="node">
<title>Node2</title>
<g id="a_Node000002"><a xlink:href="ordinary__least__squares__regressor_8cpp.html#aaddc683af581b51351e1023d2a01ef3b" target="_top" xlink:title=" ">
<polygon fill="white" stroke="#666666" points="191.75,-56.25 97,-56.25 97,-37 191.75,-37 191.75,-56.25"/>
<text text-anchor="middle" x="144.38" y="-42.75" font-family="Helvetica,sans-Serif" font-size="10.00">fit_OLS_regressor</text>
</a>
</g>
</g>
<!-- Node1&#45;&gt;Node2 -->
<g id="edge1_Node000001_Node000002" class="edge">
<title>Node1&#45;&gt;Node2</title>
<g id="a_edge1_Node000001_Node000002"><a xlink:title=" ">
<path fill="none" stroke="#63b8ff" d="M50.8,-31.61C60.97,-33.26 73.23,-35.25 85.46,-37.23"/>
<polygon fill="#63b8ff" stroke="#63b8ff" points="84.69,-40.65 95.12,-38.8 85.81,-33.74 84.69,-40.65"/>
</a>
</g>
</g>
<!-- Node6 -->
<g id="Node000006" class="node">
<title>Node6</title>
<g id="a_Node000006"><a xlink:href="ordinary__least__squares__regressor_8cpp.html#ade6e463f37878fe2a219f927c65b5493" target="_top" xlink:title=" ">
<polygon fill="white" stroke="#666666" points="202.25,-19.25 86.5,-19.25 86.5,0 202.25,0 202.25,-19.25"/>
<text text-anchor="middle" x="144.38" y="-5.75" font-family="Helvetica,sans-Serif" font-size="10.00">predict_OLS_regressor</text>
</a>
</g>
</g>
<!-- Node1&#45;&gt;Node6 -->
<g id="edge5_Node000001_Node000006" class="edge">
<title>Node1&#45;&gt;Node6</title>
<g id="a_edge5_Node000001_Node000006"><a xlink:title=" ">
<path fill="none" stroke="#63b8ff" d="M50.8,-23.85C57.99,-22.75 66.21,-21.48 74.73,-20.17"/>
<polygon fill="#63b8ff" stroke="#63b8ff" points="75.19,-23.64 84.55,-18.67 74.13,-16.73 75.19,-23.64"/>
</a>
</g>
</g>
<!-- Node3 -->
<g id="Node000003" class="node">
<title>Node3</title>
<g id="a_Node000003"><a xlink:href="ordinary__least__squares__regressor_8cpp.html#af7243bdc6ae3c7169f01b85bb226e66a" target="_top" xlink:title=" ">
<polygon fill="white" stroke="#666666" points="310.12,-74.25 243.88,-74.25 243.88,-55 310.12,-55 310.12,-74.25"/>
<text text-anchor="middle" x="277" y="-60.75" font-family="Helvetica,sans-Serif" font-size="10.00">get_inverse</text>
</a>
</g>
</g>
<!-- Node2&#45;&gt;Node3 -->
<g id="edge2_Node000002_Node000003" class="edge">
<title>Node2&#45;&gt;Node3</title>
<g id="a_edge2_Node000002_Node000003"><a xlink:title=" ">
<path fill="none" stroke="#63b8ff" d="M192.16,-53.07C205.17,-54.86 219.24,-56.8 232.07,-58.57"/>
<polygon fill="#63b8ff" stroke="#63b8ff" points="231.56,-62.03 241.94,-59.93 232.52,-55.1 231.56,-62.03"/>
</a>
</g>
</g>
<!-- Node5 -->
<g id="Node000005" class="node">
<title>Node5</title>
<g id="a_Node000005"><a xlink:href="ordinary__least__squares__regressor_8cpp.html#a21c80569aaffb7bf1657e54fa4b97deb" target="_top" xlink:title=" ">
<polygon fill="white" stroke="#666666" points="315.75,-37.25 238.25,-37.25 238.25,-18 315.75,-18 315.75,-37.25"/>
<text text-anchor="middle" x="277" y="-23.75" font-family="Helvetica,sans-Serif" font-size="10.00">get_transpose</text>
</a>
</g>
</g>
<!-- Node2&#45;&gt;Node5 -->
<g id="edge4_Node000002_Node000005" class="edge">
<title>Node2&#45;&gt;Node5</title>
<g id="a_edge4_Node000002_Node000005"><a xlink:title=" ">
<path fill="none" stroke="#63b8ff" d="M192.16,-39.82C203.47,-38.17 215.59,-36.41 227,-34.75"/>
<polygon fill="#63b8ff" stroke="#63b8ff" points="227.23,-38.26 236.62,-33.35 226.22,-31.33 227.23,-38.26"/>
</a>
</g>
</g>
<!-- Node4 -->
<g id="Node000004" class="node">
<title>Node4</title>
<g id="a_Node000004"><a xlink:href="ordinary__least__squares__regressor_8cpp.html#a8fa731952b0ee3bc7ec51c51ed21911e" target="_top" xlink:title=" ">
<polygon fill="white" stroke="#666666" points="409.75,-74.25 351.75,-74.25 351.75,-55 409.75,-55 409.75,-74.25"/>
<text text-anchor="middle" x="380.75" y="-60.75" font-family="Helvetica,sans-Serif" font-size="10.00">is_square</text>
</a>
</g>
</g>
<!-- Node3&#45;&gt;Node4 -->
<g id="edge3_Node000003_Node000004" class="edge">
<title>Node3&#45;&gt;Node4</title>
<g id="a_edge3_Node000003_Node000004"><a xlink:title=" ">
<path fill="none" stroke="#63b8ff" d="M310.47,-64.62C319.82,-64.62 330.12,-64.62 339.86,-64.62"/>
<polygon fill="#63b8ff" stroke="#63b8ff" points="339.84,-68.13 349.84,-64.63 339.84,-61.13 339.84,-68.13"/>
</a>
</g>
</g>
</g>
</svg>
</svg>

<style type='text/css'>
<![CDATA[
[data-mouse-over-selected='false'] { opacity: 0.7; }
[data-mouse-over-selected='true']  { opacity: 1.0; }
]]>
</style>
<script type="application/ecmascript"><![CDATA[
document.addEventListener('DOMContentLoaded', (event) => {
  highlightEdges();
  highlightAdjacentNodes();
});
]]></script>
</svg>
