<?xml version="1.0" encoding="UTF-8" standalone="no"?>
<!DOCTYPE svg PUBLIC "-//W3C//DTD SVG 1.1//EN"
 "http://www.w3.org/Graphics/SVG/1.1/DTD/svg11.dtd">
<!-- Generated by graphviz version 12.1.1 (20240910.0053)
 -->
<!-- Title: main Pages: 1 -->
<svg width="491pt" height="82pt"
 viewBox="0.00 0.00 490.75 82.25" xmlns="http://www.w3.org/2000/svg" xmlns:xlink="http://www.w3.org/1999/xlink">

<svg id="main" version="1.1" xmlns="http://www.w3.org/2000/svg" xmlns:xlink="http://www.w3.org/1999/xlink" xml:space="preserve">

<style type="text/css"><![CDATA[
.node, .edge {opacity: 0.7;}
.node.selected, .edge.selected {opacity: 1;}
.edge:hover path { stroke: red; }
.edge:hover polygon { stroke: red; fill: red; }
]]></style>
<script type="application/ecmascript" xlink:href="svg.min.js"/>
<svg id="graph" class="graph">
<g id="graph0" class="graph" transform="scale(1 1) rotate(0) translate(4 78.25)">
<title>main</title>
<!-- Node1 -->
<g id="Node000001" class="node">
<title>Node1</title>
<g id="a_Node000001"><a xlink:title=" ">
<polygon fill="#999999" stroke="#666666" points="37,-38.25 0,-38.25 0,-19 37,-19 37,-38.25"/>
<text text-anchor="middle" x="18.5" y="-24.75" font-family="Helvetica,sans-Serif" font-size="10.00">main</text>
</a>
</g>
</g>
<!-- Node2 -->
<g id="Node000002" class="node">
<title>Node2</title>
<g id="a_Node000002"><a xlink:href="ordinary__least__squares__regressor_8cpp.html#aaddc683af581b51351e1023d2a01ef3b" target="_top" xlink:title=" ">
<polygon fill="white" stroke="#666666" points="264.75,-56.25 170,-56.25 170,-37 264.75,-37 264.75,-56.25"/>
<text text-anchor="middle" x="217.38" y="-42.75" font-family="Helvetica,sans-Serif" font-size="10.00">fit_OLS_regressor</text>
</a>
</g>
</g>
<!-- Node1&#45;&gt;Node2 -->
<g id="edge1_Node000001_Node000002" class="edge">
<title>Node1&#45;&gt;Node2</title>
<g id="a_edge1_Node000001_Node000002"><a xlink:title=" ">
<path fill="none" stroke="#63b8ff" d="M37.41,-36.72C47.61,-40.88 60.76,-45.52 73,-47.62 100.78,-52.41 132.04,-52.77 158.26,-51.68"/>
<polygon fill="#63b8ff" stroke="#63b8ff" points="158.22,-55.18 168.03,-51.18 157.87,-48.19 158.22,-55.18"/>
</a>
</g>
</g>
<!-- Node6 -->
<g id="Node000006" class="node">
<title>Node6</title>
<g id="a_Node000006"><a xlink:href="ordinary__least__squares__regressor_8cpp.html#a4261f3c3c3dfdb86f3004eb8aaffea8d" target="_top" xlink:title=" ">
<polygon fill="white" stroke="#666666" points="123.5,-38.25 73,-38.25 73,-19 123.5,-19 123.5,-38.25"/>
<text text-anchor="middle" x="98.25" y="-24.75" font-family="Helvetica,sans-Serif" font-size="10.00">ols_test</text>
</a>
</g>
</g>
<!-- Node1&#45;&gt;Node6 -->
<g id="edge5_Node000001_Node000006" class="edge">
<title>Node1&#45;&gt;Node6</title>
<g id="a_edge5_Node000001_Node000006"><a xlink:title=" ">
<path fill="none" stroke="#63b8ff" d="M37.14,-28.62C44.27,-28.62 52.77,-28.62 61.1,-28.62"/>
<polygon fill="#63b8ff" stroke="#63b8ff" points="61.09,-32.13 71.09,-28.63 61.09,-25.13 61.09,-32.13"/>
</a>
</g>
</g>
<!-- Node7 -->
<g id="Node000007" class="node">
<title>Node7</title>
<g id="a_Node000007"><a xlink:href="ordinary__least__squares__regressor_8cpp.html#ade6e463f37878fe2a219f927c65b5493" target="_top" xlink:title=" ">
<polygon fill="white" stroke="#666666" points="275.25,-19.25 159.5,-19.25 159.5,0 275.25,0 275.25,-19.25"/>
<text text-anchor="middle" x="217.38" y="-5.75" font-family="Helvetica,sans-Serif" font-size="10.00">predict_OLS_regressor</text>
</a>
</g>
</g>
<!-- Node1&#45;&gt;Node7 -->
<g id="edge8_Node000001_Node000007" class="edge">
<title>Node1&#45;&gt;Node7</title>
<g id="a_edge8_Node000001_Node000007"><a xlink:title=" ">
<path fill="none" stroke="#63b8ff" d="M37.41,-20.53C47.61,-16.37 60.76,-11.73 73,-9.62 97.14,-5.47 123.9,-4.5 147.71,-4.9"/>
<polygon fill="#63b8ff" stroke="#63b8ff" points="147.53,-8.39 157.62,-5.15 147.71,-1.4 147.53,-8.39"/>
</a>
</g>
</g>
<!-- Node3 -->
<g id="Node000003" class="node">
<title>Node3</title>
<g id="a_Node000003"><a xlink:href="ordinary__least__squares__regressor_8cpp.html#af7243bdc6ae3c7169f01b85bb226e66a" target="_top" xlink:title=" ">
<polygon fill="white" stroke="#666666" points="383.12,-74.25 316.88,-74.25 316.88,-55 383.12,-55 383.12,-74.25"/>
<text text-anchor="middle" x="350" y="-60.75" font-family="Helvetica,sans-Serif" font-size="10.00">get_inverse</text>
</a>
</g>
</g>
<!-- Node2&#45;&gt;Node3 -->
<g id="edge2_Node000002_Node000003" class="edge">
<title>Node2&#45;&gt;Node3</title>
<g id="a_edge2_Node000002_Node000003"><a xlink:title=" ">
<path fill="none" stroke="#63b8ff" d="M265.16,-53.07C278.17,-54.86 292.24,-56.8 305.07,-58.57"/>
<polygon fill="#63b8ff" stroke="#63b8ff" points="304.56,-62.03 314.94,-59.93 305.52,-55.1 304.56,-62.03"/>
</a>
</g>
</g>
<!-- Node5 -->
<g id="Node000005" class="node">
<title>Node5</title>
<g id="a_Node000005"><a xlink:href="ordinary__least__squares__regressor_8cpp.html#a21c80569aaffb7bf1657e54fa4b97deb" target="_top" xlink:title=" ">
<polygon fill="white" stroke="#666666" points="388.75,-37.25 311.25,-37.25 311.25,-18 388.75,-18 388.75,-37.25"/>
<text text-anchor="middle" x="350" y="-23.75" font-family="Helvetica,sans-Serif" font-size="10.00">get_transpose</text>
</a>
</g>
</g>
<!-- Node2&#45;&gt;Node5 -->
<g id="edge4_Node000002_Node000005" class="edge">
<title>Node2&#45;&gt;Node5</title>
<g id="a_edge4_Node000002_Node000005"><a xlink:title=" ">
<path fill="none" stroke="#63b8ff" d="M265.16,-39.82C276.47,-38.17 288.59,-36.41 300,-34.75"/>
<polygon fill="#63b8ff" stroke="#63b8ff" points="300.23,-38.26 309.62,-33.35 299.22,-31.33 300.23,-38.26"/>
</a>
</g>
</g>
<!-- Node4 -->
<g id="Node000004" class="node">
<title>Node4</title>
<g id="a_Node000004"><a xlink:href="ordinary__least__squares__regressor_8cpp.html#a8fa731952b0ee3bc7ec51c51ed21911e" target="_top" xlink:title=" ">
<polygon fill="white" stroke="#666666" points="482.75,-74.25 424.75,-74.25 424.75,-55 482.75,-55 482.75,-74.25"/>
<text text-anchor="middle" x="453.75" y="-60.75" font-family="Helvetica,sans-Serif" font-size="10.00">is_square</text>
</a>
</g>
</g>
<!-- Node3&#45;&gt;Node4 -->
<g id="edge3_Node000003_Node000004" class="edge">
<title>Node3&#45;&gt;Node4</title>
<g id="a_edge3_Node000003_Node000004"><a xlink:title=" ">
<path fill="none" stroke="#63b8ff" d="M383.47,-64.62C392.82,-64.62 403.12,-64.62 412.86,-64.62"/>
<polygon fill="#63b8ff" stroke="#63b8ff" points="412.84,-68.13 422.84,-64.63 412.84,-61.13 412.84,-68.13"/>
</a>
</g>
</g>
<!-- Node6&#45;&gt;Node2 -->
<g id="edge6_Node000006_Node000002" class="edge">
<title>Node6&#45;&gt;Node2</title>
<g id="a_edge6_Node000006_Node000002"><a xlink:title=" ">
<path fill="none" stroke="#63b8ff" d="M123.8,-32.4C133.97,-33.96 146.23,-35.85 158.46,-37.72"/>
<polygon fill="#63b8ff" stroke="#63b8ff" points="157.7,-41.15 168.12,-39.21 158.77,-34.23 157.7,-41.15"/>
</a>
</g>
</g>
<!-- Node6&#45;&gt;Node7 -->
<g id="edge7_Node000006_Node000007" class="edge">
<title>Node6&#45;&gt;Node7</title>
<g id="a_edge7_Node000006_Node000007"><a xlink:title=" ">
<path fill="none" stroke="#63b8ff" d="M123.8,-24.64C130.99,-23.48 139.21,-22.14 147.73,-20.76"/>
<polygon fill="#63b8ff" stroke="#63b8ff" points="148.24,-24.22 157.55,-19.17 147.12,-17.31 148.24,-24.22"/>
</a>
</g>
</g>
</g>
</svg>
</svg>

<style type='text/css'>
<![CDATA[
[data-mouse-over-selected='false'] { opacity: 0.7; }
[data-mouse-over-selected='true']  { opacity: 1.0; }
]]>
</style>
<script type="application/ecmascript"><![CDATA[
document.addEventListener('DOMContentLoaded', (event) => {
  highlightEdges();
  highlightAdjacentNodes();
});
]]></script>
</svg>
