<?xml version="1.0" encoding="UTF-8" standalone="no"?>
<!DOCTYPE svg PUBLIC "-//W3C//DTD SVG 1.1//EN"
 "http://www.w3.org/Graphics/SVG/1.1/DTD/svg11.dtd">
<!-- Generated by graphviz version 12.1.1 (20240910.0053)
 -->
<!-- Title: main Pages: 1 -->
<svg width="162pt" height="64pt"
 viewBox="0.00 0.00 162.25 64.25" xmlns="http://www.w3.org/2000/svg" xmlns:xlink="http://www.w3.org/1999/xlink">
<g id="graph0" class="graph" transform="scale(1 1) rotate(0) translate(4 60.25)">
<title>main</title>
<!-- Node1 -->
<g id="Node000001" class="node">
<title>Node1</title>
<g id="a_Node000001"><a xlink:title=" ">
<polygon fill="#999999" stroke="#666666" points="37,-37.25 0,-37.25 0,-18 37,-18 37,-37.25"/>
<text text-anchor="middle" x="18.5" y="-23.75" font-family="Helvetica,sans-Serif" font-size="10.00">main</text>
</a>
</g>
</g>
<!-- Node2 -->
<g id="Node000002" class="node">
<title>Node2</title>
<g id="a_Node000002"><a xlink:href="pascal__triangle_8cpp.html#a4fc0e5a112f715c3a73989450b2cc5fd" target="_top" xlink:title=" ">
<polygon fill="white" stroke="#666666" points="154.25,-56.25 73,-56.25 73,-37 154.25,-37 154.25,-56.25"/>
<text text-anchor="middle" x="113.62" y="-42.75" font-family="Helvetica,sans-Serif" font-size="10.00">pascal_triangle</text>
</a>
</g>
</g>
<!-- Node1&#45;&gt;Node2 -->
<g id="edge1_Node000001_Node000002" class="edge">
<title>Node1&#45;&gt;Node2</title>
<g id="a_edge1_Node000001_Node000002"><a xlink:title=" ">
<path fill="none" stroke="#63b8ff" d="M37.46,-31.29C44.52,-32.73 53.01,-34.46 61.71,-36.24"/>
<polygon fill="#63b8ff" stroke="#63b8ff" points="60.76,-39.62 71.26,-38.19 62.16,-32.76 60.76,-39.62"/>
</a>
</g>
</g>
<!-- Node3 -->
<g id="Node000003" class="node">
<title>Node3</title>
<g id="a_Node000003"><a xlink:href="pascal__triangle_8cpp.html#ad7a31d9cb2818d21b1ba12aead7f4c5c" target="_top" xlink:title=" ">
<polygon fill="white" stroke="#666666" points="150.12,-19.25 77.12,-19.25 77.12,0 150.12,0 150.12,-19.25"/>
<text text-anchor="middle" x="113.62" y="-5.75" font-family="Helvetica,sans-Serif" font-size="10.00">show_pascal</text>
</a>
</g>
</g>
<!-- Node1&#45;&gt;Node3 -->
<g id="edge2_Node000001_Node000003" class="edge">
<title>Node1&#45;&gt;Node3</title>
<g id="a_edge2_Node000001_Node000003"><a xlink:title=" ">
<path fill="none" stroke="#63b8ff" d="M37.46,-24.15C45.6,-22.58 55.64,-20.64 65.71,-18.69"/>
<polygon fill="#63b8ff" stroke="#63b8ff" points="66.35,-22.13 75.5,-16.8 65.02,-15.26 66.35,-22.13"/>
</a>
</g>
</g>
</g>
</svg>
