<?xml version="1.0" encoding="UTF-8" standalone="no"?>
<!DOCTYPE svg PUBLIC "-//W3C//DTD SVG 1.1//EN"
 "http://www.w3.org/Graphics/SVG/1.1/DTD/svg11.dtd">
<!-- Generated by graphviz version 12.1.1 (20240910.0053)
 -->
<!-- Title: poisson_range_successes Pages: 1 -->
<svg width="357pt" height="64pt"
 viewBox="0.00 0.00 356.75 64.25" xmlns="http://www.w3.org/2000/svg" xmlns:xlink="http://www.w3.org/1999/xlink">
<g id="graph0" class="graph" transform="scale(1 1) rotate(0) translate(4 60.25)">
<title>poisson_range_successes</title>
<!-- Node1 -->
<g id="Node000001" class="node">
<title>Node1</title>
<g id="a_Node000001"><a xlink:title=" ">
<polygon fill="#999999" stroke="#666666" points="131.5,-37.25 0,-37.25 0,-18 131.5,-18 131.5,-37.25"/>
<text text-anchor="middle" x="65.75" y="-23.75" font-family="Helvetica,sans-Serif" font-size="10.00">poisson_range_successes</text>
</a>
</g>
</g>
<!-- Node2 -->
<g id="Node000002" class="node">
<title>Node2</title>
<g id="a_Node000002"><a xlink:href="text__search_8cpp.html#a3f8975d227cd0e58f298b380c5dac0d9" target="_top" xlink:title="function to convert a C++ string to lower case">
<polygon fill="white" stroke="#666666" points="243.5,-56.25 204.25,-56.25 204.25,-37 243.5,-37 243.5,-56.25"/>
<text text-anchor="middle" x="223.88" y="-42.75" font-family="Helvetica,sans-Serif" font-size="10.00">lower</text>
</a>
</g>
</g>
<!-- Node1&#45;&gt;Node2 -->
<g id="edge1_Node000001_Node000002" class="edge">
<title>Node1&#45;&gt;Node2</title>
<g id="a_edge1_Node000001_Node000002"><a xlink:title=" ">
<path fill="none" stroke="#63b8ff" d="M131.6,-35.52C152.74,-38.09 175.21,-40.82 192.56,-42.94"/>
<polygon fill="#63b8ff" stroke="#63b8ff" points="192.09,-46.4 202.44,-44.14 192.93,-39.46 192.09,-46.4"/>
</a>
</g>
</g>
<!-- Node3 -->
<g id="Node000003" class="node">
<title>Node3</title>
<g id="a_Node000003"><a xlink:href="poisson__dist_8cpp.html#a69a136b32707bdc7950fb9057b5fa1e1" target="_top" xlink:title=" ">
<polygon fill="white" stroke="#666666" points="280.25,-19.25 167.5,-19.25 167.5,0 280.25,0 280.25,-19.25"/>
<text text-anchor="middle" x="223.88" y="-5.75" font-family="Helvetica,sans-Serif" font-size="10.00">poisson_x_successes</text>
</a>
</g>
</g>
<!-- Node1&#45;&gt;Node3 -->
<g id="edge2_Node000001_Node000003" class="edge">
<title>Node1&#45;&gt;Node3</title>
<g id="a_edge2_Node000001_Node000003"><a xlink:title=" ">
<path fill="none" stroke="#63b8ff" d="M131.6,-20.15C139.69,-19.22 147.97,-18.26 156.09,-17.33"/>
<polygon fill="#63b8ff" stroke="#63b8ff" points="156.37,-20.82 165.91,-16.19 155.57,-13.86 156.37,-20.82"/>
</a>
</g>
</g>
<!-- Node4 -->
<g id="Node000004" class="node">
<title>Node4</title>
<g id="a_Node000004"><a xlink:href="poisson__dist_8cpp.html#a63ffd347e75d5ed7a518cbcfbfeec71a" target="_top" xlink:title=" ">
<polygon fill="white" stroke="#666666" points="348.75,-19.25 316.25,-19.25 316.25,0 348.75,0 348.75,-19.25"/>
<text text-anchor="middle" x="332.5" y="-5.75" font-family="Helvetica,sans-Serif" font-size="10.00">fact</text>
</a>
</g>
</g>
<!-- Node3&#45;&gt;Node4 -->
<g id="edge3_Node000003_Node000004" class="edge">
<title>Node3&#45;&gt;Node4</title>
<g id="a_edge3_Node000003_Node000004"><a xlink:title=" ">
<path fill="none" stroke="#63b8ff" d="M280.69,-9.62C288.95,-9.62 297.13,-9.62 304.44,-9.62"/>
<polygon fill="#63b8ff" stroke="#63b8ff" points="304.25,-13.13 314.25,-9.63 304.25,-6.13 304.25,-13.13"/>
</a>
</g>
</g>
</g>
</svg>
