<?xml version="1.0" encoding="UTF-8" standalone="no"?>
<!DOCTYPE svg PUBLIC "-//W3C//DTD SVG 1.1//EN"
 "http://www.w3.org/Graphics/SVG/1.1/DTD/svg11.dtd">
<!-- Generated by graphviz version 12.1.1 (20240910.0053)
 -->
<!-- Title: main Pages: 1 -->
<svg width="430pt" height="140pt"
 viewBox="0.00 0.00 429.75 140.25" xmlns="http://www.w3.org/2000/svg" xmlns:xlink="http://www.w3.org/1999/xlink">
<g id="graph0" class="graph" transform="scale(1 1) rotate(0) translate(4 136.25)">
<title>main</title>
<!-- Node1 -->
<g id="Node000001" class="node">
<title>Node1</title>
<g id="a_Node000001"><a xlink:title=" ">
<polygon fill="#999999" stroke="#666666" points="37,-76.25 0,-76.25 0,-57 37,-57 37,-76.25"/>
<text text-anchor="middle" x="18.5" y="-62.75" font-family="Helvetica,sans-Serif" font-size="10.00">main</text>
</a>
</g>
</g>
<!-- Node2 -->
<g id="Node000002" class="node">
<title>Node2</title>
<g id="a_Node000002"><a xlink:href="poisson__dist_8cpp.html#ad0aa718023ce802dd5899f0e03a7ac71" target="_top" xlink:title=" ">
<polygon fill="white" stroke="#666666" points="186.12,-132.25 91.38,-132.25 91.38,-113 186.12,-113 186.12,-132.25"/>
<text text-anchor="middle" x="138.75" y="-118.75" font-family="Helvetica,sans-Serif" font-size="10.00">poisson_expected</text>
</a>
</g>
</g>
<!-- Node1&#45;&gt;Node2 -->
<g id="edge1_Node000001_Node000002" class="edge">
<title>Node1&#45;&gt;Node2</title>
<g id="a_edge1_Node000001_Node000002"><a xlink:title=" ">
<path fill="none" stroke="#63b8ff" d="M31.07,-76.66C41.44,-85.18 57.36,-97.18 73,-104.62 76.11,-106.11 79.37,-107.49 82.7,-108.77"/>
<polygon fill="#63b8ff" stroke="#63b8ff" points="81.44,-112.04 92.03,-112.03 83.75,-105.43 81.44,-112.04"/>
</a>
</g>
</g>
<!-- Node3 -->
<g id="Node000003" class="node">
<title>Node3</title>
<g id="a_Node000003"><a xlink:href="poisson__dist_8cpp.html#ad9c9e74079278ca10e3b97a8d5391c9a" target="_top" xlink:title=" ">
<polygon fill="white" stroke="#666666" points="204.5,-95.25 73,-95.25 73,-76 204.5,-76 204.5,-95.25"/>
<text text-anchor="middle" x="138.75" y="-81.75" font-family="Helvetica,sans-Serif" font-size="10.00">poisson_range_successes</text>
</a>
</g>
</g>
<!-- Node1&#45;&gt;Node3 -->
<g id="edge2_Node000001_Node000003" class="edge">
<title>Node1&#45;&gt;Node3</title>
<g id="a_edge2_Node000001_Node000003"><a xlink:title=" ">
<path fill="none" stroke="#63b8ff" d="M37.46,-69.51C44.88,-70.7 54.01,-72.17 63.72,-73.73"/>
<polygon fill="#63b8ff" stroke="#63b8ff" points="62.93,-77.15 73.36,-75.28 64.04,-70.24 62.93,-77.15"/>
</a>
</g>
</g>
<!-- Node5 -->
<g id="Node000005" class="node">
<title>Node5</title>
<g id="a_Node000005"><a xlink:href="poisson__dist_8cpp.html#a69a136b32707bdc7950fb9057b5fa1e1" target="_top" xlink:title=" ">
<polygon fill="white" stroke="#666666" points="353.25,-58.25 240.5,-58.25 240.5,-39 353.25,-39 353.25,-58.25"/>
<text text-anchor="middle" x="296.88" y="-44.75" font-family="Helvetica,sans-Serif" font-size="10.00">poisson_x_successes</text>
</a>
</g>
</g>
<!-- Node1&#45;&gt;Node5 -->
<g id="edge7_Node000001_Node000005" class="edge">
<title>Node1&#45;&gt;Node5</title>
<g id="a_edge7_Node000001_Node000005"><a xlink:title=" ">
<path fill="none" stroke="#63b8ff" d="M37.21,-65.47C75.06,-63.01 165.54,-57.11 228.76,-53"/>
<polygon fill="#63b8ff" stroke="#63b8ff" points="228.97,-56.49 238.72,-52.35 228.51,-49.5 228.97,-56.49"/>
</a>
</g>
</g>
<!-- Node7 -->
<g id="Node000007" class="node">
<title>Node7</title>
<g id="a_Node000007"><a xlink:href="poisson__dist_8cpp.html#ac217ab9a06291f360d816700a6958ca8" target="_top" xlink:title=" ">
<polygon fill="white" stroke="#666666" points="174.5,-19.25 103,-19.25 103,0 174.5,0 174.5,-19.25"/>
<text text-anchor="middle" x="138.75" y="-5.75" font-family="Helvetica,sans-Serif" font-size="10.00">poisson_rate</text>
</a>
</g>
</g>
<!-- Node1&#45;&gt;Node7 -->
<g id="edge6_Node000001_Node000007" class="edge">
<title>Node1&#45;&gt;Node7</title>
<g id="a_edge6_Node000001_Node000007"><a xlink:title=" ">
<path fill="none" stroke="#63b8ff" d="M34.04,-56.56C44.56,-49.56 59.27,-40.32 73,-33.62 80.41,-30.01 88.51,-26.61 96.39,-23.56"/>
<polygon fill="#63b8ff" stroke="#63b8ff" points="97.35,-26.94 105.51,-20.17 94.91,-20.38 97.35,-26.94"/>
</a>
</g>
</g>
<!-- Node4 -->
<g id="Node000004" class="node">
<title>Node4</title>
<g id="a_Node000004"><a xlink:href="text__search_8cpp.html#a3f8975d227cd0e58f298b380c5dac0d9" target="_top" xlink:title="function to convert a C++ string to lower case">
<polygon fill="white" stroke="#666666" points="316.5,-95.25 277.25,-95.25 277.25,-76 316.5,-76 316.5,-95.25"/>
<text text-anchor="middle" x="296.88" y="-81.75" font-family="Helvetica,sans-Serif" font-size="10.00">lower</text>
</a>
</g>
</g>
<!-- Node3&#45;&gt;Node4 -->
<g id="edge3_Node000003_Node000004" class="edge">
<title>Node3&#45;&gt;Node4</title>
<g id="a_edge3_Node000003_Node000004"><a xlink:title=" ">
<path fill="none" stroke="#63b8ff" d="M204.6,-85.62C225.74,-85.62 248.21,-85.62 265.56,-85.62"/>
<polygon fill="#63b8ff" stroke="#63b8ff" points="265.43,-89.13 275.43,-85.63 265.43,-82.13 265.43,-89.13"/>
</a>
</g>
</g>
<!-- Node3&#45;&gt;Node5 -->
<g id="edge4_Node000003_Node000005" class="edge">
<title>Node3&#45;&gt;Node5</title>
<g id="a_edge4_Node000003_Node000005"><a xlink:title=" ">
<path fill="none" stroke="#63b8ff" d="M182.41,-75.51C200.83,-71.15 222.58,-66 242.08,-61.37"/>
<polygon fill="#63b8ff" stroke="#63b8ff" points="242.87,-64.78 251.79,-59.07 241.25,-57.97 242.87,-64.78"/>
</a>
</g>
</g>
<!-- Node6 -->
<g id="Node000006" class="node">
<title>Node6</title>
<g id="a_Node000006"><a xlink:href="poisson__dist_8cpp.html#a63ffd347e75d5ed7a518cbcfbfeec71a" target="_top" xlink:title=" ">
<polygon fill="white" stroke="#666666" points="421.75,-58.25 389.25,-58.25 389.25,-39 421.75,-39 421.75,-58.25"/>
<text text-anchor="middle" x="405.5" y="-44.75" font-family="Helvetica,sans-Serif" font-size="10.00">fact</text>
</a>
</g>
</g>
<!-- Node5&#45;&gt;Node6 -->
<g id="edge5_Node000005_Node000006" class="edge">
<title>Node5&#45;&gt;Node6</title>
<g id="a_edge5_Node000005_Node000006"><a xlink:title=" ">
<path fill="none" stroke="#63b8ff" d="M353.69,-48.62C361.95,-48.62 370.13,-48.62 377.44,-48.62"/>
<polygon fill="#63b8ff" stroke="#63b8ff" points="377.25,-52.13 387.25,-48.63 377.25,-45.13 377.25,-52.13"/>
</a>
</g>
</g>
</g>
</svg>
