<?xml version="1.0" encoding="UTF-8" standalone="no"?>
<!DOCTYPE svg PUBLIC "-//W3C//DTD SVG 1.1//EN"
 "http://www.w3.org/Graphics/SVG/1.1/DTD/svg11.dtd">
<!-- Generated by graphviz version 12.1.1 (20240910.0053)
 -->
<!-- Title: test1 Pages: 1 -->
<svg width="675pt" height="82pt"
 viewBox="0.00 0.00 674.50 82.25" xmlns="http://www.w3.org/2000/svg" xmlns:xlink="http://www.w3.org/1999/xlink">
<g id="graph0" class="graph" transform="scale(1 1) rotate(0) translate(4 78.25)">
<title>test1</title>
<!-- Node1 -->
<g id="Node000001" class="node">
<title>Node1</title>
<g id="a_Node000001"><a xlink:title=" ">
<polygon fill="#999999" stroke="#666666" points="37.75,-55.25 0,-55.25 0,-36 37.75,-36 37.75,-55.25"/>
<text text-anchor="middle" x="18.88" y="-41.75" font-family="Helvetica,sans-Serif" font-size="10.00">test1</text>
</a>
</g>
</g>
<!-- Node2 -->
<g id="Node000002" class="node">
<title>Node2</title>
<g id="a_Node000002"><a xlink:href="namespaceqr__algorithm.html#a28e2fa3e803abaea6c568dc45d69d8cc" target="_top" xlink:title=" ">
<polygon fill="white" stroke="#666666" points="172.25,-60.88 73.75,-60.88 73.75,-30.38 172.25,-30.38 172.25,-60.88"/>
<text text-anchor="start" x="81.75" y="-47.38" font-family="Helvetica,sans-Serif" font-size="10.00">qr_algorithm::eigen</text>
<text text-anchor="middle" x="123" y="-36.12" font-family="Helvetica,sans-Serif" font-size="10.00">_values</text>
</a>
</g>
</g>
<!-- Node1&#45;&gt;Node2 -->
<g id="edge1_Node000001_Node000002" class="edge">
<title>Node1&#45;&gt;Node2</title>
<g id="a_edge1_Node000001_Node000002"><a xlink:title=" ">
<path fill="none" stroke="#63b8ff" d="M38.13,-45.62C45.15,-45.62 53.61,-45.62 62.41,-45.62"/>
<polygon fill="#63b8ff" stroke="#63b8ff" points="62.15,-49.13 72.15,-45.63 62.15,-42.13 62.15,-49.13"/>
</a>
</g>
</g>
<!-- Node3 -->
<g id="Node000003" class="node">
<title>Node3</title>
<g id="a_Node000003"><a xlink:href="qr__eigen__values_8cpp.html#abb8bf4c55e10685a5eb2ad3797fde1ae" target="_top" xlink:title=" ">
<polygon fill="white" stroke="#666666" points="304.5,-74.25 251,-74.25 251,-55 304.5,-55 304.5,-74.25"/>
<text text-anchor="middle" x="277.75" y="-60.75" font-family="Helvetica,sans-Serif" font-size="10.00">mat_mul</text>
</a>
</g>
</g>
<!-- Node2&#45;&gt;Node3 -->
<g id="edge2_Node000002_Node000003" class="edge">
<title>Node2&#45;&gt;Node3</title>
<g id="a_edge2_Node000002_Node000003"><a xlink:title=" ">
<path fill="none" stroke="#63b8ff" d="M172.33,-51.64C194.1,-54.35 219.41,-57.49 239.65,-60.01"/>
<polygon fill="#63b8ff" stroke="#63b8ff" points="239.07,-63.46 249.42,-61.23 239.93,-56.52 239.07,-63.46"/>
</a>
</g>
</g>
<!-- Node4 -->
<g id="Node000004" class="node">
<title>Node4</title>
<g id="a_Node000004"><a xlink:href="namespaceqr__algorithm.html#a73ce637634fc49e1d10d190eb388ebf1" target="_top" xlink:title=" ">
<polygon fill="white" stroke="#666666" points="347.25,-37.25 208.25,-37.25 208.25,-18 347.25,-18 347.25,-37.25"/>
<text text-anchor="middle" x="277.75" y="-23.75" font-family="Helvetica,sans-Serif" font-size="10.00">qr_algorithm::qr_decompose</text>
</a>
</g>
</g>
<!-- Node2&#45;&gt;Node4 -->
<g id="edge3_Node000002_Node000004" class="edge">
<title>Node2&#45;&gt;Node4</title>
<g id="a_edge3_Node000002_Node000004"><a xlink:title=" ">
<path fill="none" stroke="#63b8ff" d="M172.33,-39.93C180.08,-39.02 188.28,-38.05 196.54,-37.08"/>
<polygon fill="#63b8ff" stroke="#63b8ff" points="196.78,-40.57 206.3,-35.93 195.96,-33.62 196.78,-40.57"/>
</a>
</g>
</g>
<!-- Node5 -->
<g id="Node000005" class="node">
<title>Node5</title>
<g id="a_Node000005"><a xlink:href="namespaceqr__algorithm.html#ad16da2183db22378435042f26af43d5f" target="_top" xlink:title=" ">
<polygon fill="white" stroke="#666666" points="509.5,-56.25 383.25,-56.25 383.25,-37 509.5,-37 509.5,-56.25"/>
<text text-anchor="middle" x="446.38" y="-42.75" font-family="Helvetica,sans-Serif" font-size="10.00">qr_algorithm::vector_mag</text>
</a>
</g>
</g>
<!-- Node4&#45;&gt;Node5 -->
<g id="edge4_Node000004_Node000005" class="edge">
<title>Node4&#45;&gt;Node5</title>
<g id="a_edge4_Node000004_Node000005"><a xlink:title=" ">
<path fill="none" stroke="#63b8ff" d="M347.48,-35.46C355.47,-36.37 363.63,-37.3 371.68,-38.22"/>
<polygon fill="#63b8ff" stroke="#63b8ff" points="371.1,-41.68 381.44,-39.33 371.9,-34.72 371.1,-41.68"/>
</a>
</g>
</g>
<!-- Node7 -->
<g id="Node000007" class="node">
<title>Node7</title>
<g id="a_Node000007"><a xlink:href="namespaceqr__algorithm.html#a6d3c7dce1f142141f509d09f6c0e25dc" target="_top" xlink:title=" ">
<polygon fill="white" stroke="#666666" points="508,-19.25 384.75,-19.25 384.75,0 508,0 508,-19.25"/>
<text text-anchor="middle" x="446.38" y="-5.75" font-family="Helvetica,sans-Serif" font-size="10.00">qr_algorithm::vector_proj</text>
</a>
</g>
</g>
<!-- Node4&#45;&gt;Node7 -->
<g id="edge6_Node000004_Node000007" class="edge">
<title>Node4&#45;&gt;Node7</title>
<g id="a_edge6_Node000004_Node000007"><a xlink:title=" ">
<path fill="none" stroke="#63b8ff" d="M347.48,-20.2C355.87,-19.29 364.45,-18.37 372.89,-17.46"/>
<polygon fill="#63b8ff" stroke="#63b8ff" points="373.19,-20.94 382.76,-16.39 372.44,-13.98 373.19,-20.94"/>
</a>
</g>
</g>
<!-- Node6 -->
<g id="Node000006" class="node">
<title>Node6</title>
<g id="a_Node000006"><a xlink:href="namespaceqr__algorithm.html#a8ea313a1a1b5f9d0e3e332c29c6446ec" target="_top" xlink:title=" ">
<polygon fill="white" stroke="#666666" points="666.5,-37.25 545.5,-37.25 545.5,-18 666.5,-18 666.5,-37.25"/>
<text text-anchor="middle" x="606" y="-23.75" font-family="Helvetica,sans-Serif" font-size="10.00">qr_algorithm::vector_dot</text>
</a>
</g>
</g>
<!-- Node5&#45;&gt;Node6 -->
<g id="edge5_Node000005_Node000006" class="edge">
<title>Node5&#45;&gt;Node6</title>
<g id="a_edge5_Node000005_Node000006"><a xlink:title=" ">
<path fill="none" stroke="#63b8ff" d="M509.67,-39.12C517.63,-38.16 525.82,-37.17 533.9,-36.2"/>
<polygon fill="#63b8ff" stroke="#63b8ff" points="534.2,-39.68 543.71,-35.01 533.36,-32.73 534.2,-39.68"/>
</a>
</g>
</g>
<!-- Node7&#45;&gt;Node6 -->
<g id="edge7_Node000007_Node000006" class="edge">
<title>Node7&#45;&gt;Node6</title>
<g id="a_edge7_Node000007_Node000006"><a xlink:title=" ">
<path fill="none" stroke="#63b8ff" d="M508.32,-16.58C516.75,-17.55 525.47,-18.54 534.07,-19.52"/>
<polygon fill="#63b8ff" stroke="#63b8ff" points="533.42,-22.97 543.75,-20.63 534.22,-16.02 533.42,-22.97"/>
</a>
</g>
</g>
</g>
</svg>
