<?xml version="1.0" encoding="UTF-8" standalone="no"?>
<!DOCTYPE svg PUBLIC "-//W3C//DTD SVG 1.1//EN"
 "http://www.w3.org/Graphics/SVG/1.1/DTD/svg11.dtd">
<!-- Generated by graphviz version 12.1.1 (20240910.0053)
 -->
<!-- Title: main Pages: 1 -->
<svg width="785pt" height="140pt"
 viewBox="0.00 0.00 785.00 140.25" xmlns="http://www.w3.org/2000/svg" xmlns:xlink="http://www.w3.org/1999/xlink">
<g id="graph0" class="graph" transform="scale(1 1) rotate(0) translate(4 136.25)">
<title>main</title>
<!-- Node1 -->
<g id="Node000001" class="node">
<title>Node1</title>
<g id="a_Node000001"><a xlink:title=" ">
<polygon fill="#999999" stroke="#666666" points="37,-75.25 0,-75.25 0,-56 37,-56 37,-75.25"/>
<text text-anchor="middle" x="18.5" y="-61.75" font-family="Helvetica,sans-Serif" font-size="10.00">main</text>
</a>
</g>
</g>
<!-- Node2 -->
<g id="Node000002" class="node">
<title>Node2</title>
<g id="a_Node000002"><a xlink:href="qr__eigen__values_8cpp.html#a9bbf469d5525a816b0d6ca812119093d" target="_top" xlink:title=" ">
<polygon fill="white" stroke="#666666" points="148.25,-132.25 73,-132.25 73,-113 148.25,-113 148.25,-132.25"/>
<text text-anchor="middle" x="110.62" y="-118.75" font-family="Helvetica,sans-Serif" font-size="10.00">create_matrix</text>
</a>
</g>
</g>
<!-- Node1&#45;&gt;Node2 -->
<g id="edge1_Node000001_Node000002" class="edge">
<title>Node1&#45;&gt;Node2</title>
<g id="a_edge1_Node000001_Node000002"><a xlink:title=" ">
<path fill="none" stroke="#63b8ff" d="M35.2,-75.55C48.69,-84.08 68.39,-96.54 84.13,-106.5"/>
<polygon fill="#63b8ff" stroke="#63b8ff" points="82.2,-109.42 92.52,-111.81 85.94,-103.51 82.2,-109.42"/>
</a>
</g>
</g>
<!-- Node3 -->
<g id="Node000003" class="node">
<title>Node3</title>
<g id="a_Node000003"><a xlink:href="namespaceqr__algorithm.html#a28e2fa3e803abaea6c568dc45d69d8cc" target="_top" xlink:title=" ">
<polygon fill="white" stroke="#666666" points="282.75,-61.88 184.25,-61.88 184.25,-31.38 282.75,-31.38 282.75,-61.88"/>
<text text-anchor="start" x="192.25" y="-48.38" font-family="Helvetica,sans-Serif" font-size="10.00">qr_algorithm::eigen</text>
<text text-anchor="middle" x="233.5" y="-37.12" font-family="Helvetica,sans-Serif" font-size="10.00">_values</text>
</a>
</g>
</g>
<!-- Node1&#45;&gt;Node3 -->
<g id="edge2_Node000001_Node000003" class="edge">
<title>Node1&#45;&gt;Node3</title>
<g id="a_edge2_Node000001_Node000003"><a xlink:title=" ">
<path fill="none" stroke="#63b8ff" d="M37.48,-66.88C62.43,-68.33 108.93,-70 148.25,-65.62 156.24,-64.74 164.58,-63.38 172.77,-61.8"/>
<polygon fill="#63b8ff" stroke="#63b8ff" points="173.24,-65.28 182.32,-59.84 171.82,-58.43 173.24,-65.28"/>
</a>
</g>
</g>
<!-- Node9 -->
<g id="Node000009" class="node">
<title>Node9</title>
<g id="a_Node000009"><a xlink:href="qr__eigen__values_8cpp.html#a1440a7779ac56f47a3f355ce4a8c7da0" target="_top" xlink:title=" ">
<polygon fill="white" stroke="#666666" points="129.5,-56.25 91.75,-56.25 91.75,-37 129.5,-37 129.5,-56.25"/>
<text text-anchor="middle" x="110.62" y="-42.75" font-family="Helvetica,sans-Serif" font-size="10.00">test1</text>
</a>
</g>
</g>
<!-- Node1&#45;&gt;Node9 -->
<g id="edge9_Node000001_Node000009" class="edge">
<title>Node1&#45;&gt;Node9</title>
<g id="a_edge9_Node000001_Node000009"><a xlink:title=" ">
<path fill="none" stroke="#63b8ff" d="M37.31,-61.87C49.57,-59.29 66.15,-55.79 80.34,-52.8"/>
<polygon fill="#63b8ff" stroke="#63b8ff" points="81,-56.24 90.07,-50.75 79.56,-49.39 81,-56.24"/>
</a>
</g>
</g>
<!-- Node10 -->
<g id="Node000010" class="node">
<title>Node10</title>
<g id="a_Node000010"><a xlink:href="qr__eigen__values_8cpp.html#a0283886819c7c140a023582b7269e2d0" target="_top" xlink:title=" ">
<polygon fill="white" stroke="#666666" points="129.5,-19.25 91.75,-19.25 91.75,0 129.5,0 129.5,-19.25"/>
<text text-anchor="middle" x="110.62" y="-5.75" font-family="Helvetica,sans-Serif" font-size="10.00">test2</text>
</a>
</g>
</g>
<!-- Node1&#45;&gt;Node10 -->
<g id="edge11_Node000001_Node000010" class="edge">
<title>Node1&#45;&gt;Node10</title>
<g id="a_edge11_Node000001_Node000010"><a xlink:title=" ">
<path fill="none" stroke="#63b8ff" d="M32.3,-55.65C42.9,-47.61 58.51,-36.25 73,-27.62 75.65,-26.05 78.45,-24.49 81.29,-22.98"/>
<polygon fill="#63b8ff" stroke="#63b8ff" points="82.74,-26.17 90.09,-18.53 79.58,-19.92 82.74,-26.17"/>
</a>
</g>
</g>
<!-- Node4 -->
<g id="Node000004" class="node">
<title>Node4</title>
<g id="a_Node000004"><a xlink:href="qr__eigen__values_8cpp.html#abb8bf4c55e10685a5eb2ad3797fde1ae" target="_top" xlink:title=" ">
<polygon fill="white" stroke="#666666" points="415,-75.25 361.5,-75.25 361.5,-56 415,-56 415,-75.25"/>
<text text-anchor="middle" x="388.25" y="-61.75" font-family="Helvetica,sans-Serif" font-size="10.00">mat_mul</text>
</a>
</g>
</g>
<!-- Node3&#45;&gt;Node4 -->
<g id="edge3_Node000003_Node000004" class="edge">
<title>Node3&#45;&gt;Node4</title>
<g id="a_edge3_Node000003_Node000004"><a xlink:title=" ">
<path fill="none" stroke="#63b8ff" d="M282.83,-52.64C304.6,-55.35 329.91,-58.49 350.15,-61.01"/>
<polygon fill="#63b8ff" stroke="#63b8ff" points="349.57,-64.46 359.92,-62.23 350.43,-57.52 349.57,-64.46"/>
</a>
</g>
</g>
<!-- Node5 -->
<g id="Node000005" class="node">
<title>Node5</title>
<g id="a_Node000005"><a xlink:href="namespaceqr__algorithm.html#a73ce637634fc49e1d10d190eb388ebf1" target="_top" xlink:title=" ">
<polygon fill="white" stroke="#666666" points="457.75,-38.25 318.75,-38.25 318.75,-19 457.75,-19 457.75,-38.25"/>
<text text-anchor="middle" x="388.25" y="-24.75" font-family="Helvetica,sans-Serif" font-size="10.00">qr_algorithm::qr_decompose</text>
</a>
</g>
</g>
<!-- Node3&#45;&gt;Node5 -->
<g id="edge4_Node000003_Node000005" class="edge">
<title>Node3&#45;&gt;Node5</title>
<g id="a_edge4_Node000003_Node000005"><a xlink:title=" ">
<path fill="none" stroke="#63b8ff" d="M282.83,-40.93C290.58,-40.02 298.78,-39.05 307.04,-38.08"/>
<polygon fill="#63b8ff" stroke="#63b8ff" points="307.28,-41.57 316.8,-36.93 306.46,-34.62 307.28,-41.57"/>
</a>
</g>
</g>
<!-- Node6 -->
<g id="Node000006" class="node">
<title>Node6</title>
<g id="a_Node000006"><a xlink:href="namespaceqr__algorithm.html#ad16da2183db22378435042f26af43d5f" target="_top" xlink:title=" ">
<polygon fill="white" stroke="#666666" points="620,-57.25 493.75,-57.25 493.75,-38 620,-38 620,-57.25"/>
<text text-anchor="middle" x="556.88" y="-43.75" font-family="Helvetica,sans-Serif" font-size="10.00">qr_algorithm::vector_mag</text>
</a>
</g>
</g>
<!-- Node5&#45;&gt;Node6 -->
<g id="edge5_Node000005_Node000006" class="edge">
<title>Node5&#45;&gt;Node6</title>
<g id="a_edge5_Node000005_Node000006"><a xlink:title=" ">
<path fill="none" stroke="#63b8ff" d="M457.98,-36.46C465.97,-37.37 474.13,-38.3 482.18,-39.22"/>
<polygon fill="#63b8ff" stroke="#63b8ff" points="481.6,-42.68 491.94,-40.33 482.4,-35.72 481.6,-42.68"/>
</a>
</g>
</g>
<!-- Node8 -->
<g id="Node000008" class="node">
<title>Node8</title>
<g id="a_Node000008"><a xlink:href="namespaceqr__algorithm.html#a6d3c7dce1f142141f509d09f6c0e25dc" target="_top" xlink:title=" ">
<polygon fill="white" stroke="#666666" points="618.5,-20.25 495.25,-20.25 495.25,-1 618.5,-1 618.5,-20.25"/>
<text text-anchor="middle" x="556.88" y="-6.75" font-family="Helvetica,sans-Serif" font-size="10.00">qr_algorithm::vector_proj</text>
</a>
</g>
</g>
<!-- Node5&#45;&gt;Node8 -->
<g id="edge7_Node000005_Node000008" class="edge">
<title>Node5&#45;&gt;Node8</title>
<g id="a_edge7_Node000005_Node000008"><a xlink:title=" ">
<path fill="none" stroke="#63b8ff" d="M457.98,-21.2C466.37,-20.29 474.95,-19.37 483.39,-18.46"/>
<polygon fill="#63b8ff" stroke="#63b8ff" points="483.69,-21.94 493.26,-17.39 482.94,-14.98 483.69,-21.94"/>
</a>
</g>
</g>
<!-- Node7 -->
<g id="Node000007" class="node">
<title>Node7</title>
<g id="a_Node000007"><a xlink:href="namespaceqr__algorithm.html#a8ea313a1a1b5f9d0e3e332c29c6446ec" target="_top" xlink:title=" ">
<polygon fill="white" stroke="#666666" points="777,-38.25 656,-38.25 656,-19 777,-19 777,-38.25"/>
<text text-anchor="middle" x="716.5" y="-24.75" font-family="Helvetica,sans-Serif" font-size="10.00">qr_algorithm::vector_dot</text>
</a>
</g>
</g>
<!-- Node6&#45;&gt;Node7 -->
<g id="edge6_Node000006_Node000007" class="edge">
<title>Node6&#45;&gt;Node7</title>
<g id="a_edge6_Node000006_Node000007"><a xlink:title=" ">
<path fill="none" stroke="#63b8ff" d="M620.17,-40.12C628.13,-39.16 636.32,-38.17 644.4,-37.2"/>
<polygon fill="#63b8ff" stroke="#63b8ff" points="644.7,-40.68 654.21,-36.01 643.86,-33.73 644.7,-40.68"/>
</a>
</g>
</g>
<!-- Node8&#45;&gt;Node7 -->
<g id="edge8_Node000008_Node000007" class="edge">
<title>Node8&#45;&gt;Node7</title>
<g id="a_edge8_Node000008_Node000007"><a xlink:title=" ">
<path fill="none" stroke="#63b8ff" d="M618.82,-17.58C627.25,-18.55 635.97,-19.54 644.57,-20.52"/>
<polygon fill="#63b8ff" stroke="#63b8ff" points="643.92,-23.97 654.25,-21.63 644.72,-17.02 643.92,-23.97"/>
</a>
</g>
</g>
<!-- Node9&#45;&gt;Node3 -->
<g id="edge10_Node000009_Node000003" class="edge">
<title>Node9&#45;&gt;Node3</title>
<g id="a_edge10_Node000009_Node000003"><a xlink:title=" ">
<path fill="none" stroke="#63b8ff" d="M129.98,-46.62C141.52,-46.62 157.11,-46.62 172.65,-46.62"/>
<polygon fill="#63b8ff" stroke="#63b8ff" points="172.38,-50.13 182.38,-46.63 172.38,-43.13 172.38,-50.13"/>
</a>
</g>
</g>
<!-- Node10&#45;&gt;Node3 -->
<g id="edge12_Node000010_Node000003" class="edge">
<title>Node10&#45;&gt;Node3</title>
<g id="a_edge12_Node000010_Node000003"><a xlink:title=" ">
<path fill="none" stroke="#63b8ff" d="M129.98,-15.24C141.63,-18.81 157.41,-23.64 173.1,-28.44"/>
<polygon fill="#63b8ff" stroke="#63b8ff" points="171.86,-31.72 182.44,-31.3 173.91,-25.03 171.86,-31.72"/>
</a>
</g>
</g>
</g>
</svg>
