<?xml version="1.0" encoding="UTF-8" standalone="no"?>
<!DOCTYPE svg PUBLIC "-//W3C//DTD SVG 1.1//EN"
 "http://www.w3.org/Graphics/SVG/1.1/DTD/svg11.dtd">
<!-- Generated by graphviz version 12.1.1 (20240910.0053)
 -->
<!-- Title: main Pages: 1 -->
<!--zoomable 229 -->

<svg id="main" version="1.1" xmlns="http://www.w3.org/2000/svg" xmlns:xlink="http://www.w3.org/1999/xlink" xml:space="preserve" onload="init(evt)">

<style type="text/css"><![CDATA[
.node, .edge {opacity: 0.7;}
.node.selected, .edge.selected {opacity: 1;}
.edge:hover path { stroke: red; }
.edge:hover polygon { stroke: red; fill: red; }
]]></style>

<defs>
  <circle id="rim" cx="0" cy="0" r="7"/>
  <circle id="rim2" cx="0" cy="0" r="3.5"/>
  <g id="zoomPlus">
    <use xlink:href="#rim" fill="#404040"><set attributeName="fill" to="#808080" begin="zoomplus.mouseover" end="zoomplus.mouseout"/></use>
    <path d="M-4,0h8M0,-4v8" fill="none" stroke="white" stroke-width="1.5" pointer-events="none"/>
  </g>
  <g id="zoomMin">
    <use xlink:href="#rim" fill="#404040"><set attributeName="fill" to="#808080" begin="zoomminus.mouseover" end="zoomminus.mouseout"/></use>
    <path d="M-4,0h8" fill="none" stroke="white" stroke-width="1.5" pointer-events="none"/>
  </g>
  <g id="arrowUp" transform="translate(30 24)">
    <use xlink:href="#rim"/>
    <path pointer-events="none" fill="none" stroke="white" stroke-width="1.5" d="M0,-3.0v7 M-2.5,-0.5L0,-3.0L2.5,-0.5"/>
  </g>
  <g id="arrowRight" transform="rotate(90) translate(36 -43)">
    <use xlink:href="#rim"/>
    <path pointer-events="none" fill="none" stroke="white" stroke-width="1.5" d="M0,-3.0v7 M-2.5,-0.5L0,-3.0L2.5,-0.5"/>
  </g>
  <g id="arrowDown" transform="rotate(180) translate(-30 -48)">
    <use xlink:href="#rim"/>
    <path pointer-events="none" fill="none" stroke="white" stroke-width="1.5" d="M0,-3.0v7 M-2.5,-0.5L0,-3.0L2.5,-0.5"/>
  </g>
  <g id="arrowLeft" transform="rotate(270) translate(-36 17)">
    <use xlink:href="#rim"/>
    <path pointer-events="none" fill="none" stroke="white" stroke-width="1.5" d="M0,-3.0v7 M-2.5,-0.5L0,-3.0L2.5,-0.5"/>
  </g>
  <g id="resetDef">
    <use xlink:href="#rim2" fill="#404040"><set attributeName="fill" to="#808080" begin="reset.mouseover" end="reset.mouseout"/></use>
  </g>
</defs>
<script type="application/ecmascript">
var viewWidth = 599;
var viewHeight = 229;
var sectionId = 'dynsection-1';
</script>
<script type="application/ecmascript" xlink:href="svg.min.js"/>
<svg id="graph" class="graph">
<g id="viewport">
<title>main</title>
<!-- Node1 -->
<g id="Node000001" class="node">
<title>Node1</title>
<g id="a_Node000001"><a xlink:title=" ">
<polygon fill="#999999" stroke="#666666" points="37,-105.29 0,-105.29 0,-86.04 37,-86.04 37,-105.29"/>
<text text-anchor="middle" x="18.5" y="-91.79" font-family="Helvetica,sans-Serif" font-size="10.00">main</text>
</a>
</g>
</g>
<!-- Node2 -->
<g id="Node000002" class="node">
<title>Node2</title>
<g id="a_Node000002"><a xlink:href="namespacequadratic__probing.html#a312143ed316d48978084c025ff8d9768" target="_top" xlink:title=" ">
<polygon fill="white" stroke="#666666" points="171.5,-67.91 73,-67.91 73,-37.41 171.5,-37.41 171.5,-67.91"/>
<text text-anchor="start" x="81" y="-54.41" font-family="Helvetica,sans-Serif" font-size="10.00">quadratic_probing::</text>
<text text-anchor="middle" x="122.25" y="-43.16" font-family="Helvetica,sans-Serif" font-size="10.00">addInfo</text>
</a>
</g>
</g>
<!-- Node1&#45;&gt;Node2 -->
<g id="edge1_Node000001_Node000002" class="edge">
<title>Node1&#45;&gt;Node2</title>
<g id="a_edge1_Node000001_Node000002"><a xlink:title=" ">
<path fill="none" stroke="#63b8ff" d="M37.22,-88.17C47.47,-83.85 60.89,-78.17 73.98,-72.64"/>
<polygon fill="#63b8ff" stroke="#63b8ff" points="75.11,-75.96 82.96,-68.85 72.39,-69.52 75.11,-75.96"/>
</a>
</g>
</g>
<!-- Node4 -->
<g id="Node000004" class="node">
<title>Node4</title>
<g id="a_Node000004"><a xlink:href="namespacequadratic__probing.html#ab431981b54c0bae1b2956f716aee1dcf" target="_top" xlink:title=" ">
<polygon fill="white" stroke="#666666" points="456.25,-196.91 357.75,-196.91 357.75,-166.41 456.25,-166.41 456.25,-196.91"/>
<text text-anchor="start" x="365.75" y="-183.41" font-family="Helvetica,sans-Serif" font-size="10.00">quadratic_probing::</text>
<text text-anchor="middle" x="407" y="-172.16" font-family="Helvetica,sans-Serif" font-size="10.00">quadraticProbe</text>
</a>
</g>
</g>
<!-- Node1&#45;&gt;Node4 -->
<g id="edge13_Node000001_Node000004" class="edge">
<title>Node1&#45;&gt;Node4</title>
<g id="a_edge13_Node000001_Node000004"><a xlink:title=" ">
<path fill="none" stroke="#63b8ff" d="M24.73,-105.37C33.06,-119.92 50.69,-147.3 73,-162.66 124.68,-198.27 145.49,-195.99 207.5,-205.66 257.67,-213.49 271.46,-212.69 321.75,-205.66 330.54,-204.44 339.7,-202.52 348.61,-200.3"/>
<polygon fill="#63b8ff" stroke="#63b8ff" points="349.48,-203.69 358.24,-197.73 347.68,-196.92 349.48,-203.69"/>
</a>
</g>
</g>
<!-- Node5 -->
<g id="Node000005" class="node">
<title>Node5</title>
<g id="a_Node000005"><a xlink:href="namespacequadratic__probing.html#a2093d91dd3d377cf0a5c939e45dcefc7" target="_top" xlink:title=" ">
<polygon fill="white" stroke="#666666" points="590.75,-88.91 492.25,-88.91 492.25,-58.41 590.75,-58.41 590.75,-88.91"/>
<text text-anchor="start" x="500.25" y="-75.41" font-family="Helvetica,sans-Serif" font-size="10.00">quadratic_probing::</text>
<text text-anchor="middle" x="541.5" y="-64.16" font-family="Helvetica,sans-Serif" font-size="10.00">hashFxn</text>
</a>
</g>
</g>
<!-- Node1&#45;&gt;Node5 -->
<g id="edge12_Node000001_Node000005" class="edge">
<title>Node1&#45;&gt;Node5</title>
<g id="a_edge12_Node000001_Node000005"><a xlink:title=" ">
<path fill="none" stroke="#63b8ff" d="M24.22,-85.57C31.98,-70.25 49,-41.56 73,-28.66 125.87,-0.26 147.55,-19.53 207.5,-16.66 317.93,-11.38 350.68,17.16 456.25,-15.66 478.5,-22.58 500.08,-37.65 515.83,-50.7"/>
<polygon fill="#63b8ff" stroke="#63b8ff" points="513.38,-53.21 523.24,-57.08 517.95,-47.9 513.38,-53.21"/>
</a>
</g>
</g>
<!-- Node9 -->
<g id="Node000009" class="node">
<title>Node9</title>
<g id="a_Node000009"><a xlink:href="namespacequadratic__probing.html#a40d617ebf4d6ba21bcda8d8d1faa2357" target="_top" xlink:title=" ">
<polygon fill="white" stroke="#666666" points="313.88,-110.91 215.38,-110.91 215.38,-80.41 313.88,-80.41 313.88,-110.91"/>
<text text-anchor="start" x="223.38" y="-97.41" font-family="Helvetica,sans-Serif" font-size="10.00">quadratic_probing::</text>
<text text-anchor="middle" x="264.62" y="-86.16" font-family="Helvetica,sans-Serif" font-size="10.00">display</text>
</a>
</g>
</g>
<!-- Node1&#45;&gt;Node9 -->
<g id="edge11_Node000001_Node000009" class="edge">
<title>Node1&#45;&gt;Node9</title>
<g id="a_edge11_Node000001_Node000009"><a xlink:title=" ">
<path fill="none" stroke="#63b8ff" d="M37.45,-95.66C71.99,-95.66 149.11,-95.66 203.66,-95.66"/>
<polygon fill="#63b8ff" stroke="#63b8ff" points="203.42,-99.16 213.42,-95.66 203.42,-92.16 203.42,-99.16"/>
</a>
</g>
</g>
<!-- Node10 -->
<g id="Node000010" class="node">
<title>Node10</title>
<g id="a_Node000010"><a xlink:href="namespacequadratic__probing.html#a69fe1f7c36fe004ba83eef2ca82e7e30" target="_top" xlink:title=" ">
<polygon fill="white" stroke="#666666" points="171.5,-153.91 73,-153.91 73,-123.41 171.5,-123.41 171.5,-153.91"/>
<text text-anchor="start" x="81" y="-140.41" font-family="Helvetica,sans-Serif" font-size="10.00">quadratic_probing::</text>
<text text-anchor="middle" x="122.25" y="-129.16" font-family="Helvetica,sans-Serif" font-size="10.00">removalInfo</text>
</a>
</g>
</g>
<!-- Node1&#45;&gt;Node10 -->
<g id="edge14_Node000001_Node000010" class="edge">
<title>Node1&#45;&gt;Node10</title>
<g id="a_edge14_Node000001_Node000010"><a xlink:title=" ">
<path fill="none" stroke="#63b8ff" d="M37.22,-103.15C47.47,-107.48 60.89,-113.15 73.98,-118.69"/>
<polygon fill="#63b8ff" stroke="#63b8ff" points="72.39,-121.81 82.96,-122.48 75.11,-115.37 72.39,-121.81"/>
</a>
</g>
</g>
<!-- Node3 -->
<g id="Node000003" class="node">
<title>Node3</title>
<g id="a_Node000003"><a xlink:href="namespacequadratic__probing.html#a00ebcc6d39653eccc26f8432efbfc8d9" target="_top" xlink:title=" ">
<polygon fill="white" stroke="#666666" points="321.75,-62.29 207.5,-62.29 207.5,-43.04 321.75,-43.04 321.75,-62.29"/>
<text text-anchor="middle" x="264.62" y="-48.79" font-family="Helvetica,sans-Serif" font-size="10.00">quadratic_probing::add</text>
</a>
</g>
</g>
<!-- Node2&#45;&gt;Node3 -->
<g id="edge2_Node000002_Node000003" class="edge">
<title>Node2&#45;&gt;Node3</title>
<g id="a_edge2_Node000002_Node000003"><a xlink:title=" ">
<path fill="none" stroke="#63b8ff" d="M171.95,-52.66C179.7,-52.66 187.84,-52.66 195.93,-52.66"/>
<polygon fill="#63b8ff" stroke="#63b8ff" points="195.79,-56.16 205.79,-52.66 195.79,-49.16 195.79,-56.16"/>
</a>
</g>
</g>
<!-- Node2&#45;&gt;Node5 -->
<g id="edge10_Node000002_Node000005" class="edge">
<title>Node2&#45;&gt;Node5</title>
<g id="a_edge10_Node000002_Node000005"><a xlink:title=" ">
<path fill="none" stroke="#63b8ff" d="M171.94,-39.76C183.51,-37.23 195.88,-34.96 207.5,-33.66 317.38,-21.43 348.4,-9.36 456.25,-33.66 473.15,-37.47 490.65,-45.09 505.29,-52.66"/>
<polygon fill="#63b8ff" stroke="#63b8ff" points="503.6,-55.73 514.06,-57.4 506.92,-49.57 503.6,-55.73"/>
</a>
</g>
</g>
<!-- Node2&#45;&gt;Node9 -->
<g id="edge9_Node000002_Node000009" class="edge">
<title>Node2&#45;&gt;Node9</title>
<g id="a_edge9_Node000002_Node000009"><a xlink:title=" ">
<path fill="none" stroke="#63b8ff" d="M171.95,-67.58C182.3,-70.75 193.33,-74.13 204.03,-77.41"/>
<polygon fill="#63b8ff" stroke="#63b8ff" points="202.97,-80.75 213.56,-80.33 205.03,-74.05 202.97,-80.75"/>
</a>
</g>
</g>
<!-- Node3&#45;&gt;Node4 -->
<g id="edge3_Node000003_Node000004" class="edge">
<title>Node3&#45;&gt;Node4</title>
<g id="a_edge3_Node000003_Node000004"><a xlink:title=" ">
<path fill="none" stroke="#63b8ff" d="M305.12,-62.7C310.98,-65.12 316.73,-68.07 321.75,-71.66 353.06,-94.1 378.16,-131.51 392.57,-156.38"/>
<polygon fill="#63b8ff" stroke="#63b8ff" points="389.39,-157.86 397.34,-164.87 395.5,-154.43 389.39,-157.86"/>
</a>
</g>
</g>
<!-- Node8 -->
<g id="Node000008" class="node">
<title>Node8</title>
<g id="a_Node000008"><a xlink:href="namespacequadratic__probing.html#ada6f1f44f7e83b0094fbcbe170788486" target="_top" xlink:title=" ">
<polygon fill="white" stroke="#666666" points="456.25,-72.91 357.75,-72.91 357.75,-42.41 456.25,-42.41 456.25,-72.91"/>
<text text-anchor="start" x="365.75" y="-59.41" font-family="Helvetica,sans-Serif" font-size="10.00">quadratic_probing::</text>
<text text-anchor="middle" x="407" y="-48.16" font-family="Helvetica,sans-Serif" font-size="10.00">rehash</text>
</a>
</g>
</g>
<!-- Node3&#45;&gt;Node8 -->
<g id="edge7_Node000003_Node000008" class="edge">
<title>Node3&#45;&gt;Node8</title>
<g id="a_edge7_Node000003_Node000008"><a xlink:title=" ">
<path fill="none" stroke="#63b8ff" d="M321.91,-48.04C329.8,-48.18 337.94,-48.45 345.9,-48.84"/>
<polygon fill="#63b8ff" stroke="#63b8ff" points="345.7,-52.33 355.88,-49.39 346.09,-45.34 345.7,-52.33"/>
</a>
</g>
</g>
<!-- Node4&#45;&gt;Node5 -->
<g id="edge4_Node000004_Node000005" class="edge">
<title>Node4&#45;&gt;Node5</title>
<g id="a_edge4_Node000004_Node000005"><a xlink:title=" ">
<path fill="none" stroke="#63b8ff" d="M436.47,-165.92C443.14,-161.86 450.09,-157.32 456.25,-152.66 478.59,-135.78 501.63,-113.81 517.96,-97.32"/>
<polygon fill="#63b8ff" stroke="#63b8ff" points="520.29,-99.94 524.78,-90.34 515.29,-95.04 520.29,-99.94"/>
</a>
</g>
</g>
<!-- Node6 -->
<g id="Node000006" class="node">
<title>Node6</title>
<g id="a_Node000006"><a xlink:href="namespacequadratic__probing.html#adccc63a7e57cc6dba75bd62f40feb88b" target="_top" xlink:title=" ">
<polygon fill="white" stroke="#666666" points="590.75,-171.91 492.25,-171.91 492.25,-141.41 590.75,-141.41 590.75,-171.91"/>
<text text-anchor="start" x="500.25" y="-158.41" font-family="Helvetica,sans-Serif" font-size="10.00">quadratic_probing::</text>
<text text-anchor="middle" x="541.5" y="-147.16" font-family="Helvetica,sans-Serif" font-size="10.00">putProber</text>
</a>
</g>
</g>
<!-- Node4&#45;&gt;Node6 -->
<g id="edge5_Node000004_Node000006" class="edge">
<title>Node4&#45;&gt;Node6</title>
<g id="a_edge5_Node000004_Node000006"><a xlink:title=" ">
<path fill="none" stroke="#63b8ff" d="M456.59,-172.5C464.42,-171.02 472.6,-169.48 480.66,-167.95"/>
<polygon fill="#63b8ff" stroke="#63b8ff" points="481.26,-171.4 490.43,-166.11 479.96,-164.53 481.26,-171.4"/>
</a>
</g>
</g>
<!-- Node7 -->
<g id="Node000007" class="node">
<title>Node7</title>
<g id="a_Node000007"><a xlink:href="namespacequadratic__probing.html#aeb6bca8db4768226f8ea8291ea4f83f6" target="_top" xlink:title=" ">
<polygon fill="white" stroke="#666666" points="590.75,-220.91 492.25,-220.91 492.25,-190.41 590.75,-190.41 590.75,-220.91"/>
<text text-anchor="start" x="500.25" y="-207.41" font-family="Helvetica,sans-Serif" font-size="10.00">quadratic_probing::</text>
<text text-anchor="middle" x="541.5" y="-196.16" font-family="Helvetica,sans-Serif" font-size="10.00">searchingProber</text>
</a>
</g>
</g>
<!-- Node4&#45;&gt;Node7 -->
<g id="edge6_Node000004_Node000007" class="edge">
<title>Node4&#45;&gt;Node7</title>
<g id="a_edge6_Node000004_Node000007"><a xlink:title=" ">
<path fill="none" stroke="#63b8ff" d="M456.59,-190.47C464.42,-191.88 472.6,-193.37 480.66,-194.83"/>
<polygon fill="#63b8ff" stroke="#63b8ff" points="479.97,-198.26 490.43,-196.6 481.21,-191.37 479.97,-198.26"/>
</a>
</g>
</g>
<!-- Node8&#45;&gt;Node3 -->
<g id="edge8_Node000008_Node000003" class="edge">
<title>Node8&#45;&gt;Node3</title>
<g id="a_edge8_Node000008_Node000003"><a xlink:title=" ">
<path fill="none" stroke="#63b8ff" d="M357.39,-62.39C349.61,-62.33 341.44,-62.14 333.32,-61.82"/>
<polygon fill="#63b8ff" stroke="#63b8ff" points="333.57,-58.33 323.42,-61.37 333.25,-65.32 333.57,-58.33"/>
</a>
</g>
</g>
<!-- Node10&#45;&gt;Node5 -->
<g id="edge16_Node000010_Node000005" class="edge">
<title>Node10&#45;&gt;Node5</title>
<g id="a_edge16_Node000010_Node000005"><a xlink:title=" ">
<path fill="none" stroke="#63b8ff" d="M171.98,-135.53C212.27,-132.57 270.93,-127.42 321.75,-119.66 376.1,-111.38 437.29,-98.17 481.1,-88.03"/>
<polygon fill="#63b8ff" stroke="#63b8ff" points="481.71,-91.49 490.66,-85.81 480.12,-84.67 481.71,-91.49"/>
</a>
</g>
</g>
<!-- Node10&#45;&gt;Node9 -->
<g id="edge15_Node000010_Node000009" class="edge">
<title>Node10&#45;&gt;Node9</title>
<g id="a_edge15_Node000010_Node000009"><a xlink:title=" ">
<path fill="none" stroke="#63b8ff" d="M171.95,-123.75C182.3,-120.58 193.33,-117.2 204.03,-113.92"/>
<polygon fill="#63b8ff" stroke="#63b8ff" points="205.03,-117.28 213.56,-111 202.97,-110.58 205.03,-117.28"/>
</a>
</g>
</g>
<!-- Node11 -->
<g id="Node000011" class="node">
<title>Node11</title>
<g id="a_Node000011"><a xlink:href="namespacequadratic__probing.html#a07a0467b24102260fbb6b554c453c20a" target="_top" xlink:title=" ">
<polygon fill="white" stroke="#666666" points="313.88,-196.91 215.38,-196.91 215.38,-166.41 313.88,-166.41 313.88,-196.91"/>
<text text-anchor="start" x="223.38" y="-183.41" font-family="Helvetica,sans-Serif" font-size="10.00">quadratic_probing::</text>
<text text-anchor="middle" x="264.62" y="-172.16" font-family="Helvetica,sans-Serif" font-size="10.00">remove</text>
</a>
</g>
</g>
<!-- Node10&#45;&gt;Node11 -->
<g id="edge17_Node000010_Node000011" class="edge">
<title>Node10&#45;&gt;Node11</title>
<g id="a_edge17_Node000010_Node000011"><a xlink:title=" ">
<path fill="none" stroke="#63b8ff" d="M171.95,-153.58C182.3,-156.75 193.33,-160.13 204.03,-163.41"/>
<polygon fill="#63b8ff" stroke="#63b8ff" points="202.97,-166.75 213.56,-166.33 205.03,-160.05 202.97,-166.75"/>
</a>
</g>
</g>
<!-- Node11&#45;&gt;Node4 -->
<g id="edge18_Node000011_Node000004" class="edge">
<title>Node11&#45;&gt;Node4</title>
<g id="a_edge18_Node000011_Node000004"><a xlink:title=" ">
<path fill="none" stroke="#63b8ff" d="M314.33,-181.66C324.56,-181.66 335.47,-181.66 346.06,-181.66"/>
<polygon fill="#63b8ff" stroke="#63b8ff" points="345.87,-185.16 355.87,-181.66 345.87,-178.16 345.87,-185.16"/>
</a>
</g>
</g>
</g>
</svg>

<g id="navigator" transform="translate(0 0)" fill="#404254">
  <rect fill="#f2f5e9" fill-opacity="0.5" stroke="#606060" stroke-width=".5" x="0" y="0" width="60" height="60"/>
  <use id="zoomplus" xlink:href="#zoomPlus" x="17" y="9" onmousedown="handleZoom(evt,'in')"/>
  <use id="zoomminus" xlink:href="#zoomMin" x="42" y="9" onmousedown="handleZoom(evt,'out')"/>
  <use id="reset" xlink:href="#resetDef" x="30" y="36" onmousedown="handleReset()"/>
   <use id="arrowup" xlink:href="#arrowUp" x="0" y="0" onmousedown="handlePan(0,-1)"/>
  <use id="arrowright" xlink:href="#arrowRight" x="0" y="0" onmousedown="handlePan(1,0)"/>
  <use id="arrowdown" xlink:href="#arrowDown" x="0" y="0" onmousedown="handlePan(0,1)"/>
  <use id="arrowleft" xlink:href="#arrowLeft" x="0" y="0" onmousedown="handlePan(-1,0)"/>
</g>
<svg viewBox="0 0 15 15" width="100%" height="30px" preserveAspectRatio="xMaxYMin meet">
 <g id="arrow_out" transform="scale(0.3 0.3)">
  <a xlink:href="quadratic__probing__hash__table_8cpp_ae66f6b31b5ad750f1fe042a706a4e3d4_cgraph_org.svg" target="_base">
   <rect id="button" ry="5" rx="5" y="6" x="6" height="38" width="38"
        fill="#f2f5e9" fill-opacity="0.5" stroke="#606060" stroke-width="1.0"/>
   <path id="arrow"
     d="M 11.500037,31.436501 C 11.940474,20.09759 22.043105,11.32322 32.158766,21.979434 L 37.068811,17.246167 C 37.068811,17.246167 37.088388,32 37.088388,32 L 22.160133,31.978069 C 22.160133,31.978069 26.997745,27.140456 26.997745,27.140456 C 18.528582,18.264221 13.291696,25.230495 11.500037,31.436501 z"
     style="fill:#404040;"/>
  </a>
 </g>
</svg>

<style type='text/css'>
<![CDATA[
[data-mouse-over-selected='false'] { opacity: 0.7; }
[data-mouse-over-selected='true']  { opacity: 1.0; }
]]>
</style>
<script type="application/ecmascript"><![CDATA[
document.addEventListener('DOMContentLoaded', (event) => {
  highlightEdges();
  highlightAdjacentNodes();
});
]]></script>
</svg>
