<?xml version="1.0" encoding="UTF-8" standalone="no"?>
<!DOCTYPE svg PUBLIC "-//W3C//DTD SVG 1.1//EN"
 "http://www.w3.org/Graphics/SVG/1.1/DTD/svg11.dtd">
<!-- Generated by graphviz version 12.1.1 (20240910.0053)
 -->
<!-- Title: main Pages: 1 -->
<svg width="216pt" height="170pt"
 viewBox="0.00 0.00 215.50 169.75" xmlns="http://www.w3.org/2000/svg" xmlns:xlink="http://www.w3.org/1999/xlink">
<g id="graph0" class="graph" transform="scale(1 1) rotate(0) translate(4 165.75)">
<title>main</title>
<!-- Node1 -->
<g id="Node000001" class="node">
<title>Node1</title>
<g id="a_Node000001"><a xlink:title="Main function.">
<polygon fill="#999999" stroke="#666666" points="37,-90.5 0,-90.5 0,-71.25 37,-71.25 37,-90.5"/>
<text text-anchor="middle" x="18.5" y="-77" font-family="Helvetica,sans-Serif" font-size="10.00">main</text>
</a>
</g>
</g>
<!-- Node2 -->
<g id="Node000002" class="node">
<title>Node2</title>
<g id="a_Node000002"><a xlink:href="classdata__structures_1_1queue__using__array_1_1_queue___array.html#a2aaf88c9954ef3ab686f8e4bfbd87622" target="_top" xlink:title="Delete element from back of the queue.">
<polygon fill="white" stroke="#666666" points="207.5,-161.75 73,-161.75 73,-120 207.5,-120 207.5,-161.75"/>
<text text-anchor="start" x="81" y="-148.25" font-family="Helvetica,sans-Serif" font-size="10.00">data_structures::queue</text>
<text text-anchor="start" x="81" y="-137" font-family="Helvetica,sans-Serif" font-size="10.00">_using_array::Queue_Array</text>
<text text-anchor="middle" x="140.25" y="-125.75" font-family="Helvetica,sans-Serif" font-size="10.00">::dequeue</text>
</a>
</g>
</g>
<!-- Node1&#45;&gt;Node2 -->
<g id="edge1_Node000001_Node000002" class="edge">
<title>Node1&#45;&gt;Node2</title>
<g id="a_edge1_Node000001_Node000002"><a xlink:title=" ">
<path fill="none" stroke="#63b8ff" d="M36.64,-90.98C47.04,-96.99 60.65,-104.63 73,-110.88 75.51,-112.15 78.09,-113.42 80.71,-114.7"/>
<polygon fill="#63b8ff" stroke="#63b8ff" points="79,-117.76 89.53,-118.91 82.01,-111.44 79,-117.76"/>
</a>
</g>
</g>
<!-- Node3 -->
<g id="Node000003" class="node">
<title>Node3</title>
<g id="a_Node000003"><a xlink:href="classdata__structures_1_1queue__using__array_1_1_queue___array.html#a688b7ea064739ea9fa66bf64bf4ae631" target="_top" xlink:title="Show all saved data.">
<polygon fill="white" stroke="#666666" points="207.5,-101.75 73,-101.75 73,-60 207.5,-60 207.5,-101.75"/>
<text text-anchor="start" x="81" y="-88.25" font-family="Helvetica,sans-Serif" font-size="10.00">data_structures::queue</text>
<text text-anchor="start" x="81" y="-77" font-family="Helvetica,sans-Serif" font-size="10.00">_using_array::Queue_Array</text>
<text text-anchor="middle" x="140.25" y="-65.75" font-family="Helvetica,sans-Serif" font-size="10.00">::display</text>
</a>
</g>
</g>
<!-- Node1&#45;&gt;Node3 -->
<g id="edge2_Node000001_Node000003" class="edge">
<title>Node1&#45;&gt;Node3</title>
<g id="a_edge2_Node000001_Node000003"><a xlink:title=" ">
<path fill="none" stroke="#63b8ff" d="M37.43,-80.88C44.22,-80.88 52.45,-80.88 61.27,-80.88"/>
<polygon fill="#63b8ff" stroke="#63b8ff" points="61.16,-84.38 71.16,-80.88 61.16,-77.38 61.16,-84.38"/>
</a>
</g>
</g>
<!-- Node4 -->
<g id="Node000004" class="node">
<title>Node4</title>
<g id="a_Node000004"><a xlink:href="classdata__structures_1_1queue__using__array_1_1_queue___array.html#a4dc64488c36f84d927365fa8d1933663" target="_top" xlink:title="Add element to the first of the queue.">
<polygon fill="white" stroke="#666666" points="207.5,-41.75 73,-41.75 73,0 207.5,0 207.5,-41.75"/>
<text text-anchor="start" x="81" y="-28.25" font-family="Helvetica,sans-Serif" font-size="10.00">data_structures::queue</text>
<text text-anchor="start" x="81" y="-17" font-family="Helvetica,sans-Serif" font-size="10.00">_using_array::Queue_Array</text>
<text text-anchor="middle" x="140.25" y="-5.75" font-family="Helvetica,sans-Serif" font-size="10.00">::enqueue</text>
</a>
</g>
</g>
<!-- Node1&#45;&gt;Node4 -->
<g id="edge3_Node000001_Node000004" class="edge">
<title>Node1&#45;&gt;Node4</title>
<g id="a_edge3_Node000001_Node000004"><a xlink:title=" ">
<path fill="none" stroke="#63b8ff" d="M36.64,-70.77C47.04,-64.76 60.65,-57.12 73,-50.88 75.51,-49.6 78.09,-48.33 80.71,-47.05"/>
<polygon fill="#63b8ff" stroke="#63b8ff" points="82.01,-50.31 89.53,-42.84 79,-43.99 82.01,-50.31"/>
</a>
</g>
</g>
</g>
</svg>
