<?xml version="1.0" encoding="UTF-8" standalone="no"?>
<!DOCTYPE svg PUBLIC "-//W3C//DTD SVG 1.1//EN"
 "http://www.w3.org/Graphics/SVG/1.1/DTD/svg11.dtd">
<!-- Generated by graphviz version 12.1.1 (20240910.0053)
 -->
<!-- Title: main Pages: 1 -->
<svg width="406pt" height="138pt"
 viewBox="0.00 0.00 405.75 138.25" xmlns="http://www.w3.org/2000/svg" xmlns:xlink="http://www.w3.org/1999/xlink">
<g id="graph0" class="graph" transform="scale(1 1) rotate(0) translate(4 134.25)">
<title>main</title>
<!-- Node1 -->
<g id="Node000001" class="node">
<title>Node1</title>
<g id="a_Node000001"><a xlink:title="Main function.">
<polygon fill="#999999" stroke="#666666" points="37,-74.25 0,-74.25 0,-55 37,-55 37,-74.25"/>
<text text-anchor="middle" x="18.5" y="-60.75" font-family="Helvetica,sans-Serif" font-size="10.00">main</text>
</a>
</g>
</g>
<!-- Node2 -->
<g id="Node000002" class="node">
<title>Node2</title>
<g id="a_Node000002"><a xlink:href="quick__sort__iterative_8cpp.html#a88ec9ad42717780d6caaff9d3d6977f9" target="_top" xlink:title="Self&#45;test implementations.">
<polygon fill="white" stroke="#666666" points="110.75,-74.25 73,-74.25 73,-55 110.75,-55 110.75,-74.25"/>
<text text-anchor="middle" x="91.88" y="-60.75" font-family="Helvetica,sans-Serif" font-size="10.00">tests</text>
</a>
</g>
</g>
<!-- Node1&#45;&gt;Node2 -->
<g id="edge1_Node000001_Node000002" class="edge">
<title>Node1&#45;&gt;Node2</title>
<g id="a_edge1_Node000001_Node000002"><a xlink:title=" ">
<path fill="none" stroke="#63b8ff" d="M37.14,-64.62C44.55,-64.62 53.37,-64.62 61.69,-64.62"/>
<polygon fill="#63b8ff" stroke="#63b8ff" points="61.43,-68.13 71.43,-64.63 61.43,-61.13 61.43,-68.13"/>
</a>
</g>
</g>
<!-- Node3 -->
<g id="Node000003" class="node">
<title>Node3</title>
<g id="a_Node000003"><a xlink:href="namespacesorting.html#a263595fd9a0163b5b997b89fab3a0dc5" target="_top" xlink:title="The main sorting function.">
<polygon fill="white" stroke="#666666" points="276,-74.25 146.75,-74.25 146.75,-55 276,-55 276,-74.25"/>
<text text-anchor="middle" x="211.38" y="-60.75" font-family="Helvetica,sans-Serif" font-size="10.00">sorting::iterativeQuickSort</text>
</a>
</g>
</g>
<!-- Node2&#45;&gt;Node3 -->
<g id="edge2_Node000002_Node000003" class="edge">
<title>Node2&#45;&gt;Node3</title>
<g id="a_edge2_Node000002_Node000003"><a xlink:title=" ">
<path fill="none" stroke="#63b8ff" d="M111.23,-64.62C118.04,-64.62 126.25,-64.62 135,-64.62"/>
<polygon fill="#63b8ff" stroke="#63b8ff" points="134.78,-68.13 144.78,-64.63 134.78,-61.13 134.78,-68.13"/>
</a>
</g>
</g>
<!-- Node4 -->
<g id="Node000004" class="node">
<title>Node4</title>
<g id="a_Node000004"><a xlink:href="namespacesorting.html#aac8f44b28b4aa96444383030b28f8b34" target="_top" xlink:title="The partition function sorts the array from start to end and uses the last element as the pivot.">
<polygon fill="white" stroke="#666666" points="397.75,-130.25 312,-130.25 312,-111 397.75,-111 397.75,-130.25"/>
<text text-anchor="middle" x="354.88" y="-116.75" font-family="Helvetica,sans-Serif" font-size="10.00">sorting::partition</text>
</a>
</g>
</g>
<!-- Node3&#45;&gt;Node4 -->
<g id="edge3_Node000003_Node000004" class="edge">
<title>Node3&#45;&gt;Node4</title>
<g id="a_edge3_Node000003_Node000004"><a xlink:title=" ">
<path fill="none" stroke="#63b8ff" d="M237.67,-74.64C259.97,-83.46 292.71,-96.42 317.76,-106.33"/>
<polygon fill="#63b8ff" stroke="#63b8ff" points="316.33,-109.53 326.91,-109.95 318.9,-103.02 316.33,-109.53"/>
</a>
</g>
</g>
<!-- Node5 -->
<g id="Node000005" class="node">
<title>Node5</title>
<g id="a_Node000005"><a xlink:href="classstack.html#a3647fb4418890f19e0dc414b8092b8b0" target="_top" xlink:title=" ">
<polygon fill="white" stroke="#666666" points="385.75,-93.25 324,-93.25 324,-74 385.75,-74 385.75,-93.25"/>
<text text-anchor="middle" x="354.88" y="-79.75" font-family="Helvetica,sans-Serif" font-size="10.00">stack::pop</text>
</a>
</g>
</g>
<!-- Node3&#45;&gt;Node5 -->
<g id="edge4_Node000003_Node000005" class="edge">
<title>Node3&#45;&gt;Node5</title>
<g id="a_edge4_Node000003_Node000005"><a xlink:title=" ">
<path fill="none" stroke="#63b8ff" d="M276.09,-73.18C288.39,-74.83 300.98,-76.52 312.35,-78.05"/>
<polygon fill="#63b8ff" stroke="#63b8ff" points="311.82,-81.51 322.19,-79.37 312.75,-74.57 311.82,-81.51"/>
</a>
</g>
</g>
<!-- Node6 -->
<g id="Node000006" class="node">
<title>Node6</title>
<g id="a_Node000006"><a xlink:href="classstack.html#a90df277532c23519aa7ac3c08ed90a1d" target="_top" xlink:title=" ">
<polygon fill="white" stroke="#666666" points="388.38,-56.25 321.38,-56.25 321.38,-37 388.38,-37 388.38,-56.25"/>
<text text-anchor="middle" x="354.88" y="-42.75" font-family="Helvetica,sans-Serif" font-size="10.00">stack::push</text>
</a>
</g>
</g>
<!-- Node3&#45;&gt;Node6 -->
<g id="edge5_Node000003_Node000006" class="edge">
<title>Node3&#45;&gt;Node6</title>
<g id="a_edge5_Node000003_Node000006"><a xlink:title=" ">
<path fill="none" stroke="#63b8ff" d="M276.09,-56.52C287.51,-55.07 299.18,-53.58 309.88,-52.22"/>
<polygon fill="#63b8ff" stroke="#63b8ff" points="310.09,-55.72 319.57,-50.99 309.21,-48.78 310.09,-55.72"/>
</a>
</g>
</g>
<!-- Node7 -->
<g id="Node000007" class="node">
<title>Node7</title>
<g id="a_Node000007"><a xlink:href="classstack.html#ae09630c4384903d187801921b2ddc709" target="_top" xlink:title=" ">
<polygon fill="white" stroke="#666666" points="384.62,-19.25 325.12,-19.25 325.12,0 384.62,0 384.62,-19.25"/>
<text text-anchor="middle" x="354.88" y="-5.75" font-family="Helvetica,sans-Serif" font-size="10.00">stack::top</text>
</a>
</g>
</g>
<!-- Node3&#45;&gt;Node7 -->
<g id="edge6_Node000003_Node000007" class="edge">
<title>Node3&#45;&gt;Node7</title>
<g id="a_edge6_Node000003_Node000007"><a xlink:title=" ">
<path fill="none" stroke="#63b8ff" d="M238.33,-54.54C260.57,-45.89 292.84,-33.35 317.63,-23.71"/>
<polygon fill="#63b8ff" stroke="#63b8ff" points="318.62,-27.08 326.68,-20.2 316.09,-20.56 318.62,-27.08"/>
</a>
</g>
</g>
</g>
</svg>
