<?xml version="1.0" encoding="UTF-8" standalone="no"?>
<!DOCTYPE svg PUBLIC "-//W3C//DTD SVG 1.1//EN"
 "http://www.w3.org/Graphics/SVG/1.1/DTD/svg11.dtd">
<!-- Generated by graphviz version 12.1.1 (20240910.0053)
 -->
<!-- Title: tests Pages: 1 -->
<svg width="333pt" height="138pt"
 viewBox="0.00 0.00 332.75 138.25" xmlns="http://www.w3.org/2000/svg" xmlns:xlink="http://www.w3.org/1999/xlink">

<svg id="main" version="1.1" xmlns="http://www.w3.org/2000/svg" xmlns:xlink="http://www.w3.org/1999/xlink" xml:space="preserve">

<style type="text/css"><![CDATA[
.node, .edge {opacity: 0.7;}
.node.selected, .edge.selected {opacity: 1;}
.edge:hover path { stroke: red; }
.edge:hover polygon { stroke: red; fill: red; }
]]></style>
<script type="application/ecmascript" xlink:href="svg.min.js"/>
<svg id="graph" class="graph">
<g id="graph0" class="graph" transform="scale(1 1) rotate(0) translate(4 134.25)">
<title>tests</title>
<!-- Node1 -->
<g id="Node000001" class="node">
<title>Node1</title>
<g id="a_Node000001"><a xlink:title="Self&#45;test implementations.">
<polygon fill="#999999" stroke="#666666" points="37.75,-74.25 0,-74.25 0,-55 37.75,-55 37.75,-74.25"/>
<text text-anchor="middle" x="18.88" y="-60.75" font-family="Helvetica,sans-Serif" font-size="10.00">tests</text>
</a>
</g>
</g>
<!-- Node2 -->
<g id="Node000002" class="node">
<title>Node2</title>
<g id="a_Node000002"><a xlink:href="namespacesorting.html#a263595fd9a0163b5b997b89fab3a0dc5" target="_top" xlink:title="The main sorting function.">
<polygon fill="white" stroke="#666666" points="203,-74.25 73.75,-74.25 73.75,-55 203,-55 203,-74.25"/>
<text text-anchor="middle" x="138.38" y="-60.75" font-family="Helvetica,sans-Serif" font-size="10.00">sorting::iterativeQuickSort</text>
</a>
</g>
</g>
<!-- Node1&#45;&gt;Node2 -->
<g id="edge1_Node000001_Node000002" class="edge">
<title>Node1&#45;&gt;Node2</title>
<g id="a_edge1_Node000001_Node000002"><a xlink:title=" ">
<path fill="none" stroke="#63b8ff" d="M38.23,-64.62C45.04,-64.62 53.25,-64.62 62,-64.62"/>
<polygon fill="#63b8ff" stroke="#63b8ff" points="61.78,-68.13 71.78,-64.63 61.78,-61.13 61.78,-68.13"/>
</a>
</g>
</g>
<!-- Node3 -->
<g id="Node000003" class="node">
<title>Node3</title>
<g id="a_Node000003"><a xlink:href="namespacesorting.html#aac8f44b28b4aa96444383030b28f8b34" target="_top" xlink:title="The partition function sorts the array from start to end and uses the last element as the pivot.">
<polygon fill="white" stroke="#666666" points="324.75,-130.25 239,-130.25 239,-111 324.75,-111 324.75,-130.25"/>
<text text-anchor="middle" x="281.88" y="-116.75" font-family="Helvetica,sans-Serif" font-size="10.00">sorting::partition</text>
</a>
</g>
</g>
<!-- Node2&#45;&gt;Node3 -->
<g id="edge2_Node000002_Node000003" class="edge">
<title>Node2&#45;&gt;Node3</title>
<g id="a_edge2_Node000002_Node000003"><a xlink:title=" ">
<path fill="none" stroke="#63b8ff" d="M164.67,-74.64C186.97,-83.46 219.71,-96.42 244.76,-106.33"/>
<polygon fill="#63b8ff" stroke="#63b8ff" points="243.33,-109.53 253.91,-109.95 245.9,-103.02 243.33,-109.53"/>
</a>
</g>
</g>
<!-- Node4 -->
<g id="Node000004" class="node">
<title>Node4</title>
<g id="a_Node000004"><a xlink:href="classstack.html#a3647fb4418890f19e0dc414b8092b8b0" target="_top" xlink:title=" ">
<polygon fill="white" stroke="#666666" points="312.75,-93.25 251,-93.25 251,-74 312.75,-74 312.75,-93.25"/>
<text text-anchor="middle" x="281.88" y="-79.75" font-family="Helvetica,sans-Serif" font-size="10.00">stack::pop</text>
</a>
</g>
</g>
<!-- Node2&#45;&gt;Node4 -->
<g id="edge3_Node000002_Node000004" class="edge">
<title>Node2&#45;&gt;Node4</title>
<g id="a_edge3_Node000002_Node000004"><a xlink:title=" ">
<path fill="none" stroke="#63b8ff" d="M203.09,-73.18C215.39,-74.83 227.98,-76.52 239.35,-78.05"/>
<polygon fill="#63b8ff" stroke="#63b8ff" points="238.82,-81.51 249.19,-79.37 239.75,-74.57 238.82,-81.51"/>
</a>
</g>
</g>
<!-- Node5 -->
<g id="Node000005" class="node">
<title>Node5</title>
<g id="a_Node000005"><a xlink:href="classstack.html#a90df277532c23519aa7ac3c08ed90a1d" target="_top" xlink:title=" ">
<polygon fill="white" stroke="#666666" points="315.38,-56.25 248.38,-56.25 248.38,-37 315.38,-37 315.38,-56.25"/>
<text text-anchor="middle" x="281.88" y="-42.75" font-family="Helvetica,sans-Serif" font-size="10.00">stack::push</text>
</a>
</g>
</g>
<!-- Node2&#45;&gt;Node5 -->
<g id="edge4_Node000002_Node000005" class="edge">
<title>Node2&#45;&gt;Node5</title>
<g id="a_edge4_Node000002_Node000005"><a xlink:title=" ">
<path fill="none" stroke="#63b8ff" d="M203.09,-56.52C214.51,-55.07 226.18,-53.58 236.88,-52.22"/>
<polygon fill="#63b8ff" stroke="#63b8ff" points="237.09,-55.72 246.57,-50.99 236.21,-48.78 237.09,-55.72"/>
</a>
</g>
</g>
<!-- Node6 -->
<g id="Node000006" class="node">
<title>Node6</title>
<g id="a_Node000006"><a xlink:href="classstack.html#ae09630c4384903d187801921b2ddc709" target="_top" xlink:title=" ">
<polygon fill="white" stroke="#666666" points="311.62,-19.25 252.12,-19.25 252.12,0 311.62,0 311.62,-19.25"/>
<text text-anchor="middle" x="281.88" y="-5.75" font-family="Helvetica,sans-Serif" font-size="10.00">stack::top</text>
</a>
</g>
</g>
<!-- Node2&#45;&gt;Node6 -->
<g id="edge5_Node000002_Node000006" class="edge">
<title>Node2&#45;&gt;Node6</title>
<g id="a_edge5_Node000002_Node000006"><a xlink:title=" ">
<path fill="none" stroke="#63b8ff" d="M165.33,-54.54C187.57,-45.89 219.84,-33.35 244.63,-23.71"/>
<polygon fill="#63b8ff" stroke="#63b8ff" points="245.62,-27.08 253.68,-20.2 243.09,-20.56 245.62,-27.08"/>
</a>
</g>
</g>
</g>
</svg>
</svg>

<style type='text/css'>
<![CDATA[
[data-mouse-over-selected='false'] { opacity: 0.7; }
[data-mouse-over-selected='true']  { opacity: 1.0; }
]]>
</style>
<script type="application/ecmascript"><![CDATA[
document.addEventListener('DOMContentLoaded', (event) => {
  highlightEdges();
  highlightAdjacentNodes();
});
]]></script>
</svg>
