<?xml version="1.0" encoding="UTF-8" standalone="no"?>
<!DOCTYPE svg PUBLIC "-//W3C//DTD SVG 1.1//EN"
 "http://www.w3.org/Graphics/SVG/1.1/DTD/svg11.dtd">
<!-- Generated by graphviz version 12.1.1 (20240910.0053)
 -->
<!-- Title: test_function Pages: 1 -->
<svg width="441pt" height="331pt"
 viewBox="0.00 0.00 440.75 331.40" xmlns="http://www.w3.org/2000/svg" xmlns:xlink="http://www.w3.org/1999/xlink">

<svg id="main" version="1.1" xmlns="http://www.w3.org/2000/svg" xmlns:xlink="http://www.w3.org/1999/xlink" xml:space="preserve">

<style type="text/css"><![CDATA[
.node, .edge {opacity: 0.7;}
.node.selected, .edge.selected {opacity: 1;}
.edge:hover path { stroke: red; }
.edge:hover polygon { stroke: red; fill: red; }
]]></style>
<script type="application/ecmascript" xlink:href="svg.min.js"/>
<svg id="graph" class="graph">
<g id="graph0" class="graph" transform="scale(1 1) rotate(0) translate(4 327.4)">
<title>test_function</title>
<!-- Node1 -->
<g id="Node000001" class="node">
<title>Node1</title>
<g id="a_Node000001"><a xlink:title=" ">
<polygon fill="#999999" stroke="#666666" points="72.25,-148.78 0,-148.78 0,-129.53 72.25,-129.53 72.25,-148.78"/>
<text text-anchor="middle" x="36.12" y="-135.28" font-family="Helvetica,sans-Serif" font-size="10.00">test_function</text>
</a>
</g>
</g>
<!-- Node2 -->
<g id="Node000002" class="node">
<title>Node2</title>
<g id="a_Node000002"><a xlink:href="classstatistics_1_1stats__computer1.html#a390697dcee210b91823ceff04b25081b" target="_top" xlink:title=" ">
<polygon fill="white" stroke="#666666" points="252.5,-323.4 118,-323.4 118,-292.9 252.5,-292.9 252.5,-323.4"/>
<text text-anchor="start" x="126" y="-309.9" font-family="Helvetica,sans-Serif" font-size="10.00">statistics::stats_computer1</text>
<text text-anchor="middle" x="185.25" y="-298.65" font-family="Helvetica,sans-Serif" font-size="10.00">::mean</text>
</a>
</g>
</g>
<!-- Node1&#45;&gt;Node2 -->
<g id="edge1_Node000001_Node000002" class="edge">
<title>Node1&#45;&gt;Node2</title>
<g id="a_edge1_Node000001_Node000002"><a xlink:title=" ">
<path fill="none" stroke="#63b8ff" d="M39.24,-149.18C45.25,-175.2 64.87,-245.5 108.25,-283.15 109.69,-284.4 111.2,-285.59 112.76,-286.72"/>
<polygon fill="#63b8ff" stroke="#63b8ff" points="110.57,-289.48 120.91,-291.77 114.25,-283.53 110.57,-289.48"/>
</a>
</g>
</g>
<!-- Node3 -->
<g id="Node000003" class="node">
<title>Node3</title>
<g id="a_Node000003"><a xlink:href="classstatistics_1_1stats__computer2.html#a8290966ad468f2a8c266d008bc60720e" target="_top" xlink:title=" ">
<polygon fill="white" stroke="#666666" points="252.5,-274.4 118,-274.4 118,-243.9 252.5,-243.9 252.5,-274.4"/>
<text text-anchor="start" x="126" y="-260.9" font-family="Helvetica,sans-Serif" font-size="10.00">statistics::stats_computer2</text>
<text text-anchor="middle" x="185.25" y="-249.65" font-family="Helvetica,sans-Serif" font-size="10.00">::mean</text>
</a>
</g>
</g>
<!-- Node1&#45;&gt;Node3 -->
<g id="edge2_Node000001_Node000003" class="edge">
<title>Node1&#45;&gt;Node3</title>
<g id="a_edge2_Node000001_Node000003"><a xlink:title=" ">
<path fill="none" stroke="#63b8ff" d="M41.91,-149.07C51.68,-168.3 75.79,-210.83 108.25,-234.15 110.19,-235.54 112.21,-236.86 114.29,-238.11"/>
<polygon fill="#63b8ff" stroke="#63b8ff" points="112.61,-241.18 123.09,-242.74 115.87,-234.99 112.61,-241.18"/>
</a>
</g>
</g>
<!-- Node4 -->
<g id="Node000004" class="node">
<title>Node4</title>
<g id="a_Node000004"><a xlink:href="classstatistics_1_1stats__computer1.html#aa13bf7c38de112f71921a5525d71a2f2" target="_top" xlink:title=" ">
<polygon fill="white" stroke="#666666" points="252.5,-225.4 118,-225.4 118,-194.9 252.5,-194.9 252.5,-225.4"/>
<text text-anchor="start" x="126" y="-211.9" font-family="Helvetica,sans-Serif" font-size="10.00">statistics::stats_computer1</text>
<text text-anchor="middle" x="185.25" y="-200.65" font-family="Helvetica,sans-Serif" font-size="10.00">::new_val</text>
</a>
</g>
</g>
<!-- Node1&#45;&gt;Node4 -->
<g id="edge3_Node000001_Node000004" class="edge">
<title>Node1&#45;&gt;Node4</title>
<g id="a_edge3_Node000001_Node000004"><a xlink:title=" ">
<path fill="none" stroke="#63b8ff" d="M50.41,-149.24C64.26,-159.38 86.89,-174.94 108.25,-185.15 112.16,-187.02 116.24,-188.8 120.39,-190.49"/>
<polygon fill="#63b8ff" stroke="#63b8ff" points="118.82,-193.64 129.41,-193.96 121.34,-187.11 118.82,-193.64"/>
</a>
</g>
</g>
<!-- Node5 -->
<g id="Node000005" class="node">
<title>Node5</title>
<g id="a_Node000005"><a xlink:href="classstatistics_1_1stats__computer2.html#ade6de704deea24fdc88077b3d9a0d534" target="_top" xlink:title=" ">
<polygon fill="white" stroke="#666666" points="252.5,-176.4 118,-176.4 118,-145.9 252.5,-145.9 252.5,-176.4"/>
<text text-anchor="start" x="126" y="-162.9" font-family="Helvetica,sans-Serif" font-size="10.00">statistics::stats_computer2</text>
<text text-anchor="middle" x="185.25" y="-151.65" font-family="Helvetica,sans-Serif" font-size="10.00">::new_val</text>
</a>
</g>
</g>
<!-- Node1&#45;&gt;Node5 -->
<g id="edge4_Node000001_Node000005" class="edge">
<title>Node1&#45;&gt;Node5</title>
<g id="a_edge4_Node000001_Node000005"><a xlink:title=" ">
<path fill="none" stroke="#63b8ff" d="M72.74,-144.48C82.99,-146.01 94.59,-147.74 106.34,-149.5"/>
<polygon fill="#63b8ff" stroke="#63b8ff" points="105.7,-152.94 116.11,-150.96 106.74,-146.02 105.7,-152.94"/>
</a>
</g>
</g>
<!-- Node6 -->
<g id="Node000006" class="node">
<title>Node6</title>
<g id="a_Node000006"><a xlink:href="classstatistics_1_1stats__computer1.html#af57e942d49f4fd70f059f224b4ac07e1" target="_top" xlink:title=" ">
<polygon fill="white" stroke="#666666" points="262.25,-127.78 108.25,-127.78 108.25,-108.53 262.25,-108.53 262.25,-127.78"/>
<text text-anchor="middle" x="185.25" y="-114.28" font-family="Helvetica,sans-Serif" font-size="10.00">statistics::stats_computer1::std</text>
</a>
</g>
</g>
<!-- Node1&#45;&gt;Node6 -->
<g id="edge5_Node000001_Node000006" class="edge">
<title>Node1&#45;&gt;Node6</title>
<g id="a_edge5_Node000001_Node000006"><a xlink:title=" ">
<path fill="none" stroke="#63b8ff" d="M72.74,-134.07C81.8,-132.78 91.91,-131.33 102.25,-129.86"/>
<polygon fill="#63b8ff" stroke="#63b8ff" points="102.61,-133.34 112.01,-128.46 101.62,-126.41 102.61,-133.34"/>
</a>
</g>
</g>
<!-- Node7 -->
<g id="Node000007" class="node">
<title>Node7</title>
<g id="a_Node000007"><a xlink:href="classstatistics_1_1stats__computer1.html#a27f0a03e2fd2254f1c81fe668226bd92" target="_top" xlink:title=" ">
<polygon fill="white" stroke="#666666" points="432.75,-107.4 298.25,-107.4 298.25,-76.9 432.75,-76.9 432.75,-107.4"/>
<text text-anchor="start" x="306.25" y="-93.9" font-family="Helvetica,sans-Serif" font-size="10.00">statistics::stats_computer1</text>
<text text-anchor="middle" x="365.5" y="-82.65" font-family="Helvetica,sans-Serif" font-size="10.00">::variance</text>
</a>
</g>
</g>
<!-- Node1&#45;&gt;Node7 -->
<g id="edge9_Node000001_Node000007" class="edge">
<title>Node1&#45;&gt;Node7</title>
<g id="a_edge9_Node000001_Node000007"><a xlink:title=" ">
<path fill="none" stroke="#63b8ff" d="M50.41,-129.04C64.08,-119.31 86.4,-105.19 108.25,-99.15 166.47,-83.05 234.99,-82.06 286.52,-84.67"/>
<polygon fill="#63b8ff" stroke="#63b8ff" points="286.22,-88.16 296.4,-85.24 286.62,-81.17 286.22,-88.16"/>
</a>
</g>
</g>
<!-- Node8 -->
<g id="Node000008" class="node">
<title>Node8</title>
<g id="a_Node000008"><a xlink:href="classstatistics_1_1stats__computer2.html#acf2e84df4fc386bb3295016ef8fd156e" target="_top" xlink:title=" ">
<polygon fill="white" stroke="#666666" points="262.25,-51.78 108.25,-51.78 108.25,-32.53 262.25,-32.53 262.25,-51.78"/>
<text text-anchor="middle" x="185.25" y="-38.28" font-family="Helvetica,sans-Serif" font-size="10.00">statistics::stats_computer2::std</text>
</a>
</g>
</g>
<!-- Node1&#45;&gt;Node8 -->
<g id="edge7_Node000001_Node000008" class="edge">
<title>Node1&#45;&gt;Node8</title>
<g id="a_edge7_Node000001_Node000008"><a xlink:title=" ">
<path fill="none" stroke="#63b8ff" d="M44.26,-129.13C55.91,-113.47 80.53,-83.23 108.25,-66.15 114.66,-62.2 121.78,-58.85 129.02,-56.01"/>
<polygon fill="#63b8ff" stroke="#63b8ff" points="129.97,-59.39 138.21,-52.73 127.62,-52.8 129.97,-59.39"/>
</a>
</g>
</g>
<!-- Node9 -->
<g id="Node000009" class="node">
<title>Node9</title>
<g id="a_Node000009"><a xlink:href="classstatistics_1_1stats__computer2.html#af6198817084276113b3c064e87ce0555" target="_top" xlink:title=" ">
<polygon fill="white" stroke="#666666" points="432.75,-45.4 298.25,-45.4 298.25,-14.9 432.75,-14.9 432.75,-45.4"/>
<text text-anchor="start" x="306.25" y="-31.9" font-family="Helvetica,sans-Serif" font-size="10.00">statistics::stats_computer2</text>
<text text-anchor="middle" x="365.5" y="-20.65" font-family="Helvetica,sans-Serif" font-size="10.00">::variance</text>
</a>
</g>
</g>
<!-- Node1&#45;&gt;Node9 -->
<g id="edge10_Node000001_Node000009" class="edge">
<title>Node1&#45;&gt;Node9</title>
<g id="a_edge10_Node000001_Node000009"><a xlink:title=" ">
<path fill="none" stroke="#63b8ff" d="M39.63,-129.31C46.2,-105.79 66.41,-46.58 108.25,-23.15 168.19,10.41 249.02,0.95 303.75,-11.85"/>
<polygon fill="#63b8ff" stroke="#63b8ff" points="302.65,-15.18 313.2,-14.17 304.32,-8.39 302.65,-15.18"/>
</a>
</g>
</g>
<!-- Node6&#45;&gt;Node7 -->
<g id="edge6_Node000006_Node000007" class="edge">
<title>Node6&#45;&gt;Node7</title>
<g id="a_edge6_Node000006_Node000007"><a xlink:title=" ">
<path fill="none" stroke="#63b8ff" d="M255.42,-108.06C265.7,-106.56 276.35,-105.01 286.79,-103.49"/>
<polygon fill="#63b8ff" stroke="#63b8ff" points="287.11,-106.98 296.5,-102.07 286.1,-100.05 287.11,-106.98"/>
</a>
</g>
</g>
<!-- Node8&#45;&gt;Node9 -->
<g id="edge8_Node000008_Node000009" class="edge">
<title>Node8&#45;&gt;Node9</title>
<g id="a_edge8_Node000008_Node000009"><a xlink:title=" ">
<path fill="none" stroke="#63b8ff" d="M262.62,-37.01C270.49,-36.48 278.5,-35.94 286.39,-35.41"/>
<polygon fill="#63b8ff" stroke="#63b8ff" points="286.59,-38.91 296.33,-34.74 286.12,-31.92 286.59,-38.91"/>
</a>
</g>
</g>
</g>
</svg>
</svg>

<style type='text/css'>
<![CDATA[
[data-mouse-over-selected='false'] { opacity: 0.7; }
[data-mouse-over-selected='true']  { opacity: 1.0; }
]]>
</style>
<script type="application/ecmascript"><![CDATA[
document.addEventListener('DOMContentLoaded', (event) => {
  highlightEdges();
  highlightAdjacentNodes();
});
]]></script>
</svg>
