<?xml version="1.0" encoding="UTF-8" standalone="no"?>
<!DOCTYPE svg PUBLIC "-//W3C//DTD SVG 1.1//EN"
 "http://www.w3.org/Graphics/SVG/1.1/DTD/svg11.dtd">
<!-- Generated by graphviz version 12.1.1 (20240910.0053)
 -->
<!-- Title: main Pages: 1 -->
<svg width="514pt" height="398pt"
 viewBox="0.00 0.00 513.75 398.28" xmlns="http://www.w3.org/2000/svg" xmlns:xlink="http://www.w3.org/1999/xlink">
<g id="graph0" class="graph" transform="scale(1 1) rotate(0) translate(4 394.28)">
<title>main</title>
<!-- Node1 -->
<g id="Node000001" class="node">
<title>Node1</title>
<g id="a_Node000001"><a xlink:title=" ">
<polygon fill="#999999" stroke="#666666" points="37,-207.67 0,-207.67 0,-188.42 37,-188.42 37,-207.67"/>
<text text-anchor="middle" x="18.5" y="-194.17" font-family="Helvetica,sans-Serif" font-size="10.00">main</text>
</a>
</g>
</g>
<!-- Node2 -->
<g id="Node000002" class="node">
<title>Node2</title>
<g id="a_Node000002"><a xlink:href="classstatistics_1_1stats__computer1.html#a390697dcee210b91823ceff04b25081b" target="_top" xlink:title=" ">
<polygon fill="white" stroke="#666666" points="325.5,-353.3 191,-353.3 191,-322.8 325.5,-322.8 325.5,-353.3"/>
<text text-anchor="start" x="199" y="-339.8" font-family="Helvetica,sans-Serif" font-size="10.00">statistics::stats_computer1</text>
<text text-anchor="middle" x="258.25" y="-328.55" font-family="Helvetica,sans-Serif" font-size="10.00">::mean</text>
</a>
</g>
</g>
<!-- Node1&#45;&gt;Node2 -->
<g id="edge1_Node000001_Node000002" class="edge">
<title>Node1&#45;&gt;Node2</title>
<g id="a_edge1_Node000001_Node000002"><a xlink:title=" ">
<path fill="none" stroke="#63b8ff" d="M26.16,-207.76C35.44,-220.76 53.37,-243.91 73,-259.05 108.12,-286.13 153.93,-305.82 191.08,-318.77"/>
<polygon fill="#63b8ff" stroke="#63b8ff" points="189.78,-322.03 200.38,-321.93 192.03,-315.4 189.78,-322.03"/>
</a>
</g>
</g>
<!-- Node3 -->
<g id="Node000003" class="node">
<title>Node3</title>
<g id="a_Node000003"><a xlink:href="classstatistics_1_1stats__computer2.html#a8290966ad468f2a8c266d008bc60720e" target="_top" xlink:title=" ">
<polygon fill="white" stroke="#666666" points="325.5,-304.3 191,-304.3 191,-273.8 325.5,-273.8 325.5,-304.3"/>
<text text-anchor="start" x="199" y="-290.8" font-family="Helvetica,sans-Serif" font-size="10.00">statistics::stats_computer2</text>
<text text-anchor="middle" x="258.25" y="-279.55" font-family="Helvetica,sans-Serif" font-size="10.00">::mean</text>
</a>
</g>
</g>
<!-- Node1&#45;&gt;Node3 -->
<g id="edge2_Node000001_Node000003" class="edge">
<title>Node1&#45;&gt;Node3</title>
<g id="a_edge2_Node000001_Node000003"><a xlink:title=" ">
<path fill="none" stroke="#63b8ff" d="M33,-208.06C43.49,-215.47 58.62,-225.4 73,-232.05 107.28,-247.9 147.12,-260.85 180.97,-270.37"/>
<polygon fill="#63b8ff" stroke="#63b8ff" points="179.7,-273.65 190.27,-272.94 181.56,-266.91 179.7,-273.65"/>
</a>
</g>
</g>
<!-- Node4 -->
<g id="Node000004" class="node">
<title>Node4</title>
<g id="a_Node000004"><a xlink:href="classstatistics_1_1stats__computer1.html#aa13bf7c38de112f71921a5525d71a2f2" target="_top" xlink:title=" ">
<polygon fill="white" stroke="#666666" points="325.5,-255.3 191,-255.3 191,-224.8 325.5,-224.8 325.5,-255.3"/>
<text text-anchor="start" x="199" y="-241.8" font-family="Helvetica,sans-Serif" font-size="10.00">statistics::stats_computer1</text>
<text text-anchor="middle" x="258.25" y="-230.55" font-family="Helvetica,sans-Serif" font-size="10.00">::new_val</text>
</a>
</g>
</g>
<!-- Node1&#45;&gt;Node4 -->
<g id="edge3_Node000001_Node000004" class="edge">
<title>Node1&#45;&gt;Node4</title>
<g id="a_edge3_Node000001_Node000004"><a xlink:title=" ">
<path fill="none" stroke="#63b8ff" d="M37.22,-203.19C47.59,-206.07 60.96,-209.57 73,-212.05 107.88,-219.24 146.82,-225.42 179.89,-230.14"/>
<polygon fill="#63b8ff" stroke="#63b8ff" points="178.97,-233.54 189.36,-231.47 179.95,-226.61 178.97,-233.54"/>
</a>
</g>
</g>
<!-- Node5 -->
<g id="Node000005" class="node">
<title>Node5</title>
<g id="a_Node000005"><a xlink:href="classstatistics_1_1stats__computer2.html#ade6de704deea24fdc88077b3d9a0d534" target="_top" xlink:title=" ">
<polygon fill="white" stroke="#666666" points="325.5,-93.3 191,-93.3 191,-62.8 325.5,-62.8 325.5,-93.3"/>
<text text-anchor="start" x="199" y="-79.8" font-family="Helvetica,sans-Serif" font-size="10.00">statistics::stats_computer2</text>
<text text-anchor="middle" x="258.25" y="-68.55" font-family="Helvetica,sans-Serif" font-size="10.00">::new_val</text>
</a>
</g>
</g>
<!-- Node1&#45;&gt;Node5 -->
<g id="edge4_Node000001_Node000005" class="edge">
<title>Node1&#45;&gt;Node5</title>
<g id="a_edge4_Node000001_Node000005"><a xlink:title=" ">
<path fill="none" stroke="#63b8ff" d="M26.34,-188.19C35.57,-175.59 53.16,-153.86 73,-141.05 105.29,-120.2 145.24,-105.45 179.68,-95.48"/>
<polygon fill="#63b8ff" stroke="#63b8ff" points="180.51,-98.89 189.19,-92.82 178.62,-92.14 180.51,-98.89"/>
</a>
</g>
</g>
<!-- Node6 -->
<g id="Node000006" class="node">
<title>Node6</title>
<g id="a_Node000006"><a xlink:href="classstatistics_1_1stats__computer1.html#af57e942d49f4fd70f059f224b4ac07e1" target="_top" xlink:title=" ">
<polygon fill="white" stroke="#666666" points="335.25,-206.67 181.25,-206.67 181.25,-187.42 335.25,-187.42 335.25,-206.67"/>
<text text-anchor="middle" x="258.25" y="-193.17" font-family="Helvetica,sans-Serif" font-size="10.00">statistics::stats_computer1::std</text>
</a>
</g>
</g>
<!-- Node1&#45;&gt;Node6 -->
<g id="edge5_Node000001_Node000006" class="edge">
<title>Node1&#45;&gt;Node6</title>
<g id="a_edge5_Node000001_Node000006"><a xlink:title=" ">
<path fill="none" stroke="#63b8ff" d="M37.37,-197.97C65.26,-197.86 120.97,-197.62 169.33,-197.42"/>
<polygon fill="#63b8ff" stroke="#63b8ff" points="169.31,-200.92 179.29,-197.38 169.28,-193.92 169.31,-200.92"/>
</a>
</g>
</g>
<!-- Node7 -->
<g id="Node000007" class="node">
<title>Node7</title>
<g id="a_Node000007"><a xlink:href="classstatistics_1_1stats__computer1.html#a27f0a03e2fd2254f1c81fe668226bd92" target="_top" xlink:title=" ">
<polygon fill="white" stroke="#666666" points="505.75,-212.3 371.25,-212.3 371.25,-181.8 505.75,-181.8 505.75,-212.3"/>
<text text-anchor="start" x="379.25" y="-198.8" font-family="Helvetica,sans-Serif" font-size="10.00">statistics::stats_computer1</text>
<text text-anchor="middle" x="438.5" y="-187.55" font-family="Helvetica,sans-Serif" font-size="10.00">::variance</text>
</a>
</g>
</g>
<!-- Node1&#45;&gt;Node7 -->
<g id="edge18_Node000001_Node000007" class="edge">
<title>Node1&#45;&gt;Node7</title>
<g id="a_edge18_Node000001_Node000007"><a xlink:title=" ">
<path fill="none" stroke="#63b8ff" d="M23.13,-208.07C30.3,-226.76 47.78,-267.47 73,-294.05 155.88,-381.4 230.05,-420.62 335.25,-362.05 388.62,-332.34 417.67,-261.99 430.09,-223.44"/>
<polygon fill="#63b8ff" stroke="#63b8ff" points="433.39,-224.61 432.97,-214.02 426.7,-222.56 433.39,-224.61"/>
</a>
</g>
</g>
<!-- Node8 -->
<g id="Node000008" class="node">
<title>Node8</title>
<g id="a_Node000008"><a xlink:href="classstatistics_1_1stats__computer2.html#acf2e84df4fc386bb3295016ef8fd156e" target="_top" xlink:title=" ">
<polygon fill="white" stroke="#666666" points="335.25,-44.67 181.25,-44.67 181.25,-25.42 335.25,-25.42 335.25,-44.67"/>
<text text-anchor="middle" x="258.25" y="-31.17" font-family="Helvetica,sans-Serif" font-size="10.00">statistics::stats_computer2::std</text>
</a>
</g>
</g>
<!-- Node1&#45;&gt;Node8 -->
<g id="edge7_Node000001_Node000008" class="edge">
<title>Node1&#45;&gt;Node8</title>
<g id="a_edge7_Node000001_Node000008"><a xlink:title=" ">
<path fill="none" stroke="#63b8ff" d="M22.73,-188.1C29.33,-169.19 46.06,-127.72 73,-103.05 104.24,-74.44 148.55,-57.58 185.89,-47.81"/>
<polygon fill="#63b8ff" stroke="#63b8ff" points="186.4,-51.29 195.26,-45.48 184.71,-44.5 186.4,-51.29"/>
</a>
</g>
</g>
<!-- Node9 -->
<g id="Node000009" class="node">
<title>Node9</title>
<g id="a_Node000009"><a xlink:href="classstatistics_1_1stats__computer2.html#af6198817084276113b3c064e87ce0555" target="_top" xlink:title=" ">
<polygon fill="white" stroke="#666666" points="505.75,-50.3 371.25,-50.3 371.25,-19.8 505.75,-19.8 505.75,-50.3"/>
<text text-anchor="start" x="379.25" y="-36.8" font-family="Helvetica,sans-Serif" font-size="10.00">statistics::stats_computer2</text>
<text text-anchor="middle" x="438.5" y="-25.55" font-family="Helvetica,sans-Serif" font-size="10.00">::variance</text>
</a>
</g>
</g>
<!-- Node1&#45;&gt;Node9 -->
<g id="edge19_Node000001_Node000009" class="edge">
<title>Node1&#45;&gt;Node9</title>
<g id="a_edge19_Node000001_Node000009"><a xlink:title=" ">
<path fill="none" stroke="#63b8ff" d="M20.54,-188.1C23.7,-162.89 35.38,-95.86 73,-58.05 150.95,20.3 291.73,2.62 373.64,-16.64"/>
<polygon fill="#63b8ff" stroke="#63b8ff" points="372.78,-20.04 383.33,-19 374.44,-13.23 372.78,-20.04"/>
</a>
</g>
</g>
<!-- Node10 -->
<g id="Node000010" class="node">
<title>Node10</title>
<g id="a_Node000010"><a xlink:href="realtime__stats_8cpp.html#aa54c915581fcc495489175a4386d59fd" target="_top" xlink:title=" ">
<polygon fill="white" stroke="#666666" points="145.25,-169.67 73,-169.67 73,-150.42 145.25,-150.42 145.25,-169.67"/>
<text text-anchor="middle" x="109.12" y="-156.17" font-family="Helvetica,sans-Serif" font-size="10.00">test_function</text>
</a>
</g>
</g>
<!-- Node1&#45;&gt;Node10 -->
<g id="edge9_Node000001_Node000010" class="edge">
<title>Node1&#45;&gt;Node10</title>
<g id="a_edge9_Node000001_Node000010"><a xlink:title=" ">
<path fill="none" stroke="#63b8ff" d="M37.43,-190.36C48.1,-185.78 61.98,-179.83 74.61,-174.42"/>
<polygon fill="#63b8ff" stroke="#63b8ff" points="75.63,-177.79 83.44,-170.63 72.87,-171.36 75.63,-177.79"/>
</a>
</g>
</g>
<!-- Node6&#45;&gt;Node7 -->
<g id="edge6_Node000006_Node000007" class="edge">
<title>Node6&#45;&gt;Node7</title>
<g id="a_edge6_Node000006_Node000007"><a xlink:title=" ">
<path fill="none" stroke="#63b8ff" d="M335.62,-197.05C343.49,-197.05 351.5,-197.05 359.39,-197.05"/>
<polygon fill="#63b8ff" stroke="#63b8ff" points="359.33,-200.55 369.33,-197.05 359.33,-193.55 359.33,-200.55"/>
</a>
</g>
</g>
<!-- Node8&#45;&gt;Node9 -->
<g id="edge8_Node000008_Node000009" class="edge">
<title>Node8&#45;&gt;Node9</title>
<g id="a_edge8_Node000008_Node000009"><a xlink:title=" ">
<path fill="none" stroke="#63b8ff" d="M335.62,-35.05C343.49,-35.05 351.5,-35.05 359.39,-35.05"/>
<polygon fill="#63b8ff" stroke="#63b8ff" points="359.33,-38.55 369.33,-35.05 359.33,-31.55 359.33,-38.55"/>
</a>
</g>
</g>
<!-- Node10&#45;&gt;Node2 -->
<g id="edge10_Node000010_Node000002" class="edge">
<title>Node10&#45;&gt;Node2</title>
<g id="a_edge10_Node000010_Node000002"><a xlink:title=" ">
<path fill="none" stroke="#63b8ff" d="M111.89,-169.9C117.22,-196.86 135.72,-272.57 181.25,-313.05 182.52,-314.17 183.83,-315.25 185.19,-316.27"/>
<polygon fill="#63b8ff" stroke="#63b8ff" points="183.14,-319.12 193.46,-321.56 186.92,-313.22 183.14,-319.12"/>
</a>
</g>
</g>
<!-- Node10&#45;&gt;Node3 -->
<g id="edge11_Node000010_Node000003" class="edge">
<title>Node10&#45;&gt;Node3</title>
<g id="a_edge11_Node000010_Node000003"><a xlink:title=" ">
<path fill="none" stroke="#63b8ff" d="M114.23,-169.95C123.25,-190.53 146.8,-238.16 181.25,-264.05 183.04,-265.39 184.91,-266.67 186.83,-267.88"/>
<polygon fill="#63b8ff" stroke="#63b8ff" points="185.1,-270.92 195.55,-272.65 188.46,-264.78 185.1,-270.92"/>
</a>
</g>
</g>
<!-- Node10&#45;&gt;Node4 -->
<g id="edge12_Node000010_Node000004" class="edge">
<title>Node10&#45;&gt;Node4</title>
<g id="a_edge12_Node000010_Node000004"><a xlink:title=" ">
<path fill="none" stroke="#63b8ff" d="M120.35,-170.1C133.46,-182.48 157.35,-203.41 181.25,-216.05 183.91,-217.46 186.67,-218.8 189.49,-220.07"/>
<polygon fill="#63b8ff" stroke="#63b8ff" points="187.92,-223.21 198.49,-223.83 190.61,-216.75 187.92,-223.21"/>
</a>
</g>
</g>
<!-- Node10&#45;&gt;Node5 -->
<g id="edge13_Node000010_Node000005" class="edge">
<title>Node10&#45;&gt;Node5</title>
<g id="a_edge13_Node000010_Node000005"><a xlink:title=" ">
<path fill="none" stroke="#63b8ff" d="M121.52,-149.98C135.03,-138.44 158.58,-119.51 181.25,-107.05 187.04,-103.87 193.25,-100.88 199.53,-98.12"/>
<polygon fill="#63b8ff" stroke="#63b8ff" points="200.84,-101.37 208.72,-94.29 198.14,-94.91 200.84,-101.37"/>
</a>
</g>
</g>
<!-- Node10&#45;&gt;Node6 -->
<g id="edge14_Node000010_Node000006" class="edge">
<title>Node10&#45;&gt;Node6</title>
<g id="a_edge14_Node000010_Node000006"><a xlink:title=" ">
<path fill="none" stroke="#63b8ff" d="M145.74,-169.01C163.81,-173.55 186.09,-179.15 205.97,-184.15"/>
<polygon fill="#63b8ff" stroke="#63b8ff" points="205.01,-187.52 215.56,-186.57 206.72,-180.73 205.01,-187.52"/>
</a>
</g>
</g>
<!-- Node10&#45;&gt;Node7 -->
<g id="edge16_Node000010_Node000007" class="edge">
<title>Node10&#45;&gt;Node7</title>
<g id="a_edge16_Node000010_Node000007"><a xlink:title=" ">
<path fill="none" stroke="#63b8ff" d="M145.73,-161.75C190.21,-164.14 268.59,-169.21 335.25,-178.05 343.19,-179.1 351.44,-180.36 359.67,-181.72"/>
<polygon fill="#63b8ff" stroke="#63b8ff" points="358.89,-185.14 369.34,-183.37 360.07,-178.24 358.89,-185.14"/>
</a>
</g>
</g>
<!-- Node10&#45;&gt;Node8 -->
<g id="edge15_Node000010_Node000008" class="edge">
<title>Node10&#45;&gt;Node8</title>
<g id="a_edge15_Node000010_Node000008"><a xlink:title=" ">
<path fill="none" stroke="#63b8ff" d="M113.89,-150.08C122.43,-128.89 145.34,-79.27 181.25,-54.05 183.33,-52.59 185.51,-51.24 187.77,-49.99"/>
<polygon fill="#63b8ff" stroke="#63b8ff" points="189.12,-53.22 196.69,-45.81 186.15,-46.88 189.12,-53.22"/>
</a>
</g>
</g>
<!-- Node10&#45;&gt;Node9 -->
<g id="edge17_Node000010_Node000009" class="edge">
<title>Node10&#45;&gt;Node9</title>
<g id="a_edge17_Node000010_Node000009"><a xlink:title=" ">
<path fill="none" stroke="#63b8ff" d="M145.63,-154.61C191.03,-146.84 271.38,-130.27 335.25,-102.05 361.78,-90.33 389.11,-72.03 408.84,-57.52"/>
<polygon fill="#63b8ff" stroke="#63b8ff" points="410.77,-60.45 416.67,-51.65 406.57,-54.85 410.77,-60.45"/>
</a>
</g>
</g>
</g>
</svg>
