<?xml version="1.0" encoding="UTF-8" standalone="no"?>
<!DOCTYPE svg PUBLIC "-//W3C//DTD SVG 1.1//EN"
 "http://www.w3.org/Graphics/SVG/1.1/DTD/svg11.dtd">
<!-- Generated by graphviz version 12.1.1 (20240910.0053)
 -->
<!-- Title: test2 Pages: 1 -->
<svg width="240pt" height="173pt"
 viewBox="0.00 0.00 239.50 172.50" xmlns="http://www.w3.org/2000/svg" xmlns:xlink="http://www.w3.org/1999/xlink">
<g id="graph0" class="graph" transform="scale(1 1) rotate(0) translate(4 168.5)">
<title>test2</title>
<!-- Node1 -->
<g id="Node000001" class="node">
<title>Node1</title>
<g id="a_Node000001"><a xlink:title="2nd test&#45;case">
<polygon fill="#999999" stroke="#666666" points="37.75,-91.88 0,-91.88 0,-72.62 37.75,-72.62 37.75,-91.88"/>
<text text-anchor="middle" x="18.88" y="-78.38" font-family="Helvetica,sans-Serif" font-size="10.00">test2</text>
</a>
</g>
</g>
<!-- Node2 -->
<g id="Node000002" class="node">
<title>Node2</title>
<g id="a_Node000002"><a xlink:href="classothers_1_1recursive__tree__traversals_1_1_b_t.html#af16da5fe0f5c54d31778d71d5a042114" target="_top" xlink:title="will allocate the memory for a node and, along the data and return the node.">
<polygon fill="white" stroke="#666666" points="231.5,-164.5 73.75,-164.5 73.75,-134 231.5,-134 231.5,-164.5"/>
<text text-anchor="start" x="81.75" y="-151" font-family="Helvetica,sans-Serif" font-size="10.00">others::recursive_tree</text>
<text text-anchor="middle" x="152.62" y="-139.75" font-family="Helvetica,sans-Serif" font-size="10.00">_traversals::BT::createNewNode</text>
</a>
</g>
</g>
<!-- Node1&#45;&gt;Node2 -->
<g id="edge1_Node000001_Node000002" class="edge">
<title>Node1&#45;&gt;Node2</title>
<g id="a_edge1_Node000001_Node000002"><a xlink:title=" ">
<path fill="none" stroke="#63b8ff" d="M30.23,-92.15C40.55,-101.55 57.18,-115.49 73.75,-124.25 77.01,-125.98 80.42,-127.61 83.9,-129.15"/>
<polygon fill="#63b8ff" stroke="#63b8ff" points="82.54,-132.37 93.12,-132.93 85.19,-125.9 82.54,-132.37"/>
</a>
</g>
</g>
<!-- Node3 -->
<g id="Node000003" class="node">
<title>Node3</title>
<g id="a_Node000003"><a xlink:href="classothers_1_1recursive__tree__traversals_1_1_b_t.html#ac9404b65f407f631915515fa2e08a40c" target="_top" xlink:title="postorder function that will perform the postorder traversal recursively, and return the result vecto...">
<polygon fill="white" stroke="#666666" points="216.5,-97.5 88.75,-97.5 88.75,-67 216.5,-67 216.5,-97.5"/>
<text text-anchor="start" x="96.75" y="-84" font-family="Helvetica,sans-Serif" font-size="10.00">others::recursive_tree</text>
<text text-anchor="middle" x="152.62" y="-72.75" font-family="Helvetica,sans-Serif" font-size="10.00">_traversals::BT::postorder</text>
</a>
</g>
</g>
<!-- Node1&#45;&gt;Node3 -->
<g id="edge2_Node000001_Node000003" class="edge">
<title>Node1&#45;&gt;Node3</title>
<g id="a_edge2_Node000001_Node000003"><a xlink:title=" ">
<path fill="none" stroke="#63b8ff" d="M38.19,-82.25C48.73,-82.25 62.74,-82.25 77.31,-82.25"/>
<polygon fill="#63b8ff" stroke="#63b8ff" points="77,-85.75 87,-82.25 77,-78.75 77,-85.75"/>
</a>
</g>
</g>
<!-- Node4 -->
<g id="Node000004" class="node">
<title>Node4</title>
<g id="a_Node000004"><a xlink:href="classothers_1_1recursive__tree__traversals_1_1_b_t.html#a6397b78ceec18cb1959a1d159e134da5" target="_top" xlink:title="preorder function that will perform the preorder traversal recursively, and return the resultant vect...">
<polygon fill="white" stroke="#666666" points="213.88,-30.5 91.38,-30.5 91.38,0 213.88,0 213.88,-30.5"/>
<text text-anchor="start" x="99.38" y="-17" font-family="Helvetica,sans-Serif" font-size="10.00">others::recursive_tree</text>
<text text-anchor="middle" x="152.62" y="-5.75" font-family="Helvetica,sans-Serif" font-size="10.00">_traversals::BT::preorder</text>
</a>
</g>
</g>
<!-- Node1&#45;&gt;Node4 -->
<g id="edge4_Node000001_Node000004" class="edge">
<title>Node1&#45;&gt;Node4</title>
<g id="a_edge4_Node000001_Node000004"><a xlink:title=" ">
<path fill="none" stroke="#63b8ff" d="M38.19,-72.93C56.88,-63.43 86.49,-48.37 110.77,-36.02"/>
<polygon fill="#63b8ff" stroke="#63b8ff" points="112.13,-39.26 119.46,-31.61 108.96,-33.02 112.13,-39.26"/>
</a>
</g>
</g>
<!-- Node3&#45;&gt;Node3 -->
<g id="edge3_Node000003_Node000003" class="edge">
<title>Node3&#45;&gt;Node3</title>
<g id="a_edge3_Node000003_Node000003"><a xlink:title=" ">
<path fill="none" stroke="#63b8ff" d="M128.92,-97.99C124.09,-107.06 131.99,-115.5 152.62,-115.5 163.91,-115.5 171.39,-112.97 175.06,-109.2"/>
<polygon fill="#63b8ff" stroke="#63b8ff" points="178.51,-109.82 176.16,-99.49 171.55,-109.03 178.51,-109.82"/>
</a>
</g>
</g>
<!-- Node4&#45;&gt;Node4 -->
<g id="edge5_Node000004_Node000004" class="edge">
<title>Node4&#45;&gt;Node4</title>
<g id="a_edge5_Node000004_Node000004"><a xlink:title=" ">
<path fill="none" stroke="#63b8ff" d="M128.92,-30.99C124.09,-40.06 131.99,-48.5 152.62,-48.5 163.91,-48.5 171.39,-45.97 175.06,-42.2"/>
<polygon fill="#63b8ff" stroke="#63b8ff" points="178.51,-42.82 176.16,-32.49 171.55,-42.03 178.51,-42.82"/>
</a>
</g>
</g>
</g>
</svg>
