<?xml version="1.0" encoding="UTF-8" standalone="no"?>
<!DOCTYPE svg PUBLIC "-//W3C//DTD SVG 1.1//EN"
 "http://www.w3.org/Graphics/SVG/1.1/DTD/svg11.dtd">
<!-- Generated by graphviz version 12.1.1 (20240910.0053)
 -->
<!-- Title: main Pages: 1 -->
<svg width="140pt" height="192pt"
 viewBox="0.00 0.00 139.75 192.25" xmlns="http://www.w3.org/2000/svg" xmlns:xlink="http://www.w3.org/1999/xlink">

<svg id="main" version="1.1" xmlns="http://www.w3.org/2000/svg" xmlns:xlink="http://www.w3.org/1999/xlink" xml:space="preserve">

<style type="text/css"><![CDATA[
.node, .edge {opacity: 0.7;}
.node.selected, .edge.selected {opacity: 1;}
.edge:hover path { stroke: red; }
.edge:hover polygon { stroke: red; fill: red; }
]]></style>
<script type="application/ecmascript" xlink:href="svg.min.js"/>
<svg id="graph" class="graph">
<g id="graph0" class="graph" transform="scale(1 1) rotate(0) translate(4 188.25)">
<title>main</title>
<!-- Node1 -->
<g id="Node000001" class="node">
<title>Node1</title>
<g id="a_Node000001"><a xlink:title="Main function.">
<polygon fill="#999999" stroke="#666666" points="37,-92.25 0,-92.25 0,-73 37,-73 37,-92.25"/>
<text text-anchor="middle" x="18.5" y="-78.75" font-family="Helvetica,sans-Serif" font-size="10.00">main</text>
</a>
</g>
</g>
<!-- Node2 -->
<g id="Node000002" class="node">
<title>Node2</title>
<g id="a_Node000002"><a xlink:href="segtree_8cpp.html#ae752659b7c1719d68fdb2ca538a93696" target="_top" xlink:title="for std::vector">
<polygon fill="white" stroke="#666666" points="131.75,-166.25 73,-166.25 73,-147 131.75,-147 131.75,-166.25"/>
<text text-anchor="middle" x="102.38" y="-152.75" font-family="Helvetica,sans-Serif" font-size="10.00">ConsTree</text>
</a>
</g>
</g>
<!-- Node1&#45;&gt;Node2 -->
<g id="edge1_Node000001_Node000002" class="edge">
<title>Node1&#45;&gt;Node2</title>
<g id="a_edge1_Node000001_Node000002"><a xlink:title=" ">
<path fill="none" stroke="#63b8ff" d="M27.57,-92.43C37.53,-104.19 55.32,-124.13 73,-138.62 73.64,-139.15 74.3,-139.68 74.97,-140.2"/>
<polygon fill="#63b8ff" stroke="#63b8ff" points="72.67,-142.86 82.86,-145.74 76.7,-137.13 72.67,-142.86"/>
</a>
</g>
</g>
<!-- Node3 -->
<g id="Node000003" class="node">
<title>Node3</title>
<g id="a_Node000003"><a xlink:href="segtree_8cpp.html#a423a97ea0c7ea6e33b5844a6858d902d" target="_top" xlink:title="Returns the sum of all elements in a range.">
<polygon fill="white" stroke="#666666" points="122.38,-111.25 82.38,-111.25 82.38,-92 122.38,-92 122.38,-111.25"/>
<text text-anchor="middle" x="102.38" y="-97.75" font-family="Helvetica,sans-Serif" font-size="10.00">query</text>
</a>
</g>
</g>
<!-- Node1&#45;&gt;Node3 -->
<g id="edge3_Node000001_Node000003" class="edge">
<title>Node1&#45;&gt;Node3</title>
<g id="a_edge3_Node000001_Node000003"><a xlink:title=" ">
<path fill="none" stroke="#63b8ff" d="M37.27,-86.75C47.04,-89.02 59.44,-91.89 70.73,-94.51"/>
<polygon fill="#63b8ff" stroke="#63b8ff" points="69.92,-97.92 80.45,-96.77 71.5,-91.1 69.92,-97.92"/>
</a>
</g>
</g>
<!-- Node4 -->
<g id="Node000004" class="node">
<title>Node4</title>
<g id="a_Node000004"><a xlink:href="caesar__cipher_8cpp.html#ae1a3968e7947464bee7714f6d43b7002" target="_top" xlink:title=" ">
<polygon fill="white" stroke="#666666" points="118.62,-74.25 86.12,-74.25 86.12,-55 118.62,-55 118.62,-74.25"/>
<text text-anchor="middle" x="102.38" y="-60.75" font-family="Helvetica,sans-Serif" font-size="10.00">test</text>
</a>
</g>
</g>
<!-- Node1&#45;&gt;Node4 -->
<g id="edge5_Node000001_Node000004" class="edge">
<title>Node1&#45;&gt;Node4</title>
<g id="a_edge5_Node000001_Node000004"><a xlink:title=" ">
<path fill="none" stroke="#63b8ff" d="M37.27,-78.72C48.24,-76.31 62.54,-73.16 74.84,-70.46"/>
<polygon fill="#63b8ff" stroke="#63b8ff" points="75.36,-73.93 84.37,-68.36 73.86,-67.09 75.36,-73.93"/>
</a>
</g>
</g>
<!-- Node5 -->
<g id="Node000005" class="node">
<title>Node5</title>
<g id="a_Node000005"><a xlink:href="segtree_8cpp.html#abd3e818681fb2e29cf08f4f60f82c8e0" target="_top" xlink:title="Updates a range of the segment tree.">
<polygon fill="white" stroke="#666666" points="125,-19.25 79.75,-19.25 79.75,0 125,0 125,-19.25"/>
<text text-anchor="middle" x="102.38" y="-5.75" font-family="Helvetica,sans-Serif" font-size="10.00">update</text>
</a>
</g>
</g>
<!-- Node1&#45;&gt;Node5 -->
<g id="edge6_Node000001_Node000005" class="edge">
<title>Node1&#45;&gt;Node5</title>
<g id="a_edge6_Node000001_Node000005"><a xlink:title=" ">
<path fill="none" stroke="#63b8ff" d="M30.54,-72.78C43.73,-61.02 66.01,-41.16 82.06,-26.84"/>
<polygon fill="#63b8ff" stroke="#63b8ff" points="83.98,-29.82 89.12,-20.55 79.32,-24.6 83.98,-29.82"/>
</a>
</g>
</g>
<!-- Node2&#45;&gt;Node2 -->
<g id="edge2_Node000002_Node000002" class="edge">
<title>Node2&#45;&gt;Node2</title>
<g id="a_edge2_Node000002_Node000002"><a xlink:title=" ">
<path fill="none" stroke="#63b8ff" d="M89.24,-166.54C83.25,-175.15 87.63,-184.25 102.38,-184.25 110.44,-184.25 115.4,-181.53 117.26,-177.65"/>
<polygon fill="#63b8ff" stroke="#63b8ff" points="120.76,-177.36 115.74,-168.03 113.85,-178.46 120.76,-177.36"/>
</a>
</g>
</g>
<!-- Node3&#45;&gt;Node3 -->
<g id="edge4_Node000003_Node000003" class="edge">
<title>Node3&#45;&gt;Node3</title>
<g id="a_edge4_Node000003_Node000003"><a xlink:title=" ">
<path fill="none" stroke="#63b8ff" d="M89.24,-111.54C83.25,-120.15 87.63,-129.25 102.38,-129.25 110.44,-129.25 115.4,-126.53 117.26,-122.65"/>
<polygon fill="#63b8ff" stroke="#63b8ff" points="120.76,-122.36 115.74,-113.03 113.85,-123.46 120.76,-122.36"/>
</a>
</g>
</g>
<!-- Node5&#45;&gt;Node5 -->
<g id="edge7_Node000005_Node000005" class="edge">
<title>Node5&#45;&gt;Node5</title>
<g id="a_edge7_Node000005_Node000005"><a xlink:title=" ">
<path fill="none" stroke="#63b8ff" d="M89.24,-19.54C83.25,-28.15 87.63,-37.25 102.38,-37.25 110.44,-37.25 115.4,-34.53 117.26,-30.65"/>
<polygon fill="#63b8ff" stroke="#63b8ff" points="120.76,-30.36 115.74,-21.03 113.85,-31.46 120.76,-30.36"/>
</a>
</g>
</g>
</g>
</svg>
</svg>

<style type='text/css'>
<![CDATA[
[data-mouse-over-selected='false'] { opacity: 0.7; }
[data-mouse-over-selected='true']  { opacity: 1.0; }
]]>
</style>
<script type="application/ecmascript"><![CDATA[
document.addEventListener('DOMContentLoaded', (event) => {
  highlightEdges();
  highlightAdjacentNodes();
});
]]></script>
</svg>
