<?xml version="1.0" encoding="UTF-8" standalone="no"?>
<!DOCTYPE svg PUBLIC "-//W3C//DTD SVG 1.1//EN"
 "http://www.w3.org/Graphics/SVG/1.1/DTD/svg11.dtd">
<!-- Generated by graphviz version 12.1.1 (20240910.0053)
 -->
<!-- Title: hashing::sha256::sha256 Pages: 1 -->
<svg width="635pt" height="176pt"
 viewBox="0.00 0.00 634.50 175.50" xmlns="http://www.w3.org/2000/svg" xmlns:xlink="http://www.w3.org/1999/xlink">
<g id="graph0" class="graph" transform="scale(1 1) rotate(0) translate(4 171.5)">
<title>hashing::sha256::sha256</title>
<!-- Node1 -->
<g id="Node000001" class="node">
<title>Node1</title>
<g id="a_Node000001"><a xlink:title="Computes the final hash value.">
<polygon fill="#999999" stroke="#666666" points="124.75,-88.88 0,-88.88 0,-69.62 124.75,-69.62 124.75,-88.88"/>
<text text-anchor="middle" x="62.38" y="-75.38" font-family="Helvetica,sans-Serif" font-size="10.00">hashing::sha256::sha256</text>
</a>
</g>
</g>
<!-- Node1&#45;&gt;Node1 -->
<g id="edge11_Node000001_Node000001" class="edge">
<title>Node1&#45;&gt;Node1</title>
<g id="a_edge11_Node000001_Node000001"><a xlink:title=" ">
<path fill="none" stroke="#63b8ff" d="M36.62,-89.16C24.87,-97.77 33.46,-106.88 62.38,-106.88 78.64,-106.88 88.47,-103.99 91.87,-99.94"/>
<polygon fill="#63b8ff" stroke="#63b8ff" points="95.21,-98.89 88.62,-90.59 88.6,-101.19 95.21,-98.89"/>
</a>
</g>
</g>
<!-- Node2 -->
<g id="Node000002" class="node">
<title>Node2</title>
<g id="a_Node000002"><a xlink:href="sha256_8cpp.html#a28c1c6724dc6bcf91a39818699bbec27" target="_top" xlink:title="Computes size of the padded input.">
<polygon fill="white" stroke="#666666" points="626.5,-149.5 495.75,-149.5 495.75,-119 626.5,-119 626.5,-149.5"/>
<text text-anchor="start" x="503.75" y="-136" font-family="Helvetica,sans-Serif" font-size="10.00">hashing::sha256::compute</text>
<text text-anchor="middle" x="561.12" y="-124.75" font-family="Helvetica,sans-Serif" font-size="10.00">_padded_size</text>
</a>
</g>
</g>
<!-- Node1&#45;&gt;Node2 -->
<g id="edge1_Node000001_Node000002" class="edge">
<title>Node1&#45;&gt;Node2</title>
<g id="a_edge1_Node000001_Node000002"><a xlink:title=" ">
<path fill="none" stroke="#63b8ff" d="M73.96,-89.31C90.76,-104.49 125.28,-132.64 160.75,-143.25 269.58,-175.81 402.64,-163.02 484.37,-149.58"/>
<polygon fill="#63b8ff" stroke="#63b8ff" points="484.79,-153.06 494.07,-147.94 483.62,-146.16 484.79,-153.06"/>
</a>
</g>
</g>
<!-- Node3 -->
<g id="Node000003" class="node">
<title>Node3</title>
<g id="a_Node000003"><a xlink:href="sha256_8cpp.html#a525531b3939ed44fbf01674e21931b3a" target="_top" xlink:title="Creates the message schedule array.">
<polygon fill="white" stroke="#666666" points="293,-116.5 160.75,-116.5 160.75,-86 293,-86 293,-116.5"/>
<text text-anchor="start" x="168.75" y="-103" font-family="Helvetica,sans-Serif" font-size="10.00">hashing::sha256::create</text>
<text text-anchor="middle" x="226.88" y="-91.75" font-family="Helvetica,sans-Serif" font-size="10.00">_message_schedule_array</text>
</a>
</g>
</g>
<!-- Node1&#45;&gt;Node3 -->
<g id="edge3_Node000001_Node000003" class="edge">
<title>Node1&#45;&gt;Node3</title>
<g id="a_edge3_Node000001_Node000003"><a xlink:title=" ">
<path fill="none" stroke="#63b8ff" d="M124.81,-87.57C132.69,-88.63 140.83,-89.74 148.92,-90.83"/>
<polygon fill="#63b8ff" stroke="#63b8ff" points="148.41,-94.29 158.79,-92.17 149.35,-87.36 148.41,-94.29"/>
</a>
</g>
</g>
<!-- Node6 -->
<g id="Node000006" class="node">
<title>Node6</title>
<g id="a_Node000006"><a xlink:href="hash__search_8cpp.html#a566eaf0ffafd50bc61e644561fd27001" target="_top" xlink:title=" ">
<polygon fill="white" stroke="#666666" points="241.28,-67.88 212.47,-67.88 212.47,-48.62 241.28,-48.62 241.28,-67.88"/>
<text text-anchor="middle" x="226.88" y="-54.38" font-family="Helvetica,sans-Serif" font-size="10.00">h</text>
</a>
</g>
</g>
<!-- Node1&#45;&gt;Node6 -->
<g id="edge10_Node000001_Node000006" class="edge">
<title>Node1&#45;&gt;Node6</title>
<g id="a_edge10_Node000001_Node000006"><a xlink:title=" ">
<path fill="none" stroke="#63b8ff" d="M124.81,-71.31C151.16,-67.91 180.47,-64.12 200.71,-61.5"/>
<polygon fill="#63b8ff" stroke="#63b8ff" points="201.06,-64.99 210.53,-60.23 200.16,-58.04 201.06,-64.99"/>
</a>
</g>
</g>
<!-- Node7 -->
<g id="Node000007" class="node">
<title>Node7</title>
<g id="a_Node000007"><a xlink:href="classhashing_1_1sha256_1_1_hash.html#a4581f503a263d8e928e5716d54477e08" target="_top" xlink:title="Convert the hash to a hexadecimal string.">
<polygon fill="white" stroke="#666666" points="285.12,-30.5 168.62,-30.5 168.62,0 285.12,0 285.12,-30.5"/>
<text text-anchor="start" x="176.62" y="-17" font-family="Helvetica,sans-Serif" font-size="10.00">hashing::sha256::Hash</text>
<text text-anchor="middle" x="226.88" y="-5.75" font-family="Helvetica,sans-Serif" font-size="10.00">::to_string</text>
</a>
</g>
</g>
<!-- Node1&#45;&gt;Node7 -->
<g id="edge12_Node000001_Node000007" class="edge">
<title>Node1&#45;&gt;Node7</title>
<g id="a_edge12_Node000001_Node000007"><a xlink:title=" ">
<path fill="none" stroke="#63b8ff" d="M87.29,-69.14C106.94,-60.9 135.55,-49.07 160.75,-39.25 164.4,-37.83 168.17,-36.38 171.97,-34.94"/>
<polygon fill="#63b8ff" stroke="#63b8ff" points="173.16,-38.23 181.29,-31.44 170.69,-31.68 173.16,-38.23"/>
</a>
</g>
</g>
<!-- Node2&#45;&gt;Node2 -->
<g id="edge2_Node000002_Node000002" class="edge">
<title>Node2&#45;&gt;Node2</title>
<g id="a_edge2_Node000002_Node000002"><a xlink:title=" ">
<path fill="none" stroke="#63b8ff" d="M531.58,-149.99C525.55,-159.06 535.4,-167.5 561.12,-167.5 575.2,-167.5 584.52,-164.97 589.09,-161.2"/>
<polygon fill="#63b8ff" stroke="#63b8ff" points="592.53,-161.88 590.46,-151.48 585.6,-160.9 592.53,-161.88"/>
</a>
</g>
</g>
<!-- Node3&#45;&gt;Node3 -->
<g id="edge4_Node000003_Node000003" class="edge">
<title>Node3&#45;&gt;Node3</title>
<g id="a_edge4_Node000003_Node000003"><a xlink:title=" ">
<path fill="none" stroke="#63b8ff" d="M197.73,-116.99C191.78,-126.06 201.49,-134.5 226.88,-134.5 240.76,-134.5 249.95,-131.97 254.46,-128.2"/>
<polygon fill="#63b8ff" stroke="#63b8ff" points="257.9,-128.87 255.82,-118.48 250.97,-127.91 257.9,-128.87"/>
</a>
</g>
</g>
<!-- Node4 -->
<g id="Node000004" class="node">
<title>Node4</title>
<g id="a_Node000004"><a xlink:href="sha256_8cpp.html#a9e98c180d32b04aab6f767cb0c13e1da" target="_top" xlink:title="Returns the character at pos after the input is padded.">
<polygon fill="white" stroke="#666666" points="459.75,-115.88 329,-115.88 329,-96.62 459.75,-96.62 459.75,-115.88"/>
<text text-anchor="middle" x="394.38" y="-102.38" font-family="Helvetica,sans-Serif" font-size="10.00">hashing::sha256::get_char</text>
</a>
</g>
</g>
<!-- Node3&#45;&gt;Node4 -->
<g id="edge5_Node000003_Node000004" class="edge">
<title>Node3&#45;&gt;Node4</title>
<g id="a_edge5_Node000003_Node000004"><a xlink:title=" ">
<path fill="none" stroke="#63b8ff" d="M293.28,-103.23C301.21,-103.47 309.35,-103.71 317.41,-103.95"/>
<polygon fill="#63b8ff" stroke="#63b8ff" points="317.1,-107.45 327.2,-104.25 317.31,-100.45 317.1,-107.45"/>
</a>
</g>
</g>
<!-- Node5 -->
<g id="Node000005" class="node">
<title>Node5</title>
<g id="a_Node000005"><a xlink:href="sha256_8cpp.html#adbcd504103c342a4da718f8fce6ff06c" target="_top" xlink:title="Rotates the bits of a 32&#45;bit unsigned integer.">
<polygon fill="white" stroke="#666666" points="450.38,-60.5 338.38,-60.5 338.38,-30 450.38,-30 450.38,-60.5"/>
<text text-anchor="start" x="346.38" y="-47" font-family="Helvetica,sans-Serif" font-size="10.00">hashing::sha256::right</text>
<text text-anchor="middle" x="394.38" y="-35.75" font-family="Helvetica,sans-Serif" font-size="10.00">_rotate</text>
</a>
</g>
</g>
<!-- Node3&#45;&gt;Node5 -->
<g id="edge8_Node000003_Node000005" class="edge">
<title>Node3&#45;&gt;Node5</title>
<g id="a_edge8_Node000003_Node000005"><a xlink:title=" ">
<path fill="none" stroke="#63b8ff" d="M274.42,-85.5C293.62,-79 316.07,-71.41 336.26,-64.58"/>
<polygon fill="#63b8ff" stroke="#63b8ff" points="337.11,-67.98 345.46,-61.46 334.87,-61.35 337.11,-67.98"/>
</a>
</g>
</g>
<!-- Node4&#45;&gt;Node2 -->
<g id="edge6_Node000004_Node000002" class="edge">
<title>Node4&#45;&gt;Node2</title>
<g id="a_edge6_Node000004_Node000002"><a xlink:title=" ">
<path fill="none" stroke="#63b8ff" d="M454.85,-116.36C464.43,-117.99 474.45,-119.69 484.35,-121.37"/>
<polygon fill="#63b8ff" stroke="#63b8ff" points="483.5,-124.78 493.95,-123 484.68,-117.88 483.5,-124.78"/>
</a>
</g>
</g>
<!-- Node4&#45;&gt;Node4 -->
<g id="edge7_Node000004_Node000004" class="edge">
<title>Node4&#45;&gt;Node4</title>
<g id="a_edge7_Node000004_Node000004"><a xlink:title=" ">
<path fill="none" stroke="#63b8ff" d="M368.27,-116.16C356.36,-124.77 365.06,-133.88 394.38,-133.88 410.86,-133.88 420.83,-130.99 424.28,-126.94"/>
<polygon fill="#63b8ff" stroke="#63b8ff" points="427.61,-125.86 420.98,-117.59 421,-128.19 427.61,-125.86"/>
</a>
</g>
</g>
<!-- Node5&#45;&gt;Node5 -->
<g id="edge9_Node000005_Node000005" class="edge">
<title>Node5&#45;&gt;Node5</title>
<g id="a_edge9_Node000005_Node000005"><a xlink:title=" ">
<path fill="none" stroke="#63b8ff" d="M364.83,-60.99C358.8,-70.06 368.65,-78.5 394.38,-78.5 408.45,-78.5 417.77,-75.97 422.34,-72.2"/>
<polygon fill="#63b8ff" stroke="#63b8ff" points="425.78,-72.88 423.71,-62.48 418.85,-71.9 425.78,-72.88"/>
</a>
</g>
</g>
</g>
</svg>
