<?xml version="1.0" encoding="UTF-8" standalone="no"?>
<!DOCTYPE svg PUBLIC "-//W3C//DTD SVG 1.1//EN"
 "http://www.w3.org/Graphics/SVG/1.1/DTD/svg11.dtd">
<!-- Generated by graphviz version 12.1.1 (20240910.0053)
 -->
<!-- Title: main Pages: 1 -->
<svg width="144pt" height="119pt"
 viewBox="0.00 0.00 144.25 119.25" xmlns="http://www.w3.org/2000/svg" xmlns:xlink="http://www.w3.org/1999/xlink">
<g id="graph0" class="graph" transform="scale(1 1) rotate(0) translate(4 115.25)">
<title>main</title>
<!-- Node1 -->
<g id="Node000001" class="node">
<title>Node1</title>
<g id="a_Node000001"><a xlink:title=" ">
<polygon fill="#999999" stroke="#666666" points="37,-74.25 0,-74.25 0,-55 37,-55 37,-74.25"/>
<text text-anchor="middle" x="18.5" y="-60.75" font-family="Helvetica,sans-Serif" font-size="10.00">main</text>
</a>
</g>
</g>
<!-- Node2 -->
<g id="Node000002" class="node">
<title>Node2</title>
<g id="a_Node000002"><a xlink:href="shell__sort2_8cpp.html#a951127aea9d7e1e53ea9ae0868633246" target="_top" xlink:title=" ">
<polygon fill="white" stroke="#666666" points="136.25,-111.25 73,-111.25 73,-92 136.25,-92 136.25,-111.25"/>
<text text-anchor="middle" x="104.62" y="-97.75" font-family="Helvetica,sans-Serif" font-size="10.00">show_data</text>
</a>
</g>
</g>
<!-- Node1&#45;&gt;Node2 -->
<g id="edge1_Node000001_Node000002" class="edge">
<title>Node1&#45;&gt;Node2</title>
<g id="a_edge1_Node000001_Node000002"><a xlink:title=" ">
<path fill="none" stroke="#63b8ff" d="M37.34,-72.47C46.92,-76.68 59.03,-82.01 70.28,-86.96"/>
<polygon fill="#63b8ff" stroke="#63b8ff" points="68.74,-90.1 79.3,-90.93 71.56,-83.7 68.74,-90.1"/>
</a>
</g>
</g>
<!-- Node3 -->
<g id="Node000003" class="node">
<title>Node3</title>
<g id="a_Node000003"><a xlink:href="shell__sort2_8cpp.html#a22ea0d1f7943ebb4371d31e44b465b6d" target="_top" xlink:title=" ">
<polygon fill="white" stroke="#666666" points="125,-74.25 84.25,-74.25 84.25,-55 125,-55 125,-74.25"/>
<text text-anchor="middle" x="104.62" y="-60.75" font-family="Helvetica,sans-Serif" font-size="10.00">test_f</text>
</a>
</g>
</g>
<!-- Node1&#45;&gt;Node3 -->
<g id="edge2_Node000001_Node000003" class="edge">
<title>Node1&#45;&gt;Node3</title>
<g id="a_edge2_Node000001_Node000003"><a xlink:title=" ">
<path fill="none" stroke="#63b8ff" d="M37.34,-64.62C47.61,-64.62 60.81,-64.62 72.72,-64.62"/>
<polygon fill="#63b8ff" stroke="#63b8ff" points="72.53,-68.13 82.53,-64.63 72.53,-61.13 72.53,-68.13"/>
</a>
</g>
</g>
<!-- Node4 -->
<g id="Node000004" class="node">
<title>Node4</title>
<g id="a_Node000004"><a xlink:href="shell__sort2_8cpp.html#a895b313cb2671e8f712040460325573e" target="_top" xlink:title=" ">
<polygon fill="white" stroke="#666666" points="128.75,-19.25 80.5,-19.25 80.5,0 128.75,0 128.75,-19.25"/>
<text text-anchor="middle" x="104.62" y="-5.75" font-family="Helvetica,sans-Serif" font-size="10.00">test_int</text>
</a>
</g>
</g>
<!-- Node1&#45;&gt;Node4 -->
<g id="edge3_Node000001_Node000004" class="edge">
<title>Node1&#45;&gt;Node4</title>
<g id="a_edge3_Node000001_Node000004"><a xlink:title=" ">
<path fill="none" stroke="#63b8ff" d="M34.93,-54.54C47.26,-46.47 64.78,-35.02 79.05,-25.7"/>
<polygon fill="#63b8ff" stroke="#63b8ff" points="80.57,-28.88 87.03,-20.48 76.74,-23.02 80.57,-28.88"/>
</a>
</g>
</g>
<!-- Node4&#45;&gt;Node4 -->
<g id="edge4_Node000004_Node000004" class="edge">
<title>Node4&#45;&gt;Node4</title>
<g id="a_edge4_Node000004_Node000004"><a xlink:title=" ">
<path fill="none" stroke="#63b8ff" d="M91.14,-19.54C84.99,-28.15 89.49,-37.25 104.62,-37.25 112.9,-37.25 118,-34.53 119.91,-30.65"/>
<polygon fill="#63b8ff" stroke="#63b8ff" points="123.41,-30.34 118.35,-21.03 116.5,-31.46 123.41,-30.34"/>
</a>
</g>
</g>
</g>
</svg>
