<?xml version="1.0" encoding="UTF-8" standalone="no"?>
<!DOCTYPE svg PUBLIC "-//W3C//DTD SVG 1.1//EN"
 "http://www.w3.org/Graphics/SVG/1.1/DTD/svg11.dtd">
<!-- Generated by graphviz version 12.1.1 (20240910.0053)
 -->
<!-- Title: main Pages: 1 -->
<svg width="194pt" height="103pt"
 viewBox="0.00 0.00 194.00 103.25" xmlns="http://www.w3.org/2000/svg" xmlns:xlink="http://www.w3.org/1999/xlink">
<g id="graph0" class="graph" transform="scale(1 1) rotate(0) translate(4 99.25)">
<title>main</title>
<!-- Node1 -->
<g id="Node000001" class="node">
<title>Node1</title>
<g id="a_Node000001"><a xlink:title=" ">
<polygon fill="#999999" stroke="#666666" points="37,-57.25 0,-57.25 0,-38 37,-38 37,-57.25"/>
<text text-anchor="middle" x="18.5" y="-43.75" font-family="Helvetica,sans-Serif" font-size="10.00">main</text>
</a>
</g>
</g>
<!-- Node2 -->
<g id="Node000002" class="node">
<title>Node2</title>
<g id="a_Node000002"><a xlink:href="sieve__of__eratosthenes_8cpp.html#a235843bdf82d2a6cc8596ae8fd3b8df9" target="_top" xlink:title=" ">
<polygon fill="white" stroke="#666666" points="109.25,-95.25 74.5,-95.25 74.5,-76 109.25,-76 109.25,-95.25"/>
<text text-anchor="middle" x="91.88" y="-81.75" font-family="Helvetica,sans-Serif" font-size="10.00">print</text>
</a>
</g>
</g>
<!-- Node1&#45;&gt;Node2 -->
<g id="edge1_Node000001_Node000002" class="edge">
<title>Node1&#45;&gt;Node2</title>
<g id="a_edge1_Node000001_Node000002"><a xlink:title=" ">
<path fill="none" stroke="#63b8ff" d="M37.14,-57.02C45.33,-61.38 55.24,-66.65 64.31,-71.48"/>
<polygon fill="#63b8ff" stroke="#63b8ff" points="62.61,-74.54 73.08,-76.15 65.9,-68.36 62.61,-74.54"/>
</a>
</g>
</g>
<!-- Node3 -->
<g id="Node000003" class="node">
<title>Node3</title>
<g id="a_Node000003"><a xlink:href="sieve__of__eratosthenes_8cpp.html#a7eebd5e7686a8db363f937b2f30d3818" target="_top" xlink:title=" ">
<polygon fill="white" stroke="#666666" points="186,-38.25 146.75,-38.25 146.75,-19 186,-19 186,-38.25"/>
<text text-anchor="middle" x="166.38" y="-24.75" font-family="Helvetica,sans-Serif" font-size="10.00">sieve</text>
</a>
</g>
</g>
<!-- Node1&#45;&gt;Node3 -->
<g id="edge2_Node000001_Node000003" class="edge">
<title>Node1&#45;&gt;Node3</title>
<g id="a_edge2_Node000001_Node000003"><a xlink:title=" ">
<path fill="none" stroke="#63b8ff" d="M37.39,-45.3C61.73,-42.13 105.62,-36.41 135.13,-32.56"/>
<polygon fill="#63b8ff" stroke="#63b8ff" points="135.45,-36.05 144.92,-31.29 134.55,-29.11 135.45,-36.05"/>
</a>
</g>
</g>
<!-- Node4 -->
<g id="Node000004" class="node">
<title>Node4</title>
<g id="a_Node000004"><a xlink:href="sieve__of__eratosthenes_8cpp.html#a88ec9ad42717780d6caaff9d3d6977f9" target="_top" xlink:title=" ">
<polygon fill="white" stroke="#666666" points="110.75,-19.25 73,-19.25 73,0 110.75,0 110.75,-19.25"/>
<text text-anchor="middle" x="91.88" y="-5.75" font-family="Helvetica,sans-Serif" font-size="10.00">tests</text>
</a>
</g>
</g>
<!-- Node1&#45;&gt;Node4 -->
<g id="edge3_Node000001_Node000004" class="edge">
<title>Node1&#45;&gt;Node4</title>
<g id="a_edge3_Node000001_Node000004"><a xlink:title=" ">
<path fill="none" stroke="#63b8ff" d="M37.14,-38.23C44.89,-34.11 54.18,-29.16 62.84,-24.55"/>
<polygon fill="#63b8ff" stroke="#63b8ff" points="64.42,-27.67 71.6,-19.89 61.13,-21.5 64.42,-27.67"/>
</a>
</g>
</g>
<!-- Node4&#45;&gt;Node3 -->
<g id="edge4_Node000004_Node000003" class="edge">
<title>Node4&#45;&gt;Node3</title>
<g id="a_edge4_Node000004_Node000003"><a xlink:title=" ">
<path fill="none" stroke="#63b8ff" d="M111.17,-14.42C118.47,-16.33 127.07,-18.59 135.24,-20.73"/>
<polygon fill="#63b8ff" stroke="#63b8ff" points="134.3,-24.1 144.86,-23.25 136.08,-17.33 134.3,-24.1"/>
</a>
</g>
</g>
</g>
</svg>
