<?xml version="1.0" encoding="UTF-8" standalone="no"?>
<!DOCTYPE svg PUBLIC "-//W3C//DTD SVG 1.1//EN"
 "http://www.w3.org/Graphics/SVG/1.1/DTD/svg11.dtd">
<!-- Generated by graphviz version 12.1.1 (20240910.0053)
 -->
<!-- Title: main Pages: 1 -->
<svg width="367pt" height="112pt"
 viewBox="0.00 0.00 366.50 111.88" xmlns="http://www.w3.org/2000/svg" xmlns:xlink="http://www.w3.org/1999/xlink">
<g id="graph0" class="graph" transform="scale(1 1) rotate(0) translate(4 107.88)">
<title>main</title>
<!-- Node1 -->
<g id="Node000001" class="node">
<title>Node1</title>
<g id="a_Node000001"><a xlink:title=" ">
<polygon fill="#999999" stroke="#666666" points="37,-73.25 0,-73.25 0,-54 37,-54 37,-73.25"/>
<text text-anchor="middle" x="18.5" y="-59.75" font-family="Helvetica,sans-Serif" font-size="10.00">main</text>
</a>
</g>
</g>
<!-- Node2 -->
<g id="Node000002" class="node">
<title>Node2</title>
<g id="a_Node000002"><a xlink:href="classdata__structures_1_1_skip_list.html#a812611f80b8079268dbb19cc4e9bee5c" target="_top" xlink:title=" ">
<polygon fill="white" stroke="#666666" points="197.75,-103.88 73,-103.88 73,-73.38 197.75,-73.38 197.75,-103.88"/>
<text text-anchor="start" x="81" y="-90.38" font-family="Helvetica,sans-Serif" font-size="10.00">data_structures::SkipList</text>
<text text-anchor="middle" x="135.38" y="-79.12" font-family="Helvetica,sans-Serif" font-size="10.00">::displayList</text>
</a>
</g>
</g>
<!-- Node1&#45;&gt;Node2 -->
<g id="edge1_Node000001_Node000002" class="edge">
<title>Node1&#45;&gt;Node2</title>
<g id="a_edge1_Node000001_Node000002"><a xlink:title=" ">
<path fill="none" stroke="#63b8ff" d="M37.45,-67.53C44.36,-69.03 52.74,-70.86 61.66,-72.8"/>
<polygon fill="#63b8ff" stroke="#63b8ff" points="60.74,-76.18 71.26,-74.89 62.23,-69.34 60.74,-76.18"/>
</a>
</g>
</g>
<!-- Node3 -->
<g id="Node000003" class="node">
<title>Node3</title>
<g id="a_Node000003"><a xlink:href="classdata__structures_1_1_skip_list.html#a40a4042bdf0b6683b5f21ae7854de8a9" target="_top" xlink:title=" ">
<polygon fill="white" stroke="#666666" points="197.75,-54.88 73,-54.88 73,-24.38 197.75,-24.38 197.75,-54.88"/>
<text text-anchor="start" x="81" y="-41.38" font-family="Helvetica,sans-Serif" font-size="10.00">data_structures::SkipList</text>
<text text-anchor="middle" x="135.38" y="-30.12" font-family="Helvetica,sans-Serif" font-size="10.00">::insertElement</text>
</a>
</g>
</g>
<!-- Node1&#45;&gt;Node3 -->
<g id="edge2_Node000001_Node000003" class="edge">
<title>Node1&#45;&gt;Node3</title>
<g id="a_edge2_Node000001_Node000003"><a xlink:title=" ">
<path fill="none" stroke="#63b8ff" d="M37.45,-59.88C44.36,-58.43 52.74,-56.68 61.66,-54.82"/>
<polygon fill="#63b8ff" stroke="#63b8ff" points="62.18,-58.28 71.25,-52.81 60.75,-51.43 62.18,-58.28"/>
</a>
</g>
</g>
<!-- Node4 -->
<g id="Node000004" class="node">
<title>Node4</title>
<g id="a_Node000004"><a xlink:href="classdata__structures_1_1_skip_list.html#aa3f3813e9896792fc86b296547689ba4" target="_top" xlink:title=" ">
<polygon fill="white" stroke="#666666" points="358.5,-85.88 233.75,-85.88 233.75,-55.38 358.5,-55.38 358.5,-85.88"/>
<text text-anchor="start" x="241.75" y="-72.38" font-family="Helvetica,sans-Serif" font-size="10.00">data_structures::SkipList</text>
<text text-anchor="middle" x="296.12" y="-61.12" font-family="Helvetica,sans-Serif" font-size="10.00">::randomLevel</text>
</a>
</g>
</g>
<!-- Node3&#45;&gt;Node4 -->
<g id="edge3_Node000003_Node000004" class="edge">
<title>Node3&#45;&gt;Node4</title>
<g id="a_edge3_Node000003_Node000004"><a xlink:title=" ">
<path fill="none" stroke="#63b8ff" d="M198.21,-51.7C206.08,-53.24 214.19,-54.82 222.21,-56.39"/>
<polygon fill="#63b8ff" stroke="#63b8ff" points="221.49,-59.81 231.98,-58.29 222.83,-52.94 221.49,-59.81"/>
</a>
</g>
</g>
<!-- Node5 -->
<g id="Node000005" class="node">
<title>Node5</title>
<g id="a_Node000005"><a xlink:href="segtree_8cpp.html#abd3e818681fb2e29cf08f4f60f82c8e0" target="_top" xlink:title="Updates a range of the segment tree.">
<polygon fill="white" stroke="#666666" points="318.75,-19.25 273.5,-19.25 273.5,0 318.75,0 318.75,-19.25"/>
<text text-anchor="middle" x="296.12" y="-5.75" font-family="Helvetica,sans-Serif" font-size="10.00">update</text>
</a>
</g>
</g>
<!-- Node3&#45;&gt;Node5 -->
<g id="edge4_Node000003_Node000005" class="edge">
<title>Node3&#45;&gt;Node5</title>
<g id="a_edge4_Node000003_Node000005"><a xlink:title=" ">
<path fill="none" stroke="#63b8ff" d="M198.21,-27.94C220.02,-23.82 243.69,-19.34 262.18,-15.85"/>
<polygon fill="#63b8ff" stroke="#63b8ff" points="262.58,-19.34 271.75,-14.04 261.28,-12.46 262.58,-19.34"/>
</a>
</g>
</g>
<!-- Node5&#45;&gt;Node5 -->
<g id="edge5_Node000005_Node000005" class="edge">
<title>Node5&#45;&gt;Node5</title>
<g id="a_edge5_Node000005_Node000005"><a xlink:title=" ">
<path fill="none" stroke="#63b8ff" d="M273.06,-18.11C258.61,-27.11 266.3,-37.25 296.12,-37.25 316.16,-37.25 326.21,-32.67 326.27,-26.94"/>
<polygon fill="#63b8ff" stroke="#63b8ff" points="329.12,-24.91 320.14,-19.29 323.66,-29.28 329.12,-24.91"/>
</a>
</g>
</g>
</g>
</svg>
