<?xml version="1.0" encoding="UTF-8" standalone="no"?>
<!DOCTYPE svg PUBLIC "-//W3C//DTD SVG 1.1//EN"
 "http://www.w3.org/Graphics/SVG/1.1/DTD/svg11.dtd">
<!-- Generated by graphviz version 12.1.1 (20240910.0053)
 -->
<!-- Title: main Pages: 1 -->
<svg width="402pt" height="101pt"
 viewBox="0.00 0.00 401.50 101.25" xmlns="http://www.w3.org/2000/svg" xmlns:xlink="http://www.w3.org/1999/xlink">
<g id="graph0" class="graph" transform="scale(1 1) rotate(0) translate(4 97.25)">
<title>main</title>
<!-- Node1 -->
<g id="Node000001" class="node">
<title>Node1</title>
<g id="a_Node000001"><a xlink:title=" ">
<polygon fill="#999999" stroke="#666666" points="37,-56.25 0,-56.25 0,-37 37,-37 37,-56.25"/>
<text text-anchor="middle" x="18.5" y="-42.75" font-family="Helvetica,sans-Serif" font-size="10.00">main</text>
</a>
</g>
</g>
<!-- Node2 -->
<g id="Node000002" class="node">
<title>Node2</title>
<g id="a_Node000002"><a xlink:href="smallest__circle_8cpp.html#ae1a3968e7947464bee7714f6d43b7002" target="_top" xlink:title=" ">
<polygon fill="white" stroke="#666666" points="108.12,-93.25 75.62,-93.25 75.62,-74 108.12,-74 108.12,-93.25"/>
<text text-anchor="middle" x="91.88" y="-79.75" font-family="Helvetica,sans-Serif" font-size="10.00">test</text>
</a>
</g>
</g>
<!-- Node1&#45;&gt;Node2 -->
<g id="edge1_Node000001_Node000002" class="edge">
<title>Node1&#45;&gt;Node2</title>
<g id="a_edge1_Node000001_Node000002"><a xlink:title=" ">
<path fill="none" stroke="#63b8ff" d="M37.14,-55.77C45.66,-60.19 56.04,-65.57 65.4,-70.42"/>
<polygon fill="#63b8ff" stroke="#63b8ff" points="63.54,-73.4 74.03,-74.89 66.76,-67.18 63.54,-73.4"/>
</a>
</g>
</g>
<!-- Node7 -->
<g id="Node000007" class="node">
<title>Node7</title>
<g id="a_Node000007"><a xlink:href="smallest__circle_8cpp.html#a0283886819c7c140a023582b7269e2d0" target="_top" xlink:title=" ">
<polygon fill="white" stroke="#666666" points="110.75,-56.25 73,-56.25 73,-37 110.75,-37 110.75,-56.25"/>
<text text-anchor="middle" x="91.88" y="-42.75" font-family="Helvetica,sans-Serif" font-size="10.00">test2</text>
</a>
</g>
</g>
<!-- Node1&#45;&gt;Node7 -->
<g id="edge8_Node000001_Node000007" class="edge">
<title>Node1&#45;&gt;Node7</title>
<g id="a_edge8_Node000001_Node000007"><a xlink:title=" ">
<path fill="none" stroke="#63b8ff" d="M37.14,-46.62C44.55,-46.62 53.37,-46.62 61.69,-46.62"/>
<polygon fill="#63b8ff" stroke="#63b8ff" points="61.43,-50.13 71.43,-46.63 61.43,-43.13 61.43,-50.13"/>
</a>
</g>
</g>
<!-- Node8 -->
<g id="Node000008" class="node">
<title>Node8</title>
<g id="a_Node000008"><a xlink:href="smallest__circle_8cpp.html#a6d0455dd5c30adda100e95f0423c786e" target="_top" xlink:title=" ">
<polygon fill="white" stroke="#666666" points="110.75,-19.25 73,-19.25 73,0 110.75,0 110.75,-19.25"/>
<text text-anchor="middle" x="91.88" y="-5.75" font-family="Helvetica,sans-Serif" font-size="10.00">test3</text>
</a>
</g>
</g>
<!-- Node1&#45;&gt;Node8 -->
<g id="edge10_Node000001_Node000008" class="edge">
<title>Node1&#45;&gt;Node8</title>
<g id="a_edge10_Node000001_Node000008"><a xlink:title=" ">
<path fill="none" stroke="#63b8ff" d="M37.14,-37.48C44.89,-33.46 54.18,-28.65 62.84,-24.16"/>
<polygon fill="#63b8ff" stroke="#63b8ff" points="64.33,-27.33 71.6,-19.62 61.11,-21.11 64.33,-27.33"/>
</a>
</g>
</g>
<!-- Node3 -->
<g id="Node000003" class="node">
<title>Node3</title>
<g id="a_Node000003"><a xlink:href="smallest__circle_8cpp.html#a0b0676df8e4da7a08c7ccaecea344903" target="_top" xlink:title=" ">
<polygon fill="white" stroke="#666666" points="186,-56.25 146.75,-56.25 146.75,-37 186,-37 186,-56.25"/>
<text text-anchor="middle" x="166.38" y="-42.75" font-family="Helvetica,sans-Serif" font-size="10.00">circle</text>
</a>
</g>
</g>
<!-- Node2&#45;&gt;Node3 -->
<g id="edge2_Node000002_Node000003" class="edge">
<title>Node2&#45;&gt;Node3</title>
<g id="a_edge2_Node000002_Node000003"><a xlink:title=" ">
<path fill="none" stroke="#63b8ff" d="M108.61,-75.6C116.66,-71.49 126.72,-66.35 136.12,-61.55"/>
<polygon fill="#63b8ff" stroke="#63b8ff" points="137.66,-64.7 144.98,-57.04 134.48,-58.46 137.66,-64.7"/>
</a>
</g>
</g>
<!-- Node4 -->
<g id="Node000004" class="node">
<title>Node4</title>
<g id="a_Node000004"><a xlink:href="smallest__circle_8cpp.html#a3cbebd6f4d2cdf227663c67fe41ba12a" target="_top" xlink:title=" ">
<polygon fill="white" stroke="#666666" points="393.5,-56.25 330.25,-56.25 330.25,-37 393.5,-37 393.5,-56.25"/>
<text text-anchor="middle" x="361.88" y="-42.75" font-family="Helvetica,sans-Serif" font-size="10.00">LenghtLine</text>
</a>
</g>
</g>
<!-- Node3&#45;&gt;Node4 -->
<g id="edge3_Node000003_Node000004" class="edge">
<title>Node3&#45;&gt;Node4</title>
<g id="a_edge3_Node000003_Node000004"><a xlink:title=" ">
<path fill="none" stroke="#63b8ff" d="M186.43,-55.02C196.74,-59.1 209.82,-63.57 222,-65.62 253.66,-70.97 262.45,-70.07 294.25,-65.62 303.13,-64.38 312.48,-62.25 321.29,-59.86"/>
<polygon fill="#63b8ff" stroke="#63b8ff" points="321.98,-63.3 330.61,-57.15 320.03,-56.58 321.98,-63.3"/>
</a>
</g>
</g>
<!-- Node5 -->
<g id="Node000005" class="node">
<title>Node5</title>
<g id="a_Node000005"><a xlink:href="smallest__circle_8cpp.html#aee6d48762c1dfb9f14627927f0c16fad" target="_top" xlink:title=" ">
<polygon fill="white" stroke="#666666" points="294.25,-56.25 222,-56.25 222,-37 294.25,-37 294.25,-56.25"/>
<text text-anchor="middle" x="258.12" y="-42.75" font-family="Helvetica,sans-Serif" font-size="10.00">PointInCircle</text>
</a>
</g>
</g>
<!-- Node3&#45;&gt;Node5 -->
<g id="edge4_Node000003_Node000005" class="edge">
<title>Node3&#45;&gt;Node5</title>
<g id="a_edge4_Node000003_Node000005"><a xlink:title=" ">
<path fill="none" stroke="#63b8ff" d="M186.41,-46.62C193.48,-46.62 201.86,-46.62 210.33,-46.62"/>
<polygon fill="#63b8ff" stroke="#63b8ff" points="210.3,-50.13 220.3,-46.63 210.3,-43.13 210.3,-50.13"/>
</a>
</g>
</g>
<!-- Node6 -->
<g id="Node000006" class="node">
<title>Node6</title>
<g id="a_Node000006"><a xlink:href="smallest__circle_8cpp.html#a94682a4a70d5906857ca09de5b9fb2cc" target="_top" xlink:title=" ">
<polygon fill="white" stroke="#666666" points="293.5,-19.25 222.75,-19.25 222.75,0 293.5,0 293.5,-19.25"/>
<text text-anchor="middle" x="258.12" y="-5.75" font-family="Helvetica,sans-Serif" font-size="10.00">TriangleArea</text>
</a>
</g>
</g>
<!-- Node3&#45;&gt;Node6 -->
<g id="edge6_Node000003_Node000006" class="edge">
<title>Node3&#45;&gt;Node6</title>
<g id="a_edge6_Node000003_Node000006"><a xlink:title=" ">
<path fill="none" stroke="#63b8ff" d="M186.41,-38.78C196.84,-34.48 210.09,-29.02 222.29,-23.99"/>
<polygon fill="#63b8ff" stroke="#63b8ff" points="223.34,-27.34 231.25,-20.29 220.67,-20.87 223.34,-27.34"/>
</a>
</g>
</g>
<!-- Node5&#45;&gt;Node4 -->
<g id="edge5_Node000005_Node000004" class="edge">
<title>Node5&#45;&gt;Node4</title>
<g id="a_edge5_Node000005_Node000004"><a xlink:title=" ">
<path fill="none" stroke="#63b8ff" d="M294.71,-46.62C302.41,-46.62 310.63,-46.62 318.56,-46.62"/>
<polygon fill="#63b8ff" stroke="#63b8ff" points="318.37,-50.13 328.37,-46.63 318.37,-43.13 318.37,-50.13"/>
</a>
</g>
</g>
<!-- Node6&#45;&gt;Node4 -->
<g id="edge7_Node000006_Node000004" class="edge">
<title>Node6&#45;&gt;Node4</title>
<g id="a_edge7_Node000006_Node000004"><a xlink:title=" ">
<path fill="none" stroke="#63b8ff" d="M286.93,-19.74C297.92,-23.73 310.74,-28.39 322.58,-32.7"/>
<polygon fill="#63b8ff" stroke="#63b8ff" points="321.09,-35.88 331.68,-36.01 323.48,-29.3 321.09,-35.88"/>
</a>
</g>
</g>
<!-- Node7&#45;&gt;Node3 -->
<g id="edge9_Node000007_Node000003" class="edge">
<title>Node7&#45;&gt;Node3</title>
<g id="a_edge9_Node000007_Node000003"><a xlink:title=" ">
<path fill="none" stroke="#63b8ff" d="M111.17,-46.62C118.38,-46.62 126.87,-46.62 134.96,-46.62"/>
<polygon fill="#63b8ff" stroke="#63b8ff" points="134.81,-50.13 144.81,-46.63 134.81,-43.13 134.81,-50.13"/>
</a>
</g>
</g>
<!-- Node8&#45;&gt;Node3 -->
<g id="edge11_Node000008_Node000003" class="edge">
<title>Node8&#45;&gt;Node3</title>
<g id="a_edge11_Node000008_Node000003"><a xlink:title=" ">
<path fill="none" stroke="#63b8ff" d="M111.17,-18.96C118.72,-22.82 127.66,-27.38 136.08,-31.68"/>
<polygon fill="#63b8ff" stroke="#63b8ff" points="134.48,-34.79 144.98,-36.22 137.66,-28.55 134.48,-34.79"/>
</a>
</g>
</g>
</g>
</svg>
