<?xml version="1.0" encoding="UTF-8" standalone="no"?>
<!DOCTYPE svg PUBLIC "-//W3C//DTD SVG 1.1//EN"
 "http://www.w3.org/Graphics/SVG/1.1/DTD/svg11.dtd">
<!-- Generated by graphviz version 12.1.1 (20240910.0053)
 -->
<!-- Title: test2 Pages: 1 -->
<svg width="329pt" height="77pt"
 viewBox="0.00 0.00 328.50 77.41" xmlns="http://www.w3.org/2000/svg" xmlns:xlink="http://www.w3.org/1999/xlink">
<g id="graph0" class="graph" transform="scale(1 1) rotate(0) translate(4 73.41)">
<title>test2</title>
<!-- Node1 -->
<g id="Node000001" class="node">
<title>Node1</title>
<g id="a_Node000001"><a xlink:title=" ">
<polygon fill="#999999" stroke="#666666" points="37.75,-56.25 0,-56.25 0,-37 37.75,-37 37.75,-56.25"/>
<text text-anchor="middle" x="18.88" y="-42.75" font-family="Helvetica,sans-Serif" font-size="10.00">test2</text>
</a>
</g>
</g>
<!-- Node2 -->
<g id="Node000002" class="node">
<title>Node2</title>
<g id="a_Node000002"><a xlink:href="smallest__circle_8cpp.html#a0b0676df8e4da7a08c7ccaecea344903" target="_top" xlink:title=" ">
<polygon fill="white" stroke="#666666" points="113,-56.25 73.75,-56.25 73.75,-37 113,-37 113,-56.25"/>
<text text-anchor="middle" x="93.38" y="-42.75" font-family="Helvetica,sans-Serif" font-size="10.00">circle</text>
</a>
</g>
</g>
<!-- Node1&#45;&gt;Node2 -->
<g id="edge1_Node000001_Node000002" class="edge">
<title>Node1&#45;&gt;Node2</title>
<g id="a_edge1_Node000001_Node000002"><a xlink:title=" ">
<path fill="none" stroke="#63b8ff" d="M38.17,-46.62C45.38,-46.62 53.87,-46.62 61.96,-46.62"/>
<polygon fill="#63b8ff" stroke="#63b8ff" points="61.81,-50.13 71.81,-46.63 61.81,-43.13 61.81,-50.13"/>
</a>
</g>
</g>
<!-- Node3 -->
<g id="Node000003" class="node">
<title>Node3</title>
<g id="a_Node000003"><a xlink:href="smallest__circle_8cpp.html#a3cbebd6f4d2cdf227663c67fe41ba12a" target="_top" xlink:title=" ">
<polygon fill="white" stroke="#666666" points="320.5,-56.25 257.25,-56.25 257.25,-37 320.5,-37 320.5,-56.25"/>
<text text-anchor="middle" x="288.88" y="-42.75" font-family="Helvetica,sans-Serif" font-size="10.00">LenghtLine</text>
</a>
</g>
</g>
<!-- Node2&#45;&gt;Node3 -->
<g id="edge2_Node000002_Node000003" class="edge">
<title>Node2&#45;&gt;Node3</title>
<g id="a_edge2_Node000002_Node000003"><a xlink:title=" ">
<path fill="none" stroke="#63b8ff" d="M113.43,-55.02C123.74,-59.1 136.82,-63.57 149,-65.62 180.66,-70.97 189.45,-70.07 221.25,-65.62 230.13,-64.38 239.48,-62.25 248.29,-59.86"/>
<polygon fill="#63b8ff" stroke="#63b8ff" points="248.98,-63.3 257.61,-57.15 247.03,-56.58 248.98,-63.3"/>
</a>
</g>
</g>
<!-- Node4 -->
<g id="Node000004" class="node">
<title>Node4</title>
<g id="a_Node000004"><a xlink:href="smallest__circle_8cpp.html#aee6d48762c1dfb9f14627927f0c16fad" target="_top" xlink:title=" ">
<polygon fill="white" stroke="#666666" points="221.25,-56.25 149,-56.25 149,-37 221.25,-37 221.25,-56.25"/>
<text text-anchor="middle" x="185.12" y="-42.75" font-family="Helvetica,sans-Serif" font-size="10.00">PointInCircle</text>
</a>
</g>
</g>
<!-- Node2&#45;&gt;Node4 -->
<g id="edge3_Node000002_Node000004" class="edge">
<title>Node2&#45;&gt;Node4</title>
<g id="a_edge3_Node000002_Node000004"><a xlink:title=" ">
<path fill="none" stroke="#63b8ff" d="M113.41,-46.62C120.48,-46.62 128.86,-46.62 137.33,-46.62"/>
<polygon fill="#63b8ff" stroke="#63b8ff" points="137.3,-50.13 147.3,-46.63 137.3,-43.13 137.3,-50.13"/>
</a>
</g>
</g>
<!-- Node5 -->
<g id="Node000005" class="node">
<title>Node5</title>
<g id="a_Node000005"><a xlink:href="smallest__circle_8cpp.html#a94682a4a70d5906857ca09de5b9fb2cc" target="_top" xlink:title=" ">
<polygon fill="white" stroke="#666666" points="220.5,-19.25 149.75,-19.25 149.75,0 220.5,0 220.5,-19.25"/>
<text text-anchor="middle" x="185.12" y="-5.75" font-family="Helvetica,sans-Serif" font-size="10.00">TriangleArea</text>
</a>
</g>
</g>
<!-- Node2&#45;&gt;Node5 -->
<g id="edge5_Node000002_Node000005" class="edge">
<title>Node2&#45;&gt;Node5</title>
<g id="a_edge5_Node000002_Node000005"><a xlink:title=" ">
<path fill="none" stroke="#63b8ff" d="M113.41,-38.78C123.84,-34.48 137.09,-29.02 149.29,-23.99"/>
<polygon fill="#63b8ff" stroke="#63b8ff" points="150.34,-27.34 158.25,-20.29 147.67,-20.87 150.34,-27.34"/>
</a>
</g>
</g>
<!-- Node4&#45;&gt;Node3 -->
<g id="edge4_Node000004_Node000003" class="edge">
<title>Node4&#45;&gt;Node3</title>
<g id="a_edge4_Node000004_Node000003"><a xlink:title=" ">
<path fill="none" stroke="#63b8ff" d="M221.71,-46.62C229.41,-46.62 237.63,-46.62 245.56,-46.62"/>
<polygon fill="#63b8ff" stroke="#63b8ff" points="245.37,-50.13 255.37,-46.63 245.37,-43.13 245.37,-50.13"/>
</a>
</g>
</g>
<!-- Node5&#45;&gt;Node3 -->
<g id="edge6_Node000005_Node000003" class="edge">
<title>Node5&#45;&gt;Node3</title>
<g id="a_edge6_Node000005_Node000003"><a xlink:title=" ">
<path fill="none" stroke="#63b8ff" d="M213.93,-19.74C224.92,-23.73 237.74,-28.39 249.58,-32.7"/>
<polygon fill="#63b8ff" stroke="#63b8ff" points="248.09,-35.88 258.68,-36.01 250.48,-29.3 248.09,-35.88"/>
</a>
</g>
</g>
</g>
</svg>
