<?xml version="1.0" encoding="UTF-8" standalone="no"?>
<!DOCTYPE svg PUBLIC "-//W3C//DTD SVG 1.1//EN"
 "http://www.w3.org/Graphics/SVG/1.1/DTD/svg11.dtd">
<!-- Generated by graphviz version 12.1.1 (20240910.0053)
 -->
<!-- Title: circle Pages: 1 -->
<svg width="255pt" height="77pt"
 viewBox="0.00 0.00 254.75 77.41" xmlns="http://www.w3.org/2000/svg" xmlns:xlink="http://www.w3.org/1999/xlink">

<svg id="main" version="1.1" xmlns="http://www.w3.org/2000/svg" xmlns:xlink="http://www.w3.org/1999/xlink" xml:space="preserve">

<style type="text/css"><![CDATA[
.node, .edge {opacity: 0.7;}
.node.selected, .edge.selected {opacity: 1;}
.edge:hover path { stroke: red; }
.edge:hover polygon { stroke: red; fill: red; }
]]></style>
<script type="application/ecmascript" xlink:href="svg.min.js"/>
<svg id="graph" class="graph">
<g id="graph0" class="graph" transform="scale(1 1) rotate(0) translate(4 73.41)">
<title>circle</title>
<!-- Node1 -->
<g id="Node000001" class="node">
<title>Node1</title>
<g id="a_Node000001"><a xlink:title=" ">
<polygon fill="#999999" stroke="#666666" points="39.25,-56.25 0,-56.25 0,-37 39.25,-37 39.25,-56.25"/>
<text text-anchor="middle" x="19.62" y="-42.75" font-family="Helvetica,sans-Serif" font-size="10.00">circle</text>
</a>
</g>
</g>
<!-- Node2 -->
<g id="Node000002" class="node">
<title>Node2</title>
<g id="a_Node000002"><a xlink:href="smallest__circle_8cpp.html#a3cbebd6f4d2cdf227663c67fe41ba12a" target="_top" xlink:title=" ">
<polygon fill="white" stroke="#666666" points="246.75,-56.25 183.5,-56.25 183.5,-37 246.75,-37 246.75,-56.25"/>
<text text-anchor="middle" x="215.12" y="-42.75" font-family="Helvetica,sans-Serif" font-size="10.00">LenghtLine</text>
</a>
</g>
</g>
<!-- Node1&#45;&gt;Node2 -->
<g id="edge1_Node000001_Node000002" class="edge">
<title>Node1&#45;&gt;Node2</title>
<g id="a_edge1_Node000001_Node000002"><a xlink:title=" ">
<path fill="none" stroke="#63b8ff" d="M39.68,-55.02C49.99,-59.1 63.07,-63.57 75.25,-65.62 106.91,-70.97 115.7,-70.07 147.5,-65.62 156.38,-64.38 165.73,-62.25 174.54,-59.86"/>
<polygon fill="#63b8ff" stroke="#63b8ff" points="175.23,-63.3 183.86,-57.15 173.28,-56.58 175.23,-63.3"/>
</a>
</g>
</g>
<!-- Node3 -->
<g id="Node000003" class="node">
<title>Node3</title>
<g id="a_Node000003"><a xlink:href="smallest__circle_8cpp.html#aee6d48762c1dfb9f14627927f0c16fad" target="_top" xlink:title=" ">
<polygon fill="white" stroke="#666666" points="147.5,-56.25 75.25,-56.25 75.25,-37 147.5,-37 147.5,-56.25"/>
<text text-anchor="middle" x="111.38" y="-42.75" font-family="Helvetica,sans-Serif" font-size="10.00">PointInCircle</text>
</a>
</g>
</g>
<!-- Node1&#45;&gt;Node3 -->
<g id="edge2_Node000001_Node000003" class="edge">
<title>Node1&#45;&gt;Node3</title>
<g id="a_edge2_Node000001_Node000003"><a xlink:title=" ">
<path fill="none" stroke="#63b8ff" d="M39.66,-46.62C46.73,-46.62 55.11,-46.62 63.58,-46.62"/>
<polygon fill="#63b8ff" stroke="#63b8ff" points="63.55,-50.13 73.55,-46.63 63.55,-43.13 63.55,-50.13"/>
</a>
</g>
</g>
<!-- Node4 -->
<g id="Node000004" class="node">
<title>Node4</title>
<g id="a_Node000004"><a xlink:href="smallest__circle_8cpp.html#a94682a4a70d5906857ca09de5b9fb2cc" target="_top" xlink:title=" ">
<polygon fill="white" stroke="#666666" points="146.75,-19.25 76,-19.25 76,0 146.75,0 146.75,-19.25"/>
<text text-anchor="middle" x="111.38" y="-5.75" font-family="Helvetica,sans-Serif" font-size="10.00">TriangleArea</text>
</a>
</g>
</g>
<!-- Node1&#45;&gt;Node4 -->
<g id="edge4_Node000001_Node000004" class="edge">
<title>Node1&#45;&gt;Node4</title>
<g id="a_edge4_Node000001_Node000004"><a xlink:title=" ">
<path fill="none" stroke="#63b8ff" d="M39.66,-38.78C50.09,-34.48 63.34,-29.02 75.54,-23.99"/>
<polygon fill="#63b8ff" stroke="#63b8ff" points="76.59,-27.34 84.5,-20.29 73.92,-20.87 76.59,-27.34"/>
</a>
</g>
</g>
<!-- Node3&#45;&gt;Node2 -->
<g id="edge3_Node000003_Node000002" class="edge">
<title>Node3&#45;&gt;Node2</title>
<g id="a_edge3_Node000003_Node000002"><a xlink:title=" ">
<path fill="none" stroke="#63b8ff" d="M147.96,-46.62C155.66,-46.62 163.88,-46.62 171.81,-46.62"/>
<polygon fill="#63b8ff" stroke="#63b8ff" points="171.62,-50.13 181.62,-46.63 171.62,-43.13 171.62,-50.13"/>
</a>
</g>
</g>
<!-- Node4&#45;&gt;Node2 -->
<g id="edge5_Node000004_Node000002" class="edge">
<title>Node4&#45;&gt;Node2</title>
<g id="a_edge5_Node000004_Node000002"><a xlink:title=" ">
<path fill="none" stroke="#63b8ff" d="M140.18,-19.74C151.17,-23.73 163.99,-28.39 175.83,-32.7"/>
<polygon fill="#63b8ff" stroke="#63b8ff" points="174.34,-35.88 184.93,-36.01 176.73,-29.3 174.34,-35.88"/>
</a>
</g>
</g>
</g>
</svg>
</svg>

<style type='text/css'>
<![CDATA[
[data-mouse-over-selected='false'] { opacity: 0.7; }
[data-mouse-over-selected='true']  { opacity: 1.0; }
]]>
</style>
<script type="application/ecmascript"><![CDATA[
document.addEventListener('DOMContentLoaded', (event) => {
  highlightEdges();
  highlightAdjacentNodes();
});
]]></script>
</svg>
