<?xml version="1.0" encoding="UTF-8" standalone="no"?>
<!DOCTYPE svg PUBLIC "-//W3C//DTD SVG 1.1//EN"
 "http://www.w3.org/Graphics/SVG/1.1/DTD/svg11.dtd">
<!-- Generated by graphviz version 12.1.1 (20240910.0053)
 -->
<!-- Title: main Pages: 1 -->
<svg width="218pt" height="101pt"
 viewBox="0.00 0.00 218.00 101.25" xmlns="http://www.w3.org/2000/svg" xmlns:xlink="http://www.w3.org/1999/xlink">
<g id="graph0" class="graph" transform="scale(1 1) rotate(0) translate(4 97.25)">
<title>main</title>
<!-- Node1 -->
<g id="Node000001" class="node">
<title>Node1</title>
<g id="a_Node000001"><a xlink:title="Main function.">
<polygon fill="#999999" stroke="#666666" points="37,-56.25 0,-56.25 0,-37 37,-37 37,-56.25"/>
<text text-anchor="middle" x="18.5" y="-42.75" font-family="Helvetica,sans-Serif" font-size="10.00">main</text>
</a>
</g>
</g>
<!-- Node2 -->
<g id="Node000002" class="node">
<title>Node2</title>
<g id="a_Node000002"><a xlink:href="stooge__sort_8cpp.html#a1440a7779ac56f47a3f355ce4a8c7da0" target="_top" xlink:title="Function to test sorting algorithm.">
<polygon fill="white" stroke="#666666" points="110.75,-93.25 73,-93.25 73,-74 110.75,-74 110.75,-93.25"/>
<text text-anchor="middle" x="91.88" y="-79.75" font-family="Helvetica,sans-Serif" font-size="10.00">test1</text>
</a>
</g>
</g>
<!-- Node1&#45;&gt;Node2 -->
<g id="edge1_Node000001_Node000002" class="edge">
<title>Node1&#45;&gt;Node2</title>
<g id="a_edge1_Node000001_Node000002"><a xlink:title=" ">
<path fill="none" stroke="#63b8ff" d="M37.14,-55.77C44.89,-59.79 54.18,-64.6 62.84,-69.09"/>
<polygon fill="#63b8ff" stroke="#63b8ff" points="61.11,-72.14 71.6,-73.63 64.33,-65.92 61.11,-72.14"/>
</a>
</g>
</g>
<!-- Node4 -->
<g id="Node000004" class="node">
<title>Node4</title>
<g id="a_Node000004"><a xlink:href="stooge__sort_8cpp.html#a0283886819c7c140a023582b7269e2d0" target="_top" xlink:title="Function to test sorting algorithm, one element.">
<polygon fill="white" stroke="#666666" points="110.75,-56.25 73,-56.25 73,-37 110.75,-37 110.75,-56.25"/>
<text text-anchor="middle" x="91.88" y="-42.75" font-family="Helvetica,sans-Serif" font-size="10.00">test2</text>
</a>
</g>
</g>
<!-- Node1&#45;&gt;Node4 -->
<g id="edge4_Node000001_Node000004" class="edge">
<title>Node1&#45;&gt;Node4</title>
<g id="a_edge4_Node000001_Node000004"><a xlink:title=" ">
<path fill="none" stroke="#63b8ff" d="M37.14,-46.62C44.55,-46.62 53.37,-46.62 61.69,-46.62"/>
<polygon fill="#63b8ff" stroke="#63b8ff" points="61.43,-50.13 71.43,-46.63 61.43,-43.13 61.43,-50.13"/>
</a>
</g>
</g>
<!-- Node5 -->
<g id="Node000005" class="node">
<title>Node5</title>
<g id="a_Node000005"><a xlink:href="stooge__sort_8cpp.html#a6d0455dd5c30adda100e95f0423c786e" target="_top" xlink:title="Function to test sorting algorithm, repeating elements.">
<polygon fill="white" stroke="#666666" points="110.75,-19.25 73,-19.25 73,0 110.75,0 110.75,-19.25"/>
<text text-anchor="middle" x="91.88" y="-5.75" font-family="Helvetica,sans-Serif" font-size="10.00">test3</text>
</a>
</g>
</g>
<!-- Node1&#45;&gt;Node5 -->
<g id="edge6_Node000001_Node000005" class="edge">
<title>Node1&#45;&gt;Node5</title>
<g id="a_edge6_Node000001_Node000005"><a xlink:title=" ">
<path fill="none" stroke="#63b8ff" d="M37.14,-37.48C44.89,-33.46 54.18,-28.65 62.84,-24.16"/>
<polygon fill="#63b8ff" stroke="#63b8ff" points="64.33,-27.33 71.6,-19.62 61.11,-21.11 64.33,-27.33"/>
</a>
</g>
</g>
<!-- Node3 -->
<g id="Node000003" class="node">
<title>Node3</title>
<g id="a_Node000003"><a xlink:href="stooge__sort_8cpp.html#ac23852832437dc68327efe9b1da2d91b" target="_top" xlink:title="for IO operations">
<polygon fill="white" stroke="#666666" points="210,-56.25 146.75,-56.25 146.75,-37 210,-37 210,-56.25"/>
<text text-anchor="middle" x="178.38" y="-42.75" font-family="Helvetica,sans-Serif" font-size="10.00">stoogeSort</text>
</a>
</g>
</g>
<!-- Node2&#45;&gt;Node3 -->
<g id="edge2_Node000002_Node000003" class="edge">
<title>Node2&#45;&gt;Node3</title>
<g id="a_edge2_Node000002_Node000003"><a xlink:title=" ">
<path fill="none" stroke="#63b8ff" d="M111.21,-75.6C120.85,-71.38 132.96,-66.07 144.18,-61.16"/>
<polygon fill="#63b8ff" stroke="#63b8ff" points="145.41,-64.44 153.17,-57.23 142.6,-58.03 145.41,-64.44"/>
</a>
</g>
</g>
<!-- Node3&#45;&gt;Node3 -->
<g id="edge3_Node000003_Node000003" class="edge">
<title>Node3&#45;&gt;Node3</title>
<g id="a_edge3_Node000003_Node000003"><a xlink:title=" ">
<path fill="none" stroke="#63b8ff" d="M164.83,-56.54C158.66,-65.15 163.17,-74.25 178.38,-74.25 186.69,-74.25 191.81,-71.53 193.73,-67.65"/>
<polygon fill="#63b8ff" stroke="#63b8ff" points="197.22,-67.34 192.16,-58.03 190.32,-68.46 197.22,-67.34"/>
</a>
</g>
</g>
<!-- Node4&#45;&gt;Node3 -->
<g id="edge5_Node000004_Node000003" class="edge">
<title>Node4&#45;&gt;Node3</title>
<g id="a_edge5_Node000004_Node000003"><a xlink:title=" ">
<path fill="none" stroke="#63b8ff" d="M111.21,-46.62C118.28,-46.62 126.69,-46.62 135.1,-46.62"/>
<polygon fill="#63b8ff" stroke="#63b8ff" points="134.93,-50.13 144.93,-46.63 134.93,-43.13 134.93,-50.13"/>
</a>
</g>
</g>
<!-- Node5&#45;&gt;Node3 -->
<g id="edge7_Node000005_Node000003" class="edge">
<title>Node5&#45;&gt;Node3</title>
<g id="a_edge7_Node000005_Node000003"><a xlink:title=" ">
<path fill="none" stroke="#63b8ff" d="M111.21,-17.65C120.85,-21.87 132.96,-27.18 144.18,-32.09"/>
<polygon fill="#63b8ff" stroke="#63b8ff" points="142.6,-35.22 153.17,-36.02 145.41,-28.81 142.6,-35.22"/>
</a>
</g>
</g>
</g>
</svg>
