<?xml version="1.0" encoding="UTF-8" standalone="no"?>
<!DOCTYPE svg PUBLIC "-//W3C//DTD SVG 1.1//EN"
 "http://www.w3.org/Graphics/SVG/1.1/DTD/svg11.dtd">
<!-- Generated by graphviz version 12.1.1 (20240910.0053)
 -->
<!-- Title: Queue Pages: 1 -->
<svg width="94pt" height="142pt"
 viewBox="0.00 0.00 93.75 142.00" xmlns="http://www.w3.org/2000/svg" xmlns:xlink="http://www.w3.org/1999/xlink">
<g id="graph0" class="graph" transform="scale(1 1) rotate(0) translate(4 138)">
<title>Queue</title>
<!-- Node1 -->
<g id="Node000001" class="node">
<title>Node1</title>
<g id="a_Node000001"><a xlink:title=" ">
<polygon fill="#999999" stroke="#666666" points="44.5,-19.25 0,-19.25 0,0 44.5,0 44.5,-19.25"/>
<text text-anchor="middle" x="22.25" y="-5.75" font-family="Helvetica,sans-Serif" font-size="10.00">Queue</text>
</a>
</g>
</g>
<!-- Node2 -->
<g id="Node000002" class="node">
<title>Node2</title>
<g id="a_Node000002"><a xlink:href="structnode.html" target="_top" xlink:title=" ">
<polygon fill="white" stroke="#bfbfbf" points="40.75,-109.88 3.75,-109.88 3.75,-90.62 40.75,-90.62 40.75,-109.88"/>
<text text-anchor="middle" x="22.25" y="-96.38" font-family="Helvetica,sans-Serif" font-size="10.00">node</text>
</a>
</g>
</g>
<!-- Node2&#45;&gt;Node1 -->
<g id="edge1_Node000001_Node000002" class="edge">
<title>Node2&#45;&gt;Node1</title>
<g id="a_edge1_Node000001_Node000002"><a xlink:title=" ">
<path fill="none" stroke="#9a32cd" stroke-dasharray="5,2" d="M22.25,-79.09C22.25,-60.43 22.25,-33.55 22.25,-19.67"/>
<polygon fill="#9a32cd" stroke="#9a32cd" points="18.75,-78.91 22.25,-88.91 25.75,-78.91 18.75,-78.91"/>
</a>
</g>
<text text-anchor="middle" x="25.25" y="-39" font-family="Helvetica,sans-Serif" font-size="10.00" fill="grey"> t</text>
</g>
<!-- Node2&#45;&gt;Node2 -->
<g id="edge2_Node000002_Node000002" class="edge">
<title>Node2&#45;&gt;Node2</title>
<g id="a_edge2_Node000002_Node000002"><a xlink:title=" ">
<path fill="none" stroke="#9a32cd" stroke-dasharray="5,2" d="M50.56,-110.29C55.4,-108.92 58.75,-105.57 58.75,-100.25 58.75,-91.29 49.24,-87.92 39.15,-90.16"/>
<polygon fill="#9a32cd" stroke="#9a32cd" points="50.65,-106.79 40.66,-110.33 50.67,-113.79 50.65,-106.79"/>
</a>
</g>
<text text-anchor="middle" x="72.25" y="-124.5" font-family="Helvetica,sans-Serif" font-size="10.00" fill="grey"> left</text>
<text text-anchor="middle" x="72.25" y="-113.25" font-family="Helvetica,sans-Serif" font-size="10.00" fill="grey">link</text>
<text text-anchor="middle" x="72.25" y="-102" font-family="Helvetica,sans-Serif" font-size="10.00" fill="grey">next</text>
<text text-anchor="middle" x="72.25" y="-90.75" font-family="Helvetica,sans-Serif" font-size="10.00" fill="grey">parent</text>
<text text-anchor="middle" x="72.25" y="-79.5" font-family="Helvetica,sans-Serif" font-size="10.00" fill="grey">prev</text>
<text text-anchor="middle" x="72.25" y="-68.25" font-family="Helvetica,sans-Serif" font-size="10.00" fill="grey">right</text>
</g>
</g>
</svg>
