<?xml version="1.0" encoding="UTF-8" standalone="no"?>
<!DOCTYPE svg PUBLIC "-//W3C//DTD SVG 1.1//EN"
 "http://www.w3.org/Graphics/SVG/1.1/DTD/svg11.dtd">
<!-- Generated by graphviz version 12.1.1 (20240910.0053)
 -->
<!-- Title: ternary_search Pages: 1 -->
<svg width="224pt" height="82pt"
 viewBox="0.00 0.00 223.75 82.25" xmlns="http://www.w3.org/2000/svg" xmlns:xlink="http://www.w3.org/1999/xlink">

<svg id="main" version="1.1" xmlns="http://www.w3.org/2000/svg" xmlns:xlink="http://www.w3.org/1999/xlink" xml:space="preserve">

<style type="text/css"><![CDATA[
.node, .edge {opacity: 0.7;}
.node.selected, .edge.selected {opacity: 1;}
.edge:hover path { stroke: red; }
.edge:hover polygon { stroke: red; fill: red; }
]]></style>
<script type="application/ecmascript" xlink:href="svg.min.js"/>
<svg id="graph" class="graph">
<g id="graph0" class="graph" transform="scale(1 1) rotate(0) translate(4 78.25)">
<title>ternary_search</title>
<!-- Node1 -->
<g id="Node000001" class="node">
<title>Node1</title>
<g id="a_Node000001"><a xlink:title=" ">
<polygon fill="#999999" stroke="#666666" points="80.5,-46.25 0,-46.25 0,-27 80.5,-27 80.5,-46.25"/>
<text text-anchor="middle" x="40.25" y="-32.75" font-family="Helvetica,sans-Serif" font-size="10.00">ternary_search</text>
</a>
</g>
</g>
<!-- Node2 -->
<g id="Node000002" class="node">
<title>Node2</title>
<g id="a_Node000002"><a xlink:href="ternary__search_8cpp.html#ae30dfe2894191bfeffe5b3b1854b95b0" target="_top" xlink:title=" ">
<polygon fill="white" stroke="#666666" points="211.62,-74.25 120.62,-74.25 120.62,-55 211.62,-55 211.62,-74.25"/>
<text text-anchor="middle" x="166.12" y="-60.75" font-family="Helvetica,sans-Serif" font-size="10.00">it_ternary_search</text>
</a>
</g>
</g>
<!-- Node1&#45;&gt;Node2 -->
<g id="edge1_Node000001_Node000002" class="edge">
<title>Node1&#45;&gt;Node2</title>
<g id="a_edge1_Node000001_Node000002"><a xlink:title=" ">
<path fill="none" stroke="#63b8ff" d="M80.79,-45.56C89.84,-47.61 99.64,-49.82 109.24,-51.99"/>
<polygon fill="#63b8ff" stroke="#63b8ff" points="108.37,-55.38 118.89,-54.17 109.91,-48.56 108.37,-55.38"/>
</a>
</g>
</g>
<!-- Node3 -->
<g id="Node000003" class="node">
<title>Node3</title>
<g id="a_Node000003"><a xlink:href="ternary__search_8cpp.html#a93d0099db95022f1eb90ddfd68f73ead" target="_top" xlink:title=" ">
<polygon fill="white" stroke="#666666" points="215.75,-19.25 116.5,-19.25 116.5,0 215.75,0 215.75,-19.25"/>
<text text-anchor="middle" x="166.12" y="-5.75" font-family="Helvetica,sans-Serif" font-size="10.00">rec_ternary_search</text>
</a>
</g>
</g>
<!-- Node1&#45;&gt;Node3 -->
<g id="edge2_Node000001_Node000003" class="edge">
<title>Node1&#45;&gt;Node3</title>
<g id="a_edge2_Node000001_Node000003"><a xlink:title=" ">
<path fill="none" stroke="#63b8ff" d="M80.79,-28.01C89.44,-26.12 98.78,-24.09 107.97,-22.08"/>
<polygon fill="#63b8ff" stroke="#63b8ff" points="108.55,-25.54 117.58,-19.99 107.06,-18.7 108.55,-25.54"/>
</a>
</g>
</g>
<!-- Node3&#45;&gt;Node3 -->
<g id="edge3_Node000003_Node000003" class="edge">
<title>Node3&#45;&gt;Node3</title>
<g id="a_edge3_Node000003_Node000003"><a xlink:title=" ">
<path fill="none" stroke="#63b8ff" d="M146.42,-19.54C137.43,-28.15 144,-37.25 166.12,-37.25 178.23,-37.25 185.67,-34.53 188.47,-30.65"/>
<polygon fill="#63b8ff" stroke="#63b8ff" points="191.89,-29.93 186.18,-21.01 185.08,-31.55 191.89,-29.93"/>
</a>
</g>
</g>
</g>
</svg>
</svg>

<style type='text/css'>
<![CDATA[
[data-mouse-over-selected='false'] { opacity: 0.7; }
[data-mouse-over-selected='true']  { opacity: 1.0; }
]]>
</style>
<script type="application/ecmascript"><![CDATA[
document.addEventListener('DOMContentLoaded', (event) => {
  highlightEdges();
  highlightAdjacentNodes();
});
]]></script>
</svg>
