<?xml version="1.0" encoding="UTF-8" standalone="no"?>
<!DOCTYPE svg PUBLIC "-//W3C//DTD SVG 1.1//EN"
 "http://www.w3.org/Graphics/SVG/1.1/DTD/svg11.dtd">
<!-- Generated by graphviz version 12.1.1 (20240910.0053)
 -->
<!-- Title: main Pages: 1 -->
<svg width="120pt" height="64pt"
 viewBox="0.00 0.00 120.25 64.25" xmlns="http://www.w3.org/2000/svg" xmlns:xlink="http://www.w3.org/1999/xlink">
<g id="graph0" class="graph" transform="scale(1 1) rotate(0) translate(4 60.25)">
<title>main</title>
<!-- Node1 -->
<g id="Node000001" class="node">
<title>Node1</title>
<g id="a_Node000001"><a xlink:title="Main function.">
<polygon fill="#999999" stroke="#666666" points="37,-37.25 0,-37.25 0,-18 37,-18 37,-37.25"/>
<text text-anchor="middle" x="18.5" y="-23.75" font-family="Helvetica,sans-Serif" font-size="10.00">main</text>
</a>
</g>
</g>
<!-- Node2 -->
<g id="Node000002" class="node">
<title>Node2</title>
<g id="a_Node000002"><a xlink:href="text__search_8cpp.html#a3f8975d227cd0e58f298b380c5dac0d9" target="_top" xlink:title="function to convert a C++ string to lower case">
<polygon fill="white" stroke="#666666" points="112.25,-56.25 73,-56.25 73,-37 112.25,-37 112.25,-56.25"/>
<text text-anchor="middle" x="92.62" y="-42.75" font-family="Helvetica,sans-Serif" font-size="10.00">lower</text>
</a>
</g>
</g>
<!-- Node1&#45;&gt;Node2 -->
<g id="edge1_Node000001_Node000002" class="edge">
<title>Node1&#45;&gt;Node2</title>
<g id="a_edge1_Node000001_Node000002"><a xlink:title=" ">
<path fill="none" stroke="#63b8ff" d="M37.33,-32.32C44.73,-34.27 53.52,-36.59 61.84,-38.78"/>
<polygon fill="#63b8ff" stroke="#63b8ff" points="60.72,-42.1 71.28,-41.26 62.5,-35.33 60.72,-42.1"/>
</a>
</g>
</g>
<!-- Node3 -->
<g id="Node000003" class="node">
<title>Node3</title>
<g id="a_Node000003"><a xlink:href="caesar__cipher_8cpp.html#ae1a3968e7947464bee7714f6d43b7002" target="_top" xlink:title=" ">
<polygon fill="white" stroke="#666666" points="108.88,-19.25 76.38,-19.25 76.38,0 108.88,0 108.88,-19.25"/>
<text text-anchor="middle" x="92.62" y="-5.75" font-family="Helvetica,sans-Serif" font-size="10.00">test</text>
</a>
</g>
</g>
<!-- Node1&#45;&gt;Node3 -->
<g id="edge2_Node000001_Node000003" class="edge">
<title>Node1&#45;&gt;Node3</title>
<g id="a_edge2_Node000001_Node000003"><a xlink:title=" ">
<path fill="none" stroke="#63b8ff" d="M37.33,-23.18C45.66,-21.1 55.75,-18.58 64.96,-16.28"/>
<polygon fill="#63b8ff" stroke="#63b8ff" points="65.64,-19.72 74.49,-13.9 63.94,-12.93 65.64,-19.72"/>
</a>
</g>
</g>
</g>
</svg>
