<?xml version="1.0" encoding="UTF-8" standalone="no"?>
<!DOCTYPE svg PUBLIC "-//W3C//DTD SVG 1.1//EN"
 "http://www.w3.org/Graphics/SVG/1.1/DTD/svg11.dtd">
<!-- Generated by graphviz version 12.1.1 (20240910.0053)
 -->
<!-- Title: dynamic_programming::word_break::check Pages: 1 -->
<svg width="273pt" height="57pt"
 viewBox="0.00 0.00 272.50 56.50" xmlns="http://www.w3.org/2000/svg" xmlns:xlink="http://www.w3.org/1999/xlink">
<g id="graph0" class="graph" transform="scale(1 1) rotate(0) translate(4 52.5)">
<title>dynamic_programming::word_break::check</title>
<!-- Node1 -->
<g id="Node000001" class="node">
<title>Node1</title>
<g id="a_Node000001"><a xlink:title="Function that checks if the string passed in param can be segmented from position &#39;pos&#39;,...">
<polygon fill="#999999" stroke="#666666" points="114.25,-30.5 0,-30.5 0,0 114.25,0 114.25,-30.5"/>
<text text-anchor="start" x="8" y="-17" font-family="Helvetica,sans-Serif" font-size="10.00">dynamic_programming</text>
<text text-anchor="middle" x="57.12" y="-5.75" font-family="Helvetica,sans-Serif" font-size="10.00">::word_break::check</text>
</a>
</g>
</g>
<!-- Node2 -->
<g id="Node000002" class="node">
<title>Node2</title>
<g id="a_Node000002"><a xlink:href="word__break_8cpp.html#a1cc9dd6e6190d10a010fdcdfe7a21a81" target="_top" xlink:title="Function that checks if the string passed in param is present in the the unordered_set passed.">
<polygon fill="white" stroke="#666666" points="264.5,-30.5 150.25,-30.5 150.25,0 264.5,0 264.5,-30.5"/>
<text text-anchor="start" x="158.25" y="-17" font-family="Helvetica,sans-Serif" font-size="10.00">dynamic_programming</text>
<text text-anchor="middle" x="207.38" y="-5.75" font-family="Helvetica,sans-Serif" font-size="10.00">::word_break::exists</text>
</a>
</g>
</g>
<!-- Node1&#45;&gt;Node2 -->
<g id="edge1_Node000001_Node000002" class="edge">
<title>Node1&#45;&gt;Node2</title>
<g id="a_edge1_Node000001_Node000002"><a xlink:title=" ">
<path fill="none" stroke="#63b8ff" d="M114.59,-15.25C122.49,-15.25 130.67,-15.25 138.75,-15.25"/>
<polygon fill="#63b8ff" stroke="#63b8ff" points="138.55,-18.75 148.55,-15.25 138.55,-11.75 138.55,-18.75"/>
</a>
</g>
</g>
<!-- Node2&#45;&gt;Node2 -->
<g id="edge2_Node000002_Node000002" class="edge">
<title>Node2&#45;&gt;Node2</title>
<g id="a_edge2_Node000002_Node000002"><a xlink:title=" ">
<path fill="none" stroke="#63b8ff" d="M180.75,-30.99C175.32,-40.06 184.19,-48.5 207.38,-48.5 220.05,-48.5 228.45,-45.97 232.57,-42.2"/>
<polygon fill="#63b8ff" stroke="#63b8ff" points="236.02,-42.85 233.81,-32.49 229.07,-41.97 236.02,-42.85"/>
</a>
</g>
</g>
</g>
</svg>
